<svg width="24" height="24" viewBox="0 0 24 24" fill="none" xmlns="http://www.w3.org/2000/svg">
<path fill-rule="evenodd" clip-rule="evenodd" d="M9.1973 5.29322C9.58781 5.68375 9.5878 6.31691 9.19727 6.70743L3.90442 12L9.19727 17.2926C9.5878 17.6831 9.58781 18.3163 9.1973 18.7068C8.80679 19.0973 8.17362 19.0974 7.78309 18.7068L1.07593 12L7.78309 5.29318C8.17362 4.90267 8.80679 4.90268 9.1973 5.29322Z" fill="#ACA996"/>
<path fill-rule="evenodd" clip-rule="evenodd" d="M14.8335 5.29322C14.4429 5.68375 14.443 6.31691 14.8335 6.70743L20.1263 12L14.8335 17.2926C14.443 17.6831 14.4429 18.3163 14.8335 18.7068C15.224 19.0973 15.8571 19.0974 16.2477 18.7068L22.9548 12L16.2477 5.29318C15.8571 4.90267 15.224 4.90268 14.8335 5.29322Z" fill="#ACA996"/>
</svg>
