<svg width="25" height="24" viewBox="0 0 25 24" fill="none" xmlns="http://www.w3.org/2000/svg">
<rect x="4.04028" y="11" width="6" height="2" fill="#ACA996"/>
<rect x="3.04028" y="6" width="2.5" height="12" fill="#ACA996"/>
<rect x="10.0403" y="6" width="2.5" height="12" fill="#ACA996"/>
<path fill-rule="evenodd" clip-rule="evenodd" d="M18.0637 18C15.5841 18 14.3511 16.7399 14.2562 14.7752H16.2345C16.3293 15.7101 16.8036 16.3876 17.9824 16.3876C19.0799 16.3876 19.5948 15.8592 19.5948 14.992C19.5948 14.0571 19.0799 13.5964 18.0366 13.5964H17.2778V12.133H17.9824C19.0121 12.133 19.4593 11.6723 19.4593 10.8458C19.4593 10.1548 19.0257 9.63987 18.1179 9.63987C17.1965 9.63987 16.6274 10.1819 16.519 11.1032H14.5814C14.6356 10.2225 14.9744 9.45018 15.5841 8.89464C16.1803 8.35266 17.061 8.02747 18.1585 8.02747C19.2289 8.02747 20.0555 8.29846 20.6381 8.7727C21.2207 9.24693 21.5324 9.89732 21.5324 10.6561C21.5324 11.7401 20.9091 12.4175 19.9335 12.7563C21.0717 13.0137 21.8169 13.7861 21.8169 15.0326C21.8169 16.8618 20.4349 18 18.0637 18Z" fill="#ACA996"/>
</svg>
