<svg width="24" height="24" viewBox="0 0 24 24" fill="none" xmlns="http://www.w3.org/2000/svg">
<g clip-path="url(#clip0)">
<path d="M16.9501 8.65239C18.1217 7.48081 18.1217 5.58132 16.9501 4.40975C15.7785 3.23817 13.879 3.23817 12.7074 4.40975L5.63636 11.4808C3.68374 13.4334 3.68336 16.5989 5.63598 18.5515C7.5886 20.5041 10.7544 20.5041 12.707 18.5515L18.7174 12.541C18.9127 12.3458 19.2292 12.3458 19.4245 12.541L20.1316 13.2481C20.3269 13.4434 20.3269 13.76 20.1316 13.9552L14.1212 19.9656C11.3875 22.6993 6.95544 22.6994 4.22177 19.9657C1.4881 17.232 1.4881 12.7999 4.22177 10.0662L11.2932 2.99553C13.2458 1.04291 16.4117 1.04291 18.3643 2.99553C20.3169 4.94815 20.3169 8.11398 18.3643 10.0666L12.0003 16.4306C10.8288 17.6021 8.92927 17.6021 7.7577 16.4306C6.58612 15.259 6.58612 13.3595 7.7577 12.1879L13.061 6.88463C13.2563 6.68937 13.5728 6.68937 13.7681 6.88463L14.4752 7.59174C14.6705 7.787 14.6705 8.10358 14.4752 8.29884L9.17191 13.6021C8.78139 13.9927 8.78139 14.6258 9.17191 15.0164C9.56243 15.4069 10.1956 15.4069 10.5861 15.0164L16.9501 8.65239Z" fill="#fff"/>
</g>
<defs>
<clipPath id="clip0">
<rect width="24" height="24" fill="white"/>
</clipPath>
</defs>
</svg>
