<svg xmlns="http://www.w3.org/2000/svg" width="22" height="18" viewBox="0 0 22 18">
    <g fill="none" fill-rule="nonzero">
        <path stroke="#ffbb2c" stroke-width="2" d="M20.786 3.998a6.616 6.616 0 0 0-.062-.38 7.146 7.146 0 0 0-.22-.874c-.114-.35-.244-.618-.37-.767a2.204 2.204 0 0 0-.29-.294c-.34-.284-.563-.349-1.19-.421l-.037-.005a59.824 59.824 0 0 0-2.459-.148 127.763 127.763 0 0 0-4.713-.107 80.142 80.142 0 0 0-2.056.012c-1.208.017-2.417.047-3.542.095a62.26 62.26 0 0 0-2.416.142l-.084.01c-.63.074-.853.138-1.194.425a2.273 2.273 0 0 0-.296.303c-.116.137-.246.404-.36.755-.09.273-.163.573-.22.874-.035.18-.056.317-.063.372l-.032.34c-.026.278-.05.586-.074.92A39.9 39.9 0 0 0 1 8.025v1.94c0 .881.04 1.83.108 2.778a46.018 46.018 0 0 0 .105 1.244 7.134 7.134 0 0 0 .283 1.259c.114.35.244.617.37.766.152.185.319.32.505.421.283.154.438.189 1.1.286.079.011.143.022.203.034.622.066 1.804.122 3.36.167a226.714 226.714 0 0 0 3.636.075l.328.004c.08 0 .23 0 .44-.002a151.537 151.537 0 0 0 4.715-.113 65.43 65.43 0 0 0 2.41-.142l.09-.011c.632-.076.852-.14 1.192-.424a2.27 2.27 0 0 0 .299-.306c.116-.137.246-.404.36-.754a7.15 7.15 0 0 0 .22-.872c.034-.18.055-.318.062-.372l.032-.34c.026-.278.05-.586.074-.92.068-.948.108-1.897.108-2.777v-1.94c0-.88-.04-1.829-.108-2.778a46.062 46.062 0 0 0-.106-1.251z"/>
        <path fill="#ffbb2c" d="M8.992 5.016v8l6.547-4z"/>
    </g>
</svg>
