<svg width="30" height="30" viewBox="0 0 30 30" fill="none" xmlns="http://www.w3.org/2000/svg">
<path fill-rule="evenodd" clip-rule="evenodd" d="M20.8341 15.5313L22.9549 13.4104C24.7123 11.6531 24.7123 8.80382 22.9549 7.04646C21.1976 5.28911 18.3483 5.28911 16.591 7.04646L13.409 10.2284C11.6516 11.9858 11.6516 14.835 13.409 16.5924C14.1668 17.3502 15.1276 17.7812 16.1164 17.8855C15.9735 18.1846 15.7781 18.465 15.5303 18.7128L15.0365 19.2066C14.0517 18.9435 13.1209 18.4256 12.3483 17.6531C10.0052 15.3099 10.0052 11.5109 12.3483 9.16779L15.5303 5.9858C17.8735 3.64266 21.6724 3.64266 24.0156 5.9858C26.3587 8.32895 26.3587 12.1279 24.0156 14.4711L20.8339 17.6527C20.9339 16.9494 20.934 16.2346 20.8341 15.5313Z" fill="#B6B6B6"/>
<path fill-rule="evenodd" clip-rule="evenodd" d="M9.16582 14.4727L7.04507 16.5935C5.28771 18.3508 5.28771 21.2001 7.04507 22.9574C8.80243 24.7148 11.6517 24.7148 13.409 22.9574L16.591 19.7755C18.3484 18.0181 18.3484 15.1689 16.591 13.4115C15.8332 12.6537 14.8723 12.2227 13.8835 12.1184C14.0265 11.8193 14.2219 11.539 14.4696 11.2912L14.9636 10.7973C15.9483 11.0604 16.8791 11.5783 17.6517 12.3508C19.9948 14.694 19.9948 18.493 17.6517 20.8361L14.4697 24.0181C12.1265 26.3612 8.32756 26.3612 5.98441 24.0181C3.64126 21.675 3.64126 17.876 5.98441 15.5328L9.16598 12.3512C9.066 13.0546 9.06594 13.7694 9.16582 14.4727Z" fill="#B6B6B6"/>
</svg>
