<svg width="30" height="30" viewBox="0 0 30 30" fill="none" xmlns="http://www.w3.org/2000/svg">
<path d="M8.16667 24C7.4537 24 7.25 23.4561 7.61111 23.0245C7.96296 22.5928 8.88889 21.6432 9.40741 20.8489C9.48148 20.7194 9.43519 20.5899 9.2963 20.5209C6.32407 19.036 4.5 16.6101 4.5 13.8475C4.5 9.50504 9.16667 6 15 6C20.8333 6 25.5 9.50504 25.5 13.8475C25.5 18.1468 21.0741 21.6863 14.3981 21.6863C14.2778 21.6863 14.1574 21.6777 14.037 21.6691C13.9074 21.6691 13.7778 21.7122 13.6204 21.8158C12.0463 22.8691 9.27778 24 8.16667 24Z" stroke="#B6B6B6" stroke-width="1.5"/>
</svg>
