<svg width="28" height="24" viewBox="0 0 28 24" fill="none" xmlns="http://www.w3.org/2000/svg">
<path d="M24.4813 16.5792C25.0341 16.8556 25.0341 17.6444 24.4813 17.9208L14.3354 22.9938C14.1243 23.0993 13.8757 23.0993 13.6646 22.9938L3.51869 17.9208C2.96591 17.6444 2.96591 16.8556 3.51869 16.5792L13.6646 11.5062C13.8757 11.4007 14.1243 11.4007 14.3354 11.5062L24.4813 16.5792Z" fill="#F2F2F2"/>
<path d="M24.4813 16.5792C25.0341 16.8556 25.0341 17.6444 24.4813 17.9208L14.3354 22.9938C14.1243 23.0993 13.8757 23.0993 13.6646 22.9938L3.51869 17.9208C2.96591 17.6444 2.96591 16.8556 3.51869 16.5792L13.6646 11.5062C13.8757 11.4007 14.1243 11.4007 14.3354 11.5062L24.4813 16.5792Z" fill="#F2F2F2"/>
<path d="M24.4813 16.5792C25.0341 16.8556 25.0341 17.6444 24.4813 17.9208L14.3354 22.9938C14.1243 23.0993 13.8757 23.0993 13.6646 22.9938L3.51869 17.9208C2.96591 17.6444 2.96591 16.8556 3.51869 16.5792L13.6646 11.5062C13.8757 11.4007 14.1243 11.4007 14.3354 11.5062L24.4813 16.5792Z" fill="#F2F2F2"/>
<path d="M24.4813 16.5792C25.0341 16.8556 25.0341 17.6444 24.4813 17.9208L14.3354 22.9938C14.1243 23.0993 13.8757 23.0993 13.6646 22.9938L3.51869 17.9208C2.96591 17.6444 2.96591 16.8556 3.51869 16.5792L13.6646 11.5062C13.8757 11.4007 14.1243 11.4007 14.3354 11.5062L24.4813 16.5792Z" stroke="#B6B6B6" stroke-width="1.5"/>
<path d="M24.4813 11.3292C25.0341 11.6056 25.0341 12.3944 24.4813 12.6708L14.3354 17.7438C14.1243 17.8493 13.8757 17.8493 13.6646 17.7438L3.51869 12.6708C2.96591 12.3944 2.96591 11.6056 3.51869 11.3292L13.6646 6.25623C13.8757 6.15066 14.1243 6.15066 14.3354 6.25623L24.4813 11.3292Z" fill="#F2F2F2"/>
<path d="M24.4813 11.3292C25.0341 11.6056 25.0341 12.3944 24.4813 12.6708L14.3354 17.7438C14.1243 17.8493 13.8757 17.8493 13.6646 17.7438L3.51869 12.6708C2.96591 12.3944 2.96591 11.6056 3.51869 11.3292L13.6646 6.25623C13.8757 6.15066 14.1243 6.15066 14.3354 6.25623L24.4813 11.3292Z" fill="#F2F2F2"/>
<path d="M24.4813 11.3292C25.0341 11.6056 25.0341 12.3944 24.4813 12.6708L14.3354 17.7438C14.1243 17.8493 13.8757 17.8493 13.6646 17.7438L3.51869 12.6708C2.96591 12.3944 2.96591 11.6056 3.51869 11.3292L13.6646 6.25623C13.8757 6.15066 14.1243 6.15066 14.3354 6.25623L24.4813 11.3292Z" fill="#F2F2F2"/>
<path d="M24.4813 11.3292C25.0341 11.6056 25.0341 12.3944 24.4813 12.6708L14.3354 17.7438C14.1243 17.8493 13.8757 17.8493 13.6646 17.7438L3.51869 12.6708C2.96591 12.3944 2.96591 11.6056 3.51869 11.3292L13.6646 6.25623C13.8757 6.15066 14.1243 6.15066 14.3354 6.25623L24.4813 11.3292Z" stroke="#B6B6B6" stroke-width="1.5"/>
<path d="M24.4813 6.07918C25.0341 6.35557 25.0341 7.14443 24.4813 7.42082L14.3354 12.4938C14.1243 12.5993 13.8757 12.5993 13.6646 12.4938L3.51869 7.42082C2.96591 7.14443 2.96591 6.35557 3.51869 6.07918L13.6646 1.00623C13.8757 0.900658 14.1243 0.900658 14.3354 1.00623L24.4813 6.07918Z" fill="#F2F2F2"/>
<path d="M24.4813 6.07918C25.0341 6.35557 25.0341 7.14443 24.4813 7.42082L14.3354 12.4938C14.1243 12.5993 13.8757 12.5993 13.6646 12.4938L3.51869 7.42082C2.96591 7.14443 2.96591 6.35557 3.51869 6.07918L13.6646 1.00623C13.8757 0.900658 14.1243 0.900658 14.3354 1.00623L24.4813 6.07918Z" fill="#F2F2F2"/>
<path d="M24.4813 6.07918C25.0341 6.35557 25.0341 7.14443 24.4813 7.42082L14.3354 12.4938C14.1243 12.5993 13.8757 12.5993 13.6646 12.4938L3.51869 7.42082C2.96591 7.14443 2.96591 6.35557 3.51869 6.07918L13.6646 1.00623C13.8757 0.900658 14.1243 0.900658 14.3354 1.00623L24.4813 6.07918Z" fill="#F2F2F2"/>
<path d="M24.4813 6.07918C25.0341 6.35557 25.0341 7.14443 24.4813 7.42082L14.3354 12.4938C14.1243 12.5993 13.8757 12.5993 13.6646 12.4938L3.51869 7.42082C2.96591 7.14443 2.96591 6.35557 3.51869 6.07918L13.6646 1.00623C13.8757 0.900658 14.1243 0.900658 14.3354 1.00623L24.4813 6.07918Z" stroke="#B6B6B6" stroke-width="1.5"/>
</svg>
