<svg width="24" height="24" viewBox="0 0 24 24" fill="none" xmlns="http://www.w3.org/2000/svg">
<path d="M1.59099 12.9697L13.591 0.96967L13.0624 0.441079L13.591 0.96967C13.7316 0.829018 13.9224 0.75 14.1213 0.75H18.8787C19.0776 0.75 19.2684 0.829018 19.409 0.969668L23.0303 4.59099L23.5607 4.06066L23.0303 4.59099C23.171 4.73164 23.25 4.92241 23.25 5.12132V9.87868C23.25 10.0776 23.171 10.2684 23.0303 10.409L11.0303 22.409C10.7374 22.7019 10.2626 22.7019 9.96967 22.409L1.59099 14.0303C1.2981 13.7374 1.2981 13.2626 1.59099 12.9697Z" stroke="#B6B6B6" stroke-width="1.5"/>
<circle cx="17.25" cy="6.75" r="1.5" fill="#B6B6B6"/>
</svg>
