<svg width="30" height="30" viewBox="0 0 30 30" fill="none" xmlns="http://www.w3.org/2000/svg">
<g clip-path="url(#clip0_6542_2595)">
<rect x="15" y="3.33044" width="16.5" height="16.5" rx="1.5" transform="rotate(45 15 3.33044)" stroke="#B6B6B6" stroke-width="1.5"/>
<mask id="path-2-inside-1_6542_2595" fill="white">
<path fill-rule="evenodd" clip-rule="evenodd" d="M23.2544 10.4576C23.7272 10.322 24.1732 10.0679 24.5456 9.6955C25.7172 8.52393 25.7172 6.62444 24.5456 5.45286C23.3741 4.28129 21.4746 4.28129 20.303 5.45286C19.9297 5.8262 19.6753 6.27346 19.5399 6.74753L18.4468 7.84062L22.1591 11.5529L23.2544 10.4576Z"/>
</mask>
<path fill-rule="evenodd" clip-rule="evenodd" d="M23.2544 10.4576C23.7272 10.322 24.1732 10.0679 24.5456 9.6955C25.7172 8.52393 25.7172 6.62444 24.5456 5.45286C23.3741 4.28129 21.4746 4.28129 20.303 5.45286C19.9297 5.8262 19.6753 6.27346 19.5399 6.74753L18.4468 7.84062L22.1591 11.5529L23.2544 10.4576Z" fill="#F2F2F2"/>
<path d="M23.2544 10.4576L22.8407 9.0158L22.468 9.12274L22.1937 9.39697L23.2544 10.4576ZM19.5399 6.74753L20.6005 7.80819L20.8754 7.53329L20.9822 7.15947L19.5399 6.74753ZM18.4468 7.84062L17.3861 6.77996L16.3255 7.84062L17.3861 8.90128L18.4468 7.84062ZM22.1591 11.5529L21.0984 12.6136L22.1591 13.6742L23.2198 12.6136L22.1591 11.5529ZM23.485 8.63484C23.2969 8.82288 23.0753 8.9485 22.8407 9.0158L23.6681 11.8995C24.3791 11.6955 25.0495 11.313 25.6063 10.7562L23.485 8.63484ZM23.485 6.51352C24.0708 7.09931 24.0708 8.04906 23.485 8.63484L25.6063 10.7562C27.3637 8.9988 27.3637 6.14956 25.6063 4.3922L23.485 6.51352ZM21.3637 6.51352C21.9494 5.92774 22.8992 5.92774 23.485 6.51352L25.6063 4.3922C23.8489 2.63484 20.9997 2.63484 19.2423 4.3922L21.3637 6.51352ZM20.9822 7.15947C21.0494 6.92428 21.1752 6.70201 21.3637 6.51352L19.2423 4.3922C18.6841 4.9504 18.3012 5.62264 18.0976 6.33558L20.9822 7.15947ZM19.5075 8.90128L20.6005 7.80819L18.4792 5.68687L17.3861 6.77996L19.5075 8.90128ZM23.2198 10.4923L19.5075 6.77996L17.3861 8.90128L21.0984 12.6136L23.2198 10.4923ZM22.1937 9.39697L21.0984 10.4923L23.2198 12.6136L24.3151 11.5183L22.1937 9.39697Z" fill="#B6B6B6" mask="url(#path-2-inside-1_6542_2595)"/>
<rect x="21.6289" y="6.77588" width="2.25" height="3" transform="rotate(45 21.6289 6.77588)" fill="#F2F2F2"/>
<mask id="path-5-inside-2_6542_2595" fill="white">
<path fill-rule="evenodd" clip-rule="evenodd" d="M7.8724 11.5799C8.00779 12.054 8.26217 12.5014 8.63555 12.8747C9.80712 14.0463 11.7066 14.0463 12.8782 12.8747C14.0498 11.7032 14.0498 9.80367 12.8782 8.6321C12.5058 8.2597 12.0599 8.00568 11.5871 7.87002L10.4917 6.77462L6.77941 10.4869L7.8724 11.5799Z"/>
</mask>
<path fill-rule="evenodd" clip-rule="evenodd" d="M7.8724 11.5799C8.00779 12.054 8.26217 12.5014 8.63555 12.8747C9.80712 14.0463 11.7066 14.0463 12.8782 12.8747C14.0498 11.7032 14.0498 9.80367 12.8782 8.6321C12.5058 8.2597 12.0599 8.00568 11.5871 7.87002L10.4917 6.77462L6.77941 10.4869L7.8724 11.5799Z" fill="#F2F2F2"/>
<path d="M7.8724 11.5799L9.31475 11.1681L9.20799 10.7942L8.93306 10.5193L7.8724 11.5799ZM11.5871 7.87002L10.5265 8.93068L10.8007 9.20487L11.1734 9.31183L11.5871 7.87002ZM10.4917 6.77462L11.5524 5.71396L10.4917 4.6533L9.43106 5.71396L10.4917 6.77462ZM6.77941 10.4869L5.71875 9.42627L4.65809 10.4869L5.71875 11.5476L6.77941 10.4869ZM9.69621 11.8141C9.50771 11.6256 9.38191 11.4033 9.31475 11.1681L6.43005 11.9918C6.63366 12.7048 7.01663 13.3771 7.57489 13.9354L9.69621 11.8141ZM11.8175 11.8141C11.2317 12.3999 10.282 12.3999 9.69621 11.8141L7.57489 13.9354C9.33225 15.6928 12.1815 15.6928 13.9389 13.9354L11.8175 11.8141ZM11.8175 9.69276C12.4033 10.2785 12.4033 11.2283 11.8175 11.8141L13.9389 13.9354C15.6962 12.178 15.6962 9.3288 13.9389 7.57144L11.8175 9.69276ZM11.1734 9.31183C11.4079 9.37913 11.6295 9.50474 11.8175 9.69276L13.9389 7.57144C13.3821 7.01466 12.7118 6.63222 12.0009 6.42821L11.1734 9.31183ZM9.43106 7.83528L10.5265 8.93068L12.6478 6.80936L11.5524 5.71396L9.43106 7.83528ZM7.84007 11.5476L11.5524 7.83528L9.43106 5.71396L5.71875 9.42627L7.84007 11.5476ZM8.93306 10.5193L7.84007 9.42627L5.71875 11.5476L6.81174 12.6406L8.93306 10.5193Z" fill="#B6B6B6" mask="url(#path-5-inside-2_6542_2595)"/>
<rect x="11.5527" y="9.96045" width="2.25" height="3" transform="rotate(135 11.5527 9.96045)" fill="#F2F2F2"/>
<mask id="path-8-inside-3_6542_2595" fill="white">
<path fill-rule="evenodd" clip-rule="evenodd" d="M18.4126 22.1239C17.9398 21.9882 17.4938 21.7342 17.1214 21.3618C15.9498 20.1902 15.9498 18.2907 17.1214 17.1191C18.2929 15.9476 20.1924 15.9476 21.364 17.1191C21.7373 17.4925 21.9917 17.9397 22.1271 18.4138L23.2202 19.5069L19.5079 23.2192L18.4126 22.1239Z"/>
</mask>
<path fill-rule="evenodd" clip-rule="evenodd" d="M18.4126 22.1239C17.9398 21.9882 17.4938 21.7342 17.1214 21.3618C15.9498 20.1902 15.9498 18.2907 17.1214 17.1191C18.2929 15.9476 20.1924 15.9476 21.364 17.1191C21.7373 17.4925 21.9917 17.9397 22.1271 18.4138L23.2202 19.5069L19.5079 23.2192L18.4126 22.1239Z" fill="#F2F2F2"/>
<path d="M18.4126 22.1239L18.8262 20.6821L19.199 20.789L19.4732 21.0632L18.4126 22.1239ZM22.1271 18.4138L21.0664 19.4744L20.7915 19.1995L20.6848 18.8257L22.1271 18.4138ZM23.2202 19.5069L24.2809 18.4462L25.3415 19.5069L24.2809 20.5675L23.2202 19.5069ZM19.5079 23.2192L20.5685 24.2798L19.5079 25.3405L18.4472 24.2798L19.5079 23.2192ZM18.182 20.3011C18.3701 20.4891 18.5917 20.6148 18.8262 20.6821L17.9989 23.5657C17.2879 23.3617 16.6175 22.9793 16.0607 22.4224L18.182 20.3011ZM18.182 18.1798C17.5962 18.7656 17.5962 19.7153 18.182 20.3011L16.0607 22.4224C14.3033 20.6651 14.3033 17.8158 16.0607 16.0585L18.182 18.1798ZM20.3033 18.1798C19.7175 17.594 18.7678 17.594 18.182 18.1798L16.0607 16.0585C17.8181 14.3011 20.6673 14.3011 22.4247 16.0585L20.3033 18.1798ZM20.6848 18.8257C20.6176 18.5905 20.4918 18.3683 20.3033 18.1798L22.4247 16.0585C22.9829 16.6167 23.3658 17.2889 23.5694 18.0018L20.6848 18.8257ZM22.1595 20.5675L21.0664 19.4744L23.1878 17.3531L24.2809 18.4462L22.1595 20.5675ZM18.4472 22.1585L22.1595 18.4462L24.2809 20.5675L20.5685 24.2798L18.4472 22.1585ZM19.4732 21.0632L20.5685 22.1585L18.4472 24.2798L17.3519 23.1845L19.4732 21.0632Z" fill="#B6B6B6" mask="url(#path-8-inside-3_6542_2595)"/>
<rect width="2.25" height="3" transform="matrix(-0.707107 0.707107 0.707107 0.707107 20.0381 18.4431)" fill="#F2F2F2"/>
<mask id="path-11-inside-4_6542_2595" fill="white">
<path fill-rule="evenodd" clip-rule="evenodd" d="M10.4601 23.2515C10.3247 23.7257 10.0703 24.173 9.69697 24.5464C8.5254 25.7179 6.6259 25.7179 5.45433 24.5464C4.28276 23.3748 4.28276 21.4753 5.45433 20.3037C5.82672 19.9313 6.27267 19.6773 6.7454 19.5416L7.8408 18.4463L11.5531 22.1586L10.4601 23.2515Z"/>
</mask>
<path fill-rule="evenodd" clip-rule="evenodd" d="M10.4601 23.2515C10.3247 23.7257 10.0703 24.173 9.69697 24.5464C8.5254 25.7179 6.6259 25.7179 5.45433 24.5464C4.28276 23.3748 4.28276 21.4753 5.45433 20.3037C5.82672 19.9313 6.27267 19.6773 6.7454 19.5416L7.8408 18.4463L11.5531 22.1586L10.4601 23.2515Z" fill="#F2F2F2"/>
<path d="M10.4601 23.2515L9.01777 22.8397L9.12453 22.4658L9.39946 22.1909L10.4601 23.2515ZM6.7454 19.5416L7.80606 20.6023L7.53187 20.8765L7.15914 20.9835L6.7454 19.5416ZM7.8408 18.4463L6.78014 17.3856L7.8408 16.3249L8.90146 17.3856L7.8408 18.4463ZM11.5531 22.1586L12.6138 21.0979L13.6744 22.1586L12.6138 23.2192L11.5531 22.1586ZM8.63631 23.4857C8.82481 23.2972 8.95061 23.0749 9.01777 22.8397L11.9025 23.6634C11.6989 24.3764 11.3159 25.0488 10.7576 25.607L8.63631 23.4857ZM6.51499 23.4857C7.10077 24.0715 8.05052 24.0715 8.63631 23.4857L10.7576 25.607C9.00027 27.3644 6.15103 27.3644 4.39367 25.607L6.51499 23.4857ZM6.51499 21.3644C5.9292 21.9502 5.9292 22.8999 6.51499 23.4857L4.39367 25.607C2.63631 23.8497 2.63631 21.0004 4.39367 19.2431L6.51499 21.3644ZM7.15914 20.9835C6.92462 21.0508 6.703 21.1764 6.51499 21.3644L4.39367 19.2431C4.95045 18.6863 5.62071 18.3039 6.33165 18.0998L7.15914 20.9835ZM8.90146 19.5069L7.80606 20.6023L5.68474 18.481L6.78014 17.3856L8.90146 19.5069ZM10.4924 23.2192L6.78014 19.5069L8.90146 17.3856L12.6138 21.0979L10.4924 23.2192ZM9.39946 22.1909L10.4924 21.0979L12.6138 23.2192L11.5208 24.3122L9.39946 22.1909Z" fill="#B6B6B6" mask="url(#path-11-inside-4_6542_2595)"/>
<rect width="2.25" height="3" transform="matrix(0.707107 0.707107 0.707107 -0.707107 6.77979 21.6311)" fill="#F2F2F2"/>
</g>
<defs>
<clipPath id="clip0_6542_2595">
<rect width="30" height="30" fill="white"/>
</clipPath>
</defs>
</svg>
