<svg width="20" height="20" viewBox="0 0 20 20" fill="none" xmlns="http://www.w3.org/2000/svg">
<path fill-rule="evenodd" clip-rule="evenodd" d="M10.2492 17.25C6.58762 17.25 5.26484 15.1729 5.01562 12.7595H6.62596C6.83684 14.441 7.50781 15.8653 10.2492 15.8653C12.0129 15.8653 13.374 14.7971 13.374 13.1947C13.374 11.5924 12.6647 10.9001 10.0575 10.4847C7.18191 10.0099 5.47572 9.11971 5.47572 6.58765C5.47572 4.43145 7.29694 2.75 9.88498 2.75C12.6456 2.75 14.3134 4.11494 14.601 6.647H13.1056C12.7797 4.84686 11.802 4.13472 9.88498 4.13472C7.98708 4.13472 7.02855 5.08424 7.02855 6.4294C7.02855 7.79434 7.52698 8.54604 10.3259 8.96146C13.374 9.43622 14.9844 10.4253 14.9844 13.0761C14.9844 15.4499 12.9715 17.25 10.2492 17.25Z" fill="#D4D4D4"/>
<rect x="2" y="9.25" width="16" height="1.5" fill="#D4D4D4"/>
</svg>