<svg width="20" height="20" viewBox="0 0 20 20" fill="none" xmlns="http://www.w3.org/2000/svg">
<path fill-rule="evenodd" clip-rule="evenodd" d="M15 3H13.4422V11.5398C13.4422 12.179 13.304 12.7479 13.0276 13.2465C12.7554 13.7408 12.3618 14.1307 11.8467 14.4162C11.3317 14.6974 10.7161 14.8381 10 14.8381C9.28392 14.8381 8.66834 14.6974 8.15327 14.4162C7.64238 14.1307 7.24874 13.7408 6.97236 13.2465C6.69598 12.7479 6.55779 12.179 6.55779 11.5398V3H5V11.6676C5 12.5625 5.20519 13.3615 5.61558 14.0646C6.03015 14.7635 6.61223 15.3153 7.36181 15.7202C8.11139 16.1207 8.99079 16.321 10 16.321C11.0092 16.321 11.8886 16.1207 12.6382 15.7202C13.3878 15.3153 13.9678 14.7635 14.3781 14.0646C14.7927 13.3615 15 12.5625 15 11.6676V3ZM17 19.5V18H3V19.5H17Z" fill="#D4D4D4"/>
</svg>
