<svg width="24" height="24" viewBox="0 0 24 24" fill="none" xmlns="http://www.w3.org/2000/svg">
<path fill-rule="evenodd" clip-rule="evenodd" d="M16.6036 9.10357C16.7988 9.29883 16.7988 9.61541 16.6036 9.81068L10.5 15.9142L7.39646 12.8107C7.2012 12.6154 7.2012 12.2988 7.39646 12.1036L8.10357 11.3965C8.29883 11.2012 8.61541 11.2012 8.81068 11.3965L10.5 13.0858L15.1894 8.39646C15.3846 8.2012 15.7012 8.2012 15.8965 8.39646L16.6036 9.10357Z" fill="#2c2b27"/>
<path fill-rule="evenodd" clip-rule="evenodd" d="M12 19.897C16.4183 19.897 20 16.3153 20 11.897C20 7.47869 16.4183 3.89697 12 3.89697C7.58172 3.89697 4 7.47869 4 11.897C4 16.3153 7.58172 19.897 12 19.897ZM12 21.897C17.5228 21.897 22 17.4198 22 11.897C22 6.37413 17.5228 1.89697 12 1.89697C6.47715 1.89697 2 6.37413 2 11.897C2 17.4198 6.47715 21.897 12 21.897Z" fill="#2c2b27"/>
</svg>