<svg width="20" height="20" viewBox="0 0 20 20" fill="none" xmlns="http://www.w3.org/2000/svg">
<path fill-rule="evenodd" clip-rule="evenodd" d="M16 3.5H4C3.72386 3.5 3.5 3.72386 3.5 4V16C3.5 16.2761 3.72386 16.5 4 16.5H16C16.2761 16.5 16.5 16.2761 16.5 16V4C16.5 3.72386 16.2761 3.5 16 3.5ZM4 2C2.89543 2 2 2.89543 2 4V16C2 17.1046 2.89543 18 4 18H16C17.1046 18 18 17.1046 18 16V4C18 2.89543 17.1046 2 16 2H4Z" fill="#252525"/>
<path fill-rule="evenodd" clip-rule="evenodd" d="M11.6036 6.64645L10.8965 7.35356L13.5429 10L10.8965 12.6465L11.6036 13.3536L14.9571 10L11.6036 6.64645Z" fill="#252525"/>
<path fill-rule="evenodd" clip-rule="evenodd" d="M8.39641 6.64645L9.10352 7.35356L6.45707 10L9.10352 12.6465L8.39641 13.3536L5.04286 10L8.39641 6.64645Z" fill="#252525"/>
</svg>