<svg width="20" height="20" viewBox="0 0 20 20" fill="none" xmlns="http://www.w3.org/2000/svg">
<rect x="2.7998" y="9.19995" width="8" height="1.36" fill="#252525"/>
<rect x="2" y="3" width="1.5" height="14" fill="#252525"/>
<rect x="10" y="3" width="1.5" height="14" fill="#252525"/>
<path d="M16.9869 17.0999C18.6999 17.0999 19.9474 16.1217 19.9435 14.7732C19.9474 13.7755 19.3217 13.0584 18.1993 12.8986V12.8362C19.0675 12.6491 19.6502 12.0061 19.6463 11.1097C19.6502 9.89372 18.6099 8.8999 17.0104 8.8999C15.4538 8.8999 14.2493 9.82357 14.218 11.1604H15.6142C15.6376 10.49 16.2634 10.073 17.0025 10.073C17.7495 10.073 18.2462 10.5251 18.2423 11.1954C18.2462 11.8931 17.6674 12.3568 16.8383 12.3568H16.1304V13.4715H16.8383C17.8512 13.4715 18.4535 13.9781 18.4496 14.6991C18.4535 15.4046 17.8395 15.8878 16.983 15.8878C16.1773 15.8878 15.5555 15.4708 15.5203 14.82H14.0498C14.0889 16.1684 15.2974 17.0999 16.9869 17.0999Z" fill="#252525"/>
</svg>