<svg width="24" height="24" viewBox="0 0 24 24" fill="none" xmlns="http://www.w3.org/2000/svg">
<rect x="8.91577" y="4.97803" width="12" height="2" rx="0.5" fill="#2c2b27"/>
<rect x="8.91577" y="10.978" width="12" height="2" rx="0.5" fill="#2c2b27"/>
<rect x="8.91577" y="16.978" width="12" height="2" rx="0.5" fill="#2c2b27"/>
<path d="M5.04028 13.978C6.14485 13.978 7.04028 13.0826 7.04028 11.978C7.04028 10.8735 6.14485 9.97803 5.04028 9.97803C3.93571 9.97803 3.04028 10.8735 3.04028 11.978C3.04028 13.0826 3.93571 13.978 5.04028 13.978Z" fill="#2c2b27"/>
<path d="M5.04028 19.978C6.14485 19.978 7.04028 19.0826 7.04028 17.978C7.04028 16.8735 6.14485 15.978 5.04028 15.978C3.93571 15.978 3.04028 16.8735 3.04028 17.978C3.04028 19.0826 3.93571 19.978 5.04028 19.978Z" fill="#2c2b27"/>
<path d="M5.04028 7.97803C6.14485 7.97803 7.04028 7.0826 7.04028 5.97803C7.04028 4.87346 6.14485 3.97803 5.04028 3.97803C3.93571 3.97803 3.04028 4.87346 3.04028 5.97803C3.04028 7.0826 3.93571 7.97803 5.04028 7.97803Z" fill="#2c2b27"/>
</svg>
