<svg width="24" height="24" viewBox="0 0 24 24" fill="none" xmlns="http://www.w3.org/2000/svg">
<path fill-rule="evenodd" clip-rule="evenodd" d="M3.04028 20.8354L5.26502 18.4833C5.85093 17.8634 6.22455 17.3284 6.22455 16.7765C6.22455 16.267 5.95283 15.9528 5.41787 15.9528C4.87442 15.9528 4.54326 16.2585 4.44985 17.0652H3.20162C3.26955 15.6471 4.1102 14.8999 5.47731 14.8999C6.14813 14.8999 6.67459 15.0952 7.03972 15.4094C7.38787 15.7405 7.58317 16.1991 7.58317 16.7425C7.58317 17.5492 7.11615 18.2115 6.41136 18.8909L5.26502 20.0117H7.62563V21.0562H3.04028V20.8354Z" fill="#2c2b27"/>
<rect x="10.0525" y="4.97803" width="11.9688" height="2" rx="0.5" fill="#2c2b27"/>
<rect x="10.0525" y="16.978" width="11.9688" height="2" rx="0.5" fill="#2c2b27"/>
<rect x="10.0525" y="10.978" width="9" height="2" rx="0.5" fill="#2c2b27"/>
<path fill-rule="evenodd" clip-rule="evenodd" d="M4.95823 4.31637L3.73828 5.11565V3.95459L5.1265 2.97021H6.32121V8.98584H4.95823V4.31637Z" fill="#2c2b27"/>
</svg>
