<svg width="24" height="24" viewBox="0 0 24 24" fill="none" xmlns="http://www.w3.org/2000/svg">
<rect x="10.0715" y="4.97414" width="11.9688" height="2" rx="0.5" fill="#2c2b27"/>
<rect x="10.0715" y="10.9741" width="9" height="2" rx="0.5" fill="#2c2b27"/>
<rect x="10.0715" y="16.9741" width="12" height="2" rx="0.5" fill="#2c2b27"/>
<path d="M5.0376 5.9627L3.39471 4.32194C3.19932 4.12681 3.19912 3.81023 3.39425 3.61484L3.67691 3.33181C3.87204 3.13642 4.18863 3.13621 4.38402 3.33135L7.0175 5.96141L4.3842 8.59814C4.18906 8.79353 3.87248 8.79373 3.67709 8.5986L3.39407 8.31594C3.19868 8.12081 3.19847 7.80422 3.39361 7.60883L5.0376 5.9627Z" fill="#2c2b27"/>
<path d="M5.0376 17.9627L3.39471 16.3219C3.19932 16.1268 3.19912 15.8102 3.39425 15.6148L3.67691 15.3318C3.87204 15.1364 4.18863 15.1362 4.38402 15.3314L7.0175 17.9614L4.3842 20.5981C4.18906 20.7935 3.87248 20.7937 3.67709 20.5986L3.39407 20.3159C3.19868 20.1208 3.19847 19.8042 3.39361 19.6088L5.0376 17.9627Z" fill="#2c2b27"/>
</svg>
