<svg width="20" height="20" viewBox="0 0 20 20" fill="none" xmlns="http://www.w3.org/2000/svg">
<rect x="7" y="9.25" width="8" height="1.5" fill="#252525"/>
<rect x="7" y="4.25" width="11" height="1.5" fill="#252525"/>
<rect x="7" y="14.25" width="11" height="1.5" fill="#252525"/>
<path fill-rule="evenodd" clip-rule="evenodd" d="M2.39645 2.64645C2.59171 2.45118 2.90829 2.45118 3.10355 2.64645L5.45711 5L3.10355 7.35355C2.90829 7.54882 2.59171 7.54882 2.39645 7.35355C2.20118 7.15829 2.20118 6.84171 2.39645 6.64645L4.04289 5L2.39645 3.35355C2.20118 3.15829 2.20118 2.84171 2.39645 2.64645Z" fill="#252525"/>
<path fill-rule="evenodd" clip-rule="evenodd" d="M2.39645 12.6464C2.59171 12.4512 2.90829 12.4512 3.10355 12.6464L5.45711 15L3.10355 17.3536C2.90829 17.5488 2.59171 17.5488 2.39645 17.3536C2.20118 17.1583 2.20118 16.8417 2.39645 16.6464L4.04289 15L2.39645 13.3536C2.20118 13.1583 2.20118 12.8417 2.39645 12.6464Z" fill="#252525"/>
</svg>