<svg width="20" height="20" viewBox="0 0 20 20" fill="none" xmlns="http://www.w3.org/2000/svg">
<path d="M2.50006 6.02477C2.50002 6.00825 2.50194 5.99204 2.50671 5.97622C2.57451 5.75136 3.1926 4.00012 6 4C8.80724 4.00012 9.42542 5.75116 9.49328 5.97618C9.49806 5.99203 9.49998 6.00826 9.49993 6.02482L9.47126 15.6271C9.47063 15.8379 9.11667 15.9464 8.97392 15.7914C8.45628 15.2294 7.50596 14.5189 6 14.5C4.49635 14.4999 3.54664 15.2121 3.02847 15.7798C2.886 15.9359 2.52888 15.8277 2.5281 15.6163L2.51562 12.2343L2.50006 6.02477Z" fill="#f8f8f8"/>
<path d="M10.5001 6.02482C10.5 6.00826 10.5019 5.99203 10.5067 5.97618C10.5746 5.75116 11.1928 4.00012 14 4C16.8072 4.00012 17.4254 5.75116 17.4933 5.97618C17.4981 5.99203 17.5 6.00826 17.4999 6.02482L17.4713 15.6271C17.4706 15.8379 17.1167 15.9464 16.9739 15.7914C16.4563 15.2294 15.506 14.5189 14 14.5C12.4972 14.4999 11.5478 15.2113 11.0294 15.7788C10.8868 15.9349 10.5293 15.8264 10.5287 15.615L10.5001 6.02482Z" fill="#f8f8f8"/>
</svg>