<svg width="20" height="20" viewBox="0 0 20 20" fill="none" xmlns="http://www.w3.org/2000/svg">
<ellipse cx="13.5" cy="5.5" rx="2.25" ry="2.5" fill="#f8f8f8"/>
<path fill-rule="evenodd" clip-rule="evenodd" d="M9.72754 11.046C10.9779 11.9536 11.8313 13.3749 11.9777 15H17.2501C17.6644 15 18.0001 14.6642 18.0001 14.25V13.5C18.0001 11.0147 15.9854 9 13.5001 9C11.9202 9 10.5304 9.81424 9.72754 11.046Z" fill="#f8f8f8"/>
<path d="M2 15.5C2 13.0147 4.01472 11 6.5 11C8.98528 11 11 13.0147 11 15.5V16.2188C11 16.633 10.6642 16.9688 10.25 16.9688H2.75C2.33579 16.9688 2 16.633 2 16.2188V15.5Z" fill="#f8f8f8"/>
<ellipse cx="6.5" cy="7.5" rx="2.25" ry="2.5" fill="#f8f8f8"/>
</svg>
