<svg width="20" height="21" viewBox="0 0 20 21" fill="none" xmlns="http://www.w3.org/2000/svg">
<path fill-rule="evenodd" clip-rule="evenodd" d="M10 3.75879C9.58579 3.75879 9.25 4.09458 9.25 4.50879V10.0088H3.75C3.33579 10.0088 3 10.3446 3 10.7588C3 11.173 3.33579 11.5088 3.75 11.5088H9.25V17.0088C9.25 17.423 9.58579 17.7588 10 17.7588C10.4142 17.7588 10.75 17.423 10.75 17.0088V11.5088H16.25C16.6642 11.5088 17 11.173 17 10.7588C17 10.3446 16.6642 10.0088 16.25 10.0088H10.75V4.50879C10.75 4.09458 10.4142 3.75879 10 3.75879Z" fill="#f8f8f8"/>
</svg>