<svg xmlns="http://www.w3.org/2000/svg" width="64" height="64" viewBox="0 0 64 64" fill="none">
    <path fill-rule="evenodd" clip-rule="evenodd" d="M25.001 19.7515C23.068 19.7515 21.501 22.102 21.501 25.0015C21.501 27.901 23.068 30.2515 25.001 30.2515C26.934 30.2515 28.501 27.901 28.501 25.0015C28.501 22.102 26.934 19.7515 25.001 19.7515ZM39.0018 19.7515C37.0688 19.7515 35.5018 22.102 35.5018 25.0015C35.5018 27.901 37.0688 30.2515 39.0018 30.2515C40.9348 30.2515 42.5018 27.901 42.5018 25.0015C42.5018 22.102 40.9348 19.7515 39.0018 19.7515Z" fill="#B6B6B6"/>
    <circle cx="31.999" cy="31.999" r="25.5" stroke="#B6B6B6" stroke-width="5"/>
    <path d="M45.8004 36.3353C46.3064 36.2129 46.7876 36.38 47.0557 36.6289C47.1791 36.7435 47.218 36.838 47.2289 36.8809C47.235 36.905 47.2511 36.9699 47.19 37.1163C44.2009 44.2698 38.3552 48.75 32.0003 48.75C25.6731 48.75 19.8517 44.3097 16.85 37.2099C16.7879 37.063 16.8043 36.9988 16.8102 36.9755L16.8102 36.9754C16.8212 36.9326 16.8609 36.8357 16.9889 36.7176C17.2674 36.4607 17.7646 36.291 18.2805 36.4169C21.7991 37.2759 26.4983 38.0302 32.0164 37.9609C37.5649 37.9594 42.2828 37.1868 45.8004 36.3353Z" stroke="#B6B6B6" stroke-width="5"/>
</svg>
