<svg xmlns="http://www.w3.org/2000/svg" width="32" height="32" viewBox="0 0 32 32" fill="none">
    <path fill-rule="evenodd" clip-rule="evenodd" d="M12.5 9.87549C11.5335 9.87549 10.75 11.0507 10.75 12.5005C10.75 13.9502 11.5335 15.1255 12.5 15.1255C13.4665 15.1255 14.25 13.9502 14.25 12.5005C14.25 11.0507 13.4665 9.87549 12.5 9.87549ZM19.5004 9.87549C18.5339 9.87549 17.7504 11.0507 17.7504 12.5005C17.7504 13.9502 18.5339 15.1255 19.5004 15.1255C20.4669 15.1255 21.2504 13.9502 21.2504 12.5005C21.2504 11.0507 20.4669 9.87549 19.5004 9.87549Z" fill="#BFBFBF"/>
    <circle cx="15.999" cy="15.9995" r="12.75" stroke="#BFBFBF" stroke-width="2.5"/>
    <path d="M22.8997 18.1677C23.1527 18.1064 23.3933 18.19 23.5273 18.3145C23.5891 18.3718 23.6085 18.419 23.614 18.4404C23.617 18.4525 23.6251 18.485 23.5945 18.5582C22.1 22.1349 19.1771 24.375 15.9997 24.375C12.836 24.375 9.92534 22.1548 8.42451 18.605C8.39344 18.5315 8.40164 18.4994 8.40461 18.4878L8.40463 18.4877C8.41009 18.4663 8.42998 18.4178 8.49398 18.3588C8.63319 18.2303 8.88179 18.1455 9.13977 18.2085C10.8991 18.6379 13.2487 19.0151 16.0077 18.9804C18.7819 18.9797 21.1409 18.5934 22.8997 18.1677Z" stroke="#BFBFBF" stroke-width="2.5"/>
</svg>
