<svg width="16" height="16" viewBox="0 0 16 16" fill="none" xmlns="http://www.w3.org/2000/svg">
<path fill-rule="evenodd" clip-rule="evenodd" d="M12.3536 1.64645C12.5489 1.84171 12.5489 2.15829 12.3536 2.35355L6.70718 8L12.3536 13.6464C12.5489 13.8417 12.5489 14.1583 12.3536 14.3536C12.1584 14.5488 11.8418 14.5488 11.6465 14.3536L5.29297 8L11.6465 1.64645C11.8418 1.45118 12.1584 1.45118 12.3536 1.64645Z" fill="#b6b6b6"/>
<path d="M3.03125 1.98438C3.03125 1.71686 3.24811 1.5 3.51562 1.5C3.78314 1.5 4 1.71686 4 1.98438V14.0156C4 14.2831 3.78314 14.5 3.51562 14.5C3.24811 14.5 3.03125 14.2831 3.03125 14.0156V1.98438Z" fill="#b6b6b6"/>
</svg>