<svg width="25" height="24" viewBox="0 0 25 24" fill="none" xmlns="http://www.w3.org/2000/svg">
<path fill-rule="evenodd" clip-rule="evenodd" d="M20.0039 8.5L13.5039 2H6.00391C4.89934 2 4.00391 2.89543 4.00391 4V20C4.00391 21.1046 4.89934 22 6.00391 22H18.0039C19.1085 22 20.0039 21.1046 20.0039 20V8.5ZM12.8826 3.5L18.5039 9.12132V20C18.5039 20.2761 18.28 20.5 18.0039 20.5H6.00391C5.72776 20.5 5.50391 20.2761 5.50391 20V4C5.50391 3.72386 5.72776 3.5 6.00391 3.5H12.8826Z" fill="#ACA996"/>
<path d="M12.0039 2H13.5039V9.96875H12.0039V2Z" fill="#ACA996"/>
<path d="M13.5039 9.96875C12.6755 9.96875 12.0039 9.29718 12.0039 8.46875H20.0039V9.96875H13.5039Z" fill="#ACA996"/>
</svg>
