<svg xmlns="http://www.w3.org/2000/svg" width="18" height="18" viewBox="0 0 18 18" fill="none">
    <g clip-path="url(#clip0_8488_6732)">
        <path d="M9 0C13.9706 0 18 4.02944 18 9C18 13.9706 13.9706 18 9 18C4.02944 18 0 13.9706 0 9C0 4.02944 4.02944 0 9 0ZM9 4C8.58579 4 8.25 4.33579 8.25 4.75V8.25H4.75C4.33579 8.25 4 8.58579 4 9C4 9.41421 4.33579 9.75 4.75 9.75H8.25V13.25C8.25 13.6642 8.58579 14 9 14C9.41421 14 9.75 13.6642 9.75 13.25V9.75H13.25C13.6642 9.75 14 9.41421 14 9C14 8.58579 13.6642 8.25 13.25 8.25H9.75V4.75C9.75 4.33579 9.41421 4 9 4Z" fill="#8A8A8A"/>
    </g>
    <defs>
        <clipPath id="clip0_8488_6732">
            <rect width="18" height="18" rx="9" fill="white"/>
        </clipPath>
    </defs>
</svg>
