<svg width="40" height="41" viewBox="0 0 40 41" fill="none" xmlns="http://www.w3.org/2000/svg">
<path d="M25.0744 20.5364L27.3539 18.2569C28.9011 16.7097 28.9011 14.2011 27.3539 12.6539C25.8067 11.1067 23.2981 11.1067 21.7509 12.6539L18.9494 15.4554C17.4022 17.0026 17.4022 19.5112 18.9494 21.0584C19.4544 21.5633 20.0617 21.9035 20.7046 22.0788C20.6407 22.5719 20.4284 23.0494 20.0678 23.4392C19.2747 23.1823 18.5288 22.7389 17.8989 22.1089C15.7715 19.9815 15.7715 16.5323 17.8989 14.4049L20.7004 11.6034C22.8278 9.47596 26.277 9.47596 28.4044 11.6034C30.5319 13.7308 30.5319 17.18 28.4044 19.3074L25.603 22.1089C25.4549 22.257 25.3004 22.3947 25.1405 22.5222C25.2133 21.8614 25.1912 21.1921 25.0744 20.5364Z" fill="#ACA996"/>
<path d="M14.9256 19.4792L12.6461 21.7587C11.0989 23.3059 11.0989 25.8145 12.6461 27.3617C14.1933 28.9089 16.7019 28.9089 18.2491 27.3617L21.0506 24.5602C22.5978 23.013 22.5978 20.5045 21.0506 18.9573C20.5456 18.4523 19.9383 18.1122 19.2954 17.9368C19.3593 17.4437 19.5716 16.9662 19.9322 16.5765C20.7253 16.8333 21.4712 17.2768 22.1011 17.9067C24.2285 20.0341 24.2285 23.4833 22.1011 25.6108L19.2996 28.4122C17.1722 30.5397 13.723 30.5397 11.5956 28.4122C9.46815 26.2848 9.46815 22.8356 11.5956 20.7082L14.397 17.9067C14.5451 17.7586 14.6996 17.6209 14.8595 17.4934C14.7867 18.1543 14.8088 18.8236 14.9256 19.4792Z" fill="#ACA996"/>
</svg>
