<svg xmlns="http://www.w3.org/2000/svg" width="40" height="40" viewBox="0 0 40 40" fill="none">
    <g clip-path="url(#clip0_9319_25895)">
        <circle cx="20" cy="20" r="20" fill="#744FB2"/>
        <path d="M19.9874 21.8575C12.7033 21.8575 7 19.2112 7 15.8397C7 12.5827 12.7033 10 19.9874 10C27.284 10 33 12.5827 33 15.8397C33 19.2112 27.284 21.8575 19.9874 21.8575ZM19.9874 30C12.6527 30 7 26.6921 7 22.6336V19.6438C9.50389 22.1374 14.4864 23.6005 19.9874 23.6005C25.5263 23.6005 30.5088 22.1247 33 19.6438V22.6336C33 26.6921 27.3346 30 19.9874 30Z" fill="#232323"/>
    </g>
    <defs>
        <clipPath id="clip0_9319_25895">
            <rect width="40" height="40" fill="white"/>
        </clipPath>
    </defs>
</svg>
