<svg xmlns="http://www.w3.org/2000/svg" width="40" height="40" viewBox="0 0 40 40" fill="none">
    <g clip-path="url(#clip0_9319_25892)">
        <circle cx="20" cy="20" r="20" fill="#5065C3"/>
        <path fill-rule="evenodd" clip-rule="evenodd" d="M20 5C19.1716 5 18.5 5.67157 18.5 6.5V13.5C18.5 14.3284 19.1716 15 20 15C20.8284 15 21.5 14.3284 21.5 13.5V6.5C21.5 5.67157 20.8284 5 20 5ZM6.5 18.5C5.67157 18.5 5 19.1716 5 20C5 20.8284 5.67157 21.5 6.5 21.5H13.5C14.3284 21.5 15 20.8284 15 20C15 19.1716 14.3284 18.5 13.5 18.5H6.5ZM23.465 16.5353C22.8792 15.9495 22.8792 14.9997 23.465 14.4139L28.4147 9.4642C29.0005 8.87842 29.9502 8.87842 30.536 9.4642C31.1218 10.05 31.1218 10.9997 30.536 11.5855L25.5863 16.5353C25.0005 17.1211 24.0507 17.1211 23.465 16.5353ZM25.1818 23.0607C24.596 22.4749 23.6462 22.4749 23.0604 23.0607C22.4746 23.6464 22.4746 24.5962 23.0604 25.182L28.0102 30.1317C28.596 30.7175 29.5457 30.7175 30.1315 30.1317C30.7173 29.5459 30.7173 28.5962 30.1315 28.0104L25.1818 23.0607ZM9.46473 9.46496C10.0505 8.87917 11.0003 8.87917 11.5861 9.46496L16.5358 14.4147C17.1216 15.0005 17.1216 15.9502 16.5358 16.536C15.95 17.1218 15.0003 17.1218 14.4145 16.536L9.46473 11.5863C8.87894 11.0005 8.87894 10.0507 9.46473 9.46496ZM16.536 25.5861C17.1218 25.0003 17.1218 24.0505 16.536 23.4647C15.9502 22.8789 15.0005 22.8789 14.4147 23.4647L9.46495 28.4145C8.87916 29.0003 8.87916 29.95 9.46495 30.5358C10.0507 31.1216 11.0005 31.1216 11.5863 30.5358L16.536 25.5861ZM26 20C26 19.1716 26.6716 18.5 27.5 18.5H34.5C35.3284 18.5 36 19.1716 36 20C36 20.8284 35.3284 21.5 34.5 21.5H27.5C26.6716 21.5 26 20.8284 26 20ZM20 25C19.1716 25 18.5 25.6716 18.5 26.5V33.5C18.5 34.3284 19.1716 35 20 35C20.8284 35 21.5 34.3284 21.5 33.5V26.5C21.5 25.6716 20.8284 25 20 25Z" fill="#232323"/>
    </g>
    <defs>
        <clipPath id="clip0_9319_25892">
            <rect width="40" height="40" fill="white"/>
        </clipPath>
    </defs>
</svg>
