<svg width="20" height="20" viewBox="0 0 20 20" fill="none" xmlns="http://www.w3.org/2000/svg">
<path fill-rule="evenodd" clip-rule="evenodd" d="M19 10C19 9.58579 18.6642 9.25 18.25 9.25H16.9603C16.8821 8.51638 16.6907 7.81662 16.4037 7.16858L17.5197 6.52424C17.8785 6.31713 18.0014 5.85844 17.7943 5.49972C17.5872 5.141 17.1285 5.01809 16.7697 5.2252L15.6526 5.8702C15.2264 5.28792 14.7125 4.77394 14.1302 4.34775L14.5256 3.66295C14.5312 3.65331 14.5365 3.6436 14.5416 3.63383L14.7747 3.23001C14.9818 2.87129 14.8589 2.4126 14.5002 2.20549C14.1415 1.99838 13.6828 2.12129 13.4757 2.48001L12.8312 3.59621C12.1832 3.30929 11.4836 3.11784 10.75 3.03971V1.75C10.75 1.33579 10.4142 1 10 1C9.58579 1 9.25 1.33579 9.25 1.75V3.03971C8.51652 3.11784 7.81689 3.30925 7.16895 3.59612L6.52456 2.48001C6.31745 2.12129 5.85876 1.99838 5.50004 2.20549C5.14132 2.4126 5.01841 2.87129 5.22552 3.23001L5.87053 4.3472C5.288 4.77347 4.77382 5.28761 4.34751 5.8701L3.2305 5.2252C2.87178 5.01809 2.41308 5.141 2.20598 5.49972C1.99887 5.85844 2.12178 6.31713 2.4805 6.52424L3.59633 7.16846C3.30941 7.8164 3.11794 8.51603 3.03976 9.24951H2.25098C2.24183 9.24951 2.23272 9.24968 2.22366 9.25H1.75C1.33579 9.25 1 9.58579 1 10C1 10.4142 1.33579 10.75 1.75 10.75H3.03971C3.11783 11.4835 3.30924 12.1831 3.5961 12.831L2.48033 13.4752C2.12161 13.6823 1.9987 14.141 2.20581 14.4997C2.41292 14.8584 2.87161 14.9813 3.23033 14.7742L4.34717 14.1294C4.77352 14.7121 5.28778 15.2264 5.87042 15.6527L5.22569 16.7694C5.01858 17.1281 5.14149 17.5868 5.50021 17.7939C5.85892 18.0011 6.31762 17.8781 6.52472 17.5194L7.16882 16.4038C7.8168 16.6907 8.51647 16.8822 9.25 16.9603V18.25C9.25 18.6642 9.58579 19 10 19C10.4142 19 10.75 18.6642 10.75 18.25V16.9603C11.4835 16.8822 12.1831 16.6907 12.8311 16.4039L13.2254 17.0868C13.2291 17.0932 13.2329 17.0996 13.2368 17.1059L13.4755 17.5194C13.6826 17.8781 14.1413 18.0011 14.5 17.7939C14.8588 17.5868 14.9817 17.1281 14.7746 16.7694L14.1298 15.6526C14.7124 15.2262 15.2266 14.712 15.6529 14.1293L16.7699 14.7742C17.1286 14.9813 17.5873 14.8584 17.7944 14.4997C18.0015 14.141 17.8786 13.6823 17.5199 13.4752L16.404 12.8309C16.6908 12.183 16.8822 11.4834 16.9603 10.75H18.25C18.6642 10.75 19 10.4142 19 10ZM12.0762 4.90537C11.4356 4.64402 10.7346 4.5 10 4.5C7.21701 4.5 4.91678 6.56699 4.55078 9.24951H9.56814L12.0762 4.90537ZM13.3746 5.6566C14.668 6.66294 15.5 8.2343 15.5 10C15.5 11.766 14.6676 13.3376 13.3738 14.344L10.8664 10.0009L13.3746 5.6566ZM12.0754 15.095L9.56653 10.7495H4.55064C4.91623 13.4325 7.21667 15.5 10 15.5C10.7343 15.5 11.435 15.3561 12.0754 15.095Z" fill="#b6b6b6"/>
</svg>
