<svg width="20" height="20" viewBox="0 0 20 20" fill="none" xmlns="http://www.w3.org/2000/svg">
<path d="M11 3.75C11 3.33579 11.3358 3 11.75 3H17V4.5H11.75C11.3358 4.5 11 4.16421 11 3.75Z" fill="#ACA996"/>
<path d="M16.25 9C15.8358 9 15.5 8.66421 15.5 8.25V3H17V8.25C17 8.66421 16.6642 9 16.25 9Z" fill="#ACA996"/>
<path fill-rule="evenodd" clip-rule="evenodd" d="M16.5304 4.53033L11.5304 9.53033L10.4697 8.46967L15.4697 3.46967L16.5304 4.53033Z" fill="#ACA996"/>
<path fill-rule="evenodd" clip-rule="evenodd" d="M3.46961 15.4697L8.46961 10.4697L9.53027 11.5303L4.53027 16.5303L3.46961 15.4697Z" fill="#ACA996"/>
<path d="M9 16.25C9 16.6642 8.66421 17 8.25 17H3V15.5H8.25C8.66421 15.5 9 15.8358 9 16.25Z" fill="#ACA996"/>
<path d="M3.75 11C4.16421 11 4.5 11.3358 4.5 11.75L4.5 17H3L3 11.75C3 11.3358 3.33579 11 3.75 11Z" fill="#ACA996"/>
</svg>
