<svg width="20" height="21" viewBox="0 0 20 21" fill="none" xmlns="http://www.w3.org/2000/svg">
<path d="M11 4C11 3.58579 11.3358 3.25 11.75 3.25H17V4.75H11.75C11.3358 4.75 11 4.41421 11 4Z" fill="#b6b6b6"/>
<path d="M16.25 9.25C15.8358 9.25 15.5 8.91421 15.5 8.5V3.25H17V8.5C17 8.91421 16.6642 9.25 16.25 9.25Z" fill="#b6b6b6"/>
<path fill-rule="evenodd" clip-rule="evenodd" d="M16.5304 4.78039L11.5304 9.78039L10.4697 8.71973L15.4697 3.71973L16.5304 4.78039Z" fill="#b6b6b6"/>
<path fill-rule="evenodd" clip-rule="evenodd" d="M3.46961 15.7196L8.46961 10.7196L9.53027 11.7803L4.53027 16.7803L3.46961 15.7196Z" fill="#b6b6b6"/>
<path d="M9 16.5C9 16.9142 8.66421 17.25 8.25 17.25H3V15.75H8.25C8.66421 15.75 9 16.0858 9 16.5Z" fill="#b6b6b6"/>
<path d="M3.75 11.25C4.16421 11.25 4.5 11.5858 4.5 12L4.5 17.25H3L3 12C3 11.5858 3.33579 11.25 3.75 11.25Z" fill="#b6b6b6"/>
</svg>
