<svg width="16" height="4" viewBox="0 0 16 4" fill="none" xmlns="http://www.w3.org/2000/svg">
<path d="M8 4C9.10457 4 10 3.10457 10 2C10 0.89543 9.10457 0 8 0C6.89543 0 6 0.89543 6 2C6 3.10457 6.89543 4 8 4Z" fill="#ACA996"/>
<path d="M2 4C3.10457 4 4 3.10457 4 2C4 0.89543 3.10457 0 2 0C0.89543 0 0 0.89543 0 2C0 3.10457 0.89543 4 2 4Z" fill="#ACA996"/>
<path d="M13.9999 4C15.1045 4 15.9999 3.10457 15.9999 2C15.9999 0.89543 15.1045 0 13.9999 0C12.8954 0 11.9999 0.89543 11.9999 2C11.9999 3.10457 12.8954 4 13.9999 4Z" fill="#ACA996"/>
</svg>
