<svg width="12" height="12" viewBox="0 0 12 12" fill="none" xmlns="http://www.w3.org/2000/svg">
<path fill-rule="evenodd" clip-rule="evenodd" d="M5.99924 0C5.6442 0 5.35638 0.287817 5.35638 0.642858V5.35637H0.642857C0.287817 5.35637 0 5.64419 0 5.99923C0 6.35427 0.287817 6.64208 0.642858 6.64208H5.35638V11.3571C5.35638 11.7122 5.6442 12 5.99924 12C6.35428 12 6.6421 11.7122 6.6421 11.3571V6.64208H11.3571C11.7122 6.64208 12 6.35427 12 5.99923C12 5.64419 11.7122 5.35637 11.3571 5.35637H6.6421V0.642857C6.6421 0.287817 6.35428 0 5.99924 0Z" fill="white"/>
</svg>
