<svg width="20" height="20" viewBox="0 0 20 20" fill="none" xmlns="http://www.w3.org/2000/svg">
<path fill-rule="evenodd" clip-rule="evenodd" d="M12.7308 8.5C12.7308 10.8366 10.8366 12.7308 8.5 12.7308C6.16341 12.7308 4.26923 10.8366 4.26923 8.5C4.26923 6.16341 6.16341 4.26923 8.5 4.26923C10.8366 4.26923 12.7308 6.16341 12.7308 8.5ZM11.8754 12.8428C10.9436 13.568 9.77224 14 8.5 14C5.46243 14 3 11.5376 3 8.5C3 5.46243 5.46243 3 8.5 3C11.5376 3 14 5.46243 14 8.5C14 9.77224 13.568 10.9436 12.8428 11.8754L16.7996 15.8323C17.0668 16.0994 17.0668 16.5325 16.7996 16.7996C16.5325 17.0668 16.0994 17.0668 15.8323 16.7996L11.8754 12.8428Z" fill="#B6B6B6"/>
</svg>
