<svg width="20" height="20" viewBox="0 0 20 20" fill="none" xmlns="http://www.w3.org/2000/svg">
<path fill-rule="evenodd" clip-rule="evenodd" d="M13.6154 9C13.6154 11.549 11.549 13.6154 9 13.6154C6.45099 13.6154 4.38462 11.549 4.38462 9C4.38462 6.45099 6.45099 4.38462 9 4.38462C11.549 4.38462 13.6154 6.45099 13.6154 9ZM12.7802 13.6596C11.7484 14.4977 10.4329 15 9 15C5.68629 15 3 12.3137 3 9C3 5.68629 5.68629 3 9 3C12.3137 3 15 5.68629 15 9C15 10.4329 14.4977 11.7484 13.6596 12.7802L16.8179 15.9384C17.0607 16.1813 17.0607 16.575 16.8179 16.8179C16.575 17.0607 16.1813 17.0607 15.9384 16.8179L12.7802 13.6596Z" fill="#B6B6B6"/>
</svg>