<svg width="20" height="20" viewBox="0 0 20 20" fill="none" xmlns="http://www.w3.org/2000/svg">
<path fill-rule="evenodd" clip-rule="evenodd" d="M13.75 6C13.75 6.69036 13.1903 7.25 12.5 7.25C11.8097 7.25 11.25 6.69036 11.25 6C11.25 5.30964 11.8097 4.75 12.5 4.75C13.1903 4.75 13.75 5.30964 13.75 6ZM14.8856 6.75C14.567 7.76428 13.6194 8.5 12.5 8.5C11.3806 8.5 10.433 7.76428 10.1144 6.75H3.58333C3.26117 6.75 3 6.41421 3 6C3 5.58579 3.26117 5.25 3.58333 5.25H10.1144C10.433 4.23572 11.3806 3.5 12.5 3.5C13.6194 3.5 14.567 4.23572 14.8856 5.25H16.4167C16.7388 5.25 17 5.58579 17 6C17 6.41421 16.7388 6.75 16.4167 6.75H14.8856ZM6.25 14C6.25 14.6903 6.80964 15.25 7.5 15.25C8.19036 15.25 8.75 14.6903 8.75 14C8.75 13.3097 8.19036 12.75 7.5 12.75C6.80964 12.75 6.25 13.3097 6.25 14ZM3.58333 13.25H5.11445C5.43301 12.2357 6.38059 11.5 7.5 11.5C8.61941 11.5 9.56699 12.2357 9.88555 13.25H16.4167C16.7388 13.25 17 13.5858 17 14C17 14.4142 16.7388 14.75 16.4167 14.75H9.88555C9.56699 15.7643 8.61941 16.5 7.5 16.5C6.38059 16.5 5.43301 15.7643 5.11445 14.75H3.58333C3.26117 14.75 3 14.4142 3 14C3 13.5858 3.26117 13.25 3.58333 13.25Z" fill="#B6B6B6"/>
</svg>