<svg width="20" height="20" viewBox="0 0 20 20" fill="none" xmlns="http://www.w3.org/2000/svg">
<path fill-rule="evenodd" clip-rule="evenodd" d="M17.5303 7.03032C17.2374 7.32321 16.7626 7.32321 16.4697 7.03032L14.75 5.31065L14.75 16.5L13.25 16.5L13.25 5.31065L11.5303 7.03032C11.2374 7.32321 10.7626 7.32321 10.4697 7.03032C10.1768 6.73743 10.1768 6.26255 10.4697 5.96966L14 2.43933L17.5303 5.96966C17.8232 6.26255 17.8232 6.73743 17.5303 7.03032ZM8.46967 12.9697C8.76256 12.6768 9.23744 12.6768 9.53033 12.9697C9.82322 13.2626 9.82322 13.7374 9.53033 14.0303L6 17.5607L2.46967 14.0303C2.17678 13.7374 2.17678 13.2626 2.46967 12.9697C2.76256 12.6768 3.23744 12.6768 3.53033 12.9697L5.25 14.6893L5.25 3.53124L6.75 3.53124L6.75 14.6893L8.46967 12.9697Z" fill="#b6b6b6"/>
</svg>
