<svg xmlns="http://www.w3.org/2000/svg" width="82" height="64" viewBox="0 0 82 64" fill="none">
    <path fill-rule="evenodd" clip-rule="evenodd" d="M0 44.0002C0 47.314 2.68629 50.0002 6 50.0002C9.31371 50.0002 12 47.314 12 44.0002C12 40.6865 9.31371 38.0002 6 38.0002C2.68629 38.0002 0 40.6865 0 44.0002Z" fill="#F8F8F8"/>
    <path fill-rule="evenodd" clip-rule="evenodd" d="M4 12.0002C4 15.314 6.68629 18.0002 10 18.0002C13.3137 18.0002 16 15.314 16 12.0002C16 8.68654 13.3137 6.00024 10 6.00024C6.68629 6.00024 4 8.68654 4 12.0002Z" fill="#F8F8F8"/>
    <path fill-rule="evenodd" clip-rule="evenodd" d="M70 35.0002C70 38.314 72.6863 41.0002 76 41.0002C79.3137 41.0002 82 38.314 82 35.0002C82 31.6865 79.3137 29.0002 76 29.0002C72.6863 29.0002 70 31.6865 70 35.0002Z" fill="#F8F8F8"/>
    <path fill-rule="evenodd" clip-rule="evenodd" d="M4 32.2502C4 52.1325 20.1177 68.2502 40 68.2502C59.8822 68.2502 76 52.1325 76 32.2502C76 12.368 59.8822 -3.74976 40 -3.74976C20.1177 -3.74976 4 12.368 4 32.2502Z" stroke="#F8F8F8" stroke-dasharray="2 4"/>
    <path fill-rule="evenodd" clip-rule="evenodd" d="M20 32C20 43.0457 28.9543 52 40 52C51.0457 52 60 43.0457 60 32C60 20.9543 51.0457 12 40 12C28.9543 12 20 20.9543 20 32ZM45 26V24H44V26H45ZM36 24V26H35V24H36ZM32.9356 36H40V37H31.0644L36.5826 28.7444C36.0853 28.9102 35.5531 29 35 29C32.2386 29 30 26.7614 30 24C30 21.2386 32.2386 19 35 19C37.7614 19 40 21.2386 40 24C40 25.2768 39.5214 26.4418 38.7338 27.3255L32.9356 36ZM40 44.5002C42.1476 44.5002 44.2681 43.4234 45.8414 41.8542C47.4149 40.2847 48.5 38.1639 48.5 36H47.5C47.5 37.8362 46.5695 39.7155 45.1352 41.1461C43.7007 42.577 41.8212 43.5002 40 43.5002V44.5002ZM35 28C37.2091 28 39 26.2091 39 24C39 21.7909 37.2091 20 35 20C32.7909 20 31 21.7909 31 24C31 26.2091 32.7909 28 35 28ZM49 24C49 26.2091 47.2091 28 45 28C42.7909 28 41 26.2091 41 24C41 21.7909 42.7909 20 45 20C47.2091 20 49 21.7909 49 24ZM50 24C50 26.7614 47.7614 29 45 29C42.2386 29 40 26.7614 40 24C40 21.2386 42.2386 19 45 19C47.7614 19 50 21.2386 50 24Z" fill="#F8F8F8"/>
</svg>
