<svg xmlns="http://www.w3.org/2000/svg" width="82" height="74" viewBox="0 0 82 74" fill="none">
	<path fill-rule="evenodd" clip-rule="evenodd" d="M0 48.75C0 52.0637 2.68629 54.75 6 54.75C9.31371 54.75 12 52.0637 12 48.75C12 45.4363 9.31371 42.75 6 42.75C2.68629 42.75 0 45.4363 0 48.75Z" fill="#f8f8f8"/>
	<path fill-rule="evenodd" clip-rule="evenodd" d="M4 16.75C4 20.0637 6.68629 22.75 10 22.75C13.3137 22.75 16 20.0637 16 16.75C16 13.4363 13.3137 10.75 10 10.75C6.68629 10.75 4 13.4363 4 16.75Z" fill="#f8f8f8"/>
	<path fill-rule="evenodd" clip-rule="evenodd" d="M70 39.75C70 43.0637 72.6863 45.75 76 45.75C79.3137 45.75 82 43.0637 82 39.75C82 36.4363 79.3137 33.75 76 33.75C72.6863 33.75 70 36.4363 70 39.75Z" fill="#f8f8f8"/>
	<path fill-rule="evenodd" clip-rule="evenodd" d="M4 37C4 56.8822 20.1177 73 40 73C59.8822 73 76 56.8822 76 37C76 17.1178 59.8822 1 40 1C20.1177 1 4 17.1178 4 37Z" stroke="#f8f8f8" stroke-dasharray="2 4"/>
	<path fill-rule="evenodd" clip-rule="evenodd" d="M20 36.7498C20 47.7955 28.9543 56.7498 40 56.7498C51.0457 56.7498 60 47.7955 60 36.7498C60 25.7041 51.0457 16.7498 40 16.7498C28.9543 16.7498 20 25.7041 20 36.7498ZM45 30.7498V28.7498H44V30.7498H45ZM36 28.7498V30.7498H35V28.7498H36ZM32.9356 40.7498H40V41.7498H31.0644L36.5826 33.4941C36.0853 33.6599 35.5531 33.7498 35 33.7498C32.2386 33.7498 30 31.5112 30 28.7498C30 25.9883 32.2386 23.7498 35 23.7498C37.7614 23.7498 40 25.9883 40 28.7498C40 30.0266 39.5214 31.1916 38.7338 32.0753L32.9356 40.7498ZM40 49.25C42.1476 49.25 44.2681 48.1732 45.8414 46.6039C47.4149 45.0345 48.5 42.9136 48.5 40.7498H47.5C47.5 42.586 46.5695 44.4653 45.1352 45.8959C43.7007 47.3267 41.8212 48.25 40 48.25V49.25ZM35 32.7498C37.2091 32.7498 39 30.9589 39 28.7498C39 26.5406 37.2091 24.7498 35 24.7498C32.7909 24.7498 31 26.5406 31 28.7498C31 30.9589 32.7909 32.7498 35 32.7498ZM49 28.7498C49 30.9589 47.2091 32.7498 45 32.7498C42.7909 32.7498 41 30.9589 41 28.7498C41 26.5406 42.7909 24.7498 45 24.7498C47.2091 24.7498 49 26.5406 49 28.7498ZM50 28.7498C50 31.5112 47.7614 33.7498 45 33.7498C42.2386 33.7498 40 31.5112 40 28.7498C40 25.9883 42.2386 23.7498 45 23.7498C47.7614 23.7498 50 25.9883 50 28.7498Z" fill="#f8f8f8"/>
</svg>
