<svg width="85" height="40" viewBox="0 0 85 40" fill="none" xmlns="http://www.w3.org/2000/svg">
	<path fill-rule="evenodd" clip-rule="evenodd" d="M40.25 20C40.25 31.0457 31.2957 40 20.25 40C9.20431 40 0.25 31.0457 0.25 20C0.25 8.9543 9.20431 0 20.25 0C31.2957 0 40.25 8.9543 40.25 20ZM15.25 14V12H16.25V14H15.25ZM24.25 12V14H25.25V12H24.25ZM27.3144 24H20.25V25H29.1856L23.6674 16.7444C24.1647 16.9102 24.6969 17 25.25 17C28.0114 17 30.25 14.7614 30.25 12C30.25 9.23858 28.0114 7 25.25 7C22.4886 7 20.25 9.23858 20.25 12C20.25 13.2768 20.7286 14.4418 21.5162 15.3255L27.3144 24ZM20.25 32.5002C18.1024 32.5002 15.9819 31.4234 14.4086 29.8542C12.8351 28.2847 11.75 26.1639 11.75 24H12.75C12.75 25.8362 13.6805 27.7155 15.1148 29.1461C16.5493 30.577 18.4288 31.5002 20.25 31.5002V32.5002ZM25.25 16C23.0409 16 21.25 14.2091 21.25 12C21.25 9.79086 23.0409 8 25.25 8C27.4591 8 29.25 9.79086 29.25 12C29.25 14.2091 27.4591 16 25.25 16ZM11.25 12C11.25 14.2091 13.0409 16 15.25 16C17.4591 16 19.25 14.2091 19.25 12C19.25 9.79086 17.4591 8 15.25 8C13.0409 8 11.25 9.79086 11.25 12ZM10.25 12C10.25 14.7614 12.4886 17 15.25 17C18.0114 17 20.25 14.7614 20.25 12C20.25 9.23858 18.0114 7 15.25 7C12.4886 7 10.25 9.23858 10.25 12Z" fill="#F8F8F8"/>
	<path fill-rule="evenodd" clip-rule="evenodd" d="M64.25 40C53.2043 40 44.25 31.0457 44.25 20C44.25 8.9543 53.2043 0 64.25 0C75.2957 0 84.25 8.9543 84.25 20C84.25 31.0457 75.2957 40 64.25 40ZM69.25 12V10H68.25V12H69.25ZM60.25 12V10H59.25V12H60.25ZM64.25 17C62.9593 17 61.8122 17.367 61.0012 17.9347C60.1886 18.5036 59.75 19.2414 59.75 20C59.75 20.7586 60.1886 21.4964 61.0012 22.0653C61.8122 22.633 62.9593 23 64.25 23V24C62.7793 24 61.4263 23.5835 60.4277 22.8845C59.4307 22.1866 58.75 21.1744 58.75 20C58.75 18.8256 59.4307 17.8134 60.4277 17.1155C61.4263 16.4165 62.7793 16 64.25 16V17ZM64.25 31.5C68.3921 31.5 71.75 28.1421 71.75 24H72.75C72.75 28.6944 68.9444 32.5 64.25 32.5V31.5Z" fill="#F8F8F8"/>
</svg>
