<svg width="29" height="28" viewBox="0 0 29 28" fill="none" xmlns="http://www.w3.org/2000/svg">
<path d="M17.0229 20.0625C17.0469 20.0626 17.0704 20.0693 17.0913 20.0811C17.1124 20.093 17.1306 20.1101 17.1431 20.1309C17.1554 20.1515 17.1619 20.1751 17.1626 20.1992C17.1633 20.2233 17.1582 20.2472 17.147 20.2686C16.9065 20.7158 16.5493 21.0898 16.1138 21.3506C15.6782 21.6113 15.1799 21.7496 14.6724 21.75C14.165 21.7495 13.6674 21.6112 13.2319 21.3506C12.7964 21.0898 12.4392 20.7159 12.1987 20.2686C12.1875 20.2472 12.1815 20.2234 12.1821 20.1992C12.1828 20.1749 12.1901 20.1507 12.2026 20.1299C12.2152 20.1093 12.2334 20.0919 12.2544 20.0801C12.2754 20.0684 12.2997 20.0624 12.3237 20.0625H17.0229ZM14.6724 6C15.6143 6.00009 16.4501 6.68512 16.7554 7.70801C16.7634 7.71736 16.773 7.72541 16.7837 7.73145C17.4226 7.99456 17.945 8.32841 18.3677 8.74316L19.8921 7.21973C20.185 6.92689 20.6598 6.92685 20.9526 7.21973C21.2455 7.51261 21.2455 7.98739 20.9526 8.28027L7.95264 21.2803C7.65976 21.5731 7.18499 21.5731 6.89209 21.2803C6.5992 20.9874 6.5992 20.5126 6.89209 20.2197L8.43896 18.6719C8.27286 18.5488 8.13525 18.3888 8.04346 18.1953C7.94173 17.9824 7.90324 17.745 7.93213 17.5107C7.96108 17.2764 8.05596 17.0548 8.20654 16.873C8.26474 16.8015 8.32232 16.7328 8.37842 16.665C9.15182 15.7307 9.61861 15.1656 9.61865 12.5166C9.61865 10.1119 10.5816 8.54645 12.562 7.73047C12.5726 7.7245 12.5822 7.71614 12.5903 7.70703C12.8956 6.68522 13.7304 6.00008 14.6724 6ZM19.6685 11.5635C19.7069 11.8666 19.7261 12.185 19.7261 12.5176C19.7261 15.1656 20.1945 15.7305 20.9673 16.666C21.0233 16.7336 21.0801 16.804 21.1382 16.874C21.2888 17.0561 21.3849 17.2781 21.4136 17.5127C21.4422 17.7472 21.4025 17.9853 21.3003 18.1982C21.0829 18.653 20.6238 18.9365 20.0991 18.9365H12.2964L19.6685 11.5635Z" fill="#f8f8f8"/>
</svg>