<svg width="60" height="48" viewBox="0 0 60 48" fill="none" xmlns="http://www.w3.org/2000/svg">
    <rect opacity="0.2" y="4" width="56" height="44" rx="8" fill="#377AFF"/>
    <rect x="14" y="34" width="28" height="2" rx="1" fill="#377AFF"/>
    <rect x="18" y="39" width="20" height="2" rx="1" fill="#377AFF"/>
    <path d="M28 30C26.6209 30 25.3268 29.7386 24.1176 29.2157C22.9085 28.6993 21.8464 27.9837 20.9314 27.0686C20.0163 26.1471 19.2974 25.085 18.7745 23.8824C18.2582 22.6732 18 21.3791 18 20C18 18.6209 18.2582 17.3268 18.7745 16.1176C19.2974 14.9085 20.0163 13.8464 20.9314 12.9314C21.8464 12.0163 22.9085 11.3007 24.1176 10.7843C25.3268 10.2614 26.6209 10 28 10C29.3791 10 30.6732 10.2614 31.8824 10.7843C33.0915 11.3007 34.1536 12.0163 35.0686 12.9314C35.9837 13.8464 36.6993 14.9085 37.2157 16.1176C37.7386 17.3268 38 18.6209 38 20C38 21.3791 37.7386 22.6732 37.2157 23.8824C36.6993 25.085 35.9837 26.1471 35.0686 27.0686C34.1536 27.9837 33.0915 28.6993 31.8824 29.2157C30.6732 29.7386 29.3791 30 28 30ZM28 28.5098C28.7451 28.5098 29.4837 28.4085 30.2157 28.2059C30.9542 28.0098 31.6471 27.7222 32.2941 27.3431C32.9412 26.9706 33.5163 26.5196 34.0196 25.9902C33.6667 25.4281 33.183 24.951 32.5686 24.5588C31.9608 24.1601 31.2647 23.8595 30.4804 23.6569C29.7026 23.4477 28.8758 23.3431 28 23.3431C27.1111 23.3431 26.2745 23.4477 25.4902 23.6569C24.7059 23.866 24.0098 24.1699 23.402 24.5686C22.8007 24.9608 22.3235 25.4346 21.9706 25.9902C22.4739 26.5196 23.049 26.9706 23.6961 27.3431C24.3497 27.7222 25.0425 28.0098 25.7745 28.2059C26.5065 28.4085 27.2484 28.5098 28 28.5098ZM28 21.6765C28.6275 21.683 29.1928 21.5261 29.6961 21.2059C30.2059 20.8791 30.6111 20.4346 30.9118 19.8725C31.2124 19.3105 31.3627 18.6797 31.3627 17.9804C31.3627 17.3203 31.2124 16.7157 30.9118 16.1667C30.6111 15.6176 30.2059 15.1797 29.6961 14.8529C29.1863 14.5196 28.6209 14.3529 28 14.3529C27.3725 14.3529 26.8039 14.5196 26.2941 14.8529C25.7843 15.1797 25.3791 15.6176 25.0784 16.1667C24.7778 16.7157 24.6307 17.3203 24.6373 17.9804C24.6373 18.6797 24.7843 19.3072 25.0784 19.8627C25.3791 20.4183 25.781 20.8595 26.2843 21.1863C26.7941 21.5065 27.366 21.6699 28 21.6765Z" fill="#377AFF"/>
    <path d="M50.1951 0.355544C50.627 -0.118515 51.373 -0.118515 51.8049 0.355545L52.5027 1.12137C52.7892 1.43584 53.2326 1.55466 53.638 1.42557L54.6251 1.11122C55.2362 0.916632 55.8823 1.28964 56.0193 1.91614L56.2407 2.92823C56.3316 3.34384 56.6562 3.66845 57.0718 3.75934L58.0839 3.98069C58.7104 4.11771 59.0834 4.76378 58.8888 5.37485L58.5744 6.36202C58.4453 6.7674 58.5642 7.21082 58.8786 7.49734L59.6445 8.19508C60.1185 8.62699 60.1185 9.37301 59.6445 9.80492L58.8786 10.5027C58.5642 10.7892 58.4453 11.2326 58.5744 11.638L58.8888 12.6251C59.0834 13.2362 58.7104 13.8823 58.0839 14.0193L57.0718 14.2407C56.6562 14.3316 56.3316 14.6562 56.2407 15.0718L56.0193 16.0839C55.8823 16.7104 55.2362 17.0834 54.6251 16.8888L53.638 16.5744C53.2326 16.4453 52.7892 16.5642 52.5027 16.8786L51.8049 17.6445C51.373 18.1185 50.627 18.1185 50.1951 17.6445L49.4973 16.8786C49.2108 16.5642 48.7674 16.4453 48.362 16.5744L47.3749 16.8888C46.7638 17.0834 46.1177 16.7104 45.9807 16.0839L45.7593 15.0718C45.6684 14.6562 45.3438 14.3316 44.9282 14.2407L43.9161 14.0193C43.2896 13.8823 42.9166 13.2362 43.1112 12.6251L43.4256 11.638C43.5547 11.2326 43.4358 10.7892 43.1214 10.5027L42.3555 9.80492C41.8815 9.37301 41.8815 8.62699 42.3555 8.19508L43.1214 7.49734C43.4358 7.21082 43.5547 6.7674 43.4256 6.36202L43.1112 5.37485C42.9166 4.76377 43.2896 4.11771 43.9161 3.98069L44.9282 3.75934C45.3438 3.66845 45.6684 3.34384 45.7593 2.92823L45.9807 1.91614C46.1177 1.28964 46.7638 0.916632 47.3749 1.11122L48.362 1.42557C48.7674 1.55466 49.2108 1.43584 49.4973 1.12137L50.1951 0.355544Z" fill="#377AFF"/>
    <path d="M47.5973 8.98984L50.3834 11.7334L54.4029 6.26758" stroke="#D7E4FF" stroke-width="1.5" stroke-linecap="round"/>
</svg>
