<svg xmlns="http://www.w3.org/2000/svg" width="20" height="20" viewBox="0 0 20 20" fill="none">
    <path d="M19 9.99023C19 14.9608 14.9706 18.9902 10 18.9902C5.02944 18.9902 1 14.9608 1 9.99023C1 5.01967 5.02944 0.990234 10 0.990234C14.9706 0.990234 19 5.01967 19 9.99023Z" fill="#9B9B9B"/>
    <path d="M12.4688 6.44727C12.761 6.15398 13.2358 6.15324 13.5293 6.44531C13.8226 6.73752 13.8233 7.21236 13.5312 7.50586L11.0654 9.9834L13.5312 12.4609C13.8233 12.7544 13.8226 13.2293 13.5293 13.5215C13.2358 13.8136 12.761 13.8128 12.4688 13.5195L10.0078 11.0459L7.54688 13.5195C7.25467 13.8128 6.77983 13.8136 6.48633 13.5215C6.19304 13.2293 6.1923 12.7544 6.48438 12.4609L8.94922 9.9834L6.48438 7.50586C6.1923 7.21236 6.19304 6.73752 6.48633 6.44531C6.77983 6.15324 7.25467 6.15398 7.54688 6.44727L10.0078 8.91992L12.4688 6.44727Z" fill="white"/>
</svg>
