<svg xmlns="http://www.w3.org/2000/svg" width="20" height="20" viewBox="0 0 20 20" fill="none">
    <circle cx="10" cy="10" r="7.4" stroke="#F55522" stroke-width="1.2"/>
    <path d="M10 2.59961C10.2847 2.59961 10.6034 2.72907 10.9453 3.05957C11.2902 3.39304 11.6279 3.90537 11.9248 4.58398C12.5178 5.93943 12.9004 7.85368 12.9004 10C12.9004 12.1463 12.5178 14.0606 11.9248 15.416C11.6279 16.0946 11.2902 16.607 10.9453 16.9404C10.6034 17.2709 10.2847 17.4004 10 17.4004C9.71534 17.4004 9.39664 17.2709 9.05469 16.9404C8.70976 16.607 8.37209 16.0946 8.0752 15.416C7.48222 14.0606 7.09961 12.1463 7.09961 10C7.09961 7.85368 7.48222 5.93943 8.0752 4.58398C8.37209 3.90537 8.70976 3.39304 9.05469 3.05957C9.39664 2.72907 9.71534 2.59961 10 2.59961Z" stroke="#F55522" stroke-width="1.2"/>
    <rect x="2.25" y="9.75" width="15.5" height="0.5" fill="#F55522" stroke="#F55522" stroke-width="0.5"/>
    <rect x="2.3" y="9.70039" width="15.4" height="0.6" fill="#F55522" stroke="#F55522" stroke-width="0.6"/>
</svg>
