<svg width="20" height="20" viewBox="0 0 20 20" fill="none" xmlns="http://www.w3.org/2000/svg">
    <g clip-path="url(#clip0_17124_32436)">
        <path d="M4.11621 6.59082C3.62956 7.43004 3.31739 8.38337 3.22852 9.40039H6.51074C6.51507 9.26704 6.52118 9.13438 6.52832 9.00293L8.125 10.5996H7.71094C7.7746 12.4335 8.12605 14.0353 8.625 15.1758C8.90206 15.809 9.2006 16.2467 9.47168 16.5088C9.73691 16.7651 9.91381 16.7998 10 16.7998C10.0862 16.7998 10.2631 16.7651 10.5283 16.5088C10.7994 16.2467 11.0979 15.809 11.375 15.1758C11.5039 14.8812 11.6217 14.5553 11.7285 14.2031L12.6748 15.1494C12.49 15.6507 12.2806 16.1004 12.0479 16.4854C12.5267 16.3343 12.9827 16.1315 13.4092 15.8838L14.2812 16.7559C13.0433 17.5424 11.5756 18 10 18C5.74978 18 2.27586 14.6852 2.01758 10.5H2V9.5H2.01758C2.10305 8.11441 2.54228 6.82482 3.24414 5.71875L4.11621 6.59082ZM3.22852 10.5996C3.47124 13.3759 5.38011 15.6739 7.95117 16.4854C7.13883 15.1419 6.58927 13.0208 6.51074 10.5996H3.22852ZM10 2C14.2503 2 17.7243 5.3147 17.9824 9.5H18V10.5H17.9824C17.8969 11.8855 17.4567 13.1742 16.7549 14.2803L15.8818 13.4072C16.3685 12.5683 16.6826 11.6165 16.7715 10.5996H13.4893C13.4849 10.7327 13.4778 10.8649 13.4707 10.9961L11.875 9.40039H12.2891C12.2254 7.56654 11.8739 5.96471 11.375 4.82422C11.098 4.19099 10.7994 3.75332 10.5283 3.49121C10.263 3.23475 10.0862 3.2002 10 3.2002C9.9138 3.2002 9.73698 3.23475 9.47168 3.49121C9.2006 3.75332 8.90205 4.19099 8.625 4.82422C8.49618 5.11868 8.37724 5.44389 8.27051 5.7959L7.32324 4.84863C7.50791 4.34737 7.71842 3.8985 7.95117 3.51367C7.47214 3.66484 7.01542 3.86636 6.58887 4.11426L5.7168 3.24219C6.9549 2.4554 8.4241 2 10 2ZM12.0479 3.51367C12.8605 4.85712 13.4107 6.97856 13.4893 9.40039H16.7715C16.5288 6.6236 14.6195 4.32481 12.0479 3.51367Z" fill="#9B9B9B"/>
        <path d="M3.53033 2.46967C3.23744 2.17678 2.76268 2.17678 2.46978 2.46967C2.17689 2.76256 2.17689 3.23732 2.46978 3.53022L16.4698 17.5302C16.7627 17.8231 17.2374 17.8231 17.5303 17.5302C17.8232 17.2373 17.8232 16.7626 17.5303 16.4697L3.53033 2.46967Z" fill="#9B9B9B"/>
    </g>
    <defs>
        <clipPath id="clip0_17124_32436">
            <rect width="20" height="20" fill="white"/>
        </clipPath>
    </defs>
</svg>
