<svg width="16" height="16" viewBox="0 0 16 16" fill="none" xmlns="http://www.w3.org/2000/svg">
<path fill-rule="evenodd" clip-rule="evenodd" d="M4 2C4 1.44772 4.44772 1 5 1H11C11.5523 1 12 1.44772 12 2V3H15C15.5523 3 16 3.44772 16 4V14C16 14.5523 15.5523 15 15 15H1C0.447715 15 0 14.5523 0 14V4C0 3.44772 0.447715 3 1 3H4V2ZM10.6 9C10.6 10.4359 9.43594 11.6 8 11.6C6.56406 11.6 5.4 10.4359 5.4 9C5.4 7.56406 6.56406 6.4 8 6.4C9.43594 6.4 10.6 7.56406 10.6 9ZM12 9C12 11.2091 10.2091 13 8 13C5.79086 13 4 11.2091 4 9C4 6.79086 5.79086 5 8 5C10.2091 5 12 6.79086 12 9Z" fill="#ACA996"/>
</svg>
