<svg width="20" height="20" viewBox="0 0 20 20" fill="none" xmlns="http://www.w3.org/2000/svg">
<path fill-rule="evenodd" clip-rule="evenodd" d="M6 4.5C6 3.67157 6.67157 3 7.5 3H12.5C13.3284 3 14 3.67157 14 4.5V5H16.5C17.3284 5 18 5.67157 18 6.5V15.5C18 16.3284 17.3284 17 16.5 17H3.5C2.67157 17 2 16.3284 2 15.5V6.5C2 5.67157 2.67157 5 3.5 5H6V4.5ZM12.6 11C12.6 12.4359 11.4359 13.6 10 13.6C8.56406 13.6 7.4 12.4359 7.4 11C7.4 9.56406 8.56406 8.4 10 8.4C11.4359 8.4 12.6 9.56406 12.6 11ZM14 11C14 13.2091 12.2091 15 10 15C7.79086 15 6 13.2091 6 11C6 8.79086 7.79086 7 10 7C12.2091 7 14 8.79086 14 11Z" fill="#b6b6b6"/>
</svg>