<svg width="24" height="24" viewBox="0 0 24 24" fill="none" xmlns="http://www.w3.org/2000/svg">
<g clip-path="url(#clip0)">
<path d="M16.9498 8.63052C18.1214 7.45895 18.1214 5.55945 16.9498 4.38788C15.7783 3.21631 13.8788 3.21631 12.7072 4.38788L5.63612 11.4589C3.6835 13.4116 3.68312 16.577 5.63574 18.5296C7.58836 20.4822 10.7542 20.4822 12.7068 18.5296L19.0707 12.1656L20.4849 13.5798L14.121 19.9438C11.3873 22.6774 6.95519 22.6775 4.22152 19.9438C1.48785 17.2102 1.48785 12.778 4.22152 10.0443L11.293 2.97366C13.2456 1.02104 16.4114 1.02105 18.364 2.97367C20.3167 4.92629 20.3167 8.09211 18.364 10.0447L12.0001 16.4087C10.8285 17.5803 8.92902 17.5803 7.75745 16.4087C6.58588 15.2371 6.58588 13.3376 7.75745 12.1661L13.4143 6.50921L14.8285 7.92343L9.17167 13.5803C8.78115 13.9708 8.78114 14.604 9.17167 14.9945C9.56219 15.385 10.1954 15.385 10.5859 14.9945L16.9498 8.63052Z" fill="#ACA996"/>
</g>
<defs>
<clipPath id="clip0">
<path d="M0 0H24V24H0V0Z" fill="white"/>
</clipPath>
</defs>
</svg>