<svg width="20" height="20" viewBox="0 0 20 20" fill="none" xmlns="http://www.w3.org/2000/svg">
<path fill-rule="evenodd" clip-rule="evenodd" d="M10 18C14.4183 18 18 14.4183 18 10C18 5.58172 14.4183 2 10 2C5.58172 2 2 5.58172 2 10C2 14.4183 5.58172 18 10 18ZM5.99902 10.9678C6.55131 10.9678 6.99902 10.5201 6.99902 9.96777C6.99902 9.41549 6.55131 8.96777 5.99902 8.96777C5.44674 8.96777 4.99902 9.41549 4.99902 9.96777C4.99902 10.5201 5.44674 10.9678 5.99902 10.9678ZM9.99902 10.9678C10.5513 10.9678 10.999 10.5201 10.999 9.96777C10.999 9.41549 10.5513 8.96777 9.99902 8.96777C9.44674 8.96777 8.99902 9.41549 8.99902 9.96777C8.99902 10.5201 9.44674 10.9678 9.99902 10.9678ZM14.999 9.96777C14.999 10.5201 14.5513 10.9678 13.999 10.9678C13.4467 10.9678 12.999 10.5201 12.999 9.96777C12.999 9.41549 13.4467 8.96777 13.999 8.96777C14.5513 8.96777 14.999 9.41549 14.999 9.96777Z" fill="#252525"/>
</svg>