<svg xmlns="http://www.w3.org/2000/svg" width="20" height="20" viewBox="0 0 20 20" fill="none">
    <path fill-rule="evenodd" clip-rule="evenodd" d="M4.04076 6.35156H4.03906L6.01172 15.1523L13.9941 15.1582L15.9648 6.35156H15.9592C15.6111 7.84276 13.0758 9 10 9C6.92415 9 4.38888 7.84276 4.04076 6.35156Z" fill="#D4D4D4"/>
    <ellipse cx="10" cy="15" rx="4" ry="2" fill="#D4D4D4"/>
    <path d="M15.5 6C15.5 6.53701 15.0517 7.15779 14.019 7.67411C13.0163 8.17547 11.5961 8.5 10 8.5C8.40394 8.5 6.98369 8.17547 5.98097 7.67411C4.94833 7.15779 4.5 6.53701 4.5 6C4.5 5.46299 4.94833 4.84221 5.98097 4.32589C6.98369 3.82453 8.40394 3.5 10 3.5C11.5961 3.5 13.0163 3.82453 14.019 4.32589C15.0517 4.84221 15.5 5.46299 15.5 6Z" stroke="#D4D4D4"/>
</svg>
