<svg xmlns="http://www.w3.org/2000/svg" width="24" height="24" viewBox="0 0 24 24" fill="none">
    <path d="M17.25 19C17.6642 19 18 19.2239 18 19.5C18 19.7761 17.6642 20 17.25 20H6.75C6.33579 20 6 19.7761 6 19.5C6 19.2239 6.33579 19 6.75 19H17.25ZM12 4C12.2761 4 12.5 4.33579 12.5 4.75V14.25C12.5 14.2957 12.4964 14.3403 12.4912 14.3838L16.665 10.6279C16.8703 10.4432 17.1873 10.4598 17.3721 10.665C17.5568 10.8703 17.5402 11.1873 17.335 11.3721L12.335 15.8721L12 16.1729L11.665 15.8721L6.66504 11.3721C6.45984 11.1873 6.44322 10.8703 6.62793 10.665C6.81267 10.4598 7.12972 10.4432 7.33496 10.6279L11.5078 14.3838C11.5026 14.3404 11.5 14.2957 11.5 14.25V4.75C11.5 4.33579 11.7239 4 12 4Z" fill="#d4d4d4"/>
</svg>
