<svg xmlns="http://www.w3.org/2000/svg" width="24" height="24" viewBox="0 0 24 24" fill="none">
    <path fill-rule="evenodd" clip-rule="evenodd" d="M7.5 5.5H16.5C17.8807 5.5 19 6.61929 19 8C19 9.38071 17.8807 10.5 16.5 10.5H7.5C6.11929 10.5 5 9.38071 5 8C5 6.61929 6.11929 5.5 7.5 5.5ZM4 8C4 6.067 5.567 4.5 7.5 4.5H16.5C18.433 4.5 20 6.067 20 8C20 9.933 18.433 11.5 16.5 11.5H7.5C5.567 11.5 4 9.933 4 8ZM8.25 6.75C7.55964 6.75 7 7.30964 7 8C7 8.69036 7.55964 9.25 8.25 9.25C8.94036 9.25 9.5 8.69036 9.5 8C9.5 7.30964 8.94036 6.75 8.25 6.75ZM16.5 13.5H7.5C6.11929 13.5 5 14.6193 5 16C5 17.3807 6.11929 18.5 7.5 18.5H16.5C17.8807 18.5 19 17.3807 19 16C19 14.6193 17.8807 13.5 16.5 13.5ZM7.5 12.5C5.567 12.5 4 14.067 4 16C4 17.933 5.567 19.5 7.5 19.5H16.5C18.433 19.5 20 17.933 20 16C20 14.067 18.433 12.5 16.5 12.5H7.5ZM8.25 14.75C7.55964 14.75 7 15.3096 7 16C7 16.6904 7.55964 17.25 8.25 17.25C8.94036 17.25 9.5 16.6904 9.5 16C9.5 15.3096 8.94036 14.75 8.25 14.75Z" fill="#d4d4d4"/>
</svg>
