<svg xmlns="http://www.w3.org/2000/svg" width="20" height="20" viewBox="0 0 20 20" fill="none">
    <path fill-rule="evenodd" clip-rule="evenodd" d="M14 18C16.2091 18 18 16.2091 18 14V6C18 3.79086 16.2091 2 14 2H6C3.79086 2 2 3.79086 2 6L2 14C2 16.2091 3.79086 18 6 18H14ZM9.5 14C9.5 14.2761 9.72386 14.5 10 14.5C10.2761 14.5 10.5 14.2761 10.5 14L10.5 7.11342L12.6678 9.04037C12.8742 9.22383 13.1902 9.20524 13.3737 8.99885C13.5572 8.79246 13.5386 8.47642 13.3322 8.29296L10.3322 5.6263L10 5.33102L9.66782 5.6263L6.66782 8.29296C6.46143 8.47642 6.44284 8.79246 6.6263 8.99885C6.80975 9.20524 7.12579 9.22383 7.33218 9.04037L9.5 7.11342L9.5 14Z" fill="#D4D4D4"/>
</svg>
