<svg xmlns="http://www.w3.org/2000/svg" width="20" height="20" viewBox="0 0 20 20" fill="none">
    <path fill-rule="evenodd" clip-rule="evenodd" d="M6 2C3.79086 2 2 3.79086 2 6V14C2 16.2091 3.79086 18 6 18H14C16.2091 18 18 16.2091 18 14V6C18 3.79086 16.2091 2 14 2H6ZM10.5 6C10.5 5.72386 10.2761 5.5 10 5.5C9.72386 5.5 9.5 5.72386 9.5 6V12.8866L7.33218 10.9596C7.12579 10.7762 6.80975 10.7948 6.6263 11.0012C6.44284 11.2075 6.46143 11.5236 6.66782 11.707L9.66782 14.3737L10 14.669L10.3322 14.3737L13.3322 11.707C13.5386 11.5236 13.5572 11.2075 13.3737 11.0012C13.1902 10.7948 12.8742 10.7762 12.6678 10.9596L10.5 12.8866V6Z" fill="#D4D4D4"/>
</svg>
