<svg xmlns="http://www.w3.org/2000/svg" width="40" height="40" viewBox="0 0 40 40" fill="none">
    <path d="M20 19C21.3503 19 22.596 19.4465 23.5986 20.1992C21.5193 20.8052 20 22.7251 20 25C20 25.7112 20.1493 26.3874 20.417 27H15.5996C14.7163 26.9998 14.0002 26.2837 14 25.4004V25C14 21.6863 16.6863 19 20 19ZM20 12C21.5188 12 22.75 13.3431 22.75 15C22.75 16.6569 21.5188 18 20 18C18.4812 18 17.25 16.6569 17.25 15C17.25 13.3431 18.4812 12 20 12Z" fill="#f8f8f8"/>
    <path fill-rule="evenodd" clip-rule="evenodd" d="M25 29C27.2091 29 29 27.2091 29 25C29 22.7909 27.2091 21 25 21C22.7909 21 21 22.7909 21 25C21 27.2091 22.7909 29 25 29ZM25.75 23.25C25.75 22.8358 25.4142 22.5 25 22.5C24.5858 22.5 24.25 22.8358 24.25 23.25V24.25H23.25C22.8358 24.25 22.5 24.5858 22.5 25C22.5 25.4142 22.8358 25.75 23.25 25.75H24.25V26.75C24.25 27.1642 24.5858 27.5 25 27.5C25.4142 27.5 25.75 27.1642 25.75 26.75V25.75H26.75C27.1642 25.75 27.5 25.4142 27.5 25C27.5 24.5858 27.1642 24.25 26.75 24.25H25.75V23.25Z" fill="#f8f8f8"/>
</svg>
