<svg xmlns="http://www.w3.org/2000/svg" width="20" height="20" viewBox="0 0 20 20" fill="none">
    <path fill-rule="evenodd" clip-rule="evenodd" d="M12.75 5C12.75 6.65685 11.5188 8 10 8C8.48122 8 7.25 6.65685 7.25 5C7.25 3.34315 8.48122 2 10 2C11.5188 2 12.75 3.34315 12.75 5ZM4 15C4 11.6863 6.68629 9 10 9C11.3503 9 12.5965 9.44607 13.5991 10.1989C11.5196 10.8047 10 12.7249 10 15C10 15.7111 10.1484 16.3875 10.416 17H5.6C4.71635 17 4 16.2837 4 15.4V15Z" fill="#D4D4D4"/>
    <path fill-rule="evenodd" clip-rule="evenodd" d="M15 19C17.2091 19 19 17.2091 19 15C19 12.7909 17.2091 11 15 11C12.7909 11 11 12.7909 11 15C11 17.2091 12.7909 19 15 19ZM15 17.5C14.5858 17.5 14.25 17.1642 14.25 16.75V15.75H13.25C12.8358 15.75 12.5 15.4142 12.5 15C12.5 14.5858 12.8358 14.25 13.25 14.25H14.25V13.25C14.25 12.8358 14.5858 12.5 15 12.5C15.4142 12.5 15.75 12.8358 15.75 13.25V14.25H16.75C17.1642 14.25 17.5 14.5858 17.5 15C17.5 15.4142 17.1642 15.75 16.75 15.75H15.75V16.75C15.75 17.1642 15.4142 17.5 15 17.5Z" fill="#D4D4D4"/>
</svg>
