<svg xmlns="http://www.w3.org/2000/svg" width="24" height="24" viewBox="0 0 24 24" fill="none">
    <path fill-rule="evenodd" clip-rule="evenodd" d="M12.254 8.5H5V16.6667C5 16.8796 5.08859 17.089 5.25488 17.2474C5.422 17.4066 5.65365 17.5 5.9 17.5H17.1C17.3464 17.5 17.578 17.4066 17.7451 17.2474C17.9114 17.089 18 16.8796 18 16.6667V9.33333C18 9.12041 17.9114 8.91097 17.7451 8.75259C17.578 8.59343 17.3464 8.5 17.1 8.5H13H12.254ZM12.0565 7.45933C12.118 7.4858 12.1851 7.5 12.254 7.5H17.1C17.5963 7.5 18.0768 7.68752 18.4348 8.02846C18.7936 8.37018 19 8.83901 19 9.33333V16.6667C19 17.161 18.7936 17.6298 18.4348 17.9715C18.0768 18.3125 17.5963 18.5 17.1 18.5H5.9C5.40375 18.5 4.9232 18.3125 4.56522 17.9715C4.20641 17.6298 4 17.161 4 16.6667V7.33333C4 6.83901 4.20641 6.37018 4.56522 6.02846C4.9232 5.68752 5.40375 5.5 5.9 5.5H9.81268C10.3021 5.5 10.7608 5.73882 11.0415 6.13981L11.6561 7.01771L12.0565 7.45933Z" fill="#d4d4d4"/>
</svg>
