<svg width="20" height="20" viewBox="0 0 20 20" fill="none" xmlns="http://www.w3.org/2000/svg">
    <ellipse cx="13.5" cy="5.5" rx="2.25" ry="2.5" fill="#D4D4D4"/>
    <path fill-rule="evenodd" clip-rule="evenodd" d="M9.72656 11.046C10.977 11.9536 11.8303 13.3749 11.9767 15H17.2492C17.6634 15 17.9992 14.6642 17.9992 14.25V13.5C17.9992 11.0147 15.9844 9 13.4992 9C11.9192 9 10.5294 9.81424 9.72656 11.046Z" fill="#D4D4D4"/>
    <path d="M2 15.5C2 13.0147 4.01472 11 6.5 11C8.98528 11 11 13.0147 11 15.5V16.2188C11 16.633 10.6642 16.9688 10.25 16.9688H2.75C2.33579 16.9688 2 16.633 2 16.2188V15.5Z" fill="#D4D4D4"/>
    <ellipse cx="6.5" cy="7.5" rx="2.25" ry="2.5" fill="#D4D4D4"/>
</svg>
