<svg xmlns="http://www.w3.org/2000/svg" width="20" height="20" viewBox="0 0 20 20" fill="none">
    <path fill-rule="evenodd" clip-rule="evenodd" d="M5 3C3.34315 3 2 4.34315 2 6V14C2 15.6569 3.34315 17 5 17H15C16.6569 17 18 15.6569 18 14V6C18 4.34315 16.6569 3 15 3H5ZM5 6.75C5 6.33579 5.33579 6 5.75 6H8.25C8.66421 6 9 6.33579 9 6.75C9 7.16421 8.66421 7.5 8.25 7.5H5.75C5.33579 7.5 5 7.16421 5 6.75ZM5 10C5 9.58579 5.33579 9.25 5.75 9.25H8.25C8.66421 9.25 9 9.58579 9 10C9 10.4142 8.66421 10.75 8.25 10.75H5.75C5.33579 10.75 5 10.4142 5 10ZM5.75 12.5C5.33579 12.5 5 12.8358 5 13.25C5 13.6642 5.33579 14 5.75 14H8.25C8.66421 14 9 13.6642 9 13.25C9 12.8358 8.66421 12.5 8.25 12.5H5.75ZM11 6.75C11 6.33579 11.3358 6 11.75 6H14.25C14.6642 6 15 6.33579 15 6.75C15 7.16421 14.6642 7.5 14.25 7.5H11.75C11.3358 7.5 11 7.16421 11 6.75ZM11.75 9.25C11.3358 9.25 11 9.58579 11 10C11 10.4142 11.3358 10.75 11.75 10.75H14.25C14.6642 10.75 15 10.4142 15 10C15 9.58579 14.6642 9.25 14.25 9.25H11.75ZM11 13.25C11 12.8358 11.3358 12.5 11.75 12.5H14.25C14.6642 12.5 15 12.8358 15 13.25C15 13.6642 14.6642 14 14.25 14H11.75C11.3358 14 11 13.6642 11 13.25Z" fill="#D4D4D4"/>
</svg>
