<svg xmlns="http://www.w3.org/2000/svg" width="20" height="20" viewBox="0 0 20 20" fill="none">
    <path fill-rule="evenodd" clip-rule="evenodd" d="M17 4.99902C17 5.82745 16.3284 6.49902 15.5 6.49902C14.6716 6.49902 14 5.82745 14 4.99902C14 4.1706 14.6716 3.49902 15.5 3.49902C16.3284 3.49902 17 4.1706 17 4.99902ZM3 4.25L12 4.25V5.74828L3 5.74828L3 4.25ZM3 9.25L12 9.25V10.7483L3 10.7483L3 9.25ZM12 14.25L3 14.25V15.7483L12 15.7483V14.25ZM15.5 16.499C16.3284 16.499 17 15.8275 17 14.999C17 14.1706 16.3284 13.499 15.5 13.499C14.6716 13.499 14 14.1706 14 14.999C14 15.8275 14.6716 16.499 15.5 16.499Z" fill="#D4D4D4"/>
</svg>
