<svg width="20" height="20" viewBox="0 0 20 20" fill="none" xmlns="http://www.w3.org/2000/svg">
<mask id="path-1-inside-1_11390_30760" fill="white">
<path d="M7.25 12C7.66421 12 8 12.3358 8 12.75C8 13.1642 7.66421 13.5 7.25 13.5H5.12891C6.21783 15.0136 7.99297 16 10 16C12.6123 16 14.8334 14.3301 15.6572 12H17.2285C16.3531 15.1709 13.4493 17.5 10 17.5C7.54509 17.5 5.36768 16.3194 4 14.4961V16.75C4 17.1642 3.66421 17.5 3.25 17.5C2.83579 17.5 2.5 17.1642 2.5 16.75V12H7.25ZM16.75 2.5C17.1642 2.5 17.5 2.83579 17.5 3.25V8H12.75C12.3358 8 12 7.66421 12 7.25C12 6.83579 12.3358 6.5 12.75 6.5H14.8711C13.7822 4.98645 12.007 4.00003 10 4C7.38773 4 5.16657 5.66985 4.34277 8H2.77148C3.6469 4.82907 6.55065 2.5 10 2.5C12.4546 2.50003 14.6323 3.67998 16 5.50293V3.25C16 2.83579 16.3358 2.5 16.75 2.5Z"/>
</mask>
<path d="M7.25 12C7.66421 12 8 12.3358 8 12.75C8 13.1642 7.66421 13.5 7.25 13.5H5.12891C6.21783 15.0136 7.99297 16 10 16C12.6123 16 14.8334 14.3301 15.6572 12H17.2285C16.3531 15.1709 13.4493 17.5 10 17.5C7.54509 17.5 5.36768 16.3194 4 14.4961V16.75C4 17.1642 3.66421 17.5 3.25 17.5C2.83579 17.5 2.5 17.1642 2.5 16.75V12H7.25ZM16.75 2.5C17.1642 2.5 17.5 2.83579 17.5 3.25V8H12.75C12.3358 8 12 7.66421 12 7.25C12 6.83579 12.3358 6.5 12.75 6.5H14.8711C13.7822 4.98645 12.007 4.00003 10 4C7.38773 4 5.16657 5.66985 4.34277 8H2.77148C3.6469 4.82907 6.55065 2.5 10 2.5C12.4546 2.50003 14.6323 3.67998 16 5.50293V3.25C16 2.83579 16.3358 2.5 16.75 2.5Z" fill="#f8f8f8"/>
<path d="M7.25 13.5V14.5V13.5ZM5.12891 13.5V12.5H3.17755L4.31716 14.084L5.12891 13.5ZM10 16V17H10L10 16ZM15.6572 12V11H14.9501L14.7144 11.6667L15.6572 12ZM17.2285 12L18.1925 12.2661L18.542 11H17.2285V12ZM10 17.5V18.5H10L10 17.5ZM4 14.4961L4.79996 13.896L3 11.4964V14.4961H4ZM2.5 16.75H1.5H2.5ZM2.5 12V11H1.5V12H2.5ZM17.5 3.25H18.5V3.25L17.5 3.25ZM17.5 8V9H18.5V8H17.5ZM12.75 6.5V5.5V6.5ZM14.8711 6.5V7.5H16.8225L15.6828 5.91599L14.8711 6.5ZM10 4L10 3H10V4ZM4.34277 8V9H5.04989L5.28559 8.33332L4.34277 8ZM2.77148 8L1.80754 7.73388L1.458 9H2.77148V8ZM10 2.5L10 1.5H10V2.5ZM16 5.50293L15.2001 6.10307L17 8.50205V5.50293H16ZM7.25 12V13C7.11193 13 7 12.8881 7 12.75H8H9C9 11.7835 8.2165 11 7.25 11V12ZM8 12.75H7C7 12.6119 7.11193 12.5 7.25 12.5V13.5V14.5C8.2165 14.5 9 13.7165 9 12.75H8ZM7.25 13.5V12.5H5.12891V13.5V14.5H7.25V13.5ZM5.12891 13.5L4.31716 14.084C5.58555 15.847 7.65706 17 10 17V16V15C8.32888 15 6.8501 14.1801 5.94065 12.916L5.12891 13.5ZM10 16L10 17C13.0495 17 15.6396 15.0502 16.6 12.3333L15.6572 12L14.7144 11.6667C14.0273 13.6101 12.175 15 9.99999 15L10 16ZM15.6572 12V13H17.2285V12V11H15.6572V12ZM17.2285 12L16.2646 11.7339C15.5057 14.4828 12.9876 16.5 9.99999 16.5L10 17.5L10 18.5C13.911 18.5 17.2006 15.859 18.1925 12.2661L17.2285 12ZM10 17.5V16.5C7.87364 16.5 5.98724 15.4789 4.79996 13.896L4 14.4961L3.20004 15.0961C4.74813 17.16 7.21653 18.5 10 18.5V17.5ZM4 14.4961H3V16.75H4H5V14.4961H4ZM4 16.75H3C3 16.6119 3.11193 16.5 3.25 16.5V17.5V18.5C4.2165 18.5 5 17.7165 5 16.75H4ZM3.25 17.5V16.5C3.38807 16.5 3.5 16.6119 3.5 16.75H2.5H1.5C1.5 17.7165 2.2835 18.5 3.25 18.5V17.5ZM2.5 16.75H3.5V12H2.5H1.5V16.75H2.5ZM2.5 12V13H7.25V12V11H2.5V12ZM16.75 2.5V3.5C16.6119 3.5 16.5 3.38807 16.5 3.25L17.5 3.25L18.5 3.25C18.5 2.2835 17.7165 1.5 16.75 1.5V2.5ZM17.5 3.25H16.5V8H17.5H18.5V3.25H17.5ZM17.5 8V7H12.75V8V9H17.5V8ZM12.75 8V7C12.8881 7 13 7.11193 13 7.25H12H11C11 8.2165 11.7835 9 12.75 9V8ZM12 7.25H13C13 7.38807 12.8881 7.5 12.75 7.5V6.5V5.5C11.7835 5.5 11 6.2835 11 7.25H12ZM12.75 6.5V7.5H14.8711V6.5V5.5H12.75V6.5ZM14.8711 6.5L15.6828 5.91599C14.4144 4.15297 12.3429 3.00003 10 3L10 4L9.99999 5C11.6711 5.00002 13.1499 5.81993 14.0593 7.08401L14.8711 6.5ZM10 4V3C6.95044 3 4.36046 4.94987 3.39996 7.66668L4.34277 8L5.28559 8.33332C5.97269 6.38984 7.82503 5 10 5V4ZM4.34277 8V7H2.77148V8V9H4.34277V8ZM2.77148 8L3.73542 8.26612C4.49434 5.51716 7.01237 3.5 10 3.5V2.5V1.5C6.08893 1.5 2.79945 4.14097 1.80754 7.73388L2.77148 8ZM10 2.5L9.99999 3.5C12.1263 3.50002 14.0129 4.52072 15.2001 6.10307L16 5.50293L16.7999 4.90279C15.2517 2.83924 12.783 1.50003 10 1.5L10 2.5ZM16 5.50293H17V3.25H16H15V5.50293H16ZM16 3.25H17C17 3.38807 16.8881 3.5 16.75 3.5V2.5V1.5C15.7835 1.5 15 2.2835 15 3.25H16Z" fill="#f8f8f8" mask="url(#path-1-inside-1_11390_30760)"/>
</svg>
