<svg width="20" height="20" viewBox="0 0 20 20" fill="none" xmlns="http://www.w3.org/2000/svg">
<path fill-rule="evenodd" clip-rule="evenodd" d="M9.99636 2C10.3969 2 10.7319 2.335 10.7319 2.73555V4.97132C10.7319 5.36459 10.3969 5.69959 9.99636 5.69959C9.6031 5.69959 9.26809 5.36459 9.26809 4.97132V2.73555C9.26809 2.335 9.6031 2 9.99636 2ZM13.0405 6.96677C12.7638 6.68275 12.7565 6.20938 13.0405 5.93264L14.6063 4.36686C14.883 4.08284 15.3564 4.08284 15.6331 4.35958C15.9172 4.6436 15.9172 5.11698 15.6404 5.39372L14.0746 6.95949C13.7979 7.24351 13.3173 7.24351 13.0405 6.96677ZM6.94492 6.96677C6.66818 7.24351 6.19481 7.23623 5.91807 6.95949L4.36686 5.38644C4.09012 5.10969 4.09012 4.63632 4.36686 4.35958C4.6436 4.08284 5.11698 4.09012 5.401 4.36686L6.95221 5.93264C7.22895 6.20938 7.22895 6.68275 6.94492 6.96677ZM2 9.99636C2 9.6031 2.335 9.26809 2.72827 9.26809H4.97132C5.37187 9.26809 5.70687 9.6031 5.70687 9.99636C5.70687 10.3896 5.37187 10.7246 4.97132 10.7246H2.72827C2.335 10.7246 2 10.3896 2 9.99636ZM18 9.99636C18 10.3896 17.665 10.7246 17.2645 10.7246H15.0287C14.6354 10.7246 14.3004 10.3896 14.3004 9.99636C14.3004 9.6031 14.6354 9.26809 15.0287 9.26809H17.2645C17.665 9.26809 18 9.6031 18 9.99636ZM4.34502 15.6186C4.07556 15.3418 4.07556 14.8685 4.35958 14.5917L5.92535 13.0405C6.20209 12.7638 6.67547 12.7638 6.95221 13.0405C7.22895 13.3245 7.22895 13.7906 6.94492 14.0746L5.38644 15.6331C5.10241 15.9099 4.62904 15.9026 4.34502 15.6186ZM9.99636 14.3004C10.3969 14.3004 10.7319 14.6354 10.7319 15.0287V17.2645C10.7319 17.665 10.3969 18 9.99636 18C9.6031 18 9.26809 17.665 9.26809 17.2645V15.0287C9.26809 14.6354 9.6031 14.3004 9.99636 14.3004ZM9.71715 8.30979C9.32663 7.91926 8.69346 7.91926 8.30294 8.30979C7.91241 8.70031 7.91241 9.33347 8.30294 9.724L15.374 16.7951C15.7645 17.1856 16.3977 17.1856 16.7882 16.7951C17.1787 16.4045 17.1787 15.7714 16.7882 15.3809L9.71715 8.30979Z" fill="#f8f8f8"/>
</svg>
