<svg xmlns="http://www.w3.org/2000/svg" width="70" height="18" viewBox="0 0 70 18" fill="none">
    <g clip-path="url(#clip0_7858_3384)">
        <path d="M55.1738 3.24512C55.9365 3.24512 56.6246 3.44065 57.2373 3.83203C57.8542 4.21909 58.3423 4.79351 58.7021 5.55469C59.0663 6.31166 59.249 7.24075 59.249 8.3418C59.249 9.42995 59.0714 10.3549 58.7158 11.1162C58.3602 11.8775 57.8753 12.4574 57.2627 12.8574C56.65 13.2574 55.9562 13.458 55.1807 13.458C54.6152 13.458 54.1462 13.363 53.7734 13.1738C53.4007 12.9846 53.1001 12.7569 52.873 12.4902C52.6503 12.2193 52.4768 11.9635 52.3525 11.7227H52.2568V17H49.9297V3.37402H52.2178V5.0127H52.3525C52.4725 4.77188 52.6419 4.51603 52.8604 4.24512C53.0788 3.96994 53.3745 3.7355 53.7471 3.54199C54.1197 3.34419 54.5956 3.24516 55.1738 3.24512ZM43.4619 10.8574H43.5645L45.8457 3.37402H48.3203L43.499 16.8965H41.041L42.2979 13.4902L38.7188 3.37402H41.1865L43.4619 10.8574ZM23.9727 3.37305L26.248 10.8574H26.3506L28.6318 3.37305H31.1064L26.2852 16.8955H23.8271C24.2454 15.7598 24.6629 14.6236 25.085 13.4893L21.5049 3.37305H23.9727ZM65.4893 3.24512C66.0976 3.24513 66.6721 3.34416 67.2119 3.54199C67.7559 3.73554 68.2359 4.03681 68.6514 4.44531C69.0711 4.85387 69.4007 5.37471 69.6406 6.00684C69.8805 6.63471 70.001 7.38331 70.001 8.25195V8.96777H63.124C63.1309 9.51926 63.2366 9.99463 63.4395 10.3936C63.6493 10.8019 63.9425 11.1157 64.3193 11.335C64.6964 11.55 65.138 11.6582 65.6436 11.6582C65.982 11.6582 66.2883 11.6102 66.5625 11.5156C66.8365 11.4168 67.0741 11.273 67.2754 11.084C67.4767 10.8948 67.6296 10.6603 67.7324 10.3809L69.9043 10.626C69.7672 11.2022 69.5057 11.7057 69.1201 12.1357C68.7389 12.5613 68.2506 12.8924 67.6553 13.1289C67.0597 13.3612 66.3782 13.4775 65.6113 13.4775C64.6216 13.4775 63.7667 13.2703 63.0469 12.8574C62.3315 12.4402 61.7811 11.851 61.3955 11.0898C61.01 10.3243 60.8174 9.42318 60.8174 8.38672C60.8174 7.36749 61.0099 6.47294 61.3955 5.70312C61.7854 4.92905 62.3291 4.32656 63.0273 3.89648C63.7257 3.46208 64.5467 3.24512 65.4893 3.24512ZM4.0752 3.24707C4.65356 3.24708 5.12922 3.34611 5.50195 3.54395C5.87462 3.73745 6.17018 3.97188 6.38867 4.24707C6.6071 4.51794 6.77653 4.77387 6.89648 5.01465H7.03125V3.37598H9.31934V13.2539H6.99316V11.7246H6.89648C6.77225 11.9654 6.59872 12.2213 6.37598 12.4922C6.149 12.7587 5.84909 12.9866 5.47656 13.1758C5.10381 13.365 4.63391 13.46 4.06836 13.46C3.29303 13.4599 2.5989 13.2603 1.98633 12.8604C1.37368 12.4604 0.889788 11.8794 0.53418 11.1182C0.178566 10.3569 0.000976562 9.4319 0.000976562 8.34375C0.00100001 7.24279 0.182716 6.31357 0.546875 5.55664C0.906737 4.79553 1.39487 4.22103 2.01172 3.83398C2.6244 3.44259 3.31256 3.24707 4.0752 3.24707ZM35.6094 3.37402H37.5566V5.18066H35.6094V10.3027C35.6094 10.6166 35.6568 10.8577 35.751 11.0254C35.8495 11.1888 35.9782 11.3011 36.1367 11.3613C36.2952 11.4215 36.4713 11.4512 36.6641 11.4512C36.8096 11.4511 36.9427 11.4404 37.0625 11.4189C37.1864 11.3975 37.2805 11.3785 37.3447 11.3613L37.7373 13.1865C37.6131 13.2295 37.4345 13.2775 37.2031 13.3291C36.9762 13.3807 36.6978 13.4103 36.3682 13.4189C35.7855 13.4361 35.26 13.3478 34.793 13.1543C34.3262 12.9564 33.9558 12.651 33.6816 12.2383C33.4118 11.8255 33.279 11.3096 33.2832 10.6904V1H35.6094V3.37402ZM16.8086 3.24512C17.4897 3.24518 18.0834 3.39119 18.5889 3.68359C19.0986 3.97606 19.4921 4.40034 19.7705 4.95508C20.0532 5.50978 20.1927 6.18249 20.1885 6.97363V13.2832H17.8623V7.33496C17.8622 6.67281 17.6903 6.15438 17.3477 5.78027C17.0092 5.40631 16.5401 5.21973 15.9404 5.21973C15.5335 5.21975 15.1715 5.30963 14.8545 5.49023C14.5417 5.66656 14.2952 5.92237 14.1152 6.25781C13.9396 6.59329 13.8516 7.00013 13.8516 7.47754V13.2832H11.5254V3.37402H13.749V5.05762H13.8643C14.0913 4.50286 14.4542 4.0622 14.9512 3.73535C15.4524 3.40859 16.0718 3.24512 16.8086 3.24512ZM4.71777 5.16309C4.19958 5.16309 3.76689 5.2986 3.41992 5.56934C3.07289 5.84029 2.81141 6.215 2.63574 6.69238C2.46008 7.16979 2.37207 7.71601 2.37207 8.33105C2.37207 8.9504 2.46165 9.50324 2.6416 9.98926C2.81723 10.4709 3.07885 10.8513 3.42578 11.1309C3.77282 11.4061 4.20364 11.5439 4.71777 11.5439C5.21049 11.5439 5.6305 11.4102 5.97754 11.1436C6.32018 10.8726 6.58339 10.4962 6.76758 10.0146C6.9475 9.53296 7.03809 8.97186 7.03809 8.33105C7.03809 7.69023 6.95006 7.13325 6.77441 6.66016C6.59447 6.18705 6.33044 5.819 5.9834 5.55664C5.63643 5.29449 5.21457 5.16309 4.71777 5.16309ZM54.5312 5.16113C54.0344 5.16119 53.6126 5.29244 53.2656 5.55469C52.9186 5.81705 52.6546 6.18509 52.4746 6.6582C52.299 7.13124 52.2119 7.6884 52.2119 8.3291C52.2119 8.96985 52.3015 9.53104 52.4814 10.0127C52.6656 10.4942 52.9289 10.8707 53.2715 11.1416C53.6185 11.4082 54.0387 11.5419 54.5312 11.542C55.0454 11.542 55.4762 11.4041 55.8232 11.1289C56.1702 10.8494 56.4318 10.4689 56.6074 9.9873C56.7874 9.50134 56.8769 8.94837 56.877 8.3291C56.877 7.7142 56.7898 7.16776 56.6143 6.69043C56.4386 6.21305 56.1771 5.83834 55.8301 5.56738C55.483 5.29642 55.0497 5.16113 54.5312 5.16113ZM65.5215 5.06445C65.0459 5.06445 64.6275 5.18083 64.2676 5.41309C63.9079 5.641 63.6271 5.94238 63.4258 6.31641C63.2501 6.64631 63.1513 7.00549 63.1289 7.39355H67.7705C67.7662 6.94634 67.6699 6.54852 67.4814 6.2002C67.293 5.84756 67.0298 5.56933 66.6914 5.36719C66.3573 5.16507 65.967 5.06448 65.5215 5.06445Z" fill="#252525"/>
    </g>
    <defs>
        <clipPath id="clip0_7858_3384">
            <rect width="70" height="18" fill="white"/>
        </clipPath>
    </defs>
</svg>
