<svg width="90" height="13" viewBox="0 0 90 13" fill="none" xmlns="http://www.w3.org/2000/svg">
<path d="M2.47442 12.797H0L4.50519 0H7.36701L11.8784 12.797H9.40403L5.98609 2.62438H5.88611L2.47442 12.797Z" fill="#C5C3B7"/>
<path d="M25.7859 0V12.797H23.7239L17.6941 4.08029H17.5878V12.797H15.2696V0H17.3441L23.3677 8.72294H23.4802V0H25.7859Z" fill="#C5C3B7"/>
<path d="M28.6939 0H31.312L34.4426 5.66116H34.5675L37.698 0H40.3162L35.661 8.0231V12.797H33.3491V8.0231L28.6939 0Z" fill="#C5C3B7"/>
<path d="M42.3184 1.94329V0H52.5285V1.94329H48.5732V12.797H46.2737V1.94329H42.3184Z" fill="#C5C3B7"/>
<path d="M54.5253 0H57.1435L60.274 5.66116H60.399L63.5295 0H66.1476L61.4924 8.0231V12.797H59.1805V8.0231L54.5253 0Z" fill="#C5C3B7"/>
<path d="M69.0462 12.797V0H73.8451C74.8282 0 75.653 0.18329 76.3195 0.54987C76.9902 0.91645 77.4963 1.4205 77.8379 2.06201C78.1837 2.69936 78.3565 3.42419 78.3565 4.2365C78.3565 5.05714 78.1837 5.78613 77.8379 6.42348C77.4922 7.06083 76.9819 7.5628 76.307 7.92938C75.6322 8.29179 74.8011 8.473 73.8139 8.473H70.6334V6.5672H73.5014C74.0763 6.5672 74.547 6.46722 74.9136 6.26727C75.2802 6.06732 75.551 5.79238 75.7259 5.44246C75.905 5.09255 75.9946 4.69056 75.9946 4.2365C75.9946 3.78244 75.905 3.38253 75.7259 3.03678C75.551 2.69103 75.2781 2.42234 74.9074 2.23072C74.5408 2.03494 74.068 1.93704 73.4889 1.93704H71.3644V12.797H69.0462Z" fill="#C5C3B7"/>
<path d="M81.627 12.797V0H89.95V1.94329H83.9452V5.41747H89.5189V7.36076H83.9452V10.8537H90V12.797H81.627Z" fill="#C5C3B7"/>
</svg>
