<svg width="112" height="24" viewBox="0 0 112 24" fill="none" xmlns="http://www.w3.org/2000/svg">
<path fill-rule="evenodd" clip-rule="evenodd" d="M15.4953 3.78875H11.3345V6.14054C10.5024 4.67784 8.75198 3.44458 6.54246 3.44458C4.70598 3.44458 3.07036 4.13291 1.89387 5.42353C0.717375 6.71414 0 8.63573 0 11.1309V11.3604C0 13.8556 0.717375 15.7771 1.86517 17.0678C3.04167 18.4157 4.67728 19.1041 6.54246 19.1041C8.86675 19.1041 10.5598 17.9568 11.3345 16.4941V18.7866H15.4953V3.78875ZM7.57566 15.8627C5.28006 15.8627 4.01748 14.3427 4.01748 11.3886V11.1591C4.01748 8.09033 5.50962 6.62764 7.60436 6.62764C9.78518 6.62764 11.2773 8.14769 11.2773 11.1591V11.3886C11.2773 14.4 9.87126 15.8627 7.57566 15.8627ZM19.529 3.78875H23.6898V6.16922C24.4646 4.67784 26.0428 3.44458 28.568 3.44458C30.0601 3.44458 31.294 3.90347 32.2122 4.82124C33.1018 5.76769 33.6183 7.25907 33.6183 9.23802V18.7886H29.4575V9.8403C29.4575 7.77532 28.6541 6.82887 26.8176 6.82887C25.0098 6.82887 23.6898 7.91872 23.6898 10.1271V18.7886H19.529V3.78875ZM40.998 17.268L35.0294 3.78826H39.5058L43.1501 12.7939L46.5074 3.78826H50.496L42.3753 23.8932H38.358L40.998 17.268ZM57.4977 19.075C54.3126 19.075 52.6483 17.4689 52.6483 14.3428V0H56.7803V3.78841H60.4925V6.74249H56.7803V13.9699C56.7803 15.1458 57.3256 15.7481 58.4447 15.7481C59.5309 15.7481 60.0443 15.4868 60.4925 15.2413V18.4206C59.7068 18.796 58.8946 19.075 57.4977 19.075ZM68.3036 17.268L62.335 3.78826H66.8114L70.4557 12.7939L73.813 3.78826H77.8016L69.6809 23.8932H65.6636L68.3036 17.268ZM79.6719 3.78875H83.8327V6.14054C84.6648 4.67784 86.4152 3.44458 88.6247 3.44458C90.4612 3.44458 92.0968 4.13291 93.2733 5.42353C94.4498 6.71414 95.1672 8.63573 95.1672 11.1309V11.3604C95.1672 13.8556 94.4498 15.7771 93.302 17.0678C92.1255 18.4157 90.4899 19.1041 88.6247 19.1041C86.3004 19.1041 84.6074 17.9568 83.8327 16.4941V23.8937H79.6719V3.78875ZM87.3371 15.8627C89.6327 15.8627 90.8952 14.3427 90.8952 11.3886V11.1591C90.8952 8.09033 89.4031 6.62764 87.3084 6.62764C85.1275 6.62764 83.6354 8.14769 83.6354 11.1591V11.3886C83.6354 14.4 85.0415 15.8627 87.3371 15.8627ZM104.798 19.1003C102.531 19.1003 100.58 18.412 99.2029 17.0641C97.7969 15.7735 96.9648 13.8807 96.9648 11.4717V11.2423C96.9648 8.86195 97.7969 6.94047 99.2029 5.56389C100.58 4.21599 102.503 3.44166 104.683 3.44166C106.634 3.44166 108.442 4.01524 109.791 5.24843C111.139 6.48161 112 8.40309 112 11.0702V12.2174H101.183C101.298 14.7411 102.617 16.1464 104.913 16.1464C106.864 16.1464 107.782 15.3147 108.04 14.0528H111.971C111.484 17.2935 108.93 19.1003 104.798 19.1003ZM107.954 9.66465C107.811 7.37035 106.663 6.30923 104.683 6.30923C102.818 6.30923 101.556 7.51374 101.24 9.66465H107.954Z" fill="#fff"/>
</svg>