<svg width="464" height="229" viewBox="0 0 464 229" fill="none" xmlns="http://www.w3.org/2000/svg">
<path d="M124.079 74.5988V72.8708H129.647L129.711 68.9668C129.839 62.1188 133.679 57.7668 140.143 57.7668C144.623 57.7668 149.295 60.4548 149.295 63.2068C149.295 64.3588 148.335 65.3188 147.055 65.3188C143.599 65.3188 145.071 59.0468 139.695 59.0468C135.663 59.0468 133.615 62.1188 133.551 67.9428L133.487 72.8708H140.719V74.5988H133.551V98.6628C133.551 102.503 134.703 103.527 138.991 103.527V104.551H124.207V103.527C128.431 103.527 129.647 102.375 129.647 98.6628L129.711 74.5988H124.079ZM140.872 88.4868C140.872 78.8868 147.016 72.2308 155.912 72.2308C164.744 72.2308 170.696 78.8228 170.696 88.6788C170.696 98.5348 164.68 105.255 155.784 105.255C147.144 105.255 140.872 98.2148 140.872 88.4868ZM145.352 87.3348C145.352 96.6788 150.536 103.783 156.808 103.783C162.504 103.783 166.152 98.7268 166.152 90.8548C166.152 80.9348 161.48 73.6388 155.208 73.6388C149.32 73.6388 145.352 79.0788 145.352 87.3348ZM172.026 104.551V103.527C176.378 103.527 177.53 102.503 177.594 98.6628V80.9348C177.594 77.0948 177.018 76.4548 174.906 76.4548C174.074 76.4548 173.562 76.5188 172.474 76.9668L172.218 75.8788L181.498 72.2308L181.37 79.5908C184.122 74.5348 186.746 72.6788 189.498 72.6788C191.482 72.6788 192.826 73.8308 192.826 75.3668C192.826 76.7108 191.674 77.8628 190.138 77.8628C188.538 77.8628 187.706 76.0708 186.362 76.0708C183.482 76.0708 181.562 80.7428 181.562 83.7508L181.498 98.6628C181.498 102.183 182.266 103.463 187.514 103.591V104.551H172.026ZM206.234 74.5988V73.5748C211.93 70.7588 212.89 69.6708 214.426 63.5908H215.45V72.8708H222.874V74.5988H215.45L215.514 97.5748C215.514 100.583 216.09 102.695 218.778 102.695C220.826 102.695 221.978 101.671 223.322 98.5348L224.282 98.6628C222.554 102.695 220.762 105.063 216.858 105.063C213.146 105.063 211.482 102.823 211.482 97.8308V74.5988H206.234ZM221.681 61.1588L230.961 57.5108L231.089 79.3348C235.633 74.2788 238.385 72.4228 242.417 72.4228C245.041 72.4228 247.473 73.5108 249.073 75.3028C250.609 76.9668 250.993 78.6948 250.993 82.9188L250.929 98.6628C250.929 102.311 251.761 103.527 256.305 103.527V104.551H241.585V103.527C245.873 103.527 247.025 102.503 247.025 98.6628L246.961 83.0468C246.961 76.4548 244.721 75.3028 240.881 75.3028C237.745 75.3028 235.889 76.0708 231.025 81.1908L231.089 98.6628C231.089 102.375 232.177 103.527 236.337 103.527V104.551H221.681V103.527C225.905 103.527 227.057 102.375 227.057 98.6628V66.2148C227.057 62.3748 226.481 61.6708 224.433 61.6708C223.601 61.6708 222.961 61.7988 221.937 62.1828L221.681 61.1588ZM257.235 88.4868C257.235 78.8868 263.379 72.2308 272.275 72.2308C281.107 72.2308 287.059 78.8228 287.059 88.6788C287.059 98.5348 281.043 105.255 272.147 105.255C263.507 105.255 257.235 98.2148 257.235 88.4868ZM261.715 87.3348C261.715 96.6788 266.899 103.783 273.171 103.783C278.867 103.783 282.515 98.7268 282.515 90.8548C282.515 80.9348 277.843 73.6388 271.571 73.6388C265.683 73.6388 261.715 79.0788 261.715 87.3348ZM308.101 72.4868H309.253V82.6628H308.165C307.781 75.6868 305.477 73.4468 300.293 73.4468C296.261 73.4468 293.189 75.6868 293.189 78.7588C293.189 81.8308 296.325 83.3028 298.373 84.5828L300.805 85.7348C301.125 85.8628 301.957 86.3108 303.237 86.8868C308.677 90.0868 311.109 91.3028 311.109 95.8468C311.109 101.351 306.501 105.255 300.037 105.255C297.861 105.255 296.389 104.935 294.085 103.911C293.061 103.463 292.741 103.335 292.293 103.335C291.717 103.335 291.333 103.847 291.333 104.935H290.309V93.5428L291.525 93.6068C291.909 101.415 294.341 103.911 299.717 103.911C304.133 103.911 307.653 101.031 307.653 97.3828C307.653 95.0148 306.949 93.6068 302.469 91.1108L300.421 89.9588L297.733 88.6788C292.677 86.4388 290.245 84.0068 290.245 80.1668C290.245 75.5588 294.277 72.2308 299.845 72.2308C301.957 72.2308 303.237 72.6148 305.413 73.5108L306.373 73.8948C306.629 74.0228 306.885 74.0868 307.141 74.0868C307.717 74.0868 308.101 73.5748 308.101 72.4868ZM338.774 85.7348H317.974C317.782 86.8868 317.718 87.7828 317.718 88.4228C317.718 95.6548 322.646 101.607 328.534 101.607C333.526 101.607 336.598 98.5348 338.198 92.9028L339.222 93.0948C337.75 100.071 334.486 105.063 327.126 105.063C319.318 105.063 313.942 98.4708 313.942 89.0628C313.942 79.3348 319.382 72.4228 327.126 72.4228C333.782 72.4228 338.006 76.6468 338.774 85.7348ZM318.934 80.1028C318.614 80.9988 318.294 82.1508 318.038 83.3668H333.974C332.95 76.5828 329.942 73.9588 326.166 73.9588C323.03 73.9588 320.086 76.3908 318.934 80.1028ZM54.889 129.831V128.871H66.985V129.831H65.833C64.105 129.831 63.721 130.087 63.721 131.367C63.721 132.071 64.041 133.095 64.489 134.311L72.105 154.087L78.505 137.255L77.353 134.311C75.817 130.791 74.921 129.831 73.129 129.831H72.105V128.871H84.457V129.831H82.921C81.513 129.831 80.809 130.407 80.809 131.495C80.809 132.199 81.001 133.223 81.513 134.311L89.321 154.471L97.001 134.311C97.449 133.159 97.705 132.135 97.705 131.495C97.705 130.343 97.001 129.831 95.593 129.831H94.121V128.871H104.041V129.831H102.953C101.161 129.831 100.073 130.919 98.793 134.311L88.809 160.551H87.529L79.465 139.687L71.465 160.551H70.441L60.265 134.311C58.985 130.919 57.961 129.831 56.041 129.831H54.889ZM100.84 117.159L110.12 113.511L110.248 135.335C114.792 130.279 117.544 128.423 121.576 128.423C124.2 128.423 126.632 129.511 128.232 131.303C129.768 132.967 130.152 134.695 130.152 138.919L130.088 154.663C130.088 158.311 130.92 159.527 135.464 159.527V160.551H120.744V159.527C125.032 159.527 126.184 158.503 126.184 154.663L126.12 139.047C126.12 132.455 123.88 131.303 120.04 131.303C116.904 131.303 115.048 132.071 110.184 137.191L110.248 154.663C110.248 158.375 111.336 159.527 115.496 159.527V160.551H100.84V159.527C105.064 159.527 106.216 158.375 106.216 154.663V122.215C106.216 118.375 105.64 117.671 103.592 117.671C102.76 117.671 102.12 117.799 101.096 118.183L100.84 117.159ZM136.393 144.487C136.393 134.887 142.537 128.231 151.433 128.231C160.265 128.231 166.217 134.823 166.217 144.679C166.217 154.535 160.201 161.255 151.305 161.255C142.665 161.255 136.393 154.215 136.393 144.487ZM140.873 143.335C140.873 152.679 146.057 159.783 152.329 159.783C158.025 159.783 161.673 154.727 161.673 146.855C161.673 136.935 157.001 129.639 150.729 129.639C144.841 129.639 140.873 135.079 140.873 143.335ZM212.018 148.775L212.914 148.967C210.418 157.991 205.938 160.935 200.178 160.935C192.178 160.935 186.226 154.279 186.226 145.191C186.226 135.911 192.882 128.487 201.138 128.487C206.578 128.487 211.506 132.135 211.506 135.975C211.506 137.447 210.354 138.535 208.818 138.535C207.282 138.535 206.066 137.447 206.066 135.911V135.783L206.13 134.055C206.258 131.559 203.89 129.767 200.818 129.767C194.802 129.767 190.642 135.463 190.642 143.591C190.642 151.783 195.122 157.863 201.394 157.863C205.618 157.863 209.33 155.367 212.018 148.775ZM238.943 141.735H218.143C217.951 142.887 217.887 143.783 217.887 144.423C217.887 151.655 222.815 157.607 228.703 157.607C233.695 157.607 236.767 154.535 238.367 148.903L239.391 149.095C237.919 156.071 234.655 161.063 227.295 161.063C219.487 161.063 214.111 154.471 214.111 145.063C214.111 135.335 219.551 128.423 227.295 128.423C233.951 128.423 238.175 132.647 238.943 141.735ZM219.103 136.103C218.783 136.999 218.463 138.151 218.207 139.367H234.143C233.119 132.583 230.111 129.959 226.335 129.959C223.199 129.959 220.255 132.391 219.103 136.103ZM240.078 117.159L249.422 113.511V154.663C249.422 158.503 250.574 159.527 254.734 159.527V160.551H240.142V159.527C244.494 159.527 245.454 158.119 245.454 154.855V154.663V122.215C245.454 118.311 244.942 117.671 242.83 117.671C241.998 117.671 241.422 117.799 240.334 118.183L240.078 117.159ZM280.963 141.735H260.163C259.971 142.887 259.907 143.783 259.907 144.423C259.907 151.655 264.835 157.607 270.723 157.607C275.715 157.607 278.787 154.535 280.387 148.903L281.411 149.095C279.939 156.071 276.675 161.063 269.315 161.063C261.507 161.063 256.131 154.471 256.131 145.063C256.131 135.335 261.571 128.423 269.315 128.423C275.971 128.423 280.195 132.647 280.963 141.735ZM261.123 136.103C260.803 136.999 260.483 138.151 260.227 139.367H276.163C275.139 132.583 272.131 129.959 268.355 129.959C265.219 129.959 262.275 132.391 261.123 136.103ZM281.65 117.159L290.994 113.511L291.058 135.527C294.194 131.111 297.522 128.487 302.066 128.487C308.85 128.487 314.034 134.631 314.034 142.695C314.034 152.871 306.994 161.127 298.29 161.127C294.962 161.127 292.082 160.103 287.09 157.607V122.215C287.09 118.375 286.578 117.671 284.402 117.671C283.634 117.671 283.058 117.799 282.034 118.183L281.65 117.159ZM291.058 138.727L290.994 155.815C293.362 158.567 295.922 159.783 298.674 159.783C305.01 159.783 309.49 153.127 309.49 143.975C309.49 136.295 305.906 131.431 300.082 131.431C295.922 131.431 291.058 135.335 291.058 138.727ZM315.357 160.551V159.527C319.709 159.527 320.861 158.503 320.925 154.663V136.935C320.925 133.095 320.349 132.455 318.237 132.455C317.405 132.455 316.893 132.519 315.805 132.967L315.549 131.879L324.829 128.231L324.701 135.591C327.453 130.535 330.077 128.679 332.83 128.679C334.813 128.679 336.157 129.831 336.157 131.367C336.157 132.711 335.005 133.863 333.469 133.863C331.869 133.863 331.038 132.071 329.693 132.071C326.813 132.071 324.893 136.743 324.893 139.751L324.829 154.663C324.829 158.183 325.597 159.463 330.845 159.591V160.551H315.357ZM353.532 141.735V136.359C353.532 132.839 352.7 129.767 347.26 129.767C343.804 129.767 340.86 131.687 340.86 133.927C340.86 134.247 340.924 134.567 340.988 134.951L341.372 135.975C341.436 136.167 341.436 136.423 341.436 136.615C341.436 138.087 340.348 139.239 338.876 139.239C337.404 139.239 336.316 138.087 336.316 136.487C336.316 132.135 341.756 128.423 348.092 128.423C354.556 128.423 357.82 130.919 357.756 135.975L357.628 154.599C357.628 157.607 358.14 158.503 359.868 158.503C360.892 158.503 361.468 158.055 362.492 156.647L363.132 157.351C361.084 160.167 359.548 161.191 357.436 161.191C354.94 161.191 353.724 159.463 353.724 155.175C349.564 159.591 346.428 161.319 342.524 161.319C337.98 161.319 334.46 158.183 334.46 154.087C334.46 147.431 340.092 145.127 353.532 141.735ZM353.532 153.703L353.596 142.951C342.204 146.023 338.812 148.007 338.812 152.615C338.812 155.751 341.82 158.567 345.276 158.567C348.028 158.567 349.884 157.671 353.532 153.703ZM362.565 130.599V129.575C368.261 126.759 369.221 125.671 370.757 119.591H371.781V128.871H379.205V130.599H371.781L371.845 153.575C371.845 156.583 372.421 158.695 375.109 158.695C377.157 158.695 378.309 157.671 379.653 154.535L380.613 154.663C378.885 158.695 377.093 161.063 373.189 161.063C369.477 161.063 367.813 158.823 367.813 153.831V130.599H362.565ZM404.7 141.735H383.9C383.708 142.887 383.644 143.783 383.644 144.423C383.644 151.655 388.572 157.607 394.46 157.607C399.452 157.607 402.524 154.535 404.124 148.903L405.148 149.095C403.676 156.071 400.412 161.063 393.052 161.063C385.244 161.063 379.868 154.471 379.868 145.063C379.868 135.335 385.308 128.423 393.052 128.423C399.708 128.423 403.932 132.647 404.7 141.735ZM384.86 136.103C384.54 136.999 384.22 138.151 383.964 139.367H399.9C398.876 132.583 395.868 129.959 392.092 129.959C388.956 129.959 386.012 132.391 384.86 136.103ZM10.065 186.599V185.575C15.761 182.759 16.721 181.671 18.257 175.591H19.281V184.871H26.705V186.599H19.281L19.345 209.575C19.345 212.583 19.921 214.695 22.609 214.695C24.657 214.695 25.809 213.671 27.153 210.535L28.113 210.663C26.385 214.695 24.593 217.063 20.689 217.063C16.977 217.063 15.313 214.823 15.313 209.831V186.599H10.065ZM25.5125 216.551V215.527C29.8645 215.527 31.0165 214.503 31.0805 210.663V192.935C31.0805 189.095 30.5045 188.455 28.3925 188.455C27.5605 188.455 27.0485 188.519 25.9605 188.967L25.7045 187.879L34.9845 184.231L34.8565 191.591C37.6085 186.535 40.2325 184.679 42.9845 184.679C44.9685 184.679 46.3125 185.831 46.3125 187.367C46.3125 188.711 45.1605 189.863 43.6245 189.863C42.0245 189.863 41.1925 188.071 39.8485 188.071C36.9685 188.071 35.0485 192.743 35.0485 195.751L34.9845 210.663C34.9845 214.183 35.7525 215.463 41.0005 215.591V216.551H25.5125ZM42.8975 187.879L52.2415 184.231V207.271C52.2415 212.135 54.8015 214.119 58.3855 214.119C61.2015 214.119 62.9935 213.415 68.2415 208.295L68.1775 192.935C68.1775 189.095 67.6655 188.455 65.5535 188.455C64.7215 188.455 64.1455 188.519 63.0575 188.967L62.8015 187.879L72.0815 184.231L72.2095 209.127C72.2095 212.007 73.2975 212.647 75.5375 212.647C75.9215 212.647 76.4335 212.647 77.3295 212.519L77.5215 213.415L68.1775 216.935V209.959C63.1855 215.463 60.5615 216.871 56.5935 216.871C52.1135 216.871 48.2735 214.759 48.2735 207.335V192.935C48.2735 189.031 47.6975 188.455 45.6495 188.455C44.8175 188.455 44.2415 188.519 43.1535 188.967L42.8975 187.879ZM96.7445 184.487H97.8965V194.663H96.8085C96.4245 187.687 94.1205 185.447 88.9365 185.447C84.9045 185.447 81.8325 187.687 81.8325 190.759C81.8325 193.831 84.9685 195.303 87.0165 196.583L89.4485 197.735C89.7685 197.863 90.6005 198.311 91.8805 198.887C97.3205 202.087 99.7525 203.303 99.7525 207.847C99.7525 213.351 95.1445 217.255 88.6805 217.255C86.5045 217.255 85.0325 216.935 82.7285 215.911C81.7045 215.463 81.3845 215.335 80.9365 215.335C80.3605 215.335 79.9765 215.847 79.9765 216.935H78.9525V205.543L80.1685 205.607C80.5525 213.415 82.9845 215.911 88.3605 215.911C92.7765 215.911 96.2965 213.031 96.2965 209.383C96.2965 207.015 95.5925 205.607 91.1125 203.111L89.0645 201.959L86.3765 200.679C81.3205 198.439 78.8885 196.007 78.8885 192.167C78.8885 187.559 82.9205 184.231 88.4885 184.231C90.6005 184.231 91.8805 184.615 94.0565 185.511L95.0165 185.895C95.2725 186.023 95.5285 186.087 95.7845 186.087C96.3605 186.087 96.7445 185.575 96.7445 184.487ZM100.293 186.599V185.575C105.989 182.759 106.949 181.671 108.485 175.591H109.509V184.871H116.933V186.599H109.509L109.573 209.575C109.573 212.583 110.149 214.695 112.837 214.695C114.885 214.695 116.037 213.671 117.381 210.535L118.341 210.663C116.613 214.695 114.821 217.063 110.917 217.063C107.205 217.063 105.541 214.823 105.541 209.831V186.599H100.293ZM147.347 190.375C145.299 186.023 144.659 183.975 144.659 180.391C144.659 174.055 148.499 169.703 154.195 169.703C159.123 169.703 162.515 173.031 162.515 177.767C162.515 183.079 160.147 184.999 151.763 189.863C156.051 197.927 157.331 199.847 163.155 207.015C166.227 202.279 168.787 196.199 168.787 192.167C168.787 189.159 168.467 188.135 163.731 188.007V186.983H178.003V188.071C174.099 188.455 172.755 188.519 171.091 192.935L168.467 199.847C167.443 202.535 166.739 204.007 164.243 207.911C168.787 212.455 170.387 213.927 173.139 213.927C175.699 213.927 177.299 212.775 178.771 209.831H179.667C178.003 214.311 176.083 216.935 171.411 216.935C167.955 216.935 166.355 216.039 161.427 211.175C157.523 215.079 153.747 217.191 147.987 217.191C139.923 217.191 134.419 212.455 134.419 205.671C134.419 199.847 136.979 196.519 147.347 190.375ZM160.275 210.215C153.875 202.727 152.531 200.615 148.051 191.847C141.075 195.495 138.451 198.759 138.451 204.263C138.451 210.343 143.123 214.631 149.779 214.631C154.067 214.631 157.011 213.095 160.275 210.215ZM148.307 178.791C148.307 181.671 149.011 183.911 151.059 188.327C157.843 184.743 159.187 181.991 159.187 177.511C159.187 173.543 157.267 171.175 154.067 171.175C150.611 171.175 148.307 174.183 148.307 178.791ZM216.122 197.735V192.359C216.122 188.839 215.29 185.767 209.85 185.767C206.394 185.767 203.45 187.687 203.45 189.927C203.45 190.247 203.514 190.567 203.578 190.951L203.962 191.975C204.026 192.167 204.026 192.423 204.026 192.615C204.026 194.087 202.938 195.239 201.466 195.239C199.994 195.239 198.906 194.087 198.906 192.487C198.906 188.135 204.346 184.423 210.682 184.423C217.146 184.423 220.41 186.919 220.346 191.975L220.218 210.599C220.218 213.607 220.73 214.503 222.458 214.503C223.482 214.503 224.058 214.055 225.082 212.647L225.722 213.351C223.674 216.167 222.138 217.191 220.026 217.191C217.53 217.191 216.314 215.463 216.314 211.175C212.154 215.591 209.018 217.319 205.114 217.319C200.57 217.319 197.05 214.183 197.05 210.087C197.05 203.431 202.682 201.127 216.122 197.735ZM216.122 209.703L216.186 198.951C204.794 202.023 201.402 204.007 201.402 208.615C201.402 211.751 204.41 214.567 207.866 214.567C210.618 214.567 212.474 213.671 216.122 209.703ZM225.155 187.879L234.499 184.231V207.271C234.499 212.135 237.059 214.119 240.643 214.119C243.459 214.119 245.251 213.415 250.499 208.295L250.435 192.935C250.435 189.095 249.923 188.455 247.811 188.455C246.979 188.455 246.403 188.519 245.315 188.967L245.059 187.879L254.339 184.231L254.467 209.127C254.467 212.007 255.555 212.647 257.795 212.647C258.179 212.647 258.691 212.647 259.587 212.519L259.779 213.415L250.435 216.935V209.959C245.443 215.463 242.819 216.871 238.851 216.871C234.371 216.871 230.531 214.759 230.531 207.335V192.935C230.531 189.031 229.955 188.455 227.907 188.455C227.075 188.455 226.499 188.519 225.411 188.967L225.155 187.879ZM259.29 186.599V185.575C264.986 182.759 265.946 181.671 267.482 175.591H268.506V184.871H275.93V186.599H268.506L268.57 209.575C268.57 212.583 269.146 214.695 271.834 214.695C273.882 214.695 275.034 213.671 276.378 210.535L277.338 210.663C275.61 214.695 273.818 217.063 269.914 217.063C266.202 217.063 264.538 214.823 264.538 209.831V186.599H259.29ZM276.156 200.487C276.156 190.887 282.3 184.231 291.196 184.231C300.028 184.231 305.98 190.823 305.98 200.679C305.98 210.535 299.964 217.255 291.068 217.255C282.428 217.255 276.156 210.215 276.156 200.487ZM280.636 199.335C280.636 208.679 285.82 215.783 292.092 215.783C297.788 215.783 301.436 210.727 301.436 202.855C301.436 192.935 296.764 185.639 290.492 185.639C284.604 185.639 280.636 191.079 280.636 199.335ZM307.31 216.551V215.527C311.534 215.527 312.686 214.503 312.686 210.663V192.935C312.686 189.031 312.11 188.455 310.062 188.455C309.23 188.455 308.654 188.519 307.566 188.967L307.31 187.879L316.654 184.231L316.526 191.463C321.646 186.023 324.142 184.487 328.238 184.487C330.798 184.487 333.038 185.447 334.574 187.175C336.174 188.967 336.494 190.183 336.494 194.343L336.43 210.663C336.43 214.503 337.518 215.527 341.806 215.527V216.551H327.15V215.527C331.374 215.463 332.462 214.503 332.462 210.599V192.039C332.27 189.351 329.902 187.367 326.51 187.367C323.118 187.367 321.262 188.775 316.59 192.999V210.663C316.59 214.503 317.614 215.527 321.966 215.527V216.551H307.31ZM342.738 200.487C342.738 190.887 348.882 184.231 357.778 184.231C366.61 184.231 372.562 190.823 372.562 200.679C372.562 210.535 366.546 217.255 357.65 217.255C349.01 217.255 342.738 210.215 342.738 200.487ZM347.218 199.335C347.218 208.679 352.402 215.783 358.674 215.783C364.37 215.783 368.018 210.727 368.018 202.855C368.018 192.935 363.346 185.639 357.074 185.639C351.186 185.639 347.218 191.079 347.218 199.335ZM373.893 216.551V215.527C378.181 215.527 379.205 214.503 379.269 210.663V192.935C379.269 189.031 378.693 188.455 376.645 188.455C375.813 188.455 375.237 188.519 374.213 188.967L373.893 187.879L383.237 184.231L383.301 191.463C388.549 185.831 390.853 184.423 394.757 184.423C398.917 184.423 401.797 186.151 402.885 191.271C408.133 185.895 410.245 184.487 414.469 184.487C419.269 184.487 422.661 186.919 422.597 193.703L422.533 210.663C422.533 214.375 423.685 215.527 427.973 215.527V216.551H413.317V215.527C417.477 215.527 418.565 214.375 418.629 210.663V195.111C418.629 188.455 416.645 187.303 412.869 187.303C409.221 187.303 406.533 189.287 402.949 192.999V210.663C402.949 214.119 403.845 215.527 408.197 215.527V216.551H393.605V215.527C397.893 215.527 398.981 214.055 398.981 210.663L399.045 194.535C399.045 189.543 397.189 187.367 393.093 187.367C389.893 187.367 387.909 188.263 383.237 193.255L383.301 210.663C383.301 214.375 384.453 215.527 388.741 215.527V216.551H373.893ZM424.082 185.831V184.871H436.434V185.831H434.962C433.49 185.831 432.914 186.343 432.914 187.495C432.978 188.135 433.106 189.159 433.554 190.311L441.49 211.367L449.746 190.311C450.194 189.159 450.578 188.135 450.514 187.495C450.514 186.343 449.81 185.831 448.466 185.831H446.994V184.871H457.106V185.831H456.146C453.074 185.831 452.754 187.495 451.73 190.311L440.658 218.023C437.65 225.575 434.642 228.327 429.65 228.327C427.154 228.327 425.298 227.047 425.298 225.319C425.298 223.975 426.45 222.887 427.986 222.887C429.522 222.887 431.25 225.127 432.914 225.127C435.218 225.127 436.818 223.143 439.378 216.679L429.266 190.311C427.986 186.983 427.026 185.831 425.106 185.831H424.082Z" fill="#6B6B6B"/>
<path d="M39.7902 6.81818V49H36.124V6.81818H39.7902ZM58.0173 49.6591C55.2848 49.6591 52.8682 48.9657 50.7673 47.5788C48.6802 46.192 47.0462 44.2765 45.8653 41.8324C44.6845 39.3745 44.094 36.5391 44.094 33.326C44.094 30.0855 44.6845 27.2363 45.8653 24.7784C47.0462 22.3068 48.6802 20.3845 50.7673 19.0114C52.8682 17.6245 55.2848 16.9311 58.0173 16.9311C60.7498 16.9311 63.1596 17.6245 65.2467 19.0114C67.3338 20.3982 68.9678 22.3205 70.1487 24.7784C71.3433 27.2363 71.9406 30.0855 71.9406 33.326C71.9406 36.5391 71.3502 39.3745 70.1693 41.8324C68.9884 44.2765 67.3476 46.192 65.2467 47.5788C63.1596 48.9657 60.7498 49.6591 58.0173 49.6591ZM58.0173 46.3018C60.2143 46.3018 62.0748 45.7114 63.599 44.5305C65.1231 43.3497 66.2766 41.7775 67.0592 39.8139C67.8556 37.8504 68.2538 35.6877 68.2538 33.326C68.2538 30.9643 67.8556 28.7947 67.0592 26.8175C66.2766 24.8402 65.1231 23.2543 63.599 22.0597C62.0748 20.8651 60.2143 20.2678 58.0173 20.2678C55.8341 20.2678 53.9735 20.8651 52.4356 22.0597C50.9115 23.2543 49.7512 24.8402 48.9548 26.8175C48.1721 28.7947 47.7808 30.9643 47.7808 33.326C47.7808 35.6877 48.1721 37.8504 48.9548 39.8139C49.7512 41.7775 50.9115 43.3497 52.4356 44.5305C53.9598 45.7114 55.8203 46.3018 58.0173 46.3018ZM88.5767 49.6591C85.7481 49.6591 83.2834 48.9519 81.1825 47.5376C79.0954 46.1233 77.4751 44.1873 76.3217 41.7294C75.1683 39.2715 74.5916 36.4704 74.5916 33.326C74.5916 30.1541 75.1752 27.3324 76.3423 24.8608C77.5232 22.3892 79.1572 20.4531 81.2443 19.0526C83.3314 17.6383 85.7549 16.9311 88.5149 16.9311C90.6295 16.9311 92.545 17.343 94.2613 18.1669C95.9777 18.977 97.392 20.1236 98.5042 21.6065C99.6302 23.0758 100.337 24.7921 100.626 26.7557H96.9183C96.5338 24.9706 95.607 23.4465 94.1378 22.1832C92.6823 20.9063 90.8286 20.2678 88.5767 20.2678C86.5582 20.2678 84.7732 20.817 83.2216 21.9155C81.67 23.0002 80.4548 24.5175 79.576 26.4673C78.7109 28.4034 78.2784 30.6484 78.2784 33.2024C78.2784 35.7701 78.704 38.0426 79.5554 40.0199C80.4067 41.9834 81.6013 43.5213 83.1392 44.6335C84.6908 45.7457 86.5033 46.3018 88.5767 46.3018C89.9772 46.3018 91.2542 46.041 92.4076 45.5192C93.5748 44.9837 94.5497 44.2285 95.3324 43.2536C96.1288 42.2786 96.6643 41.1184 96.9389 39.7727H100.646C100.372 41.6813 99.692 43.384 98.6072 44.8807C97.5362 46.3636 96.1425 47.5308 94.4261 48.3821C92.7235 49.2334 90.7736 49.6591 88.5767 49.6591ZM113.57 49.7209C111.661 49.7209 109.917 49.3501 108.338 48.6087C106.759 47.8535 105.503 46.7687 104.569 45.3544C103.635 43.9264 103.169 42.1963 103.169 40.1641C103.169 38.5987 103.464 37.2805 104.054 36.2095C104.645 35.1385 105.482 34.2597 106.567 33.5732C107.652 32.8866 108.936 32.3442 110.419 31.946C111.901 31.5478 113.535 31.2389 115.321 31.0192C117.092 30.7995 118.589 30.6072 119.811 30.4425C121.046 30.2777 121.987 30.0168 122.632 29.6598C123.278 29.3028 123.6 28.7261 123.6 27.9297V27.1882C123.6 25.0324 122.955 23.3366 121.664 22.1009C120.387 20.8513 118.547 20.2266 116.144 20.2266C113.865 20.2266 112.004 20.7277 110.563 21.7301C109.135 22.7325 108.132 23.9134 107.556 25.2727L104.075 24.0163C104.789 22.2862 105.777 20.9063 107.041 19.8764C108.304 18.8329 109.718 18.0845 111.284 17.6314C112.849 17.1645 114.435 16.9311 116.041 16.9311C117.25 16.9311 118.506 17.089 119.811 17.4048C121.129 17.7206 122.351 18.2699 123.477 19.0526C124.603 19.8215 125.516 20.8994 126.216 22.2862C126.916 23.6593 127.267 25.4032 127.267 27.5178V49H123.6V43.995H123.374C122.934 44.9287 122.282 45.835 121.417 46.7138C120.552 47.5926 119.467 48.3134 118.163 48.8764C116.858 49.4394 115.327 49.7209 113.57 49.7209ZM114.064 46.3636C116.014 46.3636 117.703 45.9311 119.131 45.0661C120.559 44.201 121.657 43.0545 122.426 41.6264C123.209 40.1847 123.6 38.5987 123.6 36.8686V32.2962C123.326 32.5571 122.866 32.7905 122.22 32.9964C121.589 33.2024 120.854 33.3878 120.017 33.5526C119.193 33.7036 118.369 33.834 117.545 33.9439C116.721 34.0537 115.98 34.1499 115.321 34.2322C113.535 34.4519 112.011 34.7952 110.748 35.2621C109.485 35.7289 108.517 36.3743 107.844 37.1982C107.171 38.0083 106.835 39.0518 106.835 40.3288C106.835 42.2512 107.521 43.741 108.894 44.7983C110.268 45.8419 111.991 46.3636 114.064 46.3636ZM136.915 6.81818V49H133.249V6.81818H136.915ZM168.406 17.3636V20.5561H152.855V17.3636H168.406ZM157.716 49V12.7294C157.716 11.0268 158.107 9.59186 158.89 8.42472C159.687 7.25758 160.723 6.37192 162 5.76776C163.277 5.16359 164.63 4.86151 166.058 4.86151C167.019 4.86151 167.815 4.94389 168.447 5.10867C169.092 5.25971 169.6 5.41075 169.971 5.56179L168.9 8.77486C168.625 8.69247 168.289 8.59636 167.891 8.48651C167.493 8.37666 166.991 8.32174 166.387 8.32174C164.794 8.32174 163.566 8.76799 162.701 9.66051C161.835 10.553 161.403 11.83 161.403 13.4915L161.382 49H157.716ZM171.994 49V17.3636H175.681V49H171.994ZM173.868 11.9261C173.113 11.9261 172.468 11.6721 171.932 11.1641C171.397 10.6423 171.129 10.0175 171.129 9.28977C171.129 8.56203 171.397 7.94413 171.932 7.43608C172.468 6.9143 173.113 6.65341 173.868 6.65341C174.623 6.65341 175.269 6.9143 175.804 7.43608C176.34 7.94413 176.608 8.56203 176.608 9.28977C176.608 10.0175 176.34 10.6423 175.804 11.1641C175.269 11.6721 174.623 11.9261 173.868 11.9261ZM181.607 49V17.3636H185.17V22.2244H185.437C186.069 20.6316 187.168 19.3478 188.733 18.3729C190.312 17.3842 192.097 16.8899 194.088 16.8899C194.39 16.8899 194.727 16.8968 195.097 16.9105C195.468 16.9242 195.777 16.938 196.024 16.9517V20.6797C195.859 20.6522 195.571 20.611 195.159 20.5561C194.747 20.5012 194.301 20.4737 193.82 20.4737C192.173 20.4737 190.703 20.8239 189.413 21.5241C188.136 22.2107 187.126 23.165 186.385 24.3871C185.643 25.6091 185.273 27.0028 185.273 28.5682V49H181.607ZM219.766 24.3047L216.409 25.2521C216.079 24.3047 215.612 23.4465 215.008 22.6776C214.404 21.9086 213.615 21.2976 212.64 20.8445C211.678 20.3913 210.484 20.1648 209.056 20.1648C206.914 20.1648 205.156 20.6728 203.783 21.6889C202.41 22.705 201.723 24.0163 201.723 25.6229C201.723 26.9822 202.19 28.0876 203.124 28.9389C204.071 29.7765 205.527 30.4425 207.49 30.9368L212.269 32.1108C214.919 32.7562 216.903 33.7791 218.221 35.1797C219.553 36.5803 220.219 38.3378 220.219 40.4524C220.219 42.2375 219.725 43.8234 218.736 45.2102C217.748 46.5971 216.368 47.6887 214.596 48.4851C212.839 49.2678 210.8 49.6591 208.479 49.6591C205.39 49.6591 202.842 48.9657 200.838 47.5788C198.833 46.1783 197.549 44.1598 196.986 41.5234L200.508 40.6584C200.961 42.5395 201.847 43.9607 203.165 44.9219C204.497 45.883 206.248 46.3636 208.417 46.3636C210.848 46.3636 212.791 45.8213 214.246 44.7365C215.702 43.638 216.429 42.2649 216.429 40.6172C216.429 39.3402 216.004 38.2692 215.152 37.4041C214.301 36.5253 213.01 35.88 211.28 35.468L206.11 34.2322C203.364 33.5732 201.332 32.5296 200.014 31.1016C198.696 29.6735 198.037 27.9022 198.037 25.7876C198.037 24.0438 198.51 22.5128 199.458 21.1946C200.405 19.8627 201.71 18.8191 203.371 18.0639C205.033 17.3087 206.927 16.9311 209.056 16.9311C211.953 16.9311 214.267 17.5902 215.997 18.9084C217.741 20.2128 218.997 22.0116 219.766 24.3047ZM236.938 17.3636V20.5561H221.84V17.3636H236.938ZM226.557 9.78409H230.244V40.7408C230.244 42.0589 230.47 43.0956 230.923 43.8509C231.377 44.5923 231.967 45.121 232.695 45.4368C233.422 45.7389 234.198 45.8899 235.022 45.8899C235.503 45.8899 235.915 45.8625 236.258 45.8075C236.601 45.7389 236.903 45.6702 237.164 45.6016L237.947 48.9176C237.59 49.0549 237.15 49.1785 236.629 49.2884C236.107 49.4119 235.462 49.4737 234.693 49.4737C233.347 49.4737 232.049 49.1785 230.8 48.5881C229.564 47.9976 228.548 47.1188 227.752 45.9517C226.955 44.7846 226.557 43.3359 226.557 41.6058V9.78409ZM254.077 49V17.3636H257.764V49H254.077ZM255.952 11.9261C255.197 11.9261 254.551 11.6721 254.016 11.1641C253.48 10.6423 253.212 10.0175 253.212 9.28977C253.212 8.56203 253.48 7.94413 254.016 7.43608C254.551 6.9143 255.197 6.65341 255.952 6.65341C256.707 6.65341 257.352 6.9143 257.888 7.43608C258.423 7.94413 258.691 8.56203 258.691 9.28977C258.691 10.0175 258.423 10.6423 257.888 11.1641C257.352 11.6721 256.707 11.9261 255.952 11.9261ZM267.356 29.2273V49H263.69V17.3636H267.253V22.3274H267.583C268.324 20.7072 269.478 19.4096 271.043 18.4347C272.622 17.446 274.572 16.9517 276.893 16.9517C279.021 16.9517 280.888 17.398 282.495 18.2905C284.115 19.1693 285.371 20.4669 286.264 22.1832C287.17 23.8996 287.623 26.0073 287.623 28.5064V49H283.957V28.733C283.957 26.1378 283.229 24.085 281.774 22.5746C280.332 21.0642 278.396 20.3089 275.966 20.3089C274.304 20.3089 272.828 20.666 271.537 21.38C270.247 22.094 269.224 23.1238 268.469 24.4695C267.727 25.8014 267.356 27.3873 267.356 29.2273ZM305.969 17.3636V20.5561H290.872V17.3636H305.969ZM295.588 9.78409H299.275V40.7408C299.275 42.0589 299.502 43.0956 299.955 43.8509C300.408 44.5923 300.998 45.121 301.726 45.4368C302.454 45.7389 303.23 45.8899 304.053 45.8899C304.534 45.8899 304.946 45.8625 305.289 45.8075C305.633 45.7389 305.935 45.6702 306.195 45.6016L306.978 48.9176C306.621 49.0549 306.182 49.1785 305.66 49.2884C305.138 49.4119 304.493 49.4737 303.724 49.4737C302.378 49.4737 301.081 49.1785 299.831 48.5881C298.595 47.9976 297.579 47.1188 296.783 45.9517C295.986 44.7846 295.588 43.3359 295.588 41.6058V9.78409ZM322.976 49.6591C320.024 49.6591 317.47 48.9725 315.314 47.5994C313.158 46.2126 311.49 44.2971 310.309 41.853C309.142 39.3951 308.558 36.5665 308.558 33.3672C308.558 30.1816 309.142 27.353 310.309 24.8814C311.49 22.3961 313.117 20.4531 315.19 19.0526C317.277 17.6383 319.687 16.9311 322.42 16.9311C324.136 16.9311 325.791 17.2469 327.383 17.8786C328.976 18.4964 330.404 19.4508 331.668 20.7415C332.945 22.0185 333.954 23.6319 334.695 25.5817C335.437 27.5178 335.807 29.8108 335.807 32.4609V34.2734H311.092V31.0398H332.059C332.059 29.0076 331.647 27.1813 330.823 25.5611C330.013 23.9271 328.88 22.6364 327.425 21.6889C325.983 20.7415 324.315 20.2678 322.42 20.2678C320.415 20.2678 318.65 20.8033 317.126 21.8743C315.602 22.9453 314.408 24.3596 313.543 26.1172C312.691 27.8748 312.259 29.7971 312.245 31.8842V33.8203C312.245 36.3331 312.677 38.5301 313.543 40.4112C314.421 42.2786 315.664 43.7273 317.271 44.7571C318.877 45.7869 320.779 46.3018 322.976 46.3018C324.472 46.3018 325.784 46.0684 326.91 45.6016C328.049 45.1347 329.004 44.5099 329.773 43.7273C330.555 42.9309 331.146 42.0589 331.544 41.1115L335.025 42.2443C334.544 43.5762 333.755 44.8052 332.656 45.9311C331.571 47.0571 330.212 47.9633 328.578 48.6499C326.958 49.3227 325.09 49.6591 322.976 49.6591ZM340.116 49V17.3636H343.68V22.2244H343.947C344.579 20.6316 345.678 19.3478 347.243 18.3729C348.822 17.3842 350.607 16.8899 352.598 16.8899C352.9 16.8899 353.236 16.8968 353.607 16.9105C353.978 16.9242 354.287 16.938 354.534 16.9517V20.6797C354.369 20.6522 354.081 20.611 353.669 20.5561C353.257 20.5012 352.811 20.4737 352.33 20.4737C350.682 20.4737 349.213 20.8239 347.923 21.5241C346.646 22.2107 345.636 23.165 344.895 24.3871C344.153 25.6091 343.783 27.0028 343.783 28.5682V49H340.116ZM360.686 29.2273V49H357.02V17.3636H360.583V22.3274H360.913C361.654 20.7072 362.808 19.4096 364.373 18.4347C365.952 17.446 367.902 16.9517 370.223 16.9517C372.351 16.9517 374.218 17.398 375.825 18.2905C377.445 19.1693 378.702 20.4669 379.594 22.1832C380.5 23.8996 380.953 26.0073 380.953 28.5064V49H377.287V28.733C377.287 26.1378 376.56 24.085 375.104 22.5746C373.662 21.0642 371.726 20.3089 369.296 20.3089C367.634 20.3089 366.158 20.666 364.868 21.38C363.577 22.094 362.554 23.1238 361.799 24.4695C361.057 25.8014 360.686 27.3873 360.686 29.2273ZM399.629 49.6591C396.676 49.6591 394.122 48.9725 391.967 47.5994C389.811 46.2126 388.143 44.2971 386.962 41.853C385.795 39.3951 385.211 36.5665 385.211 33.3672C385.211 30.1816 385.795 27.353 386.962 24.8814C388.143 22.3961 389.77 20.4531 391.843 19.0526C393.93 17.6383 396.34 16.9311 399.072 16.9311C400.789 16.9311 402.443 17.2469 404.036 17.8786C405.629 18.4964 407.057 19.4508 408.32 20.7415C409.597 22.0185 410.607 23.6319 411.348 25.5817C412.09 27.5178 412.46 29.8108 412.46 32.4609V34.2734H387.744V31.0398H408.712C408.712 29.0076 408.3 27.1813 407.476 25.5611C406.666 23.9271 405.533 22.6364 404.077 21.6889C402.636 20.7415 400.967 20.2678 399.072 20.2678C397.068 20.2678 395.303 20.8033 393.779 21.8743C392.255 22.9453 391.06 24.3596 390.195 26.1172C389.344 27.8748 388.912 29.7971 388.898 31.8842V33.8203C388.898 36.3331 389.33 38.5301 390.195 40.4112C391.074 42.2786 392.317 43.7273 393.923 44.7571C395.53 45.7869 397.432 46.3018 399.629 46.3018C401.125 46.3018 402.437 46.0684 403.563 45.6016C404.702 45.1347 405.657 44.5099 406.425 43.7273C407.208 42.9309 407.799 42.0589 408.197 41.1115L411.678 42.2443C411.197 43.5762 410.407 44.8052 409.309 45.9311C408.224 47.0571 406.865 47.9633 405.231 48.6499C403.611 49.3227 401.743 49.6591 399.629 49.6591ZM429.23 17.3636V20.5561H414.133V17.3636H429.23ZM418.85 9.78409H422.536V40.7408C422.536 42.0589 422.763 43.0956 423.216 43.8509C423.669 44.5923 424.26 45.121 424.987 45.4368C425.715 45.7389 426.491 45.8899 427.315 45.8899C427.795 45.8899 428.207 45.8625 428.551 45.8075C428.894 45.7389 429.196 45.6702 429.457 45.6016L430.24 48.9176C429.882 49.0549 429.443 49.1785 428.921 49.2884C428.4 49.4119 427.754 49.4737 426.985 49.4737C425.64 49.4737 424.342 49.1785 423.092 48.5881C421.857 47.9976 420.841 47.1188 420.044 45.9517C419.248 44.7846 418.85 43.3359 418.85 41.6058V9.78409Z" fill="#D4D4D4"/>
</svg>
