<svg width="721" height="184" viewBox="0 0 721 184" fill="none" xmlns="http://www.w3.org/2000/svg">
<path d="M38.7512 162.5V161.476C44.1272 161.092 45.5992 160.836 45.5992 156.548L45.7272 122.308C45.7272 117.316 42.3352 117.444 38.7512 117.444V116.356H74.7192L75.4872 126.98H74.3352C73.7592 123.012 72.9272 121.028 71.3272 119.94C69.9192 118.916 68.0632 118.66 62.5592 118.66H50.1432V137.604H62.6232C68.7032 137.604 69.5352 136.772 69.8552 130.756H70.9432V146.436L69.8552 146.5C69.2792 140.356 69.5992 139.524 62.5592 139.524H50.1432L50.0792 156.548C50.0792 160.004 50.6552 160.324 56.9912 160.324L67.0392 160.068C71.8392 159.94 74.9112 158.852 77.2792 151.172L78.4952 151.236L75.2952 162.5H38.7512ZM78.0632 162.5V161.476C82.2872 161.476 83.4392 160.452 83.4392 156.612V138.884C83.4392 134.98 82.8632 134.404 80.8152 134.404C79.9832 134.404 79.4072 134.468 78.3192 134.916L78.0632 133.828L87.4072 130.18L87.2792 137.412C92.3992 131.972 94.8952 130.436 98.9912 130.436C101.551 130.436 103.791 131.396 105.327 133.124C106.927 134.916 107.247 136.132 107.247 140.292L107.183 156.612C107.183 160.452 108.271 161.476 112.559 161.476V162.5H97.9032V161.476C102.127 161.412 103.215 160.452 103.215 156.548V137.988C103.023 135.3 100.655 133.316 97.2632 133.316C93.8712 133.316 92.0152 134.724 87.3432 138.948V156.612C87.3432 160.452 88.3672 161.476 92.7192 161.476V162.5H78.0632ZM139.284 150.724L140.18 150.916C137.684 159.94 133.204 162.884 127.444 162.884C119.444 162.884 113.492 156.228 113.492 147.14C113.492 137.86 120.148 130.436 128.404 130.436C133.844 130.436 138.772 134.084 138.772 137.924C138.772 139.396 137.62 140.484 136.084 140.484C134.548 140.484 133.332 139.396 133.332 137.86V137.732L133.396 136.004C133.524 133.508 131.156 131.716 128.084 131.716C122.068 131.716 117.908 137.412 117.908 145.54C117.908 153.732 122.388 159.812 128.66 159.812C132.884 159.812 136.596 157.316 139.284 150.724ZM139.521 162.5V161.476C143.873 161.476 145.025 160.452 145.089 156.612V138.884C145.089 135.044 144.513 134.404 142.401 134.404C141.569 134.404 141.057 134.468 139.969 134.916L139.713 133.828L148.993 130.18L148.865 137.54C151.617 132.484 154.241 130.628 156.993 130.628C158.977 130.628 160.321 131.78 160.321 133.316C160.321 134.66 159.169 135.812 157.633 135.812C156.033 135.812 155.201 134.02 153.857 134.02C150.977 134.02 149.057 138.692 149.057 141.7L148.993 156.612C148.993 160.132 149.761 161.412 155.009 161.54V162.5H139.521ZM156.21 131.78V130.82H168.562V131.78H167.09C165.618 131.78 165.042 132.292 165.042 133.444C165.106 134.084 165.234 135.108 165.682 136.26L173.618 157.316L181.874 136.26C182.322 135.108 182.706 134.084 182.642 133.444C182.642 132.292 181.938 131.78 180.594 131.78H179.122V130.82H189.234V131.78H188.274C185.202 131.78 184.882 133.444 183.858 136.26L172.786 163.972C169.778 171.524 166.77 174.276 161.778 174.276C159.282 174.276 157.426 172.996 157.426 171.268C157.426 169.924 158.578 168.836 160.114 168.836C161.65 168.836 163.378 171.076 165.042 171.076C167.346 171.076 168.946 169.092 171.506 162.628L161.394 136.26C160.114 132.932 159.154 131.78 157.234 131.78H156.21ZM185.603 173.956V172.932C189.891 172.868 191.043 171.844 191.043 168.004V138.884C191.043 135.044 190.467 134.404 188.419 134.404C187.587 134.404 186.947 134.468 185.923 134.916L185.667 133.828L195.011 130.18V136.388C198.531 132.548 201.283 130.372 205.443 130.372C212.483 130.372 217.539 136.964 217.539 146.18C217.539 155.78 211.523 163.012 203.587 163.012C200.323 163.012 197.955 161.924 195.075 159.108L195.011 168.004C195.011 171.908 196.163 172.868 200.835 172.932V173.956H185.603ZM196.995 135.94C196.355 136.58 195.715 137.22 195.011 138.052V154.564C195.011 157.828 198.915 161.54 203.203 161.54C209.027 161.54 213.315 155.524 213.315 147.204C213.315 139.14 209.091 133.38 203.139 133.38C200.835 133.38 198.723 134.276 196.995 135.94ZM218.926 132.548V131.524C224.622 128.708 225.582 127.62 227.118 121.54H228.142V130.82H235.566V132.548H228.142L228.206 155.524C228.206 158.532 228.782 160.644 231.47 160.644C233.518 160.644 234.67 159.62 236.014 156.484L236.974 156.612C235.246 160.644 233.454 163.012 229.55 163.012C225.838 163.012 224.174 160.772 224.174 155.78V132.548H218.926ZM261.061 143.684H240.261C240.069 144.836 240.005 145.732 240.005 146.372C240.005 153.604 244.933 159.556 250.821 159.556C255.813 159.556 258.885 156.484 260.485 150.852L261.509 151.044C260.037 158.02 256.773 163.012 249.413 163.012C241.605 163.012 236.229 156.42 236.229 147.012C236.229 137.284 241.669 130.372 249.413 130.372C256.069 130.372 260.293 134.596 261.061 143.684ZM241.221 138.052C240.901 138.948 240.581 140.1 240.325 141.316H256.261C255.237 134.532 252.229 131.908 248.453 131.908C245.317 131.908 242.373 134.34 241.221 138.052ZM286.58 134.404V124.164C286.58 120.196 286.132 119.62 283.956 119.62C283.124 119.62 282.612 119.748 281.524 120.132L281.204 119.108L290.548 115.46V154.948C290.548 158.148 291.252 159.172 293.364 159.172C293.94 159.172 294.644 158.98 295.732 158.596L295.86 159.62L286.516 163.204V156.868C283.06 160.9 280.116 163.076 276.34 163.076C269.428 163.076 264.052 156.164 264.052 147.332C264.052 137.668 270.004 130.436 278.068 130.436C281.396 130.436 283.7 131.524 286.58 134.404ZM285.108 156.996C285.556 156.484 286.068 155.908 286.58 155.204V138.948C286.516 135.236 282.676 131.78 278.516 131.78C272.564 131.78 268.276 137.732 268.276 146.052C268.276 154.052 272.564 159.94 278.516 159.94C280.948 159.94 283.252 158.852 285.108 156.996ZM294.822 171.652V170.692C297.894 168.836 300.198 166.724 300.198 163.524C300.198 162.756 299.942 162.5 299.174 162.244C297.318 161.604 296.614 160.772 296.614 159.364C296.614 157.764 297.894 156.548 299.558 156.548C301.862 156.548 303.142 158.404 303.142 161.476C303.142 165.636 300.582 168.836 294.822 171.652ZM322.707 146.436C322.707 136.836 328.851 130.18 337.747 130.18C346.579 130.18 352.531 136.772 352.531 146.628C352.531 156.484 346.515 163.204 337.619 163.204C328.979 163.204 322.707 156.164 322.707 146.436ZM327.187 145.284C327.187 154.628 332.371 161.732 338.643 161.732C344.339 161.732 347.987 156.676 347.987 148.804C347.987 138.884 343.315 131.588 337.043 131.588C331.155 131.588 327.187 137.028 327.187 145.284ZM353.871 132.548V130.82H359.439L359.503 126.916C359.631 120.068 363.471 115.716 369.935 115.716C374.415 115.716 379.087 118.404 379.087 121.156C379.087 122.308 378.127 123.268 376.847 123.268C373.391 123.268 374.863 116.996 369.487 116.996C365.455 116.996 363.407 120.068 363.343 125.892L363.279 130.82H370.511V132.548H363.343V156.612C363.343 160.452 364.495 161.476 368.783 161.476V162.5H353.999V161.476C358.223 161.476 359.439 160.324 359.439 156.612L359.503 132.548H353.871ZM369.694 132.548V130.82H375.262L375.326 126.916C375.454 120.068 379.294 115.716 385.758 115.716C390.238 115.716 394.91 118.404 394.91 121.156C394.91 122.308 393.95 123.268 392.67 123.268C389.214 123.268 390.686 116.996 385.31 116.996C381.278 116.996 379.23 120.068 379.166 125.892L379.102 130.82H386.334V132.548H379.166V156.612C379.166 160.452 380.318 161.476 384.606 161.476V162.5H369.822V161.476C374.046 161.476 375.262 160.324 375.262 156.612L375.326 132.548H369.694ZM385.068 119.108L394.412 115.46V156.612C394.412 160.452 395.564 161.476 399.724 161.476V162.5H385.132V161.476C389.484 161.476 390.444 160.068 390.444 156.804V156.612V124.164C390.444 120.26 389.932 119.62 387.82 119.62C386.988 119.62 386.412 119.748 385.324 120.132L385.068 119.108ZM399.266 133.828L408.482 130.18L408.61 156.612C408.61 160.324 409.762 161.476 413.986 161.476V162.5H399.266V161.476C402.402 161.476 404.258 160.708 404.45 158.596L404.642 156.612V138.692C404.642 135.108 404.066 134.404 402.018 134.404C401.186 134.404 400.61 134.468 399.522 134.916L399.266 133.828ZM402.914 118.916C402.914 117.252 404.322 115.908 405.986 115.908C407.65 115.908 408.994 117.252 408.994 118.852C408.994 120.452 407.65 121.668 405.986 121.668C404.322 121.668 402.914 120.452 402.914 118.916ZM413.526 162.5V161.476C417.75 161.476 418.902 160.452 418.902 156.612V138.884C418.902 134.98 418.326 134.404 416.278 134.404C415.446 134.404 414.87 134.468 413.782 134.916L413.526 133.828L422.87 130.18L422.742 137.412C427.862 131.972 430.358 130.436 434.454 130.436C437.014 130.436 439.254 131.396 440.79 133.124C442.39 134.916 442.71 136.132 442.71 140.292L442.646 156.612C442.646 160.452 443.734 161.476 448.022 161.476V162.5H433.366V161.476C437.59 161.412 438.678 160.452 438.678 156.548V137.988C438.486 135.3 436.118 133.316 432.726 133.316C429.334 133.316 427.478 134.724 422.806 138.948V156.612C422.806 160.452 423.83 161.476 428.182 161.476V162.5H413.526ZM473.786 143.684H452.986C452.794 144.836 452.73 145.732 452.73 146.372C452.73 153.604 457.658 159.556 463.546 159.556C468.538 159.556 471.61 156.484 473.21 150.852L474.234 151.044C472.762 158.02 469.498 163.012 462.138 163.012C454.33 163.012 448.954 156.42 448.954 147.012C448.954 137.284 454.394 130.372 462.138 130.372C468.794 130.372 473.018 134.596 473.786 143.684ZM453.946 138.052C453.626 138.948 453.306 140.1 453.05 141.316H468.986C467.962 134.532 464.954 131.908 461.178 131.908C458.042 131.908 455.098 134.34 453.946 138.052ZM506.527 136.324C504.479 131.972 503.839 129.924 503.839 126.34C503.839 120.004 507.679 115.652 513.375 115.652C518.303 115.652 521.695 118.98 521.695 123.716C521.695 129.028 519.327 130.948 510.943 135.812C515.231 143.876 516.511 145.796 522.335 152.964C525.407 148.228 527.967 142.148 527.967 138.116C527.967 135.108 527.647 134.084 522.911 133.956V132.932H537.183V134.02C533.279 134.404 531.935 134.468 530.271 138.884L527.647 145.796C526.623 148.484 525.919 149.956 523.423 153.86C527.967 158.404 529.567 159.876 532.319 159.876C534.879 159.876 536.479 158.724 537.951 155.78H538.847C537.183 160.26 535.263 162.884 530.591 162.884C527.135 162.884 525.535 161.988 520.607 157.124C516.703 161.028 512.927 163.14 507.167 163.14C499.103 163.14 493.599 158.404 493.599 151.62C493.599 145.796 496.159 142.468 506.527 136.324ZM519.455 156.164C513.055 148.676 511.711 146.564 507.231 137.796C500.255 141.444 497.631 144.708 497.631 150.212C497.631 156.292 502.303 160.58 508.959 160.58C513.247 160.58 516.191 159.044 519.455 156.164ZM507.487 124.74C507.487 127.62 508.191 129.86 510.239 134.276C517.023 130.692 518.367 127.94 518.367 123.46C518.367 119.492 516.447 117.124 513.247 117.124C509.791 117.124 507.487 120.132 507.487 124.74ZM556.807 146.436C556.807 136.836 562.951 130.18 571.847 130.18C580.679 130.18 586.631 136.772 586.631 146.628C586.631 156.484 580.615 163.204 571.719 163.204C563.079 163.204 556.807 156.164 556.807 146.436ZM561.287 145.284C561.287 154.628 566.471 161.732 572.743 161.732C578.439 161.732 582.087 156.676 582.087 148.804C582.087 138.884 577.415 131.588 571.143 131.588C565.255 131.588 561.287 137.028 561.287 145.284ZM587.961 173.956V172.932C592.249 172.868 593.401 171.844 593.401 168.004V138.884C593.401 135.044 592.825 134.404 590.777 134.404C589.945 134.404 589.305 134.468 588.281 134.916L588.025 133.828L597.369 130.18V136.388C600.889 132.548 603.641 130.372 607.801 130.372C614.841 130.372 619.897 136.964 619.897 146.18C619.897 155.78 613.881 163.012 605.945 163.012C602.681 163.012 600.313 161.924 597.433 159.108L597.369 168.004C597.369 171.908 598.521 172.868 603.193 172.932V173.956H587.961ZM599.353 135.94C598.713 136.58 598.073 137.22 597.369 138.052V154.564C597.369 157.828 601.273 161.54 605.561 161.54C611.385 161.54 615.673 155.524 615.673 147.204C615.673 139.14 611.449 133.38 605.497 133.38C603.193 133.38 601.081 134.276 599.353 135.94ZM647.971 143.684H627.171C626.979 144.836 626.915 145.732 626.915 146.372C626.915 153.604 631.843 159.556 637.731 159.556C642.723 159.556 645.795 156.484 647.395 150.852L648.419 151.044C646.947 158.02 643.683 163.012 636.323 163.012C628.515 163.012 623.139 156.42 623.139 147.012C623.139 137.284 628.579 130.372 636.323 130.372C642.979 130.372 647.203 134.596 647.971 143.684ZM628.131 138.052C627.811 138.948 627.491 140.1 627.235 141.316H643.171C642.147 134.532 639.139 131.908 635.363 131.908C632.227 131.908 629.283 134.34 628.131 138.052ZM649.106 162.5V161.476C653.33 161.476 654.482 160.452 654.482 156.612V138.884C654.482 134.98 653.906 134.404 651.858 134.404C651.026 134.404 650.45 134.468 649.362 134.916L649.106 133.828L658.45 130.18L658.322 137.412C663.442 131.972 665.938 130.436 670.034 130.436C672.594 130.436 674.834 131.396 676.37 133.124C677.97 134.916 678.29 136.132 678.29 140.292L678.226 156.612C678.226 160.452 679.314 161.476 683.602 161.476V162.5H668.946V161.476C673.17 161.412 674.258 160.452 674.258 156.548V137.988C674.066 135.3 671.698 133.316 668.306 133.316C664.914 133.316 663.058 134.724 658.386 138.948V156.612C658.386 160.452 659.41 161.476 663.762 161.476V162.5H649.106Z" fill="#6B6B6B"/>
<path d="M158.986 20.5H155.114C154.826 19.0582 154.304 17.7263 153.549 16.5043C152.807 15.2685 151.874 14.1906 150.748 13.2706C149.622 12.3506 148.345 11.6366 146.917 11.1286C145.489 10.6205 143.944 10.3665 142.283 10.3665C139.619 10.3665 137.188 11.0599 134.991 12.4467C132.808 13.8336 131.057 15.8726 129.739 18.5639C128.435 21.2415 127.783 24.5232 127.783 28.4091C127.783 32.3224 128.435 35.6179 129.739 38.2955C131.057 40.973 132.808 43.0052 134.991 44.392C137.188 45.7652 139.619 46.4517 142.283 46.4517C143.944 46.4517 145.489 46.1977 146.917 45.6896C148.345 45.1816 149.622 44.4744 150.748 43.5682C151.874 42.6482 152.807 41.5703 153.549 40.3345C154.304 39.0987 154.826 37.7599 155.114 36.3182H158.986C158.643 38.2543 157.998 40.0599 157.05 41.7351C156.117 43.3965 154.922 44.852 153.467 46.1016C152.025 47.3511 150.363 48.326 148.482 49.0263C146.601 49.7266 144.535 50.0767 142.283 50.0767C138.74 50.0767 135.596 49.1911 132.849 47.4197C130.103 45.6347 127.947 43.1219 126.382 39.8814C124.83 36.6409 124.055 32.8168 124.055 28.4091C124.055 24.0014 124.83 20.1773 126.382 16.9368C127.947 13.6963 130.103 11.1903 132.849 9.41903C135.596 7.634 138.74 6.74148 142.283 6.74148C144.535 6.74148 146.601 7.09162 148.482 7.79191C150.363 8.47846 152.025 9.45336 153.467 10.7166C154.922 11.9661 156.117 13.4216 157.05 15.0831C157.998 16.7446 158.643 18.5502 158.986 20.5ZM163.501 49.5V17.8636H167.065V22.7244H167.332C167.964 21.1316 169.063 19.8478 170.628 18.8729C172.207 17.8842 173.992 17.3899 175.983 17.3899C176.285 17.3899 176.621 17.3968 176.992 17.4105C177.363 17.4242 177.672 17.438 177.919 17.4517V21.1797C177.754 21.1522 177.466 21.111 177.054 21.0561C176.642 21.0012 176.196 20.9737 175.715 20.9737C174.067 20.9737 172.598 21.3239 171.308 22.0241C170.031 22.7107 169.021 23.665 168.28 24.8871C167.538 26.1091 167.168 27.5028 167.168 29.0682V49.5H163.501ZM192.233 50.1591C189.281 50.1591 186.727 49.4725 184.571 48.0994C182.415 46.7126 180.747 44.7971 179.566 42.353C178.399 39.8951 177.815 37.0665 177.815 33.8672C177.815 30.6816 178.399 27.853 179.566 25.3814C180.747 22.8961 182.374 20.9531 184.447 19.5526C186.534 18.1383 188.944 17.4311 191.677 17.4311C193.393 17.4311 195.048 17.7469 196.641 18.3786C198.233 18.9964 199.661 19.9508 200.925 21.2415C202.202 22.5185 203.211 24.1319 203.952 26.0817C204.694 28.0178 205.065 30.3108 205.065 32.9609V34.7734H180.349V31.5398H201.316C201.316 29.5076 200.904 27.6813 200.08 26.0611C199.27 24.4271 198.137 23.1364 196.682 22.1889C195.24 21.2415 193.572 20.7678 191.677 20.7678C189.672 20.7678 187.908 21.3033 186.383 22.3743C184.859 23.4453 183.665 24.8596 182.8 26.6172C181.948 28.3748 181.516 30.2971 181.502 32.3842V34.3203C181.502 36.8331 181.935 39.0301 182.8 40.9112C183.678 42.7786 184.921 44.2273 186.528 45.2571C188.134 46.2869 190.036 46.8018 192.233 46.8018C193.73 46.8018 195.041 46.5684 196.167 46.1016C197.306 45.6347 198.261 45.0099 199.03 44.2273C199.812 43.4309 200.403 42.5589 200.801 41.6115L204.282 42.7443C203.801 44.0762 203.012 45.3052 201.913 46.4311C200.828 47.5571 199.469 48.4633 197.835 49.1499C196.215 49.8227 194.347 50.1591 192.233 50.1591ZM218.209 50.2209C216.301 50.2209 214.557 49.8501 212.978 49.1087C211.399 48.3535 210.142 47.2687 209.209 45.8544C208.275 44.4264 207.808 42.6963 207.808 40.6641C207.808 39.0987 208.103 37.7805 208.694 36.7095C209.284 35.6385 210.122 34.7597 211.207 34.0732C212.291 33.3866 213.575 32.8442 215.058 32.446C216.541 32.0478 218.175 31.7389 219.96 31.5192C221.732 31.2995 223.228 31.1072 224.45 30.9425C225.686 30.7777 226.627 30.5168 227.272 30.1598C227.917 29.8028 228.24 29.2261 228.24 28.4297V27.6882C228.24 25.5324 227.595 23.8366 226.304 22.6009C225.027 21.3513 223.187 20.7266 220.784 20.7266C218.505 20.7266 216.644 21.2277 215.202 22.2301C213.774 23.2325 212.772 24.4134 212.195 25.7727L208.714 24.5163C209.428 22.7862 210.417 21.4063 211.68 20.3764C212.944 19.3329 214.358 18.5845 215.923 18.1314C217.489 17.6645 219.075 17.4311 220.681 17.4311C221.889 17.4311 223.146 17.589 224.45 17.9048C225.768 18.2206 226.991 18.7699 228.116 19.5526C229.242 20.3215 230.156 21.3994 230.856 22.7862C231.556 24.1593 231.906 25.9032 231.906 28.0178V49.5H228.24V44.495H228.013C227.574 45.4287 226.922 46.335 226.057 47.2138C225.192 48.0926 224.107 48.8134 222.803 49.3764C221.498 49.9394 219.967 50.2209 218.209 50.2209ZM218.704 46.8636C220.654 46.8636 222.343 46.4311 223.771 45.5661C225.199 44.701 226.297 43.5545 227.066 42.1264C227.849 40.6847 228.24 39.0987 228.24 37.3686V32.7962C227.965 33.0571 227.505 33.2905 226.86 33.4964C226.228 33.7024 225.494 33.8878 224.656 34.0526C223.832 34.2036 223.008 34.334 222.185 34.4439C221.361 34.5537 220.619 34.6499 219.96 34.7322C218.175 34.9519 216.651 35.2952 215.388 35.7621C214.125 36.2289 213.156 36.8743 212.484 37.6982C211.811 38.5083 211.474 39.5518 211.474 40.8288C211.474 42.7512 212.161 44.241 213.534 45.2983C214.907 46.3419 216.63 46.8636 218.704 46.8636ZM250.35 17.8636V21.0561H235.252V17.8636H250.35ZM239.969 10.2841H243.656V41.2408C243.656 42.5589 243.882 43.5956 244.335 44.3509C244.789 45.0923 245.379 45.621 246.107 45.9368C246.834 46.2389 247.61 46.3899 248.434 46.3899C248.915 46.3899 249.327 46.3625 249.67 46.3075C250.013 46.2389 250.315 46.1702 250.576 46.1016L251.359 49.4176C251.002 49.5549 250.562 49.6785 250.041 49.7884C249.519 49.9119 248.874 49.9737 248.105 49.9737C246.759 49.9737 245.461 49.6785 244.212 49.0881C242.976 48.4976 241.96 47.6188 241.164 46.4517C240.367 45.2846 239.969 43.8359 239.969 42.1058V10.2841ZM267.356 50.1591C264.404 50.1591 261.85 49.4725 259.695 48.0994C257.539 46.7126 255.87 44.7971 254.69 42.353C253.522 39.8951 252.939 37.0665 252.939 33.8672C252.939 30.6816 253.522 27.853 254.69 25.3814C255.87 22.8961 257.498 20.9531 259.571 19.5526C261.658 18.1383 264.068 17.4311 266.8 17.4311C268.517 17.4311 270.171 17.7469 271.764 18.3786C273.357 18.9964 274.785 19.9508 276.048 21.2415C277.325 22.5185 278.334 24.1319 279.076 26.0817C279.817 28.0178 280.188 30.3108 280.188 32.9609V34.7734H255.472V31.5398H276.44C276.44 29.5076 276.028 27.6813 275.204 26.0611C274.394 24.4271 273.261 23.1364 271.805 22.1889C270.364 21.2415 268.695 20.7678 266.8 20.7678C264.796 20.7678 263.031 21.3033 261.507 22.3743C259.983 23.4453 258.788 24.8596 257.923 26.6172C257.072 28.3748 256.639 30.2971 256.626 32.3842V34.3203C256.626 36.8331 257.058 39.0301 257.923 40.9112C258.802 42.7786 260.045 44.2273 261.651 45.2571C263.258 46.2869 265.159 46.8018 267.356 46.8018C268.853 46.8018 270.164 46.5684 271.29 46.1016C272.43 45.6347 273.384 45.0099 274.153 44.2273C274.936 43.4309 275.526 42.5589 275.925 41.6115L279.405 42.7443C278.925 44.0762 278.135 45.3052 277.037 46.4311C275.952 47.5571 274.593 48.4633 272.959 49.1499C271.338 49.8227 269.471 50.1591 267.356 50.1591ZM308.327 50.0767C305.731 50.0767 303.466 49.5755 301.53 48.5732C299.594 47.5571 298.09 46.1771 297.019 44.4332C295.948 42.6894 295.413 40.719 295.413 38.522C295.413 36.9292 295.735 35.4943 296.381 34.2173C297.04 32.9266 297.987 31.7045 299.223 30.5511C300.459 29.384 301.955 28.1757 303.713 26.9261L309.83 22.3743C311.286 21.3307 312.391 20.3078 313.146 19.3054C313.915 18.2893 314.3 17.0466 314.3 15.5774C314.3 14.1631 313.764 12.8999 312.693 11.7876C311.636 10.6617 310.263 10.0987 308.574 10.0987C307.393 10.0987 306.336 10.3939 305.402 10.9844C304.482 11.5748 303.747 12.3438 303.198 13.2912C302.662 14.2249 302.395 15.2067 302.395 16.2365C302.395 17.1977 302.642 18.1657 303.136 19.1406C303.631 20.1018 304.296 21.1179 305.134 22.1889C305.972 23.2462 306.905 24.4134 307.935 25.6903L327.214 49.5H322.765L305.958 28.8828C304.544 27.1527 303.287 25.608 302.189 24.2486C301.09 22.8755 300.225 21.5573 299.594 20.294C298.962 19.017 298.646 17.6508 298.646 16.1953C298.646 14.3965 299.065 12.7969 299.903 11.3963C300.74 9.98201 301.894 8.86979 303.363 8.05966C304.846 7.24953 306.542 6.84446 308.45 6.84446C310.4 6.84446 312.089 7.24266 313.517 8.03907C314.959 8.83547 316.071 9.89276 316.854 11.2109C317.65 12.5291 318.048 13.9846 318.048 15.5774C318.048 17.486 317.554 19.175 316.565 20.6442C315.59 22.1134 314.169 23.5552 312.302 24.9695L304.64 30.6953C302.539 32.2744 301.097 33.7367 300.314 35.0824C299.532 36.428 299.14 37.5746 299.14 38.522C299.14 40.005 299.525 41.3712 300.294 42.6207C301.063 43.8703 302.127 44.8726 303.486 45.6278C304.859 46.383 306.432 46.7675 308.203 46.7813C309.961 46.7675 311.615 46.4174 313.167 45.7308C314.718 45.0305 316.105 44.035 317.327 42.7443C318.563 41.4536 319.552 39.9089 320.293 38.1101C321.048 36.3113 321.488 34.3066 321.611 32.0959L325.175 32.1371C325.12 34.4027 324.811 36.325 324.248 37.9041C323.698 39.4695 323.067 40.7602 322.353 41.7763C321.639 42.7924 321.014 43.6094 320.479 44.2273C320.328 44.4332 320.176 44.6392 320.025 44.8452C319.874 45.0511 319.716 45.2571 319.552 45.4631C318.179 46.9735 316.469 48.12 314.423 48.9027C312.391 49.6854 310.359 50.0767 308.327 50.0767ZM354.194 50.1591C351.365 50.1591 348.9 49.4519 346.799 48.0376C344.712 46.6233 343.092 44.6873 341.939 42.2294C340.785 39.7715 340.208 36.9704 340.208 33.826C340.208 30.6541 340.792 27.8324 341.959 25.3608C343.14 22.8892 344.774 20.9531 346.861 19.5526C348.948 18.1383 351.372 17.4311 354.132 17.4311C356.246 17.4311 358.162 17.843 359.878 18.6669C361.595 19.477 363.009 20.6236 364.121 22.1065C365.247 23.5758 365.954 25.2921 366.243 27.2557H362.535C362.151 25.4706 361.224 23.9465 359.755 22.6832C358.299 21.4063 356.445 20.7678 354.194 20.7678C352.175 20.7678 350.39 21.317 348.838 22.4155C347.287 23.5002 346.072 25.0175 345.193 26.9673C344.328 28.9034 343.895 31.1484 343.895 33.7024C343.895 36.2701 344.321 38.5426 345.172 40.5199C346.024 42.4834 347.218 44.0213 348.756 45.1335C350.308 46.2457 352.12 46.8018 354.194 46.8018C355.594 46.8018 356.871 46.541 358.024 46.0192C359.192 45.4837 360.167 44.7285 360.949 43.7536C361.746 42.7786 362.281 41.6184 362.556 40.2727H366.263C365.988 42.1813 365.309 43.884 364.224 45.3807C363.153 46.8636 361.759 48.0308 360.043 48.8821C358.34 49.7334 356.39 50.1591 354.194 50.1591ZM382.647 50.1591C379.914 50.1591 377.498 49.4657 375.397 48.0788C373.31 46.692 371.676 44.7765 370.495 42.3324C369.314 39.8745 368.724 37.0391 368.724 33.826C368.724 30.5855 369.314 27.7363 370.495 25.2784C371.676 22.8068 373.31 20.8845 375.397 19.5114C377.498 18.1245 379.914 17.4311 382.647 17.4311C385.379 17.4311 387.789 18.1245 389.876 19.5114C391.963 20.8982 393.597 22.8205 394.778 25.2784C395.973 27.7363 396.57 30.5855 396.57 33.826C396.57 37.0391 395.98 39.8745 394.799 42.3324C393.618 44.7765 391.977 46.692 389.876 48.0788C387.789 49.4657 385.379 50.1591 382.647 50.1591ZM382.647 46.8018C384.844 46.8018 386.704 46.2114 388.229 45.0305C389.753 43.8497 390.906 42.2775 391.689 40.3139C392.485 38.3504 392.883 36.1877 392.883 33.826C392.883 31.4643 392.485 29.2947 391.689 27.3175C390.906 25.3402 389.753 23.7543 388.229 22.5597C386.704 21.3651 384.844 20.7678 382.647 20.7678C380.464 20.7678 378.603 21.3651 377.065 22.5597C375.541 23.7543 374.381 25.3402 373.584 27.3175C372.802 29.2947 372.41 31.4643 372.41 33.826C372.41 36.1877 372.802 38.3504 373.584 40.3139C374.381 42.2775 375.541 43.8497 377.065 45.0305C378.589 46.2114 380.45 46.8018 382.647 46.8018ZM404.514 7.31818V49.5H400.848V7.31818H404.514ZM414.112 7.31818V49.5H410.445V7.31818H414.112ZM428.879 50.2209C426.97 50.2209 425.226 49.8501 423.647 49.1087C422.068 48.3535 420.812 47.2687 419.878 45.8544C418.944 44.4264 418.477 42.6963 418.477 40.6641C418.477 39.0987 418.773 37.7805 419.363 36.7095C419.953 35.6385 420.791 34.7597 421.876 34.0732C422.961 33.3866 424.244 32.8442 425.727 32.446C427.21 32.0478 428.844 31.7389 430.629 31.5192C432.401 31.2995 433.897 31.1072 435.119 30.9425C436.355 30.7777 437.296 30.5168 437.941 30.1598C438.586 29.8028 438.909 29.2261 438.909 28.4297V27.6882C438.909 25.5324 438.264 23.8366 436.973 22.6009C435.696 21.3513 433.856 20.7266 431.453 20.7266C429.174 20.7266 427.313 21.2277 425.871 22.2301C424.443 23.2325 423.441 24.4134 422.864 25.7727L419.384 24.5163C420.098 22.7862 421.086 21.4063 422.349 20.3764C423.613 19.3329 425.027 18.5845 426.592 18.1314C428.158 17.6645 429.744 17.4311 431.35 17.4311C432.559 17.4311 433.815 17.589 435.119 17.9048C436.438 18.2206 437.66 18.7699 438.786 19.5526C439.911 20.3215 440.825 21.3994 441.525 22.7862C442.225 24.1593 442.575 25.9032 442.575 28.0178V49.5H438.909V44.495H438.683C438.243 45.4287 437.591 46.335 436.726 47.2138C435.861 48.0926 434.776 48.8134 433.472 49.3764C432.167 49.9394 430.636 50.2209 428.879 50.2209ZM429.373 46.8636C431.323 46.8636 433.012 46.4311 434.44 45.5661C435.868 44.701 436.966 43.5545 437.735 42.1264C438.518 40.6847 438.909 39.0987 438.909 37.3686V32.7962C438.635 33.0571 438.175 33.2905 437.529 33.4964C436.898 33.7024 436.163 33.8878 435.325 34.0526C434.501 34.2036 433.678 34.334 432.854 34.4439C432.03 34.5537 431.288 34.6499 430.629 34.7322C428.844 34.9519 427.32 35.2952 426.057 35.7621C424.794 36.2289 423.826 36.8743 423.153 37.6982C422.48 38.5083 422.144 39.5518 422.144 40.8288C422.144 42.7512 422.83 44.241 424.203 45.2983C425.576 46.3419 427.3 46.8636 429.373 46.8636ZM449.32 49.5V7.31818H453.007V23.8984H453.336C453.748 22.951 454.339 21.9761 455.108 20.9737C455.89 19.9714 456.913 19.1338 458.176 18.4609C459.453 17.7744 461.06 17.4311 462.996 17.4311C465.591 17.4311 467.871 18.1177 469.834 19.4908C471.798 20.8501 473.329 22.7588 474.427 25.2166C475.526 27.6607 476.075 30.5099 476.075 33.7642C476.075 37.0322 475.526 39.8951 474.427 42.353C473.342 44.8108 471.818 46.7263 469.855 48.0994C467.905 49.4725 465.639 50.1591 463.058 50.1591C461.135 50.1591 459.529 49.8158 458.238 49.1293C456.961 48.4427 455.931 47.5982 455.149 46.5959C454.366 45.5798 453.762 44.5911 453.336 43.63H452.883V49.5H449.32ZM452.945 33.7024C452.945 36.2564 453.322 38.522 454.078 40.4993C454.847 42.4628 455.945 44.0076 457.373 45.1335C458.815 46.2457 460.559 46.8018 462.605 46.8018C464.706 46.8018 466.484 46.2251 467.939 45.0717C469.395 43.9046 470.5 42.3324 471.255 40.3551C472.01 38.3778 472.388 36.1603 472.388 33.7024C472.388 31.272 472.01 29.0819 471.255 27.1321C470.514 25.1823 469.415 23.6375 467.96 22.4979C466.504 21.3445 464.719 20.7678 462.605 20.7678C460.545 20.7678 458.794 21.3239 457.353 22.4361C455.925 23.5346 454.833 25.0587 454.078 27.0085C453.322 28.9446 452.945 31.1759 452.945 33.7024ZM492.654 50.1591C489.922 50.1591 487.505 49.4657 485.404 48.0788C483.317 46.692 481.683 44.7765 480.502 42.3324C479.321 39.8745 478.731 37.0391 478.731 33.826C478.731 30.5855 479.321 27.7363 480.502 25.2784C481.683 22.8068 483.317 20.8845 485.404 19.5114C487.505 18.1245 489.922 17.4311 492.654 17.4311C495.387 17.4311 497.797 18.1245 499.884 19.5114C501.971 20.8982 503.605 22.8205 504.786 25.2784C505.98 27.7363 506.578 30.5855 506.578 33.826C506.578 37.0391 505.987 39.8745 504.806 42.3324C503.625 44.7765 501.985 46.692 499.884 48.0788C497.797 49.4657 495.387 50.1591 492.654 50.1591ZM492.654 46.8018C494.851 46.8018 496.712 46.2114 498.236 45.0305C499.76 43.8497 500.914 42.2775 501.696 40.3139C502.493 38.3504 502.891 36.1877 502.891 33.826C502.891 31.4643 502.493 29.2947 501.696 27.3175C500.914 25.3402 499.76 23.7543 498.236 22.5597C496.712 21.3651 494.851 20.7678 492.654 20.7678C490.471 20.7678 488.61 21.3651 487.073 22.5597C485.548 23.7543 484.388 25.3402 483.592 27.3175C482.809 29.2947 482.418 31.4643 482.418 33.826C482.418 36.1877 482.809 38.3504 483.592 40.3139C484.388 42.2775 485.548 43.8497 487.073 45.0305C488.597 46.2114 490.457 46.8018 492.654 46.8018ZM510.856 49.5V17.8636H514.419V22.7244H514.687C515.318 21.1316 516.417 19.8478 517.982 18.8729C519.561 17.8842 521.346 17.3899 523.337 17.3899C523.639 17.3899 523.976 17.3968 524.346 17.4105C524.717 17.4242 525.026 17.438 525.273 17.4517V21.1797C525.109 21.1522 524.82 21.111 524.408 21.0561C523.996 21.0012 523.55 20.9737 523.069 20.9737C521.422 20.9737 519.953 21.3239 518.662 22.0241C517.385 22.7107 516.376 23.665 515.634 24.8871C514.893 26.1091 514.522 27.5028 514.522 29.0682V49.5H510.856ZM536.595 50.2209C534.687 50.2209 532.943 49.8501 531.364 49.1087C529.785 48.3535 528.528 47.2687 527.595 45.8544C526.661 44.4264 526.194 42.6963 526.194 40.6641C526.194 39.0987 526.489 37.7805 527.08 36.7095C527.67 35.6385 528.508 34.7597 529.593 34.0732C530.677 33.3866 531.961 32.8442 533.444 32.446C534.927 32.0478 536.561 31.7389 538.346 31.5192C540.117 31.2995 541.614 31.1072 542.836 30.9425C544.072 30.7777 545.013 30.5168 545.658 30.1598C546.303 29.8028 546.626 29.2261 546.626 28.4297V27.6882C546.626 25.5324 545.981 23.8366 544.69 22.6009C543.413 21.3513 541.573 20.7266 539.17 20.7266C536.891 20.7266 535.03 21.2277 533.588 22.2301C532.16 23.2325 531.158 24.4134 530.581 25.7727L527.1 24.5163C527.814 22.7862 528.803 21.4063 530.066 20.3764C531.33 19.3329 532.744 18.5845 534.309 18.1314C535.875 17.6645 537.461 17.4311 539.067 17.4311C540.275 17.4311 541.532 17.589 542.836 17.9048C544.154 18.2206 545.376 18.7699 546.502 19.5526C547.628 20.3215 548.541 21.3994 549.242 22.7862C549.942 24.1593 550.292 25.9032 550.292 28.0178V49.5H546.626V44.495H546.399C545.96 45.4287 545.308 46.335 544.443 47.2138C543.578 48.0926 542.493 48.8134 541.188 49.3764C539.884 49.9394 538.353 50.2209 536.595 50.2209ZM537.09 46.8636C539.04 46.8636 540.728 46.4311 542.157 45.5661C543.585 44.701 544.683 43.5545 545.452 42.1264C546.235 40.6847 546.626 39.0987 546.626 37.3686V32.7962C546.351 33.0571 545.891 33.2905 545.246 33.4964C544.614 33.7024 543.88 33.8878 543.042 34.0526C542.218 34.2036 541.394 34.334 540.571 34.4439C539.747 34.5537 539.005 34.6499 538.346 34.7322C536.561 34.9519 535.037 35.2952 533.774 35.7621C532.51 36.2289 531.542 36.8743 530.87 37.6982C530.197 38.5083 529.86 39.5518 529.86 40.8288C529.86 42.7512 530.547 44.241 531.92 45.2983C533.293 46.3419 535.016 46.8636 537.09 46.8636ZM568.736 17.8636V21.0561H553.638V17.8636H568.736ZM558.355 10.2841H562.042V41.2408C562.042 42.5589 562.268 43.5956 562.721 44.3509C563.175 45.0923 563.765 45.621 564.493 45.9368C565.22 46.2389 565.996 46.3899 566.82 46.3899C567.301 46.3899 567.713 46.3625 568.056 46.3075C568.399 46.2389 568.701 46.1702 568.962 46.1016L569.745 49.4176C569.388 49.5549 568.948 49.6785 568.427 49.7884C567.905 49.9119 567.259 49.9737 566.491 49.9737C565.145 49.9737 563.847 49.6785 562.598 49.0881C561.362 48.4976 560.346 47.6188 559.55 46.4517C558.753 45.2846 558.355 43.8359 558.355 42.1058V10.2841ZM585.742 50.1591C582.79 50.1591 580.236 49.4725 578.081 48.0994C575.925 46.7126 574.256 44.7971 573.076 42.353C571.908 39.8951 571.325 37.0665 571.325 33.8672C571.325 30.6816 571.908 27.853 573.076 25.3814C574.256 22.8961 575.884 20.9531 577.957 19.5526C580.044 18.1383 582.454 17.4311 585.186 17.4311C586.903 17.4311 588.557 17.7469 590.15 18.3786C591.743 18.9964 593.171 19.9508 594.434 21.2415C595.711 22.5185 596.72 24.1319 597.462 26.0817C598.203 28.0178 598.574 30.3108 598.574 32.9609V34.7734H573.858V31.5398H594.826C594.826 29.5076 594.414 27.6813 593.59 26.0611C592.78 24.4271 591.647 23.1364 590.191 22.1889C588.75 21.2415 587.081 20.7678 585.186 20.7678C583.182 20.7678 581.417 21.3033 579.893 22.3743C578.369 23.4453 577.174 24.8596 576.309 26.6172C575.458 28.3748 575.025 30.2971 575.012 32.3842V34.3203C575.012 36.8331 575.444 39.0301 576.309 40.9112C577.188 42.7786 578.431 44.2273 580.037 45.2571C581.644 46.2869 583.545 46.8018 585.742 46.8018C587.239 46.8018 588.55 46.5684 589.676 46.1016C590.816 45.6347 591.77 45.0099 592.539 44.2273C593.322 43.4309 593.912 42.5589 594.311 41.6115L597.791 42.7443C597.311 44.0762 596.521 45.3052 595.423 46.4311C594.338 47.5571 592.979 48.4633 591.345 49.1499C589.724 49.8227 587.857 50.1591 585.742 50.1591ZM146.393 105.5V73.8636H150.08V105.5H146.393ZM148.267 68.4261C147.512 68.4261 146.867 68.1721 146.331 67.6641C145.796 67.1423 145.528 66.5175 145.528 65.7898C145.528 65.062 145.796 64.4441 146.331 63.9361C146.867 63.4143 147.512 63.1534 148.267 63.1534C149.022 63.1534 149.668 63.4143 150.203 63.9361C150.739 64.4441 151.007 65.062 151.007 65.7898C151.007 66.5175 150.739 67.1423 150.203 67.6641C149.668 68.1721 149.022 68.4261 148.267 68.4261ZM159.672 85.7273V105.5H156.006V73.8636H159.569V78.8274H159.898C160.64 77.2072 161.793 75.9096 163.359 74.9347C164.938 73.946 166.887 73.4517 169.208 73.4517C171.336 73.4517 173.204 73.898 174.81 74.7905C176.431 75.6693 177.687 76.9669 178.579 78.6832C179.486 80.3996 179.939 82.5073 179.939 85.0064V105.5H176.273V85.233C176.273 82.6378 175.545 80.585 174.089 79.0746C172.648 77.5642 170.712 76.8089 168.281 76.8089C166.62 76.8089 165.144 77.166 163.853 77.88C162.562 78.594 161.539 79.6238 160.784 80.9695C160.043 82.3014 159.672 83.8873 159.672 85.7273ZM219.622 80.8047L216.264 81.7521C215.935 80.8047 215.468 79.9465 214.864 79.1776C214.26 78.4086 213.47 77.7976 212.495 77.3445C211.534 76.8913 210.339 76.6648 208.911 76.6648C206.769 76.6648 205.012 77.1728 203.639 78.1889C202.266 79.205 201.579 80.5163 201.579 82.1229C201.579 83.4822 202.046 84.5876 202.98 85.4389C203.927 86.2765 205.383 86.9425 207.346 87.4368L212.125 88.6108C214.775 89.2562 216.759 90.2791 218.077 91.6797C219.409 93.0803 220.075 94.8378 220.075 96.9524C220.075 98.7375 219.58 100.323 218.592 101.71C217.603 103.097 216.223 104.189 214.452 104.985C212.694 105.768 210.655 106.159 208.335 106.159C205.245 106.159 202.698 105.466 200.693 104.079C198.689 102.678 197.405 100.66 196.842 98.0234L200.364 97.1584C200.817 99.0395 201.703 100.461 203.021 101.422C204.353 102.383 206.103 102.864 208.273 102.864C210.703 102.864 212.646 102.321 214.102 101.237C215.557 100.138 216.285 98.7649 216.285 97.1172C216.285 95.8402 215.859 94.7692 215.008 93.9041C214.157 93.0253 212.866 92.38 211.136 91.968L205.966 90.7322C203.22 90.0732 201.188 89.0296 199.87 87.6016C198.551 86.1735 197.892 84.4022 197.892 82.2876C197.892 80.5438 198.366 79.0128 199.313 77.6946C200.261 76.3627 201.565 75.3191 203.227 74.5639C204.888 73.8087 206.783 73.4311 208.911 73.4311C211.809 73.4311 214.122 74.0902 215.852 75.4084C217.596 76.7128 218.853 78.5116 219.622 80.8047ZM224.332 117.364V73.8636H227.896V79.8984H228.328C228.767 78.951 229.372 77.983 230.141 76.9943C230.91 75.992 231.926 75.1475 233.189 74.4609C234.466 73.7744 236.072 73.4311 238.008 73.4311C240.617 73.4311 242.897 74.1177 244.847 75.4908C246.81 76.8501 248.334 78.7588 249.419 81.2166C250.517 83.6607 251.067 86.5099 251.067 89.7642C251.067 93.0322 250.517 95.8951 249.419 98.353C248.334 100.811 246.81 102.726 244.847 104.099C242.897 105.473 240.631 106.159 238.05 106.159C236.141 106.159 234.541 105.816 233.251 105.129C231.974 104.443 230.937 103.598 230.141 102.596C229.358 101.58 228.754 100.591 228.328 99.63H227.999V117.364H224.332ZM227.957 89.7024C227.957 92.2564 228.335 94.522 229.09 96.4993C229.859 98.4628 230.958 100.008 232.386 101.134C233.827 102.246 235.571 102.802 237.617 102.802C239.718 102.802 241.489 102.225 242.931 101.072C244.387 99.9046 245.492 98.3324 246.247 96.3551C247.016 94.3778 247.401 92.1603 247.401 89.7024C247.401 87.272 247.023 85.0819 246.268 83.1321C245.526 81.1823 244.428 79.6375 242.972 78.4979C241.517 77.3445 239.732 76.7678 237.617 76.7678C235.557 76.7678 233.807 77.3239 232.365 78.4361C230.923 79.5346 229.825 81.0587 229.07 83.0085C228.328 84.9446 227.957 87.1759 227.957 89.7024ZM264.176 106.221C262.267 106.221 260.523 105.85 258.944 105.109C257.365 104.353 256.109 103.269 255.175 101.854C254.241 100.426 253.774 98.6963 253.774 96.6641C253.774 95.0987 254.07 93.7805 254.66 92.7095C255.25 91.6385 256.088 90.7597 257.173 90.0732C258.258 89.3866 259.541 88.8442 261.024 88.446C262.507 88.0478 264.141 87.7389 265.926 87.5192C267.698 87.2995 269.194 87.1072 270.416 86.9425C271.652 86.7777 272.593 86.5168 273.238 86.1598C273.883 85.8028 274.206 85.2261 274.206 84.4297V83.6882C274.206 81.5324 273.561 79.8366 272.27 78.6009C270.993 77.3513 269.153 76.7266 266.75 76.7266C264.471 76.7266 262.61 77.2277 261.168 78.2301C259.74 79.2325 258.738 80.4134 258.161 81.7727L254.681 80.5163C255.395 78.7862 256.383 77.4063 257.646 76.3764C258.91 75.3329 260.324 74.5845 261.889 74.1314C263.455 73.6645 265.041 73.4311 266.647 73.4311C267.856 73.4311 269.112 73.589 270.416 73.9048C271.735 74.2206 272.957 74.7699 274.083 75.5526C275.209 76.3215 276.122 77.3994 276.822 78.7862C277.522 80.1593 277.872 81.9032 277.872 84.0178V105.5H274.206V100.495H273.98C273.54 101.429 272.888 102.335 272.023 103.214C271.158 104.093 270.073 104.813 268.769 105.376C267.464 105.939 265.933 106.221 264.176 106.221ZM264.67 102.864C266.62 102.864 268.309 102.431 269.737 101.566C271.165 100.701 272.263 99.5545 273.032 98.1264C273.815 96.6847 274.206 95.0987 274.206 93.3686V88.7962C273.932 89.0571 273.472 89.2905 272.826 89.4964C272.195 89.7024 271.46 89.8878 270.622 90.0526C269.798 90.2036 268.975 90.334 268.151 90.4439C267.327 90.5537 266.585 90.6499 265.926 90.7322C264.141 90.9519 262.617 91.2952 261.354 91.7621C260.091 92.2289 259.123 92.8743 258.45 93.6982C257.777 94.5083 257.441 95.5518 257.441 96.8288C257.441 98.7512 258.127 100.241 259.5 101.298C260.873 102.342 262.597 102.864 264.67 102.864ZM296.213 106.159C293.384 106.159 290.919 105.452 288.819 104.038C286.731 102.623 285.111 100.687 283.958 98.2294C282.804 95.7715 282.228 92.9704 282.228 89.826C282.228 86.6541 282.811 83.8324 283.978 81.3608C285.159 78.8892 286.793 76.9531 288.88 75.5526C290.968 74.1383 293.391 73.4311 296.151 73.4311C298.266 73.4311 300.181 73.843 301.897 74.6669C303.614 75.477 305.028 76.6236 306.14 78.1065C307.266 79.5758 307.973 81.2921 308.262 83.2557H304.554C304.17 81.4706 303.243 79.9465 301.774 78.6832C300.318 77.4063 298.465 76.7678 296.213 76.7678C294.194 76.7678 292.409 77.317 290.858 78.4155C289.306 79.5002 288.091 81.0175 287.212 82.9673C286.347 84.9034 285.914 87.1484 285.914 89.7024C285.914 92.2701 286.34 94.5426 287.191 96.5199C288.043 98.4834 289.237 100.021 290.775 101.134C292.327 102.246 294.139 102.802 296.213 102.802C297.613 102.802 298.89 102.541 300.044 102.019C301.211 101.484 302.186 100.728 302.968 99.7536C303.765 98.7786 304.3 97.6184 304.575 96.2727H308.282C308.008 98.1813 307.328 99.884 306.243 101.381C305.172 102.864 303.779 104.031 302.062 104.882C300.36 105.733 298.41 106.159 296.213 106.159ZM325.16 106.159C322.208 106.159 319.654 105.473 317.499 104.099C315.343 102.713 313.674 100.797 312.494 98.353C311.326 95.8951 310.743 93.0665 310.743 89.8672C310.743 86.6816 311.326 83.853 312.494 81.3814C313.674 78.8961 315.302 76.9531 317.375 75.5526C319.462 74.1383 321.872 73.4311 324.604 73.4311C326.321 73.4311 327.975 73.7469 329.568 74.3786C331.161 74.9964 332.589 75.9508 333.852 77.2415C335.129 78.5185 336.138 80.1319 336.88 82.0817C337.621 84.0178 337.992 86.3108 337.992 88.9609V90.7734H313.276V87.5398H334.244C334.244 85.5076 333.832 83.6813 333.008 82.0611C332.198 80.4271 331.065 79.1364 329.609 78.1889C328.168 77.2415 326.499 76.7678 324.604 76.7678C322.6 76.7678 320.835 77.3033 319.311 78.3743C317.787 79.4453 316.592 80.8596 315.727 82.6172C314.876 84.3748 314.443 86.2971 314.43 88.3842V90.3203C314.43 92.8331 314.862 95.0301 315.727 96.9112C316.606 98.7786 317.849 100.227 319.455 101.257C321.062 102.287 322.963 102.802 325.16 102.802C326.657 102.802 327.968 102.568 329.094 102.102C330.234 101.635 331.188 101.01 331.957 100.227C332.74 99.4309 333.33 98.5589 333.729 97.6115L337.209 98.7443C336.729 100.076 335.939 101.305 334.841 102.431C333.756 103.557 332.397 104.463 330.763 105.15C329.142 105.823 327.275 106.159 325.16 106.159ZM363.557 80.8047L360.2 81.7521C359.87 80.8047 359.403 79.9465 358.799 79.1776C358.195 78.4086 357.405 77.7976 356.43 77.3445C355.469 76.8913 354.275 76.6648 352.847 76.6648C350.705 76.6648 348.947 77.1728 347.574 78.1889C346.201 79.205 345.514 80.5163 345.514 82.1229C345.514 83.4822 345.981 84.5876 346.915 85.4389C347.862 86.2765 349.318 86.9425 351.281 87.4368L356.06 88.6108C358.71 89.2562 360.694 90.2791 362.012 91.6797C363.344 93.0803 364.01 94.8378 364.01 96.9524C364.01 98.7375 363.516 100.323 362.527 101.71C361.538 103.097 360.158 104.189 358.387 104.985C356.629 105.768 354.59 106.159 352.27 106.159C349.18 106.159 346.633 105.466 344.629 104.079C342.624 102.678 341.34 100.66 340.777 98.0234L344.299 97.1584C344.752 99.0395 345.638 100.461 346.956 101.422C348.288 102.383 350.039 102.864 352.208 102.864C354.638 102.864 356.581 102.321 358.037 101.237C359.492 100.138 360.22 98.7649 360.22 97.1172C360.22 95.8402 359.795 94.7692 358.943 93.9041C358.092 93.0253 356.801 92.38 355.071 91.968L349.901 90.7322C347.155 90.0732 345.123 89.0296 343.805 87.6016C342.487 86.1735 341.827 84.4022 341.827 82.2876C341.827 80.5438 342.301 79.0128 343.249 77.6946C344.196 76.3627 345.5 75.3191 347.162 74.5639C348.823 73.8087 350.718 73.4311 352.847 73.4311C355.744 73.4311 358.058 74.0902 359.788 75.4084C361.531 76.7128 362.788 78.5116 363.557 80.8047ZM383.364 117.364C382.636 117.364 381.956 117.295 381.325 117.158C380.693 117.02 380.192 116.869 379.821 116.705L380.81 113.471C382.059 113.855 383.172 113.993 384.147 113.883C385.122 113.787 385.987 113.347 386.742 112.565C387.497 111.796 388.17 110.615 388.76 109.022L389.914 105.809L378.277 73.8636H382.252L391.644 100.66H391.932L401.324 73.8636H405.299L391.912 110.505C391.349 112.029 390.655 113.299 389.831 114.315C389.007 115.345 388.053 116.107 386.968 116.602C385.897 117.11 384.696 117.364 383.364 117.364ZM419.865 106.159C417.133 106.159 414.716 105.466 412.615 104.079C410.528 102.692 408.894 100.777 407.713 98.3324C406.533 95.8745 405.942 93.0391 405.942 89.826C405.942 86.5855 406.533 83.7363 407.713 81.2784C408.894 78.8068 410.528 76.8845 412.615 75.5114C414.716 74.1245 417.133 73.4311 419.865 73.4311C422.598 73.4311 425.008 74.1245 427.095 75.5114C429.182 76.8982 430.816 78.8205 431.997 81.2784C433.191 83.7363 433.789 86.5855 433.789 89.826C433.789 93.0391 433.198 95.8745 432.017 98.3324C430.837 100.777 429.196 102.692 427.095 104.079C425.008 105.466 422.598 106.159 419.865 106.159ZM419.865 102.802C422.062 102.802 423.923 102.211 425.447 101.031C426.971 99.8497 428.125 98.2775 428.907 96.3139C429.704 94.3504 430.102 92.1877 430.102 89.826C430.102 87.4643 429.704 85.2947 428.907 83.3175C428.125 81.3402 426.971 79.7543 425.447 78.5597C423.923 77.3651 422.062 76.7678 419.865 76.7678C417.682 76.7678 415.822 77.3651 414.284 78.5597C412.76 79.7543 411.599 81.3402 410.803 83.3175C410.02 85.2947 409.629 87.4643 409.629 89.826C409.629 92.1877 410.02 94.3504 410.803 96.3139C411.599 98.2775 412.76 99.8497 414.284 101.031C415.808 102.211 417.668 102.802 419.865 102.802ZM458.169 93.4098V73.8636H461.835V105.5H458.169V100.248H457.881C457.139 101.868 455.965 103.221 454.359 104.305C452.752 105.376 450.789 105.912 448.468 105.912C446.45 105.912 444.658 105.473 443.092 104.594C441.527 103.701 440.298 102.397 439.406 100.68C438.513 98.964 438.067 96.8563 438.067 94.3572V73.8636H441.733V94.1307C441.733 96.6023 442.461 98.5933 443.916 100.104C445.372 101.6 447.239 102.349 449.519 102.349C450.947 102.349 452.32 102.005 453.638 101.319C454.956 100.632 456.041 99.63 456.892 98.3118C457.743 96.9799 458.169 95.3459 458.169 93.4098ZM492.61 106.159C489.878 106.159 487.461 105.466 485.36 104.079C483.273 102.692 481.639 100.777 480.458 98.3324C479.277 95.8745 478.687 93.0391 478.687 89.826C478.687 86.5855 479.277 83.7363 480.458 81.2784C481.639 78.8068 483.273 76.8845 485.36 75.5114C487.461 74.1245 489.878 73.4311 492.61 73.4311C495.343 73.4311 497.752 74.1245 499.839 75.5114C501.927 76.8982 503.561 78.8205 504.741 81.2784C505.936 83.7363 506.533 86.5855 506.533 89.826C506.533 93.0391 505.943 95.8745 504.762 98.3324C503.581 100.777 501.94 102.692 499.839 104.079C497.752 105.466 495.343 106.159 492.61 106.159ZM492.61 102.802C494.807 102.802 496.668 102.211 498.192 101.031C499.716 99.8497 500.869 98.2775 501.652 96.3139C502.448 94.3504 502.847 92.1877 502.847 89.826C502.847 87.4643 502.448 85.2947 501.652 83.3175C500.869 81.3402 499.716 79.7543 498.192 78.5597C496.668 77.3651 494.807 76.7678 492.61 76.7678C490.427 76.7678 488.566 77.3651 487.028 78.5597C485.504 79.7543 484.344 81.3402 483.548 83.3175C482.765 85.2947 482.374 87.4643 482.374 89.826C482.374 92.1877 482.765 94.3504 483.548 96.3139C484.344 98.2775 485.504 99.8497 487.028 101.031C488.553 102.211 490.413 102.802 492.61 102.802ZM516.759 105.5L507.202 73.8636H511.074L518.571 99.9595H518.839L526.316 73.8636H530.208L537.623 99.8977H537.911L545.409 73.8636H549.281L539.724 105.5H535.934L528.437 79.5689H528.046L520.549 105.5H516.759ZM556.303 85.7273V105.5H552.637V73.8636H556.2V78.8274H556.53C557.271 77.2072 558.425 75.9096 559.99 74.9347C561.569 73.946 563.519 73.4517 565.84 73.4517C567.968 73.4517 569.835 73.898 571.442 74.7905C573.062 75.6693 574.319 76.9669 575.211 78.6832C576.117 80.3996 576.57 82.5073 576.57 85.0064V105.5H572.904V85.233C572.904 82.6378 572.176 80.585 570.721 79.0746C569.279 77.5642 567.343 76.8089 564.913 76.8089C563.251 76.8089 561.775 77.166 560.484 77.88C559.194 78.594 558.171 79.6238 557.416 80.9695C556.674 82.3014 556.303 83.8873 556.303 85.7273ZM585.38 105.809C584.57 105.809 583.869 105.521 583.279 104.944C582.702 104.353 582.414 103.653 582.414 102.843C582.414 102.019 582.702 101.319 583.279 100.742C583.869 100.165 584.57 99.8771 585.38 99.8771C586.204 99.8771 586.904 100.165 587.481 100.742C588.057 101.319 588.346 102.019 588.346 102.843C588.346 103.379 588.208 103.873 587.934 104.326C587.673 104.779 587.316 105.143 586.863 105.418C586.423 105.679 585.929 105.809 585.38 105.809Z" fill="#D4D4D4"/>
</svg>
