<svg width="721" height="184" viewBox="0 0 721 184" fill="none" xmlns="http://www.w3.org/2000/svg">
<path d="M38.7512 171.5V170.476C44.1272 170.092 45.5992 169.836 45.5992 165.548L45.7272 131.308C45.7272 126.316 42.3352 126.444 38.7512 126.444V125.356H74.7192L75.4872 135.98H74.3352C73.7592 132.012 72.9272 130.028 71.3272 128.94C69.9192 127.916 68.0632 127.66 62.5592 127.66H50.1432V146.604H62.6232C68.7032 146.604 69.5352 145.772 69.8552 139.756H70.9432V155.436L69.8552 155.5C69.2792 149.356 69.5992 148.524 62.5592 148.524H50.1432L50.0792 165.548C50.0792 169.004 50.6552 169.324 56.9912 169.324L67.0392 169.068C71.8392 168.94 74.9112 167.852 77.2792 160.172L78.4952 160.236L75.2952 171.5H38.7512ZM78.0632 171.5V170.476C82.2872 170.476 83.4392 169.452 83.4392 165.612V147.884C83.4392 143.98 82.8632 143.404 80.8152 143.404C79.9832 143.404 79.4072 143.468 78.3192 143.916L78.0632 142.828L87.4072 139.18L87.2792 146.412C92.3992 140.972 94.8952 139.436 98.9912 139.436C101.551 139.436 103.791 140.396 105.327 142.124C106.927 143.916 107.247 145.132 107.247 149.292L107.183 165.612C107.183 169.452 108.271 170.476 112.559 170.476V171.5H97.9032V170.476C102.127 170.412 103.215 169.452 103.215 165.548V146.988C103.023 144.3 100.655 142.316 97.2632 142.316C93.8712 142.316 92.0152 143.724 87.3432 147.948V165.612C87.3432 169.452 88.3672 170.476 92.7192 170.476V171.5H78.0632ZM139.284 159.724L140.18 159.916C137.684 168.94 133.204 171.884 127.444 171.884C119.444 171.884 113.492 165.228 113.492 156.14C113.492 146.86 120.148 139.436 128.404 139.436C133.844 139.436 138.772 143.084 138.772 146.924C138.772 148.396 137.62 149.484 136.084 149.484C134.548 149.484 133.332 148.396 133.332 146.86V146.732L133.396 145.004C133.524 142.508 131.156 140.716 128.084 140.716C122.068 140.716 117.908 146.412 117.908 154.54C117.908 162.732 122.388 168.812 128.66 168.812C132.884 168.812 136.596 166.316 139.284 159.724ZM139.521 171.5V170.476C143.873 170.476 145.025 169.452 145.089 165.612V147.884C145.089 144.044 144.513 143.404 142.401 143.404C141.569 143.404 141.057 143.468 139.969 143.916L139.713 142.828L148.993 139.18L148.865 146.54C151.617 141.484 154.241 139.628 156.993 139.628C158.977 139.628 160.321 140.78 160.321 142.316C160.321 143.66 159.169 144.812 157.633 144.812C156.033 144.812 155.201 143.02 153.857 143.02C150.977 143.02 149.057 147.692 149.057 150.7L148.993 165.612C148.993 169.132 149.761 170.412 155.009 170.54V171.5H139.521ZM156.21 140.78V139.82H168.562V140.78H167.09C165.618 140.78 165.042 141.292 165.042 142.444C165.106 143.084 165.234 144.108 165.682 145.26L173.618 166.316L181.874 145.26C182.322 144.108 182.706 143.084 182.642 142.444C182.642 141.292 181.938 140.78 180.594 140.78H179.122V139.82H189.234V140.78H188.274C185.202 140.78 184.882 142.444 183.858 145.26L172.786 172.972C169.778 180.524 166.77 183.276 161.778 183.276C159.282 183.276 157.426 181.996 157.426 180.268C157.426 178.924 158.578 177.836 160.114 177.836C161.65 177.836 163.378 180.076 165.042 180.076C167.346 180.076 168.946 178.092 171.506 171.628L161.394 145.26C160.114 141.932 159.154 140.78 157.234 140.78H156.21ZM185.603 182.956V181.932C189.891 181.868 191.043 180.844 191.043 177.004V147.884C191.043 144.044 190.467 143.404 188.419 143.404C187.587 143.404 186.947 143.468 185.923 143.916L185.667 142.828L195.011 139.18V145.388C198.531 141.548 201.283 139.372 205.443 139.372C212.483 139.372 217.539 145.964 217.539 155.18C217.539 164.78 211.523 172.012 203.587 172.012C200.323 172.012 197.955 170.924 195.075 168.108L195.011 177.004C195.011 180.908 196.163 181.868 200.835 181.932V182.956H185.603ZM196.995 144.94C196.355 145.58 195.715 146.22 195.011 147.052V163.564C195.011 166.828 198.915 170.54 203.203 170.54C209.027 170.54 213.315 164.524 213.315 156.204C213.315 148.14 209.091 142.38 203.139 142.38C200.835 142.38 198.723 143.276 196.995 144.94ZM218.926 141.548V140.524C224.622 137.708 225.582 136.62 227.118 130.54H228.142V139.82H235.566V141.548H228.142L228.206 164.524C228.206 167.532 228.782 169.644 231.47 169.644C233.518 169.644 234.67 168.62 236.014 165.484L236.974 165.612C235.246 169.644 233.454 172.012 229.55 172.012C225.838 172.012 224.174 169.772 224.174 164.78V141.548H218.926ZM261.061 152.684H240.261C240.069 153.836 240.005 154.732 240.005 155.372C240.005 162.604 244.933 168.556 250.821 168.556C255.813 168.556 258.885 165.484 260.485 159.852L261.509 160.044C260.037 167.02 256.773 172.012 249.413 172.012C241.605 172.012 236.229 165.42 236.229 156.012C236.229 146.284 241.669 139.372 249.413 139.372C256.069 139.372 260.293 143.596 261.061 152.684ZM241.221 147.052C240.901 147.948 240.581 149.1 240.325 150.316H256.261C255.237 143.532 252.229 140.908 248.453 140.908C245.317 140.908 242.373 143.34 241.221 147.052ZM286.58 143.404V133.164C286.58 129.196 286.132 128.62 283.956 128.62C283.124 128.62 282.612 128.748 281.524 129.132L281.204 128.108L290.548 124.46V163.948C290.548 167.148 291.252 168.172 293.364 168.172C293.94 168.172 294.644 167.98 295.732 167.596L295.86 168.62L286.516 172.204V165.868C283.06 169.9 280.116 172.076 276.34 172.076C269.428 172.076 264.052 165.164 264.052 156.332C264.052 146.668 270.004 139.436 278.068 139.436C281.396 139.436 283.7 140.524 286.58 143.404ZM285.108 165.996C285.556 165.484 286.068 164.908 286.58 164.204V147.948C286.516 144.236 282.676 140.78 278.516 140.78C272.564 140.78 268.276 146.732 268.276 155.052C268.276 163.052 272.564 168.94 278.516 168.94C280.948 168.94 283.252 167.852 285.108 165.996ZM294.822 180.652V179.692C297.894 177.836 300.198 175.724 300.198 172.524C300.198 171.756 299.942 171.5 299.174 171.244C297.318 170.604 296.614 169.772 296.614 168.364C296.614 166.764 297.894 165.548 299.558 165.548C301.862 165.548 303.142 167.404 303.142 170.476C303.142 174.636 300.582 177.836 294.822 180.652ZM322.707 155.436C322.707 145.836 328.851 139.18 337.747 139.18C346.579 139.18 352.531 145.772 352.531 155.628C352.531 165.484 346.515 172.204 337.619 172.204C328.979 172.204 322.707 165.164 322.707 155.436ZM327.187 154.284C327.187 163.628 332.371 170.732 338.643 170.732C344.339 170.732 347.987 165.676 347.987 157.804C347.987 147.884 343.315 140.588 337.043 140.588C331.155 140.588 327.187 146.028 327.187 154.284ZM353.871 141.548V139.82H359.439L359.503 135.916C359.631 129.068 363.471 124.716 369.935 124.716C374.415 124.716 379.087 127.404 379.087 130.156C379.087 131.308 378.127 132.268 376.847 132.268C373.391 132.268 374.863 125.996 369.487 125.996C365.455 125.996 363.407 129.068 363.343 134.892L363.279 139.82H370.511V141.548H363.343V165.612C363.343 169.452 364.495 170.476 368.783 170.476V171.5H353.999V170.476C358.223 170.476 359.439 169.324 359.439 165.612L359.503 141.548H353.871ZM369.694 141.548V139.82H375.262L375.326 135.916C375.454 129.068 379.294 124.716 385.758 124.716C390.238 124.716 394.91 127.404 394.91 130.156C394.91 131.308 393.95 132.268 392.67 132.268C389.214 132.268 390.686 125.996 385.31 125.996C381.278 125.996 379.23 129.068 379.166 134.892L379.102 139.82H386.334V141.548H379.166V165.612C379.166 169.452 380.318 170.476 384.606 170.476V171.5H369.822V170.476C374.046 170.476 375.262 169.324 375.262 165.612L375.326 141.548H369.694ZM385.068 128.108L394.412 124.46V165.612C394.412 169.452 395.564 170.476 399.724 170.476V171.5H385.132V170.476C389.484 170.476 390.444 169.068 390.444 165.804V165.612V133.164C390.444 129.26 389.932 128.62 387.82 128.62C386.988 128.62 386.412 128.748 385.324 129.132L385.068 128.108ZM399.266 142.828L408.482 139.18L408.61 165.612C408.61 169.324 409.762 170.476 413.986 170.476V171.5H399.266V170.476C402.402 170.476 404.258 169.708 404.45 167.596L404.642 165.612V147.692C404.642 144.108 404.066 143.404 402.018 143.404C401.186 143.404 400.61 143.468 399.522 143.916L399.266 142.828ZM402.914 127.916C402.914 126.252 404.322 124.908 405.986 124.908C407.65 124.908 408.994 126.252 408.994 127.852C408.994 129.452 407.65 130.668 405.986 130.668C404.322 130.668 402.914 129.452 402.914 127.916ZM413.526 171.5V170.476C417.75 170.476 418.902 169.452 418.902 165.612V147.884C418.902 143.98 418.326 143.404 416.278 143.404C415.446 143.404 414.87 143.468 413.782 143.916L413.526 142.828L422.87 139.18L422.742 146.412C427.862 140.972 430.358 139.436 434.454 139.436C437.014 139.436 439.254 140.396 440.79 142.124C442.39 143.916 442.71 145.132 442.71 149.292L442.646 165.612C442.646 169.452 443.734 170.476 448.022 170.476V171.5H433.366V170.476C437.59 170.412 438.678 169.452 438.678 165.548V146.988C438.486 144.3 436.118 142.316 432.726 142.316C429.334 142.316 427.478 143.724 422.806 147.948V165.612C422.806 169.452 423.83 170.476 428.182 170.476V171.5H413.526ZM473.786 152.684H452.986C452.794 153.836 452.73 154.732 452.73 155.372C452.73 162.604 457.658 168.556 463.546 168.556C468.538 168.556 471.61 165.484 473.21 159.852L474.234 160.044C472.762 167.02 469.498 172.012 462.138 172.012C454.33 172.012 448.954 165.42 448.954 156.012C448.954 146.284 454.394 139.372 462.138 139.372C468.794 139.372 473.018 143.596 473.786 152.684ZM453.946 147.052C453.626 147.948 453.306 149.1 453.05 150.316H468.986C467.962 143.532 464.954 140.908 461.178 140.908C458.042 140.908 455.098 143.34 453.946 147.052ZM506.527 145.324C504.479 140.972 503.839 138.924 503.839 135.34C503.839 129.004 507.679 124.652 513.375 124.652C518.303 124.652 521.695 127.98 521.695 132.716C521.695 138.028 519.327 139.948 510.943 144.812C515.231 152.876 516.511 154.796 522.335 161.964C525.407 157.228 527.967 151.148 527.967 147.116C527.967 144.108 527.647 143.084 522.911 142.956V141.932H537.183V143.02C533.279 143.404 531.935 143.468 530.271 147.884L527.647 154.796C526.623 157.484 525.919 158.956 523.423 162.86C527.967 167.404 529.567 168.876 532.319 168.876C534.879 168.876 536.479 167.724 537.951 164.78H538.847C537.183 169.26 535.263 171.884 530.591 171.884C527.135 171.884 525.535 170.988 520.607 166.124C516.703 170.028 512.927 172.14 507.167 172.14C499.103 172.14 493.599 167.404 493.599 160.62C493.599 154.796 496.159 151.468 506.527 145.324ZM519.455 165.164C513.055 157.676 511.711 155.564 507.231 146.796C500.255 150.444 497.631 153.708 497.631 159.212C497.631 165.292 502.303 169.58 508.959 169.58C513.247 169.58 516.191 168.044 519.455 165.164ZM507.487 133.74C507.487 136.62 508.191 138.86 510.239 143.276C517.023 139.692 518.367 136.94 518.367 132.46C518.367 128.492 516.447 126.124 513.247 126.124C509.791 126.124 507.487 129.132 507.487 133.74ZM556.807 155.436C556.807 145.836 562.951 139.18 571.847 139.18C580.679 139.18 586.631 145.772 586.631 155.628C586.631 165.484 580.615 172.204 571.719 172.204C563.079 172.204 556.807 165.164 556.807 155.436ZM561.287 154.284C561.287 163.628 566.471 170.732 572.743 170.732C578.439 170.732 582.087 165.676 582.087 157.804C582.087 147.884 577.415 140.588 571.143 140.588C565.255 140.588 561.287 146.028 561.287 154.284ZM587.961 182.956V181.932C592.249 181.868 593.401 180.844 593.401 177.004V147.884C593.401 144.044 592.825 143.404 590.777 143.404C589.945 143.404 589.305 143.468 588.281 143.916L588.025 142.828L597.369 139.18V145.388C600.889 141.548 603.641 139.372 607.801 139.372C614.841 139.372 619.897 145.964 619.897 155.18C619.897 164.78 613.881 172.012 605.945 172.012C602.681 172.012 600.313 170.924 597.433 168.108L597.369 177.004C597.369 180.908 598.521 181.868 603.193 181.932V182.956H587.961ZM599.353 144.94C598.713 145.58 598.073 146.22 597.369 147.052V163.564C597.369 166.828 601.273 170.54 605.561 170.54C611.385 170.54 615.673 164.524 615.673 156.204C615.673 148.14 611.449 142.38 605.497 142.38C603.193 142.38 601.081 143.276 599.353 144.94ZM647.971 152.684H627.171C626.979 153.836 626.915 154.732 626.915 155.372C626.915 162.604 631.843 168.556 637.731 168.556C642.723 168.556 645.795 165.484 647.395 159.852L648.419 160.044C646.947 167.02 643.683 172.012 636.323 172.012C628.515 172.012 623.139 165.42 623.139 156.012C623.139 146.284 628.579 139.372 636.323 139.372C642.979 139.372 647.203 143.596 647.971 152.684ZM628.131 147.052C627.811 147.948 627.491 149.1 627.235 150.316H643.171C642.147 143.532 639.139 140.908 635.363 140.908C632.227 140.908 629.283 143.34 628.131 147.052ZM649.106 171.5V170.476C653.33 170.476 654.482 169.452 654.482 165.612V147.884C654.482 143.98 653.906 143.404 651.858 143.404C651.026 143.404 650.45 143.468 649.362 143.916L649.106 142.828L658.45 139.18L658.322 146.412C663.442 140.972 665.938 139.436 670.034 139.436C672.594 139.436 674.834 140.396 676.37 142.124C677.97 143.916 678.29 145.132 678.29 149.292L678.226 165.612C678.226 169.452 679.314 170.476 683.602 170.476V171.5H668.946V170.476C673.17 170.412 674.258 169.452 674.258 165.548V146.988C674.066 144.3 671.698 142.316 668.306 142.316C664.914 142.316 663.058 143.724 658.386 147.948V165.612C658.386 169.452 659.41 170.476 663.762 170.476V171.5H649.106Z" fill="#6B6B6B"/>
<path d="M158.986 22H155.114C154.826 20.5582 154.304 19.2263 153.549 18.0043C152.807 16.7685 151.874 15.6906 150.748 14.7706C149.622 13.8506 148.345 13.1366 146.917 12.6286C145.489 12.1205 143.944 11.8665 142.283 11.8665C139.619 11.8665 137.188 12.5599 134.991 13.9467C132.808 15.3336 131.057 17.3726 129.739 20.0639C128.435 22.7415 127.783 26.0232 127.783 29.9091C127.783 33.8224 128.435 37.1179 129.739 39.7955C131.057 42.473 132.808 44.5052 134.991 45.892C137.188 47.2652 139.619 47.9517 142.283 47.9517C143.944 47.9517 145.489 47.6977 146.917 47.1896C148.345 46.6816 149.622 45.9744 150.748 45.0682C151.874 44.1482 152.807 43.0703 153.549 41.8345C154.304 40.5987 154.826 39.2599 155.114 37.8182H158.986C158.643 39.7543 157.998 41.5599 157.05 43.2351C156.117 44.8965 154.922 46.352 153.467 47.6016C152.025 48.8511 150.363 49.826 148.482 50.5263C146.601 51.2266 144.535 51.5767 142.283 51.5767C138.74 51.5767 135.596 50.6911 132.849 48.9197C130.103 47.1347 127.947 44.6219 126.382 41.3814C124.83 38.1409 124.055 34.3168 124.055 29.9091C124.055 25.5014 124.83 21.6773 126.382 18.4368C127.947 15.1963 130.103 12.6903 132.849 10.919C135.596 9.134 138.74 8.24148 142.283 8.24148C144.535 8.24148 146.601 8.59162 148.482 9.29191C150.363 9.97846 152.025 10.9534 153.467 12.2166C154.922 13.4661 156.117 14.9216 157.05 16.5831C157.998 18.2446 158.643 20.0502 158.986 22ZM163.501 51V19.3636H167.065V24.2244H167.332C167.964 22.6316 169.063 21.3478 170.628 20.3729C172.207 19.3842 173.992 18.8899 175.983 18.8899C176.285 18.8899 176.621 18.8968 176.992 18.9105C177.363 18.9242 177.672 18.938 177.919 18.9517V22.6797C177.754 22.6522 177.466 22.611 177.054 22.5561C176.642 22.5012 176.196 22.4737 175.715 22.4737C174.067 22.4737 172.598 22.8239 171.308 23.5241C170.031 24.2107 169.021 25.165 168.28 26.3871C167.538 27.6091 167.168 29.0028 167.168 30.5682V51H163.501ZM192.233 51.6591C189.281 51.6591 186.727 50.9725 184.571 49.5994C182.415 48.2126 180.747 46.2971 179.566 43.853C178.399 41.3951 177.815 38.5665 177.815 35.3672C177.815 32.1816 178.399 29.353 179.566 26.8814C180.747 24.3961 182.374 22.4531 184.447 21.0526C186.534 19.6383 188.944 18.9311 191.677 18.9311C193.393 18.9311 195.048 19.2469 196.641 19.8786C198.233 20.4964 199.661 21.4508 200.925 22.7415C202.202 24.0185 203.211 25.6319 203.952 27.5817C204.694 29.5178 205.065 31.8108 205.065 34.4609V36.2734H180.349V33.0398H201.316C201.316 31.0076 200.904 29.1813 200.08 27.5611C199.27 25.9271 198.137 24.6364 196.682 23.6889C195.24 22.7415 193.572 22.2678 191.677 22.2678C189.672 22.2678 187.908 22.8033 186.383 23.8743C184.859 24.9453 183.665 26.3596 182.8 28.1172C181.948 29.8748 181.516 31.7971 181.502 33.8842V35.8203C181.502 38.3331 181.935 40.5301 182.8 42.4112C183.678 44.2786 184.921 45.7273 186.528 46.7571C188.134 47.7869 190.036 48.3018 192.233 48.3018C193.73 48.3018 195.041 48.0684 196.167 47.6016C197.306 47.1347 198.261 46.5099 199.03 45.7273C199.812 44.9309 200.403 44.0589 200.801 43.1115L204.282 44.2443C203.801 45.5762 203.012 46.8052 201.913 47.9311C200.828 49.0571 199.469 49.9633 197.835 50.6499C196.215 51.3227 194.347 51.6591 192.233 51.6591ZM218.209 51.7209C216.301 51.7209 214.557 51.3501 212.978 50.6087C211.399 49.8535 210.142 48.7687 209.209 47.3544C208.275 45.9264 207.808 44.1963 207.808 42.1641C207.808 40.5987 208.103 39.2805 208.694 38.2095C209.284 37.1385 210.122 36.2597 211.207 35.5732C212.291 34.8866 213.575 34.3442 215.058 33.946C216.541 33.5478 218.175 33.2389 219.96 33.0192C221.732 32.7995 223.228 32.6072 224.45 32.4425C225.686 32.2777 226.627 32.0168 227.272 31.6598C227.917 31.3028 228.24 30.7261 228.24 29.9297V29.1882C228.24 27.0324 227.595 25.3366 226.304 24.1009C225.027 22.8513 223.187 22.2266 220.784 22.2266C218.505 22.2266 216.644 22.7277 215.202 23.7301C213.774 24.7325 212.772 25.9134 212.195 27.2727L208.714 26.0163C209.428 24.2862 210.417 22.9063 211.68 21.8764C212.944 20.8329 214.358 20.0845 215.923 19.6314C217.489 19.1645 219.075 18.9311 220.681 18.9311C221.889 18.9311 223.146 19.089 224.45 19.4048C225.768 19.7206 226.991 20.2699 228.116 21.0526C229.242 21.8215 230.156 22.8994 230.856 24.2862C231.556 25.6593 231.906 27.4032 231.906 29.5178V51H228.24V45.995H228.013C227.574 46.9287 226.922 47.835 226.057 48.7138C225.192 49.5926 224.107 50.3134 222.803 50.8764C221.498 51.4394 219.967 51.7209 218.209 51.7209ZM218.704 48.3636C220.654 48.3636 222.343 47.9311 223.771 47.0661C225.199 46.201 226.297 45.0545 227.066 43.6264C227.849 42.1847 228.24 40.5987 228.24 38.8686V34.2962C227.965 34.5571 227.505 34.7905 226.86 34.9964C226.228 35.2024 225.494 35.3878 224.656 35.5526C223.832 35.7036 223.008 35.834 222.185 35.9439C221.361 36.0537 220.619 36.1499 219.96 36.2322C218.175 36.4519 216.651 36.7952 215.388 37.2621C214.125 37.7289 213.156 38.3743 212.484 39.1982C211.811 40.0083 211.474 41.0518 211.474 42.3288C211.474 44.2512 212.161 45.741 213.534 46.7983C214.907 47.8419 216.63 48.3636 218.704 48.3636ZM250.35 19.3636V22.5561H235.252V19.3636H250.35ZM239.969 11.7841H243.656V42.7408C243.656 44.0589 243.882 45.0956 244.335 45.8509C244.789 46.5923 245.379 47.121 246.107 47.4368C246.834 47.7389 247.61 47.8899 248.434 47.8899C248.915 47.8899 249.327 47.8625 249.67 47.8075C250.013 47.7389 250.315 47.6702 250.576 47.6016L251.359 50.9176C251.002 51.0549 250.562 51.1785 250.041 51.2884C249.519 51.4119 248.874 51.4737 248.105 51.4737C246.759 51.4737 245.461 51.1785 244.212 50.5881C242.976 49.9976 241.96 49.1188 241.164 47.9517C240.367 46.7846 239.969 45.3359 239.969 43.6058V11.7841ZM267.356 51.6591C264.404 51.6591 261.85 50.9725 259.695 49.5994C257.539 48.2126 255.87 46.2971 254.69 43.853C253.522 41.3951 252.939 38.5665 252.939 35.3672C252.939 32.1816 253.522 29.353 254.69 26.8814C255.87 24.3961 257.498 22.4531 259.571 21.0526C261.658 19.6383 264.068 18.9311 266.8 18.9311C268.517 18.9311 270.171 19.2469 271.764 19.8786C273.357 20.4964 274.785 21.4508 276.048 22.7415C277.325 24.0185 278.334 25.6319 279.076 27.5817C279.817 29.5178 280.188 31.8108 280.188 34.4609V36.2734H255.472V33.0398H276.44C276.44 31.0076 276.028 29.1813 275.204 27.5611C274.394 25.9271 273.261 24.6364 271.805 23.6889C270.364 22.7415 268.695 22.2678 266.8 22.2678C264.796 22.2678 263.031 22.8033 261.507 23.8743C259.983 24.9453 258.788 26.3596 257.923 28.1172C257.072 29.8748 256.639 31.7971 256.626 33.8842V35.8203C256.626 38.3331 257.058 40.5301 257.923 42.4112C258.802 44.2786 260.045 45.7273 261.651 46.7571C263.258 47.7869 265.159 48.3018 267.356 48.3018C268.853 48.3018 270.164 48.0684 271.29 47.6016C272.43 47.1347 273.384 46.5099 274.153 45.7273C274.936 44.9309 275.526 44.0589 275.925 43.1115L279.405 44.2443C278.925 45.5762 278.135 46.8052 277.037 47.9311C275.952 49.0571 274.593 49.9633 272.959 50.6499C271.338 51.3227 269.471 51.6591 267.356 51.6591ZM308.327 51.5767C305.731 51.5767 303.466 51.0755 301.53 50.0732C299.594 49.0571 298.09 47.6771 297.019 45.9332C295.948 44.1894 295.413 42.219 295.413 40.022C295.413 38.4292 295.735 36.9943 296.381 35.7173C297.04 34.4266 297.987 33.2045 299.223 32.0511C300.459 30.884 301.955 29.6757 303.713 28.4261L309.83 23.8743C311.286 22.8307 312.391 21.8078 313.146 20.8054C313.915 19.7893 314.3 18.5466 314.3 17.0774C314.3 15.6631 313.764 14.3999 312.693 13.2876C311.636 12.1617 310.263 11.5987 308.574 11.5987C307.393 11.5987 306.336 11.8939 305.402 12.4844C304.482 13.0748 303.747 13.8438 303.198 14.7912C302.662 15.7249 302.395 16.7067 302.395 17.7365C302.395 18.6977 302.642 19.6657 303.136 20.6406C303.631 21.6018 304.296 22.6179 305.134 23.6889C305.972 24.7462 306.905 25.9134 307.935 27.1903L327.214 51H322.765L305.958 30.3828C304.544 28.6527 303.287 27.108 302.189 25.7486C301.09 24.3755 300.225 23.0573 299.594 21.794C298.962 20.517 298.646 19.1508 298.646 17.6953C298.646 15.8965 299.065 14.2969 299.903 12.8963C300.74 11.482 301.894 10.3698 303.363 9.55966C304.846 8.74953 306.542 8.34446 308.45 8.34446C310.4 8.34446 312.089 8.74266 313.517 9.53907C314.959 10.3355 316.071 11.3928 316.854 12.7109C317.65 14.0291 318.048 15.4846 318.048 17.0774C318.048 18.986 317.554 20.675 316.565 22.1442C315.59 23.6134 314.169 25.0552 312.302 26.4695L304.64 32.1953C302.539 33.7744 301.097 35.2367 300.314 36.5824C299.532 37.928 299.14 39.0746 299.14 40.022C299.14 41.505 299.525 42.8712 300.294 44.1207C301.063 45.3703 302.127 46.3726 303.486 47.1278C304.859 47.883 306.432 48.2675 308.203 48.2813C309.961 48.2675 311.615 47.9174 313.167 47.2308C314.718 46.5305 316.105 45.535 317.327 44.2443C318.563 42.9536 319.552 41.4089 320.293 39.6101C321.048 37.8113 321.488 35.8066 321.611 33.5959L325.175 33.6371C325.12 35.9027 324.811 37.825 324.248 39.4041C323.698 40.9695 323.067 42.2602 322.353 43.2763C321.639 44.2924 321.014 45.1094 320.479 45.7273C320.328 45.9332 320.176 46.1392 320.025 46.3452C319.874 46.5511 319.716 46.7571 319.552 46.9631C318.179 48.4735 316.469 49.62 314.423 50.4027C312.391 51.1854 310.359 51.5767 308.327 51.5767ZM354.194 51.6591C351.365 51.6591 348.9 50.9519 346.799 49.5376C344.712 48.1233 343.092 46.1873 341.939 43.7294C340.785 41.2715 340.208 38.4704 340.208 35.326C340.208 32.1541 340.792 29.3324 341.959 26.8608C343.14 24.3892 344.774 22.4531 346.861 21.0526C348.948 19.6383 351.372 18.9311 354.132 18.9311C356.246 18.9311 358.162 19.343 359.878 20.1669C361.595 20.977 363.009 22.1236 364.121 23.6065C365.247 25.0758 365.954 26.7921 366.243 28.7557H362.535C362.151 26.9706 361.224 25.4465 359.755 24.1832C358.299 22.9063 356.445 22.2678 354.194 22.2678C352.175 22.2678 350.39 22.817 348.838 23.9155C347.287 25.0002 346.072 26.5175 345.193 28.4673C344.328 30.4034 343.895 32.6484 343.895 35.2024C343.895 37.7701 344.321 40.0426 345.172 42.0199C346.024 43.9834 347.218 45.5213 348.756 46.6335C350.308 47.7457 352.12 48.3018 354.194 48.3018C355.594 48.3018 356.871 48.041 358.024 47.5192C359.192 46.9837 360.167 46.2285 360.949 45.2536C361.746 44.2786 362.281 43.1184 362.556 41.7727H366.263C365.988 43.6813 365.309 45.384 364.224 46.8807C363.153 48.3636 361.759 49.5308 360.043 50.3821C358.34 51.2334 356.39 51.6591 354.194 51.6591ZM382.647 51.6591C379.914 51.6591 377.498 50.9657 375.397 49.5788C373.31 48.192 371.676 46.2765 370.495 43.8324C369.314 41.3745 368.724 38.5391 368.724 35.326C368.724 32.0855 369.314 29.2363 370.495 26.7784C371.676 24.3068 373.31 22.3845 375.397 21.0114C377.498 19.6245 379.914 18.9311 382.647 18.9311C385.379 18.9311 387.789 19.6245 389.876 21.0114C391.963 22.3982 393.597 24.3205 394.778 26.7784C395.973 29.2363 396.57 32.0855 396.57 35.326C396.57 38.5391 395.98 41.3745 394.799 43.8324C393.618 46.2765 391.977 48.192 389.876 49.5788C387.789 50.9657 385.379 51.6591 382.647 51.6591ZM382.647 48.3018C384.844 48.3018 386.704 47.7114 388.229 46.5305C389.753 45.3497 390.906 43.7775 391.689 41.8139C392.485 39.8504 392.883 37.6877 392.883 35.326C392.883 32.9643 392.485 30.7947 391.689 28.8175C390.906 26.8402 389.753 25.2543 388.229 24.0597C386.704 22.8651 384.844 22.2678 382.647 22.2678C380.464 22.2678 378.603 22.8651 377.065 24.0597C375.541 25.2543 374.381 26.8402 373.584 28.8175C372.802 30.7947 372.41 32.9643 372.41 35.326C372.41 37.6877 372.802 39.8504 373.584 41.8139C374.381 43.7775 375.541 45.3497 377.065 46.5305C378.589 47.7114 380.45 48.3018 382.647 48.3018ZM404.514 8.81818V51H400.848V8.81818H404.514ZM414.112 8.81818V51H410.445V8.81818H414.112ZM428.879 51.7209C426.97 51.7209 425.226 51.3501 423.647 50.6087C422.068 49.8535 420.812 48.7687 419.878 47.3544C418.944 45.9264 418.477 44.1963 418.477 42.1641C418.477 40.5987 418.773 39.2805 419.363 38.2095C419.953 37.1385 420.791 36.2597 421.876 35.5732C422.961 34.8866 424.244 34.3442 425.727 33.946C427.21 33.5478 428.844 33.2389 430.629 33.0192C432.401 32.7995 433.897 32.6072 435.119 32.4425C436.355 32.2777 437.296 32.0168 437.941 31.6598C438.586 31.3028 438.909 30.7261 438.909 29.9297V29.1882C438.909 27.0324 438.264 25.3366 436.973 24.1009C435.696 22.8513 433.856 22.2266 431.453 22.2266C429.174 22.2266 427.313 22.7277 425.871 23.7301C424.443 24.7325 423.441 25.9134 422.864 27.2727L419.384 26.0163C420.098 24.2862 421.086 22.9063 422.349 21.8764C423.613 20.8329 425.027 20.0845 426.592 19.6314C428.158 19.1645 429.744 18.9311 431.35 18.9311C432.559 18.9311 433.815 19.089 435.119 19.4048C436.438 19.7206 437.66 20.2699 438.786 21.0526C439.911 21.8215 440.825 22.8994 441.525 24.2862C442.225 25.6593 442.575 27.4032 442.575 29.5178V51H438.909V45.995H438.683C438.243 46.9287 437.591 47.835 436.726 48.7138C435.861 49.5926 434.776 50.3134 433.472 50.8764C432.167 51.4394 430.636 51.7209 428.879 51.7209ZM429.373 48.3636C431.323 48.3636 433.012 47.9311 434.44 47.0661C435.868 46.201 436.966 45.0545 437.735 43.6264C438.518 42.1847 438.909 40.5987 438.909 38.8686V34.2962C438.635 34.5571 438.175 34.7905 437.529 34.9964C436.898 35.2024 436.163 35.3878 435.325 35.5526C434.501 35.7036 433.678 35.834 432.854 35.9439C432.03 36.0537 431.288 36.1499 430.629 36.2322C428.844 36.4519 427.32 36.7952 426.057 37.2621C424.794 37.7289 423.826 38.3743 423.153 39.1982C422.48 40.0083 422.144 41.0518 422.144 42.3288C422.144 44.2512 422.83 45.741 424.203 46.7983C425.576 47.8419 427.3 48.3636 429.373 48.3636ZM449.32 51V8.81818H453.007V25.3984H453.336C453.748 24.451 454.339 23.4761 455.108 22.4737C455.89 21.4714 456.913 20.6338 458.176 19.9609C459.453 19.2744 461.06 18.9311 462.996 18.9311C465.591 18.9311 467.871 19.6177 469.834 20.9908C471.798 22.3501 473.329 24.2588 474.427 26.7166C475.526 29.1607 476.075 32.0099 476.075 35.2642C476.075 38.5322 475.526 41.3951 474.427 43.853C473.342 46.3108 471.818 48.2263 469.855 49.5994C467.905 50.9725 465.639 51.6591 463.058 51.6591C461.135 51.6591 459.529 51.3158 458.238 50.6293C456.961 49.9427 455.931 49.0982 455.149 48.0959C454.366 47.0798 453.762 46.0911 453.336 45.13H452.883V51H449.32ZM452.945 35.2024C452.945 37.7564 453.322 40.022 454.078 41.9993C454.847 43.9628 455.945 45.5076 457.373 46.6335C458.815 47.7457 460.559 48.3018 462.605 48.3018C464.706 48.3018 466.484 47.7251 467.939 46.5717C469.395 45.4046 470.5 43.8324 471.255 41.8551C472.01 39.8778 472.388 37.6603 472.388 35.2024C472.388 32.772 472.01 30.5819 471.255 28.6321C470.514 26.6823 469.415 25.1375 467.96 23.9979C466.504 22.8445 464.719 22.2678 462.605 22.2678C460.545 22.2678 458.794 22.8239 457.353 23.9361C455.925 25.0346 454.833 26.5587 454.078 28.5085C453.322 30.4446 452.945 32.6759 452.945 35.2024ZM492.654 51.6591C489.922 51.6591 487.505 50.9657 485.404 49.5788C483.317 48.192 481.683 46.2765 480.502 43.8324C479.321 41.3745 478.731 38.5391 478.731 35.326C478.731 32.0855 479.321 29.2363 480.502 26.7784C481.683 24.3068 483.317 22.3845 485.404 21.0114C487.505 19.6245 489.922 18.9311 492.654 18.9311C495.387 18.9311 497.797 19.6245 499.884 21.0114C501.971 22.3982 503.605 24.3205 504.786 26.7784C505.98 29.2363 506.578 32.0855 506.578 35.326C506.578 38.5391 505.987 41.3745 504.806 43.8324C503.625 46.2765 501.985 48.192 499.884 49.5788C497.797 50.9657 495.387 51.6591 492.654 51.6591ZM492.654 48.3018C494.851 48.3018 496.712 47.7114 498.236 46.5305C499.76 45.3497 500.914 43.7775 501.696 41.8139C502.493 39.8504 502.891 37.6877 502.891 35.326C502.891 32.9643 502.493 30.7947 501.696 28.8175C500.914 26.8402 499.76 25.2543 498.236 24.0597C496.712 22.8651 494.851 22.2678 492.654 22.2678C490.471 22.2678 488.61 22.8651 487.073 24.0597C485.548 25.2543 484.388 26.8402 483.592 28.8175C482.809 30.7947 482.418 32.9643 482.418 35.326C482.418 37.6877 482.809 39.8504 483.592 41.8139C484.388 43.7775 485.548 45.3497 487.073 46.5305C488.597 47.7114 490.457 48.3018 492.654 48.3018ZM510.856 51V19.3636H514.419V24.2244H514.687C515.318 22.6316 516.417 21.3478 517.982 20.3729C519.561 19.3842 521.346 18.8899 523.337 18.8899C523.639 18.8899 523.976 18.8968 524.346 18.9105C524.717 18.9242 525.026 18.938 525.273 18.9517V22.6797C525.109 22.6522 524.82 22.611 524.408 22.5561C523.996 22.5012 523.55 22.4737 523.069 22.4737C521.422 22.4737 519.953 22.8239 518.662 23.5241C517.385 24.2107 516.376 25.165 515.634 26.3871C514.893 27.6091 514.522 29.0028 514.522 30.5682V51H510.856ZM536.595 51.7209C534.687 51.7209 532.943 51.3501 531.364 50.6087C529.785 49.8535 528.528 48.7687 527.595 47.3544C526.661 45.9264 526.194 44.1963 526.194 42.1641C526.194 40.5987 526.489 39.2805 527.08 38.2095C527.67 37.1385 528.508 36.2597 529.593 35.5732C530.677 34.8866 531.961 34.3442 533.444 33.946C534.927 33.5478 536.561 33.2389 538.346 33.0192C540.117 32.7995 541.614 32.6072 542.836 32.4425C544.072 32.2777 545.013 32.0168 545.658 31.6598C546.303 31.3028 546.626 30.7261 546.626 29.9297V29.1882C546.626 27.0324 545.981 25.3366 544.69 24.1009C543.413 22.8513 541.573 22.2266 539.17 22.2266C536.891 22.2266 535.03 22.7277 533.588 23.7301C532.16 24.7325 531.158 25.9134 530.581 27.2727L527.1 26.0163C527.814 24.2862 528.803 22.9063 530.066 21.8764C531.33 20.8329 532.744 20.0845 534.309 19.6314C535.875 19.1645 537.461 18.9311 539.067 18.9311C540.275 18.9311 541.532 19.089 542.836 19.4048C544.154 19.7206 545.376 20.2699 546.502 21.0526C547.628 21.8215 548.541 22.8994 549.242 24.2862C549.942 25.6593 550.292 27.4032 550.292 29.5178V51H546.626V45.995H546.399C545.96 46.9287 545.308 47.835 544.443 48.7138C543.578 49.5926 542.493 50.3134 541.188 50.8764C539.884 51.4394 538.353 51.7209 536.595 51.7209ZM537.09 48.3636C539.04 48.3636 540.728 47.9311 542.157 47.0661C543.585 46.201 544.683 45.0545 545.452 43.6264C546.235 42.1847 546.626 40.5987 546.626 38.8686V34.2962C546.351 34.5571 545.891 34.7905 545.246 34.9964C544.614 35.2024 543.88 35.3878 543.042 35.5526C542.218 35.7036 541.394 35.834 540.571 35.9439C539.747 36.0537 539.005 36.1499 538.346 36.2322C536.561 36.4519 535.037 36.7952 533.774 37.2621C532.51 37.7289 531.542 38.3743 530.87 39.1982C530.197 40.0083 529.86 41.0518 529.86 42.3288C529.86 44.2512 530.547 45.741 531.92 46.7983C533.293 47.8419 535.016 48.3636 537.09 48.3636ZM568.736 19.3636V22.5561H553.638V19.3636H568.736ZM558.355 11.7841H562.042V42.7408C562.042 44.0589 562.268 45.0956 562.721 45.8509C563.175 46.5923 563.765 47.121 564.493 47.4368C565.22 47.7389 565.996 47.8899 566.82 47.8899C567.301 47.8899 567.713 47.8625 568.056 47.8075C568.399 47.7389 568.701 47.6702 568.962 47.6016L569.745 50.9176C569.388 51.0549 568.948 51.1785 568.427 51.2884C567.905 51.4119 567.259 51.4737 566.491 51.4737C565.145 51.4737 563.847 51.1785 562.598 50.5881C561.362 49.9976 560.346 49.1188 559.55 47.9517C558.753 46.7846 558.355 45.3359 558.355 43.6058V11.7841ZM585.742 51.6591C582.79 51.6591 580.236 50.9725 578.081 49.5994C575.925 48.2126 574.256 46.2971 573.076 43.853C571.908 41.3951 571.325 38.5665 571.325 35.3672C571.325 32.1816 571.908 29.353 573.076 26.8814C574.256 24.3961 575.884 22.4531 577.957 21.0526C580.044 19.6383 582.454 18.9311 585.186 18.9311C586.903 18.9311 588.557 19.2469 590.15 19.8786C591.743 20.4964 593.171 21.4508 594.434 22.7415C595.711 24.0185 596.72 25.6319 597.462 27.5817C598.203 29.5178 598.574 31.8108 598.574 34.4609V36.2734H573.858V33.0398H594.826C594.826 31.0076 594.414 29.1813 593.59 27.5611C592.78 25.9271 591.647 24.6364 590.191 23.6889C588.75 22.7415 587.081 22.2678 585.186 22.2678C583.182 22.2678 581.417 22.8033 579.893 23.8743C578.369 24.9453 577.174 26.3596 576.309 28.1172C575.458 29.8748 575.025 31.7971 575.012 33.8842V35.8203C575.012 38.3331 575.444 40.5301 576.309 42.4112C577.188 44.2786 578.431 45.7273 580.037 46.7571C581.644 47.7869 583.545 48.3018 585.742 48.3018C587.239 48.3018 588.55 48.0684 589.676 47.6016C590.816 47.1347 591.77 46.5099 592.539 45.7273C593.322 44.9309 593.912 44.0589 594.311 43.1115L597.791 44.2443C597.311 45.5762 596.521 46.8052 595.423 47.9311C594.338 49.0571 592.979 49.9633 591.345 50.6499C589.724 51.3227 587.857 51.6591 585.742 51.6591ZM146.393 111V79.3636H150.08V111H146.393ZM148.267 73.9261C147.512 73.9261 146.867 73.6721 146.331 73.1641C145.796 72.6423 145.528 72.0175 145.528 71.2898C145.528 70.562 145.796 69.9441 146.331 69.4361C146.867 68.9143 147.512 68.6534 148.267 68.6534C149.022 68.6534 149.668 68.9143 150.203 69.4361C150.739 69.9441 151.007 70.562 151.007 71.2898C151.007 72.0175 150.739 72.6423 150.203 73.1641C149.668 73.6721 149.022 73.9261 148.267 73.9261ZM159.672 91.2273V111H156.006V79.3636H159.569V84.3274H159.898C160.64 82.7072 161.793 81.4096 163.359 80.4347C164.938 79.446 166.887 78.9517 169.208 78.9517C171.336 78.9517 173.204 79.398 174.81 80.2905C176.431 81.1693 177.687 82.4669 178.579 84.1832C179.486 85.8996 179.939 88.0073 179.939 90.5064V111H176.273V90.733C176.273 88.1378 175.545 86.085 174.089 84.5746C172.648 83.0642 170.712 82.3089 168.281 82.3089C166.62 82.3089 165.144 82.666 163.853 83.38C162.562 84.094 161.539 85.1238 160.784 86.4695C160.043 87.8014 159.672 89.3873 159.672 91.2273ZM219.622 86.3047L216.264 87.2521C215.935 86.3047 215.468 85.4465 214.864 84.6776C214.26 83.9086 213.47 83.2976 212.495 82.8445C211.534 82.3913 210.339 82.1648 208.911 82.1648C206.769 82.1648 205.012 82.6728 203.639 83.6889C202.266 84.705 201.579 86.0163 201.579 87.6229C201.579 88.9822 202.046 90.0876 202.98 90.9389C203.927 91.7765 205.383 92.4425 207.346 92.9368L212.125 94.1108C214.775 94.7562 216.759 95.7791 218.077 97.1797C219.409 98.5803 220.075 100.338 220.075 102.452C220.075 104.237 219.58 105.823 218.592 107.21C217.603 108.597 216.223 109.689 214.452 110.485C212.694 111.268 210.655 111.659 208.335 111.659C205.245 111.659 202.698 110.966 200.693 109.579C198.689 108.178 197.405 106.16 196.842 103.523L200.364 102.658C200.817 104.54 201.703 105.961 203.021 106.922C204.353 107.883 206.103 108.364 208.273 108.364C210.703 108.364 212.646 107.821 214.102 106.737C215.557 105.638 216.285 104.265 216.285 102.617C216.285 101.34 215.859 100.269 215.008 99.4041C214.157 98.5253 212.866 97.88 211.136 97.468L205.966 96.2322C203.22 95.5732 201.188 94.5296 199.87 93.1016C198.551 91.6735 197.892 89.9022 197.892 87.7876C197.892 86.0438 198.366 84.5128 199.313 83.1946C200.261 81.8627 201.565 80.8191 203.227 80.0639C204.888 79.3087 206.783 78.9311 208.911 78.9311C211.809 78.9311 214.122 79.5902 215.852 80.9084C217.596 82.2128 218.853 84.0116 219.622 86.3047ZM224.332 122.864V79.3636H227.896V85.3984H228.328C228.767 84.451 229.372 83.483 230.141 82.4943C230.91 81.492 231.926 80.6475 233.189 79.9609C234.466 79.2744 236.072 78.9311 238.008 78.9311C240.617 78.9311 242.897 79.6177 244.847 80.9908C246.81 82.3501 248.334 84.2588 249.419 86.7166C250.517 89.1607 251.067 92.0099 251.067 95.2642C251.067 98.5322 250.517 101.395 249.419 103.853C248.334 106.311 246.81 108.226 244.847 109.599C242.897 110.973 240.631 111.659 238.05 111.659C236.141 111.659 234.541 111.316 233.251 110.629C231.974 109.943 230.937 109.098 230.141 108.096C229.358 107.08 228.754 106.091 228.328 105.13H227.999V122.864H224.332ZM227.957 95.2024C227.957 97.7564 228.335 100.022 229.09 101.999C229.859 103.963 230.958 105.508 232.386 106.634C233.827 107.746 235.571 108.302 237.617 108.302C239.718 108.302 241.489 107.725 242.931 106.572C244.387 105.405 245.492 103.832 246.247 101.855C247.016 99.8778 247.401 97.6603 247.401 95.2024C247.401 92.772 247.023 90.5819 246.268 88.6321C245.526 86.6823 244.428 85.1375 242.972 83.9979C241.517 82.8445 239.732 82.2678 237.617 82.2678C235.557 82.2678 233.807 82.8239 232.365 83.9361C230.923 85.0346 229.825 86.5587 229.07 88.5085C228.328 90.4446 227.957 92.6759 227.957 95.2024ZM264.176 111.721C262.267 111.721 260.523 111.35 258.944 110.609C257.365 109.853 256.109 108.769 255.175 107.354C254.241 105.926 253.774 104.196 253.774 102.164C253.774 100.599 254.07 99.2805 254.66 98.2095C255.25 97.1385 256.088 96.2597 257.173 95.5732C258.258 94.8866 259.541 94.3442 261.024 93.946C262.507 93.5478 264.141 93.2389 265.926 93.0192C267.698 92.7995 269.194 92.6072 270.416 92.4425C271.652 92.2777 272.593 92.0168 273.238 91.6598C273.883 91.3028 274.206 90.7261 274.206 89.9297V89.1882C274.206 87.0324 273.561 85.3366 272.27 84.1009C270.993 82.8513 269.153 82.2266 266.75 82.2266C264.471 82.2266 262.61 82.7277 261.168 83.7301C259.74 84.7325 258.738 85.9134 258.161 87.2727L254.681 86.0163C255.395 84.2862 256.383 82.9063 257.646 81.8764C258.91 80.8329 260.324 80.0845 261.889 79.6314C263.455 79.1645 265.041 78.9311 266.647 78.9311C267.856 78.9311 269.112 79.089 270.416 79.4048C271.735 79.7206 272.957 80.2699 274.083 81.0526C275.209 81.8215 276.122 82.8994 276.822 84.2862C277.522 85.6593 277.872 87.4032 277.872 89.5178V111H274.206V105.995H273.98C273.54 106.929 272.888 107.835 272.023 108.714C271.158 109.593 270.073 110.313 268.769 110.876C267.464 111.439 265.933 111.721 264.176 111.721ZM264.67 108.364C266.62 108.364 268.309 107.931 269.737 107.066C271.165 106.201 272.263 105.054 273.032 103.626C273.815 102.185 274.206 100.599 274.206 98.8686V94.2962C273.932 94.5571 273.472 94.7905 272.826 94.9964C272.195 95.2024 271.46 95.3878 270.622 95.5526C269.798 95.7036 268.975 95.834 268.151 95.9439C267.327 96.0537 266.585 96.1499 265.926 96.2322C264.141 96.4519 262.617 96.7952 261.354 97.2621C260.091 97.7289 259.123 98.3743 258.45 99.1982C257.777 100.008 257.441 101.052 257.441 102.329C257.441 104.251 258.127 105.741 259.5 106.798C260.873 107.842 262.597 108.364 264.67 108.364ZM296.213 111.659C293.384 111.659 290.919 110.952 288.819 109.538C286.731 108.123 285.111 106.187 283.958 103.729C282.804 101.272 282.228 98.4704 282.228 95.326C282.228 92.1541 282.811 89.3324 283.978 86.8608C285.159 84.3892 286.793 82.4531 288.88 81.0526C290.968 79.6383 293.391 78.9311 296.151 78.9311C298.266 78.9311 300.181 79.343 301.897 80.1669C303.614 80.977 305.028 82.1236 306.14 83.6065C307.266 85.0758 307.973 86.7921 308.262 88.7557H304.554C304.17 86.9706 303.243 85.4465 301.774 84.1832C300.318 82.9063 298.465 82.2678 296.213 82.2678C294.194 82.2678 292.409 82.817 290.858 83.9155C289.306 85.0002 288.091 86.5175 287.212 88.4673C286.347 90.4034 285.914 92.6484 285.914 95.2024C285.914 97.7701 286.34 100.043 287.191 102.02C288.043 103.983 289.237 105.521 290.775 106.634C292.327 107.746 294.139 108.302 296.213 108.302C297.613 108.302 298.89 108.041 300.044 107.519C301.211 106.984 302.186 106.228 302.968 105.254C303.765 104.279 304.3 103.118 304.575 101.773H308.282C308.008 103.681 307.328 105.384 306.243 106.881C305.172 108.364 303.779 109.531 302.062 110.382C300.36 111.233 298.41 111.659 296.213 111.659ZM325.16 111.659C322.208 111.659 319.654 110.973 317.499 109.599C315.343 108.213 313.674 106.297 312.494 103.853C311.326 101.395 310.743 98.5665 310.743 95.3672C310.743 92.1816 311.326 89.353 312.494 86.8814C313.674 84.3961 315.302 82.4531 317.375 81.0526C319.462 79.6383 321.872 78.9311 324.604 78.9311C326.321 78.9311 327.975 79.2469 329.568 79.8786C331.161 80.4964 332.589 81.4508 333.852 82.7415C335.129 84.0185 336.138 85.6319 336.88 87.5817C337.621 89.5178 337.992 91.8108 337.992 94.4609V96.2734H313.276V93.0398H334.244C334.244 91.0076 333.832 89.1813 333.008 87.5611C332.198 85.9271 331.065 84.6364 329.609 83.6889C328.168 82.7415 326.499 82.2678 324.604 82.2678C322.6 82.2678 320.835 82.8033 319.311 83.8743C317.787 84.9453 316.592 86.3596 315.727 88.1172C314.876 89.8748 314.443 91.7971 314.43 93.8842V95.8203C314.43 98.3331 314.862 100.53 315.727 102.411C316.606 104.279 317.849 105.727 319.455 106.757C321.062 107.787 322.963 108.302 325.16 108.302C326.657 108.302 327.968 108.068 329.094 107.602C330.234 107.135 331.188 106.51 331.957 105.727C332.74 104.931 333.33 104.059 333.729 103.112L337.209 104.244C336.729 105.576 335.939 106.805 334.841 107.931C333.756 109.057 332.397 109.963 330.763 110.65C329.142 111.323 327.275 111.659 325.16 111.659ZM363.557 86.3047L360.2 87.2521C359.87 86.3047 359.403 85.4465 358.799 84.6776C358.195 83.9086 357.405 83.2976 356.43 82.8445C355.469 82.3913 354.275 82.1648 352.847 82.1648C350.705 82.1648 348.947 82.6728 347.574 83.6889C346.201 84.705 345.514 86.0163 345.514 87.6229C345.514 88.9822 345.981 90.0876 346.915 90.9389C347.862 91.7765 349.318 92.4425 351.281 92.9368L356.06 94.1108C358.71 94.7562 360.694 95.7791 362.012 97.1797C363.344 98.5803 364.01 100.338 364.01 102.452C364.01 104.237 363.516 105.823 362.527 107.21C361.538 108.597 360.158 109.689 358.387 110.485C356.629 111.268 354.59 111.659 352.27 111.659C349.18 111.659 346.633 110.966 344.629 109.579C342.624 108.178 341.34 106.16 340.777 103.523L344.299 102.658C344.752 104.54 345.638 105.961 346.956 106.922C348.288 107.883 350.039 108.364 352.208 108.364C354.638 108.364 356.581 107.821 358.037 106.737C359.492 105.638 360.22 104.265 360.22 102.617C360.22 101.34 359.795 100.269 358.943 99.4041C358.092 98.5253 356.801 97.88 355.071 97.468L349.901 96.2322C347.155 95.5732 345.123 94.5296 343.805 93.1016C342.487 91.6735 341.827 89.9022 341.827 87.7876C341.827 86.0438 342.301 84.5128 343.249 83.1946C344.196 81.8627 345.5 80.8191 347.162 80.0639C348.823 79.3087 350.718 78.9311 352.847 78.9311C355.744 78.9311 358.058 79.5902 359.788 80.9084C361.531 82.2128 362.788 84.0116 363.557 86.3047ZM383.364 122.864C382.636 122.864 381.956 122.795 381.325 122.658C380.693 122.52 380.192 122.369 379.821 122.205L380.81 118.971C382.059 119.355 383.172 119.493 384.147 119.383C385.122 119.287 385.987 118.847 386.742 118.065C387.497 117.296 388.17 116.115 388.76 114.522L389.914 111.309L378.277 79.3636H382.252L391.644 106.16H391.932L401.324 79.3636H405.299L391.912 116.005C391.349 117.529 390.655 118.799 389.831 119.815C389.007 120.845 388.053 121.607 386.968 122.102C385.897 122.61 384.696 122.864 383.364 122.864ZM419.865 111.659C417.133 111.659 414.716 110.966 412.615 109.579C410.528 108.192 408.894 106.277 407.713 103.832C406.533 101.375 405.942 98.5391 405.942 95.326C405.942 92.0855 406.533 89.2363 407.713 86.7784C408.894 84.3068 410.528 82.3845 412.615 81.0114C414.716 79.6245 417.133 78.9311 419.865 78.9311C422.598 78.9311 425.008 79.6245 427.095 81.0114C429.182 82.3982 430.816 84.3205 431.997 86.7784C433.191 89.2363 433.789 92.0855 433.789 95.326C433.789 98.5391 433.198 101.375 432.017 103.832C430.837 106.277 429.196 108.192 427.095 109.579C425.008 110.966 422.598 111.659 419.865 111.659ZM419.865 108.302C422.062 108.302 423.923 107.711 425.447 106.531C426.971 105.35 428.125 103.777 428.907 101.814C429.704 99.8504 430.102 97.6877 430.102 95.326C430.102 92.9643 429.704 90.7947 428.907 88.8175C428.125 86.8402 426.971 85.2543 425.447 84.0597C423.923 82.8651 422.062 82.2678 419.865 82.2678C417.682 82.2678 415.822 82.8651 414.284 84.0597C412.76 85.2543 411.599 86.8402 410.803 88.8175C410.02 90.7947 409.629 92.9643 409.629 95.326C409.629 97.6877 410.02 99.8504 410.803 101.814C411.599 103.777 412.76 105.35 414.284 106.531C415.808 107.711 417.668 108.302 419.865 108.302ZM458.169 98.9098V79.3636H461.835V111H458.169V105.748H457.881C457.139 107.368 455.965 108.721 454.359 109.805C452.752 110.876 450.789 111.412 448.468 111.412C446.45 111.412 444.658 110.973 443.092 110.094C441.527 109.201 440.298 107.897 439.406 106.18C438.513 104.464 438.067 102.356 438.067 99.8572V79.3636H441.733V99.6307C441.733 102.102 442.461 104.093 443.916 105.604C445.372 107.1 447.239 107.849 449.519 107.849C450.947 107.849 452.32 107.505 453.638 106.819C454.956 106.132 456.041 105.13 456.892 103.812C457.743 102.48 458.169 100.846 458.169 98.9098ZM492.61 111.659C489.878 111.659 487.461 110.966 485.36 109.579C483.273 108.192 481.639 106.277 480.458 103.832C479.277 101.375 478.687 98.5391 478.687 95.326C478.687 92.0855 479.277 89.2363 480.458 86.7784C481.639 84.3068 483.273 82.3845 485.36 81.0114C487.461 79.6245 489.878 78.9311 492.61 78.9311C495.343 78.9311 497.752 79.6245 499.839 81.0114C501.927 82.3982 503.561 84.3205 504.741 86.7784C505.936 89.2363 506.533 92.0855 506.533 95.326C506.533 98.5391 505.943 101.375 504.762 103.832C503.581 106.277 501.94 108.192 499.839 109.579C497.752 110.966 495.343 111.659 492.61 111.659ZM492.61 108.302C494.807 108.302 496.668 107.711 498.192 106.531C499.716 105.35 500.869 103.777 501.652 101.814C502.448 99.8504 502.847 97.6877 502.847 95.326C502.847 92.9643 502.448 90.7947 501.652 88.8175C500.869 86.8402 499.716 85.2543 498.192 84.0597C496.668 82.8651 494.807 82.2678 492.61 82.2678C490.427 82.2678 488.566 82.8651 487.028 84.0597C485.504 85.2543 484.344 86.8402 483.548 88.8175C482.765 90.7947 482.374 92.9643 482.374 95.326C482.374 97.6877 482.765 99.8504 483.548 101.814C484.344 103.777 485.504 105.35 487.028 106.531C488.553 107.711 490.413 108.302 492.61 108.302ZM516.759 111L507.202 79.3636H511.074L518.571 105.46H518.839L526.316 79.3636H530.208L537.623 105.398H537.911L545.409 79.3636H549.281L539.724 111H535.934L528.437 85.0689H528.046L520.549 111H516.759ZM556.303 91.2273V111H552.637V79.3636H556.2V84.3274H556.53C557.271 82.7072 558.425 81.4096 559.99 80.4347C561.569 79.446 563.519 78.9517 565.84 78.9517C567.968 78.9517 569.835 79.398 571.442 80.2905C573.062 81.1693 574.319 82.4669 575.211 84.1832C576.117 85.8996 576.57 88.0073 576.57 90.5064V111H572.904V90.733C572.904 88.1378 572.176 86.085 570.721 84.5746C569.279 83.0642 567.343 82.3089 564.913 82.3089C563.251 82.3089 561.775 82.666 560.484 83.38C559.194 84.094 558.171 85.1238 557.416 86.4695C556.674 87.8014 556.303 89.3873 556.303 91.2273ZM585.38 111.309C584.57 111.309 583.869 111.021 583.279 110.444C582.702 109.853 582.414 109.153 582.414 108.343C582.414 107.519 582.702 106.819 583.279 106.242C583.869 105.665 584.57 105.377 585.38 105.377C586.204 105.377 586.904 105.665 587.481 106.242C588.057 106.819 588.346 107.519 588.346 108.343C588.346 108.879 588.208 109.373 587.934 109.826C587.673 110.279 587.316 110.643 586.863 110.918C586.423 111.179 585.929 111.309 585.38 111.309Z" fill="#D4D4D4"/>
</svg>
