<svg width="464" height="229" viewBox="0 0 464 229" fill="none" xmlns="http://www.w3.org/2000/svg">
<path d="M124.079 74.9113V73.1833H129.647L129.711 69.2793C129.839 62.4313 133.679 58.0793 140.143 58.0793C144.623 58.0793 149.295 60.7673 149.295 63.5193C149.295 64.6713 148.335 65.6313 147.055 65.6313C143.599 65.6313 145.071 59.3593 139.695 59.3593C135.663 59.3593 133.615 62.4313 133.551 68.2553L133.487 73.1833H140.719V74.9113H133.551V98.9753C133.551 102.815 134.703 103.839 138.991 103.839V104.863H124.207V103.839C128.431 103.839 129.647 102.687 129.647 98.9753L129.711 74.9113H124.079ZM140.872 88.7993C140.872 79.1993 147.016 72.5433 155.912 72.5433C164.744 72.5433 170.696 79.1353 170.696 88.9913C170.696 98.8473 164.68 105.567 155.784 105.567C147.144 105.567 140.872 98.5273 140.872 88.7993ZM145.352 87.6473C145.352 96.9913 150.536 104.095 156.808 104.095C162.504 104.095 166.152 99.0393 166.152 91.1673C166.152 81.2473 161.48 73.9513 155.208 73.9513C149.32 73.9513 145.352 79.3913 145.352 87.6473ZM172.026 104.863V103.839C176.378 103.839 177.53 102.815 177.594 98.9753V81.2473C177.594 77.4073 177.018 76.7673 174.906 76.7673C174.074 76.7673 173.562 76.8313 172.474 77.2793L172.218 76.1913L181.498 72.5433L181.37 79.9033C184.122 74.8473 186.746 72.9913 189.498 72.9913C191.482 72.9913 192.826 74.1433 192.826 75.6793C192.826 77.0233 191.674 78.1753 190.138 78.1753C188.538 78.1753 187.706 76.3833 186.362 76.3833C183.482 76.3833 181.562 81.0553 181.562 84.0633L181.498 98.9753C181.498 102.495 182.266 103.775 187.514 103.903V104.863H172.026ZM206.234 74.9113V73.8873C211.93 71.0713 212.89 69.9833 214.426 63.9033H215.45V73.1833H222.874V74.9113H215.45L215.514 97.8873C215.514 100.895 216.09 103.007 218.778 103.007C220.826 103.007 221.978 101.983 223.322 98.8473L224.282 98.9753C222.554 103.007 220.762 105.375 216.858 105.375C213.146 105.375 211.482 103.135 211.482 98.1433V74.9113H206.234ZM221.681 61.4713L230.961 57.8233L231.089 79.6473C235.633 74.5913 238.385 72.7353 242.417 72.7353C245.041 72.7353 247.473 73.8233 249.073 75.6153C250.609 77.2793 250.993 79.0073 250.993 83.2313L250.929 98.9753C250.929 102.623 251.761 103.839 256.305 103.839V104.863H241.585V103.839C245.873 103.839 247.025 102.815 247.025 98.9753L246.961 83.3593C246.961 76.7673 244.721 75.6153 240.881 75.6153C237.745 75.6153 235.889 76.3833 231.025 81.5033L231.089 98.9753C231.089 102.687 232.177 103.839 236.337 103.839V104.863H221.681V103.839C225.905 103.839 227.057 102.687 227.057 98.9753V66.5273C227.057 62.6873 226.481 61.9833 224.433 61.9833C223.601 61.9833 222.961 62.1113 221.937 62.4953L221.681 61.4713ZM257.235 88.7993C257.235 79.1993 263.379 72.5433 272.275 72.5433C281.107 72.5433 287.059 79.1353 287.059 88.9913C287.059 98.8473 281.043 105.567 272.147 105.567C263.507 105.567 257.235 98.5273 257.235 88.7993ZM261.715 87.6473C261.715 96.9913 266.899 104.095 273.171 104.095C278.867 104.095 282.515 99.0393 282.515 91.1673C282.515 81.2473 277.843 73.9513 271.571 73.9513C265.683 73.9513 261.715 79.3913 261.715 87.6473ZM308.101 72.7993H309.253V82.9753H308.165C307.781 75.9993 305.477 73.7593 300.293 73.7593C296.261 73.7593 293.189 75.9993 293.189 79.0713C293.189 82.1433 296.325 83.6153 298.373 84.8953L300.805 86.0473C301.125 86.1753 301.957 86.6233 303.237 87.1993C308.677 90.3993 311.109 91.6153 311.109 96.1593C311.109 101.663 306.501 105.567 300.037 105.567C297.861 105.567 296.389 105.247 294.085 104.223C293.061 103.775 292.741 103.647 292.293 103.647C291.717 103.647 291.333 104.159 291.333 105.247H290.309V93.8553L291.525 93.9193C291.909 101.727 294.341 104.223 299.717 104.223C304.133 104.223 307.653 101.343 307.653 97.6953C307.653 95.3273 306.949 93.9193 302.469 91.4233L300.421 90.2713L297.733 88.9913C292.677 86.7513 290.245 84.3193 290.245 80.4793C290.245 75.8713 294.277 72.5433 299.845 72.5433C301.957 72.5433 303.237 72.9273 305.413 73.8233L306.373 74.2073C306.629 74.3353 306.885 74.3993 307.141 74.3993C307.717 74.3993 308.101 73.8873 308.101 72.7993ZM338.774 86.0473H317.974C317.782 87.1993 317.718 88.0953 317.718 88.7353C317.718 95.9673 322.646 101.919 328.534 101.919C333.526 101.919 336.598 98.8473 338.198 93.2153L339.222 93.4073C337.75 100.383 334.486 105.375 327.126 105.375C319.318 105.375 313.942 98.7833 313.942 89.3753C313.942 79.6473 319.382 72.7353 327.126 72.7353C333.782 72.7353 338.006 76.9593 338.774 86.0473ZM318.934 80.4153C318.614 81.3113 318.294 82.4633 318.038 83.6793H333.974C332.95 76.8953 329.942 74.2713 326.166 74.2713C323.03 74.2713 320.086 76.7033 318.934 80.4153ZM54.889 130.143V129.183H66.985V130.143H65.833C64.105 130.143 63.721 130.399 63.721 131.679C63.721 132.383 64.041 133.407 64.489 134.623L72.105 154.399L78.505 137.567L77.353 134.623C75.817 131.103 74.921 130.143 73.129 130.143H72.105V129.183H84.457V130.143H82.921C81.513 130.143 80.809 130.719 80.809 131.807C80.809 132.511 81.001 133.535 81.513 134.623L89.321 154.783L97.001 134.623C97.449 133.471 97.705 132.447 97.705 131.807C97.705 130.655 97.001 130.143 95.593 130.143H94.121V129.183H104.041V130.143H102.953C101.161 130.143 100.073 131.231 98.793 134.623L88.809 160.863H87.529L79.465 139.999L71.465 160.863H70.441L60.265 134.623C58.985 131.231 57.961 130.143 56.041 130.143H54.889ZM100.84 117.471L110.12 113.823L110.248 135.647C114.792 130.591 117.544 128.735 121.576 128.735C124.2 128.735 126.632 129.823 128.232 131.615C129.768 133.279 130.152 135.007 130.152 139.231L130.088 154.975C130.088 158.623 130.92 159.839 135.464 159.839V160.863H120.744V159.839C125.032 159.839 126.184 158.815 126.184 154.975L126.12 139.359C126.12 132.767 123.88 131.615 120.04 131.615C116.904 131.615 115.048 132.383 110.184 137.503L110.248 154.975C110.248 158.687 111.336 159.839 115.496 159.839V160.863H100.84V159.839C105.064 159.839 106.216 158.687 106.216 154.975V122.527C106.216 118.687 105.64 117.983 103.592 117.983C102.76 117.983 102.12 118.111 101.096 118.495L100.84 117.471ZM136.393 144.799C136.393 135.199 142.537 128.543 151.433 128.543C160.265 128.543 166.217 135.135 166.217 144.991C166.217 154.847 160.201 161.567 151.305 161.567C142.665 161.567 136.393 154.527 136.393 144.799ZM140.873 143.647C140.873 152.991 146.057 160.095 152.329 160.095C158.025 160.095 161.673 155.039 161.673 147.167C161.673 137.247 157.001 129.951 150.729 129.951C144.841 129.951 140.873 135.391 140.873 143.647ZM212.018 149.087L212.914 149.279C210.418 158.303 205.938 161.247 200.178 161.247C192.178 161.247 186.226 154.591 186.226 145.503C186.226 136.223 192.882 128.799 201.138 128.799C206.578 128.799 211.506 132.447 211.506 136.287C211.506 137.759 210.354 138.847 208.818 138.847C207.282 138.847 206.066 137.759 206.066 136.223V136.095L206.13 134.367C206.258 131.871 203.89 130.079 200.818 130.079C194.802 130.079 190.642 135.775 190.642 143.903C190.642 152.095 195.122 158.175 201.394 158.175C205.618 158.175 209.33 155.679 212.018 149.087ZM238.943 142.047H218.143C217.951 143.199 217.887 144.095 217.887 144.735C217.887 151.967 222.815 157.919 228.703 157.919C233.695 157.919 236.767 154.847 238.367 149.215L239.391 149.407C237.919 156.383 234.655 161.375 227.295 161.375C219.487 161.375 214.111 154.783 214.111 145.375C214.111 135.647 219.551 128.735 227.295 128.735C233.951 128.735 238.175 132.959 238.943 142.047ZM219.103 136.415C218.783 137.311 218.463 138.463 218.207 139.679H234.143C233.119 132.895 230.111 130.271 226.335 130.271C223.199 130.271 220.255 132.703 219.103 136.415ZM240.078 117.471L249.422 113.823V154.975C249.422 158.815 250.574 159.839 254.734 159.839V160.863H240.142V159.839C244.494 159.839 245.454 158.431 245.454 155.167V154.975V122.527C245.454 118.623 244.942 117.983 242.83 117.983C241.998 117.983 241.422 118.111 240.334 118.495L240.078 117.471ZM280.963 142.047H260.163C259.971 143.199 259.907 144.095 259.907 144.735C259.907 151.967 264.835 157.919 270.723 157.919C275.715 157.919 278.787 154.847 280.387 149.215L281.411 149.407C279.939 156.383 276.675 161.375 269.315 161.375C261.507 161.375 256.131 154.783 256.131 145.375C256.131 135.647 261.571 128.735 269.315 128.735C275.971 128.735 280.195 132.959 280.963 142.047ZM261.123 136.415C260.803 137.311 260.483 138.463 260.227 139.679H276.163C275.139 132.895 272.131 130.271 268.355 130.271C265.219 130.271 262.275 132.703 261.123 136.415ZM281.65 117.471L290.994 113.823L291.058 135.839C294.194 131.423 297.522 128.799 302.066 128.799C308.85 128.799 314.034 134.943 314.034 143.007C314.034 153.183 306.994 161.439 298.29 161.439C294.962 161.439 292.082 160.415 287.09 157.919V122.527C287.09 118.687 286.578 117.983 284.402 117.983C283.634 117.983 283.058 118.111 282.034 118.495L281.65 117.471ZM291.058 139.039L290.994 156.127C293.362 158.879 295.922 160.095 298.674 160.095C305.01 160.095 309.49 153.439 309.49 144.287C309.49 136.607 305.906 131.743 300.082 131.743C295.922 131.743 291.058 135.647 291.058 139.039ZM315.357 160.863V159.839C319.709 159.839 320.861 158.815 320.925 154.975V137.247C320.925 133.407 320.349 132.767 318.237 132.767C317.405 132.767 316.893 132.831 315.805 133.279L315.549 132.191L324.829 128.543L324.701 135.903C327.453 130.847 330.077 128.991 332.83 128.991C334.813 128.991 336.157 130.143 336.157 131.679C336.157 133.023 335.005 134.175 333.469 134.175C331.869 134.175 331.038 132.383 329.693 132.383C326.813 132.383 324.893 137.055 324.893 140.063L324.829 154.975C324.829 158.495 325.597 159.775 330.845 159.903V160.863H315.357ZM353.532 142.047V136.671C353.532 133.151 352.7 130.079 347.26 130.079C343.804 130.079 340.86 131.999 340.86 134.239C340.86 134.559 340.924 134.879 340.988 135.263L341.372 136.287C341.436 136.479 341.436 136.735 341.436 136.927C341.436 138.399 340.348 139.551 338.876 139.551C337.404 139.551 336.316 138.399 336.316 136.799C336.316 132.447 341.756 128.735 348.092 128.735C354.556 128.735 357.82 131.231 357.756 136.287L357.628 154.911C357.628 157.919 358.14 158.815 359.868 158.815C360.892 158.815 361.468 158.367 362.492 156.959L363.132 157.663C361.084 160.479 359.548 161.503 357.436 161.503C354.94 161.503 353.724 159.775 353.724 155.487C349.564 159.903 346.428 161.631 342.524 161.631C337.98 161.631 334.46 158.495 334.46 154.399C334.46 147.743 340.092 145.439 353.532 142.047ZM353.532 154.015L353.596 143.263C342.204 146.335 338.812 148.319 338.812 152.927C338.812 156.063 341.82 158.879 345.276 158.879C348.028 158.879 349.884 157.983 353.532 154.015ZM362.565 130.911V129.887C368.261 127.071 369.221 125.983 370.757 119.903H371.781V129.183H379.205V130.911H371.781L371.845 153.887C371.845 156.895 372.421 159.007 375.109 159.007C377.157 159.007 378.309 157.983 379.653 154.847L380.613 154.975C378.885 159.007 377.093 161.375 373.189 161.375C369.477 161.375 367.813 159.135 367.813 154.143V130.911H362.565ZM404.7 142.047H383.9C383.708 143.199 383.644 144.095 383.644 144.735C383.644 151.967 388.572 157.919 394.46 157.919C399.452 157.919 402.524 154.847 404.124 149.215L405.148 149.407C403.676 156.383 400.412 161.375 393.052 161.375C385.244 161.375 379.868 154.783 379.868 145.375C379.868 135.647 385.308 128.735 393.052 128.735C399.708 128.735 403.932 132.959 404.7 142.047ZM384.86 136.415C384.54 137.311 384.22 138.463 383.964 139.679H399.9C398.876 132.895 395.868 130.271 392.092 130.271C388.956 130.271 386.012 132.703 384.86 136.415ZM10.065 186.911V185.887C15.761 183.071 16.721 181.983 18.257 175.903H19.281V185.183H26.705V186.911H19.281L19.345 209.887C19.345 212.895 19.921 215.007 22.609 215.007C24.657 215.007 25.809 213.983 27.153 210.847L28.113 210.975C26.385 215.007 24.593 217.375 20.689 217.375C16.977 217.375 15.313 215.135 15.313 210.143V186.911H10.065ZM25.5125 216.863V215.839C29.8645 215.839 31.0165 214.815 31.0805 210.975V193.247C31.0805 189.407 30.5045 188.767 28.3925 188.767C27.5605 188.767 27.0485 188.831 25.9605 189.279L25.7045 188.191L34.9845 184.543L34.8565 191.903C37.6085 186.847 40.2325 184.991 42.9845 184.991C44.9685 184.991 46.3125 186.143 46.3125 187.679C46.3125 189.023 45.1605 190.175 43.6245 190.175C42.0245 190.175 41.1925 188.383 39.8485 188.383C36.9685 188.383 35.0485 193.055 35.0485 196.063L34.9845 210.975C34.9845 214.495 35.7525 215.775 41.0005 215.903V216.863H25.5125ZM42.8975 188.191L52.2415 184.543V207.583C52.2415 212.447 54.8015 214.431 58.3855 214.431C61.2015 214.431 62.9935 213.727 68.2415 208.607L68.1775 193.247C68.1775 189.407 67.6655 188.767 65.5535 188.767C64.7215 188.767 64.1455 188.831 63.0575 189.279L62.8015 188.191L72.0815 184.543L72.2095 209.439C72.2095 212.319 73.2975 212.959 75.5375 212.959C75.9215 212.959 76.4335 212.959 77.3295 212.831L77.5215 213.727L68.1775 217.247V210.271C63.1855 215.775 60.5615 217.183 56.5935 217.183C52.1135 217.183 48.2735 215.071 48.2735 207.647V193.247C48.2735 189.343 47.6975 188.767 45.6495 188.767C44.8175 188.767 44.2415 188.831 43.1535 189.279L42.8975 188.191ZM96.7445 184.799H97.8965V194.975H96.8085C96.4245 187.999 94.1205 185.759 88.9365 185.759C84.9045 185.759 81.8325 187.999 81.8325 191.071C81.8325 194.143 84.9685 195.615 87.0165 196.895L89.4485 198.047C89.7685 198.175 90.6005 198.623 91.8805 199.199C97.3205 202.399 99.7525 203.615 99.7525 208.159C99.7525 213.663 95.1445 217.567 88.6805 217.567C86.5045 217.567 85.0325 217.247 82.7285 216.223C81.7045 215.775 81.3845 215.647 80.9365 215.647C80.3605 215.647 79.9765 216.159 79.9765 217.247H78.9525V205.855L80.1685 205.919C80.5525 213.727 82.9845 216.223 88.3605 216.223C92.7765 216.223 96.2965 213.343 96.2965 209.695C96.2965 207.327 95.5925 205.919 91.1125 203.423L89.0645 202.271L86.3765 200.991C81.3205 198.751 78.8885 196.319 78.8885 192.479C78.8885 187.871 82.9205 184.543 88.4885 184.543C90.6005 184.543 91.8805 184.927 94.0565 185.823L95.0165 186.207C95.2725 186.335 95.5285 186.399 95.7845 186.399C96.3605 186.399 96.7445 185.887 96.7445 184.799ZM100.293 186.911V185.887C105.989 183.071 106.949 181.983 108.485 175.903H109.509V185.183H116.933V186.911H109.509L109.573 209.887C109.573 212.895 110.149 215.007 112.837 215.007C114.885 215.007 116.037 213.983 117.381 210.847L118.341 210.975C116.613 215.007 114.821 217.375 110.917 217.375C107.205 217.375 105.541 215.135 105.541 210.143V186.911H100.293ZM147.347 190.687C145.299 186.335 144.659 184.287 144.659 180.703C144.659 174.367 148.499 170.015 154.195 170.015C159.123 170.015 162.515 173.343 162.515 178.079C162.515 183.391 160.147 185.311 151.763 190.175C156.051 198.239 157.331 200.159 163.155 207.327C166.227 202.591 168.787 196.511 168.787 192.479C168.787 189.471 168.467 188.447 163.731 188.319V187.295H178.003V188.383C174.099 188.767 172.755 188.831 171.091 193.247L168.467 200.159C167.443 202.847 166.739 204.319 164.243 208.223C168.787 212.767 170.387 214.239 173.139 214.239C175.699 214.239 177.299 213.087 178.771 210.143H179.667C178.003 214.623 176.083 217.247 171.411 217.247C167.955 217.247 166.355 216.351 161.427 211.487C157.523 215.391 153.747 217.503 147.987 217.503C139.923 217.503 134.419 212.767 134.419 205.983C134.419 200.159 136.979 196.831 147.347 190.687ZM160.275 210.527C153.875 203.039 152.531 200.927 148.051 192.159C141.075 195.807 138.451 199.071 138.451 204.575C138.451 210.655 143.123 214.943 149.779 214.943C154.067 214.943 157.011 213.407 160.275 210.527ZM148.307 179.103C148.307 181.983 149.011 184.223 151.059 188.639C157.843 185.055 159.187 182.303 159.187 177.823C159.187 173.855 157.267 171.487 154.067 171.487C150.611 171.487 148.307 174.495 148.307 179.103ZM216.122 198.047V192.671C216.122 189.151 215.29 186.079 209.85 186.079C206.394 186.079 203.45 187.999 203.45 190.239C203.45 190.559 203.514 190.879 203.578 191.263L203.962 192.287C204.026 192.479 204.026 192.735 204.026 192.927C204.026 194.399 202.938 195.551 201.466 195.551C199.994 195.551 198.906 194.399 198.906 192.799C198.906 188.447 204.346 184.735 210.682 184.735C217.146 184.735 220.41 187.231 220.346 192.287L220.218 210.911C220.218 213.919 220.73 214.815 222.458 214.815C223.482 214.815 224.058 214.367 225.082 212.959L225.722 213.663C223.674 216.479 222.138 217.503 220.026 217.503C217.53 217.503 216.314 215.775 216.314 211.487C212.154 215.903 209.018 217.631 205.114 217.631C200.57 217.631 197.05 214.495 197.05 210.399C197.05 203.743 202.682 201.439 216.122 198.047ZM216.122 210.015L216.186 199.263C204.794 202.335 201.402 204.319 201.402 208.927C201.402 212.063 204.41 214.879 207.866 214.879C210.618 214.879 212.474 213.983 216.122 210.015ZM225.155 188.191L234.499 184.543V207.583C234.499 212.447 237.059 214.431 240.643 214.431C243.459 214.431 245.251 213.727 250.499 208.607L250.435 193.247C250.435 189.407 249.923 188.767 247.811 188.767C246.979 188.767 246.403 188.831 245.315 189.279L245.059 188.191L254.339 184.543L254.467 209.439C254.467 212.319 255.555 212.959 257.795 212.959C258.179 212.959 258.691 212.959 259.587 212.831L259.779 213.727L250.435 217.247V210.271C245.443 215.775 242.819 217.183 238.851 217.183C234.371 217.183 230.531 215.071 230.531 207.647V193.247C230.531 189.343 229.955 188.767 227.907 188.767C227.075 188.767 226.499 188.831 225.411 189.279L225.155 188.191ZM259.29 186.911V185.887C264.986 183.071 265.946 181.983 267.482 175.903H268.506V185.183H275.93V186.911H268.506L268.57 209.887C268.57 212.895 269.146 215.007 271.834 215.007C273.882 215.007 275.034 213.983 276.378 210.847L277.338 210.975C275.61 215.007 273.818 217.375 269.914 217.375C266.202 217.375 264.538 215.135 264.538 210.143V186.911H259.29ZM276.156 200.799C276.156 191.199 282.3 184.543 291.196 184.543C300.028 184.543 305.98 191.135 305.98 200.991C305.98 210.847 299.964 217.567 291.068 217.567C282.428 217.567 276.156 210.527 276.156 200.799ZM280.636 199.647C280.636 208.991 285.82 216.095 292.092 216.095C297.788 216.095 301.436 211.039 301.436 203.167C301.436 193.247 296.764 185.951 290.492 185.951C284.604 185.951 280.636 191.391 280.636 199.647ZM307.31 216.863V215.839C311.534 215.839 312.686 214.815 312.686 210.975V193.247C312.686 189.343 312.11 188.767 310.062 188.767C309.23 188.767 308.654 188.831 307.566 189.279L307.31 188.191L316.654 184.543L316.526 191.775C321.646 186.335 324.142 184.799 328.238 184.799C330.798 184.799 333.038 185.759 334.574 187.487C336.174 189.279 336.494 190.495 336.494 194.655L336.43 210.975C336.43 214.815 337.518 215.839 341.806 215.839V216.863H327.15V215.839C331.374 215.775 332.462 214.815 332.462 210.911V192.351C332.27 189.663 329.902 187.679 326.51 187.679C323.118 187.679 321.262 189.087 316.59 193.311V210.975C316.59 214.815 317.614 215.839 321.966 215.839V216.863H307.31ZM342.738 200.799C342.738 191.199 348.882 184.543 357.778 184.543C366.61 184.543 372.562 191.135 372.562 200.991C372.562 210.847 366.546 217.567 357.65 217.567C349.01 217.567 342.738 210.527 342.738 200.799ZM347.218 199.647C347.218 208.991 352.402 216.095 358.674 216.095C364.37 216.095 368.018 211.039 368.018 203.167C368.018 193.247 363.346 185.951 357.074 185.951C351.186 185.951 347.218 191.391 347.218 199.647ZM373.893 216.863V215.839C378.181 215.839 379.205 214.815 379.269 210.975V193.247C379.269 189.343 378.693 188.767 376.645 188.767C375.813 188.767 375.237 188.831 374.213 189.279L373.893 188.191L383.237 184.543L383.301 191.775C388.549 186.143 390.853 184.735 394.757 184.735C398.917 184.735 401.797 186.463 402.885 191.583C408.133 186.207 410.245 184.799 414.469 184.799C419.269 184.799 422.661 187.231 422.597 194.015L422.533 210.975C422.533 214.687 423.685 215.839 427.973 215.839V216.863H413.317V215.839C417.477 215.839 418.565 214.687 418.629 210.975V195.423C418.629 188.767 416.645 187.615 412.869 187.615C409.221 187.615 406.533 189.599 402.949 193.311V210.975C402.949 214.431 403.845 215.839 408.197 215.839V216.863H393.605V215.839C397.893 215.839 398.981 214.367 398.981 210.975L399.045 194.847C399.045 189.855 397.189 187.679 393.093 187.679C389.893 187.679 387.909 188.575 383.237 193.567L383.301 210.975C383.301 214.687 384.453 215.839 388.741 215.839V216.863H373.893ZM424.082 186.143V185.183H436.434V186.143H434.962C433.49 186.143 432.914 186.655 432.914 187.807C432.978 188.447 433.106 189.471 433.554 190.623L441.49 211.679L449.746 190.623C450.194 189.471 450.578 188.447 450.514 187.807C450.514 186.655 449.81 186.143 448.466 186.143H446.994V185.183H457.106V186.143H456.146C453.074 186.143 452.754 187.807 451.73 190.623L440.658 218.335C437.65 225.887 434.642 228.639 429.65 228.639C427.154 228.639 425.298 227.359 425.298 225.631C425.298 224.287 426.45 223.199 427.986 223.199C429.522 223.199 431.25 225.439 432.914 225.439C435.218 225.439 436.818 223.455 439.378 216.991L429.266 190.623C427.986 187.295 427.026 186.143 425.106 186.143H424.082Z" fill="#6B6B6B"/>
<path d="M34.8058 7.13068V49.3125H31.1396V7.13068H34.8058ZM53.0329 49.9716C50.3005 49.9716 47.8838 49.2782 45.7829 47.8913C43.6958 46.5045 42.0618 44.589 40.881 42.1449C39.7001 39.687 39.1096 36.8516 39.1096 33.6385C39.1096 30.398 39.7001 27.5488 40.881 25.0909C42.0618 22.6193 43.6958 20.697 45.7829 19.3239C47.8838 17.937 50.3005 17.2436 53.0329 17.2436C55.7654 17.2436 58.1752 17.937 60.2623 19.3239C62.3495 20.7107 63.9835 22.633 65.1643 25.0909C66.3589 27.5488 66.9562 30.398 66.9562 33.6385C66.9562 36.8516 66.3658 39.687 65.1849 42.1449C64.0041 44.589 62.3632 46.5045 60.2623 47.8913C58.1752 49.2782 55.7654 49.9716 53.0329 49.9716ZM53.0329 46.6143C55.2299 46.6143 57.0905 46.0239 58.6146 44.843C60.1388 43.6622 61.2922 42.09 62.0748 40.1264C62.8712 38.1629 63.2694 36.0002 63.2694 33.6385C63.2694 31.2768 62.8712 29.1072 62.0748 27.13C61.2922 25.1527 60.1388 23.5668 58.6146 22.3722C57.0905 21.1776 55.2299 20.5803 53.0329 20.5803C50.8497 20.5803 48.9891 21.1776 47.4513 22.3722C45.9271 23.5668 44.7668 25.1527 43.9704 27.13C43.1878 29.1072 42.7964 31.2768 42.7964 33.6385C42.7964 36.0002 43.1878 38.1629 43.9704 40.1264C44.7668 42.09 45.9271 43.6622 47.4513 44.843C48.9754 46.0239 50.836 46.6143 53.0329 46.6143ZM83.5923 49.9716C80.7637 49.9716 78.299 49.2644 76.1981 47.8501C74.111 46.4358 72.4907 44.4998 71.3373 42.0419C70.1839 39.584 69.6072 36.7829 69.6072 33.6385C69.6072 30.4666 70.1908 27.6449 71.3579 25.1733C72.5388 22.7017 74.1728 20.7656 76.2599 19.3651C78.347 17.9508 80.7706 17.2436 83.5305 17.2436C85.6451 17.2436 87.5606 17.6555 89.277 18.4794C90.9933 19.2895 92.4076 20.4361 93.5199 21.919C94.6458 23.3883 95.353 25.1046 95.6413 27.0682H91.9339C91.5495 25.2831 90.6226 23.759 89.1534 22.4957C87.6979 21.2188 85.8442 20.5803 83.5923 20.5803C81.5738 20.5803 79.7888 21.1295 78.2372 22.228C76.6856 23.3127 75.4704 24.83 74.5916 26.7798C73.7265 28.7159 73.294 30.9609 73.294 33.5149C73.294 36.0826 73.7197 38.3551 74.571 40.3324C75.4223 42.2959 76.6169 43.8338 78.1548 44.946C79.7064 46.0582 81.5189 46.6143 83.5923 46.6143C84.9929 46.6143 86.2699 46.3535 87.4233 45.8317C88.5904 45.2962 89.5653 44.541 90.348 43.5661C91.1444 42.5911 91.6799 41.4309 91.9545 40.0852H95.6619C95.3873 41.9938 94.7076 43.6965 93.6228 45.1932C92.5518 46.6761 91.1581 47.8433 89.4417 48.6946C87.7391 49.5459 85.7893 49.9716 83.5923 49.9716ZM108.585 50.0334C106.677 50.0334 104.933 49.6626 103.354 48.9212C101.775 48.166 100.518 47.0812 99.5847 45.6669C98.651 44.2389 98.1842 42.5088 98.1842 40.4766C98.1842 38.9112 98.4794 37.593 99.0698 36.522C99.6603 35.451 100.498 34.5722 101.583 33.8857C102.667 33.1991 103.951 32.6567 105.434 32.2585C106.917 31.8603 108.551 31.5514 110.336 31.3317C112.107 31.112 113.604 30.9197 114.826 30.755C116.062 30.5902 117.003 30.3293 117.648 29.9723C118.293 29.6153 118.616 29.0386 118.616 28.2422V27.5007C118.616 25.3449 117.971 23.6491 116.68 22.4134C115.403 21.1638 113.563 20.5391 111.16 20.5391C108.881 20.5391 107.02 21.0402 105.578 22.0426C104.15 23.045 103.148 24.2259 102.571 25.5852L99.0904 24.3288C99.8044 22.5987 100.793 21.2188 102.056 20.1889C103.32 19.1454 104.734 18.397 106.299 17.9439C107.865 17.477 109.451 17.2436 111.057 17.2436C112.265 17.2436 113.522 17.4015 114.826 17.7173C116.144 18.0331 117.366 18.5824 118.492 19.3651C119.618 20.134 120.531 21.2119 121.232 22.5987C121.932 23.9718 122.282 25.7157 122.282 27.8303V49.3125H118.616V44.3075H118.389C117.95 45.2412 117.298 46.1475 116.433 47.0263C115.568 47.9051 114.483 48.6259 113.178 49.1889C111.874 49.7519 110.343 50.0334 108.585 50.0334ZM109.08 46.6761C111.03 46.6761 112.718 46.2436 114.147 45.3786C115.575 44.5135 116.673 43.367 117.442 41.9389C118.225 40.4972 118.616 38.9112 118.616 37.1811V32.6087C118.341 32.8696 117.881 33.103 117.236 33.3089C116.604 33.5149 115.87 33.7003 115.032 33.8651C114.208 34.0161 113.384 34.1465 112.561 34.2564C111.737 34.3662 110.995 34.4624 110.336 34.5447C108.551 34.7644 107.027 35.1077 105.764 35.5746C104.5 36.0414 103.532 36.6868 102.86 37.5107C102.187 38.3208 101.85 39.3643 101.85 40.6413C101.85 42.5637 102.537 44.0535 103.91 45.1108C105.283 46.1544 107.006 46.6761 109.08 46.6761ZM131.931 7.13068V49.3125H128.265V7.13068H131.931ZM154.936 29.4986V32.9588H137.388V29.4986H154.936ZM173.39 17.6761V20.8686H157.84V17.6761H173.39ZM162.701 49.3125V13.0419C162.701 11.3393 163.092 9.90436 163.875 8.73722C164.671 7.57008 165.708 6.68442 166.985 6.08026C168.262 5.47609 169.614 5.17401 171.042 5.17401C172.003 5.17401 172.8 5.25639 173.431 5.42117C174.077 5.57221 174.585 5.72325 174.955 5.87429L173.884 9.08736C173.61 9.00497 173.273 8.90886 172.875 8.79901C172.477 8.68916 171.976 8.63424 171.372 8.63424C169.779 8.63424 168.55 9.08049 167.685 9.97301C166.82 10.8655 166.387 12.1425 166.387 13.804L166.367 49.3125H162.701ZM176.978 49.3125V17.6761H180.665V49.3125H176.978ZM178.853 12.2386C178.097 12.2386 177.452 11.9846 176.916 11.4766C176.381 10.9548 176.113 10.33 176.113 9.60227C176.113 8.87453 176.381 8.25663 176.916 7.74858C177.452 7.2268 178.097 6.96591 178.853 6.96591C179.608 6.96591 180.253 7.2268 180.789 7.74858C181.324 8.25663 181.592 8.87453 181.592 9.60227C181.592 10.33 181.324 10.9548 180.789 11.4766C180.253 11.9846 179.608 12.2386 178.853 12.2386ZM186.591 49.3125V17.6761H190.154V22.5369H190.422C191.053 20.9441 192.152 19.6603 193.717 18.6854C195.296 17.6967 197.081 17.2024 199.072 17.2024C199.375 17.2024 199.711 17.2093 200.082 17.223C200.452 17.2367 200.761 17.2505 201.009 17.2642V20.9922C200.844 20.9647 200.555 20.9235 200.143 20.8686C199.732 20.8137 199.285 20.7862 198.805 20.7862C197.157 20.7862 195.688 21.1364 194.397 21.8366C193.12 22.5232 192.111 23.4775 191.369 24.6996C190.628 25.9216 190.257 27.3153 190.257 28.8807V49.3125H186.591ZM224.75 24.6172L221.393 25.5646C221.064 24.6172 220.597 23.759 219.993 22.9901C219.388 22.2211 218.599 21.6101 217.624 21.157C216.663 20.7038 215.468 20.4773 214.04 20.4773C211.898 20.4773 210.141 20.9853 208.767 22.0014C207.394 23.0175 206.708 24.3288 206.708 25.9354C206.708 27.2947 207.175 28.4001 208.108 29.2514C209.056 30.089 210.511 30.755 212.475 31.2493L217.253 32.4233C219.903 33.0687 221.887 34.0916 223.206 35.4922C224.538 36.8928 225.204 38.6503 225.204 40.7649C225.204 42.55 224.709 44.1359 223.721 45.5227C222.732 46.9096 221.352 48.0012 219.581 48.7976C217.823 49.5803 215.784 49.9716 213.463 49.9716C210.374 49.9716 207.827 49.2782 205.822 47.8913C203.817 46.4908 202.534 44.4723 201.971 41.8359L205.493 40.9709C205.946 42.852 206.831 44.2732 208.15 45.2344C209.481 46.1955 211.232 46.6761 213.402 46.6761C215.832 46.6761 217.775 46.1338 219.231 45.049C220.686 43.9505 221.414 42.5774 221.414 40.9297C221.414 39.6527 220.988 38.5817 220.137 37.7166C219.285 36.8378 217.995 36.1925 216.265 35.7805L211.095 34.5447C208.349 33.8857 206.316 32.8421 204.998 31.4141C203.68 29.986 203.021 28.2147 203.021 26.1001C203.021 24.3563 203.495 22.8253 204.442 21.5071C205.39 20.1752 206.694 19.1316 208.356 18.3764C210.017 17.6212 211.912 17.2436 214.04 17.2436C216.937 17.2436 219.251 17.9027 220.981 19.2209C222.725 20.5253 223.981 22.3241 224.75 24.6172ZM241.922 17.6761V20.8686H226.825V17.6761H241.922ZM231.541 10.0966H235.228V41.0533C235.228 42.3714 235.455 43.4081 235.908 44.1634C236.361 44.9048 236.951 45.4335 237.679 45.7493C238.407 46.0514 239.183 46.2024 240.007 46.2024C240.487 46.2024 240.899 46.175 241.242 46.12C241.586 46.0514 241.888 45.9827 242.149 45.9141L242.931 49.2301C242.574 49.3674 242.135 49.491 241.613 49.6009C241.091 49.7244 240.446 49.7862 239.677 49.7862C238.331 49.7862 237.034 49.491 235.784 48.9006C234.548 48.3101 233.532 47.4313 232.736 46.2642C231.94 45.0971 231.541 43.6484 231.541 41.9183V10.0966ZM259.062 49.3125V17.6761H262.749V49.3125H259.062ZM260.936 12.2386C260.181 12.2386 259.536 11.9846 259 11.4766C258.465 10.9548 258.197 10.33 258.197 9.60227C258.197 8.87453 258.465 8.25663 259 7.74858C259.536 7.2268 260.181 6.96591 260.936 6.96591C261.691 6.96591 262.337 7.2268 262.872 7.74858C263.408 8.25663 263.675 8.87453 263.675 9.60227C263.675 10.33 263.408 10.9548 262.872 11.4766C262.337 11.9846 261.691 12.2386 260.936 12.2386ZM272.341 29.5398V49.3125H268.674V17.6761H272.238V22.6399H272.567C273.309 21.0197 274.462 19.7221 276.027 18.7472C277.607 17.7585 279.556 17.2642 281.877 17.2642C284.005 17.2642 285.873 17.7105 287.479 18.603C289.099 19.4818 290.356 20.7794 291.248 22.4957C292.155 24.2121 292.608 26.3198 292.608 28.8189V49.3125H288.942V29.0455C288.942 26.4503 288.214 24.3975 286.758 22.8871C285.317 21.3767 283.38 20.6214 280.95 20.6214C279.289 20.6214 277.813 20.9785 276.522 21.6925C275.231 22.4065 274.208 23.4363 273.453 24.782C272.711 26.1139 272.341 27.6998 272.341 29.5398ZM310.953 17.6761V20.8686H295.856V17.6761H310.953ZM300.573 10.0966H304.259V41.0533C304.259 42.3714 304.486 43.4081 304.939 44.1634C305.392 44.9048 305.983 45.4335 306.71 45.7493C307.438 46.0514 308.214 46.2024 309.038 46.2024C309.518 46.2024 309.93 46.175 310.274 46.12C310.617 46.0514 310.919 45.9827 311.18 45.9141L311.963 49.2301C311.606 49.3674 311.166 49.491 310.644 49.6009C310.123 49.7244 309.477 49.7862 308.708 49.7862C307.363 49.7862 306.065 49.491 304.816 48.9006C303.58 48.3101 302.564 47.4313 301.767 46.2642C300.971 45.0971 300.573 43.6484 300.573 41.9183V10.0966ZM327.96 49.9716C325.008 49.9716 322.454 49.285 320.298 47.9119C318.142 46.5251 316.474 44.6096 315.293 42.1655C314.126 39.7076 313.543 36.879 313.543 33.6797C313.543 30.4941 314.126 27.6655 315.293 25.1939C316.474 22.7086 318.101 20.7656 320.175 19.3651C322.262 17.9508 324.672 17.2436 327.404 17.2436C329.12 17.2436 330.775 17.5594 332.368 18.1911C333.961 18.8089 335.389 19.7633 336.652 21.054C337.929 22.331 338.938 23.9444 339.68 25.8942C340.421 27.8303 340.792 30.1233 340.792 32.7734V34.5859H316.076V31.3523H337.043C337.043 29.3201 336.631 27.4938 335.807 25.8736C334.997 24.2396 333.865 22.9489 332.409 22.0014C330.967 21.054 329.299 20.5803 327.404 20.5803C325.399 20.5803 323.635 21.1158 322.111 22.1868C320.587 23.2578 319.392 24.6721 318.527 26.4297C317.676 28.1873 317.243 30.1096 317.229 32.1967V34.1328C317.229 36.6456 317.662 38.8426 318.527 40.7237C319.406 42.5911 320.648 44.0398 322.255 45.0696C323.861 46.0994 325.763 46.6143 327.96 46.6143C329.457 46.6143 330.768 46.3809 331.894 45.9141C333.034 45.4472 333.988 44.8224 334.757 44.0398C335.54 43.2434 336.13 42.3714 336.528 41.424L340.009 42.5568C339.529 43.8887 338.739 45.1177 337.641 46.2436C336.556 47.3696 335.196 48.2758 333.562 48.9624C331.942 49.6352 330.075 49.9716 327.96 49.9716ZM345.101 49.3125V17.6761H348.664V22.5369H348.932C349.563 20.9441 350.662 19.6603 352.227 18.6854C353.806 17.6967 355.591 17.2024 357.582 17.2024C357.884 17.2024 358.221 17.2093 358.592 17.223C358.962 17.2367 359.271 17.2505 359.518 17.2642V20.9922C359.354 20.9647 359.065 20.9235 358.653 20.8686C358.241 20.8137 357.795 20.7862 357.315 20.7862C355.667 20.7862 354.198 21.1364 352.907 21.8366C351.63 22.5232 350.621 23.4775 349.879 24.6996C349.138 25.9216 348.767 27.3153 348.767 28.8807V49.3125H345.101ZM365.671 29.5398V49.3125H362.005V17.6761H365.568V22.6399H365.897C366.639 21.0197 367.792 19.7221 369.358 18.7472C370.937 17.7585 372.886 17.2642 375.207 17.2642C377.335 17.2642 379.203 17.7105 380.809 18.603C382.43 19.4818 383.686 20.7794 384.578 22.4957C385.485 24.2121 385.938 26.3198 385.938 28.8189V49.3125H382.272V29.0455C382.272 26.4503 381.544 24.3975 380.088 22.8871C378.647 21.3767 376.711 20.6214 374.28 20.6214C372.619 20.6214 371.143 20.9785 369.852 21.6925C368.561 22.4065 367.538 23.4363 366.783 24.782C366.042 26.1139 365.671 27.6998 365.671 29.5398ZM404.613 49.9716C401.661 49.9716 399.107 49.285 396.951 47.9119C394.795 46.5251 393.127 44.6096 391.946 42.1655C390.779 39.7076 390.195 36.879 390.195 33.6797C390.195 30.4941 390.779 27.6655 391.946 25.1939C393.127 22.7086 394.754 20.7656 396.827 19.3651C398.915 17.9508 401.324 17.2436 404.057 17.2436C405.773 17.2436 407.428 17.5594 409.021 18.1911C410.613 18.8089 412.041 19.7633 413.305 21.054C414.582 22.331 415.591 23.9444 416.332 25.8942C417.074 27.8303 417.445 30.1233 417.445 32.7734V34.5859H392.729V31.3523H413.696C413.696 29.3201 413.284 27.4938 412.46 25.8736C411.65 24.2396 410.517 22.9489 409.062 22.0014C407.62 21.054 405.952 20.5803 404.057 20.5803C402.052 20.5803 400.288 21.1158 398.764 22.1868C397.239 23.2578 396.045 24.6721 395.18 26.4297C394.328 28.1873 393.896 30.1096 393.882 32.1967V34.1328C393.882 36.6456 394.315 38.8426 395.18 40.7237C396.059 42.5911 397.301 44.0398 398.908 45.0696C400.514 46.0994 402.416 46.6143 404.613 46.6143C406.11 46.6143 407.421 46.3809 408.547 45.9141C409.687 45.4472 410.641 44.8224 411.41 44.0398C412.193 43.2434 412.783 42.3714 413.181 41.424L416.662 42.5568C416.181 43.8887 415.392 45.1177 414.293 46.2436C413.209 47.3696 411.849 48.2758 410.215 48.9624C408.595 49.6352 406.728 49.9716 404.613 49.9716ZM434.215 17.6761V20.8686H419.117V17.6761H434.215ZM423.834 10.0966H427.521V41.0533C427.521 42.3714 427.747 43.4081 428.2 44.1634C428.654 44.9048 429.244 45.4335 429.972 45.7493C430.699 46.0514 431.475 46.2024 432.299 46.2024C432.78 46.2024 433.192 46.175 433.535 46.12C433.878 46.0514 434.18 45.9827 434.441 45.9141L435.224 49.2301C434.867 49.3674 434.427 49.491 433.906 49.6009C433.384 49.7244 432.739 49.7862 431.97 49.7862C430.624 49.7862 429.326 49.491 428.077 48.9006C426.841 48.3101 425.825 47.4313 425.029 46.2642C424.232 45.0971 423.834 43.6484 423.834 41.9183V10.0966Z" fill="#D4D4D4"/>
</svg>
