<svg width="464" height="229" viewBox="0 0 464 229" fill="none" xmlns="http://www.w3.org/2000/svg">
<path d="M124.079 74.5988V72.8708H129.647L129.711 68.9668C129.839 62.1188 133.679 57.7668 140.143 57.7668C144.623 57.7668 149.295 60.4548 149.295 63.2068C149.295 64.3588 148.335 65.3188 147.055 65.3188C143.599 65.3188 145.071 59.0468 139.695 59.0468C135.663 59.0468 133.615 62.1188 133.551 67.9428L133.487 72.8708H140.719V74.5988H133.551V98.6628C133.551 102.503 134.703 103.527 138.991 103.527V104.551H124.207V103.527C128.431 103.527 129.647 102.375 129.647 98.6628L129.711 74.5988H124.079ZM140.872 88.4868C140.872 78.8868 147.016 72.2308 155.912 72.2308C164.744 72.2308 170.696 78.8228 170.696 88.6788C170.696 98.5348 164.68 105.255 155.784 105.255C147.144 105.255 140.872 98.2148 140.872 88.4868ZM145.352 87.3348C145.352 96.6788 150.536 103.783 156.808 103.783C162.504 103.783 166.152 98.7268 166.152 90.8548C166.152 80.9348 161.48 73.6388 155.208 73.6388C149.32 73.6388 145.352 79.0788 145.352 87.3348ZM172.026 104.551V103.527C176.378 103.527 177.53 102.503 177.594 98.6628V80.9348C177.594 77.0948 177.018 76.4548 174.906 76.4548C174.074 76.4548 173.562 76.5188 172.474 76.9668L172.218 75.8788L181.498 72.2308L181.37 79.5908C184.122 74.5348 186.746 72.6788 189.498 72.6788C191.482 72.6788 192.826 73.8308 192.826 75.3668C192.826 76.7108 191.674 77.8628 190.138 77.8628C188.538 77.8628 187.706 76.0708 186.362 76.0708C183.482 76.0708 181.562 80.7428 181.562 83.7508L181.498 98.6628C181.498 102.183 182.266 103.463 187.514 103.591V104.551H172.026ZM206.234 74.5988V73.5748C211.93 70.7588 212.89 69.6708 214.426 63.5908H215.45V72.8708H222.874V74.5988H215.45L215.514 97.5748C215.514 100.583 216.09 102.695 218.778 102.695C220.826 102.695 221.978 101.671 223.322 98.5348L224.282 98.6628C222.554 102.695 220.762 105.063 216.858 105.063C213.146 105.063 211.482 102.823 211.482 97.8308V74.5988H206.234ZM221.681 61.1588L230.961 57.5108L231.089 79.3348C235.633 74.2788 238.385 72.4228 242.417 72.4228C245.041 72.4228 247.473 73.5108 249.073 75.3028C250.609 76.9668 250.993 78.6948 250.993 82.9188L250.929 98.6628C250.929 102.311 251.761 103.527 256.305 103.527V104.551H241.585V103.527C245.873 103.527 247.025 102.503 247.025 98.6628L246.961 83.0468C246.961 76.4548 244.721 75.3028 240.881 75.3028C237.745 75.3028 235.889 76.0708 231.025 81.1908L231.089 98.6628C231.089 102.375 232.177 103.527 236.337 103.527V104.551H221.681V103.527C225.905 103.527 227.057 102.375 227.057 98.6628V66.2148C227.057 62.3748 226.481 61.6708 224.433 61.6708C223.601 61.6708 222.961 61.7988 221.937 62.1828L221.681 61.1588ZM257.235 88.4868C257.235 78.8868 263.379 72.2308 272.275 72.2308C281.107 72.2308 287.059 78.8228 287.059 88.6788C287.059 98.5348 281.043 105.255 272.147 105.255C263.507 105.255 257.235 98.2148 257.235 88.4868ZM261.715 87.3348C261.715 96.6788 266.899 103.783 273.171 103.783C278.867 103.783 282.515 98.7268 282.515 90.8548C282.515 80.9348 277.843 73.6388 271.571 73.6388C265.683 73.6388 261.715 79.0788 261.715 87.3348ZM308.101 72.4868H309.253V82.6628H308.165C307.781 75.6868 305.477 73.4468 300.293 73.4468C296.261 73.4468 293.189 75.6868 293.189 78.7588C293.189 81.8308 296.325 83.3028 298.373 84.5828L300.805 85.7348C301.125 85.8628 301.957 86.3108 303.237 86.8868C308.677 90.0868 311.109 91.3028 311.109 95.8468C311.109 101.351 306.501 105.255 300.037 105.255C297.861 105.255 296.389 104.935 294.085 103.911C293.061 103.463 292.741 103.335 292.293 103.335C291.717 103.335 291.333 103.847 291.333 104.935H290.309V93.5428L291.525 93.6068C291.909 101.415 294.341 103.911 299.717 103.911C304.133 103.911 307.653 101.031 307.653 97.3828C307.653 95.0148 306.949 93.6068 302.469 91.1108L300.421 89.9588L297.733 88.6788C292.677 86.4388 290.245 84.0068 290.245 80.1668C290.245 75.5588 294.277 72.2308 299.845 72.2308C301.957 72.2308 303.237 72.6148 305.413 73.5108L306.373 73.8948C306.629 74.0228 306.885 74.0868 307.141 74.0868C307.717 74.0868 308.101 73.5748 308.101 72.4868ZM338.774 85.7348H317.974C317.782 86.8868 317.718 87.7828 317.718 88.4228C317.718 95.6548 322.646 101.607 328.534 101.607C333.526 101.607 336.598 98.5348 338.198 92.9028L339.222 93.0948C337.75 100.071 334.486 105.063 327.126 105.063C319.318 105.063 313.942 98.4708 313.942 89.0628C313.942 79.3348 319.382 72.4228 327.126 72.4228C333.782 72.4228 338.006 76.6468 338.774 85.7348ZM318.934 80.1028C318.614 80.9988 318.294 82.1508 318.038 83.3668H333.974C332.95 76.5828 329.942 73.9588 326.166 73.9588C323.03 73.9588 320.086 76.3908 318.934 80.1028ZM54.889 129.831V128.871H66.985V129.831H65.833C64.105 129.831 63.721 130.087 63.721 131.367C63.721 132.071 64.041 133.095 64.489 134.311L72.105 154.087L78.505 137.255L77.353 134.311C75.817 130.791 74.921 129.831 73.129 129.831H72.105V128.871H84.457V129.831H82.921C81.513 129.831 80.809 130.407 80.809 131.495C80.809 132.199 81.001 133.223 81.513 134.311L89.321 154.471L97.001 134.311C97.449 133.159 97.705 132.135 97.705 131.495C97.705 130.343 97.001 129.831 95.593 129.831H94.121V128.871H104.041V129.831H102.953C101.161 129.831 100.073 130.919 98.793 134.311L88.809 160.551H87.529L79.465 139.687L71.465 160.551H70.441L60.265 134.311C58.985 130.919 57.961 129.831 56.041 129.831H54.889ZM100.84 117.159L110.12 113.511L110.248 135.335C114.792 130.279 117.544 128.423 121.576 128.423C124.2 128.423 126.632 129.511 128.232 131.303C129.768 132.967 130.152 134.695 130.152 138.919L130.088 154.663C130.088 158.311 130.92 159.527 135.464 159.527V160.551H120.744V159.527C125.032 159.527 126.184 158.503 126.184 154.663L126.12 139.047C126.12 132.455 123.88 131.303 120.04 131.303C116.904 131.303 115.048 132.071 110.184 137.191L110.248 154.663C110.248 158.375 111.336 159.527 115.496 159.527V160.551H100.84V159.527C105.064 159.527 106.216 158.375 106.216 154.663V122.215C106.216 118.375 105.64 117.671 103.592 117.671C102.76 117.671 102.12 117.799 101.096 118.183L100.84 117.159ZM136.393 144.487C136.393 134.887 142.537 128.231 151.433 128.231C160.265 128.231 166.217 134.823 166.217 144.679C166.217 154.535 160.201 161.255 151.305 161.255C142.665 161.255 136.393 154.215 136.393 144.487ZM140.873 143.335C140.873 152.679 146.057 159.783 152.329 159.783C158.025 159.783 161.673 154.727 161.673 146.855C161.673 136.935 157.001 129.639 150.729 129.639C144.841 129.639 140.873 135.079 140.873 143.335ZM212.018 148.775L212.914 148.967C210.418 157.991 205.938 160.935 200.178 160.935C192.178 160.935 186.226 154.279 186.226 145.191C186.226 135.911 192.882 128.487 201.138 128.487C206.578 128.487 211.506 132.135 211.506 135.975C211.506 137.447 210.354 138.535 208.818 138.535C207.282 138.535 206.066 137.447 206.066 135.911V135.783L206.13 134.055C206.258 131.559 203.89 129.767 200.818 129.767C194.802 129.767 190.642 135.463 190.642 143.591C190.642 151.783 195.122 157.863 201.394 157.863C205.618 157.863 209.33 155.367 212.018 148.775ZM238.943 141.735H218.143C217.951 142.887 217.887 143.783 217.887 144.423C217.887 151.655 222.815 157.607 228.703 157.607C233.695 157.607 236.767 154.535 238.367 148.903L239.391 149.095C237.919 156.071 234.655 161.063 227.295 161.063C219.487 161.063 214.111 154.471 214.111 145.063C214.111 135.335 219.551 128.423 227.295 128.423C233.951 128.423 238.175 132.647 238.943 141.735ZM219.103 136.103C218.783 136.999 218.463 138.151 218.207 139.367H234.143C233.119 132.583 230.111 129.959 226.335 129.959C223.199 129.959 220.255 132.391 219.103 136.103ZM240.078 117.159L249.422 113.511V154.663C249.422 158.503 250.574 159.527 254.734 159.527V160.551H240.142V159.527C244.494 159.527 245.454 158.119 245.454 154.855V154.663V122.215C245.454 118.311 244.942 117.671 242.83 117.671C241.998 117.671 241.422 117.799 240.334 118.183L240.078 117.159ZM280.963 141.735H260.163C259.971 142.887 259.907 143.783 259.907 144.423C259.907 151.655 264.835 157.607 270.723 157.607C275.715 157.607 278.787 154.535 280.387 148.903L281.411 149.095C279.939 156.071 276.675 161.063 269.315 161.063C261.507 161.063 256.131 154.471 256.131 145.063C256.131 135.335 261.571 128.423 269.315 128.423C275.971 128.423 280.195 132.647 280.963 141.735ZM261.123 136.103C260.803 136.999 260.483 138.151 260.227 139.367H276.163C275.139 132.583 272.131 129.959 268.355 129.959C265.219 129.959 262.275 132.391 261.123 136.103ZM281.65 117.159L290.994 113.511L291.058 135.527C294.194 131.111 297.522 128.487 302.066 128.487C308.85 128.487 314.034 134.631 314.034 142.695C314.034 152.871 306.994 161.127 298.29 161.127C294.962 161.127 292.082 160.103 287.09 157.607V122.215C287.09 118.375 286.578 117.671 284.402 117.671C283.634 117.671 283.058 117.799 282.034 118.183L281.65 117.159ZM291.058 138.727L290.994 155.815C293.362 158.567 295.922 159.783 298.674 159.783C305.01 159.783 309.49 153.127 309.49 143.975C309.49 136.295 305.906 131.431 300.082 131.431C295.922 131.431 291.058 135.335 291.058 138.727ZM315.357 160.551V159.527C319.709 159.527 320.861 158.503 320.925 154.663V136.935C320.925 133.095 320.349 132.455 318.237 132.455C317.405 132.455 316.893 132.519 315.805 132.967L315.549 131.879L324.829 128.231L324.701 135.591C327.453 130.535 330.077 128.679 332.83 128.679C334.813 128.679 336.157 129.831 336.157 131.367C336.157 132.711 335.005 133.863 333.469 133.863C331.869 133.863 331.038 132.071 329.693 132.071C326.813 132.071 324.893 136.743 324.893 139.751L324.829 154.663C324.829 158.183 325.597 159.463 330.845 159.591V160.551H315.357ZM353.532 141.735V136.359C353.532 132.839 352.7 129.767 347.26 129.767C343.804 129.767 340.86 131.687 340.86 133.927C340.86 134.247 340.924 134.567 340.988 134.951L341.372 135.975C341.436 136.167 341.436 136.423 341.436 136.615C341.436 138.087 340.348 139.239 338.876 139.239C337.404 139.239 336.316 138.087 336.316 136.487C336.316 132.135 341.756 128.423 348.092 128.423C354.556 128.423 357.82 130.919 357.756 135.975L357.628 154.599C357.628 157.607 358.14 158.503 359.868 158.503C360.892 158.503 361.468 158.055 362.492 156.647L363.132 157.351C361.084 160.167 359.548 161.191 357.436 161.191C354.94 161.191 353.724 159.463 353.724 155.175C349.564 159.591 346.428 161.319 342.524 161.319C337.98 161.319 334.46 158.183 334.46 154.087C334.46 147.431 340.092 145.127 353.532 141.735ZM353.532 153.703L353.596 142.951C342.204 146.023 338.812 148.007 338.812 152.615C338.812 155.751 341.82 158.567 345.276 158.567C348.028 158.567 349.884 157.671 353.532 153.703ZM362.565 130.599V129.575C368.261 126.759 369.221 125.671 370.757 119.591H371.781V128.871H379.205V130.599H371.781L371.845 153.575C371.845 156.583 372.421 158.695 375.109 158.695C377.157 158.695 378.309 157.671 379.653 154.535L380.613 154.663C378.885 158.695 377.093 161.063 373.189 161.063C369.477 161.063 367.813 158.823 367.813 153.831V130.599H362.565ZM404.7 141.735H383.9C383.708 142.887 383.644 143.783 383.644 144.423C383.644 151.655 388.572 157.607 394.46 157.607C399.452 157.607 402.524 154.535 404.124 148.903L405.148 149.095C403.676 156.071 400.412 161.063 393.052 161.063C385.244 161.063 379.868 154.471 379.868 145.063C379.868 135.335 385.308 128.423 393.052 128.423C399.708 128.423 403.932 132.647 404.7 141.735ZM384.86 136.103C384.54 136.999 384.22 138.151 383.964 139.367H399.9C398.876 132.583 395.868 129.959 392.092 129.959C388.956 129.959 386.012 132.391 384.86 136.103ZM10.065 186.599V185.575C15.761 182.759 16.721 181.671 18.257 175.591H19.281V184.871H26.705V186.599H19.281L19.345 209.575C19.345 212.583 19.921 214.695 22.609 214.695C24.657 214.695 25.809 213.671 27.153 210.535L28.113 210.663C26.385 214.695 24.593 217.063 20.689 217.063C16.977 217.063 15.313 214.823 15.313 209.831V186.599H10.065ZM25.5125 216.551V215.527C29.8645 215.527 31.0165 214.503 31.0805 210.663V192.935C31.0805 189.095 30.5045 188.455 28.3925 188.455C27.5605 188.455 27.0485 188.519 25.9605 188.967L25.7045 187.879L34.9845 184.231L34.8565 191.591C37.6085 186.535 40.2325 184.679 42.9845 184.679C44.9685 184.679 46.3125 185.831 46.3125 187.367C46.3125 188.711 45.1605 189.863 43.6245 189.863C42.0245 189.863 41.1925 188.071 39.8485 188.071C36.9685 188.071 35.0485 192.743 35.0485 195.751L34.9845 210.663C34.9845 214.183 35.7525 215.463 41.0005 215.591V216.551H25.5125ZM42.8975 187.879L52.2415 184.231V207.271C52.2415 212.135 54.8015 214.119 58.3855 214.119C61.2015 214.119 62.9935 213.415 68.2415 208.295L68.1775 192.935C68.1775 189.095 67.6655 188.455 65.5535 188.455C64.7215 188.455 64.1455 188.519 63.0575 188.967L62.8015 187.879L72.0815 184.231L72.2095 209.127C72.2095 212.007 73.2975 212.647 75.5375 212.647C75.9215 212.647 76.4335 212.647 77.3295 212.519L77.5215 213.415L68.1775 216.935V209.959C63.1855 215.463 60.5615 216.871 56.5935 216.871C52.1135 216.871 48.2735 214.759 48.2735 207.335V192.935C48.2735 189.031 47.6975 188.455 45.6495 188.455C44.8175 188.455 44.2415 188.519 43.1535 188.967L42.8975 187.879ZM96.7445 184.487H97.8965V194.663H96.8085C96.4245 187.687 94.1205 185.447 88.9365 185.447C84.9045 185.447 81.8325 187.687 81.8325 190.759C81.8325 193.831 84.9685 195.303 87.0165 196.583L89.4485 197.735C89.7685 197.863 90.6005 198.311 91.8805 198.887C97.3205 202.087 99.7525 203.303 99.7525 207.847C99.7525 213.351 95.1445 217.255 88.6805 217.255C86.5045 217.255 85.0325 216.935 82.7285 215.911C81.7045 215.463 81.3845 215.335 80.9365 215.335C80.3605 215.335 79.9765 215.847 79.9765 216.935H78.9525V205.543L80.1685 205.607C80.5525 213.415 82.9845 215.911 88.3605 215.911C92.7765 215.911 96.2965 213.031 96.2965 209.383C96.2965 207.015 95.5925 205.607 91.1125 203.111L89.0645 201.959L86.3765 200.679C81.3205 198.439 78.8885 196.007 78.8885 192.167C78.8885 187.559 82.9205 184.231 88.4885 184.231C90.6005 184.231 91.8805 184.615 94.0565 185.511L95.0165 185.895C95.2725 186.023 95.5285 186.087 95.7845 186.087C96.3605 186.087 96.7445 185.575 96.7445 184.487ZM100.293 186.599V185.575C105.989 182.759 106.949 181.671 108.485 175.591H109.509V184.871H116.933V186.599H109.509L109.573 209.575C109.573 212.583 110.149 214.695 112.837 214.695C114.885 214.695 116.037 213.671 117.381 210.535L118.341 210.663C116.613 214.695 114.821 217.063 110.917 217.063C107.205 217.063 105.541 214.823 105.541 209.831V186.599H100.293ZM147.347 190.375C145.299 186.023 144.659 183.975 144.659 180.391C144.659 174.055 148.499 169.703 154.195 169.703C159.123 169.703 162.515 173.031 162.515 177.767C162.515 183.079 160.147 184.999 151.763 189.863C156.051 197.927 157.331 199.847 163.155 207.015C166.227 202.279 168.787 196.199 168.787 192.167C168.787 189.159 168.467 188.135 163.731 188.007V186.983H178.003V188.071C174.099 188.455 172.755 188.519 171.091 192.935L168.467 199.847C167.443 202.535 166.739 204.007 164.243 207.911C168.787 212.455 170.387 213.927 173.139 213.927C175.699 213.927 177.299 212.775 178.771 209.831H179.667C178.003 214.311 176.083 216.935 171.411 216.935C167.955 216.935 166.355 216.039 161.427 211.175C157.523 215.079 153.747 217.191 147.987 217.191C139.923 217.191 134.419 212.455 134.419 205.671C134.419 199.847 136.979 196.519 147.347 190.375ZM160.275 210.215C153.875 202.727 152.531 200.615 148.051 191.847C141.075 195.495 138.451 198.759 138.451 204.263C138.451 210.343 143.123 214.631 149.779 214.631C154.067 214.631 157.011 213.095 160.275 210.215ZM148.307 178.791C148.307 181.671 149.011 183.911 151.059 188.327C157.843 184.743 159.187 181.991 159.187 177.511C159.187 173.543 157.267 171.175 154.067 171.175C150.611 171.175 148.307 174.183 148.307 178.791ZM216.122 197.735V192.359C216.122 188.839 215.29 185.767 209.85 185.767C206.394 185.767 203.45 187.687 203.45 189.927C203.45 190.247 203.514 190.567 203.578 190.951L203.962 191.975C204.026 192.167 204.026 192.423 204.026 192.615C204.026 194.087 202.938 195.239 201.466 195.239C199.994 195.239 198.906 194.087 198.906 192.487C198.906 188.135 204.346 184.423 210.682 184.423C217.146 184.423 220.41 186.919 220.346 191.975L220.218 210.599C220.218 213.607 220.73 214.503 222.458 214.503C223.482 214.503 224.058 214.055 225.082 212.647L225.722 213.351C223.674 216.167 222.138 217.191 220.026 217.191C217.53 217.191 216.314 215.463 216.314 211.175C212.154 215.591 209.018 217.319 205.114 217.319C200.57 217.319 197.05 214.183 197.05 210.087C197.05 203.431 202.682 201.127 216.122 197.735ZM216.122 209.703L216.186 198.951C204.794 202.023 201.402 204.007 201.402 208.615C201.402 211.751 204.41 214.567 207.866 214.567C210.618 214.567 212.474 213.671 216.122 209.703ZM225.155 187.879L234.499 184.231V207.271C234.499 212.135 237.059 214.119 240.643 214.119C243.459 214.119 245.251 213.415 250.499 208.295L250.435 192.935C250.435 189.095 249.923 188.455 247.811 188.455C246.979 188.455 246.403 188.519 245.315 188.967L245.059 187.879L254.339 184.231L254.467 209.127C254.467 212.007 255.555 212.647 257.795 212.647C258.179 212.647 258.691 212.647 259.587 212.519L259.779 213.415L250.435 216.935V209.959C245.443 215.463 242.819 216.871 238.851 216.871C234.371 216.871 230.531 214.759 230.531 207.335V192.935C230.531 189.031 229.955 188.455 227.907 188.455C227.075 188.455 226.499 188.519 225.411 188.967L225.155 187.879ZM259.29 186.599V185.575C264.986 182.759 265.946 181.671 267.482 175.591H268.506V184.871H275.93V186.599H268.506L268.57 209.575C268.57 212.583 269.146 214.695 271.834 214.695C273.882 214.695 275.034 213.671 276.378 210.535L277.338 210.663C275.61 214.695 273.818 217.063 269.914 217.063C266.202 217.063 264.538 214.823 264.538 209.831V186.599H259.29ZM276.156 200.487C276.156 190.887 282.3 184.231 291.196 184.231C300.028 184.231 305.98 190.823 305.98 200.679C305.98 210.535 299.964 217.255 291.068 217.255C282.428 217.255 276.156 210.215 276.156 200.487ZM280.636 199.335C280.636 208.679 285.82 215.783 292.092 215.783C297.788 215.783 301.436 210.727 301.436 202.855C301.436 192.935 296.764 185.639 290.492 185.639C284.604 185.639 280.636 191.079 280.636 199.335ZM307.31 216.551V215.527C311.534 215.527 312.686 214.503 312.686 210.663V192.935C312.686 189.031 312.11 188.455 310.062 188.455C309.23 188.455 308.654 188.519 307.566 188.967L307.31 187.879L316.654 184.231L316.526 191.463C321.646 186.023 324.142 184.487 328.238 184.487C330.798 184.487 333.038 185.447 334.574 187.175C336.174 188.967 336.494 190.183 336.494 194.343L336.43 210.663C336.43 214.503 337.518 215.527 341.806 215.527V216.551H327.15V215.527C331.374 215.463 332.462 214.503 332.462 210.599V192.039C332.27 189.351 329.902 187.367 326.51 187.367C323.118 187.367 321.262 188.775 316.59 192.999V210.663C316.59 214.503 317.614 215.527 321.966 215.527V216.551H307.31ZM342.738 200.487C342.738 190.887 348.882 184.231 357.778 184.231C366.61 184.231 372.562 190.823 372.562 200.679C372.562 210.535 366.546 217.255 357.65 217.255C349.01 217.255 342.738 210.215 342.738 200.487ZM347.218 199.335C347.218 208.679 352.402 215.783 358.674 215.783C364.37 215.783 368.018 210.727 368.018 202.855C368.018 192.935 363.346 185.639 357.074 185.639C351.186 185.639 347.218 191.079 347.218 199.335ZM373.893 216.551V215.527C378.181 215.527 379.205 214.503 379.269 210.663V192.935C379.269 189.031 378.693 188.455 376.645 188.455C375.813 188.455 375.237 188.519 374.213 188.967L373.893 187.879L383.237 184.231L383.301 191.463C388.549 185.831 390.853 184.423 394.757 184.423C398.917 184.423 401.797 186.151 402.885 191.271C408.133 185.895 410.245 184.487 414.469 184.487C419.269 184.487 422.661 186.919 422.597 193.703L422.533 210.663C422.533 214.375 423.685 215.527 427.973 215.527V216.551H413.317V215.527C417.477 215.527 418.565 214.375 418.629 210.663V195.111C418.629 188.455 416.645 187.303 412.869 187.303C409.221 187.303 406.533 189.287 402.949 192.999V210.663C402.949 214.119 403.845 215.527 408.197 215.527V216.551H393.605V215.527C397.893 215.527 398.981 214.055 398.981 210.663L399.045 194.535C399.045 189.543 397.189 187.367 393.093 187.367C389.893 187.367 387.909 188.263 383.237 193.255L383.301 210.663C383.301 214.375 384.453 215.527 388.741 215.527V216.551H373.893ZM424.082 185.831V184.871H436.434V185.831H434.962C433.49 185.831 432.914 186.343 432.914 187.495C432.978 188.135 433.106 189.159 433.554 190.311L441.49 211.367L449.746 190.311C450.194 189.159 450.578 188.135 450.514 187.495C450.514 186.343 449.81 185.831 448.466 185.831H446.994V184.871H457.106V185.831H456.146C453.074 185.831 452.754 187.495 451.73 190.311L440.658 218.023C437.65 225.575 434.642 228.327 429.65 228.327C427.154 228.327 425.298 227.047 425.298 225.319C425.298 223.975 426.45 222.887 427.986 222.887C429.522 222.887 431.25 225.127 432.914 225.127C435.218 225.127 436.818 223.143 439.378 216.679L429.266 190.311C427.986 186.983 427.026 185.831 425.106 185.831H424.082Z" fill="#6B6B6B"/>
<path d="M26.4358 49V6.81818H30.2874V45.5398H50.3897V49H26.4358ZM66.8249 49.6591C64.0925 49.6591 61.6758 48.9657 59.5749 47.5788C57.4878 46.192 55.8538 44.2765 54.6729 41.8324C53.4921 39.3745 52.9016 36.5391 52.9016 33.326C52.9016 30.0855 53.4921 27.2363 54.6729 24.7784C55.8538 22.3068 57.4878 20.3845 59.5749 19.0114C61.6758 17.6245 64.0925 16.9311 66.8249 16.9311C69.5574 16.9311 71.9672 17.6245 74.0543 19.0114C76.1415 20.3982 77.7755 22.3205 78.9563 24.7784C80.1509 27.2363 80.7482 30.0855 80.7482 33.326C80.7482 36.5391 80.1578 39.3745 78.9769 41.8324C77.796 44.2765 76.1552 46.192 74.0543 47.5788C71.9672 48.9657 69.5574 49.6591 66.8249 49.6591ZM66.8249 46.3018C69.0219 46.3018 70.8825 45.7114 72.4066 44.5305C73.9308 43.3497 75.0842 41.7775 75.8668 39.8139C76.6632 37.8504 77.0614 35.6877 77.0614 33.326C77.0614 30.9643 76.6632 28.7947 75.8668 26.8175C75.0842 24.8402 73.9308 23.2543 72.4066 22.0597C70.8825 20.8651 69.0219 20.2678 66.8249 20.2678C64.6417 20.2678 62.7811 20.8651 61.2433 22.0597C59.7191 23.2543 58.5588 24.8402 57.7624 26.8175C56.9798 28.7947 56.5884 30.9643 56.5884 33.326C56.5884 35.6877 56.9798 37.8504 57.7624 39.8139C58.5588 41.7775 59.7191 43.3497 61.2433 44.5305C62.7674 45.7114 64.628 46.3018 66.8249 46.3018ZM97.3843 49.6591C94.5557 49.6591 92.091 48.9519 89.9901 47.5376C87.903 46.1233 86.2827 44.1873 85.1293 41.7294C83.9759 39.2715 83.3992 36.4704 83.3992 33.326C83.3992 30.1541 83.9828 27.3324 85.1499 24.8608C86.3308 22.3892 87.9648 20.4531 90.0519 19.0526C92.139 17.6383 94.5626 16.9311 97.3225 16.9311C99.4371 16.9311 101.353 17.343 103.069 18.1669C104.785 18.977 106.2 20.1236 107.312 21.6065C108.438 23.0758 109.145 24.7921 109.433 26.7557H105.726C105.341 24.9706 104.415 23.4465 102.945 22.1832C101.49 20.9063 99.6362 20.2678 97.3843 20.2678C95.3658 20.2678 93.5808 20.817 92.0292 21.9155C90.4776 23.0002 89.2624 24.5175 88.3836 26.4673C87.5185 28.4034 87.086 30.6484 87.086 33.2024C87.086 35.7701 87.5117 38.0426 88.363 40.0199C89.2143 41.9834 90.4089 43.5213 91.9468 44.6335C93.4984 45.7457 95.3109 46.3018 97.3843 46.3018C98.7849 46.3018 100.062 46.041 101.215 45.5192C102.382 44.9837 103.357 44.2285 104.14 43.2536C104.936 42.2786 105.472 41.1184 105.747 39.7727H109.454C109.179 41.6813 108.5 43.384 107.415 44.8807C106.344 46.3636 104.95 47.5308 103.234 48.3821C101.531 49.2334 99.5813 49.6591 97.3843 49.6591ZM122.377 49.7209C120.469 49.7209 118.725 49.3501 117.146 48.6087C115.567 47.8535 114.31 46.7687 113.377 45.3544C112.443 43.9264 111.976 42.1963 111.976 40.1641C111.976 38.5987 112.271 37.2805 112.862 36.2095C113.452 35.1385 114.29 34.2597 115.375 33.5732C116.459 32.8866 117.743 32.3442 119.226 31.946C120.709 31.5478 122.343 31.2389 124.128 31.0192C125.899 30.7995 127.396 30.6072 128.618 30.4425C129.854 30.2777 130.795 30.0168 131.44 29.6598C132.085 29.3028 132.408 28.7261 132.408 27.9297V27.1882C132.408 25.0324 131.763 23.3366 130.472 22.1009C129.195 20.8513 127.355 20.2266 124.952 20.2266C122.673 20.2266 120.812 20.7277 119.37 21.7301C117.942 22.7325 116.94 23.9134 116.363 25.2727L112.882 24.0163C113.596 22.2862 114.585 20.9063 115.848 19.8764C117.112 18.8329 118.526 18.0845 120.091 17.6314C121.657 17.1645 123.242 16.9311 124.849 16.9311C126.057 16.9311 127.314 17.089 128.618 17.4048C129.936 17.7206 131.158 18.2699 132.284 19.0526C133.41 19.8215 134.323 20.8994 135.024 22.2862C135.724 23.6593 136.074 25.4032 136.074 27.5178V49H132.408V43.995H132.181C131.742 44.9287 131.09 45.835 130.225 46.7138C129.36 47.5926 128.275 48.3134 126.97 48.8764C125.666 49.4394 124.135 49.7209 122.377 49.7209ZM122.872 46.3636C124.822 46.3636 126.51 45.9311 127.939 45.0661C129.367 44.201 130.465 43.0545 131.234 41.6264C132.017 40.1847 132.408 38.5987 132.408 36.8686V32.2962C132.133 32.5571 131.673 32.7905 131.028 32.9964C130.396 33.2024 129.662 33.3878 128.824 33.5526C128 33.7036 127.176 33.834 126.353 33.9439C125.529 34.0537 124.787 34.1499 124.128 34.2322C122.343 34.4519 120.819 34.7952 119.556 35.2621C118.292 35.7289 117.324 36.3743 116.652 37.1982C115.979 38.0083 115.642 39.0518 115.642 40.3288C115.642 42.2512 116.329 43.741 117.702 44.7983C119.075 45.8419 120.798 46.3636 122.872 46.3636ZM145.723 6.81818V49H142.057V6.81818H145.723ZM177.213 17.3636V20.5561H161.663V17.3636H177.213ZM166.524 49V12.7294C166.524 11.0268 166.915 9.59186 167.698 8.42472C168.494 7.25758 169.531 6.37192 170.808 5.76776C172.085 5.16359 173.437 4.86151 174.865 4.86151C175.827 4.86151 176.623 4.94389 177.255 5.10867C177.9 5.25971 178.408 5.41075 178.779 5.56179L177.708 8.77486C177.433 8.69247 177.097 8.59636 176.698 8.48651C176.3 8.37666 175.799 8.32174 175.195 8.32174C173.602 8.32174 172.373 8.76799 171.508 9.66051C170.643 10.553 170.211 11.83 170.211 13.4915L170.19 49H166.524ZM180.802 49V17.3636H184.488V49H180.802ZM182.676 11.9261C181.921 11.9261 181.275 11.6721 180.74 11.1641C180.204 10.6423 179.936 10.0175 179.936 9.28977C179.936 8.56203 180.204 7.94413 180.74 7.43608C181.275 6.9143 181.921 6.65341 182.676 6.65341C183.431 6.65341 184.076 6.9143 184.612 7.43608C185.147 7.94413 185.415 8.56203 185.415 9.28977C185.415 10.0175 185.147 10.6423 184.612 11.1641C184.076 11.6721 183.431 11.9261 182.676 11.9261ZM190.414 49V17.3636H193.977V22.2244H194.245C194.877 20.6316 195.975 19.3478 197.541 18.3729C199.12 17.3842 200.905 16.8899 202.896 16.8899C203.198 16.8899 203.534 16.8968 203.905 16.9105C204.276 16.9242 204.585 16.938 204.832 16.9517V20.6797C204.667 20.6522 204.379 20.611 203.967 20.5561C203.555 20.5012 203.109 20.4737 202.628 20.4737C200.98 20.4737 199.511 20.8239 198.22 21.5241C196.943 22.2107 195.934 23.165 195.193 24.3871C194.451 25.6091 194.08 27.0028 194.08 28.5682V49H190.414ZM228.574 24.3047L225.216 25.2521C224.887 24.3047 224.42 23.4465 223.816 22.6776C223.212 21.9086 222.422 21.2976 221.447 20.8445C220.486 20.3913 219.291 20.1648 217.863 20.1648C215.721 20.1648 213.964 20.6728 212.591 21.6889C211.218 22.705 210.531 24.0163 210.531 25.6229C210.531 26.9822 210.998 28.0876 211.932 28.9389C212.879 29.7765 214.335 30.4425 216.298 30.9368L221.076 32.1108C223.727 32.7562 225.711 33.7791 227.029 35.1797C228.361 36.5803 229.027 38.3378 229.027 40.4524C229.027 42.2375 228.532 43.8234 227.544 45.2102C226.555 46.5971 225.175 47.6887 223.404 48.4851C221.646 49.2678 219.607 49.6591 217.287 49.6591C214.197 49.6591 211.65 48.9657 209.645 47.5788C207.641 46.1783 206.357 44.1598 205.794 41.5234L209.316 40.6584C209.769 42.5395 210.655 43.9607 211.973 44.9219C213.305 45.883 215.055 46.3636 217.225 46.3636C219.655 46.3636 221.598 45.8213 223.054 44.7365C224.509 43.638 225.237 42.2649 225.237 40.6172C225.237 39.3402 224.811 38.2692 223.96 37.4041C223.109 36.5253 221.818 35.88 220.088 35.468L214.918 34.2322C212.172 33.5732 210.14 32.5296 208.822 31.1016C207.503 29.6735 206.844 27.9022 206.844 25.7876C206.844 24.0438 207.318 22.5128 208.265 21.1946C209.213 19.8627 210.517 18.8191 212.179 18.0639C213.84 17.3087 215.735 16.9311 217.863 16.9311C220.761 16.9311 223.074 17.5902 224.804 18.9084C226.548 20.2128 227.805 22.0116 228.574 24.3047ZM245.745 17.3636V20.5561H230.648V17.3636H245.745ZM235.365 9.78409H239.051V40.7408C239.051 42.0589 239.278 43.0956 239.731 43.8509C240.184 44.5923 240.775 45.121 241.502 45.4368C242.23 45.7389 243.006 45.8899 243.83 45.8899C244.31 45.8899 244.722 45.8625 245.066 45.8075C245.409 45.7389 245.711 45.6702 245.972 45.6016L246.754 48.9176C246.397 49.0549 245.958 49.1785 245.436 49.2884C244.914 49.4119 244.269 49.4737 243.5 49.4737C242.155 49.4737 240.857 49.1785 239.607 48.5881C238.372 47.9976 237.356 47.1188 236.559 45.9517C235.763 44.7846 235.365 43.3359 235.365 41.6058V9.78409ZM267.458 6.81818V49H263.606V6.81818H267.458ZM277.807 29.2273V49H274.14V17.3636H277.704V22.3274H278.033C278.775 20.7072 279.928 19.4096 281.493 18.4347C283.072 17.446 285.022 16.9517 287.343 16.9517C289.471 16.9517 291.338 17.398 292.945 18.2905C294.565 19.1693 295.822 20.4669 296.714 22.1832C297.62 23.8996 298.074 26.0073 298.074 28.5064V49H294.407V28.733C294.407 26.1378 293.68 24.085 292.224 22.5746C290.782 21.0642 288.846 20.3089 286.416 20.3089C284.754 20.3089 283.278 20.666 281.988 21.38C280.697 22.094 279.674 23.1238 278.919 24.4695C278.177 25.8014 277.807 27.3873 277.807 29.2273ZM316.419 17.3636V20.5561H301.322V17.3636H316.419ZM306.038 9.78409H309.725V40.7408C309.725 42.0589 309.952 43.0956 310.405 43.8509C310.858 44.5923 311.448 45.121 312.176 45.4368C312.904 45.7389 313.68 45.8899 314.504 45.8899C314.984 45.8899 315.396 45.8625 315.739 45.8075C316.083 45.7389 316.385 45.6702 316.646 45.6016L317.428 48.9176C317.071 49.0549 316.632 49.1785 316.11 49.2884C315.588 49.4119 314.943 49.4737 314.174 49.4737C312.828 49.4737 311.531 49.1785 310.281 48.5881C309.046 47.9976 308.029 47.1188 307.233 45.9517C306.437 44.7846 306.038 43.3359 306.038 41.6058V9.78409ZM333.426 49.6591C330.474 49.6591 327.92 48.9725 325.764 47.5994C323.608 46.2126 321.94 44.2971 320.759 41.853C319.592 39.3951 319.008 36.5665 319.008 33.3672C319.008 30.1816 319.592 27.353 320.759 24.8814C321.94 22.3961 323.567 20.4531 325.64 19.0526C327.728 17.6383 330.137 16.9311 332.87 16.9311C334.586 16.9311 336.241 17.2469 337.834 17.8786C339.426 18.4964 340.854 19.4508 342.118 20.7415C343.395 22.0185 344.404 23.6319 345.145 25.5817C345.887 27.5178 346.258 29.8108 346.258 32.4609V34.2734H321.542V31.0398H342.509C342.509 29.0076 342.097 27.1813 341.273 25.5611C340.463 23.9271 339.33 22.6364 337.875 21.6889C336.433 20.7415 334.765 20.2678 332.87 20.2678C330.865 20.2678 329.101 20.8033 327.577 21.8743C326.052 22.9453 324.858 24.3596 323.993 26.1172C323.141 27.8748 322.709 29.7971 322.695 31.8842V33.8203C322.695 36.3331 323.128 38.5301 323.993 40.4112C324.872 42.2786 326.114 43.7273 327.721 44.7571C329.327 45.7869 331.229 46.3018 333.426 46.3018C334.923 46.3018 336.234 46.0684 337.36 45.6016C338.5 45.1347 339.454 44.5099 340.223 43.7273C341.006 42.9309 341.596 42.0589 341.994 41.1115L345.475 42.2443C344.994 43.5762 344.205 44.8052 343.106 45.9311C342.022 47.0571 340.662 47.9633 339.028 48.6499C337.408 49.3227 335.541 49.6591 333.426 49.6591ZM350.567 49V17.3636H354.13V22.2244H354.398C355.029 20.6316 356.128 19.3478 357.693 18.3729C359.272 17.3842 361.057 16.8899 363.048 16.8899C363.35 16.8899 363.687 16.8968 364.057 16.9105C364.428 16.9242 364.737 16.938 364.984 16.9517V20.6797C364.819 20.6522 364.531 20.611 364.119 20.5561C363.707 20.5012 363.261 20.4737 362.78 20.4737C361.133 20.4737 359.663 20.8239 358.373 21.5241C357.096 22.2107 356.087 23.165 355.345 24.3871C354.604 25.6091 354.233 27.0028 354.233 28.5682V49H350.567ZM371.137 29.2273V49H367.47V17.3636H371.034V22.3274H371.363C372.105 20.7072 373.258 19.4096 374.823 18.4347C376.403 17.446 378.352 16.9517 380.673 16.9517C382.801 16.9517 384.669 17.398 386.275 18.2905C387.895 19.1693 389.152 20.4669 390.044 22.1832C390.951 23.8996 391.404 26.0073 391.404 28.5064V49H387.737V28.733C387.737 26.1378 387.01 24.085 385.554 22.5746C384.112 21.0642 382.176 20.3089 379.746 20.3089C378.085 20.3089 376.608 20.666 375.318 21.38C374.027 22.094 373.004 23.1238 372.249 24.4695C371.507 25.8014 371.137 27.3873 371.137 29.2273ZM410.079 49.6591C407.127 49.6591 404.573 48.9725 402.417 47.5994C400.261 46.2126 398.593 44.2971 397.412 41.853C396.245 39.3951 395.661 36.5665 395.661 33.3672C395.661 30.1816 396.245 27.353 397.412 24.8814C398.593 22.3961 400.22 20.4531 402.293 19.0526C404.38 17.6383 406.79 16.9311 409.523 16.9311C411.239 16.9311 412.894 17.2469 414.486 17.8786C416.079 18.4964 417.507 19.4508 418.771 20.7415C420.048 22.0185 421.057 23.6319 421.798 25.5817C422.54 27.5178 422.91 29.8108 422.91 32.4609V34.2734H398.195V31.0398H419.162C419.162 29.0076 418.75 27.1813 417.926 25.5611C417.116 23.9271 415.983 22.6364 414.528 21.6889C413.086 20.7415 411.418 20.2678 409.523 20.2678C407.518 20.2678 405.754 20.8033 404.229 21.8743C402.705 22.9453 401.511 24.3596 400.646 26.1172C399.794 27.8748 399.362 29.7971 399.348 31.8842V33.8203C399.348 36.3331 399.781 38.5301 400.646 40.4112C401.524 42.2786 402.767 43.7273 404.374 44.7571C405.98 45.7869 407.882 46.3018 410.079 46.3018C411.575 46.3018 412.887 46.0684 414.013 45.6016C415.152 45.1347 416.107 44.5099 416.876 43.7273C417.658 42.9309 418.249 42.0589 418.647 41.1115L422.128 42.2443C421.647 43.5762 420.858 44.8052 419.759 45.9311C418.674 47.0571 417.315 47.9633 415.681 48.6499C414.061 49.3227 412.193 49.6591 410.079 49.6591ZM439.68 17.3636V20.5561H424.583V17.3636H439.68ZM429.3 9.78409H432.987V40.7408C432.987 42.0589 433.213 43.0956 433.666 43.8509C434.119 44.5923 434.71 45.121 435.438 45.4368C436.165 45.7389 436.941 45.8899 437.765 45.8899C438.246 45.8899 438.658 45.8625 439.001 45.8075C439.344 45.7389 439.646 45.6702 439.907 45.6016L440.69 48.9176C440.333 49.0549 439.893 49.1785 439.372 49.2884C438.85 49.4119 438.204 49.4737 437.435 49.4737C436.09 49.4737 434.792 49.1785 433.543 48.5881C432.307 47.9976 431.291 47.1188 430.494 45.9517C429.698 44.7846 429.3 43.3359 429.3 41.6058V9.78409Z" fill="#D4D4D4"/>
</svg>
