<svg width="464" height="231" viewBox="0 0 464 231" fill="none" xmlns="http://www.w3.org/2000/svg">
<path d="M123.86 76.8708H129.428L129.492 72.9668C129.492 69.5534 130.41 66.8441 132.244 64.8388C134.122 62.7908 136.682 61.7668 139.924 61.7668C141.93 61.7668 143.914 62.2574 145.877 63.2388C146.858 63.7934 147.626 64.4334 148.181 65.1588C148.778 65.8414 149.076 66.5241 149.076 67.2068C149.076 67.7614 148.863 68.2521 148.437 68.6788C148.01 69.1054 147.477 69.3188 146.837 69.3188C145.429 69.3188 144.469 68.3801 143.957 66.5028L143.764 65.6708L143.316 64.7748C142.591 63.6228 141.311 63.0468 139.476 63.0468C135.38 63.0468 133.332 66.0121 133.332 71.9428L133.268 76.8708H140.5V78.5988H133.332V102.663C133.332 104.583 133.695 105.884 134.42 106.567C135.188 107.207 136.639 107.527 138.772 107.527V108.551H123.988V107.527C126.079 107.527 127.508 107.185 128.276 106.503C129.044 105.82 129.428 104.54 129.428 102.663L129.492 78.5988H123.796L123.86 76.8708ZM156.131 76.2308C160.568 76.2308 164.131 77.7454 166.819 80.7748C169.55 83.7614 170.915 87.7294 170.915 92.6788C170.915 97.6281 169.528 101.639 166.755 104.711C164.024 107.74 160.44 109.255 156.003 109.255C151.694 109.255 148.131 107.676 145.315 104.519C142.499 101.361 141.091 97.3508 141.091 92.4868C141.091 87.7081 142.478 83.8041 145.251 80.7748C148.024 77.7454 151.651 76.2308 156.131 76.2308ZM145.635 92.8068C145.635 97.0734 146.744 100.636 148.963 103.495C151.224 106.353 153.912 107.783 157.027 107.783C159.843 107.783 162.104 106.609 163.811 104.263C165.518 101.916 166.371 98.7801 166.371 94.8548C166.371 89.8628 165.347 85.7454 163.299 82.5028C161.251 79.2601 158.627 77.6388 155.427 77.6388C152.483 77.6388 150.094 78.8974 148.259 81.4148C146.467 83.8894 145.571 87.1961 145.571 91.3348L145.635 92.8068ZM172.245 107.527C174.464 107.527 175.936 107.207 176.661 106.567C177.429 105.884 177.813 104.583 177.813 102.663V101.511V84.9348C177.813 83.3561 177.685 82.2254 177.429 81.5428C177.173 80.8174 176.405 80.4548 175.125 80.4548C174.656 80.4548 174.272 80.4761 173.973 80.5188C173.717 80.5614 173.29 80.7108 172.693 80.9668L172.437 79.8788L181.717 76.2308L181.589 83.5908C182.826 81.2868 184.021 79.6654 185.173 78.7268C186.581 77.3614 188.096 76.6788 189.717 76.6788C190.698 76.6788 191.488 76.9348 192.085 77.4468C192.725 77.9161 193.045 78.5561 193.045 79.3668C193.045 80.0494 192.768 80.6468 192.213 81.1588C191.701 81.6281 191.082 81.8628 190.357 81.8628C189.546 81.8628 188.821 81.5428 188.181 80.9028C187.797 80.3481 187.264 80.0708 186.581 80.0708C186.026 80.0708 185.386 80.3481 184.661 80.9028C183.936 81.4574 183.274 82.3748 182.677 83.6548C182.08 84.9348 181.781 86.3001 181.781 87.7508L181.717 102.663C181.717 104.753 182.101 106.055 182.869 106.567C183.68 107.036 184.384 107.335 184.981 107.463C185.621 107.548 186.538 107.591 187.733 107.591V108.551H172.245V107.527ZM206.453 77.5748C209.269 76.1668 211.146 74.9081 212.085 73.7988C213.023 72.6468 213.877 70.5774 214.645 67.5908H215.797L215.669 76.8708H223.093V78.5988H215.669L215.733 101.575C215.733 102.599 215.775 103.473 215.861 104.199C215.989 104.924 216.351 105.521 216.949 105.991C217.546 106.46 218.229 106.695 218.997 106.695C219.978 106.695 220.81 106.396 221.493 105.799C222.175 105.159 222.858 104.071 223.541 102.535L224.501 102.663L223.477 104.967C222.069 107.697 219.935 109.063 217.077 109.063C213.493 109.063 211.701 106.652 211.701 101.831V78.5988H206.453V77.5748ZM231.18 61.5108L231.308 83.3348C232.289 82.2254 233.121 81.3294 233.804 80.6468C234.529 79.9641 235.596 79.0894 237.004 78.0228C238.412 76.9561 240.289 76.4228 242.636 76.4228C243.916 76.4228 245.132 76.6788 246.284 77.1908C247.479 77.7028 248.46 78.3854 249.228 79.2388C250.039 80.0921 250.572 81.0521 250.828 82.1188C251.084 83.1428 251.212 84.7428 251.212 86.9188L251.148 102.663C251.148 104.753 251.575 106.097 252.428 106.695C253.281 107.249 254.647 107.527 256.524 107.527V108.551H241.804V107.527C243.937 107.527 245.367 107.207 246.092 106.567C246.86 105.884 247.244 104.583 247.244 102.663L247.18 87.0468C247.18 85.5108 247.137 84.3801 247.052 83.6548C247.009 82.9294 246.561 82.0334 245.708 80.9668C244.897 79.8574 243.361 79.3028 241.1 79.3028C239.436 79.3028 238.028 79.6441 236.876 80.3268C235.767 81.0094 234.849 81.6708 234.124 82.3108C233.441 82.9081 232.481 83.8681 231.244 85.1908L231.308 102.663C231.308 104.583 231.649 105.884 232.332 106.567C233.057 107.207 234.465 107.527 236.556 107.527V108.551H221.9V107.527C223.991 107.527 225.399 107.207 226.124 106.567C226.892 105.884 227.276 104.583 227.276 102.663V101.063V70.2148C227.276 68.6361 227.148 67.4841 226.892 66.7588C226.636 66.0334 225.889 65.6708 224.652 65.6708C223.884 65.6708 223.052 65.8414 222.156 66.1828L221.9 65.1588L231.18 61.5108ZM272.493 76.2308C276.931 76.2308 280.493 77.7454 283.181 80.7748C285.912 83.7614 287.277 87.7294 287.277 92.6788C287.277 97.6281 285.891 101.639 283.117 104.711C280.387 107.74 276.803 109.255 272.365 109.255C268.056 109.255 264.493 107.676 261.677 104.519C258.861 101.361 257.453 97.3508 257.453 92.4868C257.453 87.7081 258.84 83.8041 261.613 80.7748C264.387 77.7454 268.013 76.2308 272.493 76.2308ZM261.997 92.8068C261.997 97.0734 263.107 100.636 265.325 103.495C267.587 106.353 270.275 107.783 273.389 107.783C276.205 107.783 278.467 106.609 280.173 104.263C281.88 101.916 282.733 98.7801 282.733 94.8548C282.733 89.8628 281.709 85.7454 279.661 82.5028C277.613 79.2601 274.989 77.6388 271.789 77.6388C268.845 77.6388 266.456 78.8974 264.621 81.4148C262.829 83.8894 261.933 87.1961 261.933 91.3348L261.997 92.8068ZM309.344 76.4868L309.472 86.6628H308.383C308.383 85.0841 308.255 83.8468 308 82.9508C307.786 82.0121 307.402 81.1161 306.847 80.2628C306.336 79.4094 305.525 78.7268 304.415 78.2148C303.306 77.7028 302.005 77.4468 300.511 77.4468C298.463 77.4468 296.757 77.9374 295.391 78.9188C294.069 79.9001 293.407 81.1801 293.407 82.7588C293.407 84.1668 293.749 85.1694 294.431 85.7668C295.157 86.3641 295.69 86.7908 296.031 87.0468C296.373 87.2601 296.607 87.4094 296.735 87.4948L298.591 88.5828L301.023 89.7348L303.455 90.8868L305.887 92.2308C309.514 94.1508 311.327 96.6894 311.327 99.8468C311.327 102.62 310.303 104.881 308.255 106.631C306.207 108.38 303.541 109.255 300.255 109.255C299.061 109.255 298.079 109.169 297.311 108.999C296.586 108.828 295.669 108.508 294.559 108.039C293.493 107.569 292.81 107.335 292.511 107.335C291.871 107.335 291.551 107.868 291.551 108.935H290.591L290.527 97.5428L291.743 97.6068C291.743 99.4841 291.85 100.913 292.063 101.895C292.319 102.876 292.938 104.135 293.919 105.671C294.901 107.164 296.906 107.911 299.935 107.911C302.154 107.911 304.031 107.292 305.567 106.055C307.103 104.817 307.872 103.26 307.872 101.383C307.872 100.06 307.381 98.8228 306.399 97.6708C305.845 97.1161 305.247 96.6468 304.608 96.2628C304.01 95.8788 303.37 95.4948 302.687 95.1108L300.639 93.9588L297.951 92.6788C297.013 92.2521 296.117 91.8041 295.263 91.3348C294.41 90.8228 293.386 90.0761 292.191 89.0948C291.039 88.0708 290.463 86.4281 290.463 84.1668C290.463 81.8628 291.359 79.9641 293.151 78.4708C294.943 76.9774 297.247 76.2308 300.063 76.2308C301.173 76.2308 302.026 76.3161 302.623 76.4868C303.263 76.6148 304.266 76.9561 305.632 77.5108L306.591 77.8948L307.359 78.0868C307.999 78.0868 308.319 77.5321 308.319 76.4228L309.344 76.4868ZM318.193 89.7348C318.022 90.7588 317.937 91.6548 317.937 92.4228C317.937 96.0068 319.004 99.1001 321.137 101.703C323.27 104.305 325.809 105.607 328.753 105.607C330.417 105.607 331.932 105.18 333.297 104.327C334.705 103.559 335.75 102.684 336.433 101.703C337.116 100.679 337.777 99.0788 338.417 96.9028L339.441 97.0948C339.057 98.9294 338.609 100.508 338.097 101.831C337.329 104.049 335.964 105.82 334.001 107.143C332.081 108.423 329.862 109.063 327.345 109.063C323.462 109.063 320.284 107.591 317.809 104.647C315.377 101.66 314.161 97.7988 314.161 93.0628C314.161 88.1561 315.377 84.1668 317.809 81.0948C320.284 77.9801 323.462 76.4228 327.345 76.4228C329.862 76.4228 331.996 77.0841 333.745 78.4068C335.537 79.7294 336.796 81.2014 337.521 82.8228C338.246 84.4014 338.737 86.7054 338.993 89.7348H318.193ZM318.257 87.3668H334.193C333.894 85.4041 333.574 83.9748 333.233 83.0788C332.892 82.1401 332.145 81.0521 330.993 79.8148C329.841 78.5774 328.305 77.9588 326.385 77.9588C324.806 77.9588 323.356 78.5134 322.033 79.6228C320.71 80.7321 319.75 82.2254 319.153 84.1028L318.257 87.3668ZM55.1078 131.871H67.2038V132.831H66.0518C65.1984 132.831 64.6224 132.937 64.3238 133.151C64.0678 133.321 63.9398 133.727 63.9398 134.367C63.9398 135.092 64.1958 136.073 64.7078 137.311L72.3238 157.087L78.7238 140.255L77.5718 137.311C76.8038 135.561 76.1211 134.388 75.5238 133.791C74.9691 133.151 74.2438 132.831 73.3478 132.831H72.3238V131.871H84.6758V132.831H83.1398C81.7318 132.831 81.0278 133.385 81.0278 134.495C81.0278 135.391 81.2624 136.329 81.7318 137.311L89.5398 157.471L97.2198 137.311C97.2624 137.183 97.3904 136.777 97.6038 136.095C97.8171 135.412 97.9238 134.879 97.9238 134.495C97.9238 133.385 97.2198 132.831 95.8118 132.831H94.3398V131.871H104.26V132.831H103.172C102.276 132.831 101.508 133.172 100.868 133.855C100.27 134.495 99.6518 135.647 99.0118 137.311L89.0278 163.551H87.7478L79.6838 142.687L71.6838 163.551H70.6598L60.4838 137.311C59.8438 135.561 59.2251 134.388 58.6278 133.791C58.0304 133.151 57.2411 132.831 56.2598 132.831H55.1078V131.871ZM110.339 116.511L110.467 138.335C111.448 137.225 112.28 136.329 112.963 135.647C113.688 134.964 114.755 134.089 116.163 133.023C117.571 131.956 119.448 131.423 121.795 131.423C123.075 131.423 124.291 131.679 125.443 132.191C126.637 132.703 127.619 133.385 128.387 134.239C129.197 135.092 129.731 136.052 129.987 137.119C130.243 138.143 130.371 139.743 130.371 141.919L130.307 157.663C130.307 159.753 130.733 161.097 131.587 161.695C132.44 162.249 133.805 162.527 135.683 162.527V163.551H120.963V162.527C123.096 162.527 124.525 162.207 125.251 161.567C126.019 160.884 126.403 159.583 126.403 157.663L126.339 142.047C126.339 140.511 126.296 139.38 126.211 138.655C126.168 137.929 125.72 137.033 124.867 135.967C124.056 134.857 122.52 134.303 120.259 134.303C118.595 134.303 117.187 134.644 116.035 135.327C114.925 136.009 114.008 136.671 113.283 137.311C112.6 137.908 111.64 138.868 110.403 140.191L110.467 157.663C110.467 159.583 110.808 160.884 111.491 161.567C112.216 162.207 113.624 162.527 115.715 162.527V163.551H101.059V162.527C103.149 162.527 104.557 162.207 105.283 161.567C106.051 160.884 106.435 159.583 106.435 157.663V156.063V125.215C106.435 123.636 106.307 122.484 106.051 121.759C105.795 121.033 105.048 120.671 103.811 120.671C103.043 120.671 102.211 120.841 101.315 121.183L101.059 120.159L110.339 116.511ZM151.652 131.231C156.09 131.231 159.652 132.745 162.34 135.775C165.071 138.761 166.436 142.729 166.436 147.679C166.436 152.628 165.05 156.639 162.276 159.711C159.546 162.74 155.962 164.255 151.524 164.255C147.215 164.255 143.652 162.676 140.836 159.519C138.02 156.361 136.612 152.351 136.612 147.487C136.612 142.708 137.999 138.804 140.772 135.775C143.546 132.745 147.172 131.231 151.652 131.231ZM141.156 147.807C141.156 152.073 142.266 155.636 144.484 158.495C146.746 161.353 149.434 162.783 152.548 162.783C155.364 162.783 157.626 161.609 159.332 159.263C161.039 156.916 161.892 153.78 161.892 149.855C161.892 144.863 160.868 140.745 158.82 137.503C156.772 134.26 154.148 132.639 150.948 132.639C148.004 132.639 145.615 133.897 143.78 136.415C141.988 138.889 141.092 142.196 141.092 146.335L141.156 147.807ZM213.133 151.967C212.535 154.185 211.959 155.828 211.405 156.895C210.893 157.961 209.783 159.412 208.077 161.247C206.413 163.039 203.853 163.935 200.397 163.935C196.386 163.935 193.058 162.463 190.413 159.519C187.767 156.575 186.445 152.799 186.445 148.191C186.445 143.54 187.895 139.593 190.797 136.351C193.698 133.108 197.218 131.487 201.357 131.487C204.045 131.487 206.434 132.255 208.525 133.791C210.658 135.284 211.725 137.012 211.725 138.975C211.725 139.743 211.469 140.361 210.957 140.831C210.445 141.3 209.805 141.535 209.037 141.535C208.269 141.535 207.607 141.3 207.053 140.831C206.541 140.319 206.285 139.679 206.285 138.911L206.349 137.375V137.055C206.349 135.817 205.858 134.793 204.877 133.983C203.895 133.172 202.615 132.767 201.037 132.767C198.007 132.767 195.554 134.047 193.677 136.607C191.799 139.167 190.861 142.495 190.861 146.591C190.861 150.687 191.863 154.1 193.869 156.831C195.917 159.519 198.498 160.863 201.613 160.863C203.917 160.863 205.794 160.244 207.245 159.007C208.695 157.769 209.698 156.745 210.253 155.935C210.807 155.081 211.469 153.695 212.237 151.775L213.133 151.967ZM218.362 144.735C218.191 145.759 218.106 146.655 218.106 147.423C218.106 151.007 219.172 154.1 221.306 156.703C223.439 159.305 225.978 160.607 228.922 160.607C230.586 160.607 232.1 160.18 233.466 159.327C234.874 158.559 235.919 157.684 236.602 156.703C237.284 155.679 237.946 154.079 238.586 151.903L239.61 152.095C239.226 153.929 238.778 155.508 238.266 156.831C237.498 159.049 236.132 160.82 234.17 162.143C232.25 163.423 230.031 164.063 227.514 164.063C223.631 164.063 220.452 162.591 217.978 159.647C215.546 156.66 214.33 152.799 214.33 148.063C214.33 143.156 215.546 139.167 217.978 136.095C220.452 132.98 223.631 131.423 227.514 131.423C230.031 131.423 232.164 132.084 233.914 133.407C235.706 134.729 236.964 136.201 237.69 137.823C238.415 139.401 238.906 141.705 239.162 144.735H218.362ZM218.426 142.367H234.362C234.063 140.404 233.743 138.975 233.402 138.079C233.06 137.14 232.314 136.052 231.162 134.815C230.01 133.577 228.474 132.959 226.554 132.959C224.975 132.959 223.524 133.513 222.202 134.623C220.879 135.732 219.919 137.225 219.322 139.103L218.426 142.367ZM249.64 116.511V157.663C249.64 159.54 250.003 160.82 250.728 161.503C251.454 162.185 252.862 162.527 254.952 162.527V163.551H240.36V162.527C241.214 162.527 241.918 162.505 242.472 162.463C243.07 162.377 243.752 162.057 244.52 161.503C245.288 160.948 245.672 159.732 245.672 157.855V157.471V125.215C245.672 123.721 245.608 122.676 245.48 122.079C245.096 121.14 244.286 120.671 243.048 120.671C242.366 120.671 241.534 120.841 240.552 121.183L240.296 120.159L249.64 116.511ZM260.382 144.735C260.211 145.759 260.126 146.655 260.126 147.423C260.126 151.007 261.192 154.1 263.326 156.703C265.459 159.305 267.998 160.607 270.942 160.607C272.606 160.607 274.12 160.18 275.486 159.327C276.894 158.559 277.939 157.684 278.622 156.703C279.304 155.679 279.966 154.079 280.606 151.903L281.63 152.095C281.246 153.929 280.798 155.508 280.286 156.831C279.518 159.049 278.152 160.82 276.19 162.143C274.27 163.423 272.051 164.063 269.534 164.063C265.651 164.063 262.472 162.591 259.998 159.647C257.566 156.66 256.35 152.799 256.35 148.063C256.35 143.156 257.566 139.167 259.998 136.095C262.472 132.98 265.651 131.423 269.534 131.423C272.051 131.423 274.184 132.084 275.934 133.407C277.726 134.729 278.984 136.201 279.71 137.823C280.435 139.401 280.926 141.705 281.182 144.735H260.382ZM260.446 142.367H276.382C276.083 140.404 275.763 138.975 275.422 138.079C275.08 137.14 274.334 136.052 273.182 134.815C272.03 133.577 270.494 132.959 268.574 132.959C266.995 132.959 265.544 133.513 264.222 134.623C262.899 135.732 261.939 137.225 261.342 139.103L260.446 142.367ZM291.212 116.511L291.276 138.527C291.532 138.185 291.831 137.78 292.172 137.311C292.514 136.841 292.898 136.393 293.324 135.967C295.714 132.98 298.7 131.487 302.284 131.487C305.698 131.487 308.535 132.852 310.796 135.583C313.1 138.271 314.252 141.641 314.252 145.695C314.252 150.815 312.716 155.167 309.644 158.751C306.572 162.335 302.86 164.127 298.508 164.127C297.015 164.127 295.586 163.935 294.22 163.551C292.855 163.124 291.788 162.74 291.02 162.399C290.295 162.057 289.058 161.46 287.308 160.607V125.215V124.063C287.308 123.124 287.18 122.335 286.924 121.695C286.668 121.012 285.9 120.671 284.62 120.671C283.938 120.671 283.148 120.841 282.252 121.183L281.868 120.159L291.212 116.511ZM291.212 158.815C292.492 160.308 293.772 161.353 295.052 161.951C296.375 162.505 297.655 162.783 298.892 162.783C302.05 162.783 304.631 161.311 306.636 158.367C308.684 155.38 309.708 151.583 309.708 146.975C309.708 143.092 308.876 140.041 307.212 137.823C305.548 135.561 303.244 134.431 300.3 134.431C297.442 134.431 295.223 135.391 293.644 137.311C292.066 139.231 291.276 140.703 291.276 141.727L291.212 158.815ZM315.576 162.527C317.795 162.527 319.267 162.207 319.992 161.567C320.76 160.884 321.144 159.583 321.144 157.663V156.511V139.935C321.144 138.356 321.016 137.225 320.76 136.543C320.504 135.817 319.736 135.455 318.456 135.455C317.987 135.455 317.603 135.476 317.304 135.519C317.048 135.561 316.622 135.711 316.024 135.967L315.768 134.879L325.048 131.231L324.92 138.591C326.158 136.287 327.352 134.665 328.504 133.727C329.912 132.361 331.427 131.679 333.048 131.679C334.03 131.679 334.819 131.935 335.416 132.447C336.056 132.916 336.376 133.556 336.376 134.367C336.376 135.049 336.099 135.647 335.544 136.159C335.032 136.628 334.414 136.863 333.688 136.863C332.878 136.863 332.152 136.543 331.512 135.903C331.128 135.348 330.595 135.071 329.912 135.071C329.358 135.071 328.718 135.348 327.992 135.903C327.267 136.457 326.606 137.375 326.008 138.655C325.411 139.935 325.112 141.3 325.112 142.751L325.048 157.663C325.048 159.753 325.432 161.055 326.2 161.567C327.011 162.036 327.715 162.335 328.312 162.463C328.952 162.548 329.87 162.591 331.064 162.591V163.551H315.576V162.527ZM353.313 139.359C353.313 138.676 353.292 138.164 353.249 137.823C353.207 137.439 353.143 136.969 353.057 136.415C353.015 135.86 352.567 135.113 351.713 134.175C350.86 133.236 349.303 132.767 347.041 132.767C345.292 132.767 343.777 133.172 342.497 133.983C341.26 134.793 340.641 135.775 340.641 136.927L340.769 137.951L341.153 138.975L341.217 139.615C341.217 140.34 340.983 140.959 340.513 141.471C340.044 141.983 339.425 142.239 338.657 142.239C337.889 142.239 337.271 141.983 336.801 141.471C336.332 140.959 336.097 140.297 336.097 139.487C336.097 137.353 337.271 135.476 339.617 133.855C342.007 132.233 344.759 131.423 347.873 131.423C354.316 131.423 357.537 133.94 357.537 138.975L357.409 157.599C357.409 159.135 357.559 160.18 357.857 160.735C358.156 161.247 358.753 161.503 359.649 161.503C360.503 161.503 361.377 160.884 362.273 159.647L362.913 160.351C361.036 162.911 359.137 164.191 357.217 164.191C355.596 164.191 354.572 163.615 354.145 162.463C353.719 161.268 353.505 159.839 353.505 158.175C352.78 158.943 352.076 159.647 351.393 160.287C350.711 160.927 349.644 161.759 348.193 162.783C346.743 163.807 344.78 164.319 342.305 164.319C340.001 164.319 338.081 163.636 336.545 162.271C335.009 160.905 334.241 159.177 334.241 157.087C334.241 153.076 335.692 150.516 338.593 149.407C341.495 148.255 343.521 147.508 344.673 147.167C345.825 146.825 346.849 146.505 347.745 146.207L353.313 144.735V139.359ZM353.377 145.951C352.055 146.292 351.223 146.527 350.881 146.655C350.583 146.74 349.623 147.06 348.001 147.615C346.423 148.169 345.143 148.639 344.161 149.023C343.223 149.407 342.049 150.025 340.641 150.879C339.276 151.689 338.593 153.268 338.593 155.615C338.593 157.193 339.233 158.58 340.513 159.775C341.793 160.969 343.308 161.567 345.057 161.567C345.697 161.567 346.337 161.481 346.977 161.311C347.617 161.14 348.385 160.82 349.281 160.351C350.177 159.881 351.521 158.665 353.313 156.703L353.377 145.951ZM362.346 132.575C365.162 131.167 367.04 129.908 367.978 128.799C368.917 127.647 369.77 125.577 370.538 122.591H371.69L371.562 131.871H378.986V133.599H371.562L371.626 156.575C371.626 157.599 371.669 158.473 371.754 159.199C371.882 159.924 372.245 160.521 372.842 160.991C373.44 161.46 374.122 161.695 374.89 161.695C375.872 161.695 376.704 161.396 377.386 160.799C378.069 160.159 378.752 159.071 379.434 157.535L380.394 157.663L379.37 159.967C377.962 162.697 375.829 164.063 372.97 164.063C369.386 164.063 367.594 161.652 367.594 156.831V133.599H362.346V132.575ZM383.682 144.735C383.511 145.759 383.426 146.655 383.426 147.423C383.426 151.007 384.492 154.1 386.626 156.703C388.759 159.305 391.298 160.607 394.242 160.607C395.906 160.607 397.42 160.18 398.786 159.327C400.194 158.559 401.239 157.684 401.922 156.703C402.604 155.679 403.266 154.079 403.906 151.903L404.93 152.095C404.546 153.929 404.098 155.508 403.586 156.831C402.818 159.049 401.452 160.82 399.49 162.143C397.57 163.423 395.351 164.063 392.834 164.063C388.951 164.063 385.772 162.591 383.298 159.647C380.866 156.66 379.65 152.799 379.65 148.063C379.65 143.156 380.866 139.167 383.298 136.095C385.772 132.98 388.951 131.423 392.834 131.423C395.351 131.423 397.484 132.084 399.234 133.407C401.026 134.729 402.284 136.201 403.01 137.823C403.735 139.401 404.226 141.705 404.482 144.735H383.682ZM383.746 142.367H399.682C399.383 140.404 399.063 138.975 398.722 138.079C398.38 137.14 397.634 136.052 396.482 134.815C395.33 133.577 393.794 132.959 391.874 132.959C390.295 132.959 388.844 133.513 387.522 134.623C386.199 135.732 385.239 137.225 384.642 139.103L383.746 142.367ZM9.6275 187.575C12.4435 186.167 14.3208 184.908 15.2595 183.799C16.1982 182.647 17.0515 180.577 17.8195 177.591H18.9715L18.8435 186.871H26.2675V188.599H18.8435L18.9075 211.575C18.9075 212.599 18.9502 213.473 19.0355 214.199C19.1635 214.924 19.5262 215.521 20.1235 215.991C20.7208 216.46 21.4035 216.695 22.1715 216.695C23.1528 216.695 23.9848 216.396 24.6675 215.799C25.3502 215.159 26.0328 214.071 26.7155 212.535L27.6755 212.663L26.6515 214.967C25.2435 217.697 23.1102 219.063 20.2515 219.063C16.6675 219.063 14.8755 216.652 14.8755 211.831V188.599H9.6275V187.575ZM25.075 217.527C27.2937 217.527 28.7657 217.207 29.491 216.567C30.259 215.884 30.643 214.583 30.643 212.663V211.511V194.935C30.643 193.356 30.515 192.225 30.259 191.543C30.003 190.817 29.235 190.455 27.955 190.455C27.4857 190.455 27.1017 190.476 26.803 190.519C26.547 190.561 26.1203 190.711 25.523 190.967L25.267 189.879L34.547 186.231L34.419 193.591C35.6563 191.287 36.851 189.665 38.003 188.727C39.411 187.361 40.9257 186.679 42.547 186.679C43.5283 186.679 44.3177 186.935 44.915 187.447C45.555 187.916 45.875 188.556 45.875 189.367C45.875 190.049 45.5977 190.647 45.043 191.159C44.531 191.628 43.9123 191.863 43.187 191.863C42.3763 191.863 41.651 191.543 41.011 190.903C40.627 190.348 40.0937 190.071 39.411 190.071C38.8563 190.071 38.2163 190.348 37.491 190.903C36.7657 191.457 36.1043 192.375 35.507 193.655C34.9097 194.935 34.611 196.3 34.611 197.751L34.547 212.663C34.547 214.753 34.931 216.055 35.699 216.567C36.5097 217.036 37.2137 217.335 37.811 217.463C38.451 217.548 39.3683 217.591 40.563 217.591V218.551H25.075V217.527ZM51.804 186.231V209.271C51.804 210.679 51.9107 211.745 52.124 212.471C52.3373 213.153 52.9133 213.943 53.852 214.839C54.8333 215.692 56.1987 216.119 57.948 216.119C59.2707 216.119 60.4013 215.863 61.34 215.351C62.3213 214.839 63.2813 214.241 64.22 213.559C65.1587 212.833 66.3533 211.745 67.804 210.295L67.74 194.935C67.74 194.252 67.74 193.569 67.74 192.887C67.612 192.375 67.4627 191.841 67.292 191.287C67.164 190.732 66.4387 190.455 65.116 190.455C64.604 190.455 64.1987 190.476 63.9 190.519C63.644 190.561 63.2173 190.711 62.62 190.967L62.364 189.879L71.644 186.231L71.772 211.127C71.772 212.108 71.8147 212.769 71.9 213.111C71.9853 213.409 72.3053 213.751 72.86 214.135C73.4147 214.476 74.1613 214.647 75.1 214.647L76.892 214.519L77.084 215.415L67.74 218.935V211.959C66.2467 213.623 65.0307 214.86 64.092 215.671C63.196 216.439 62.108 217.164 60.828 217.847C59.548 218.529 57.9907 218.871 56.156 218.871C53.724 218.871 51.8893 218.316 50.652 217.207C49.4573 216.055 48.6893 214.967 48.348 213.943C48.0067 212.876 47.836 211.34 47.836 209.335V194.935C47.836 193.399 47.772 192.375 47.644 191.863C47.26 190.924 46.4493 190.455 45.212 190.455C44.7 190.455 44.2947 190.476 43.996 190.519C43.74 190.561 43.3133 190.711 42.716 190.967L42.46 189.879L51.804 186.231ZM97.331 186.487L97.459 196.663H96.371C96.371 195.084 96.243 193.847 95.987 192.951C95.7737 192.012 95.3897 191.116 94.835 190.263C94.323 189.409 93.5123 188.727 92.403 188.215C91.2937 187.703 89.9923 187.447 88.499 187.447C86.451 187.447 84.7443 187.937 83.379 188.919C82.0563 189.9 81.395 191.18 81.395 192.759C81.395 194.167 81.7363 195.169 82.419 195.767C83.1443 196.364 83.6777 196.791 84.019 197.047C84.3603 197.26 84.595 197.409 84.723 197.495L86.579 198.583L89.011 199.735L91.443 200.887L93.875 202.231C97.5017 204.151 99.315 206.689 99.315 209.847C99.315 212.62 98.291 214.881 96.243 216.631C94.195 218.38 91.5283 219.255 88.243 219.255C87.0483 219.255 86.067 219.169 85.299 218.999C84.5737 218.828 83.6563 218.508 82.547 218.039C81.4803 217.569 80.7977 217.335 80.499 217.335C79.859 217.335 79.539 217.868 79.539 218.935H78.579L78.515 207.543L79.731 207.607C79.731 209.484 79.8377 210.913 80.051 211.895C80.307 212.876 80.9257 214.135 81.907 215.671C82.8883 217.164 84.8937 217.911 87.923 217.911C90.1417 217.911 92.019 217.292 93.555 216.055C95.091 214.817 95.859 213.26 95.859 211.383C95.859 210.06 95.3683 208.823 94.387 207.671C93.8323 207.116 93.235 206.647 92.595 206.263C91.9977 205.879 91.3577 205.495 90.675 205.111L88.627 203.959L85.939 202.679C85.0003 202.252 84.1043 201.804 83.251 201.335C82.3977 200.823 81.3737 200.076 80.179 199.095C79.027 198.071 78.451 196.428 78.451 194.167C78.451 191.863 79.347 189.964 81.139 188.471C82.931 186.977 85.235 186.231 88.051 186.231C89.1603 186.231 90.0137 186.316 90.611 186.487C91.251 186.615 92.2537 186.956 93.619 187.511L94.579 187.895L95.347 188.087C95.987 188.087 96.307 187.532 96.307 186.423L97.331 186.487ZM100.293 187.575C103.109 186.167 104.986 184.908 105.925 183.799C106.863 182.647 107.717 180.577 108.485 177.591H109.637L109.509 186.871H116.933V188.599H109.509L109.573 211.575C109.573 212.599 109.615 213.473 109.701 214.199C109.829 214.924 110.191 215.521 110.789 215.991C111.386 216.46 112.069 216.695 112.837 216.695C113.818 216.695 114.65 216.396 115.333 215.799C116.015 215.159 116.698 214.071 117.381 212.535L118.341 212.663L117.317 214.967C115.909 217.697 113.775 219.063 110.917 219.063C107.333 219.063 105.541 216.652 105.541 211.831V188.599H100.293V187.575ZM145.747 188.791C145.021 186.828 144.659 184.695 144.659 182.391C144.659 179.191 145.533 176.609 147.283 174.647C149.032 172.684 151.336 171.703 154.195 171.703C156.669 171.703 158.675 172.449 160.211 173.943C161.747 175.436 162.515 177.377 162.515 179.767C162.515 180.919 162.323 182.049 161.939 183.159C161.555 184.268 160.979 185.249 160.211 186.103C159.485 186.956 158.141 188.001 156.179 189.239L151.763 191.863C153.896 195.831 155.603 198.796 156.883 200.759C158.205 202.721 160.296 205.473 163.155 209.015C164.179 207.436 164.947 206.177 165.459 205.239C165.971 204.257 166.653 202.657 167.507 200.439C168.36 198.22 168.787 196.129 168.787 194.167C168.787 192.46 168.488 191.393 167.891 190.967C167.336 190.54 166.76 190.284 166.163 190.199C165.608 190.071 164.797 190.007 163.731 190.007V188.983H178.003V190.071L176.339 190.199C175.272 190.199 174.419 190.433 173.779 190.903C172.712 191.543 171.816 192.887 171.091 194.935L168.467 201.847C167.741 203.852 166.333 206.54 164.243 209.911L167.187 212.791C168.339 213.943 169.363 214.753 170.259 215.223C171.197 215.692 172.157 215.927 173.139 215.927C174.419 215.927 175.485 215.628 176.339 215.031C177.192 214.391 178.003 213.324 178.771 211.831H179.667L178.387 214.967C177.021 217.612 174.696 218.935 171.411 218.935C169.96 218.935 168.68 218.657 167.571 218.103C166.461 217.505 165.459 216.844 164.563 216.119C163.709 215.393 162.664 214.412 161.427 213.175C160.957 213.644 160.509 214.092 160.083 214.519C159.656 214.945 158.589 215.841 156.883 217.207C155.219 218.529 152.253 219.191 147.987 219.191C143.976 219.191 140.712 218.124 138.195 215.991C135.677 213.857 134.419 211.084 134.419 207.671C134.419 204.812 135.144 202.508 136.595 200.759C138.045 198.967 139.432 197.58 140.755 196.599C142.077 195.617 144.275 194.209 147.347 192.375L145.747 188.791ZM148.051 193.847C145.448 195.212 143.549 196.428 142.355 197.495C141.203 198.519 140.349 199.607 139.795 200.759C139.24 201.911 138.877 202.892 138.707 203.703C138.536 204.471 138.451 205.324 138.451 206.263C138.451 209.335 139.496 211.831 141.587 213.751C143.677 215.671 146.408 216.631 149.779 216.631C152.765 216.631 154.899 216.183 156.179 215.287C157.501 214.391 158.355 213.793 158.739 213.495C159.165 213.196 159.677 212.769 160.275 212.215C157.075 208.46 154.813 205.601 153.491 203.639C152.168 201.633 150.355 198.369 148.051 193.847ZM151.059 190.327C153.235 189.175 154.835 188.172 155.859 187.319C156.883 186.465 157.608 185.569 158.035 184.631C158.461 183.692 158.76 182.817 158.931 182.007C159.101 181.196 159.187 180.364 159.187 179.511C159.187 177.505 158.739 175.948 157.843 174.839C156.947 173.729 155.688 173.175 154.067 173.175C152.36 173.175 150.973 173.879 149.907 175.287C148.84 176.652 148.307 178.487 148.307 180.791C148.307 183.18 149.224 186.359 151.059 190.327ZM216.122 194.359C216.122 193.676 216.101 193.164 216.058 192.823C216.015 192.439 215.951 191.969 215.866 191.415C215.823 190.86 215.375 190.113 214.522 189.175C213.669 188.236 212.111 187.767 209.85 187.767C208.101 187.767 206.586 188.172 205.306 188.983C204.069 189.793 203.45 190.775 203.45 191.927L203.578 192.951L203.962 193.975L204.026 194.615C204.026 195.34 203.791 195.959 203.322 196.471C202.853 196.983 202.234 197.239 201.466 197.239C200.698 197.239 200.079 196.983 199.61 196.471C199.141 195.959 198.906 195.297 198.906 194.487C198.906 192.353 200.079 190.476 202.426 188.855C204.815 187.233 207.567 186.423 210.682 186.423C217.125 186.423 220.346 188.94 220.346 193.975L220.218 212.599C220.218 214.135 220.367 215.18 220.666 215.735C220.965 216.247 221.562 216.503 222.458 216.503C223.311 216.503 224.186 215.884 225.082 214.647L225.722 215.351C223.845 217.911 221.946 219.191 220.026 219.191C218.405 219.191 217.381 218.615 216.954 217.463C216.527 216.268 216.314 214.839 216.314 213.175C215.589 213.943 214.885 214.647 214.202 215.287C213.519 215.927 212.453 216.759 211.002 217.783C209.551 218.807 207.589 219.319 205.114 219.319C202.81 219.319 200.89 218.636 199.354 217.271C197.818 215.905 197.05 214.177 197.05 212.087C197.05 208.076 198.501 205.516 201.402 204.407C204.303 203.255 206.33 202.508 207.482 202.167C208.634 201.825 209.658 201.505 210.554 201.207L216.122 199.735V194.359ZM216.186 200.951C214.863 201.292 214.031 201.527 213.69 201.655C213.391 201.74 212.431 202.06 210.81 202.615C209.231 203.169 207.951 203.639 206.97 204.023C206.031 204.407 204.858 205.025 203.45 205.879C202.085 206.689 201.402 208.268 201.402 210.615C201.402 212.193 202.042 213.58 203.322 214.775C204.602 215.969 206.117 216.567 207.866 216.567C208.506 216.567 209.146 216.481 209.786 216.311C210.426 216.14 211.194 215.82 212.09 215.351C212.986 214.881 214.33 213.665 216.122 211.703L216.186 200.951ZM234.499 186.231V209.271C234.499 210.679 234.606 211.745 234.819 212.471C235.032 213.153 235.608 213.943 236.547 214.839C237.528 215.692 238.894 216.119 240.643 216.119C241.966 216.119 243.096 215.863 244.035 215.351C245.016 214.839 245.976 214.241 246.915 213.559C247.854 212.833 249.048 211.745 250.499 210.295L250.435 194.935C250.435 194.252 250.435 193.569 250.435 192.887C250.307 192.375 250.158 191.841 249.987 191.287C249.859 190.732 249.134 190.455 247.811 190.455C247.299 190.455 246.894 190.476 246.595 190.519C246.339 190.561 245.912 190.711 245.315 190.967L245.059 189.879L254.339 186.231L254.467 211.127C254.467 212.108 254.51 212.769 254.595 213.111C254.68 213.409 255 213.751 255.555 214.135C256.11 214.476 256.856 214.647 257.795 214.647L259.587 214.519L259.779 215.415L250.435 218.935V211.959C248.942 213.623 247.726 214.86 246.787 215.671C245.891 216.439 244.803 217.164 243.523 217.847C242.243 218.529 240.686 218.871 238.851 218.871C236.419 218.871 234.584 218.316 233.347 217.207C232.152 216.055 231.384 214.967 231.043 213.943C230.702 212.876 230.531 211.34 230.531 209.335V194.935C230.531 193.399 230.467 192.375 230.339 191.863C229.955 190.924 229.144 190.455 227.907 190.455C227.395 190.455 226.99 190.476 226.691 190.519C226.435 190.561 226.008 190.711 225.411 190.967L225.155 189.879L234.499 186.231ZM259.29 187.575C262.106 186.167 263.983 184.908 264.922 183.799C265.861 182.647 266.714 180.577 267.482 177.591H268.634L268.506 186.871H275.93V188.599H268.506L268.57 211.575C268.57 212.599 268.613 213.473 268.698 214.199C268.826 214.924 269.189 215.521 269.786 215.991C270.383 216.46 271.066 216.695 271.834 216.695C272.815 216.695 273.647 216.396 274.33 215.799C275.013 215.159 275.695 214.071 276.378 212.535L277.338 212.663L276.314 214.967C274.906 217.697 272.773 219.063 269.914 219.063C266.33 219.063 264.538 216.652 264.538 211.831V188.599H259.29V187.575ZM291.633 186.231C296.071 186.231 299.633 187.745 302.321 190.775C305.052 193.761 306.417 197.729 306.417 202.679C306.417 207.628 305.031 211.639 302.257 214.711C299.527 217.74 295.943 219.255 291.505 219.255C287.196 219.255 283.633 217.676 280.817 214.519C278.001 211.361 276.593 207.351 276.593 202.487C276.593 197.708 277.98 193.804 280.753 190.775C283.527 187.745 287.153 186.231 291.633 186.231ZM281.137 202.807C281.137 207.073 282.247 210.636 284.465 213.495C286.727 216.353 289.415 217.783 292.529 217.783C295.345 217.783 297.607 216.609 299.313 214.263C301.02 211.916 301.873 208.78 301.873 204.855C301.873 199.863 300.849 195.745 298.801 192.503C296.753 189.26 294.129 187.639 290.929 187.639C287.985 187.639 285.596 188.897 283.761 191.415C281.969 193.889 281.073 197.196 281.073 201.335L281.137 202.807ZM307.747 217.527C309.881 217.527 311.31 217.207 312.035 216.567C312.761 215.927 313.123 214.625 313.123 212.663V211.767V194.935C313.123 193.399 313.059 192.375 312.931 191.863C312.547 190.924 311.737 190.455 310.499 190.455C309.987 190.455 309.582 190.476 309.283 190.519C309.027 190.561 308.601 190.711 308.003 190.967L307.747 189.879L317.091 186.231L316.963 193.463C318.286 192.055 319.182 191.116 319.651 190.647C320.163 190.177 321.187 189.367 322.723 188.215C324.302 187.063 326.286 186.487 328.675 186.487C331.321 186.487 333.219 187.148 334.371 188.471C335.566 189.793 336.291 190.945 336.547 191.927C336.803 192.865 336.931 194.337 336.931 196.343L336.867 212.663C336.867 214.583 337.209 215.884 337.891 216.567C338.617 217.207 340.067 217.527 342.243 217.527V218.551H327.587V217.527C329.721 217.527 331.129 217.207 331.811 216.567C332.537 215.884 332.899 214.561 332.899 212.599V197.111V194.039C332.899 193.1 332.451 192.097 331.555 191.031C330.659 189.921 329.123 189.367 326.947 189.367C324.814 189.367 322.745 190.177 320.739 191.799L317.027 194.999V212.663C317.027 214.583 317.369 215.884 318.051 216.567C318.777 217.207 320.227 217.527 322.403 217.527V218.551H307.747V217.527ZM358.216 186.231C362.653 186.231 366.216 187.745 368.904 190.775C371.635 193.761 373 197.729 373 202.679C373 207.628 371.613 211.639 368.84 214.711C366.109 217.74 362.525 219.255 358.088 219.255C353.779 219.255 350.216 217.676 347.4 214.519C344.584 211.361 343.176 207.351 343.176 202.487C343.176 197.708 344.563 193.804 347.336 190.775C350.109 187.745 353.736 186.231 358.216 186.231ZM347.72 202.807C347.72 207.073 348.829 210.636 351.048 213.495C353.309 216.353 355.997 217.783 359.112 217.783C361.928 217.783 364.189 216.609 365.896 214.263C367.603 211.916 368.456 208.78 368.456 204.855C368.456 199.863 367.432 195.745 365.384 192.503C363.336 189.26 360.712 187.639 357.512 187.639C354.568 187.639 352.179 188.897 350.344 191.415C348.552 193.889 347.656 197.196 347.656 201.335L347.72 202.807ZM374.33 217.527C376.463 217.527 377.893 217.207 378.618 216.567C379.343 215.927 379.706 214.625 379.706 212.663V212.023V194.935C379.706 193.399 379.642 192.375 379.514 191.863C379.13 190.924 378.319 190.455 377.082 190.455C376.57 190.455 376.165 190.476 375.866 190.519C375.61 190.561 375.205 190.711 374.65 190.967L374.33 189.879L383.674 186.231L383.738 193.463C384.89 192.225 385.829 191.265 386.554 190.583C387.322 189.857 388.389 188.983 389.754 187.959C391.119 186.935 392.933 186.423 395.194 186.423C397.711 186.423 399.567 187.041 400.762 188.279C401.999 189.473 402.853 191.137 403.322 193.271C404.218 192.375 404.965 191.649 405.562 191.095C406.159 190.497 407.247 189.58 408.826 188.343C410.405 187.105 412.431 186.487 414.906 186.487C417.423 186.487 419.237 187.041 420.346 188.151C421.455 189.26 422.181 190.369 422.522 191.479C422.863 192.545 423.034 193.953 423.034 195.703L422.97 212.663C422.97 214.54 423.333 215.82 424.058 216.503C424.783 217.185 426.234 217.527 428.41 217.527V218.551H413.754V217.527C415.845 217.527 417.253 217.185 417.978 216.503C418.703 215.82 419.066 214.54 419.066 212.663V197.111C419.066 195.148 419.023 193.889 418.938 193.335C418.853 192.78 418.447 191.969 417.722 190.903C416.997 189.836 415.525 189.303 413.306 189.303C412.026 189.303 411.023 189.473 410.298 189.815C409.615 190.156 409.103 190.412 408.762 190.583C408.421 190.711 407.973 190.967 407.418 191.351C406.906 191.735 406.33 192.204 405.69 192.759C405.093 193.313 404.325 194.06 403.386 194.999V212.663C403.386 214.711 403.813 216.033 404.666 216.631C405.519 217.228 406.842 217.527 408.634 217.527V218.551H394.042V217.527C395.151 217.527 395.941 217.484 396.41 217.399C396.879 217.313 397.498 217.015 398.266 216.503C399.034 215.991 399.418 214.711 399.418 212.663L399.482 196.535C399.482 191.756 397.498 189.367 393.53 189.367C392.25 189.367 391.247 189.537 390.522 189.879C389.839 190.177 389.221 190.497 388.666 190.839C388.154 191.137 387.685 191.457 387.258 191.799C386.874 192.097 386.447 192.481 385.978 192.951C385.509 193.377 384.741 194.145 383.674 195.255L383.738 212.663C383.738 214.54 384.101 215.82 384.826 216.503C385.551 217.185 387.002 217.527 389.178 217.527V218.551H374.33V217.527ZM424.52 186.871H436.872V187.831H435.4C434.034 187.831 433.352 188.385 433.352 189.495C433.352 190.092 433.565 191.031 433.992 192.311L441.928 213.367L450.184 192.311C450.696 191.159 450.952 190.22 450.952 189.495C450.952 188.385 450.269 187.831 448.904 187.831H447.432V186.871H457.544V187.831H456.584C455.773 187.831 455.176 187.959 454.792 188.215L453.832 189.047C453.405 189.516 453.149 189.879 453.064 190.135C452.936 190.305 452.637 191.031 452.168 192.311L441.096 220.023C440.285 222.028 439.624 223.479 439.112 224.375C438.642 225.271 437.725 226.487 436.36 228.023C434.994 229.559 432.904 230.327 430.088 230.327C428.808 230.327 427.762 230.049 426.952 229.495C426.141 228.94 425.736 228.215 425.736 227.319C425.736 226.636 425.992 226.06 426.504 225.591C427.016 225.121 427.656 224.887 428.424 224.887C429.32 224.887 430.237 225.335 431.176 226.231C431.901 226.828 432.626 227.127 433.352 227.127C434.29 227.127 435.08 226.785 435.72 226.103C436.402 225.42 437.042 224.524 437.64 223.415C438.28 222.305 439.005 220.727 439.816 218.679L429.704 192.311C429.106 190.647 428.488 189.495 427.848 188.855C427.25 188.172 426.482 187.831 425.544 187.831H424.52V186.871Z" fill="#6B6B6B"/>
<path d="M25.9253 17.3636V20.5561H10.828V17.3636H25.9253ZM15.5446 9.78409H19.2314V40.7408C19.2314 42.0589 19.4579 43.0956 19.9111 43.8509C20.3642 44.5923 20.9546 45.121 21.6824 45.4368C22.4101 45.7389 23.1859 45.8899 24.0098 45.8899C24.4904 45.8899 24.9023 45.8625 25.2456 45.8075C25.5889 45.7389 25.8909 45.6702 26.1518 45.6016L26.9345 48.9176C26.5775 49.0549 26.1381 49.1785 25.6163 49.2884C25.0945 49.4119 24.4492 49.4737 23.6802 49.4737C22.3346 49.4737 21.037 49.1785 19.7875 48.5881C18.5517 47.9976 17.5356 47.1188 16.7392 45.9517C15.9428 44.7846 15.5446 43.3359 15.5446 41.6058V9.78409ZM34.8273 29.2273V49H31.1611V6.81818H34.8273V22.3274H35.1569C35.8983 20.6934 37.0449 19.389 38.5965 18.4141C40.1618 17.4392 42.1391 16.9517 44.5283 16.9517C46.6704 16.9517 48.5515 17.3911 50.1718 18.2699C51.792 19.1487 53.0553 20.4463 53.9615 22.1626C54.8678 23.879 55.3209 25.9936 55.3209 28.5064V49H51.6341V28.733C51.6341 26.1241 50.9064 24.0713 49.4509 22.5746C48.0091 21.0642 46.0593 20.3089 43.6015 20.3089C41.9125 20.3089 40.409 20.666 39.0908 21.38C37.7726 22.094 36.7291 23.1238 35.9601 24.4695C35.2049 25.8014 34.8273 27.3873 34.8273 29.2273ZM73.9961 49.6591C71.0439 49.6591 68.4899 48.9725 66.3341 47.5994C64.1783 46.2126 62.51 44.2971 61.3292 41.853C60.162 39.3951 59.5784 36.5665 59.5784 33.3672C59.5784 30.1816 60.162 27.353 61.3292 24.8814C62.51 22.3961 64.1372 20.4531 66.2105 19.0526C68.2977 17.6383 70.7075 16.9311 73.4399 16.9311C75.1563 16.9311 76.8109 17.2469 78.4037 17.8786C79.9965 18.4964 81.4246 19.4508 82.6878 20.7415C83.9648 22.0185 84.974 23.6319 85.7155 25.5817C86.457 27.5178 86.8277 29.8108 86.8277 32.4609V34.2734H62.1118V31.0398H83.0792C83.0792 29.0076 82.6672 27.1813 81.8434 25.5611C81.0332 23.9271 79.9004 22.6364 78.4449 21.6889C77.0032 20.7415 75.3348 20.2678 73.4399 20.2678C71.4352 20.2678 69.6708 20.8033 68.1466 21.8743C66.6225 22.9453 65.4279 24.3596 64.5628 26.1172C63.7115 27.8748 63.279 29.7971 63.2652 31.8842V33.8203C63.2652 36.3331 63.6978 38.5301 64.5628 40.4112C65.4416 42.2786 66.6843 43.7273 68.2908 44.7571C69.8973 45.7869 71.7991 46.3018 73.9961 46.3018C75.4927 46.3018 76.8041 46.0684 77.93 45.6016C79.0697 45.1347 80.024 44.5099 80.7929 43.7273C81.5756 42.9309 82.166 42.0589 82.5642 41.1115L86.0451 42.2443C85.5645 43.5762 84.7749 44.8052 83.6765 45.9311C82.5917 47.0571 81.2323 47.9633 79.5983 48.6499C77.9781 49.3227 76.1106 49.6591 73.9961 49.6591ZM116.47 49.6591C113.518 49.6591 110.964 48.9725 108.808 47.5994C106.652 46.2126 104.984 44.2971 103.803 41.853C102.636 39.3951 102.052 36.5665 102.052 33.3672C102.052 30.1816 102.636 27.353 103.803 24.8814C104.984 22.3961 106.611 20.4531 108.684 19.0526C110.771 17.6383 113.181 16.9311 115.914 16.9311C117.63 16.9311 119.285 17.2469 120.877 17.8786C122.47 18.4964 123.898 19.4508 125.161 20.7415C126.438 22.0185 127.448 23.6319 128.189 25.5817C128.931 27.5178 129.301 29.8108 129.301 32.4609V34.2734H104.585V31.0398H125.553C125.553 29.0076 125.141 27.1813 124.317 25.5611C123.507 23.9271 122.374 22.6364 120.919 21.6889C119.477 20.7415 117.809 20.2678 115.914 20.2678C113.909 20.2678 112.144 20.8033 110.62 21.8743C109.096 22.9453 107.902 24.3596 107.036 26.1172C106.185 27.8748 105.753 29.7971 105.739 31.8842V33.8203C105.739 36.3331 106.171 38.5301 107.036 40.4112C107.915 42.2786 109.158 43.7273 110.764 44.7571C112.371 45.7869 114.273 46.3018 116.47 46.3018C117.966 46.3018 119.278 46.0684 120.404 45.6016C121.543 45.1347 122.498 44.5099 123.267 43.7273C124.049 42.9309 124.64 42.0589 125.038 41.1115L128.519 42.2443C128.038 43.5762 127.249 44.8052 126.15 45.9311C125.065 47.0571 123.706 47.9633 122.072 48.6499C120.452 49.3227 118.584 49.6591 116.47 49.6591ZM157.137 17.3636L145.582 49H141.669L130.114 17.3636H134.089L143.481 44.1598H143.77L153.162 17.3636H157.137ZM172.197 49.6591C169.245 49.6591 166.691 48.9725 164.535 47.5994C162.38 46.2126 160.711 44.2971 159.53 41.853C158.363 39.3951 157.78 36.5665 157.78 33.3672C157.78 30.1816 158.363 27.353 159.53 24.8814C160.711 22.3961 162.338 20.4531 164.412 19.0526C166.499 17.6383 168.909 16.9311 171.641 16.9311C173.358 16.9311 175.012 17.2469 176.605 17.8786C178.198 18.4964 179.626 19.4508 180.889 20.7415C182.166 22.0185 183.175 23.6319 183.917 25.5817C184.658 27.5178 185.029 29.8108 185.029 32.4609V34.2734H160.313V31.0398H181.28C181.28 29.0076 180.868 27.1813 180.045 25.5611C179.234 23.9271 178.102 22.6364 176.646 21.6889C175.204 20.7415 173.536 20.2678 171.641 20.2678C169.636 20.2678 167.872 20.8033 166.348 21.8743C164.824 22.9453 163.629 24.3596 162.764 26.1172C161.913 27.8748 161.48 29.7971 161.466 31.8842V33.8203C161.466 36.3331 161.899 38.5301 162.764 40.4112C163.643 42.2786 164.886 43.7273 166.492 44.7571C168.099 45.7869 170 46.3018 172.197 46.3018C173.694 46.3018 175.005 46.0684 176.131 45.6016C177.271 45.1347 178.225 44.5099 178.994 43.7273C179.777 42.9309 180.367 42.0589 180.765 41.1115L184.246 42.2443C183.766 43.5762 182.976 44.8052 181.878 45.9311C180.793 47.0571 179.434 47.9633 177.8 48.6499C176.179 49.3227 174.312 49.6591 172.197 49.6591ZM189.338 49V17.3636H192.901V22.2244H193.169C193.801 20.6316 194.899 19.3478 196.464 18.3729C198.043 17.3842 199.829 16.8899 201.82 16.8899C202.122 16.8899 202.458 16.8968 202.829 16.9105C203.199 16.9242 203.508 16.938 203.756 16.9517V20.6797C203.591 20.6522 203.302 20.611 202.891 20.5561C202.479 20.5012 202.032 20.4737 201.552 20.4737C199.904 20.4737 198.435 20.8239 197.144 21.5241C195.867 22.2107 194.858 23.165 194.116 24.3871C193.375 25.6091 193.004 27.0028 193.004 28.5682V49H189.338ZM209.759 60.8636C209.031 60.8636 208.351 60.795 207.72 60.6577C207.088 60.5204 206.587 60.3693 206.216 60.2045L207.205 56.9709C208.454 57.3553 209.566 57.4927 210.541 57.3828C211.516 57.2867 212.381 56.8473 213.137 56.0646C213.892 55.2957 214.565 54.1148 215.155 52.522L216.308 49.3089L204.671 17.3636H208.646L218.039 44.1598H218.327L227.719 17.3636H231.694L218.306 54.005C217.743 55.5291 217.05 56.7992 216.226 57.8153C215.402 58.8452 214.448 59.6072 213.363 60.1016C212.292 60.6096 211.091 60.8636 209.759 60.8636ZM247.558 17.3636V20.5561H232.46V17.3636H247.558ZM237.177 9.78409H240.864V40.7408C240.864 42.0589 241.09 43.0956 241.544 43.8509C241.997 44.5923 242.587 45.121 243.315 45.4368C244.043 45.7389 244.818 45.8899 245.642 45.8899C246.123 45.8899 246.535 45.8625 246.878 45.8075C247.221 45.7389 247.523 45.6702 247.784 45.6016L248.567 48.9176C248.21 49.0549 247.771 49.1785 247.249 49.2884C246.727 49.4119 246.082 49.4737 245.313 49.4737C243.967 49.4737 242.669 49.1785 241.42 48.5881C240.184 47.9976 239.168 47.1188 238.372 45.9517C237.575 44.7846 237.177 43.3359 237.177 41.6058V9.78409ZM256.46 29.2273V49H252.794V6.81818H256.46V22.3274H256.789C257.531 20.6934 258.677 19.389 260.229 18.4141C261.794 17.4392 263.772 16.9517 266.161 16.9517C268.303 16.9517 270.184 17.3911 271.804 18.2699C273.425 19.1487 274.688 20.4463 275.594 22.1626C276.5 23.879 276.953 25.9936 276.953 28.5064V49H273.267V28.733C273.267 26.1241 272.539 24.0713 271.083 22.5746C269.642 21.0642 267.692 20.3089 265.234 20.3089C263.545 20.3089 262.041 20.666 260.723 21.38C259.405 22.094 258.362 23.1238 257.593 24.4695C256.837 25.8014 256.46 27.3873 256.46 29.2273ZM282.879 49V17.3636H286.566V49H282.879ZM284.754 11.9261C283.998 11.9261 283.353 11.6721 282.817 11.1641C282.282 10.6423 282.014 10.0175 282.014 9.28977C282.014 8.56203 282.282 7.94413 282.817 7.43608C283.353 6.9143 283.998 6.65341 284.754 6.65341C285.509 6.65341 286.154 6.9143 286.69 7.43608C287.225 7.94413 287.493 8.56203 287.493 9.28977C287.493 10.0175 287.225 10.6423 286.69 11.1641C286.154 11.6721 285.509 11.9261 284.754 11.9261ZM296.158 29.2273V49H292.492V17.3636H296.055V22.3274H296.385C297.126 20.7072 298.28 19.4096 299.845 18.4347C301.424 17.446 303.374 16.9517 305.694 16.9517C307.823 16.9517 309.69 17.398 311.297 18.2905C312.917 19.1693 314.173 20.4669 315.066 22.1832C315.972 23.8996 316.425 26.0073 316.425 28.5064V49H312.759V28.733C312.759 26.1378 312.031 24.085 310.576 22.5746C309.134 21.0642 307.198 20.3089 304.767 20.3089C303.106 20.3089 301.63 20.666 300.339 21.38C299.048 22.094 298.025 23.1238 297.27 24.4695C296.529 25.8014 296.158 27.3873 296.158 29.2273ZM334.379 61.5227C332.224 61.5227 330.336 61.2412 328.715 60.6783C327.095 60.129 325.729 59.3738 324.617 58.4126C323.504 57.4515 322.639 56.3736 322.021 55.179L325.028 53.2017C325.482 53.9981 326.086 54.7808 326.841 55.5497C327.61 56.3187 328.605 56.9571 329.827 57.4652C331.063 57.9732 332.581 58.2273 334.379 58.2273C337.18 58.2273 339.439 57.527 341.156 56.1264C342.886 54.7259 343.751 52.5495 343.751 49.5973V42.4709H343.421C342.996 43.4321 342.385 44.3932 341.588 45.3544C340.792 46.3018 339.748 47.0914 338.457 47.723C337.18 48.3546 335.595 48.6705 333.7 48.6705C331.173 48.6705 328.928 48.0457 326.965 46.7962C325.015 45.5466 323.477 43.7616 322.351 41.4411C321.239 39.1068 320.683 36.3262 320.683 33.0994C320.683 29.9001 321.225 27.0852 322.31 24.6548C323.408 22.2244 324.939 20.3295 326.903 18.9702C328.866 17.6108 331.153 16.9311 333.761 16.9311C335.698 16.9311 337.304 17.2744 338.581 17.9609C339.858 18.6338 340.881 19.4714 341.65 20.4737C342.433 21.4761 343.044 22.451 343.483 23.3984H343.854V17.3636H347.438V49.8239C347.438 52.5014 346.868 54.7053 345.728 56.4354C344.588 58.1655 343.037 59.4425 341.073 60.2663C339.11 61.1039 336.878 61.5227 334.379 61.5227ZM334.132 45.3132C336.164 45.3132 337.901 44.8258 339.343 43.8509C340.785 42.8622 341.89 41.4479 342.659 39.608C343.428 37.768 343.813 35.5779 343.813 33.0376C343.813 30.5661 343.435 28.3759 342.68 26.4673C341.925 24.545 340.826 23.0346 339.384 21.9361C337.956 20.8239 336.206 20.2678 334.132 20.2678C332.018 20.2678 330.233 20.8376 328.777 21.9773C327.322 23.117 326.223 24.6548 325.482 26.5909C324.74 28.5133 324.369 30.6622 324.369 33.0376C324.369 35.4543 324.747 37.5895 325.502 39.4432C326.257 41.2831 327.363 42.7249 328.818 43.7685C330.274 44.7983 332.045 45.3132 334.132 45.3132ZM374.752 49.7209C372.844 49.7209 371.1 49.3501 369.521 48.6087C367.942 47.8535 366.685 46.7687 365.751 45.3544C364.818 43.9264 364.351 42.1963 364.351 40.1641C364.351 38.5987 364.646 37.2805 365.237 36.2095C365.827 35.1385 366.665 34.2597 367.749 33.5732C368.834 32.8866 370.118 32.3442 371.601 31.946C373.084 31.5478 374.718 31.2389 376.503 31.0192C378.274 30.7995 379.771 30.6072 380.993 30.4425C382.229 30.2777 383.169 30.0168 383.815 29.6598C384.46 29.3028 384.783 28.7261 384.783 27.9297V27.1882C384.783 25.0324 384.137 23.3366 382.847 22.1009C381.57 20.8513 379.73 20.2266 377.327 20.2266C375.047 20.2266 373.187 20.7277 371.745 21.7301C370.317 22.7325 369.315 23.9134 368.738 25.2727L365.257 24.0163C365.971 22.2862 366.96 20.9063 368.223 19.8764C369.486 18.8329 370.901 18.0845 372.466 17.6314C374.031 17.1645 375.617 16.9311 377.224 16.9311C378.432 16.9311 379.689 17.089 380.993 17.4048C382.311 17.7206 383.533 18.2699 384.659 19.0526C385.785 19.8215 386.698 20.8994 387.398 22.2862C388.099 23.6593 388.449 25.4032 388.449 27.5178V49H384.783V43.995H384.556C384.117 44.9287 383.465 45.835 382.599 46.7138C381.734 47.5926 380.65 48.3134 379.345 48.8764C378.041 49.4394 376.51 49.7209 374.752 49.7209ZM375.247 46.3636C377.196 46.3636 378.885 45.9311 380.313 45.0661C381.741 44.201 382.84 43.0545 383.609 41.6264C384.391 40.1847 384.783 38.5987 384.783 36.8686V32.2962C384.508 32.5571 384.048 32.7905 383.403 32.9964C382.771 33.2024 382.037 33.3878 381.199 33.5526C380.375 33.7036 379.551 33.834 378.727 33.9439C377.903 34.0537 377.162 34.1499 376.503 34.2322C374.718 34.4519 373.194 34.7952 371.93 35.2621C370.667 35.7289 369.699 36.3743 369.026 37.1982C368.354 38.0083 368.017 39.0518 368.017 40.3288C368.017 42.2512 368.704 43.741 370.077 44.7983C371.45 45.8419 373.173 46.3636 375.247 46.3636ZM394.431 60.8636V17.3636H397.995V23.3984H398.427C398.867 22.451 399.471 21.483 400.24 20.4943C401.009 19.492 402.025 18.6475 403.288 17.9609C404.565 17.2744 406.171 16.9311 408.108 16.9311C410.716 16.9311 412.996 17.6177 414.946 18.9908C416.909 20.3501 418.433 22.2588 419.518 24.7166C420.617 27.1607 421.166 30.0099 421.166 33.2642C421.166 36.5322 420.617 39.3951 419.518 41.853C418.433 44.3108 416.909 46.2263 414.946 47.5994C412.996 48.9725 410.73 49.6591 408.149 49.6591C406.24 49.6591 404.64 49.3158 403.35 48.6293C402.073 47.9427 401.036 47.0982 400.24 46.0959C399.457 45.0798 398.853 44.0911 398.427 43.13H398.098V60.8636H394.431ZM398.056 33.2024C398.056 35.7564 398.434 38.022 399.189 39.9993C399.958 41.9628 401.057 43.5076 402.485 44.6335C403.926 45.7457 405.67 46.3018 407.716 46.3018C409.817 46.3018 411.588 45.7251 413.03 44.5717C414.486 43.4046 415.591 41.8324 416.346 39.8551C417.115 37.8778 417.5 35.6603 417.5 33.2024C417.5 30.772 417.122 28.5819 416.367 26.6321C415.625 24.6823 414.527 23.1375 413.071 21.9979C411.616 20.8445 409.831 20.2678 407.716 20.2678C405.657 20.2678 403.906 20.8239 402.464 21.9361C401.022 23.0346 399.924 24.5587 399.169 26.5085C398.427 28.4446 398.056 30.6759 398.056 33.2024ZM425.439 60.8636V17.3636H429.002V23.3984H429.434C429.874 22.451 430.478 21.483 431.247 20.4943C432.016 19.492 433.032 18.6475 434.295 17.9609C435.572 17.2744 437.179 16.9311 439.115 16.9311C441.724 16.9311 444.003 17.6177 445.953 18.9908C447.916 20.3501 449.441 22.2588 450.525 24.7166C451.624 27.1607 452.173 30.0099 452.173 33.2642C452.173 36.5322 451.624 39.3951 450.525 41.853C449.441 44.3108 447.916 46.2263 445.953 47.5994C444.003 48.9725 441.737 49.6591 439.156 49.6591C437.247 49.6591 435.648 49.3158 434.357 48.6293C433.08 47.9427 432.043 47.0982 431.247 46.0959C430.464 45.0798 429.86 44.0911 429.434 43.13H429.105V60.8636H425.439ZM429.064 33.2024C429.064 35.7564 429.441 38.022 430.197 39.9993C430.965 41.9628 432.064 43.5076 433.492 44.6335C434.934 45.7457 436.678 46.3018 438.724 46.3018C440.824 46.3018 442.596 45.7251 444.037 44.5717C445.493 43.4046 446.598 41.8324 447.353 39.8551C448.122 37.8778 448.507 35.6603 448.507 33.2024C448.507 30.772 448.129 28.5819 447.374 26.6321C446.633 24.6823 445.534 23.1375 444.079 21.9979C442.623 20.8445 440.838 20.2678 438.724 20.2678C436.664 20.2678 434.913 20.8239 433.471 21.9361C432.03 23.0346 430.931 24.5587 430.176 26.5085C429.434 28.4446 429.064 30.6759 429.064 33.2024Z" fill="#D4D4D4"/>
</svg>
