<svg width="256" height="256" viewBox="0 0 256 256" fill="none" xmlns="http://www.w3.org/2000/svg">
<g clip-path="url(#clip0_3836_414)">
<path d="M-0.078125 86.6461C-0.078125 56.3172 -0.078125 41.1527 5.82429 29.5685C11.0162 19.3788 19.3007 11.0943 29.4904 5.90242C41.0745 0 56.239 0 86.568 0H169.276C199.605 0 214.769 0 226.353 5.90242C236.543 11.0943 244.828 19.3788 250.019 29.5685C255.922 41.1527 255.922 56.3172 255.922 86.6462V169.354C255.922 199.683 255.922 214.847 250.019 226.431C244.828 236.621 236.543 244.906 226.353 250.098C214.769 256 199.605 256 169.276 256H86.568C56.239 256 41.0745 256 29.4904 250.098C19.3007 244.906 11.0162 236.621 5.82429 226.431C-0.078125 214.847 -0.078125 199.683 -0.078125 169.354V86.6461Z" fill="black"/>
<path d="M169.275 -0.615234C184.429 -0.615234 195.832 -0.616264 204.894 0.124023C213.962 0.864935 220.74 2.35171 226.633 5.35449C236.938 10.6054 245.317 18.9837 250.567 29.2891C253.57 35.1823 255.057 41.96 255.798 51.0283C256.538 60.0894 256.537 71.4924 256.537 86.6465V169.354C256.537 184.508 256.538 195.911 255.798 204.972C255.057 214.04 253.57 220.818 250.567 226.711C245.317 237.016 236.938 245.395 226.633 250.646C220.74 253.648 213.962 255.135 204.894 255.876C195.832 256.616 184.429 256.615 169.275 256.615H86.5684C71.4143 256.615 60.0113 256.616 50.9502 255.876C41.8819 255.135 35.1042 253.648 29.2109 250.646C18.9056 245.395 10.5272 237.016 5.27637 226.711C2.27359 220.818 0.78681 214.04 0.0458984 204.972C-0.694389 195.911 -0.693359 184.508 -0.693359 169.354V86.6465C-0.693359 71.4924 -0.694389 60.0894 0.0458984 51.0283C0.78681 41.96 2.27359 35.1823 5.27637 29.2891C10.5272 18.9837 18.9056 10.6054 29.2109 5.35449C35.1042 2.35171 41.8819 0.864935 50.9502 0.124023C60.0113 -0.616264 71.4143 -0.615234 86.5684 -0.615234H169.275Z" stroke="black" stroke-opacity="0.05" stroke-width="1.23077"/>
<mask id="path-3-inside-1_3836_414" fill="white">
<path d="M99 112C125.51 112 147 133.49 147 160C147 186.509 125.51 208 99 208C72.4903 208 51 186.509 51 160C51.0002 133.49 72.4905 112 99 112ZM193.579 83.9996C198.23 83.9997 202 87.7707 202 92.4215V197.579C202 202.23 198.23 206 193.579 206H172.421C167.77 206 164 202.23 164 197.579V92.4215C164 87.7707 167.77 83.9997 172.421 83.9996H193.579ZM155.579 45.9996C160.23 45.9997 164 49.7707 164 54.4215V75.5787C164 80.2295 160.23 83.9996 155.579 83.9996H82.4209C77.7702 83.9996 74 80.2295 74 75.5787V54.4215C74 49.7707 77.7702 45.9997 82.4209 45.9996H155.579Z"/>
</mask>
<g filter="url(#filter0_i_3836_414)">
<path d="M99 112C125.51 112 147 133.49 147 160C147 186.509 125.51 208 99 208C72.4903 208 51 186.509 51 160C51.0002 133.49 72.4905 112 99 112ZM193.579 83.9996C198.23 83.9997 202 87.7707 202 92.4215V197.579C202 202.23 198.23 206 193.579 206H172.421C167.77 206 164 202.23 164 197.579V92.4215C164 87.7707 167.77 83.9997 172.421 83.9996H193.579ZM155.579 45.9996C160.23 45.9997 164 49.7707 164 54.4215V75.5787C164 80.2295 160.23 83.9996 155.579 83.9996H82.4209C77.7702 83.9996 74 80.2295 74 75.5787V54.4215C74 49.7707 77.7702 45.9997 82.4209 45.9996H155.579Z" fill="url(#paint0_linear_3836_414)"/>
</g>
<path d="M99 112L99 109H99L99 112ZM147 160L150 160L150 160L147 160ZM99 208L99 211H99V208ZM51 160L48 160V160H51ZM193.579 83.9996L193.579 80.9996H193.579V83.9996ZM193.579 206L193.579 209L193.579 209L193.579 206ZM172.421 206L172.421 209H172.421V206ZM172.421 83.9996L172.421 80.9996L172.421 80.9996L172.421 83.9996ZM155.579 45.9996L155.579 42.9996H155.579V45.9996ZM155.579 83.9996L155.579 86.9996L155.579 86.9996L155.579 83.9996ZM82.4209 83.9996L82.4208 86.9996H82.4209V83.9996ZM82.4209 45.9996L82.4209 42.9996L82.4208 42.9996L82.4209 45.9996ZM99 112V115C123.853 115 144 135.147 144 160L147 160L150 160C150 131.833 127.166 109 99 109V112ZM147 160H144C144 184.852 123.853 205 99 205V208V211C127.167 211 150 188.166 150 160H147ZM99 208L99 205C74.1472 205 54 184.852 54 160H51H48C48 188.166 70.8335 211 99 211L99 208ZM51 160L54 160C54.0002 135.147 74.1473 115 99 115L99 112L99 109C70.8336 109 48.0002 131.833 48 160L51 160ZM193.579 83.9996L193.579 86.9996C196.573 86.9997 199 89.4272 199 92.4215H202H205C205 86.1143 199.887 80.9997 193.579 80.9996L193.579 83.9996ZM202 92.4215H199V197.579H202H205V92.4215H202ZM202 197.579H199C199 200.573 196.573 203 193.579 203L193.579 206L193.579 209C199.887 209 205 203.886 205 197.579H202ZM193.579 206V203H172.421V206V209H193.579V206ZM172.421 206L172.421 203C169.427 203 167 200.573 167 197.579H164H161C161 203.886 166.113 209 172.421 209L172.421 206ZM164 197.579H167V92.4215H164H161V197.579H164ZM164 92.4215H167C167 89.4272 169.427 86.9997 172.421 86.9996L172.421 83.9996L172.421 80.9996C166.113 80.9997 161 86.1143 161 92.4215H164ZM172.421 83.9996V86.9996H193.579V83.9996V80.9996H172.421V83.9996ZM155.579 45.9996L155.579 48.9996C158.573 48.9997 161 51.4272 161 54.4215H164H167C167 48.1143 161.887 42.9997 155.579 42.9996L155.579 45.9996ZM164 54.4215H161V75.5787H164H167V54.4215H164ZM164 75.5787H161C161 78.5726 158.573 80.9996 155.579 80.9996L155.579 83.9996L155.579 86.9996C161.887 86.9995 167 81.8864 167 75.5787H164ZM155.579 83.9996V80.9996H82.4209V83.9996V86.9996H155.579V83.9996ZM82.4209 83.9996L82.421 80.9996C79.427 80.9996 77 78.5726 77 75.5787H74H71C71 81.8864 76.1133 86.9995 82.4208 86.9996L82.4209 83.9996ZM74 75.5787H77V54.4215H74H71V75.5787H74ZM74 54.4215H77C77 51.4272 79.4274 48.9997 82.421 48.9996L82.4209 45.9996L82.4208 42.9996C76.1129 42.9997 71 48.1143 71 54.4215H74ZM82.4209 45.9996V48.9996H155.579V45.9996V42.9996H82.4209V45.9996Z" fill="#B8B8B8" mask="url(#path-3-inside-1_3836_414)"/>
</g>
<defs>
<filter id="filter0_i_3836_414" x="51" y="45.9996" width="151" height="162" filterUnits="userSpaceOnUse" color-interpolation-filters="sRGB">
<feFlood flood-opacity="0" result="BackgroundImageFix"/>
<feBlend mode="normal" in="SourceGraphic" in2="BackgroundImageFix" result="shape"/>
<feColorMatrix in="SourceAlpha" type="matrix" values="0 0 0 0 0 0 0 0 0 0 0 0 0 0 0 0 0 0 127 0" result="hardAlpha"/>
<feOffset/>
<feGaussianBlur stdDeviation="8"/>
<feComposite in2="hardAlpha" operator="arithmetic" k2="-1" k3="1"/>
<feColorMatrix type="matrix" values="0 0 0 0 1 0 0 0 0 1 0 0 0 0 1 0 0 0 0.5 0"/>
<feBlend mode="normal" in2="shape" result="effect1_innerShadow_3836_414"/>
</filter>
<linearGradient id="paint0_linear_3836_414" x1="126.571" y1="46.3981" x2="126.571" y2="208.199" gradientUnits="userSpaceOnUse">
<stop stop-color="white"/>
<stop offset="1" stop-color="#898989"/>
</linearGradient>
<clipPath id="clip0_3836_414">
<rect width="256" height="256" fill="white"/>
</clipPath>
</defs>
</svg>
