<svg xmlns="http://www.w3.org/2000/svg" width="60" height="13" viewBox="0 0 60 13">
	<path fill="#FFF" fill-rule="evenodd" d="M8.211 2.044H6.006v1.247c-.44-.776-1.368-1.43-2.539-1.43-.973 0-1.84.366-2.463 1.05C.38 3.595 0 4.614 0 5.937v.122C0 7.38.38 8.4.988 9.085c.624.714 1.49 1.08 2.479 1.08 1.232 0 2.129-.609 2.54-1.385v1.216H8.21V2.044zM4.014 8.446c-1.216 0-1.885-.806-1.885-2.372v-.122c0-1.627.79-2.402 1.9-2.402 1.156 0 1.947.805 1.947 2.402v.122c0 1.596-.745 2.372-1.962 2.372zm6.335-6.402h2.205v1.262c.41-.79 1.247-1.444 2.585-1.444.79 0 1.445.243 1.931.73.472.501.745 1.292.745 2.341v5.064H15.61V5.253c0-1.095-.425-1.597-1.399-1.597-.958 0-1.657.578-1.657 1.749v4.592h-2.205V2.044zm11.377 7.147l-3.163-7.147h2.372l1.931 4.775 1.78-4.775h2.113l-4.303 10.66h-2.129l1.399-3.513zm8.744.958c-1.688 0-2.57-.852-2.57-2.509V.035h2.19v2.01h1.967V3.61H30.09v3.832c0 .624.288.943.881.943.576 0 .848-.138 1.086-.269v1.686c-.417.2-.847.347-1.587.347zm5.726-.958l-3.163-7.147h2.372l1.931 4.775 1.78-4.775h2.113l-4.303 10.66h-2.129l1.399-3.513zm6.024-7.147h2.205v1.247c.441-.776 1.369-1.43 2.54-1.43.973 0 1.84.366 2.463 1.05.624.684 1.004 1.703 1.004 3.026v.122c0 1.322-.38 2.341-.989 3.026-.623.714-1.49 1.08-2.478 1.08-1.232 0-2.13-.609-2.54-1.385v3.924H42.22V2.044zm4.062 6.402c1.217 0 1.886-.806 1.886-2.372v-.122c0-1.627-.79-2.402-1.9-2.402-1.157 0-1.947.805-1.947 2.402v.122c0 1.596.745 2.372 1.961 2.372zm9.253 1.716c-1.2 0-2.235-.365-2.965-1.08-.745-.684-1.186-1.687-1.186-2.964v-.122c0-1.262.441-2.28 1.186-3.01.73-.715 1.749-1.126 2.905-1.126 1.034 0 1.992.304 2.706.958.715.654 1.171 1.673 1.171 3.087v.608H53.62c.06 1.338.76 2.083 1.976 2.083 1.034 0 1.52-.44 1.658-1.11h2.083c-.259 1.718-1.612 2.676-3.802 2.676zm1.673-5.002c-.076-1.217-.684-1.78-1.733-1.78-.989 0-1.658.64-1.825 1.78h3.558z"/>
</svg>