<svg width="48" height="48" viewBox="0 0 48 48" fill="none" xmlns="http://www.w3.org/2000/svg">
<rect width="48" height="48" rx="8" fill="url(#paint0_linear_10344_17016)"/>
<g filter="url(#filter0_d_10344_17016)">
<mask id="path-2-inside-1_10344_17016" fill="white">
<path d="M20.25 9C23.7678 9 26.5719 10.6663 28.5008 13.3625C28.7863 13.7615 29.5 13.5706 29.5 13.08V10.625C29.5 10.0037 30.0037 9.5 30.625 9.5H35.375C35.9963 9.5 36.5 10.0037 36.5 10.625V37.375C36.5 37.9963 35.9963 38.5 35.375 38.5H30.625C30.0037 38.5 29.5 37.9963 29.5 37.375V34.9194C29.5 34.4287 28.7862 34.2378 28.5008 34.6369C26.572 37.3334 23.7681 39 20.25 39C13.1871 39 9 32.2843 9 24C9.00005 15.7158 13.1872 9 20.25 9Z"/>
</mask>
<path d="M20.25 9C23.7678 9 26.5719 10.6663 28.5008 13.3625C28.7863 13.7615 29.5 13.5706 29.5 13.08V10.625C29.5 10.0037 30.0037 9.5 30.625 9.5H35.375C35.9963 9.5 36.5 10.0037 36.5 10.625V37.375C36.5 37.9963 35.9963 38.5 35.375 38.5H30.625C30.0037 38.5 29.5 37.9963 29.5 37.375V34.9194C29.5 34.4287 28.7862 34.2378 28.5008 34.6369C26.572 37.3334 23.7681 39 20.25 39C13.1871 39 9 32.2843 9 24C9.00005 15.7158 13.1872 9 20.25 9Z" fill="url(#paint1_linear_10344_17016)"/>
<path d="M30.625 9.5V8.5V9.5ZM9 24L8 24V24H9ZM28.5008 34.6369L27.6874 34.0551L28.5008 34.6369ZM28.5008 13.3625L27.6875 13.9443L28.5008 13.3625ZM20.25 9V10C23.4095 10 25.9246 11.4802 27.6875 13.9443L28.5008 13.3625L29.3141 12.7806C27.2192 9.85244 24.1262 8 20.25 8V9ZM29.5 13.08H30.5V10.625H29.5H28.5V13.08H29.5ZM29.5 10.625H30.5C30.5 10.556 30.556 10.5 30.625 10.5V9.5V8.5C29.4514 8.5 28.5 9.45139 28.5 10.625H29.5ZM30.625 9.5V10.5H35.375V9.5V8.5H30.625V9.5ZM35.375 9.5V10.5C35.444 10.5 35.5 10.556 35.5 10.625H36.5H37.5C37.5 9.45139 36.5486 8.5 35.375 8.5V9.5ZM36.5 10.625H35.5V37.375H36.5H37.5V10.625H36.5ZM36.5 37.375H35.5C35.5 37.444 35.444 37.5 35.375 37.5V38.5V39.5C36.5486 39.5 37.5 38.5486 37.5 37.375H36.5ZM35.375 38.5V37.5H30.625V38.5V39.5H35.375V38.5ZM30.625 38.5V37.5C30.556 37.5 30.5 37.444 30.5 37.375H29.5H28.5C28.5 38.5486 29.4514 39.5 30.625 39.5V38.5ZM29.5 37.375H30.5V34.9194H29.5H28.5V37.375H29.5ZM28.5008 34.6369L27.6874 34.0551C25.9246 36.5196 23.4097 38 20.25 38V39V40C24.1265 40 27.2194 38.1473 29.3141 35.2187L28.5008 34.6369ZM20.25 39V38C17.0785 38 14.5555 36.5087 12.7915 34.0272C11.0095 31.5205 10 27.9873 10 24H9H8C8 28.2969 9.08405 32.2638 11.1614 35.186C13.2566 38.1334 16.3586 40 20.25 40V39ZM9 24L10 24C10 20.0127 11.0096 16.4795 12.7915 13.9728C14.5556 11.4913 17.0785 10 20.25 10V9V8C16.3587 8 13.2566 9.86662 11.1614 12.814C9.08409 15.7363 8.00003 19.7031 8 24L9 24ZM29.5 34.9194H30.5C30.5 34.1068 29.8965 33.625 29.3738 33.4806C28.8568 33.3378 28.1303 33.4359 27.6874 34.0551L28.5008 34.6369L29.3141 35.2187C29.1566 35.4388 28.9298 35.4329 28.8411 35.4084C28.7853 35.3929 28.7074 35.3565 28.6351 35.2748C28.5544 35.1836 28.5 35.0551 28.5 34.9194H29.5ZM28.5008 13.3625L27.6875 13.9443C28.1305 14.5635 28.8569 14.6616 29.3738 14.5187C29.8965 14.3743 30.5 13.8926 30.5 13.08H29.5H28.5C28.5 12.9442 28.5544 12.8157 28.6351 12.7245C28.7074 12.6428 28.7853 12.6064 28.8411 12.591C28.9298 12.5665 29.1566 12.5605 29.3141 12.7806L28.5008 13.3625Z" fill="url(#paint2_linear_10344_17016)" mask="url(#path-2-inside-1_10344_17016)"/>
</g>
<defs>
<filter id="filter0_d_10344_17016" x="7" y="9" width="31.5" height="34" filterUnits="userSpaceOnUse" color-interpolation-filters="sRGB">
<feFlood flood-opacity="0" result="BackgroundImageFix"/>
<feColorMatrix in="SourceAlpha" type="matrix" values="0 0 0 0 0 0 0 0 0 0 0 0 0 0 0 0 0 0 127 0" result="hardAlpha"/>
<feOffset dy="2"/>
<feGaussianBlur stdDeviation="1"/>
<feComposite in2="hardAlpha" operator="out"/>
<feColorMatrix type="matrix" values="0 0 0 0 0.887414 0 0 0 0 0.477838 0 0 0 0 0 0 0 0 0.15 0"/>
<feBlend mode="normal" in2="BackgroundImageFix" result="effect1_dropShadow_10344_17016"/>
<feBlend mode="normal" in="SourceGraphic" in2="effect1_dropShadow_10344_17016" result="shape"/>
</filter>
<linearGradient id="paint0_linear_10344_17016" x1="24" y1="7.15256e-07" x2="24" y2="48" gradientUnits="userSpaceOnUse">
<stop stop-color="#FFED4E"/>
<stop offset="0.5" stop-color="#FFCF63"/>
<stop offset="1" stop-color="#FFB975"/>
</linearGradient>
<linearGradient id="paint1_linear_10344_17016" x1="22.6875" y1="9" x2="22.6875" y2="39" gradientUnits="userSpaceOnUse">
<stop stop-color="white"/>
<stop offset="1" stop-color="#FFE1BE"/>
</linearGradient>
<linearGradient id="paint2_linear_10344_17016" x1="22.6875" y1="9" x2="22.6875" y2="39" gradientUnits="userSpaceOnUse">
<stop stop-color="#FFFFD9"/>
<stop offset="0.5" stop-color="white"/>
<stop offset="1" stop-color="#FFEAD0"/>
</linearGradient>
</defs>
</svg>
