<svg xmlns="http://www.w3.org/2000/svg" width="55" height="56" viewBox="0 0 55 56" fill="none">
	<path fill-rule="evenodd" clip-rule="evenodd" d="M44 28H4V32C4 43.0457 12.9543 52 24 52C35.0457 52 44 43.0457 44 32V28ZM0 24V32C0 45.2548 10.7452 56 24 56C37.2548 56 48 45.2548 48 32V24H0Z" fill="#DCDCDC"/>
	<path d="M48 24C48 29.5228 37.2548 34 24 34C10.7452 34 0 29.5228 0 24C0 18.4772 10.7452 14 24 14C37.2548 14 48 18.4772 48 24Z" fill="#DCDCDC"/>
	<path fill-rule="evenodd" clip-rule="evenodd" d="M49.8291 30.4385C49.1464 29.8727 47.9256 29.5234 45.9264 29.9614L45.2108 26.039C47.7744 25.4774 50.204 25.7342 52.0308 27.248C53.8901 28.7886 54.6943 31.2691 54.6943 34.1066C54.6943 37.2778 53.2124 40.0129 51.1098 42.0216C49.009 44.0285 46.1924 45.4191 43.1911 45.973C42.1971 46.1565 41.2555 45.4222 41.0881 44.333C40.9207 43.2437 41.5908 42.212 42.5848 42.0286C45.0019 41.5825 47.1759 40.473 48.7111 39.0065C50.2445 37.5416 51.044 35.8295 51.044 34.1066C51.044 32.0497 50.4794 30.9773 49.8291 30.4385Z" fill="#DCDCDC"/>
	<path fill-rule="evenodd" clip-rule="evenodd" d="M28.2418 6.54322C26.3872 7.45921 23.9317 7.99999 20.9996 7.99999C18.5309 7.99999 16.7116 8.45919 15.5291 9.04321C14.2902 9.65508 13.9907 10.2636 13.9513 10.439L10.0488 9.56099C10.4593 7.73636 11.9595 6.3449 13.7578 5.45677C15.6124 4.54079 18.0679 3.99999 20.9996 3.99999C23.4688 3.99999 25.2881 3.54078 26.4706 2.95677C27.7093 2.34501 28.0093 1.73627 28.049 1.56012L31.9511 2.43987C31.5399 4.26372 30.0403 5.65497 28.2418 6.54322Z" fill="#DCDCDC"/>
	<path d="M32 2C32 3.10457 31.1046 4 30 4C28.8954 4 28 3.10457 28 2C28 0.89543 28.8954 0 30 0C31.1046 0 32 0.89543 32 2Z" fill="#DCDCDC"/>
	<path d="M14 10C14 11.1046 13.1046 12 12 12C10.8954 12 10 11.1046 10 10C10 8.89543 10.8954 8 12 8C13.1046 8 14 8.89543 14 10Z" fill="#DCDCDC"/>
	<path fill-rule="evenodd" clip-rule="evenodd" d="M43.8261 8.83588C41.146 10.7209 37.2202 12 32 12V8C36.5812 8 39.6554 6.87906 41.5249 5.56412C43.4424 4.21543 44 2.76074 44 2H48C48 4.43926 46.4583 6.98457 43.8261 8.83588Z" fill="#DCDCDC"/>
	<path d="M34 10C34 11.1046 33.1046 12 32 12C30.8954 12 30 11.1046 30 10C30 8.89543 30.8954 8 32 8C33.1046 8 34 8.89543 34 10Z" fill="#DCDCDC"/>
	<path d="M48 2C48 3.10457 47.1046 4 46 4C44.8954 4 44 3.10457 44 2C44 0.89543 44.8954 0 46 0C47.1046 0 48 0.89543 48 2Z" fill="#DCDCDC"/>
</svg>
