<svg xmlns="http://www.w3.org/2000/svg" width="56" height="56" viewBox="0 0 56 56" fill="none">
	<path d="M24 14C37.2548 14 48 18.4772 48 24V26.0264C49.9779 25.893 51.8079 26.3032 53.2646 27.4648C55.1741 28.9876 56 31.4397 56 34.2441C55.9999 37.3784 54.4777 40.0812 52.3184 42.0664C50.1609 44.0499 47.2688 45.4251 44.1865 45.9727C43.9594 46.013 43.7351 46.0052 43.5215 45.9619C39.1672 52.0393 32.0466 56 24 56C10.7452 56 0 45.2548 0 32V24C0 18.4772 10.7452 14 24 14ZM44 29.5273C39.7005 32.2222 32.3486 34 24 34C15.6514 34 8.29954 32.2222 4 29.5273V32C4 43.0457 12.9543 52 24 52C35.0457 52 44 43.0457 44 32V29.5273ZM51.0029 30.6182C50.4242 30.1569 49.4695 29.8414 48 29.9883V32C48 35.3225 47.3241 38.4869 46.1035 41.3643C47.5533 40.8045 48.8408 40.0198 49.8555 39.0869C51.4301 37.6392 52.2509 35.947 52.251 34.2441C52.251 32.2113 51.6708 31.1508 51.0029 30.6182ZM30 0C31.1046 0 32 0.89543 32 2C32 2.15082 31.9809 2.2972 31.9492 2.43848L31.9512 2.43945C31.54 4.26318 30.0405 5.65472 28.2422 6.54297C26.3876 7.45891 23.9319 7.99995 21 8C18.5315 8 16.7118 8.45901 15.5293 9.04297C14.2914 9.65436 13.991 10.2626 13.9512 10.4385L13.9492 10.4375C13.7495 11.3314 12.9541 12 12 12C10.8954 12 10 11.1046 10 10C10 9.84892 10.0181 9.70205 10.0498 9.56055H10.0488C10.4595 7.73612 11.9597 6.34511 13.7578 5.45703C15.6125 4.54105 18.0683 4 21 4C23.469 3.99995 25.2883 3.541 26.4707 2.95703C27.7082 2.34586 28.0087 1.73735 28.0488 1.56055H28.0498C28.2502 0.667526 29.0465 0 30 0ZM46 0C47.1046 0 48 0.89543 48 2C48 4.43926 46.4583 6.98462 43.8262 8.83594C41.1461 10.721 37.2202 12 32 12C30.8954 12 30 11.1046 30 10C30 8.89543 30.8954 8 32 8C36.5812 8 39.6558 6.8794 41.5254 5.56445C43.4428 4.2158 44 2.76072 44 2C44 0.89543 44.8954 0 46 0Z" fill="#DCDCDC"/>
</svg>
