<svg width="40" height="40" viewBox="0 0 40 40" fill="none" xmlns="http://www.w3.org/2000/svg">
<path fill-rule="evenodd" clip-rule="evenodd" d="M15.75 11.1601C15.75 10.4109 16.3028 9.77652 17.045 9.67415L29.1134 8.00956C29.7143 7.92667 30.25 8.39357 30.25 9.00018V9.85278V13.8528V26.3528H30.2489C30.2915 27.7607 29.0496 29.18 27.2387 29.6771C25.2086 30.2344 23.2322 29.4217 22.8242 27.8618C22.4162 26.302 23.7312 24.5857 25.7613 24.0284C26.8511 23.7293 27.9255 23.8249 28.75 24.219V14.0597L17.25 15.6459V28.3528H17.2489C17.2915 29.7607 16.0496 31.18 14.2387 31.6771C12.2086 32.2344 10.2322 31.4217 9.82422 29.8618C9.41625 28.302 10.7312 26.5857 12.7613 26.0284C13.8511 25.7293 14.9255 25.8249 15.75 26.219V15.8528V11.8528V11.1601Z" fill="#E51CA0"/>
</svg>