<svg width="40" height="40" viewBox="0 0 40 40" fill="none" xmlns="http://www.w3.org/2000/svg">
<path d="M29.7625 10.1818C29.6106 10.0474 29.4093 9.98295 29.2075 10.0039L16.3501 11.4325C15.9882 11.4725 15.7144 11.7784 15.7144 12.1425V24.872C15.067 24.4846 14.326 24.2818 13.5715 24.2856C11.6022 24.2856 10 25.567 10 27.1428C10 28.7185 11.6022 30 13.5715 30C15.5408 30 17.143 28.7192 17.143 27.1428V16.3569L28.5718 15.084V23.4413C27.9242 23.0547 27.1831 22.8526 26.4289 22.857C24.4595 22.857 22.8574 24.1385 22.8574 25.7142C22.8574 27.2899 24.4596 28.5714 26.4289 28.5714C28.3982 28.5714 30.0004 27.2907 30.0004 25.7142V10.7139C30.0004 10.5108 29.9139 10.3172 29.7625 10.1818Z" fill="#E89D00"/>
</svg>
