<svg width="20" height="20" viewBox="0 0 20 20" fill="none" xmlns="http://www.w3.org/2000/svg">
<path d="M15.6335 1.63025C16.0897 1.56204 16.4998 1.9151 16.4998 2.37634V14.5004H16.4958C16.455 15.5141 15.5662 16.5104 14.2908 16.8685C12.8023 17.2862 11.3527 16.6769 11.0535 15.5072C10.7543 14.3373 11.7191 13.0502 13.2078 12.6322C14.052 12.3952 14.8834 12.4888 15.4998 12.8275V6.1488L7.49976 7.349V16.0004H7.49585C7.45496 17.014 6.56697 18.0104 5.29175 18.3685C3.80322 18.7864 2.35389 18.1768 2.05444 17.0072C1.75528 15.8374 2.71917 14.5502 4.20776 14.1322C5.05203 13.8952 5.8834 13.9888 6.49976 14.3275V3.97498C6.49976 3.41469 6.90956 2.93803 7.46362 2.85486L15.6335 1.63025Z" fill="#E51CA0"/>
</svg>