<svg width="20" height="20" viewBox="0 0 20 20" fill="none" xmlns="http://www.w3.org/2000/svg">
<path d="M10.2428 3.11809L11.3225 4.19781L5.56399 9.95634L4.48427 8.87661L10.2428 3.11809Z" fill="#b6b6b6"/>
<path d="M11.6824 5.99735L12.7621 7.07707L8.44326 11.396L7.36353 10.3162L11.6824 5.99735Z" fill="#b6b6b6"/>
<path d="M14.562 7.43733L15.6418 8.51706L10.6031 13.5558L9.52333 12.476L14.562 7.43733Z" fill="#b6b6b6"/>
<path d="M16.0013 10.3162L17.081 11.396L12.0423 16.4347L10.9626 15.355L16.0013 10.3162Z" fill="#b6b6b6"/>
<path d="M14.564 7.4393L15.6418 8.51706C17.1325 7.02627 17.1322 4.60888 15.6414 3.11809C14.1506 1.6273 11.7336 1.6273 10.2428 3.11809L11.3202 4.1955C12.216 3.29975 13.6683 3.29975 14.564 4.1955C15.4598 5.09125 15.4598 6.54355 14.564 7.4393Z" fill="#b6b6b6"/>
<path d="M10.9626 15.355C9.47182 16.8457 7.05478 16.8457 5.56399 15.355C4.07321 13.8642 4.07321 11.4471 5.56399 9.95634L4.48427 8.87661C2.39717 10.9637 2.39717 14.3476 4.48427 16.4347C6.57137 18.5218 9.95523 18.5218 12.0423 16.4347L10.9626 15.355Z" fill="#b6b6b6"/>
<path d="M9.52333 12.476C9.22517 12.7742 8.74141 12.7738 8.44326 12.4757C8.1451 12.1775 8.1451 11.6941 8.44326 11.396L7.36353 10.3162C6.46906 11.2107 6.46906 12.6609 7.36353 13.5554C8.258 14.4499 9.70858 14.4502 10.6031 13.5558L9.52333 12.476Z" fill="#b6b6b6"/>
</svg>