<svg width="20" height="20" viewBox="0 0 20 20" fill="none" xmlns="http://www.w3.org/2000/svg">
<path d="M15.0313 10.361C15.1458 10.2516 15.2839 10.1917 15.4453 10.1813C15.612 10.1656 15.75 10.2203 15.8594 10.3453C15.9792 10.4547 16.0391 10.5953 16.0391 10.7672C16.0391 10.9391 15.9818 11.0823 15.8672 11.1969L10.0859 16.9781C9.60157 17.4573 9.07813 17.8115 8.51563 18.0406C7.95313 18.2698 7.38022 18.3792 6.79688 18.3688C6.21876 18.3636 5.65886 18.2438 5.1172 18.0094C4.57553 17.7802 4.08855 17.4495 3.65626 17.0172C3.21876 16.5849 2.88542 16.0979 2.65626 15.5563C2.42709 15.0146 2.3073 14.4547 2.29688 13.8766C2.28647 13.2933 2.39584 12.7203 2.62501 12.1578C2.85417 11.5953 3.21095 11.0719 3.69532 10.5875L11.5703 2.70471C12.0599 2.21513 12.5859 1.89482 13.1484 1.74377C13.7109 1.59273 14.2604 1.59273 14.7969 1.74377C15.3385 1.88961 15.8151 2.16825 16.2266 2.57971C16.6537 3.0068 16.9401 3.48857 17.0859 4.02502C17.2318 4.56148 17.2266 5.10836 17.0703 5.66565C16.9141 6.22294 16.5912 6.74638 16.1016 7.23596L8.41407 14.9235C8.14845 15.1891 7.85157 15.3688 7.52345 15.4625C7.20053 15.5563 6.87761 15.5641 6.5547 15.486C6.23178 15.4026 5.94272 15.2334 5.68751 14.9781C5.45313 14.7438 5.29428 14.4651 5.21095 14.1422C5.13282 13.8193 5.13542 13.4912 5.21876 13.1578C5.3073 12.8245 5.48438 12.525 5.75001 12.2594L11.1172 6.89221C11.2318 6.77242 11.3646 6.70992 11.5156 6.70471C11.6719 6.6995 11.8073 6.75159 11.9219 6.86096C12.0365 6.97555 12.0885 7.11096 12.0781 7.26721C12.0729 7.41825 12.013 7.55367 11.8984 7.67346L6.54688 13.0094C6.35417 13.2073 6.27084 13.4104 6.29688 13.6188C6.32292 13.8271 6.40365 13.999 6.53907 14.1344C6.67449 14.2646 6.84636 14.3453 7.0547 14.3766C7.26303 14.4026 7.46355 14.3167 7.65626 14.1188L15.3125 6.46252C15.6094 6.16565 15.8177 5.83232 15.9375 5.46252C16.0625 5.09273 16.0885 4.72815 16.0156 4.36877C15.9427 4.00419 15.763 3.67607 15.4766 3.3844C15.1901 3.10315 14.8646 2.92607 14.5 2.85315C14.1354 2.78023 13.7682 2.80367 13.3984 2.92346C13.0287 3.04325 12.6953 3.25419 12.3984 3.55627L4.56251 11.3844C4.06772 11.8844 3.7448 12.4235 3.59376 13.0016C3.44792 13.5745 3.45574 14.137 3.6172 14.6891C3.78386 15.2412 4.08074 15.7308 4.50782 16.1578C4.9349 16.5901 5.42449 16.887 5.97657 17.0485C6.53386 17.2151 7.09897 17.2229 7.67188 17.0719C8.25001 16.9261 8.78907 16.6031 9.28907 16.1031L15.0313 10.361Z" fill="#2AA7EE"/>
</svg>