<svg width="20" height="20" viewBox="0 0 20 20" fill="none" xmlns="http://www.w3.org/2000/svg">
<path d="M12.2048 2C14.2414 2 15.26 2.00014 16.0378 2.39648C16.7219 2.74509 17.2781 3.30126 17.6267 3.98535C18.023 4.76321 18.0232 5.7818 18.0232 7.81836V12.1816C18.0232 14.2182 18.023 15.2368 17.6267 16.0146C17.2781 16.6987 16.7219 17.2549 16.0378 17.6035C15.26 17.9999 14.2414 18 12.2048 18H7.84155C5.805 18 4.78641 17.9999 4.00854 17.6035C3.32446 17.2549 2.76828 16.6987 2.41968 16.0146C2.02334 15.2368 2.02319 14.2182 2.02319 12.1816V7.81836C2.02319 5.7818 2.02334 4.76321 2.41968 3.98535C2.76828 3.30126 3.32446 2.74509 4.00854 2.39648C4.78641 2.00014 5.805 2 7.84155 2H12.2048ZM7.84155 3.09082C6.80527 3.09082 6.09339 3.09165 5.54175 3.13672C5.00292 3.18075 4.71316 3.26142 4.50366 3.36816C4.02483 3.61219 3.63537 4.00163 3.39136 4.48047C3.28461 4.68997 3.20395 4.97971 3.15991 5.51855C3.11484 6.0702 3.11401 6.78208 3.11401 7.81836V12.1816C3.11401 12.8724 3.11506 13.4191 3.12866 13.8701L6.49976 10.5L8.49976 12.5L11.9998 9L16.9158 13.916C16.9308 13.4563 16.9324 12.896 16.9324 12.1816V7.81836C16.9324 6.78208 16.9315 6.0702 16.8865 5.51855C16.8424 4.97971 16.7618 4.68997 16.655 4.48047C16.411 4.00163 16.0216 3.61218 15.5427 3.36816C15.3332 3.26142 15.0435 3.18075 14.5046 3.13672C13.953 3.09165 13.2411 3.09082 12.2048 3.09082H7.84155ZM7.49976 5.45312C8.32818 5.45312 8.99976 6.1247 8.99976 6.95312C8.99976 7.78155 8.32818 8.45312 7.49976 8.45312C6.67144 8.45299 5.99976 7.78147 5.99976 6.95312C5.99976 6.12478 6.67144 5.45326 7.49976 5.45312Z" fill="#38C569"/>
</svg>