<svg width="40" height="40" viewBox="0 0 40 40" fill="none" xmlns="http://www.w3.org/2000/svg">
<path fill-rule="evenodd" clip-rule="evenodd" d="M29.4369 13.8382C29.4988 14.5967 29.5 15.5751 29.5 17V23C29.5 24.1886 29.4992 25.0666 29.4629 25.7653L22.1562 18.5L17.1562 23.5L14.6562 20.9963L10.5142 25.1321C10.5004 24.5496 10.5 23.8552 10.5 23V17C10.5 15.5751 10.5012 14.5967 10.5631 13.8382C10.6237 13.0972 10.7347 12.6991 10.8815 12.411C11.217 11.7525 11.7525 11.217 12.411 10.8815C12.6991 10.7347 13.0972 10.6237 13.8382 10.5631C14.5967 10.5012 15.5751 10.5 17 10.5H23C24.4249 10.5 25.4033 10.5012 26.1618 10.5631C26.9028 10.6237 27.3009 10.7347 27.589 10.8815C28.2475 11.217 28.783 11.7525 29.1185 12.411C29.2653 12.6991 29.3763 13.0972 29.4369 13.8382ZM31 17C31 14.1997 31 12.7996 30.455 11.73C29.9757 10.7892 29.2108 10.0243 28.27 9.54497C27.2004 9 25.8003 9 23 9H17C14.1997 9 12.7996 9 11.73 9.54497C10.7892 10.0243 10.0243 10.7892 9.54497 11.73C9 12.7996 9 14.1997 9 17V23C9 25.8003 9 27.2004 9.54497 28.27C10.0243 29.2108 10.7892 29.9757 11.73 30.455C12.7996 31 14.1997 31 17 31H23C25.8003 31 27.2004 31 28.27 30.455C29.2108 29.9757 29.9757 29.2108 30.455 28.27C31 27.2004 31 25.8003 31 23V17ZM16.6562 18C15.5517 18 14.6562 17.1046 14.6562 16C14.6562 14.8954 15.5517 14 16.6562 14C17.7608 14 18.6562 14.8954 18.6562 16C18.6562 17.1046 17.7608 18 16.6562 18Z" fill="#38C569"/>
<path fill-rule="evenodd" clip-rule="evenodd" d="M29.5 17C29.5 15.5751 29.4988 14.5967 29.4369 13.8382C29.3763 13.0972 29.2653 12.6991 29.1185 12.411C28.783 11.7525 28.2475 11.217 27.589 10.8815C27.3009 10.7347 26.9028 10.6237 26.1618 10.5631C25.4033 10.5012 24.4249 10.5 23 10.5H17C15.5751 10.5 14.5967 10.5012 13.8382 10.5631C13.0972 10.6237 12.6991 10.7347 12.411 10.8815C11.7525 11.217 11.217 11.7525 10.8815 12.411C10.7347 12.6991 10.6237 13.0972 10.5631 13.8382C10.5012 14.5967 10.5 15.5751 10.5 17V23C10.5 23.8552 10.5004 24.5496 10.5142 25.1321L14.6562 20.9963L17.1562 23.5L22.1562 18.5L29.4629 25.7653C29.4992 25.0666 29.5 24.1886 29.5 23V17ZM14.6562 16C14.6562 17.1046 15.5517 18 16.6562 18C17.7608 18 18.6562 17.1046 18.6562 16C18.6562 14.8954 17.7608 14 16.6562 14C15.5517 14 14.6562 14.8954 14.6562 16Z" fill="white"/>
</svg>