<svg width="20" height="20" viewBox="0 0 20 20" fill="none" xmlns="http://www.w3.org/2000/svg">
<path d="M14.0312 2C16.2404 2 18.0312 3.79086 18.0312 6V14C18.0312 16.2091 16.2404 18 14.0312 18H6.03125C3.82211 18 2.03125 16.2091 2.03125 14V6C2.03125 3.79086 3.82211 2 6.03125 2H14.0312ZM9.98242 5C9.76662 5.00758 9.58415 5.15239 9.52246 5.35254L9.50293 5.44141C9.11287 8.77193 7.8224 11.0469 5.15137 13.6416C4.96288 13.825 4.94898 14.1227 5.11914 14.3232C5.28932 14.5237 5.58534 14.5584 5.79688 14.4023C8.30633 12.5463 11.6165 12.0566 14.4229 12.4941C14.6667 12.5322 14.9019 12.3865 14.9766 12.1514C15.051 11.9161 14.9429 11.6611 14.7217 11.5518C13.5036 10.9502 12.6052 10.2091 11.9346 9.23926C11.2605 8.26435 10.7956 7.02859 10.4912 5.4082C10.4456 5.1654 10.2293 4.99148 9.98242 5ZM10.0762 7.74023C10.3513 8.51144 10.6903 9.19733 11.1123 9.80762C11.5171 10.393 11.9911 10.9011 12.54 11.3477C10.9797 11.3405 9.35222 11.5928 7.82227 12.1758C8.89385 10.7934 9.62776 9.37809 10.0762 7.74023Z" fill="#F55522"/>
</svg>