<svg width="20" height="20" viewBox="0 0 20 20" fill="none" xmlns="http://www.w3.org/2000/svg">
<path fill-rule="evenodd" clip-rule="evenodd" d="M15 3.5H5C4.17157 3.5 3.5 4.17157 3.5 5V15C3.5 15.8284 4.17157 16.5 5 16.5H15C15.8284 16.5 16.5 15.8284 16.5 15V5C16.5 4.17157 15.8284 3.5 15 3.5ZM5 2C3.34315 2 2 3.34315 2 5V15C2 16.6569 3.34315 18 5 18H15C16.6569 18 18 16.6569 18 15V5C18 3.34315 16.6569 2 15 2H5Z" fill="#b6b6b6"/>
<path fill-rule="evenodd" clip-rule="evenodd" d="M9.43615 4.75276C9.82868 4.71922 10.1803 4.99509 10.241 5.38433C10.5072 7.08908 10.9744 8.28834 11.6757 9.18891C12.3736 10.0852 13.3552 10.7521 14.771 11.3007C15.1346 11.4416 15.3296 11.8377 15.2195 12.2118C15.1094 12.5859 14.731 12.8132 14.349 12.7347C12.8367 12.4239 11.5964 12.3811 10.3869 12.6539C9.17325 12.9277 7.9312 13.5328 6.4385 14.6085C6.11692 14.8402 5.67054 14.7817 5.41954 14.475C5.16854 14.1682 5.19959 13.7191 5.49043 13.4497C6.82469 12.2142 7.63633 11.0799 8.11843 9.85885C8.60259 8.63253 8.77739 7.26098 8.7501 5.51173C8.74396 5.11782 9.04363 4.7863 9.43615 4.75276ZM9.89633 9.20889C9.79458 9.61889 9.6682 10.0182 9.51363 10.4097C9.36656 10.7822 9.19543 11.144 8.99858 11.4983C9.35059 11.373 9.70236 11.2707 10.0569 11.1907C10.4784 11.0956 10.899 11.0332 11.3232 11.0005C11.0211 10.7295 10.7442 10.4341 10.4922 10.1105C10.2722 9.82797 10.0742 9.52783 9.89633 9.20889Z" fill="#b6b6b6"/>
</svg>
