<svg width="40" height="40" viewBox="0 0 40 40" fill="none" xmlns="http://www.w3.org/2000/svg">
<path d="M9.54497 11.73C9 12.7996 9 14.1997 9 17V23C9 25.8003 9 27.2004 9.54497 28.27C10.0243 29.2108 10.7892 29.9757 11.73 30.455C12.7996 31 14.1997 31 17 31H23C25.8003 31 27.2004 31 28.27 30.455C29.2108 29.9757 29.9757 29.2108 30.455 28.27C31 27.2004 31 25.8003 31 23V17C31 14.1997 31 12.7996 30.455 11.73C29.9757 10.7892 29.2108 10.0243 28.27 9.54497C27.2004 9 25.8003 9 23 9H17C14.1997 9 12.7996 9 11.73 9.54497C10.7892 10.0243 10.0243 10.7892 9.54497 11.73Z" fill="#F55522"/>
<path fill-rule="evenodd" clip-rule="evenodd" d="M19.3751 12.7073C19.695 12.68 19.9814 12.9048 20.0309 13.2219C20.4487 15.8974 21.1045 17.7764 22.1643 19.1953C23.2179 20.606 24.7172 21.6234 26.9431 22.486C27.2394 22.6008 27.3982 22.9235 27.3085 23.2283C27.2188 23.5331 26.9105 23.7184 26.5993 23.6544C24.2387 23.1692 22.3035 23.0994 20.4009 23.5413C18.4933 23.9843 16.5676 24.9533 14.2462 26.6262C13.9842 26.8151 13.6205 26.7674 13.416 26.5174C13.2115 26.2675 13.2368 25.9015 13.4737 25.6821C15.5637 23.7468 16.9067 21.9885 17.7252 20.0707C18.5436 18.1533 18.8583 16.0281 18.8161 13.3257C18.8111 13.0048 19.0553 12.7347 19.3751 12.7073ZM19.7818 17.2993C19.5912 18.4497 19.2885 19.5216 18.8493 20.5505C18.4287 21.5361 17.8873 22.4719 17.2114 23.3923C18.196 22.9201 19.1553 22.5758 20.1244 22.3507C21.1976 22.1015 22.2699 22.0016 23.3863 22.029C22.5223 21.4311 21.7944 20.7425 21.185 19.9267C20.6106 19.1576 20.1518 18.2889 19.7818 17.2993Z" fill="white"/>
</svg>