<svg width="70" height="18" viewBox="0 0 70 18" fill="none" xmlns="http://www.w3.org/2000/svg">
<path d="M9.26855 14.2148V4.42862H6.99299V6.0522H6.85875C6.73944 5.81357 6.57111 5.56001 6.35378 5.29155C6.13645 5.01882 5.84242 4.78658 5.47168 4.59482C5.10094 4.39879 4.62793 4.30078 4.05265 4.30078C3.29412 4.30078 2.61017 4.49467 2.0008 4.88246C1.38716 5.26598 0.901367 5.83487 0.543413 6.58913C0.181197 7.33913 8.7738e-05 8.25959 8.7738e-05 9.3505C8.7738e-05 10.4286 0.176935 11.3448 0.530628 12.0991C0.884321 12.8533 1.36586 13.4286 1.97523 13.8249C2.58461 14.2212 3.27495 14.4194 4.04625 14.4194C4.60875 14.4194 5.07537 14.3256 5.44611 14.1381C5.81685 13.9506 6.11515 13.7248 6.341 13.4606C6.56259 13.1921 6.73517 12.9386 6.85875 12.6999H6.95463V14.2148H9.26855ZM6.99938 9.33771C6.99938 9.97266 6.90989 10.5288 6.73091 11.006C6.54767 11.4833 6.2856 11.8562 5.94469 12.1246C5.59952 12.3889 5.18191 12.521 4.69185 12.521C4.18049 12.521 3.75222 12.3846 3.40705 12.1119C3.06188 11.8349 2.80194 11.4577 2.62722 10.9805C2.44824 10.4989 2.35875 9.95135 2.35875 9.33771C2.35875 8.72834 2.44611 8.18714 2.62083 7.71413C2.79554 7.24112 3.05549 6.87038 3.40066 6.60192C3.74583 6.33345 4.17623 6.19922 4.69185 6.19922C5.18617 6.19922 5.60591 6.32919 5.95108 6.58913C6.29625 6.84908 6.55833 7.21342 6.7373 7.68217C6.91202 8.15092 6.99938 8.70277 6.99938 9.33771Z" fill="#D4D4D4"/>
<path fill-rule="evenodd" clip-rule="evenodd" d="M37.3539 4.42649V6.21626H35.4171V11.2915C35.4171 11.6026 35.464 11.8413 35.5577 12.0075C35.6557 12.1694 35.7836 12.2802 35.9412 12.3398C36.0989 12.3995 36.2736 12.4293 36.4654 12.4293C36.6103 12.4293 36.7424 12.4187 36.8617 12.3974C36.9853 12.3761 37.079 12.3569 37.1429 12.3398L37.5328 14.1488C37.4093 14.1914 37.2324 14.2383 37.0023 14.2894C36.7765 14.3406 36.4995 14.3704 36.1713 14.3789C35.5918 14.396 35.0698 14.3086 34.6053 14.1168C34.1408 13.9208 33.7722 13.6183 33.4995 13.2092C33.231 12.8001 33.0989 12.2887 33.1032 11.6751V6.21626V4.42649V2.07422H35.4171V4.42649H37.3539ZM13.7768 14.2447V8.49183C13.7768 8.01882 13.8642 7.61612 14.0389 7.28374C14.2179 6.95135 14.4629 6.6978 14.774 6.52308C15.0893 6.3441 15.4494 6.25462 15.8542 6.25462C16.4508 6.25462 16.9174 6.43999 17.2541 6.81072C17.595 7.18146 17.7654 7.69496 17.7654 8.35121V14.2447H20.0794V7.99325C20.0836 7.20916 19.9451 6.54226 19.6639 5.99254C19.3869 5.44283 18.9949 5.02308 18.4877 4.73331C17.9849 4.44354 17.3947 4.29865 16.7172 4.29865C15.9842 4.29865 15.3684 4.46058 14.8699 4.78445C14.3755 5.10831 14.0154 5.5451 13.7896 6.09481H13.6745V4.42649H11.4629V14.2447H13.7768ZM40.8188 17.8242C41.2348 16.6989 41.6498 15.5732 42.0696 14.4492L38.5092 4.42649H40.9638L43.2266 11.8413H43.3288L45.598 4.42649H48.0589L43.2637 17.8242H40.8188ZM49.6602 17.9265V4.42649H51.9357V6.05007H52.07C52.1893 5.81143 52.3576 5.55788 52.5749 5.28942C52.7923 5.01669 53.0863 4.78445 53.457 4.59268C53.8278 4.39666 54.3008 4.29865 54.8761 4.29865C55.6346 4.29865 56.3185 4.49254 56.9279 4.88033C57.5415 5.26385 58.0273 5.83274 58.3853 6.587C58.7475 7.337 58.9286 8.25746 58.9286 9.34837C58.9286 10.4265 58.7518 11.3427 58.3981 12.0969C58.0444 12.8512 57.5629 13.4265 56.9535 13.8228C56.3441 14.2191 55.6538 14.4173 54.8825 14.4173C54.32 14.4173 53.8533 14.3235 53.4826 14.136C53.1119 13.9485 52.8136 13.7227 52.5877 13.4585C52.3661 13.19 52.1935 12.9364 52.07 12.6978H51.9741V17.9265H49.6602ZM51.9293 9.33558C51.9293 9.97053 52.0188 10.5266 52.1978 11.0039C52.381 11.4812 52.6431 11.854 52.984 12.1225C53.3292 12.3867 53.7468 12.5188 54.2369 12.5188C54.7482 12.5188 55.1765 12.3825 55.5217 12.1097C55.8668 11.8327 56.1268 11.4556 56.3015 10.9783C56.4805 10.4968 56.57 9.94922 56.57 9.33558C56.57 8.72621 56.4826 8.18501 56.3079 7.712C56.1332 7.23899 55.8732 6.86825 55.5281 6.59979C55.1829 6.33132 54.7525 6.19709 54.2369 6.19709C53.7425 6.19709 53.3228 6.32706 52.9776 6.587C52.6325 6.84695 52.3704 7.21129 52.1914 7.68004C52.0167 8.14879 51.9293 8.70064 51.9293 9.33558ZM62.7063 13.8228C63.4222 14.2319 64.2724 14.4364 65.2568 14.4364C66.0195 14.4364 66.6971 14.3214 67.2894 14.0913C67.8818 13.8569 68.3675 13.5288 68.7468 13.1069C69.1303 12.6808 69.3903 12.1822 69.5266 11.6111L67.3661 11.3683C67.2639 11.6452 67.1126 11.8775 66.9123 12.065C66.712 12.2525 66.4755 12.3952 66.2028 12.4933C65.93 12.587 65.6254 12.6339 65.2887 12.6339C64.7859 12.6339 64.3469 12.5273 63.9719 12.3143C63.5969 12.0969 63.305 11.7859 63.0962 11.381C62.8945 10.9858 62.7902 10.5149 62.7834 9.96839H69.6225V9.25888C69.6225 8.39808 69.5032 7.65661 69.2646 7.03445C69.0259 6.40803 68.6978 5.8924 68.2802 5.48757C67.8668 5.08274 67.3896 4.78445 66.8484 4.59268C66.3114 4.39666 65.7404 4.29865 65.1353 4.29865C64.1978 4.29865 63.3817 4.51385 62.6871 4.94425C61.9925 5.37038 61.4513 5.96697 61.0636 6.73402C60.68 7.4968 60.4883 8.38317 60.4883 9.39311C60.4883 10.4201 60.68 11.3129 61.0636 12.0714C61.4471 12.8256 61.9947 13.4094 62.7063 13.8228ZM62.7877 8.40874C62.81 8.02408 62.9086 7.66825 63.0835 7.34126C63.2837 6.97052 63.5629 6.67223 63.9208 6.44638C64.2788 6.21626 64.6942 6.10121 65.1673 6.10121C65.6104 6.10121 65.9982 6.20135 66.3306 6.40163C66.6673 6.60192 66.9293 6.87678 67.1168 7.22621C67.3043 7.57138 67.4002 7.96555 67.4045 8.40874H62.7877Z" fill="#D4D4D4"/>
<path d="M38.5092 4.42649L42.0696 14.4492C41.6498 15.5732 41.2348 16.6989 40.8188 17.8242H43.2637L48.0589 4.42649H45.598L43.3288 11.8413H43.2266L40.9638 4.42649H38.5092Z" fill="#D4D4D4"/>
<path d="M21.3887 4.42578L24.949 14.4485C24.5293 15.5724 24.1143 16.6982 23.6983 17.8235H26.1431L30.9384 4.42578H28.4775L26.2083 11.8406H26.106L23.8432 4.42578H21.3887Z" fill="#D4D4D4"/>
</svg>