<svg width="20" height="20" viewBox="0 0 20 20" fill="none" xmlns="http://www.w3.org/2000/svg">
<path d="M3.70711 7.67822C3.31658 8.06875 3.31658 8.70191 3.70711 9.09244L10.9076 16.2929C11.2981 16.6834 11.9313 16.6834 12.3218 16.2929L12.8682 15.7465C13.0812 15.5335 13.1869 15.2358 13.1558 14.9361L12.8911 12.3857C12.857 12.0573 12.9872 11.7333 13.2389 11.5198L17.1721 8.18413C17.6179 7.80601 17.6458 7.12773 17.2324 6.71436L13.2856 2.76753C12.8722 2.35419 12.194 2.38198 11.8159 2.82775L8.47927 6.76114C8.26574 7.01285 7.94175 7.14299 7.61343 7.10891L5.06388 6.84426C4.76424 6.81315 4.46654 6.91879 4.25353 7.1318L3.70711 7.67822Z" fill="#f8f8f8"/>
<path d="M2.46967 16.4697C2.17678 16.7626 2.17678 17.2374 2.46967 17.5303C2.76256 17.8232 3.23744 17.8232 3.53033 17.5303L2.46967 16.4697ZM3 17L3.53033 17.5303L8.48008 12.5806L7.94975 12.0503L7.41942 11.5199L2.46967 16.4697L3 17Z" fill="#f8f8f8"/>
</svg>
