<svg width="20" height="20" viewBox="0 0 20 20" fill="none" xmlns="http://www.w3.org/2000/svg">
<path fill-rule="evenodd" clip-rule="evenodd" d="M12 7.5H4C3.72386 7.5 3.5 7.72386 3.5 8V16C3.5 16.2761 3.72386 16.5 4 16.5H12C12.2761 16.5 12.5 16.2761 12.5 16V8C12.5 7.72386 12.2761 7.5 12 7.5ZM4 6C2.89543 6 2 6.89543 2 8V16C2 17.1046 2.89543 18 4 18H12C13.1046 18 14 17.1046 14 16V8C14 6.89543 13.1046 6 12 6H4Z" fill="#b6b6b6"/>
<path fill-rule="evenodd" clip-rule="evenodd" d="M8 3.5H16C16.2761 3.5 16.5 3.72386 16.5 4V12C16.5 12.2761 16.2761 12.5 16 12.5H14V14H16C17.1046 14 18 13.1046 18 12V4C18 2.89543 17.1046 2 16 2H8C6.89543 2 6 2.89543 6 4V6H7.5V4C7.5 3.72386 7.72386 3.5 8 3.5Z" fill="#b6b6b6"/>
</svg>