<svg xmlns="http://www.w3.org/2000/svg" width="20" height="20" viewBox="0 0 20 20" fill="none">
    <ellipse cx="10" cy="5" rx="2.75" ry="3" fill="#f8f8f8"/>
    <path d="M15.9767 6.2693V6.17636C15.9791 5.745 16.0186 5.40181 16.0954 5.14681C16.1746 4.8918 16.2863 4.68684 16.4306 4.53194C16.5749 4.37464 16.7506 4.23046 16.9577 4.09938C17.0997 4.00882 17.2265 3.90991 17.3382 3.80267C17.4523 3.69304 17.5419 3.5715 17.6071 3.43804C17.6722 3.30219 17.7048 3.15086 17.7048 2.98403C17.7048 2.79576 17.6618 2.63251 17.5756 2.49428C17.4895 2.35605 17.3732 2.24881 17.2265 2.17255C17.0822 2.09628 16.9205 2.05815 16.7413 2.05815C16.576 2.05815 16.4189 2.09509 16.27 2.16897C16.1234 2.24047 16.0012 2.3501 15.9034 2.49786C15.808 2.64323 15.7545 2.82793 15.7428 3.05195H14.5C14.5116 2.59914 14.6187 2.22021 14.8212 1.91516C15.026 1.61011 15.296 1.38132 15.6311 1.22879C15.9686 1.07626 16.341 1 16.7483 1C17.1928 1 17.5838 1.07984 17.9213 1.23951C18.2611 1.39919 18.5252 1.62679 18.7137 1.92231C18.9046 2.21544 19 2.56339 19 2.96616C19 3.23785 18.9569 3.48093 18.8708 3.69542C18.787 3.90991 18.6672 4.10057 18.5112 4.2674C18.3553 4.43422 18.1703 4.58317 17.9562 4.71425C17.7676 4.83341 17.6129 4.95734 17.4919 5.08603C17.3732 5.21473 17.2847 5.36606 17.2265 5.54004C17.1707 5.71163 17.1416 5.92374 17.1393 6.17636V6.2693H15.9767ZM16.5842 8.5C16.3747 8.5 16.1943 8.42374 16.0431 8.27121C15.8918 8.11868 15.8161 7.93279 15.8161 7.71354C15.8161 7.49905 15.8918 7.31554 16.0431 7.16301C16.1943 7.01049 16.3747 6.93422 16.5842 6.93422C16.7913 6.93422 16.9705 7.01049 17.1218 7.16301C17.2754 7.31554 17.3522 7.49905 17.3522 7.71354C17.3522 7.85891 17.3161 7.99118 17.244 8.11034C17.1742 8.2295 17.0811 8.32483 16.9647 8.39633C16.8507 8.46544 16.7238 8.5 16.5842 8.5Z" fill="#f8f8f8"/>
    <path d="M4 15C4 11.6863 6.68629 9 10 9C13.3137 9 16 11.6863 16 15V15.4C16 16.2837 15.2837 17 14.4 17H5.6C4.71635 17 4 16.2837 4 15.4V15Z" fill="#f8f8f8"/>
</svg>
