<svg width="21" height="20" viewBox="0 0 21 20" fill="none" xmlns="http://www.w3.org/2000/svg">
<path d="M0.833984 10.0032C0.833984 9.06637 1.01738 8.25101 1.38417 7.55708C1.75592 6.86315 2.27389 6.32536 2.93807 5.9437C3.60226 5.55708 4.37054 5.36377 5.24291 5.36377C5.94179 5.36377 6.59607 5.51495 7.20573 5.8173C7.82035 6.1147 8.44241 6.56575 9.0719 7.17046L10.834 8.87306L12.5961 7.17046C13.2256 6.56575 13.8476 6.1147 14.4622 5.8173C15.0769 5.51495 15.7311 5.36377 16.4251 5.36377C17.2974 5.36377 18.0657 5.55708 18.7299 5.9437C19.3941 6.32536 19.9096 6.86315 20.2764 7.55708C20.6481 8.25101 20.834 9.06637 20.834 10.0032C20.834 10.94 20.6481 11.7553 20.2764 12.4493C19.9096 13.1432 19.3941 13.6835 18.7299 14.0701C18.0657 14.4517 17.2974 14.6426 16.4251 14.6426C15.7311 14.6426 15.0769 14.4939 14.4622 14.1965C13.8476 13.8941 13.2256 13.4406 12.5961 12.8359L10.834 11.1333L9.0719 12.8359C8.44241 13.4406 7.82035 13.8941 7.20573 14.1965C6.59607 14.4939 5.94179 14.6426 5.24291 14.6426C4.37054 14.6426 3.60226 14.4517 2.93807 14.0701C2.27389 13.6835 1.75592 13.1432 1.38417 12.4493C1.01738 11.7553 0.833984 10.94 0.833984 10.0032ZM2.49941 10.0032C2.49941 10.6029 2.61341 11.1283 2.84142 11.5794C3.07438 12.0255 3.39656 12.37 3.80796 12.6128C4.21936 12.8557 4.69768 12.9772 5.24291 12.9772C5.69892 12.9772 6.14006 12.8656 6.56633 12.6426C6.9926 12.4195 7.43869 12.0899 7.90462 11.6537L9.6667 10.0032L7.91205 8.35262C7.44117 7.91643 6.9926 7.58682 6.56633 7.36377C6.14006 7.14072 5.69892 7.0292 5.24291 7.0292C4.69768 7.0292 4.21936 7.15063 3.80796 7.39351C3.39656 7.63638 3.07438 7.98087 2.84142 8.42697C2.61341 8.87306 2.49941 9.39847 2.49941 10.0032ZM12.0013 10.0032L13.7634 11.6537C14.2293 12.0899 14.6754 12.4195 15.1016 12.6426C15.5279 12.8656 15.9691 12.9772 16.4251 12.9772C16.9703 12.9772 17.4486 12.8557 17.86 12.6128C18.2714 12.37 18.5911 12.0255 18.8191 11.5794C19.0521 11.1283 19.1686 10.6029 19.1686 10.0032C19.1686 9.39847 19.0521 8.87306 18.8191 8.42697C18.5911 7.98087 18.2714 7.63638 17.86 7.39351C17.4486 7.15063 16.9703 7.0292 16.4251 7.0292C15.9691 7.0292 15.5279 7.14072 15.1016 7.36377C14.6754 7.58682 14.2268 7.91643 13.7559 8.35262L12.0013 10.0032Z" fill="black" fill-opacity="0.4"/>
</svg>
