<svg width="20" height="20" viewBox="0 0 20 20" fill="none" xmlns="http://www.w3.org/2000/svg">
<path d="M4.30219 5.82535L6.08444 7.61532C4.85512 8.1194 3.75439 8.88579 2.78225 9.91451C2.69996 10.002 2.60223 10.0482 2.48907 10.0534C2.38105 10.0534 2.2859 10.0097 2.2036 9.92223L1.11573 8.83436C1.04372 8.7572 1.00514 8.6749 1 8.58746C1 8.49488 1.03086 8.41001 1.09258 8.33286C1.50407 7.84421 1.97985 7.38901 2.51993 6.96723C3.06515 6.54031 3.65924 6.15969 4.30219 5.82535ZM9.78783 6.86693L7.58123 4.65262C8.00814 4.57032 8.41963 4.50859 8.81569 4.46745C9.21689 4.4263 9.61037 4.40572 9.99614 4.40572C11.1946 4.40572 12.3545 4.57546 13.4758 4.91494C14.6022 5.25442 15.6309 5.72248 16.5619 6.31914C17.4929 6.91065 18.2748 7.58189 18.9074 8.33286C18.9691 8.41001 19 8.49488 19 8.58746C19 8.6749 18.9589 8.7572 18.8766 8.83436L17.7964 9.91451C17.7141 10.002 17.6189 10.0482 17.5109 10.0534C17.4029 10.0534 17.3103 10.0148 17.2332 9.93766C16.2868 8.96037 15.2143 8.20684 14.0159 7.67705C12.8225 7.14726 11.5084 6.86693 10.0733 6.83607C10.027 6.83607 9.97814 6.83864 9.9267 6.84379C9.88041 6.84893 9.83412 6.85664 9.78783 6.86693ZM7.7664 9.28185L9.85727 11.3804C9.36348 11.3907 8.88256 11.4704 8.41449 11.6196C7.94642 11.7688 7.50664 11.9719 7.09516 12.2291C6.68881 12.4812 6.33133 12.7743 6.02272 13.1087C5.93528 13.2013 5.83755 13.2527 5.72953 13.263C5.62152 13.2681 5.52122 13.227 5.42863 13.1395L4.21732 11.9514C4.14531 11.8794 4.10416 11.7996 4.09387 11.7122C4.08873 11.6248 4.11959 11.5425 4.18646 11.4653C4.59794 10.9818 5.10973 10.5497 5.72182 10.1691C6.33905 9.78335 7.02057 9.48759 7.7664 9.28185ZM15.3275 12.4066L12.2027 9.28185C12.9331 9.46702 13.6198 9.75506 14.2628 10.146C14.9057 10.5369 15.4252 10.9767 15.8213 11.4653C15.8778 11.5425 15.9036 11.6248 15.8984 11.7122C15.8984 11.7996 15.8598 11.8794 15.7827 11.9514L15.3275 12.4066ZM10.0039 13.479C10.5491 13.479 11.0506 13.5999 11.5084 13.8416C11.9661 14.0834 12.3288 14.374 12.5962 14.7135C12.658 14.7906 12.6837 14.8755 12.6734 14.9681C12.6631 15.0607 12.6219 15.1404 12.5499 15.2073L10.6674 17.0281C10.5131 17.1773 10.3871 17.2776 10.2893 17.329C10.1967 17.3856 10.1016 17.4139 10.0039 17.4139C9.91127 17.4139 9.81869 17.3856 9.7261 17.329C9.63352 17.2776 9.5075 17.1773 9.34805 17.0281L7.45778 15.2073C7.39091 15.1455 7.34719 15.0761 7.32662 14.999C7.31119 14.9167 7.32662 14.8421 7.37291 14.7752C7.64038 14.4152 8.00814 14.1091 8.47621 13.8571C8.94428 13.605 9.45349 13.479 10.0039 13.479ZM16.5156 16.6578L3.48435 3.63418C3.36605 3.52103 3.3069 3.377 3.3069 3.20212C3.3069 3.02724 3.36605 2.88065 3.48435 2.76235C3.59751 2.64404 3.74153 2.58746 3.91642 2.59261C4.0913 2.59261 4.23789 2.65176 4.35619 2.77006L17.3798 15.7936C17.5032 15.9119 17.5649 16.056 17.5649 16.2257C17.5649 16.3954 17.5032 16.5395 17.3798 16.6578C17.2666 16.7761 17.1252 16.8352 16.9554 16.8352C16.7857 16.8352 16.6391 16.7761 16.5156 16.6578Z" fill="black" fill-opacity="0.4"/>
</svg>
