<svg width="20" height="20" viewBox="0 0 20 20" fill="none" xmlns="http://www.w3.org/2000/svg">
<path fill-rule="evenodd" clip-rule="evenodd" d="M2 4C2 3.58579 2.33579 3.25 2.75 3.25H17.25C17.6642 3.25 18 3.58579 18 4C18 4.41421 17.6642 4.75 17.25 4.75H2.75C2.33579 4.75 2 4.41421 2 4ZM7.75 9.25C7.33579 9.25 7 9.58579 7 10C7 10.4142 7.33579 10.75 7.75 10.75H17.25C17.6642 10.75 18 10.4142 18 10C18 9.58579 17.6642 9.25 17.25 9.25H7.75ZM2.75 15.25C2.33579 15.25 2 15.5858 2 16C2 16.4142 2.33579 16.75 2.75 16.75H17.25C17.6642 16.75 18 16.4142 18 16C18 15.5858 17.6642 15.25 17.25 15.25H2.75ZM2.75 8.5C2.33579 8.5 2 8.83579 2 9.25V10.75C2 11.1642 2.33579 11.5 2.75 11.5H4.25C4.66421 11.5 5 11.1642 5 10.75V9.25C5 8.83579 4.66421 8.5 4.25 8.5H2.75Z" fill="#b6b6b6"/>
</svg>