<svg width="12" height="19" viewBox="0 0 12 19" fill="none" xmlns="http://www.w3.org/2000/svg">
<path fill-rule="evenodd" clip-rule="evenodd" d="M0.970581 4.00157H2.97058V12.5166C2.97058 14.4496 4.53758 16.0166 6.47058 16.0166C8.40358 16.0166 9.97058 14.4496 9.97058 12.5166V5.00318H11.9706V12.5166V12.5334H11.9706C11.9615 15.5633 9.50253 18.0166 6.47058 18.0166C3.43863 18.0166 0.97969 15.5633 0.970606 12.5334H0.970581V12.5166V4.00157Z" fill="#ACA996"/>
<path fill-rule="evenodd" clip-rule="evenodd" d="M6.97058 3.98633H8.97058V11.5166C8.97058 12.8973 7.85129 14.0166 6.47058 14.0166C5.08987 14.0166 3.97058 12.8973 3.97058 11.5166V4.99053H5.97058V11.5166C5.97058 11.7927 6.19444 12.0166 6.47058 12.0166C6.74672 12.0166 6.97058 11.7927 6.97058 11.5166V3.98633Z" fill="#ACA996"/>
<path d="M8.97058 4.0166H6.97058C6.97058 2.91203 6.07515 2.0166 4.97058 2.0166C3.86601 2.0166 2.97058 2.91203 2.97058 4.0166H0.970581C0.970581 1.80746 2.76144 0.0166016 4.97058 0.0166016C7.17972 0.0166016 8.97058 1.80746 8.97058 4.0166Z" fill="#ACA996"/>
</svg>