<svg width="20" height="20" viewBox="0 0 20 20" fill="none" xmlns="http://www.w3.org/2000/svg">
<path d="M2.50006 6.02974C2.50002 6.01326 2.50194 5.99707 2.50668 5.98129C2.57433 5.75625 3.19221 4.00012 6 4C8.80763 4.00012 9.4256 5.75605 9.4933 5.98125C9.49806 5.99706 9.49998 6.01327 9.49993 6.02979L9.47126 15.6566C9.47063 15.8674 9.11621 15.9759 8.97356 15.8207C8.45585 15.2573 7.50562 14.5453 6 14.5264C4.4967 14.5263 3.54707 15.24 3.02883 15.809C2.88645 15.9653 2.52888 15.8572 2.52811 15.6458L2.51562 12.255L2.50006 6.02974Z" fill="#9B9B9B"/>
<path d="M10.5001 6.02979C10.5 6.01327 10.5019 5.99706 10.5067 5.98125C10.5744 5.75605 11.1924 4.00012 14 4C16.8076 4.00012 17.4256 5.75605 17.4933 5.98125C17.4981 5.99706 17.5 6.01327 17.4999 6.02979L17.4713 15.6566C17.4706 15.8674 17.1162 15.9759 16.9736 15.8207C16.4558 15.2573 15.5056 14.5453 14 14.5264C12.4976 14.5263 11.5482 15.2391 11.0298 15.808C10.8873 15.9643 10.5293 15.8559 10.5287 15.6444L10.5001 6.02979Z" fill="#9B9B9B"/>
</svg>