<svg xmlns="http://www.w3.org/2000/svg" width="20" height="20" viewBox="0 0 20 20" fill="none">
    <path d="M5.09209 17.0313C4.83623 17.0313 4.673 16.9474 4.60242 16.7798C4.53625 16.6166 4.56713 16.4511 4.69506 16.2835C5.11991 15.7245 5.5099 15.1553 5.87387 14.5574C5.92836 14.4575 5.88883 14.3574 5.79446 14.3059C5.08863 13.9265 4.58257 13.533 4.06643 13.008C3.5547 12.4786 3.15987 11.8963 2.88195 11.261C2.60844 10.6258 2.47168 9.95525 2.47168 9.24942C2.47168 8.41565 2.66358 7.63482 3.04738 6.90692C3.43559 6.17903 3.97158 5.54157 4.65536 4.99455C5.34355 4.44312 6.14202 4.013 7.05079 3.7042C7.95955 3.39098 8.93448 3.23438 9.97559 3.23438C11.0167 3.23438 11.9916 3.39098 12.9004 3.7042C13.8092 4.013 14.6054 4.44312 15.2892 4.99455C15.9774 5.54157 16.5134 6.17903 16.8972 6.90692C17.2854 7.63482 17.4795 8.41565 17.4795 9.24942C17.4795 9.90673 17.3582 10.5354 17.1156 11.1353C16.8729 11.7353 16.5222 12.2867 16.0634 12.7896C15.6046 13.2881 15.0488 13.7226 14.3959 14.0932C13.7474 14.4638 13.0151 14.7505 12.199 14.9534C11.3829 15.1564 10.5935 15.2417 9.64061 15.2417C9.43071 15.2417 9.26421 15.2167 9.08477 15.3409C8.15758 16.0073 6.9689 16.5554 5.87292 16.8857C5.55089 16.9827 5.29061 17.0313 5.09209 17.0313Z" stroke="#9B9B9B" stroke-width="1.5"/>
</svg>
