<svg width="20" height="20" viewBox="0 0 20 20" fill="none" xmlns="http://www.w3.org/2000/svg">
<path d="M3.25 9.85254C3.24478 8.27265 3.90453 6.76849 5.13672 5.61328C6.41542 4.4176 8.13518 3.75 9.99414 3.75C11.5671 3.74927 13.0879 4.24893 14.3057 5.1582C15.4931 6.05062 16.3042 7.2835 16.6084 8.62012L16.6094 8.62207C16.7032 9.02891 16.7501 9.44378 16.75 9.85938V9.86035C16.7499 11.4889 16.0819 13.0232 14.8506 14.1855H14.8496C13.6073 15.3596 11.93 16.0136 10.1143 16.0137C9.49686 16.0137 8.66462 15.8616 8.27051 15.7578L8.26855 15.7568C7.78256 15.63 7.319 15.4635 7.25781 15.4424H7.25684C7.12081 15.3948 6.97722 15.3704 6.83398 15.3701C6.71467 15.3698 6.59556 15.3862 6.48047 15.4189L6.35449 15.4609L4.11133 16.2178L4.09375 16.2236L4.07715 16.2305C4.0515 16.2405 4.02273 16.2456 3.99316 16.248C3.95375 16.2453 3.92389 16.2315 3.9082 16.2168C3.90114 16.2102 3.89802 16.2043 3.89648 16.2012C3.89731 16.1959 3.89765 16.1901 3.89941 16.1846L3.90234 16.1777L3.9043 16.1699L4.52051 14.0879L4.51855 14.0869C4.63249 13.7134 4.48272 13.4072 4.40527 13.2783H4.40723L4.39941 13.2656L4.37988 13.2344L4.36133 13.207C4.35805 13.2025 4.35445 13.1989 4.35254 13.1963C4.34879 13.1912 4.34523 13.1859 4.34277 13.1826C4.33617 13.1738 4.33348 13.1703 4.33105 13.167C4.32643 13.1608 4.32264 13.1547 4.31934 13.1504C4.31619 13.1463 4.31243 13.1421 4.31055 13.1396C4.30724 13.1353 4.30607 13.1334 4.30566 13.1328L4.29883 13.124C3.61228 12.1484 3.24988 11.0124 3.25 9.85547V9.85254Z" stroke="#9B9B9B" stroke-width="1.5"/>
</svg>