<svg width="20" height="20" viewBox="0 0 20 20" fill="none" xmlns="http://www.w3.org/2000/svg">
<path d="M7.83299 12.4807C7.73942 12.5193 7.65411 12.5 7.57706 12.4227C7.5 12.3399 7.48074 12.2516 7.51926 12.1578L8.2623 10.5185L15.7918 2.96805L17.0549 4.21819L9.51721 11.7687L7.83299 12.4807ZM17.6824 3.59726L16.4192 2.32229L16.9971 1.75103C17.1512 1.60201 17.3301 1.51922 17.5338 1.50266C17.7429 1.4861 17.9163 1.54682 18.0539 1.6848L18.2686 1.90833C18.4282 2.06288 18.5052 2.24226 18.4997 2.44647C18.4997 2.65069 18.4199 2.83559 18.2603 3.00117L17.6824 3.59726Z" fill="#252525"/>
<path d="M11.9004 4.5H5C4.17157 4.5 3.5 5.17157 3.5 6V15C3.5 15.8284 4.17157 16.5 5 16.5H14C14.8284 16.5 15.5 15.8284 15.5 15V8.09961L17 6.59961V15C17 16.6051 15.7394 17.9158 14.1543 17.9961L14 18H5L4.8457 17.9961C3.31166 17.9184 2.08163 16.6883 2.00391 15.1543L2 15V6C2 4.34315 3.34315 3 5 3H13.4004L11.9004 4.5Z" fill="black"/>
</svg>