<svg width="20" height="20" viewBox="0 0 20 20" fill="none" xmlns="http://www.w3.org/2000/svg">
<path d="M16.5219 4.72852L9.51701 11.7686L7.83342 12.4805C7.73989 12.5191 7.65459 12.5 7.57756 12.4229C7.50059 12.3401 7.4806 12.2519 7.51897 12.1582L8.26213 10.5186L15.2787 3.48535L16.5219 4.72852ZM18.0013 2.00087C18.3435 2.34308 18.3441 2.89774 18.0026 3.24066L17.227 4.01953L15.9848 2.77734L16.7597 2.0013C17.1024 1.65817 17.6584 1.65798 18.0013 2.00087Z" fill="#252525"/>
<path d="M12.2002 4H5.5C4.67157 4 4 4.67157 4 5.5V14.5C4 15.3284 4.67157 16 5.5 16H14.5C15.3284 16 16 15.3284 16 14.5V7.7998L17.5 6.2998V14.5C17.5 16.1051 16.2394 17.4158 14.6543 17.4961L14.5 17.5H5.5L5.3457 17.4961C3.81166 17.4184 2.58163 16.1883 2.50391 14.6543L2.5 14.5V5.5C2.5 3.84315 3.84315 2.5 5.5 2.5H13.7002L12.2002 4Z" fill="black"/>
</svg>