<svg width="20" height="20" viewBox="0 0 20 20" fill="none" xmlns="http://www.w3.org/2000/svg">
<path d="M11.3818 4.95117H6.20801C5.8859 4.95117 5.63964 5.03434 5.46875 5.2002C5.29785 5.36621 5.21191 5.61816 5.21191 5.95508V13.9893C5.21191 14.3262 5.29785 14.5781 5.46875 14.7441C5.63963 14.905 5.88606 14.9854 6.20801 14.9854H14.4189C14.6579 14.9852 14.8556 14.905 15.0117 14.7441C15.168 14.5781 15.2461 14.3262 15.2461 13.9893V9.25391L16.8799 7.62012V14.1504C16.8799 14.9559 16.6746 15.5664 16.2646 15.9814C15.8595 16.4013 15.2878 16.6112 14.5508 16.6113H6.06934C5.25879 16.6113 4.64062 16.4014 4.21582 15.9814C3.7959 15.5664 3.58594 14.9561 3.58594 14.1504V5.77832C3.58602 4.97778 3.79598 4.3671 4.21582 3.94727C4.64062 3.5275 5.25894 3.31738 6.06934 3.31738H13.0156L11.3818 4.95117ZM17.0186 4.40918L10.4492 10.9795L8.91113 11.6162C8.81855 11.6503 8.73032 11.6285 8.64746 11.5508C8.56452 11.4727 8.54505 11.3847 8.58887 11.2871L9.24805 9.78516L15.8174 3.21484L17.0186 4.40918ZM17.3994 1.9043C17.5996 1.88477 17.7656 1.93848 17.8975 2.06543L18.1104 2.28516C18.2615 2.43158 18.335 2.60265 18.3301 2.79785C18.3252 2.99306 18.244 3.17096 18.0879 3.33203L17.5898 3.84473L16.3887 2.63672L16.8799 2.14551C17.0311 1.99933 17.2043 1.91893 17.3994 1.9043Z" fill="#252525"/>
</svg>
