<svg xmlns="http://www.w3.org/2000/svg" width="20" height="20" viewBox="0 0 20 20" fill="none">
    <path d="M10 15.25C10 14.8358 10.3358 14.5 10.75 14.5H16V16H10.75C10.3358 16 10 15.6642 10 15.25Z" fill="#9B9B9B"/>
    <path d="M4.75 10C4.33579 10 4 9.66421 4 9.25V4H5.5V9.25C5.5 9.66421 5.16421 10 4.75 10Z" fill="#9B9B9B"/>
    <path fill-rule="evenodd" clip-rule="evenodd" d="M9.47498 9.47498C9.76494 9.18502 9.76494 8.7149 9.47498 8.42493L5.57507 4.52502C5.2851 4.23506 4.81498 4.23506 4.52502 4.52502C4.23506 4.81498 4.23506 5.2851 4.52502 5.57507L8.42493 9.47498C8.7149 9.76494 9.18502 9.76494 9.47498 9.47498Z" fill="#9B9B9B"/>
    <path fill-rule="evenodd" clip-rule="evenodd" d="M15.475 15.475C15.7649 15.185 15.7649 14.7149 15.475 14.4249L11.5751 10.525C11.2851 10.2351 10.815 10.2351 10.525 10.525C10.2351 10.815 10.2351 11.2851 10.525 11.5751L14.4249 15.475C14.7149 15.7649 15.185 15.7649 15.475 15.475Z" fill="#9B9B9B"/>
    <path d="M10 4.75C10 5.16421 9.66421 5.5 9.25 5.5L4 5.5V4L9.25 4C9.66421 4 10 4.33579 10 4.75Z" fill="#9B9B9B"/>
    <path d="M15.25 10C15.6642 10 16 10.3358 16 10.75L16 16H14.5L14.5 10.75C14.5 10.3358 14.8358 10 15.25 10Z" fill="#9B9B9B"/>
</svg>
