<svg width="20" height="20" viewBox="0 0 20 20" fill="none" xmlns="http://www.w3.org/2000/svg">
<circle cx="10" cy="10" r="9" fill="#9B9B9B"/>
<path d="M9.69238 12.1973C9.21387 12.1973 8.97461 11.8486 8.97461 11.3975V11.2402C8.97461 10.3652 9.39844 9.78418 10.2871 9.25098C11.1143 8.75195 11.4082 8.3418 11.4082 7.67188C11.4082 6.86523 10.7861 6.31152 9.87695 6.31152C9.0498 6.31152 8.50293 6.72168 8.28418 7.4668C8.14746 7.89062 7.93555 8.04102 7.59375 8.04102C7.16992 8.04102 6.93066 7.78809 6.93066 7.37109C6.93066 7.07715 6.99219 6.83789 7.11523 6.57129C7.53223 5.62793 8.57129 5.05371 9.93848 5.05371C11.7227 5.05371 12.96 6.09961 12.96 7.61035C12.96 8.66992 12.4268 9.39453 11.5244 9.93457C10.6426 10.4541 10.4102 10.8027 10.376 11.4727C10.3418 11.9102 10.1367 12.1973 9.69238 12.1973ZM9.69238 15.1025C9.19336 15.1025 8.79688 14.7197 8.79688 14.2207C8.79688 13.7217 9.19336 13.3389 9.69238 13.3389C10.2051 13.3389 10.5947 13.7217 10.5947 14.2207C10.5947 14.7197 10.2051 15.1025 9.69238 15.1025Z" fill="white"/>
</svg>