<svg width="20" height="20" viewBox="0 0 20 20" fill="none" xmlns="http://www.w3.org/2000/svg">
<path fill-rule="evenodd" clip-rule="evenodd" d="M13.8841 10.0056L15.3039 8.58581C16.3779 7.51187 16.3779 5.77067 15.3039 4.69672C14.23 3.62278 12.4888 3.62278 11.4148 4.69672L9.29351 6.81804C8.21957 7.89199 8.21957 9.63319 9.29351 10.7071C9.64823 11.0618 10.0757 11.2994 10.528 11.4198C10.492 11.8129 10.3236 12.1961 10.0227 12.497L9.76827 12.7514C9.2081 12.5454 8.68261 12.2176 8.23285 11.7678C6.57312 10.1081 6.57312 7.41711 8.23285 5.75738L10.3542 3.63606C12.0139 1.97633 14.7049 1.97633 16.3646 3.63606C18.0243 5.29579 18.0243 7.98674 16.3646 9.64647L14.2433 11.7678C14.1587 11.8523 14.0715 11.9326 13.9819 12.0085C14.0774 11.3424 14.0448 10.6615 13.8841 10.0056Z" fill="#252525"/>
<path fill-rule="evenodd" clip-rule="evenodd" d="M6.11783 9.99439L4.69803 11.4142C3.62409 12.4881 3.62409 14.2293 4.69803 15.3033C5.77198 16.3772 7.51318 16.3772 8.58712 15.3033L10.7084 13.182C11.7824 12.108 11.7824 10.3668 10.7084 9.29287C10.3537 8.93815 9.92621 8.70059 9.47399 8.5802C9.50992 8.18714 9.67833 7.80391 9.97924 7.50301L10.2337 7.24856C10.7939 7.45457 11.3193 7.78245 11.7691 8.23221C13.4288 9.89194 13.4288 12.5829 11.7691 14.2426L9.64778 16.3639C7.98805 18.0237 5.2971 18.0237 3.63737 16.3639C1.97765 14.7042 1.97765 12.0133 3.63737 10.3535L5.7587 8.23221C5.84323 8.14767 5.93044 8.06744 6.02005 7.99152C5.92459 8.65758 5.95718 9.33846 6.11783 9.99439Z" fill="#252525"/>
</svg>