<svg width="20" height="20" viewBox="0 0 20 20" fill="none" xmlns="http://www.w3.org/2000/svg">
<path d="M9.31106 18C8.85929 18 8.528 17.7363 8.43012 17.2994L8.05365 15.6949C7.79012 15.6045 7.54165 15.5066 7.31576 15.4011L5.92282 16.2599C5.55388 16.4934 5.11718 16.4557 4.80847 16.1469L3.84471 15.1827C3.536 14.8738 3.49082 14.4218 3.73929 14.0527L4.59012 12.6667C4.48471 12.4331 4.38682 12.1921 4.31153 11.9586L2.70024 11.5744C2.26353 11.4765 2 11.145 2 10.7006V9.34463C2 8.90019 2.26353 8.56874 2.70024 8.47081L4.29647 8.08663C4.37929 7.81544 4.48471 7.57439 4.57506 7.371L3.72424 5.9548C3.48329 5.57815 3.51341 5.15631 3.82965 4.83992L4.80847 3.87571C5.12471 3.58192 5.51624 3.53672 5.89271 3.74765L7.30824 4.61394C7.53412 4.50094 7.79012 4.40301 8.05365 4.31262L8.43012 2.7081C8.528 2.26365 8.85929 2 9.31106 2H10.6889C11.1332 2 11.472 2.26365 11.5624 2.70056L11.9464 4.32768C12.2174 4.41808 12.4584 4.51601 12.6767 4.62147L14.0998 3.74765C14.4762 3.53672 14.8678 3.58945 15.184 3.87571L16.1628 4.83992C16.4791 5.15631 16.5092 5.57815 16.2682 5.9548L15.4174 7.371C15.5078 7.57439 15.6132 7.81544 15.7035 8.08663L17.2998 8.47081C17.7365 8.56874 18 8.90019 18 9.34463V10.7006C18 11.145 17.7365 11.4765 17.2998 11.5744L15.6885 11.9586C15.6132 12.1921 15.5078 12.4331 15.4024 12.6667L16.2532 14.0527C16.5016 14.4218 16.4565 14.8738 16.1478 15.1827L15.184 16.1469C14.8753 16.4557 14.4461 16.4934 14.0772 16.2599L12.6767 15.4011C12.4508 15.5066 12.2024 15.6045 11.9464 15.6949L11.5624 17.2994C11.472 17.7363 11.1332 18 10.6889 18H9.31106ZM10.0038 12.6365C11.4494 12.6365 12.6315 11.4463 12.6315 9.99247C12.6315 8.55367 11.4494 7.36347 10.0038 7.36347C8.55059 7.36347 7.36094 8.55367 7.36094 9.99247C7.36094 11.4463 8.55059 12.6365 10.0038 12.6365Z" fill="#9B9B9B"/>
</svg>
