<svg xmlns="http://www.w3.org/2000/svg" width="20" height="20" viewBox="0 0 20 20" fill="none">
    <path d="M4 6.32001C4 5.90579 4.33579 5.57001 4.75 5.57001H10V7.07001H4.75C4.33579 7.07001 4 6.73422 4 6.32001Z" fill="#9B9B9B"/>
    <path d="M4 13.75C4 13.3358 4.33579 13 4.75 13H7V14.5H4.75C4.33579 14.5 4 14.1642 4 13.75Z" fill="#9B9B9B"/>
    <path d="M13 5.75H15.25C15.6642 5.75 16 6.08579 16 6.5C16 6.91421 15.6642 7.25 15.25 7.25H13V5.75Z" fill="#9B9B9B"/>
    <path d="M10 12.75H15.25C15.6642 12.75 16 13.0858 16 13.5C16 13.9142 15.6642 14.25 15.25 14.25H10V12.75Z" fill="#9B9B9B"/>
    <circle cx="11.5" cy="6.5" r="1.75" stroke="#9B9B9B" stroke-width="1.5"/>
    <circle cx="8.5" cy="13.5" r="1.75" stroke="#9B9B9B" stroke-width="1.5"/>
</svg>
