<svg width="20" height="20" viewBox="0 0 20 20" fill="none" xmlns="http://www.w3.org/2000/svg">
<rect x="7" y="5" width="1" height="3" rx="0.5" fill="#4DAE00"/>
<rect x="12" y="5" width="1" height="3" rx="0.5" fill="#4DAE00"/>
<path fill-rule="evenodd" clip-rule="evenodd" d="M4.5 10C4.77614 10 4.99737 10.2245 5.02462 10.4993C5.27516 13.0263 7.40709 15 10 15C12.5929 15 14.7248 13.0263 14.9754 10.4993C15.0026 10.2245 15.2239 10 15.5 10C15.7761 10 16.0022 10.2246 15.9795 10.4998C15.7255 13.5797 13.1454 16 10 16C6.85462 16 4.27453 13.5797 4.02052 10.4998C3.99783 10.2246 4.22386 10 4.5 10Z" fill="#4DAE00"/>
</svg>
