<svg width="24" height="24" viewBox="0 0 24 24" fill="none" xmlns="http://www.w3.org/2000/svg">
<path fill-rule="evenodd" clip-rule="evenodd" d="M21 8L14 1H5C3.89543 1 3 1.89543 3 3V21C3 22.1046 3.89543 23 5 23H19C20.1046 23 21 22.1046 21 21V8ZM13.3787 2.5L19.5 8.62132V21C19.5 21.2761 19.2761 21.5 19 21.5H5C4.72386 21.5 4.5 21.2761 4.5 21V3C4.5 2.72386 4.72386 2.5 5 2.5H13.3787Z" fill="#DFDDD0"/>
<path d="M12.5 1H14V9.5H12.5V1Z" fill="#DFDDD0"/>
<path d="M12.5 9.5V8H21V9.5H12.5Z" fill="#DFDDD0"/>
</svg>
