<svg width="20" height="20" viewBox="0 0 20 20" fill="none" xmlns="http://www.w3.org/2000/svg">
<path d="M8.64701 4.17139L5.60798 6.44719H2.83261C2.37467 6.44719 2 6.82186 2 7.2798V13.0803C2 13.5384 2.37467 13.9129 2.83261 13.9129H5.60798L8.64701 16.1887C9.20208 16.605 9.97919 16.2165 9.97919 15.5226V4.83747C9.97919 4.14363 9.18821 3.75508 8.64701 4.17139Z" fill="#a09f92"/>
<path d="M14.5571 5.8479C14.1429 5.8479 13.8071 6.08616 13.8071 6.38005V13.8301C13.8071 14.124 14.1429 14.3623 14.5571 14.3623C14.9713 14.3623 15.3071 14.124 15.3071 13.8301V6.38005C15.3071 6.08616 14.9713 5.8479 14.5571 5.8479Z" fill="#a09f92"/>
<path d="M12.4287 8.50854C12.0145 8.50854 11.6787 8.74681 11.6787 9.04069V11.1693C11.6787 11.4632 12.0145 11.7014 12.4287 11.7014C12.8429 11.7014 13.1787 11.4632 13.1787 11.1693V9.04069C13.1787 8.74681 12.8429 8.50854 12.4287 8.50854Z" fill="#a09f92"/>
<path d="M16.6855 7.97632C16.2713 7.97632 15.9355 8.21458 15.9355 8.50847V11.7014C15.9355 11.9952 16.2713 12.2335 16.6855 12.2335C17.0997 12.2335 17.4355 11.9952 17.4355 11.7014V8.50847C17.4355 8.21458 17.0997 7.97632 16.6855 7.97632Z" fill="#a09f92"/>
</svg>
