<svg width="618" height="52" viewBox="0 0 618 52" fill="none" xmlns="http://www.w3.org/2000/svg">
    <path d="M26 32C29.3137 32 32 29.3137 32 26C32 22.6863 29.3137 20 26 20C22.6863 20 20 22.6863 20 26C20 29.3137 22.6863 32 26 32Z" fill="#FF6159"/>
    <path d="M26 20.5C29.0376 20.5 31.5 22.9624 31.5 26C31.5 29.0376 29.0376 31.5 26 31.5C22.9624 31.5 20.5 29.0376 20.5 26C20.5 22.9624 22.9624 20.5 26 20.5Z" stroke="black" stroke-opacity="0.15"/>
    <path d="M46 32C49.3137 32 52 29.3137 52 26C52 22.6863 49.3137 20 46 20C42.6863 20 40 22.6863 40 26C40 29.3137 42.6863 32 46 32Z" fill="#FFBD2F"/>
    <path d="M46 20.5C49.0376 20.5 51.5 22.9624 51.5 26C51.5 29.0376 49.0376 31.5 46 31.5C42.9624 31.5 40.5 29.0376 40.5 26C40.5 22.9624 42.9624 20.5 46 20.5Z" stroke="black" stroke-opacity="0.15"/>
    <path d="M66 32C69.3137 32 72 29.3137 72 26C72 22.6863 69.3137 20 66 20C62.6863 20 60 22.6863 60 26C60 29.3137 62.6863 32 66 32Z" fill="#27C941"/>
    <path d="M66 20.5C69.0376 20.5 71.5 22.9624 71.5 26C71.5 29.0376 69.0376 31.5 66 31.5C62.9624 31.5 60.5 29.0376 60.5 26C60.5 22.9624 62.9624 20.5 66 20.5Z" stroke="black" stroke-opacity="0.15"/>
    <path d="M258 18C258.414 18 258.75 18.3358 258.75 18.75V25.25H265.25C265.664 25.25 266 25.5858 266 26C266 26.4142 265.664 26.75 265.25 26.75H258.75V33.25C258.75 33.6642 258.414 34 258 34C257.586 34 257.25 33.6642 257.25 33.25V26.75H250.75C250.336 26.75 250 26.4142 250 26C250 25.5858 250.336 25.25 250.75 25.25H257.25V18.75C257.25 18.3358 257.586 18 258 18Z" fill="#9B9B9B"/>
    <rect width="14" height="1.5" rx="0.75" transform="matrix(0 1 1 0 101 19)" fill="#9B9B9B"/>
    <path d="M96 23L94 26L96 29" stroke="#9B9B9B" stroke-width="1.5" stroke-linecap="round"/>
    <rect width="8" height="1.5" rx="0.75" transform="matrix(0 1 1 0 306 22)" fill="#9B9B9B"/>
    <path d="M304.5 33.25H315.5C317.295 33.25 318.75 31.7949 318.75 30V22C318.75 20.2051 317.295 18.75 315.5 18.75H304.5C302.705 18.75 301.25 20.2051 301.25 22V30C301.25 31.7949 302.705 33.25 304.5 33.25Z" stroke="#9B9B9B" stroke-width="1.5"/>
    <path fill-rule="evenodd" clip-rule="evenodd" d="M594 32.5C597.59 32.5 600.5 29.5899 600.5 26C600.5 22.4101 597.59 19.5 594 19.5C590.41 19.5 587.5 22.4101 587.5 26C587.5 29.5899 590.41 32.5 594 32.5ZM594 34C598.418 34 602 30.4183 602 26C602 21.5817 598.418 18 594 18C589.582 18 586 21.5817 586 26C586 30.4183 589.582 34 594 34Z" fill="#9B9B9B"/>
    <path d="M593.75 27C593.336 27 593 26.6642 593 26.25C593 25.8358 593.336 25.5 593.75 25.5H596.75C597.164 25.5 597.5 25.8358 597.5 26.25C597.5 26.6642 597.164 27 596.75 27H593.75Z" fill="#9B9B9B"/>
    <path d="M593 21.75C593 21.3358 593.336 21 593.75 21C594.164 21 594.5 21.3358 594.5 21.75V26.25C594.5 26.6642 594.164 27 593.75 27C593.336 27 593 26.6642 593 26.25V21.75Z" fill="#9B9B9B"/>
</svg>
