<svg width="20" height="20" viewBox="0 0 20 20" fill="none" xmlns="http://www.w3.org/2000/svg">
<path fill-rule="evenodd" clip-rule="evenodd" d="M9.93067 4.629C9.93067 4.629 11.1093 4 12 4C12.7091 4.01952 13.3982 4.22443 14 4.59112V10.4561C13.3753 10.1625 12.6932 10.0063 12 10C11.1632 10.0321 10.3425 10.2399 9.59133 10.61C8.90364 11.0143 8.1297 11.2493 7.33333 11.2957C5.66667 11.2957 5 10.3083 5 10.3083V4.648C5 4.648 5.66667 5.258 7.33333 5.258C8.2346 5.24012 9.12107 5.02544 9.93067 4.629ZM5 3.30833V3.29567H4V17.2957H5V11.5537C5 11.5537 5.66667 12.258 7.33333 12.258C8.2346 12.2401 9.12107 12.0254 9.93067 11.629C9.93067 11.629 11.1093 11 12 11C12.8187 11.0074 13.6219 11.2239 14.3333 11.629L15 12.0693V11.2957V11.0693V5.06933V4.20733V4.06933L14.3333 3.629C13.6219 3.22392 12.8187 3.0074 12 3C11.1632 3.03205 10.3425 3.23989 9.59133 3.61C8.90364 4.01426 8.1297 4.24927 7.33333 4.29567C5.66667 4.29567 5 3.30833 5 3.30833Z" fill="#dfddd3"/>
</svg>
