<svg width="20" height="20" viewBox="0 0 20 20" fill="none" xmlns="http://www.w3.org/2000/svg">
<path fill-rule="evenodd" clip-rule="evenodd" d="M16.2775 8.50729C17.2318 7.40121 18.5127 4.89408 16.743 3.024C16.1226 2.36857 15.3523 2.0148 14.5146 2.00077C12.8642 1.97304 11.5218 3.25283 11.3742 3.39882L11.3738 3.39915C11.0127 3.32733 10.6258 3.28657 10.21 3.28657C9.67153 3.28657 9.17639 3.35505 8.71891 3.47198L8.64161 3.40116L8.63894 3.39915C8.49133 3.25283 7.14887 1.97304 5.49853 2.00043C4.6612 2.01446 3.89051 2.36824 3.26976 3.02433C1.50413 4.89007 2.77596 7.38986 3.72924 8.49994C3.06851 9.12197 1.52612 10.8558 2.14254 13.0452C3.04352 16.2475 5.86105 16.3557 6.04965 16.3591H6.55711C7.42543 17.4909 8.90917 18 10.0057 18C11.0127 18 12.5064 17.5681 13.4324 16.3591H13.9405C14.1391 16.3557 16.9566 16.2475 17.8576 13.0452C18.4723 10.8601 16.9379 9.12965 16.2775 8.50729ZM16.8953 12.7735C16.2006 15.2432 14.1611 15.3531 13.9405 15.3578H13.0705C12.8056 15.3578 12.5907 15.5646 12.5734 15.8258C11.8507 16.6984 10.6931 16.9984 10.0057 16.9984C9.33334 16.9984 8.19047 16.7091 7.46276 15.8786C7.46291 15.8753 7.46343 15.8723 7.46394 15.8693C7.46452 15.8658 7.46509 15.8624 7.46509 15.8589C7.46509 15.5816 7.24151 15.3578 6.96529 15.3578H6.06898C5.83874 15.3531 3.79923 15.2432 3.10451 12.7735C2.5264 10.7203 4.53427 9.11817 4.6169 9.05336L4.86647 8.85894L4.96176 8.55828C5.01641 8.38424 6.3562 4.28964 10.21 4.28964C14.0001 4.28964 14.9781 8.31175 15.0171 8.47944L15.099 8.83088L15.3799 9.05069C15.4656 9.11817 17.4731 10.7203 16.8953 12.7735ZM5.51518 3.00227C5.00838 3.01062 4.48093 3.20037 3.99479 3.71382C2.71364 5.06777 3.76388 6.86235 4.27801 7.57524C4.72283 6.59009 5.75642 4.78649 7.64899 3.86381C7.22916 3.53109 6.40549 2.98723 5.51518 3.00227ZM14.4975 3.00226C15.0043 3.01028 15.5321 3.20002 16.0176 3.71348C17.2758 5.04238 16.2878 6.79487 15.7647 7.53314C15.3765 6.49722 14.4382 4.62981 12.5013 3.75824C12.9488 3.42785 13.6969 2.9889 14.4975 3.00226ZM10.4347 15.1922C10.4823 15.2417 10.5563 15.2788 10.6683 15.2788C11.0085 15.2788 11.0228 14.9494 11.0228 14.9457L11.6889 14.9758V14.9788C11.6679 15.4485 11.303 15.9469 10.6683 15.9469C10.4114 15.9469 10.1788 15.8564 10.0019 15.6953C9.82461 15.8564 9.59204 15.9469 9.33547 15.9469C8.70073 15.9469 8.33621 15.4485 8.31488 14.9788V14.9758L8.98095 14.9457C8.98095 14.9494 8.99561 15.2788 9.33547 15.2788C9.44743 15.2788 9.52106 15.2417 9.56904 15.1922C9.66434 15.0944 9.66067 14.9494 9.66067 14.9494V14.2188C9.13822 13.9799 8.53113 13.2954 8.53113 12.8521C8.53113 12.3073 9.08057 12.3073 9.08057 12.3073H9.99654H10.9132C10.9132 12.3073 11.463 12.3073 11.463 12.8521C11.463 13.2931 10.8632 13.9709 10.3427 14.2138V14.9494C10.3427 14.9494 10.3394 15.0944 10.4347 15.1922ZM12.9907 9.29945C12.6226 9.29945 12.3239 9.74843 12.3239 10.302C12.3239 10.8548 12.6226 11.3038 12.9907 11.3038C13.3591 11.3038 13.6575 10.8548 13.6575 10.302C13.6575 9.74843 13.3591 9.29945 12.9907 9.29945ZM6.32617 10.302C6.32617 9.74843 6.62491 9.29945 6.99299 9.29945C7.3614 9.29945 7.6598 9.74843 7.6598 10.302C7.6598 10.8548 7.3614 11.3038 6.99299 11.3038C6.62491 11.3038 6.32617 10.8548 6.32617 10.302Z" fill="#dfddd3"/>
</svg>
