<svg width="20" height="20" viewBox="0 0 20 20" fill="none" xmlns="http://www.w3.org/2000/svg">
<path d="M10.5 3.125C9.91421 3.125 9.4375 2.64829 9.4375 2.0625C9.4375 1.47671 9.91421 1 10.5 1C11.0858 1 11.5625 1.47671 11.5625 2.0625C11.5625 2.64829 11.0858 3.125 10.5 3.125Z" fill="#b6b6b6"/>
<path d="M10.5 18C9.91421 18 9.4375 17.5233 9.4375 16.9375C9.4375 16.3517 9.91421 15.875 10.5 15.875C11.0858 15.875 11.5625 16.3517 11.5625 16.9375C11.5625 17.5233 11.0858 18 10.5 18Z" fill="#b6b6b6"/>
<path d="M15.0078 4.99144C14.5935 4.57777 14.5921 3.90556 15.0078 3.48906C15.4073 3.08815 16.1086 3.08744 16.5102 3.48906C16.926 3.90486 16.926 4.57706 16.5102 4.99215C16.0944 5.40794 15.4229 5.40723 15.0078 4.99144Z" fill="#b6b6b6"/>
<path d="M4.48982 15.5102C4.07403 15.0944 4.07403 14.4222 4.48982 14.0071C4.89074 13.6069 5.59199 13.6069 5.9922 14.0078C6.40657 14.4215 6.40799 15.0937 5.9922 15.5095C5.57711 15.926 4.90491 15.926 4.48982 15.5102Z" fill="#b6b6b6"/>
<path d="M17.9375 10.5625C17.3517 10.5625 16.875 10.0858 16.875 9.5C16.875 8.91421 17.3517 8.4375 17.9375 8.4375C18.5233 8.4375 19 8.91421 19 9.5C19 10.0858 18.5233 10.5625 17.9375 10.5625Z" fill="#b6b6b6"/>
<path d="M3.0625 10.5625C2.47671 10.5625 2 10.0858 2 9.5C2 8.91421 2.47671 8.4375 3.0625 8.4375C3.64829 8.4375 4.125 8.91421 4.125 9.5C4.125 10.0858 3.64829 10.5625 3.0625 10.5625Z" fill="#b6b6b6"/>
<path d="M15.0078 15.5103C14.592 15.0945 14.5927 14.423 15.0085 14.0079C15.4073 13.6077 16.1092 13.607 16.5109 14.0079C16.9252 14.4216 16.9267 15.0945 16.5109 15.5103C16.0951 15.9261 15.4229 15.9261 15.0078 15.5103Z" fill="#b6b6b6"/>
<path d="M4.48982 4.99225C4.07403 4.57716 4.07403 3.90496 4.48982 3.48916C4.89145 3.08825 5.59199 3.08825 5.99291 3.48916C6.40728 3.90425 6.4087 4.57646 5.99149 4.99225C5.57782 5.40733 4.90561 5.40804 4.48982 4.99225Z" fill="#b6b6b6"/>
<path d="M10.5 5.427C10.2067 5.427 9.96875 5.189 9.96875 4.89575V2.77075C9.96875 2.4775 10.2067 2.2395 10.5 2.2395C10.7932 2.2395 11.0312 2.4775 11.0312 2.77075V4.89575C11.0312 5.189 10.7932 5.427 10.5 5.427Z" fill="#b6b6b6"/>
<path d="M10.5 16.7605C10.2067 16.7605 9.96875 16.5225 9.96875 16.2292V14.1042C9.96875 13.811 10.2067 13.573 10.5 13.573C10.7932 13.573 11.0312 13.811 11.0312 14.1042V16.2292C11.0312 16.5225 10.7932 16.7605 10.5 16.7605Z" fill="#b6b6b6"/>
<path d="M13.7556 6.77573C13.6196 6.77573 13.4836 6.72403 13.3801 6.6199C13.1726 6.41236 13.1726 6.0759 13.3801 5.86836L14.8825 4.36598C15.0901 4.15844 15.4265 4.15844 15.6341 4.36598C15.8416 4.57353 15.8416 4.90998 15.6341 5.11753L14.1317 6.6199C14.0276 6.72403 13.8916 6.77573 13.7556 6.77573Z" fill="#b6b6b6"/>
<path d="M5.74201 14.789C5.60601 14.789 5.47001 14.7373 5.36659 14.6332C5.15905 14.4257 5.15905 14.0892 5.36659 13.8817L6.86897 12.3793C7.07651 12.1717 7.41297 12.1717 7.62051 12.3793C7.82805 12.5868 7.82805 12.9233 7.62051 13.1308L6.11814 14.6332C6.01401 14.7373 5.87801 14.789 5.74201 14.789Z" fill="#b6b6b6"/>
<path d="M17.2292 10.0312H15.1042C14.811 10.0312 14.573 9.79325 14.573 9.5C14.573 9.20675 14.811 8.96875 15.1042 8.96875H17.2292C17.5225 8.96875 17.7605 9.20675 17.7605 9.5C17.7605 9.79325 17.5225 10.0312 17.2292 10.0312Z" fill="#b6b6b6"/>
<path d="M5.89575 10.0312H3.77075C3.4775 10.0312 3.2395 9.79325 3.2395 9.5C3.2395 9.20675 3.4775 8.96875 3.77075 8.96875H5.89575C6.189 8.96875 6.427 9.20675 6.427 9.5C6.427 9.79325 6.189 10.0312 5.89575 10.0312Z" fill="#b6b6b6"/>
<path d="M15.2579 14.789C15.1219 14.789 14.9859 14.7373 14.8825 14.6332L13.3801 13.1308C13.1726 12.9233 13.1726 12.5868 13.3801 12.3793C13.5877 12.1717 13.9241 12.1717 14.1317 12.3793L15.6341 13.8817C15.8416 14.0892 15.8416 14.4257 15.6341 14.6332C15.5299 14.7373 15.3939 14.789 15.2579 14.789Z" fill="#b6b6b6"/>
<path d="M7.24448 6.77573C7.10848 6.77573 6.97248 6.72403 6.86907 6.6199L5.36598 5.11753C5.15844 4.90998 5.15844 4.57353 5.36598 4.36598C5.57353 4.15844 5.90998 4.15844 6.11753 4.36598L7.6199 5.86836C7.82744 6.0759 7.82744 6.41236 7.6199 6.6199C7.51648 6.72403 7.38048 6.77573 7.24448 6.77573Z" fill="#b6b6b6"/>
<rect x="8.375" y="7.375" width="4.25" height="4.25" rx="2.125" fill="#b6b6b6"/>
</svg>
