<svg width="14" height="14" viewBox="0 0 14 14" fill="none" xmlns="http://www.w3.org/2000/svg">
<path fill-rule="evenodd" clip-rule="evenodd" d="M11.5 1H6.5C5.67157 1 5 1.67157 5 2.5V7.5C5 8.32843 5.67157 9 6.5 9H11.5C12.3284 9 13 8.32843 13 7.5V2.5C13 1.67157 12.3284 1 11.5 1ZM6.5 0C5.11929 0 4 1.11929 4 2.5V7.5C4 8.88071 5.11929 10 6.5 10H11.5C12.8807 10 14 8.88071 14 7.5V2.5C14 1.11929 12.8807 0 11.5 0H6.5Z" fill="#b6b6b6"/>
<path fill-rule="evenodd" clip-rule="evenodd" d="M4 4H2.5C1.11929 4 0 5.11929 0 6.5V11.5C0 12.8807 1.11929 14 2.5 14H7.5C8.88071 14 10 12.8807 10 11.5V10H9V11.5C9 12.3284 8.32843 13 7.5 13H2.5C1.67157 13 1 12.3284 1 11.5V6.5C1 5.67157 1.67157 5 2.5 5H4V4Z" fill="#b6b6b6"/>
</svg>
