<svg xmlns="http://www.w3.org/2000/svg" width="60" height="60" viewBox="0 0 60 60" fill="none">
    <g clip-path="url(#clip0_12293_25511)">
        <path d="M4 0V4H0V56H4V60H56V56H60V4H56V0H4Z" fill="#252525"/>
        <path d="M36.001 48H24.001V46H36.001V48ZM24 46H20V44H24V46ZM40.0039 46H36.0039V44H40.0039V46ZM20 43.998H18V41.998H20V43.998ZM42.0039 43.998H40.0039V41.998H42.0039V43.998ZM18 41.998H16V39.998H18V41.998ZM44.0039 41.998H42.0039V39.998H44.0039V41.998ZM16 39.998H14V35.998H16V39.998ZM46.0039 39.998H44.0039V35.998H46.0039V39.998ZM14 35.998H12V29.998H14V35.998ZM48.0039 35.998H46.0039V29.998H48.0039V35.998ZM24 22H22V16H24V22ZM38 22H36V16H38V22Z" fill="white"/>
    </g>
    <defs>
        <clipPath id="clip0_12293_25511">
            <rect width="60" height="60" fill="white"/>
        </clipPath>
    </defs>
</svg>
