<svg width="64" height="64" viewBox="0 0 64 64" fill="none" xmlns="http://www.w3.org/2000/svg">
<path d="M59 1V5H63V59H59V63H5V59H1V5H5V1H59Z" fill="#252525" stroke="white" stroke-width="2"/>
<path d="M38.001 50H26.001V48H38.001V50ZM26 48H22V46H26V48ZM42.0039 48H38.0039V46H42.0039V48ZM22 45.998H20V43.998H22V45.998ZM44.0039 45.998H42.0039V43.998H44.0039V45.998ZM20 43.998H18V41.998H20V43.998ZM46.0039 43.998H44.0039V41.998H46.0039V43.998ZM18 41.998H16V37.998H18V41.998ZM48.0039 41.998H46.0039V37.998H48.0039V41.998ZM16 37.998H14V31.998H16V37.998ZM50.0039 37.998H48.0039V31.998H50.0039V37.998ZM26 24H24V18H26V24ZM40 24H38V18H40V24Z" fill="white"/>
</svg>
