<svg width="56" height="56" viewBox="0 0 56 56" fill="none" xmlns="http://www.w3.org/2000/svg">
<path fill-rule="evenodd" clip-rule="evenodd" d="M14 13C12.3431 13 11 14.3431 11 16V24C11 25.6569 12.3431 27 14 27H24C25.6569 27 27 25.6569 27 24V16C27 14.3431 25.6569 13 24 13H14ZM14 29C12.3431 29 11 30.3431 11 32V40C11 41.6569 12.3431 43 14 43H24C25.6569 43 27 41.6569 27 40V32C27 30.3431 25.6569 29 24 29H14ZM29 16C29 14.3431 30.3431 13 32 13H42C43.6569 13 45 14.3431 45 16V24C45 25.6569 43.6569 27 42 27H32C30.3431 27 29 25.6569 29 24V16ZM32 29C30.3431 29 29 30.3431 29 32V40C29 41.6569 30.3431 43 32 43H42C43.6569 43 45 41.6569 45 40V32C45 30.3431 43.6569 29 42 29H32Z" fill="#FFB522"/>
</svg>
