<svg width="56" height="56" viewBox="0 0 56 56" fill="none" xmlns="http://www.w3.org/2000/svg">
<path fill-rule="evenodd" clip-rule="evenodd" d="M28 17C30.2091 17 32 15.2091 32 13C32 10.7909 30.2091 9 28 9C25.7909 9 24 10.7909 24 13C24 15.2091 25.7909 17 28 17ZM35 28C35 31.866 31.866 35 28 35C24.134 35 21 31.866 21 28C21 24.134 24.134 21 28 21C31.866 21 35 24.134 35 28ZM32 43C32 45.2091 30.2091 47 28 47C25.7909 47 24 45.2091 24 43C24 40.7909 25.7909 39 28 39C30.2091 39 32 40.7909 32 43ZM46 36C46 38.2091 44.2091 40 42 40C39.7909 40 38 38.2091 38 36C38 33.7909 39.7909 32 42 32C44.2091 32 46 33.7909 46 36ZM14 24C16.2091 24 18 22.2091 18 20C18 17.7909 16.2091 16 14 16C11.7909 16 10 17.7909 10 20C10 22.2091 11.7909 24 14 24ZM46 20C46 22.2091 44.2091 24 42 24C39.7909 24 38 22.2091 38 20C38 17.7909 39.7909 16 42 16C44.2091 16 46 17.7909 46 20ZM14 40C16.2091 40 18 38.2091 18 36C18 33.7909 16.2091 32 14 32C11.7909 32 10 33.7909 10 36C10 38.2091 11.7909 40 14 40Z" fill="#FFEE94"/>
<path fill-rule="evenodd" clip-rule="evenodd" d="M30.5 13C30.5 14.3807 29.3807 15.5 28 15.5C26.6193 15.5 25.5 14.3807 25.5 13C25.5 11.6193 26.6193 10.5 28 10.5C29.3807 10.5 30.5 11.6193 30.5 13ZM32 13C32 15.2091 30.2091 17 28 17C25.7909 17 24 15.2091 24 13C24 10.7909 25.7909 9 28 9C30.2091 9 32 10.7909 32 13ZM28 33.5C31.0376 33.5 33.5 31.0376 33.5 28C33.5 24.9624 31.0376 22.5 28 22.5C24.9624 22.5 22.5 24.9624 22.5 28C22.5 31.0376 24.9624 33.5 28 33.5ZM28 35C31.866 35 35 31.866 35 28C35 24.134 31.866 21 28 21C24.134 21 21 24.134 21 28C21 31.866 24.134 35 28 35ZM28 45.5C29.3807 45.5 30.5 44.3807 30.5 43C30.5 41.6193 29.3807 40.5 28 40.5C26.6193 40.5 25.5 41.6193 25.5 43C25.5 44.3807 26.6193 45.5 28 45.5ZM28 47C30.2091 47 32 45.2091 32 43C32 40.7909 30.2091 39 28 39C25.7909 39 24 40.7909 24 43C24 45.2091 25.7909 47 28 47ZM42 38.5C43.3807 38.5 44.5 37.3807 44.5 36C44.5 34.6193 43.3807 33.5 42 33.5C40.6193 33.5 39.5 34.6193 39.5 36C39.5 37.3807 40.6193 38.5 42 38.5ZM42 40C44.2091 40 46 38.2091 46 36C46 33.7909 44.2091 32 42 32C39.7909 32 38 33.7909 38 36C38 38.2091 39.7909 40 42 40ZM16.5 20C16.5 21.3807 15.3807 22.5 14 22.5C12.6193 22.5 11.5 21.3807 11.5 20C11.5 18.6193 12.6193 17.5 14 17.5C15.3807 17.5 16.5 18.6193 16.5 20ZM18 20C18 22.2091 16.2091 24 14 24C11.7909 24 10 22.2091 10 20C10 17.7909 11.7909 16 14 16C16.2091 16 18 17.7909 18 20ZM42 22.5C43.3807 22.5 44.5 21.3807 44.5 20C44.5 18.6193 43.3807 17.5 42 17.5C40.6193 17.5 39.5 18.6193 39.5 20C39.5 21.3807 40.6193 22.5 42 22.5ZM42 24C44.2091 24 46 22.2091 46 20C46 17.7909 44.2091 16 42 16C39.7909 16 38 17.7909 38 20C38 22.2091 39.7909 24 42 24ZM16.5 36C16.5 37.3807 15.3807 38.5 14 38.5C12.6193 38.5 11.5 37.3807 11.5 36C11.5 34.6193 12.6193 33.5 14 33.5C15.3807 33.5 16.5 34.6193 16.5 36ZM18 36C18 38.2091 16.2091 40 14 40C11.7909 40 10 38.2091 10 36C10 33.7909 11.7909 32 14 32C16.2091 32 18 33.7909 18 36Z" fill="#FFB522"/>
</svg>