<svg width="56" height="56" viewBox="0 0 56 56" fill="none" xmlns="http://www.w3.org/2000/svg">
<mask id="path-1-inside-1_4044_4401" fill="white">
<path fill-rule="evenodd" clip-rule="evenodd" d="M14 13C12.3431 13 11 14.3431 11 16V40C11 41.6569 12.3431 43 14 43H23C24.6569 43 26 41.6569 26 40V16C26 14.3431 24.6569 13 23 13H14ZM33 13C31.3431 13 30 14.3431 30 16V30C30 31.6569 31.3431 33 33 33H42C43.6569 33 45 31.6569 45 30V16C45 14.3431 43.6569 13 42 13H33Z"/>
</mask>
<path fill-rule="evenodd" clip-rule="evenodd" d="M14 13C12.3431 13 11 14.3431 11 16V40C11 41.6569 12.3431 43 14 43H23C24.6569 43 26 41.6569 26 40V16C26 14.3431 24.6569 13 23 13H14ZM33 13C31.3431 13 30 14.3431 30 16V30C30 31.6569 31.3431 33 33 33H42C43.6569 33 45 31.6569 45 30V16C45 14.3431 43.6569 13 42 13H33Z" fill="#FFD15B"/>
<path d="M12.5 16C12.5 15.1716 13.1716 14.5 14 14.5V11.5C11.5147 11.5 9.5 13.5147 9.5 16H12.5ZM12.5 40V16H9.5V40H12.5ZM14 41.5C13.1716 41.5 12.5 40.8284 12.5 40H9.5C9.5 42.4853 11.5147 44.5 14 44.5V41.5ZM23 41.5H14V44.5H23V41.5ZM24.5 40C24.5 40.8284 23.8284 41.5 23 41.5V44.5C25.4853 44.5 27.5 42.4853 27.5 40H24.5ZM24.5 16V40H27.5V16H24.5ZM23 14.5C23.8284 14.5 24.5 15.1716 24.5 16H27.5C27.5 13.5147 25.4853 11.5 23 11.5V14.5ZM14 14.5H23V11.5H14V14.5ZM31.5 16C31.5 15.1716 32.1716 14.5 33 14.5V11.5C30.5147 11.5 28.5 13.5147 28.5 16H31.5ZM31.5 30V16H28.5V30H31.5ZM33 31.5C32.1716 31.5 31.5 30.8284 31.5 30H28.5C28.5 32.4853 30.5147 34.5 33 34.5V31.5ZM42 31.5H33V34.5H42V31.5ZM43.5 30C43.5 30.8284 42.8284 31.5 42 31.5V34.5C44.4853 34.5 46.5 32.4853 46.5 30H43.5ZM43.5 16V30H46.5V16H43.5ZM42 14.5C42.8284 14.5 43.5 15.1716 43.5 16H46.5C46.5 13.5147 44.4853 11.5 42 11.5V14.5ZM33 14.5H42V11.5H33V14.5Z" fill="#FFB522" mask="url(#path-1-inside-1_4044_4401)"/>
</svg>
