<svg width="56" height="56" viewBox="0 0 56 56" fill="none" xmlns="http://www.w3.org/2000/svg">
<path d="M14.5 40C14.7761 40 15 40.2239 15 40.5V43.5C15 43.7761 14.7761 44 14.5 44H11.5C11.2239 44 11 43.7761 11 43.5V40.5C11 40.2239 11.2239 40 11.5 40H14.5ZM36.5 41C36.7761 41 37 41.2239 37 41.5V42.5C37 42.7761 36.7761 43 36.5 43H18.5C18.2239 43 18 42.7761 18 42.5V41.5C18 41.2239 18.2239 41 18.5 41H36.5ZM14.5 31C14.7761 31 15 31.2239 15 31.5V34.5C15 34.7761 14.7761 35 14.5 35H11.5C11.2239 35 11 34.7761 11 34.5V31.5C11 31.2239 11.2239 31 11.5 31H14.5ZM44.5 32C44.7761 32 45 32.2239 45 32.5V33.5C45 33.7761 44.7761 34 44.5 34H18.5C18.2239 34 18 33.7761 18 33.5V32.5C18 32.2239 18.2239 32 18.5 32H44.5ZM14.5 22C14.7761 22 15 22.2239 15 22.5V25.5C15 25.7761 14.7761 26 14.5 26H11.5C11.2239 26 11 25.7761 11 25.5V22.5C11 22.2239 11.2239 22 11.5 22H14.5ZM36.5 23C36.7761 23 37 23.2239 37 23.5V24.5C37 24.7761 36.7761 25 36.5 25H18.5C18.2239 25 18 24.7761 18 24.5V23.5C18 23.2239 18.2239 23 18.5 23H36.5ZM14.5 13C14.7761 13 15 13.2239 15 13.5V16.5C15 16.7761 14.7761 17 14.5 17H11.5C11.2239 17 11 16.7761 11 16.5V13.5C11 13.2239 11.2239 13 11.5 13H14.5ZM44.5 14C44.7761 14 45 14.2239 45 14.5V15.5C45 15.7761 44.7761 16 44.5 16H18.5C18.2239 16 18 15.7761 18 15.5V14.5C18 14.2239 18.2239 14 18.5 14H44.5Z" fill="#377AFF"/>
</svg>
