<svg width="56" height="56" viewBox="0 0 56 56" fill="none" xmlns="http://www.w3.org/2000/svg">
<path fill-rule="evenodd" clip-rule="evenodd" d="M11 13.5C11 13.2239 11.2239 13 11.5 13H14.5C14.7761 13 15 13.2239 15 13.5V16.5C15 16.7761 14.7761 17 14.5 17H11.5C11.2239 17 11 16.7761 11 16.5V13.5ZM18 14.5C18 14.2239 18.2239 14 18.5 14H44.5C44.7761 14 45 14.2239 45 14.5V15.5C45 15.7761 44.7761 16 44.5 16H18.5C18.2239 16 18 15.7761 18 15.5V14.5ZM18.5 23C18.2239 23 18 23.2239 18 23.5V24.5C18 24.7761 18.2239 25 18.5 25H36.5C36.7761 25 37 24.7761 37 24.5V23.5C37 23.2239 36.7761 23 36.5 23H18.5ZM18.5 41C18.2239 41 18 41.2239 18 41.5V42.5C18 42.7761 18.2239 43 18.5 43H36.5C36.7761 43 37 42.7761 37 42.5V41.5C37 41.2239 36.7761 41 36.5 41H18.5ZM18.5 32C18.2239 32 18 32.2239 18 32.5V33.5C18 33.7761 18.2239 34 18.5 34H44.5C44.7761 34 45 33.7761 45 33.5V32.5C45 32.2239 44.7761 32 44.5 32H18.5ZM11.5 22C11.2239 22 11 22.2239 11 22.5V25.5C11 25.7761 11.2239 26 11.5 26H14.5C14.7761 26 15 25.7761 15 25.5V22.5C15 22.2239 14.7761 22 14.5 22H11.5ZM11 31.5C11 31.2239 11.2239 31 11.5 31H14.5C14.7761 31 15 31.2239 15 31.5V34.5C15 34.7761 14.7761 35 14.5 35H11.5C11.2239 35 11 34.7761 11 34.5V31.5ZM11.5 40C11.2239 40 11 40.2239 11 40.5V43.5C11 43.7761 11.2239 44 11.5 44H14.5C14.7761 44 15 43.7761 15 43.5V40.5C15 40.2239 14.7761 40 14.5 40H11.5Z" fill="#FFB522"/>
</svg>
