<svg width="20" height="20" viewBox="0 0 20 20" fill="none" xmlns="http://www.w3.org/2000/svg">
<path fill-rule="evenodd" clip-rule="evenodd" d="M11.5821 2.15642C11.0707 2.05383 10.5416 2 10 2C5.58172 2 2 5.58172 2 10C2 14.4183 5.58172 18 10 18C14.4183 18 18 14.4183 18 10C18 9.69754 17.9832 9.399 17.9505 9.10525C17.4912 9.30004 16.9967 9.42811 16.4793 9.47733C16.493 9.64974 16.5 9.82405 16.5 10C16.5 13.5899 13.5899 16.5 10 16.5C6.41015 16.5 3.5 13.5899 3.5 10C3.5 6.41015 6.41015 3.5 10 3.5C10.3689 3.5 10.7306 3.53073 11.0827 3.58976C11.1763 3.08082 11.3469 2.59886 11.5821 2.15642Z" fill="#B6B6B6"/>
<path fill-rule="evenodd" clip-rule="evenodd" d="M8 6.5C7.44772 6.5 7 6.94772 7 7.5C7 8.05228 7.44772 8.5 8 8.5C8.55228 8.5 9 8.05228 9 7.5C9 6.94772 8.55228 6.5 8 6.5ZM12 6.5C11.4477 6.5 11 6.94772 11 7.5C11 8.05228 11.4477 8.5 12 8.5C12.5523 8.5 13 8.05228 13 7.5C13 6.94772 12.5523 6.5 12 6.5Z" fill="#B6B6B6"/>
<path fill-rule="evenodd" clip-rule="evenodd" d="M16 1C15.5858 1 15.25 1.33579 15.25 1.75V3.25H13.75C13.3358 3.25 13 3.58579 13 4C13 4.41421 13.3358 4.75 13.75 4.75H15.25V6.25C15.25 6.66421 15.5858 7 16 7C16.4142 7 16.75 6.66421 16.75 6.25V4.75H18.25C18.6642 4.75 19 4.41421 19 4C19 3.58579 18.6642 3.25 18.25 3.25H16.75V1.75C16.75 1.33579 16.4142 1 16 1Z" fill="#B6B6B6"/>
<path d="M13.9511 11.2734C14.0838 11.2413 14.209 11.2856 14.277 11.3487C14.3079 11.3773 14.315 11.3985 14.3162 11.4033C14.3168 11.4058 14.3172 11.4082 14.3169 11.4123C14.3166 11.4164 14.3151 11.428 14.3068 11.448C13.4567 13.4823 11.7974 14.75 9.99981 14.75C8.21001 14.75 6.55764 13.4936 5.70405 11.4746C5.69549 11.4544 5.69407 11.4428 5.69377 11.4389C5.69346 11.435 5.69378 11.4328 5.69439 11.4304C5.69561 11.4256 5.70295 11.4038 5.73506 11.3741C5.80602 11.3087 5.93588 11.2636 6.0714 11.2967C7.07906 11.5427 8.42465 11.7587 10.0046 11.7388C11.5931 11.7384 12.9439 11.5172 13.9511 11.2734Z" stroke="#B6B6B6" stroke-width="1.5"/>
</svg>
