<svg width="20" height="20" viewBox="0 0 20 20" fill="none" xmlns="http://www.w3.org/2000/svg">
<path d="M19 9.99023C19 14.9608 14.9706 18.9902 10 18.9902C5.02944 18.9902 1 14.9608 1 9.99023C1 5.01967 5.02944 0.990234 10 0.990234C14.9706 0.990234 19 5.01967 19 9.99023Z" fill="#9B9B9B"/>
<path fill-rule="evenodd" clip-rule="evenodd" d="M12.4685 6.44705C12.7607 6.15376 13.2356 6.15303 13.5291 6.4451C13.8224 6.7373 13.8231 7.21214 13.531 7.50564L11.0652 9.98318L13.531 12.4607C13.8231 12.7542 13.8224 13.2291 13.5291 13.5213C13.2356 13.8133 12.7607 13.8126 12.4685 13.5193L10.0076 11.0457L7.54666 13.5193C7.25446 13.8126 6.77961 13.8133 6.48611 13.5213C6.19282 13.2291 6.19209 12.7542 6.48416 12.4607L8.949 9.98318L6.48416 7.50564C6.19209 7.21214 6.19282 6.7373 6.48611 6.4451C6.77961 6.15303 7.25446 6.15376 7.54666 6.44705L10.0076 8.91971L12.4685 6.44705Z" fill="white"/>
</svg>
