<svg xmlns="http://www.w3.org/2000/svg" width="56" height="56" viewBox="0 0 56 56" fill="none">
    <path fill-rule="evenodd" clip-rule="evenodd" d="M28 52C41.1858 52 51.875 41.3108 51.875 28.125C51.875 14.9392 41.1858 4.25 28 4.25C14.8142 4.25 4.125 14.9392 4.125 28.125C4.125 41.3108 14.8142 52 28 52ZM55.875 28.125C55.875 43.5199 43.3949 56 28 56C12.6051 56 0.125 43.5199 0.125 28.125C0.125 12.7301 12.6051 0.25 28 0.25C43.3949 0.25 55.875 12.7301 55.875 28.125Z" fill="#FFB522"/>
    <path d="M27.1602 34.2148C25.9492 34.2148 25.4219 33.3164 25.4219 32.2031V31.6562C25.4219 29.0195 26.6523 27.2812 29.3281 25.6797C31.5938 24.293 32.4727 23.0234 32.4727 21.0312C32.4727 18.4922 30.5586 16.7734 27.6875 16.7734C25.0898 16.7734 23.3711 18.082 22.7266 20.4258C22.3945 21.6172 21.9648 21.9883 21.0859 21.9883C20.0898 21.9883 19.543 21.4023 19.543 20.3867C19.543 19.5469 19.6992 18.8828 20.0508 18.1211C21.2031 15.3477 24.0742 13.7266 27.8242 13.7266C32.668 13.7266 36.1055 16.6758 36.1055 20.8555C36.1055 23.9219 34.5234 26.0312 32.0234 27.5352C29.543 29 28.8398 30.0938 28.8398 32.1445C28.8398 33.375 28.3711 34.2148 27.1602 34.2148ZM27.1406 42.3203C25.8906 42.3203 24.9141 41.3438 24.9141 40.0938C24.9141 38.8242 25.8906 37.8672 27.1406 37.8672C28.4102 37.8672 29.3672 38.8242 29.3672 40.0938C29.3672 41.3438 28.4102 42.3203 27.1406 42.3203Z" fill="#FFB522"/>
</svg>
