<svg width="56" height="56" viewBox="0 0 56 56" fill="none" xmlns="http://www.w3.org/2000/svg">
<path d="M34.2998 5.59961C35.4596 5.59961 36.4004 6.5404 36.4004 7.7002V11.2002L36.832 11.2109C41.2703 11.4358 44.7996 15.1055 44.7998 19.5996H48.2998C49.4596 19.5996 50.4004 20.5404 50.4004 21.7002C50.4003 22.8599 49.4595 23.7998 48.2998 23.7998H44.7998V32.2002H48.2998C49.4595 32.2002 50.4003 33.1401 50.4004 34.2998C50.4004 35.4596 49.4596 36.4004 48.2998 36.4004H44.7998L44.7891 36.832C44.5714 41.1273 41.1273 44.5714 36.832 44.7891L36.4004 44.7998V48.2998C36.4004 49.4596 35.4596 50.4004 34.2998 50.4004C33.1401 50.4003 32.2002 49.4595 32.2002 48.2998V44.7998H23.7998V48.2998C23.7998 49.4595 22.8599 50.4003 21.7002 50.4004C20.5404 50.4004 19.5996 49.4596 19.5996 48.2998V44.7998L19.168 44.7891C14.8726 44.5714 11.4286 41.1273 11.2109 36.832L11.2002 36.4004H7.7002C6.5404 36.4004 5.59961 35.4596 5.59961 34.2998C5.59972 33.1401 6.54046 32.2002 7.7002 32.2002H11.2002V23.7998H7.7002C6.54046 23.7998 5.59971 22.8599 5.59961 21.7002C5.59961 20.5404 6.5404 19.5996 7.7002 19.5996H11.2002C11.2004 15.1055 14.7297 11.4358 19.168 11.2109L19.5996 11.2002V7.7002C19.5996 6.5404 20.5404 5.59961 21.7002 5.59961C22.8599 5.59971 23.7998 6.54046 23.7998 7.7002V11.2002H32.2002V7.7002C32.2002 6.54046 33.1401 5.59972 34.2998 5.59961ZM19.5996 15.4004C17.2803 15.4006 15.4006 17.2803 15.4004 19.5996V36.4004C15.4006 38.7197 17.2803 40.5994 19.5996 40.5996H36.4004C38.7197 40.5994 40.5994 38.7197 40.5996 36.4004V19.5996C40.5994 17.2803 38.7197 15.4006 36.4004 15.4004H19.5996ZM30.7998 19.5996C33.8926 19.5996 36.4004 22.1074 36.4004 25.2002V30.7998C36.4004 33.8926 33.8926 36.4004 30.7998 36.4004H25.2002C22.1074 36.4004 19.5996 33.8926 19.5996 30.7998V25.2002C19.5996 22.1074 22.1074 19.5996 25.2002 19.5996H30.7998Z" fill="#9B9B9B"/>
</svg>