<svg width="232" height="52" viewBox="0 0 232 52" fill="none" xmlns="http://www.w3.org/2000/svg">
    <path d="M23.2301 9.2594C24.2549 6.79552 27.7453 6.79552 28.7701 9.2594L31.4858 15.7888C31.9178 16.8275 32.8946 17.5372 34.016 17.6271L41.065 18.1922C43.725 18.4055 44.8036 21.725 42.7769 23.461L37.4063 28.0615C36.552 28.7933 36.1789 29.9417 36.4399 31.0359L38.0807 37.9146C38.6999 40.5103 35.8761 42.5618 33.5988 41.1709L27.5639 37.4847C26.6038 36.8984 25.3964 36.8984 24.4363 37.4847L18.4014 41.1709C16.1241 42.5618 13.3003 40.5103 13.9195 37.9146L15.5603 31.0359C15.8213 29.9417 15.4482 28.7933 14.5939 28.0615L9.22324 23.461C7.19663 21.725 8.27521 18.4055 10.9352 18.1922L17.9842 17.6271C19.1056 17.5372 20.0824 16.8275 20.5144 15.7888L23.2301 9.2594Z" fill="black" fill-opacity="0.11"/>
    <path d="M95.4286 42H78.2857V19.25L90.2857 7L92.4286 9.1875C92.6286 9.39167 92.7929 9.66875 92.9214 10.0188C93.05 10.3688 93.1143 10.7042 93.1143 11.025V11.6375L91.2286 19.25H100.571C101.486 19.25 102.286 19.6 102.971 20.3C103.657 21 104 21.8167 104 22.75V26.25C104 26.4542 103.979 26.6729 103.936 26.9063C103.893 27.1396 103.829 27.3583 103.743 27.5625L98.6 39.9C98.3429 40.4833 97.9143 40.9792 97.3143 41.3875C96.7143 41.7958 96.0857 42 95.4286 42ZM73.8571 19.25C74.4094 19.25 74.8571 19.6977 74.8571 20.25V41C74.8571 41.5523 74.4094 42 73.8571 42H69C68.4477 42 68 41.5523 68 41V20.25C68 19.6977 68.4477 19.25 69 19.25H73.8571Z" fill="black" fill-opacity="0.11"/>
    <path d="M146 42.281C145.619 42.281 145.076 42.0272 144.695 41.7915C134.471 35.2659 128 27.6707 128 19.9486C128 13.5317 132.405 9 138.097 9C141.631 9 144.387 10.9758 146 13.9486C147.65 10.9577 150.369 9 153.903 9C159.595 9 164 13.5317 164 19.9486C164 27.6707 157.529 35.2659 147.323 41.7915C146.924 42.0272 146.381 42.281 146 42.281Z" fill="black" fill-opacity="0.11"/>
    <path fill-rule="evenodd" clip-rule="evenodd" d="M206 44C215.941 44 224 35.9411 224 26C224 16.0589 215.941 8 206 8C196.059 8 188 16.0589 188 26C188 35.9411 196.059 44 206 44ZM200.363 24.3125C201.598 24.3125 202.599 23.0533 202.599 21.5C202.599 19.9467 201.598 18.6875 200.363 18.6875C199.128 18.6875 198.127 19.9467 198.127 21.5C198.127 23.0533 199.128 24.3125 200.363 24.3125ZM211.627 24.3125C212.869 24.3125 213.877 23.0533 213.877 21.5C213.877 19.9467 212.869 18.6875 211.627 18.6875C210.384 18.6875 209.377 19.9467 209.377 21.5C209.377 23.0533 210.384 24.3125 211.627 24.3125ZM216.641 29.6622C216.839 29.0863 216.277 28.5706 215.688 28.7277C213.819 29.2267 210.384 29.9385 206 29.9385C201.628 29.9841 198.2 29.2628 196.328 28.7488C195.736 28.5866 195.166 29.1042 195.367 29.6837C196.892 34.0883 201.077 37.251 206 37.251C210.932 37.251 215.122 34.078 216.641 29.6622Z" fill="black" fill-opacity="0.11"/>
</svg>
