<svg xmlns="http://www.w3.org/2000/svg" width="56" height="56" viewBox="0 0 56 56" fill="none">
    <path d="M3.00034 28.2893L3.00039 28.3068C3.00016 33.5984 4.90758 37.0144 8.57898 39.287C9.08109 39.5979 9.62161 39.8906 10.2015 40.1647C10.0671 40.7525 9.99996 41.365 10 42C10 42.4622 10.0262 42.9244 10.0786 43.3845C3.35953 40.659 7.23903e-05 35.7367 0.00038625 28.3067C-0.0725306 15.7014 10.1818 0 27.9999 0C45.7385 0 56 14.155 56 28.3067C56 36.8264 52.6188 41.5001 45.8564 43.8706C45.9521 43.2504 46 42.6252 46 42C46 41.5271 45.9726 41.0725 45.9179 40.6358C46.4895 40.3954 47.0221 40.1349 47.517 39.8534C49.3818 38.793 50.6916 37.4431 51.5693 35.6961C52.467 33.9091 53 31.5297 53 28.3067C53 15.5103 43.7953 3 27.9999 3C12.2123 3 2.93477 16.9555 3.00034 28.2893Z" fill="#F55522"/>
    <path fill-rule="evenodd" clip-rule="evenodd" d="M10 42C9.99967 36 16 32 27.9988 32C40 32 46 35 46 42C46 49 41 56 27.9988 56C14.9976 56 10.0005 49 10 42ZM13 42.5C12.9997 38 18 35 27.999 35C38 35 43 37.25 43 42.5C43 47.75 38.8333 53 27.999 53C17.1647 53 13.0004 47.75 13 42.5Z" fill="#F55522"/>
    <path fill-rule="evenodd" clip-rule="evenodd" d="M2.05469 36.8658C3.71859 39.7338 6.39322 41.8897 10.0786 43.3846C10.0262 42.9244 10 42.4622 10 42C9.99967 36 16 32 27.9988 32C40 32 46 35 46 42C46 42.6252 45.9521 43.2504 45.8564 43.8706C49.8953 42.4548 52.7281 40.2173 54.3547 36.8296L52.4472 35C52.4472 35 48.302 30.9386 47.4593 24.3978C46.6226 17.9038 48.4472 12 48.4472 12H51.1013C46.4232 4.98689 38.5287 0 27.9999 0C17.7546 0 10.01 5.19115 5.29146 12H7.99994C7.99994 12 9.8245 17.9038 8.98786 24.3978C8.14518 30.9386 3.99994 35 3.99994 35L2.05469 36.8658ZM28 29C35.1797 29 41 23.1797 41 16C41 8.8203 35.1797 3 28 3C20.8203 3 15 8.8203 15 16C15 23.1797 20.8203 29 28 29Z" fill="#F55522"/>
    <rect x="22" y="40" width="3" height="8" rx="1.5" fill="#F55522"/>
    <rect x="31" y="40" width="3" height="8" rx="1.5" fill="#F55522"/>
</svg>
