<svg xmlns="http://www.w3.org/2000/svg" width="56" height="56" viewBox="0 0 56 56" fill="none">
    <path fill-rule="evenodd" clip-rule="evenodd" d="M6.74013 22.0422C6.2532 21.2195 5.10141 21.1124 4.46515 21.825C1.63227 24.9981 -2.50858 32.4766 1.9918 43.1826C6.23426 53.2756 18.0345 56 27.9824 56C37.9273 55.9878 52.0075 51 52.0075 39C52.0233 35.0886 50.5059 31.5 46.3695 26.4661C45.2886 25.1526 44.9061 22.7532 46.3692 21.3787C47.5439 20.2752 49.0436 19.4402 50.5103 18.6237C53.0795 17.1932 55.5474 15.8192 55.9888 13.157C56.078 12.6192 55.6207 12.1796 55.0758 12.1595C52.8466 12.0774 50.8869 11.7134 48.999 11.1096C47.725 5.19915 42.9981 0 35.9908 0C28.8896 0 21.9761 6.02402 21.9761 14C21.9761 18.3456 24.7805 22.4831 27.9198 25C29.3025 26.1086 28.7445 28.0313 27.0126 28.0313L18.9417 28C13.999 28 9.36916 26.25 6.74013 22.0422ZM41.9971 13C43.1028 13 43.9992 11.8807 43.9992 10.5C43.9992 9.11929 43.1028 8 41.9971 8C40.8914 8 39.995 9.11929 39.995 10.5C39.995 11.8807 40.8914 13 41.9971 13Z" fill="#FFB522"/>
</svg>
