<svg xmlns="http://www.w3.org/2000/svg" width="56" height="56" viewBox="0 0 56 56" fill="none">
    <path d="M14.4249 17.6126C13.1955 17.0341 13.3072 15.2497 14.5992 14.8291L51.1968 2.91371C52.3629 2.53403 53.4671 3.63824 53.0874 4.80441L41.1719 41.4017C40.7512 42.6937 38.9669 42.8054 38.3884 41.576L32.3952 28.8406C32.153 28.326 32.2227 27.7188 32.5751 27.2724L41.733 15.6724C42.4677 14.7417 41.2591 13.5331 40.3285 14.2678L28.7284 23.4258C28.2821 23.7782 27.6748 23.8478 27.1603 23.6057L14.4249 17.6126Z" fill="#2AA7EE"/>
    <path d="M7.00001 48.001L24 31.001" stroke="#2AA7EE" stroke-width="3" stroke-linecap="round" stroke-linejoin="round"/>
    <path d="M3 38.001L14 27.001" stroke="#2AA7EE" stroke-width="3" stroke-linecap="round" stroke-linejoin="round"/>
    <path d="M17 52.001L28 41.001" stroke="#2AA7EE" stroke-width="3" stroke-linecap="round" stroke-linejoin="round"/>
</svg>
