<svg xmlns="http://www.w3.org/2000/svg" width="56" height="56" viewBox="0 0 56 56" fill="none">
    <path d="M0.348259 48.6584C0.116086 47.7808 0 46.8494 0 45.864V22.4471C0 21.3386 0.0773908 20.3994 0.232172 19.6296C0.402432 18.8598 0.696517 18.1824 1.11443 17.5974C1.54782 17.0123 2.14373 16.4504 2.90216 15.9115L23.2637 1.8244C25.0282 0.608134 26.607 0 28 0C29.4085 0 30.9873 0.608134 32.7363 1.8244L53.0978 15.9115C53.8717 16.4504 54.4677 17.0123 54.8856 17.5974C55.3035 18.1824 55.5898 18.8598 55.7446 19.6296C55.9149 20.3994 56 21.3386 56 22.4471V45.864C56 46.8494 55.8839 47.7808 55.6517 48.6584L38.4245 33.2087L51.1012 20.6227C51.4107 20.2993 51.55 19.9298 51.5191 19.5142C51.5036 19.0985 51.2946 18.7598 50.8922 18.498L30.2521 4.34161C29.4317 3.77197 28.681 3.48715 28 3.48715C27.3344 3.48715 26.5837 3.77197 25.7479 4.34161L5.10779 18.498C4.70536 18.7598 4.48867 19.0985 4.45771 19.5142C4.42675 19.9298 4.5738 20.2993 4.89884 20.6227L17.5755 33.2087L0.348259 48.6584ZM7.29021 53C6.03648 53 4.99171 52.8537 4.15589 52.5612C3.33554 52.2687 2.63903 51.8684 2.06633 51.3603L24.8657 30.9455C25.3764 30.4837 25.8872 30.145 26.398 29.9294C26.9243 29.7139 27.4583 29.6061 28 29.6061C28.5417 29.6061 29.068 29.7139 29.5788 29.9294C30.105 30.145 30.6235 30.4837 31.1343 30.9455L53.9569 51.3834C53.3842 51.8761 52.6799 52.2687 51.8441 52.5612C51.0238 52.8537 49.9867 53 48.733 53H7.29021Z" fill="#2AA7EE"/>
</svg>
