<svg width="57" height="56" viewBox="0 0 57 56" fill="none" xmlns="http://www.w3.org/2000/svg">
<path d="M22.6366 23.4281C20.7188 23.4281 18.9445 22.9087 17.3135 21.8698C15.6825 20.8131 14.3652 19.3981 13.3615 17.6248C12.3757 15.8337 11.8829 13.8276 11.8829 11.6066C11.8829 9.42141 12.3757 7.45115 13.3615 5.69583C14.3652 3.94051 15.6825 2.55238 17.3135 1.53143C18.9445 0.510475 20.7188 0 22.6366 0C24.5543 0 26.3287 0.50152 27.9597 1.50456C29.5907 2.5076 30.899 3.88678 31.8848 5.6421C32.8885 7.3795 33.3903 9.34976 33.3903 11.5529C33.3903 13.7918 32.8885 15.8068 31.8848 17.598C30.899 19.3891 29.5907 20.8131 27.9597 21.8698C26.3287 22.9087 24.5543 23.4281 22.6366 23.4281ZM4.59722 48.3071C3.16339 48.3071 2.03425 47.9847 1.20979 47.3399C0.403265 46.713 0 45.8443 0 44.7338C0 42.9964 0.519763 41.1784 1.55929 39.2797C2.61674 37.3632 4.12226 35.5721 6.07585 33.9063C8.04737 32.2226 10.4221 30.8614 13.2002 29.8225C15.9962 28.7657 19.1416 28.2374 22.6366 28.2374C25.0741 28.2374 27.3503 28.515 29.4652 29.0702C31.5801 29.6076 33.4978 30.333 35.2184 31.2465C35.3439 33.1988 35.8816 34.99 36.8315 36.6199C37.7993 38.2498 39.0719 39.5842 40.6491 40.6231V48.3071H4.59722ZM47.4508 21.843C49.028 21.843 50.4618 22.2281 51.7523 22.9983C53.0606 23.7685 54.0912 24.8073 54.844 26.1148C55.6147 27.4045 56 28.8284 56 30.3867C56 32.2495 55.4354 33.9153 54.3063 35.384C53.1951 36.8348 51.6089 37.9812 49.5478 38.823L53.1503 42.3963C53.3116 42.5575 53.3922 42.7366 53.3922 42.9337C53.3922 43.1128 53.3295 43.2561 53.204 43.3635L49.5209 46.9637L52.1824 49.6236C52.3258 49.7669 52.3975 49.9191 52.3975 50.0803C52.3975 50.2594 52.3258 50.4206 52.1824 50.5639L47.9078 54.8089C47.7644 54.9522 47.6031 55.0149 47.4239 54.997C47.2447 54.997 47.0923 54.9343 46.9669 54.8089L44.7086 52.5521C44.4577 52.2655 44.3322 51.9879 44.3322 51.7192V38.42C42.6833 37.7752 41.357 36.7363 40.3533 35.3034C39.3676 33.8526 38.8747 32.2137 38.8747 30.3867C38.8747 28.8105 39.2511 27.3776 40.0038 26.088C40.7745 24.7984 41.8051 23.7685 43.0955 22.9983C44.4039 22.2281 45.8557 21.843 47.4508 21.843ZM47.4239 25.8462C46.6891 25.8462 46.0618 26.1059 45.542 26.6253C45.0222 27.1448 44.7624 27.7627 44.7624 28.4792C44.7624 29.2314 45.0222 29.8673 45.542 30.3867C46.0797 30.9062 46.707 31.1659 47.4239 31.1659C48.1587 31.1659 48.7771 30.9062 49.2789 30.3867C49.7987 29.8673 50.0586 29.2314 50.0586 28.4792C50.0586 27.7627 49.7987 27.1448 49.2789 26.6253C48.7771 26.1059 48.1587 25.8462 47.4239 25.8462Z" fill="#5DD400"/>
</svg>
