<svg xmlns="http://www.w3.org/2000/svg" width="56" height="56" viewBox="0 0 56 56" fill="none">
    <path d="M28 0C36.2843 0 43 6.71573 43 15V24.0635C46.9462 24.5557 50 27.9205 50 32V48C50 52.4183 46.4183 56 42 56H14C9.58172 56 6 52.4183 6 48V32C6 27.9205 9.05378 24.5557 13 24.0635V15C13 6.71573 19.7157 0 28 0ZM28 34C25.7909 34 24 35.7909 24 38C24 39.4802 24.8049 40.7711 26 41.4629V46C26 47.1046 26.8954 48 28 48C29.1046 48 30 47.1046 30 46V41.4629C31.1951 40.7711 32 39.4802 32 38C32 35.7909 30.2091 34 28 34ZM28 4C21.9249 4 17 8.92487 17 15V24H39V15C39 8.92487 34.0751 4 28 4Z" fill="#F55522"/>
</svg>
