<svg width="69" height="73" viewBox="0 0 69 73" fill="none" xmlns="http://www.w3.org/2000/svg">
<rect x="6.5" y="0.5" width="54.7915" height="69.3257" fill="white"/>
<rect x="6.5" y="0.5" width="54.7915" height="69.3257" fill="white"/>
<rect x="6.5" y="0.5" width="54.7915" height="69.3257" fill="white"/>
<rect x="2.5" y="22.5" width="64" height="48.0005" fill="white"/>
<rect x="2.5" y="22.5" width="64" height="48.0005" fill="white"/>
<rect x="2.5" y="22.5" width="64" height="48.0005" fill="white"/>
<rect x="6.5" y="2.5" width="2" height="26" fill="black"/>
<rect x="6.5" y="0.5" width="56" height="2" fill="black"/>
<rect x="60.5" y="2.5" width="2" height="26" fill="black"/>
<rect width="12" height="2" transform="matrix(0.999999 0.00135081 0.00135081 -0.999999 28.5 24.5)" fill="black"/>
<rect width="2" height="2" transform="matrix(1 0 0 -1 22.5 28.4688)" fill="black"/>
<rect width="4" height="2" transform="matrix(1 0 0 -1 24.5 26.5156)" fill="black"/>
<rect x="46.5" y="28.4688" width="2" height="2" transform="rotate(180 46.5 28.4688)" fill="black"/>
<rect x="44.5" y="26.5156" width="4" height="2" transform="rotate(180 44.5 26.5156)" fill="black"/>
<rect x="26.5" y="10.5" width="2" height="4" fill="black"/>
<rect x="40.5" y="10.5" width="2" height="4" fill="black"/>
<rect width="2" height="46" transform="matrix(1 0 0 -1 0.5 70.5)" fill="black"/>
<rect width="64" height="2" transform="matrix(1 0 0 -1 2.5 72.5)" fill="black"/>
<rect width="2" height="46" transform="matrix(1 0 0 -1 66.5 70.5)" fill="black"/>
<rect x="6.5" y="28.4922" width="2" height="2" fill="black"/>
<rect x="4.5" y="26.5" width="2" height="2" fill="black"/>
<rect x="2.5" y="24.5" width="2" height="2" fill="black"/>
<rect x="2.5" y="22.5" width="2" height="2" fill="black"/>
<rect x="4.5" y="20.5" width="2" height="2" fill="black"/>
<rect x="12.5" y="34.5312" width="2" height="2" fill="black"/>
<rect x="10.5" y="32.5312" width="2" height="2" fill="black"/>
<rect x="8.5" y="30.5312" width="2" height="2" fill="black"/>
<rect x="18.5" y="40.5156" width="2" height="2" fill="black"/>
<rect x="16.5" y="38.5234" width="2" height="2" fill="black"/>
<rect x="14.5" y="36.5234" width="2" height="2" fill="black"/>
<rect x="24.5" y="46.5078" width="2" height="2" fill="black"/>
<rect x="22.5" y="44.5156" width="2" height="2" fill="black"/>
<rect x="20.5" y="42.5156" width="2" height="2" fill="black"/>
<rect width="2" height="2" transform="matrix(-1 0 0 1 62.5 28.4844)" fill="black"/>
<rect width="2" height="2" transform="matrix(-1 0 0 1 64.5 26.5)" fill="black"/>
<rect width="2" height="2" transform="matrix(-1 0 0 1 66.5 24.4922)" fill="black"/>
<rect width="2" height="2" transform="matrix(-1 0 0 1 66.5 22.4922)" fill="black"/>
<rect width="2" height="2" transform="matrix(-1 0 0 1 64.5 20.5)" fill="black"/>
<rect width="2" height="2" transform="matrix(-1 0 0 1 56.5 34.5156)" fill="black"/>
<rect width="2" height="2" transform="matrix(-1 0 0 1 58.5 32.5156)" fill="black"/>
<rect width="2" height="2" transform="matrix(-1 0 0 1 60.5 30.5156)" fill="black"/>
<rect width="2" height="2" transform="matrix(-1 0 0 1 50.5 40.5078)" fill="black"/>
<rect width="2" height="2" transform="matrix(-1 0 0 1 52.5 38.5156)" fill="black"/>
<rect width="2" height="2" transform="matrix(-1 0 0 1 54.5 36.5156)" fill="black"/>
<rect width="2" height="2" transform="matrix(-1 0 0 1 44.5 46.5)" fill="black"/>
<rect width="2" height="2" transform="matrix(-1 0 0 1 46.5 44.5078)" fill="black"/>
<rect width="2" height="2" transform="matrix(-1 0 0 1 48.5 42.5078)" fill="black"/>
<rect width="2" height="2" transform="matrix(-1 0 0 1 4.5 68.5)" fill="black"/>
<rect width="2" height="2" transform="matrix(-1 0 0 1 6.5 66.5)" fill="black"/>
<rect width="2" height="2" transform="matrix(-1 0 0 1 8.5 64.5)" fill="black"/>
<rect width="2" height="2" transform="matrix(-1 0 0 1 10.5 62.5)" fill="black"/>
<rect width="2" height="2" transform="matrix(-1 0 0 1 12.5 60.5)" fill="black"/>
<rect width="2" height="2" transform="matrix(-1 0 0 1 14.5 58.5)" fill="black"/>
<rect width="2" height="2" transform="matrix(-1 0 0 1 16.5 56.5)" fill="black"/>
<rect width="2" height="2" transform="matrix(-1 0 0 1 18.5 54.5)" fill="black"/>
<rect width="2" height="2" transform="matrix(-1 0 0 1 20.5 52.5)" fill="black"/>
<rect width="2" height="2" transform="matrix(-1 0 0 1 22.5 50.5)" fill="black"/>
<rect width="2" height="2" transform="matrix(-1 0 0 1 24.5 48.5)" fill="black"/>
<rect width="2" height="2" transform="matrix(-1 0 0 1 26.5 46.5)" fill="black"/>
<rect width="2" height="2" transform="matrix(-1 0 0 1 28.5 44.5)" fill="black"/>
<rect width="2" height="2" transform="matrix(-1 0 0 1 30.5 42.5)" fill="black"/>
<rect width="4" height="2" transform="matrix(-1 0 0 1 34.5 40.5)" fill="black"/>
<rect x="46.5" y="50.4998" width="2" height="2" fill="black"/>
<rect x="44.5" y="48.4998" width="2" height="2" fill="black"/>
<rect x="42.5" y="46.4998" width="2" height="2" fill="black"/>
<rect x="40.5" y="44.4998" width="2" height="2" fill="black"/>
<rect x="38.5" y="42.4998" width="2" height="2" fill="black"/>
<rect x="34.5" y="40.4998" width="4" height="2" fill="black"/>
<rect x="52.5" y="56.4998" width="2" height="2" fill="black"/>
<rect x="50.5" y="54.4998" width="2" height="2" fill="black"/>
<rect x="48.5" y="52.4998" width="2" height="2" fill="black"/>
<rect x="58.5" y="62.4998" width="2" height="2" fill="black"/>
<rect x="56.5" y="60.4998" width="2" height="2" fill="black"/>
<rect x="54.5" y="58.4998" width="2" height="2" fill="black"/>
<rect x="64.5" y="68.4998" width="2" height="2" fill="black"/>
<rect x="62.5" y="66.4998" width="2" height="2" fill="black"/>
<rect x="60.5" y="64.4998" width="2" height="2" fill="black"/>
</svg>
