<svg width="56" height="56" viewBox="0 0 56 56" fill="none" xmlns="http://www.w3.org/2000/svg">
<path d="M0 22.4C0 14.5593 0 10.6389 1.52591 7.64413C2.86814 5.00986 5.00986 2.86814 7.64413 1.52591C10.6389 0 14.5593 0 22.4 0H33.6C41.4407 0 45.3611 0 48.3559 1.52591C50.9901 2.86814 53.1319 5.00986 54.4741 7.64413C56 10.6389 56 14.5593 56 22.4V33.6C56 41.4407 56 45.3611 54.4741 48.3559C53.1319 50.9901 50.9901 53.1319 48.3559 54.4741C45.3611 56 41.4407 56 33.6 56H22.4C14.5593 56 10.6389 56 7.64413 54.4741C5.00986 53.1319 2.86814 50.9901 1.52591 48.3559C0 45.3611 0 41.4407 0 33.6V22.4Z" fill="#5DD400"/>
<path d="M26.0821 39C25.2 39 24.4742 38.6652 23.9048 37.9956L17.7097 30.6502C17.4371 30.3517 17.2486 30.0653 17.1444 29.791C17.0481 29.5086 17 29.2101 17 28.8955C17 28.2017 17.2326 27.6249 17.6977 27.165C18.1628 26.7052 18.7523 26.4752 19.466 26.4752C20.2279 26.4752 20.8614 26.7697 21.3666 27.3586L26.034 32.9857L35.3567 18.2585C35.6534 17.7987 35.9662 17.476 36.295 17.2904C36.6318 17.0968 37.0408 17 37.522 17C38.2197 17 38.8051 17.2299 39.2782 17.6898C39.7594 18.1415 40 18.7143 40 19.4081C40 19.6582 39.9559 19.9204 39.8677 20.1947C39.7795 20.4609 39.6431 20.7312 39.4587 21.0055L28.3556 37.8383C27.8424 38.6128 27.0846 39 26.0821 39Z" fill="white"/>
</svg>
