<svg xmlns="http://www.w3.org/2000/svg" width="56" height="56" viewBox="0 0 56 56" fill="none">
    <path fill-rule="evenodd" clip-rule="evenodd" d="M1.52591 7.64413C0 10.6389 0 14.5593 0 22.4V33.6C0 41.4407 0 45.3611 1.52591 48.3559C2.86814 50.9901 5.00986 53.1319 7.64413 54.4741C10.6389 56 14.5593 56 22.4 56H33.6C41.4407 56 45.3611 56 48.3559 54.4741C50.9901 53.1319 53.1319 50.9901 54.4741 48.3559C56 45.3611 56 41.4407 56 33.6V22.4C56 14.5593 56 10.6389 54.4741 7.64413C53.1319 5.00986 50.9901 2.86814 48.3559 1.52591C45.3611 0 41.4407 0 33.6 0H22.4C14.5593 0 10.6389 0 7.64413 1.52591C5.00986 2.86814 2.86814 5.00986 1.52591 7.64413ZM28.0078 10.0703C30.2343 10.0703 32.3378 10.4512 34.3183 11.2129C36.2988 11.9629 38.08 13.0176 39.6621 14.377C41.2441 15.7363 42.5507 17.3301 43.582 19.1582C44.625 20.9746 45.3222 22.9492 45.6738 25.082H48.1875C48.6093 25.082 48.9257 25.1699 49.1367 25.3457C49.3476 25.5098 49.4472 25.7324 49.4355 26.0137C49.4355 26.2832 49.3183 26.582 49.0839 26.9102L45.164 32.5C44.871 32.9102 44.5371 33.1152 44.1621 33.1152C43.7871 33.1035 43.4589 32.8984 43.1777 32.5L39.2402 26.8926C39.0175 26.5762 38.9062 26.2832 38.9062 26.0137C38.8945 25.7324 38.9941 25.5098 39.205 25.3457C39.416 25.1699 39.7265 25.082 40.1367 25.082H42.6152C42.2871 23.3711 41.6835 21.7832 40.8046 20.3184C39.9257 18.8535 38.8359 17.582 37.5351 16.5039C36.2343 15.4141 34.7753 14.5703 33.1581 13.9727C31.541 13.3633 29.8242 13.0586 28.0078 13.0586C25.8164 13.0586 23.7656 13.5039 21.8554 14.3945C19.9335 15.2734 18.2812 16.4688 16.8984 17.9805C16.5468 18.3789 16.1894 18.5898 15.8261 18.6133C15.4628 18.625 15.1347 18.5312 14.8417 18.332C14.5136 18.0859 14.3144 17.7402 14.2441 17.2949C14.1621 16.8496 14.3027 16.4277 14.666 16.0293C16.3066 14.1895 18.2812 12.7363 20.5898 11.6699C22.8984 10.6035 25.371 10.0703 28.0078 10.0703ZM28.0078 45.9297C25.7812 45.9297 23.6777 45.5547 21.6972 44.8047C19.7167 44.043 17.9355 42.9824 16.3535 41.623C14.7714 40.252 13.4589 38.6582 12.416 36.8418C11.373 35.0254 10.6816 33.0508 10.3417 30.918H7.8105C7.38862 30.918 7.07221 30.8359 6.86128 30.6719C6.65034 30.4961 6.55073 30.2734 6.56245 30.0039C6.56245 29.7227 6.67964 29.418 6.91401 29.0898L10.8515 23.5C11.1445 23.0898 11.4785 22.8848 11.8535 22.8848C12.2285 22.8848 12.5566 23.0898 12.8378 23.5L16.7753 29.1074C16.998 29.4238 17.1152 29.7227 17.1269 30.0039C17.1269 30.2734 17.0214 30.4961 16.8105 30.6719C16.5996 30.8359 16.289 30.918 15.8789 30.918H13.4003C13.7285 32.6289 14.332 34.2168 15.2109 35.6816C16.0898 37.1465 17.1796 38.4238 18.4804 39.5137C19.7812 40.5918 21.2402 41.4355 22.8574 42.0449C24.4746 42.6426 26.1914 42.9414 28.0078 42.9414C30.1992 42.9414 32.2558 42.502 34.1777 41.623C36.0878 40.7324 37.7285 39.5254 39.0996 38.002C39.4628 37.6152 39.8261 37.416 40.1894 37.4043C40.5527 37.3809 40.875 37.4688 41.1562 37.668C41.4843 37.9141 41.6894 38.2598 41.7714 38.7051C41.8535 39.1504 41.7128 39.5723 41.3496 39.9707C39.7089 41.8105 37.7343 43.2637 35.4257 44.3301C33.1171 45.3965 30.6445 45.9297 28.0078 45.9297ZM26.9297 35.0547C26.3568 35.0547 25.8854 34.8385 25.5156 34.4062L21.4922 29.6641C21.3151 29.4714 21.1927 29.2865 21.125 29.1094C21.0625 28.9271 21.0312 28.7344 21.0312 28.5312C21.0312 28.0833 21.1823 27.7109 21.4844 27.4141C21.7865 27.1172 22.1693 26.9688 22.6328 26.9688C23.1276 26.9688 23.5391 27.1589 23.8672 27.5391L26.8984 31.1719L32.9531 21.6641C33.1458 21.3672 33.349 21.1589 33.5625 21.0391C33.7812 20.9141 34.0469 20.8516 34.3594 20.8516C34.8125 20.8516 35.1927 21 35.5 21.2969C35.8125 21.5885 35.9688 21.9583 35.9688 22.4062C35.9688 22.5677 35.9401 22.737 35.8828 22.9141C35.8255 23.0859 35.737 23.2604 35.6172 23.4375L28.4062 34.3047C28.0729 34.8047 27.5807 35.0547 26.9297 35.0547Z" fill="#5DD400"/>
</svg>
