<svg xmlns="http://www.w3.org/2000/svg" width="56" height="57" viewBox="0 0 56 57" fill="none">
    <path fill-rule="evenodd" clip-rule="evenodd" d="M1.52591 8.14413C0 11.1389 0 15.0593 0 22.9V34.1C0 41.9407 0 45.8611 1.52591 48.8559C2.86814 51.4901 5.00986 53.6319 7.64413 54.9741C10.6389 56.5 14.5593 56.5 22.4 56.5H33.6C41.4407 56.5 45.3611 56.5 48.3559 54.9741C50.9901 53.6319 53.1319 51.4901 54.4741 48.8559C56 45.8611 56 41.9407 56 34.1V22.9C56 15.0593 56 11.1389 54.4741 8.14413C53.1319 5.50986 50.9901 3.36814 48.3559 2.02591C45.3611 0.5 41.4407 0.5 33.6 0.5H22.4C14.5593 0.5 10.6389 0.5 7.64413 2.02591C5.00986 3.36814 2.86814 5.50986 1.52591 8.14413ZM43.2812 34.1951C43.9583 32.4139 44.2969 30.518 44.2969 28.5076C44.2969 26.3514 43.8906 24.3253 43.0781 22.4295C42.276 20.5232 41.1771 18.867 39.7812 17.4607C39.3854 16.992 38.9271 16.768 38.4062 16.7889C37.8854 16.8097 37.4583 16.9868 37.125 17.3201C36.8333 17.6118 36.6615 17.9816 36.6094 18.4295C36.5677 18.8774 36.75 19.3462 37.1562 19.8357C38.2604 20.9503 39.1302 22.2524 39.7656 23.742C40.401 25.2316 40.7188 26.8201 40.7188 28.5076C40.7188 30.018 40.4688 31.4503 39.9688 32.8045C39.4792 34.1482 38.7917 35.3722 37.9062 36.4764C37.0208 37.5701 35.9792 38.4972 34.7812 39.2576C33.5833 40.0076 32.2812 40.5389 30.875 40.8514V38.8826C30.875 38.4972 30.7812 38.2055 30.5938 38.0076C30.4167 37.7993 30.1875 37.7003 29.9062 37.7107C29.625 37.7212 29.3385 37.8305 29.0469 38.0389L23.9375 41.7576C23.6042 42.0076 23.4323 42.3045 23.4219 42.6482C23.4219 43.0024 23.5938 43.3045 23.9375 43.5545L29.0312 47.2732C29.3333 47.492 29.625 47.6014 29.9062 47.6014C30.1875 47.6118 30.4167 47.518 30.5938 47.3201C30.7812 47.1222 30.875 46.8253 30.875 46.4295V44.5389C32.7812 44.1951 34.5469 43.5441 36.1719 42.5857C37.8073 41.6378 39.2292 40.4503 40.4375 39.0232C41.6562 37.5857 42.6042 35.9764 43.2812 34.1951ZM12.7188 22.8201C12.0417 24.6014 11.7031 26.4972 11.7031 28.5076C11.7031 30.6535 12.1042 32.6795 12.9062 34.5857C13.7083 36.4816 14.8073 38.1378 16.2031 39.5545C16.6094 40.0232 17.0729 40.242 17.5938 40.2107C18.1146 40.1899 18.5417 40.0128 18.875 39.6795C19.1562 39.3982 19.3229 39.0337 19.375 38.5857C19.4271 38.1378 19.25 37.6639 18.8438 37.1639C17.7396 36.0597 16.8698 34.7628 16.2344 33.2732C15.599 31.7837 15.2812 30.1951 15.2812 28.5076C15.2812 26.9972 15.526 25.5701 16.0156 24.2264C16.5052 22.8722 17.1927 21.6482 18.0781 20.5545C18.974 19.4503 20.0208 18.5232 21.2188 17.7732C22.4167 17.0128 23.7188 16.4764 25.125 16.1639V18.1326C25.125 18.518 25.2135 18.8149 25.3906 19.0232C25.5781 19.2212 25.8125 19.3149 26.0938 19.3045C26.375 19.2941 26.6615 19.1847 26.9531 18.9764L32.0625 15.2576C32.4062 15.0076 32.5781 14.7107 32.5781 14.367C32.5781 14.0128 32.4062 13.7107 32.0625 13.4607L26.9531 9.72637C26.6615 9.50762 26.375 9.39824 26.0938 9.39824C25.8125 9.38783 25.5781 9.48158 25.3906 9.67949C25.2135 9.87741 25.125 10.1795 25.125 10.5857V12.4764C23.2188 12.8097 21.4531 13.4555 19.8281 14.4139C18.2031 15.3618 16.7812 16.5545 15.5625 17.992C14.3438 19.4191 13.3958 21.0285 12.7188 22.8201Z" fill="#5DD400"/>
</svg>
