<svg xmlns="http://www.w3.org/2000/svg" width="56" height="56" viewBox="0 0 56 56" fill="none">
	<path fill-rule="evenodd" clip-rule="evenodd" d="M28 53C41.7381 53 52.875 41.8631 52.875 28.125C52.875 14.3869 41.7381 3.25 28 3.25C14.2619 3.25 3.125 14.3869 3.125 28.125C3.125 41.8631 14.2619 53 28 53ZM55.875 28.125C55.875 43.5199 43.3949 56 28 56C12.6051 56 0.125 43.5199 0.125 28.125C0.125 12.7301 12.6051 0.25 28 0.25C43.3949 0.25 55.875 12.7301 55.875 28.125Z" fill="#FFB522"/>
	<path d="M28 33.043C27.043 33.043 26.4766 32.418 26.457 31.4219L26.2617 15.3477C26.2617 14.293 27.0234 13.5898 28 13.5898C28.9766 13.5898 29.7383 14.293 29.7383 15.3477L29.543 31.4219C29.5234 32.418 28.957 33.043 28 33.043ZM28 42.3203C26.75 42.3203 25.7734 41.3438 25.7734 40.0938C25.7734 38.8242 26.75 37.8672 28 37.8672C29.2695 37.8672 30.2266 38.8242 30.2266 40.0938C30.2266 41.3438 29.2695 42.3203 28 42.3203Z" fill="#FFB522"/>
</svg>
