<svg width="56" height="56" viewBox="0 0 56 56" fill="none" xmlns="http://www.w3.org/2000/svg">
<path fill-rule="evenodd" clip-rule="evenodd" d="M28 51.9821C41.2449 51.9821 51.9821 41.2449 51.9821 28C51.9821 14.7551 41.2449 4.01794 28 4.01794C14.7551 4.01794 4.01794 14.7551 4.01794 28C4.01794 41.2449 14.7551 51.9821 28 51.9821ZM56 28C56 43.464 43.464 56 28 56C12.536 56 0 43.464 0 28C0 12.536 12.536 0 28 0C43.464 0 56 12.536 56 28Z" fill="#8A8A8A"/>
<path d="M27.875 32.793C26.918 32.793 26.3516 32.168 26.332 31.1719L26.1367 15.0977C26.1367 14.043 26.8984 13.3398 27.875 13.3398C28.8516 13.3398 29.6133 14.043 29.6133 15.0977L29.418 31.1719C29.3984 32.168 28.832 32.793 27.875 32.793ZM27.875 42.0703C26.625 42.0703 25.6484 41.0938 25.6484 39.8438C25.6484 38.5742 26.625 37.6172 27.875 37.6172C29.1445 37.6172 30.1016 38.5742 30.1016 39.8438C30.1016 41.0938 29.1445 42.0703 27.875 42.0703Z" fill="#8A8A8A"/>
</svg>