<svg width="221" height="73" viewBox="0 0 221 73" fill="none" xmlns="http://www.w3.org/2000/svg">
<path fill-rule="evenodd" clip-rule="evenodd" d="M193.118 52.9974C193.118 60.6158 199.294 66.7918 206.913 66.7918C214.531 66.7918 220.707 60.6158 220.707 52.9974C220.707 45.3791 214.531 39.2031 206.913 39.2031C199.294 39.2031 193.118 45.3791 193.118 52.9974ZM210.361 47.4797V46.1003H209.672V47.4797H210.361ZM204.154 46.1003V47.4797H203.464V46.1003H204.154ZM204.672 51.573C205.231 51.1814 206.022 50.9283 206.913 50.9283V50.2386C205.898 50.2386 204.965 50.5258 204.276 51.008C203.589 51.4893 203.119 52.1874 203.119 52.9974C203.119 53.8075 203.589 54.5056 204.276 54.9869C204.965 55.4691 205.898 55.7563 206.913 55.7563V55.0666C206.022 55.0666 205.231 54.8135 204.672 54.4219C204.111 54.0296 203.809 53.5206 203.809 52.9974C203.809 52.4743 204.111 51.9653 204.672 51.573ZM212.086 55.7563C212.086 58.6132 209.77 60.9292 206.913 60.9292V61.6189C210.151 61.6189 212.775 58.9941 212.775 55.7563H212.086Z" fill="#252525"/>
<path fill-rule="evenodd" clip-rule="evenodd" d="M140.702 12.3069H80.0071C75.8169 12.3069 72.4202 15.7037 72.4202 19.8938V53.0002C72.4202 57.1903 75.8169 60.587 80.0071 60.587H140.702C144.892 60.587 148.289 57.1903 148.289 53.0002V19.8938C148.289 15.7037 144.892 12.3069 140.702 12.3069ZM80.0071 11.6172C75.436 11.6172 71.7305 15.3227 71.7305 19.8938V53.0002C71.7305 57.5712 75.436 61.2767 80.0071 61.2767H140.702C145.273 61.2767 148.979 57.5712 148.979 53.0002V19.8938C148.979 15.3227 145.273 11.6172 140.702 11.6172H80.0071Z" fill="#252525"/>
<path fill-rule="evenodd" clip-rule="evenodd" d="M122.77 1.27175H97.9407C93.7505 1.27175 90.3538 4.66851 90.3538 8.85863V64.0359C90.3538 68.226 93.7505 71.6228 97.9407 71.6228H122.77C126.961 71.6228 130.357 68.226 130.357 64.0359V8.85862C130.357 4.66851 126.961 1.27175 122.77 1.27175ZM97.9407 0.582031C93.3696 0.582031 89.6641 4.28759 89.6641 8.85863V64.0359C89.6641 68.6069 93.3696 72.3125 97.9407 72.3125H122.77C127.341 72.3125 131.047 68.6069 131.047 64.0359V8.85862C131.047 4.28759 127.341 0.582031 122.77 0.582031H97.9407Z" fill="#252525"/>
<path fill-rule="evenodd" clip-rule="evenodd" d="M27.5898 36.4428C27.5898 44.0612 21.4139 50.2371 13.7955 50.2371C6.17713 50.2371 0.00120163 44.0612 0.00120163 36.4428C0.00120163 28.8244 6.17713 22.6484 13.7955 22.6484C21.4139 22.6484 27.5898 28.8244 27.5898 36.4428ZM10.3469 32.3045V30.925H11.0367V32.3045H10.3469ZM16.5544 30.925V32.3045H17.2441V30.925H16.5544ZM18.6679 39.2016H13.7955V39.8913H19.9586L16.1525 34.1973C16.4956 34.3117 16.8626 34.3736 17.2441 34.3736C19.1487 34.3736 20.6927 32.8296 20.6927 30.925C20.6927 29.0204 19.1487 27.4764 17.2441 27.4764C15.3395 27.4764 13.7955 29.0204 13.7955 30.925C13.7955 31.8057 14.1256 32.6092 14.6688 33.2187L18.6679 39.2016ZM13.7955 45.0644C12.3143 45.0644 10.8518 44.3217 9.76663 43.2393C8.68137 42.1569 7.93294 40.6941 7.93294 39.2016H8.62265C8.62265 40.4681 9.26443 41.7643 10.2537 42.751C11.2431 43.7379 12.5394 44.3746 13.7955 44.3746V45.0644ZM17.2441 33.6839C15.7204 33.6839 14.4852 32.4487 14.4852 30.925C14.4852 29.4014 15.7204 28.1662 17.2441 28.1662C18.7678 28.1662 20.003 29.4014 20.003 30.925C20.003 32.4487 18.7678 33.6839 17.2441 33.6839ZM7.58808 30.925C7.58808 32.4487 8.82327 33.6839 10.3469 33.6839C11.8706 33.6839 13.1058 32.4487 13.1058 30.925C13.1058 29.4014 11.8706 28.1662 10.3469 28.1662C8.82327 28.1662 7.58808 29.4014 7.58808 30.925ZM6.89836 30.925C6.89836 32.8296 8.44234 34.3736 10.3469 34.3736C12.2515 34.3736 13.7955 32.8296 13.7955 30.925C13.7955 29.0204 12.2515 27.4764 10.3469 27.4764C8.44234 27.4764 6.89836 29.0204 6.89836 30.925Z" fill="#252525"/>
<path fill-rule="evenodd" clip-rule="evenodd" d="M104.145 22.6523C99.9554 22.6523 96.5586 26.0491 96.5586 30.2392V42.6541C96.5586 46.8442 99.9554 50.241 104.145 50.241H116.56C120.75 50.241 124.147 46.8442 124.147 42.6541V30.2392C124.147 26.0491 120.75 22.6523 116.56 22.6523H104.145ZM110.353 44.5508C105.972 44.5508 102.421 40.9997 102.421 36.6191H101.731C101.731 41.3806 105.591 45.2405 110.353 45.2405C115.114 45.2405 118.974 41.3806 118.974 36.6191H118.285C118.285 40.9997 114.733 44.5508 110.353 44.5508ZM106.559 32.4808V30.4116H107.249V32.4808H106.559ZM113.457 30.4116V32.4808H114.146V30.4116H113.457Z" fill="#252525"/>
<path fill-rule="evenodd" clip-rule="evenodd" d="M193.126 19.8998C193.126 27.5182 199.302 33.6941 206.921 33.6941C214.539 33.6941 220.715 27.5182 220.715 19.8998C220.715 12.2814 214.539 6.10547 206.921 6.10547C199.302 6.10547 193.126 12.2814 193.126 19.8998ZM210.369 14.3821V13.0026H209.679V14.3821H210.369ZM204.162 13.0026V14.3821H203.472V13.0026H204.162ZM203.824 21.9694C203.918 19.7323 204.928 17.2645 207.121 15.6977L206.72 15.1364C204.199 16.9372 203.127 19.8107 203.127 22.3142V22.6591H206.921V21.9694H203.824ZM212.093 22.6587C212.093 25.5156 209.777 27.8315 206.921 27.8315V28.5212C210.158 28.5212 212.783 25.8965 212.783 22.6587H212.093Z" fill="#252525"/>
<path fill-rule="evenodd" clip-rule="evenodd" d="M176.57 27.4867C182.284 27.4867 186.916 22.8547 186.916 17.1409C186.916 11.4271 182.284 6.79518 176.57 6.79518C176.089 6.79518 175.615 6.82806 175.151 6.8917C174.717 6.7181 174.27 6.57123 173.811 6.45313C174.693 6.22618 175.617 6.10547 176.57 6.10547C182.665 6.10547 187.605 11.0462 187.605 17.1409C187.605 23.2356 182.665 28.1764 176.57 28.1764C175.617 28.1764 174.693 28.0557 173.811 27.8287C174.27 27.7106 174.717 27.5638 175.151 27.3902C175.615 27.4538 176.089 27.4867 176.57 27.4867Z" fill="#252525"/>
<path fill-rule="evenodd" clip-rule="evenodd" d="M176.57 28.1764C182.665 28.1764 187.605 23.2356 187.605 17.1409C187.605 11.0462 182.665 6.10547 176.57 6.10547C176.119 6.10547 175.675 6.13251 175.238 6.18506C174.752 6.24354 174.276 6.3336 173.811 6.45313C174.27 6.57122 174.717 6.71806 175.151 6.89164C175.151 6.89166 175.151 6.89168 175.151 6.8917C175.507 6.84284 175.869 6.8121 176.236 6.80047C176.347 6.79695 176.458 6.79518 176.57 6.79518C182.284 6.79518 186.916 11.4271 186.916 17.1409C186.916 22.8547 182.284 27.4867 176.57 27.4867C176.429 27.4867 176.288 27.4838 176.148 27.4782C175.811 27.4647 175.479 27.4351 175.151 27.3902C175.151 27.3902 175.151 27.3902 175.151 27.3902C174.717 27.5638 174.27 27.7106 173.811 27.8287C174.276 27.9483 174.752 28.0383 175.238 28.0968C175.55 28.1344 175.867 28.1589 176.187 28.1698C176.314 28.1742 176.442 28.1764 176.57 28.1764Z" fill="#252525"/>
<path fill-rule="evenodd" clip-rule="evenodd" d="M171.054 27.4867C176.768 27.4867 181.4 22.8547 181.4 17.1409C181.4 11.4271 176.768 6.79518 171.054 6.79518C170.573 6.79518 170.099 6.82806 169.635 6.8917C169.202 6.7181 168.754 6.57123 168.296 6.45313C169.177 6.22618 170.102 6.10547 171.054 6.10547C177.149 6.10547 182.09 11.0462 182.09 17.1409C182.09 23.2356 177.149 28.1764 171.054 28.1764C170.102 28.1764 169.177 28.0557 168.296 27.8287C168.754 27.7106 169.202 27.5638 169.635 27.3902C170.099 27.4538 170.573 27.4867 171.054 27.4867Z" fill="#252525"/>
<path fill-rule="evenodd" clip-rule="evenodd" d="M171.054 28.1764C177.149 28.1764 182.09 23.2356 182.09 17.1409C182.09 11.0462 177.149 6.10547 171.054 6.10547C170.603 6.10547 170.159 6.13251 169.722 6.18506C169.236 6.24354 168.76 6.3336 168.296 6.45313C168.754 6.57122 169.202 6.71806 169.635 6.89164C169.635 6.89166 169.635 6.89168 169.635 6.8917C169.992 6.84284 170.354 6.8121 170.72 6.80047C170.831 6.79695 170.943 6.79518 171.054 6.79518C176.768 6.79518 181.4 11.4271 181.4 17.1409C181.4 22.8547 176.768 27.4867 171.054 27.4867C170.913 27.4867 170.772 27.4838 170.632 27.4782C170.295 27.4647 169.963 27.4351 169.635 27.3902C169.635 27.3902 169.635 27.3902 169.635 27.3902C169.202 27.5638 168.754 27.7106 168.296 27.8287C168.76 27.9483 169.236 28.0383 169.722 28.0968C170.035 28.1344 170.351 28.1589 170.671 28.1698C170.798 28.1742 170.926 28.1764 171.054 28.1764Z" fill="#252525"/>
<path fill-rule="evenodd" clip-rule="evenodd" d="M155.19 17.1409C155.19 22.8547 159.822 27.4867 165.535 27.4867C171.249 27.4867 175.881 22.8547 175.881 17.1409C175.881 11.4271 171.249 6.79518 165.535 6.79518C159.822 6.79518 155.19 11.4271 155.19 17.1409ZM165.535 6.10547C159.441 6.10547 154.5 11.0462 154.5 17.1409C154.5 23.2356 159.441 28.1764 165.535 28.1764C171.63 28.1764 176.571 23.2356 176.571 17.1409C176.571 11.0462 171.63 6.10547 165.535 6.10547Z" fill="#252525"/>
<path fill-rule="evenodd" clip-rule="evenodd" d="M160.727 16.0411C160.92 18.22 162.718 20.6899 165.539 21.9691C168.36 20.6899 170.158 18.22 170.351 16.0411C170.362 15.9494 170.367 15.8562 170.367 15.7617C170.367 14.4284 169.286 13.3477 167.953 13.3477C166.62 13.3477 165.539 14.4284 165.539 15.7617C165.539 14.4284 164.458 13.3477 163.125 13.3477C161.792 13.3477 160.711 14.4284 160.711 15.7617C160.711 15.8562 160.716 15.9494 160.727 16.0411Z" fill="#252525"/>
<path fill-rule="evenodd" clip-rule="evenodd" d="M44.137 44.0257C38.4232 44.0257 33.7913 39.3938 33.7913 33.68C33.7913 27.9662 38.4232 23.3342 44.137 23.3342C44.6184 23.3342 45.0921 23.3671 45.556 23.4308C45.9897 23.2572 46.437 23.1103 46.8959 22.9922C46.0141 22.7652 45.0897 22.6445 44.137 22.6445C38.0423 22.6445 33.1016 27.5853 33.1016 33.68C33.1016 39.7747 38.0423 44.7154 44.137 44.7154C45.0897 44.7154 46.0141 44.5947 46.8959 44.3678C46.437 44.2497 45.9897 44.1028 45.556 43.9292C45.0921 43.9929 44.6184 44.0257 44.137 44.0257Z" fill="#252525"/>
<path fill-rule="evenodd" clip-rule="evenodd" d="M44.137 44.7154C38.0423 44.7154 33.1016 39.7747 33.1016 33.68C33.1016 27.5853 38.0423 22.6445 44.137 22.6445C44.5879 22.6445 45.0325 22.6716 45.4692 22.7241C45.9552 22.7826 46.4315 22.8727 46.8959 22.9922C46.4371 23.1103 45.9899 23.2571 45.5562 23.4307C45.5561 23.4307 45.5561 23.4307 45.556 23.4308C45.1998 23.3819 44.8378 23.3512 44.471 23.3395C44.3601 23.336 44.2488 23.3342 44.137 23.3342C38.4232 23.3342 33.7913 27.9662 33.7913 33.68C33.7913 39.3938 38.4232 44.0257 44.137 44.0257C44.2785 44.0257 44.4193 44.0229 44.5593 44.0173C44.896 44.0038 45.2284 43.9742 45.556 43.9292C45.5561 43.9292 45.5561 43.9293 45.5562 43.9293C45.9899 44.1029 46.4371 44.2497 46.8959 44.3678C46.4315 44.4873 45.9552 44.5774 45.4692 44.6359C45.1567 44.6735 44.8402 44.698 44.5201 44.7089C44.393 44.7133 44.2652 44.7154 44.137 44.7154Z" fill="#252525"/>
<path fill-rule="evenodd" clip-rule="evenodd" d="M49.6526 44.0257C43.9388 44.0257 39.3069 39.3938 39.3069 33.68C39.3069 27.9662 43.9388 23.3342 49.6526 23.3342C50.134 23.3342 50.6078 23.3671 51.0717 23.4308C51.5054 23.2572 51.9527 23.1103 52.4115 22.9922C51.5297 22.7652 50.6053 22.6445 49.6526 22.6445C43.5579 22.6445 38.6172 27.5853 38.6172 33.68C38.6172 39.7747 43.5579 44.7154 49.6526 44.7154C50.6053 44.7154 51.5297 44.5947 52.4115 44.3678C51.9527 44.2497 51.5054 44.1028 51.0717 43.9292C50.6078 43.9929 50.134 44.0257 49.6526 44.0257Z" fill="#252525"/>
<path fill-rule="evenodd" clip-rule="evenodd" d="M49.6526 44.7154C43.5579 44.7154 38.6172 39.7747 38.6172 33.68C38.6172 27.5853 43.5579 22.6445 49.6526 22.6445C50.1035 22.6445 50.5481 22.6716 50.9849 22.7241C51.4708 22.7826 51.9471 22.8727 52.4115 22.9922C51.9527 23.1103 51.5055 23.2571 51.0718 23.4307C51.0718 23.4307 51.0717 23.4307 51.0717 23.4308C50.7154 23.3819 50.3535 23.3512 49.9866 23.3395C49.8758 23.336 49.7644 23.3342 49.6526 23.3342C43.9388 23.3342 39.3069 27.9662 39.3069 33.68C39.3069 39.3938 43.9388 44.0257 49.6526 44.0257C49.7941 44.0257 49.9349 44.0229 50.0749 44.0173C50.4116 44.0038 50.7441 43.9742 51.0717 43.9292C51.0717 43.9292 51.0718 43.9293 51.0718 43.9293C51.5055 44.1029 51.9527 44.2497 52.4115 44.3678C51.9471 44.4873 51.4708 44.5774 50.9849 44.6359C50.6723 44.6735 50.3558 44.698 50.0358 44.7089C49.9086 44.7133 49.7809 44.7154 49.6526 44.7154Z" fill="#252525"/>
<path fill-rule="evenodd" clip-rule="evenodd" d="M44.8264 33.68C44.8264 39.3938 49.4584 44.0257 55.1722 44.0257C60.886 44.0257 65.5179 39.3938 65.5179 33.68C65.5179 27.9662 60.886 23.3342 55.1722 23.3342C49.4584 23.3342 44.8264 27.9662 44.8264 33.68ZM55.1722 22.6445C49.0775 22.6445 44.1367 27.5853 44.1367 33.68C44.1367 39.7747 49.0775 44.7154 55.1722 44.7154C61.2669 44.7154 66.2076 39.7747 66.2076 33.68C66.2076 27.5853 61.2669 22.6445 55.1722 22.6445Z" fill="#252525"/>
<path d="M53.1055 31.5964V37.0959C53.1055 37.4755 53.4123 37.7838 53.7919 37.7856L58.5522 37.8082C58.8767 37.8098 59.1584 37.5849 59.2288 37.2681L60.3011 32.4428C60.3968 32.012 60.069 31.6034 59.6278 31.6034H56.554C56.554 31.6034 57.2438 30.6122 57.2438 29.5345C57.2438 28.431 56.9339 27.9409 56.5487 27.6436C56.1634 27.3462 55.3686 27.4687 55.3686 28.1737C55.3632 29.5558 54.4418 30.6659 53.1055 31.5964Z" fill="#252525"/>
<path d="M49.6562 31.6016H52.4151V37.1193C52.4151 37.5002 52.1063 37.809 51.7254 37.809H50.346C49.965 37.809 49.6562 37.5002 49.6562 37.1193V31.6016Z" fill="#252525"/>
<path fill-rule="evenodd" clip-rule="evenodd" d="M155.182 50.2386C155.182 55.9524 159.814 60.5843 165.528 60.5843C171.241 60.5843 175.873 55.9524 175.873 50.2386C175.873 44.5248 171.241 39.8928 165.528 39.8928C159.814 39.8928 155.182 44.5248 155.182 50.2386ZM165.528 39.2031C159.433 39.2031 154.492 44.1439 154.492 50.2386C154.492 56.3333 159.433 61.274 165.528 61.274C171.622 61.274 176.563 56.3333 176.563 50.2386C176.563 44.1439 171.622 39.2031 165.528 39.2031Z" fill="#252525"/>
<path fill-rule="evenodd" clip-rule="evenodd" d="M176.562 60.5843C182.276 60.5843 186.908 55.9524 186.908 50.2386C186.908 44.5248 182.276 39.8928 176.562 39.8928C176.081 39.8928 175.607 39.9257 175.143 39.9894C174.709 39.8158 174.262 39.6689 173.803 39.5508C174.685 39.3238 175.61 39.2031 176.562 39.2031C182.657 39.2031 187.598 44.1439 187.598 50.2386C187.598 56.3333 182.657 61.274 176.562 61.274C175.61 61.274 174.685 61.1533 173.803 60.9264C174.262 60.8083 174.709 60.6614 175.143 60.4878C175.607 60.5514 176.081 60.5843 176.562 60.5843Z" fill="#252525"/>
<path fill-rule="evenodd" clip-rule="evenodd" d="M176.562 61.274C182.657 61.274 187.598 56.3333 187.598 50.2386C187.598 44.1439 182.657 39.2031 176.562 39.2031C176.111 39.2031 175.667 39.2302 175.23 39.2827C174.744 39.3412 174.268 39.4313 173.803 39.5508C174.262 39.6689 174.709 39.8157 175.143 39.9893C175.143 39.9893 175.143 39.9893 175.143 39.9894C175.499 39.9405 175.861 39.9098 176.228 39.8981C176.339 39.8946 176.45 39.8928 176.562 39.8928C182.276 39.8928 186.908 44.5248 186.908 50.2386C186.908 55.9524 182.276 60.5843 176.562 60.5843C176.421 60.5843 176.28 60.5815 176.14 60.5759C175.803 60.5624 175.471 60.5327 175.143 60.4878C175.143 60.4878 175.143 60.4879 175.143 60.4879C174.709 60.6614 174.262 60.8083 173.803 60.9264C174.268 61.0459 174.744 61.136 175.23 61.1944C175.543 61.2321 175.859 61.2566 176.179 61.2675C176.306 61.2719 176.434 61.274 176.562 61.274Z" fill="#252525"/>
<path fill-rule="evenodd" clip-rule="evenodd" d="M171.047 60.5843C176.76 60.5843 181.392 55.9524 181.392 50.2386C181.392 44.5248 176.76 39.8928 171.047 39.8928C170.565 39.8928 170.091 39.9257 169.628 39.9894C169.194 39.8158 168.747 39.6689 168.288 39.5508C169.169 39.3238 170.094 39.2031 171.047 39.2031C177.141 39.2031 182.082 44.1439 182.082 50.2386C182.082 56.3333 177.141 61.274 171.047 61.274C170.094 61.274 169.169 61.1533 168.288 60.9264C168.747 60.8083 169.194 60.6614 169.628 60.4878C170.091 60.5514 170.565 60.5843 171.047 60.5843Z" fill="#252525"/>
<path fill-rule="evenodd" clip-rule="evenodd" d="M171.047 61.274C177.141 61.274 182.082 56.3333 182.082 50.2386C182.082 44.1439 177.141 39.2031 171.047 39.2031C170.596 39.2031 170.151 39.2302 169.714 39.2827C169.228 39.3412 168.752 39.4313 168.288 39.5508C168.747 39.6689 169.194 39.8157 169.627 39.9893C169.627 39.9893 169.628 39.9893 169.628 39.9894C169.984 39.9405 170.346 39.9098 170.713 39.8981C170.823 39.8946 170.935 39.8928 171.047 39.8928C176.76 39.8928 181.392 44.5248 181.392 50.2386C181.392 55.9524 176.76 60.5843 171.047 60.5843C170.905 60.5843 170.764 60.5815 170.624 60.5759C170.288 60.5624 169.955 60.5327 169.628 60.4878C169.628 60.4878 169.627 60.4879 169.627 60.4879C169.194 60.6614 168.747 60.8083 168.288 60.9264C168.752 61.0459 169.228 61.136 169.714 61.1944C170.027 61.2321 170.343 61.2566 170.663 61.2675C170.791 61.2719 170.918 61.274 171.047 61.274Z" fill="#252525"/>
<path d="M159.328 50.5881V49.8984L164.156 47.4844V48.5189L160.708 50.2432L159.328 50.5881Z" fill="#252525"/>
<path d="M159.328 49.9002V50.5899L164.156 53.0039V51.9693L160.708 50.245L159.328 49.9002Z" fill="#252525"/>
<path d="M171.734 50.5881V49.8984L166.906 47.4844V48.5189L170.355 50.2432L171.734 50.5881Z" fill="#252525"/>
<path d="M171.734 49.9002V50.5899L166.906 53.0039V51.9693L170.355 50.245L171.734 49.9002Z" fill="#252525"/>
</svg>