<svg width="8" height="8" viewBox="0 0 8 8" fill="none" xmlns="http://www.w3.org/2000/svg">
<g clip-path="url(#clip0_10729_20982)">
<path d="M6.62983 0.235298C6.94209 -0.0772753 7.44977 -0.0786063 7.76361 0.232368C8.07745 0.543457 8.07885 1.04964 7.76654 1.36225L5.1308 3.99995L7.76654 6.63764C8.07885 6.95025 8.07745 7.45644 7.76361 7.76752C7.44977 8.0785 6.94209 8.07717 6.62983 7.7646L3.99994 5.13178L1.37006 7.7646C1.05779 8.07717 0.550115 8.0785 0.236271 7.76752C-0.0775642 7.45644 -0.0789653 6.95025 0.233341 6.63764L2.86811 3.99995L0.233341 1.36225C-0.0789652 1.04964 -0.0775645 0.543457 0.236271 0.232368C0.550115 -0.0786063 1.05779 -0.0772753 1.37006 0.235298L3.99994 2.86713L6.62983 0.235298Z" fill="#9B9B9B"/>
</g>
<defs>
<clipPath id="clip0_10729_20982">
<rect width="8" height="8" fill="white"/>
</clipPath>
</defs>
</svg>
