<svg width="20" height="20" viewBox="0 0 20 20" fill="none" xmlns="http://www.w3.org/2000/svg">
<path fill-rule="evenodd" clip-rule="evenodd" d="M16 6.5H4C3.72386 6.5 3.5 6.72386 3.5 7V13C3.5 13.2761 3.72386 13.5 4 13.5H16C16.2761 13.5 16.5 13.2761 16.5 13V7C16.5 6.72386 16.2761 6.5 16 6.5ZM4 5C2.89543 5 2 5.89543 2 7V13C2 14.1046 2.89543 15 4 15H16C17.1046 15 18 14.1046 18 13V7C18 5.89543 17.1046 5 16 5H4Z" fill="#ACA996"/>
<path d="M10 6.5C9.58579 6.5 9.25 6.16421 9.25 5.75V2.75C9.25 2.33579 9.58579 2 10 2C10.4142 2 10.75 2.33579 10.75 2.75V5.75C10.75 6.16421 10.4142 6.5 10 6.5Z" fill="#ACA996"/>
<path d="M10 18C9.58579 18 9.25 17.6642 9.25 17.25V14.25C9.25 13.8358 9.58579 13.5 10 13.5C10.4142 13.5 10.75 13.8358 10.75 14.25V17.25C10.75 17.6642 10.4142 18 10 18Z" fill="#ACA996"/>
</svg>