<svg width="20" height="20" viewBox="0 0 20 20" fill="none" xmlns="http://www.w3.org/2000/svg">
<path fill-rule="evenodd" clip-rule="evenodd" d="M2 4C2 3.58579 2.33579 3.25 2.75 3.25H17.25C17.6642 3.25 18 3.58579 18 4C18 4.41421 17.6642 4.75 17.25 4.75H2.75C2.33579 4.75 2 4.41421 2 4ZM2.75 7.25C2.33579 7.25 2 7.58579 2 8C2 8.41421 2.33579 8.75 2.75 8.75H17.25C17.6642 8.75 18 8.41421 18 8C18 7.58579 17.6642 7.25 17.25 7.25H2.75ZM2.75 15.25C2.33579 15.25 2 15.5858 2 16C2 16.4142 2.33579 16.75 2.75 16.75H17.25C17.6642 16.75 18 16.4142 18 16C18 15.5858 17.6642 15.25 17.25 15.25H2.75ZM2.75 11.25C2.33579 11.25 2 11.5858 2 12C2 12.4142 2.33579 12.75 2.75 12.75H17.25C17.6642 12.75 18 12.4142 18 12C18 11.5858 17.6642 11.25 17.25 11.25H2.75Z" fill="#B6B6B6"/>
</svg>
