<svg width="20" height="20" viewBox="0 0 20 20" fill="none" xmlns="http://www.w3.org/2000/svg">
<path fill-rule="evenodd" clip-rule="evenodd" d="M16 6.5H7C6.72386 6.5 6.5 6.72386 6.5 7V13C6.5 13.2761 6.72386 13.5 7 13.5H16C16.2761 13.5 16.5 13.2761 16.5 13V7C16.5 6.72386 16.2761 6.5 16 6.5ZM7 5C5.89543 5 5 5.89543 5 7V13C5 14.1046 5.89543 15 7 15H16C17.1046 15 18 14.1046 18 13V7C18 5.89543 17.1046 5 16 5H7Z" fill="#ACA996"/>
<path d="M2.75 18C2.33579 18 2 17.6642 2 17.25L2 2.75C2 2.33579 2.33579 2 2.75 2C3.16421 2 3.5 2.33579 3.5 2.75L3.5 17.25C3.5 17.6642 3.16421 18 2.75 18Z" fill="#ACA996"/>
</svg>