<svg width="20" height="20" viewBox="0 0 20 20" fill="none" xmlns="http://www.w3.org/2000/svg">
<path fill-rule="evenodd" clip-rule="evenodd" d="M4 6.5H13C13.2761 6.5 13.5 6.72386 13.5 7V13C13.5 13.2761 13.2761 13.5 13 13.5H4C3.72386 13.5 3.5 13.2761 3.5 13V7C3.5 6.72386 3.72386 6.5 4 6.5ZM13 5C14.1046 5 15 5.89543 15 7V13C15 14.1046 14.1046 15 13 15H4C2.89543 15 2 14.1046 2 13V7C2 5.89543 2.89543 5 4 5H13Z" fill="#ACA996"/>
<path d="M17.25 18C17.6642 18 18 17.6642 18 17.25V2.75C18 2.33579 17.6642 2 17.25 2C16.8358 2 16.5 2.33579 16.5 2.75V17.25C16.5 17.6642 16.8358 18 17.25 18Z" fill="#ACA996"/>
</svg>