<svg width="20" height="20" viewBox="0 0 20 20" fill="none" xmlns="http://www.w3.org/2000/svg">
<path fill-rule="evenodd" clip-rule="evenodd" d="M10 18C14.4183 18 18 14.4183 18 10C18 5.58172 14.4183 2 10 2C5.58172 2 2 5.58172 2 10C2 14.4183 5.58172 18 10 18ZM7.49456 9.25C8.04342 9.25 8.48835 8.69036 8.48835 8C8.48835 7.30964 8.04342 6.75 7.49456 6.75C6.94571 6.75 6.50077 7.30964 6.50077 8C6.50077 8.69036 6.94571 9.25 7.49456 9.25ZM12.5008 9.25C13.0531 9.25 13.5008 8.69036 13.5008 8C13.5008 7.30964 13.0531 6.75 12.5008 6.75C11.9485 6.75 11.5008 7.30964 11.5008 8C11.5008 8.69036 11.9485 9.25 12.5008 9.25ZM14.7293 11.6277C14.8174 11.3717 14.5674 11.1425 14.3059 11.2123C13.475 11.4341 11.9484 11.7505 10 11.7505C8.05704 11.7707 6.5335 11.4501 5.70113 11.2217C5.4383 11.1496 5.18491 11.3797 5.27409 11.6372C5.95196 13.5948 7.81185 15.0005 10 15.0005C12.1918 15.0005 14.0542 13.5902 14.7293 11.6277Z" fill="#dfddd3"/>
</svg>