<svg width="20" height="20" viewBox="0 0 20 20" fill="none" xmlns="http://www.w3.org/2000/svg">
<path d="M3 15.625C3 15.4179 3.16789 15.25 3.375 15.25H16.625C16.8321 15.25 17 15.4179 17 15.625V16.375C17 16.5821 16.8321 16.75 16.625 16.75H3.375C3.16789 16.75 3 16.5821 3 16.375V15.625Z" fill="#a09f92"/>
<path d="M3 11.625C3 11.4179 3.16789 11.25 3.375 11.25H16.625C16.8321 11.25 17 11.4179 17 11.625V12.375C17 12.5821 16.8321 12.75 16.625 12.75H3.375C3.16789 12.75 3 12.5821 3 12.375V11.625Z" fill="#a09f92"/>
<path d="M11 7.625C11 7.41789 11.1679 7.25 11.375 7.25H16.625C16.8321 7.25 17 7.41789 17 7.625V8.375C17 8.58211 16.8321 8.75 16.625 8.75H11.375C11.1679 8.75 11 8.58211 11 8.375V7.625Z" fill="#a09f92"/>
<path d="M11 3.625C11 3.41789 11.1679 3.25 11.375 3.25H16.625C16.8321 3.25 17 3.41789 17 3.625V4.375C17 4.58211 16.8321 4.75 16.625 4.75H11.375C11.1679 4.75 11 4.58211 11 4.375V3.625Z" fill="#a09f92"/>
<path d="M3 4.25C3 3.55964 3.55964 3 4.25 3H7.75C8.44036 3 9 3.55964 9 4.25V7.75C9 8.44036 8.44036 9 7.75 9H4.25C3.55964 9 3 8.44036 3 7.75V4.25Z" fill="#a09f92"/>
</svg>
