<svg width="641" height="208" viewBox="0 0 641 208" fill="none" xmlns="http://www.w3.org/2000/svg">
	<path fill-rule="evenodd" clip-rule="evenodd" d="M381.501 71.0301L465.874 23.0312C466.168 23.6326 466.5 24.2127 466.865 24.7687L382.518 72.7523C382.215 72.1557 381.874 71.5806 381.501 71.0301ZM497.8 67.1914L484.769 31.3547C485.413 31.1654 486.04 30.9367 486.648 30.6712L499.683 66.5158C499.048 66.7257 498.42 66.951 497.8 67.1914ZM473.055 96.4796L384.16 81.715C384.089 82.3854 383.976 83.0435 383.824 83.6866L472.706 98.4489C472.806 97.787 472.923 97.1304 473.055 96.4796ZM472.327 106.99L284.053 125.818C284.172 126.465 284.239 127.13 284.249 127.808L472.499 108.983C472.426 108.324 472.368 107.659 472.327 106.99ZM479.428 127.37L431.632 163.217C432.058 163.729 432.459 164.263 432.833 164.816L480.614 128.981C480.205 128.454 479.81 127.917 479.428 127.37ZM525.141 142.379L539.222 181.103C539.824 180.825 540.452 180.595 541.102 180.419L527.018 141.687C526.4 141.933 525.774 142.164 525.141 142.379ZM551.261 113.385L608.425 125.635C608.523 124.968 608.663 124.315 608.842 123.679L551.654 111.424C551.539 112.083 551.408 112.737 551.261 113.385ZM544.61 80.9833L599.285 39.9772C598.842 39.4796 598.44 38.9449 598.084 38.3782L543.393 79.3961C543.812 79.9147 544.217 80.4439 544.61 80.9833ZM99.3965 27.5849C100.047 27.4088 100.675 27.1794 101.276 26.9017L115.519 66.0702C114.886 66.2828 114.259 66.5109 113.64 66.7539L99.3965 27.5849ZM160.841 80.804C160.454 80.2607 160.053 79.7276 159.64 79.205L207.667 43.1845C208.041 43.738 208.442 44.2717 208.868 44.7838L160.841 80.804ZM242.89 39.2674C243.131 38.6492 243.342 38.0161 243.522 37.3699L353.414 74.0006C353.165 74.615 352.954 75.2484 352.782 75.898L242.89 39.2674ZM352.262 80.5928C352.286 81.2677 352.352 81.932 352.458 82.5831L168.141 101.015C168.092 100.347 168.026 99.6831 167.944 99.0245L352.262 80.5928ZM397.611 168.736L283.914 130.837C283.755 131.492 283.543 132.126 283.281 132.734L396.979 170.634C397.159 169.987 397.37 169.354 397.611 168.736ZM260.636 124.974C260.47 125.612 260.356 126.27 260.297 126.945L167.542 111.539C167.666 110.887 167.775 110.229 167.867 109.566L260.636 124.974ZM140.978 141.934C141.612 141.722 142.239 141.494 142.858 141.251L155.73 176.649C155.086 176.839 154.458 177.067 153.85 177.333L140.978 141.934ZM144.527 189.026C144.405 189.675 144.322 190.337 144.281 191.011L43.9955 178.475C44.1305 177.831 44.2139 177.168 44.2411 176.491L144.527 189.026ZM42.4167 169.622C42.0605 169.056 41.6581 168.521 41.215 168.024L95.6561 127.193C96.0434 127.736 96.4439 128.269 96.8572 128.792L42.4167 169.622ZM89.3624 94.598C89.2068 95.2439 89.0668 95.8959 88.943 96.5536L31.6895 84.2178C31.8633 83.5798 31.9986 82.9259 32.0928 82.2588L89.3624 94.598Z" fill="white"/>
	<path d="M108.25 16C108.25 22.6274 102.877 28 96.25 28C89.6226 28 84.25 22.6274 84.25 16C84.25 9.37258 89.6226 4 96.25 4C102.877 4 108.25 9.37258 108.25 16Z" fill="white"/>
	<path d="M244.75 32C244.75 43.0457 235.796 52 224.75 52C213.704 52 204.75 43.0457 204.75 32C204.75 20.9543 213.704 12 224.75 12C235.796 12 244.75 20.9543 244.75 32Z" fill="white"/>
	<path d="M284.25 128C284.25 134.627 278.877 140 272.25 140C265.623 140 260.25 134.627 260.25 128C260.25 121.373 265.623 116 272.25 116C278.877 116 284.25 121.373 284.25 128Z" fill="white"/>
	<path d="M44.25 176C44.25 182.627 38.8774 188 32.25 188C25.6226 188 20.25 182.627 20.25 176C20.25 169.373 25.6226 164 32.25 164C38.8774 164 44.25 169.373 44.25 176Z" fill="white"/>
	<path d="M176.25 192C176.25 200.837 169.087 208 160.25 208C151.413 208 144.25 200.837 144.25 192C144.25 183.163 151.413 176 160.25 176C169.087 176 176.25 183.163 176.25 192Z" fill="white"/>
	<path d="M32.25 80C32.25 88.8366 25.0866 96 16.25 96C7.41344 96 0.25 88.8366 0.25 80C0.25 71.1634 7.41344 64 16.25 64C25.0866 64 32.25 71.1634 32.25 80Z" fill="white"/>
	<path fill-rule="evenodd" clip-rule="evenodd" d="M168.25 104C168.25 126.091 150.341 144 128.25 144C106.159 144 88.25 126.091 88.25 104C88.25 81.9086 106.159 64 128.25 64C150.341 64 168.25 81.9086 168.25 104ZM118.25 92V88H120.25V92H118.25ZM136.25 88V92H138.25V88H136.25ZM142.379 112H128.25V114H146.121L135.085 97.4887C136.079 97.8204 137.144 98 138.25 98C143.773 98 148.25 93.5228 148.25 88C148.25 82.4772 143.773 78 138.25 78C132.727 78 128.25 82.4772 128.25 88C128.25 90.5536 129.207 92.8837 130.782 94.651L142.379 112ZM128.25 129C123.955 129 119.714 126.847 116.567 123.708C113.42 120.569 111.25 116.328 111.25 112H113.25C113.25 115.672 115.111 119.431 117.98 122.292C120.849 125.154 124.608 127 128.25 127V129ZM138.25 96C133.832 96 130.25 92.4183 130.25 88C130.25 83.5817 133.832 80 138.25 80C142.668 80 146.25 83.5817 146.25 88C146.25 92.4183 142.668 96 138.25 96ZM110.25 88C110.25 92.4183 113.832 96 118.25 96C122.668 96 126.25 92.4183 126.25 88C126.25 83.5817 122.668 80 118.25 80C113.832 80 110.25 83.5817 110.25 88ZM108.25 88C108.25 93.5228 112.727 98 118.25 98C123.773 98 128.25 93.5228 128.25 88C128.25 82.4772 123.773 78 118.25 78C112.727 78 108.25 82.4772 108.25 88Z" fill="white"/>
	<path fill-rule="evenodd" clip-rule="evenodd" d="M544.25 182C538.727 182 534.25 186.477 534.25 192C534.25 197.523 538.727 202 544.25 202C549.773 202 554.25 197.523 554.25 192C554.25 186.477 549.773 182 544.25 182ZM544.25 180C537.623 180 532.25 185.373 532.25 192C532.25 198.627 537.623 204 544.25 204C550.877 204 556.25 198.627 556.25 192C556.25 185.373 550.877 180 544.25 180Z" fill="white"/>
	<path fill-rule="evenodd" clip-rule="evenodd" d="M608.25 22C602.727 22 598.25 26.4772 598.25 32C598.25 37.5228 602.727 42 608.25 42C613.773 42 618.25 37.5228 618.25 32C618.25 26.4772 613.773 22 608.25 22ZM608.25 20C601.623 20 596.25 25.3726 596.25 32C596.25 38.6274 601.623 44 608.25 44C614.877 44 620.25 38.6274 620.25 32C620.25 25.3726 614.877 20 608.25 20Z" fill="white"/>
	<path fill-rule="evenodd" clip-rule="evenodd" d="M415.75 158C405.809 158 397.75 166.059 397.75 176C397.75 185.941 405.809 194 415.75 194C425.691 194 433.75 185.941 433.75 176C433.75 166.059 425.691 158 415.75 158ZM415.75 156C404.704 156 395.75 164.954 395.75 176C395.75 187.046 404.704 196 415.75 196C426.796 196 435.75 187.046 435.75 176C435.75 164.954 426.796 156 415.75 156Z" fill="white"/>
	<path fill-rule="evenodd" clip-rule="evenodd" d="M368.25 66C360.518 66 354.25 72.268 354.25 80C354.25 87.732 360.518 94 368.25 94C375.982 94 382.25 87.732 382.25 80C382.25 72.268 375.982 66 368.25 66ZM368.25 64C359.413 64 352.25 71.1634 352.25 80C352.25 88.8366 359.413 96 368.25 96C377.087 96 384.25 88.8366 384.25 80C384.25 71.1634 377.087 64 368.25 64Z" fill="white"/>
	<path fill-rule="evenodd" clip-rule="evenodd" d="M624.25 114C616.518 114 610.25 120.268 610.25 128C610.25 135.732 616.518 142 624.25 142C631.982 142 638.25 135.732 638.25 128C638.25 120.268 631.982 114 624.25 114ZM624.25 112C615.413 112 608.25 119.163 608.25 128C608.25 136.837 615.413 144 624.25 144C633.087 144 640.25 136.837 640.25 128C640.25 119.163 633.087 112 624.25 112Z" fill="white"/>
	<path fill-rule="evenodd" clip-rule="evenodd" d="M480.25 2C472.518 2 466.25 8.26801 466.25 16C466.25 23.732 472.518 30 480.25 30C487.982 30 494.25 23.732 494.25 16C494.25 8.26801 487.982 2 480.25 2ZM480.25 0C471.413 0 464.25 7.16344 464.25 16C464.25 24.8366 471.413 32 480.25 32C489.087 32 496.25 24.8366 496.25 16C496.25 7.16344 489.087 0 480.25 0Z" fill="white"/>
	<path fill-rule="evenodd" clip-rule="evenodd" d="M512.25 144C490.159 144 472.25 126.091 472.25 104C472.25 81.9086 490.159 64 512.25 64C534.341 64 552.25 81.9086 552.25 104C552.25 126.091 534.341 144 512.25 144ZM522.25 88V84H520.25V88H522.25ZM504.25 88V84H502.25V88H504.25ZM512.25 98C509.669 98 507.374 98.734 505.752 99.8695C504.127 101.007 503.25 102.483 503.25 104C503.25 105.517 504.127 106.993 505.752 108.131C507.374 109.266 509.669 110 512.25 110V112C509.309 112 506.603 111.167 504.605 109.769C502.611 108.373 501.25 106.349 501.25 104C501.25 101.651 502.611 99.6269 504.605 98.231C506.603 96.833 509.309 96 512.25 96V98ZM512.25 127C520.534 127 527.25 120.284 527.25 112H529.25C529.25 121.389 521.639 129 512.25 129V127Z" fill="white"/>
</svg>
