<svg width="40" height="40" viewBox="0 0 40 40" fill="none" xmlns="http://www.w3.org/2000/svg">
<path d="M0 8C0 3.58172 3.58172 0 8 0H32C36.4183 0 40 3.58172 40 8V32C40 36.4183 36.4183 40 32 40H8C3.58172 40 0 36.4183 0 32V8Z" fill="#FFEE94"/>
<path fill-rule="evenodd" clip-rule="evenodd" d="M16.5 12.5H12.5C11.9477 12.5 11.5 12.9477 11.5 13.5V16.5C11.5 17.0523 11.9477 17.5 12.5 17.5H16.5C17.0523 17.5 17.5 17.0523 17.5 16.5V13.5C17.5 12.9477 17.0523 12.5 16.5 12.5ZM12.5 11C11.1193 11 10 12.1193 10 13.5V16.5C10 17.8807 11.1193 19 12.5 19H16.5C17.8807 19 19 17.8807 19 16.5V13.5C19 12.1193 17.8807 11 16.5 11H12.5Z" fill="#E88B00"/>
<path fill-rule="evenodd" clip-rule="evenodd" d="M16.5 22.5H12.5C11.9477 22.5 11.5 22.9477 11.5 23.5V26.5C11.5 27.0523 11.9477 27.5 12.5 27.5H16.5C17.0523 27.5 17.5 27.0523 17.5 26.5V23.5C17.5 22.9477 17.0523 22.5 16.5 22.5ZM12.5 21C11.1193 21 10 22.1193 10 23.5V26.5C10 27.8807 11.1193 29 12.5 29H16.5C17.8807 29 19 27.8807 19 26.5V23.5C19 22.1193 17.8807 21 16.5 21H12.5Z" fill="#E88B00"/>
<path fill-rule="evenodd" clip-rule="evenodd" d="M27.5 22.5H23.5C22.9477 22.5 22.5 22.9477 22.5 23.5V26.5C22.5 27.0523 22.9477 27.5 23.5 27.5H27.5C28.0523 27.5 28.5 27.0523 28.5 26.5V23.5C28.5 22.9477 28.0523 22.5 27.5 22.5ZM23.5 21C22.1193 21 21 22.1193 21 23.5V26.5C21 27.8807 22.1193 29 23.5 29H27.5C28.8807 29 30 27.8807 30 26.5V23.5C30 22.1193 28.8807 21 27.5 21H23.5Z" fill="#E88B00"/>
<path fill-rule="evenodd" clip-rule="evenodd" d="M27.5 12.5H23.5C22.9477 12.5 22.5 12.9477 22.5 13.5V16.5C22.5 17.0523 22.9477 17.5 23.5 17.5H27.5C28.0523 17.5 28.5 17.0523 28.5 16.5V13.5C28.5 12.9477 28.0523 12.5 27.5 12.5ZM23.5 11C22.1193 11 21 12.1193 21 13.5V16.5C21 17.8807 22.1193 19 23.5 19H27.5C28.8807 19 30 17.8807 30 16.5V13.5C30 12.1193 28.8807 11 27.5 11H23.5Z" fill="#E88B00"/>
</svg>