<svg width="40" height="40" viewBox="0 0 40 40" fill="none" xmlns="http://www.w3.org/2000/svg">
<path d="M0 8C0 3.58172 3.58172 0 8 0H32C36.4183 0 40 3.58172 40 8V32C40 36.4183 36.4183 40 32 40H8C3.58172 40 0 36.4183 0 32V8Z" fill="#FFEE94"/>
<path fill-rule="evenodd" clip-rule="evenodd" d="M27 12.5H13C12.1716 12.5 11.5 13.1716 11.5 14V26C11.5 26.8284 12.1716 27.5 13 27.5H27C27.8284 27.5 28.5 26.8284 28.5 26V14C28.5 13.1716 27.8284 12.5 27 12.5ZM13 11C11.3431 11 10 12.3431 10 14V26C10 27.6569 11.3431 29 13 29H27C28.6569 29 30 27.6569 30 26V14C30 12.3431 28.6569 11 27 11H13Z" fill="#E88B00"/>
<path d="M15.5039 12H17.0039V28H15.5039V12Z" fill="#E88B00"/>
<path d="M11 17.9375V16.4375H29V17.9375H11Z" fill="#E88B00"/>
<path d="M11 23.4688V21.9688H29V23.4688H11Z" fill="#E88B00"/>
</svg>