<svg width="40" height="40" viewBox="0 0 40 40" fill="none" xmlns="http://www.w3.org/2000/svg">
<path d="M0 8C0 3.58172 3.58172 0 8 0H32C36.4183 0 40 3.58172 40 8V32C40 36.4183 36.4183 40 32 40H8C3.58172 40 0 36.4183 0 32V8Z" fill="#FFEE94"/>
<path d="M10 20C10 19.5858 10.3358 19.25 10.75 19.25H23.7955C24.2097 19.25 24.5455 19.5858 24.5455 20C24.5455 20.4142 24.2097 20.75 23.7955 20.75H10.75C10.3358 20.75 10 20.4142 10 20Z" fill="#E88B00"/>
<path d="M10 13C10 12.5858 10.3358 12.25 10.75 12.25H29.25C29.6642 12.25 30 12.5858 30 13C30 13.4142 29.6642 13.75 29.25 13.75H10.75C10.3358 13.75 10 13.4142 10 13Z" fill="#E88B00"/>
<path d="M10 27C10 26.5858 10.3358 26.25 10.75 26.25H29.25C29.6642 26.25 30 26.5858 30 27C30 27.4142 29.6642 27.75 29.25 27.75H10.75C10.3358 27.75 10 27.4142 10 27Z" fill="#E88B00"/>
</svg>
