<svg xmlns="http://www.w3.org/2000/svg" width="32" height="32" viewBox="0 0 32 32" fill="none">
	<path fill-rule="evenodd" clip-rule="evenodd" d="M3.6001 1.6001C2.49553 1.6001 1.6001 2.49553 1.6001 3.6001V12.4001C1.6001 13.5047 2.49553 14.4001 3.6001 14.4001H12.4001C13.5047 14.4001 14.4001 13.5047 14.4001 12.4001V3.6001C14.4001 2.49553 13.5047 1.6001 12.4001 1.6001H3.6001ZM19.6001 1.6001C18.4955 1.6001 17.6001 2.49553 17.6001 3.6001V12.4001C17.6001 13.5047 18.4955 14.4001 19.6001 14.4001H28.4001C29.5047 14.4001 30.4001 13.5047 30.4001 12.4001V3.6001C30.4001 2.49553 29.5047 1.6001 28.4001 1.6001H19.6001ZM17.6001 19.6001C17.6001 18.4955 18.4955 17.6001 19.6001 17.6001H28.4001C29.5047 17.6001 30.4001 18.4955 30.4001 19.6001V28.4001C30.4001 29.5047 29.5047 30.4001 28.4001 30.4001H19.6001C18.4955 30.4001 17.6001 29.5047 17.6001 28.4001V19.6001ZM3.6001 17.6001C2.49553 17.6001 1.6001 18.4955 1.6001 19.6001V28.4001C1.6001 29.5047 2.49553 30.4001 3.6001 30.4001H12.4001C13.5047 30.4001 14.4001 29.5047 14.4001 28.4001V19.6001C14.4001 18.4955 13.5047 17.6001 12.4001 17.6001H3.6001Z" fill="#E3E3E3"/>
</svg>
