<svg xmlns="http://www.w3.org/2000/svg" width="20" height="20" viewBox="0 0 20 20" fill="none">
	<path fill-rule="evenodd" clip-rule="evenodd" d="M8 16.5C5.51472 16.5 3.5 14.4853 3.5 12C3.5 9.51472 5.51472 7.5 8 7.5C10.4853 7.5 12.5 9.51472 12.5 12C12.5 14.4853 10.4853 16.5 8 16.5ZM8 18C4.68629 18 2 15.3137 2 12C2 8.68629 4.68629 6 8 6C11.3137 6 14 8.68629 14 12C14 15.3137 11.3137 18 8 18Z" fill="#B6B6B6"/>
	<path fill-rule="evenodd" clip-rule="evenodd" d="M9.5 3.5H15.5044C16.0567 3.5 16.5044 3.94772 16.5044 4.5V10.5044C16.5044 11.0567 16.0567 11.5044 15.5044 11.5044H13.9798C13.9932 11.6678 14 11.8331 14 12C14 12.3422 13.9713 12.6778 13.9163 13.0044H15.5044C16.8851 13.0044 18.0044 11.8851 18.0044 10.5044V4.5C18.0044 3.11929 16.8851 2 15.5044 2H9.5C8.11929 2 7 3.11929 7 4.5V6.08296C7.32521 6.0284 7.65929 6 8 6C8.16838 6 8.33513 6.00694 8.5 6.02054V4.5C8.5 3.94772 8.94772 3.5 9.5 3.5Z" fill="#B6B6B6"/>
</svg>
