<svg width="320" height="104" viewBox="0 0 320 104" fill="none" xmlns="http://www.w3.org/2000/svg">
<path fill-rule="evenodd" clip-rule="evenodd" d="M75 37C71.134 37 68 40.134 68 44C68 47.866 71.134 51 75 51H93C96.866 51 100 47.866 100 44C100 40.134 96.866 37 93 37H75ZM91 43H90V45H91V43ZM87 43H88V45H87V43ZM94 43H93V45H94V43Z" fill="#252525"/>
<path fill-rule="evenodd" clip-rule="evenodd" d="M75 53C71.134 53 68 56.134 68 60C68 63.866 71.134 67 75 67H93C96.866 67 100 63.866 100 60C100 56.134 96.866 53 93 53H75ZM91 59H90V61H91V59ZM87 59H88V61H87V59ZM94 59H93V61H94V59Z" fill="#252525"/>
<path d="M232 52C232 48.6863 229.314 46 226 46C222.686 46 220 48.6863 220 52C220 55.3137 222.686 58 226 58C229.314 58 232 55.3137 232 52Z" fill="black"/>
<path d="M248 43C248 39.6863 245.314 37 242 37C238.686 37 236 39.6863 236 43C236 46.3137 238.686 49 242 49C245.314 49 248 46.3137 248 43Z" fill="black"/>
<path d="M248 61C248 57.6863 245.314 55 242 55C238.686 55 236 57.6863 236 61C236 64.3137 238.686 67 242 67C245.314 67 248 64.3137 248 61Z" fill="black"/>
<path fill-rule="evenodd" clip-rule="evenodd" d="M188 1H132C125.925 1 121 5.92487 121 12V92C121 98.0751 125.925 103 132 103H188C194.075 103 199 98.0751 199 92V12C199 5.92487 194.075 1 188 1ZM132 0C125.373 0 120 5.37259 120 12V92C120 98.6274 125.373 104 132 104H188C194.627 104 200 98.6274 200 92V12C200 5.37258 194.627 0 188 0H132Z" fill="#252525"/>
<path fill-rule="evenodd" clip-rule="evenodd" d="M102 17H66C61.0294 17 57 21.0294 57 26V78C57 82.9706 61.0294 87 66 87H102C106.971 87 111 82.9706 111 78V26C111 21.0294 106.971 17 102 17ZM66 16C60.4772 16 56 20.4772 56 26V78C56 83.5229 60.4772 88 66 88H102C107.523 88 112 83.5229 112 78V26C112 20.4772 107.523 16 102 16H66Z" fill="#252525"/>
<path fill-rule="evenodd" clip-rule="evenodd" d="M254 16.625H218C213.029 16.625 209 20.6544 209 25.625V77.625C209 82.5956 213.029 86.625 218 86.625H254C258.971 86.625 263 82.5956 263 77.625V25.625C263 20.6544 258.971 16.625 254 16.625ZM218 15.625C212.477 15.625 208 20.1022 208 25.625V77.625C208 83.1479 212.477 87.625 218 87.625H254C259.523 87.625 264 83.1479 264 77.625V25.625C264 20.1022 259.523 15.625 254 15.625H218Z" fill="#252525"/>
<path fill-rule="evenodd" clip-rule="evenodd" d="M40 23H8C4.13401 23 1 26.134 1 30V74C1 77.866 4.13401 81 8 81H40C43.866 81 47 77.866 47 74V30C47 26.134 43.866 23 40 23ZM8 22C3.58172 22 0 25.5817 0 30V74C0 78.4183 3.58172 82 8 82H40C44.4183 82 48 78.4183 48 74V30C48 25.5817 44.4183 22 40 22H8Z" fill="#252525"/>
<path d="M136 69H184V70H136V69Z" fill="black"/>
<path fill-rule="evenodd" clip-rule="evenodd" d="M136 69V70H184V69H136Z" fill="#252525"/>
<path d="M136 77H184V78H136V77Z" fill="black"/>
<path fill-rule="evenodd" clip-rule="evenodd" d="M136 77V78H184V77H136Z" fill="#252525"/>
<path d="M148 85H172V86H148V85Z" fill="black"/>
<path fill-rule="evenodd" clip-rule="evenodd" d="M148 85V86H172V85H148Z" fill="#252525"/>
<path fill-rule="evenodd" clip-rule="evenodd" d="M312 22.625H280C276.134 22.625 273 25.759 273 29.625V73.625C273 77.491 276.134 80.625 280 80.625H312C315.866 80.625 319 77.491 319 73.625V29.625C319 25.759 315.866 22.625 312 22.625ZM280 21.625C275.582 21.625 272 25.2067 272 29.625V73.625C272 78.0433 275.582 81.625 280 81.625H312C316.418 81.625 320 78.0433 320 73.625V29.625C320 25.2067 316.418 21.625 312 21.625H280Z" fill="#252525"/>
<path fill-rule="evenodd" clip-rule="evenodd" d="M308 52C308 58.6274 302.627 64 296 64C289.373 64 284 58.6274 284 52C284 45.3726 289.373 40 296 40C302.627 40 308 45.3726 308 52ZM295.5 51.5V46H296.5V51.5H302V52.5H296.5V58H295.5V52.5H290V51.5H295.5Z" fill="black"/>
<path d="M36 51.8125C36 58.4054 30.6554 63.75 24.0625 63.75C17.4696 63.75 12.125 58.4054 12.125 51.8125C12.125 45.2196 17.4696 39.875 24.0625 39.875C30.6554 39.875 36 45.2196 36 51.8125Z" fill="black"/>
<path d="M32 52L34 66L21 59L32 52Z" fill="black"/>
<path fill-rule="evenodd" clip-rule="evenodd" d="M160.391 58C149.345 58 140.391 49.0457 140.391 38C140.391 26.9543 149.345 18 160.391 18C171.436 18 180.391 26.9543 180.391 38C180.391 49.0457 171.436 58 160.391 58ZM165.391 30V32H164.391V30H165.391ZM156.391 32V30H155.391V32H156.391ZM159.391 30C159.391 32.2091 157.6 34 155.391 34C153.181 34 151.391 32.2091 151.391 30C151.391 27.7909 153.181 26 155.391 26C157.6 26 159.391 27.7909 159.391 30ZM156.958 34.7495C156.465 34.9121 155.938 35 155.391 35C152.629 35 150.391 32.7614 150.391 30C150.391 27.2386 152.629 25 155.391 25C158.152 25 160.391 27.2386 160.391 30C160.391 31.2774 159.912 32.443 159.123 33.3268L153.274 42H160.391V43H151.393L156.958 34.7495ZM165.391 35C162.629 35 160.391 32.7614 160.391 30C160.391 27.2386 162.629 25 165.391 25C168.152 25 170.391 27.2386 170.391 30C170.391 32.7614 168.152 35 165.391 35ZM166.232 47.8542C164.659 49.4234 162.538 50.5002 160.391 50.5002V49.5002C162.212 49.5002 164.091 48.577 165.526 47.1461C166.96 45.7155 167.891 43.8362 167.891 42H168.891C168.891 44.1639 167.805 46.2847 166.232 47.8542ZM165.391 34C167.6 34 169.391 32.2091 169.391 30C169.391 27.7909 167.6 26 165.391 26C163.181 26 161.391 27.7909 161.391 30C161.391 32.2091 163.181 34 165.391 34Z" fill="black"/>
</svg>
