<svg width="320" height="104" viewBox="0 0 320 104" fill="none" xmlns="http://www.w3.org/2000/svg">
<path fill-rule="evenodd" clip-rule="evenodd" d="M280 76C280 87.0457 288.954 96 300 96C311.046 96 320 87.0457 320 76C320 64.9543 311.046 56 300 56C288.954 56 280 64.9543 280 76ZM305 68V66H304V68H305ZM296 66V68H295V66H296ZM296.751 73.9347C297.562 73.367 298.709 73 300 73V72C298.529 72 297.176 72.4165 296.178 73.1155C295.181 73.8134 294.5 74.8256 294.5 76C294.5 77.1744 295.181 78.1866 296.178 78.8845C297.176 79.5835 298.529 80 300 80V79C298.709 79 297.562 78.633 296.751 78.0653C295.939 77.4964 295.5 76.7586 295.5 76C295.5 75.2414 295.939 74.5036 296.751 73.9347ZM307.5 80C307.5 84.1421 304.142 87.5 300 87.5V88.5C304.694 88.5 308.5 84.6944 308.5 80H307.5Z" fill="#252525"/>
<path fill-rule="evenodd" clip-rule="evenodd" d="M204 17H116C109.925 17 105 21.9249 105 28V76C105 82.0751 109.925 87 116 87H204C210.075 87 215 82.0751 215 76V28C215 21.9249 210.075 17 204 17ZM116 16C109.373 16 104 21.3726 104 28V76C104 82.6274 109.373 88 116 88H204C210.627 88 216 82.6274 216 76V28C216 21.3726 210.627 16 204 16H116Z" fill="#252525"/>
<path fill-rule="evenodd" clip-rule="evenodd" d="M178 1H142C135.925 1 131 5.92487 131 12V92C131 98.0751 135.925 103 142 103H178C184.075 103 189 98.0751 189 92V12C189 5.92487 184.075 1 178 1ZM142 0C135.373 0 130 5.37259 130 12V92C130 98.6274 135.373 104 142 104H178C184.627 104 190 98.6274 190 92V12C190 5.37258 184.627 0 178 0H142Z" fill="#252525"/>
<path fill-rule="evenodd" clip-rule="evenodd" d="M40 52C40 63.0457 31.0457 72 20 72C8.9543 72 0 63.0457 0 52C0 40.9543 8.9543 32 20 32C31.0457 32 40 40.9543 40 52ZM15 46V44H16V46H15ZM24 44V46H25V44H24ZM27.0644 56H20V57H28.9356L23.4174 48.7444C23.9147 48.9102 24.4469 49 25 49C27.7614 49 30 46.7614 30 44C30 41.2386 27.7614 39 25 39C22.2386 39 20 41.2386 20 44C20 45.2768 20.4786 46.4418 21.2662 47.3255L27.0644 56ZM20 64.5002C17.8524 64.5002 15.7319 63.4234 14.1586 61.8542C12.5851 60.2847 11.5 58.1639 11.5 56H12.5C12.5 57.8362 13.4305 59.7155 14.8648 61.1461C16.2993 62.577 18.1788 63.5002 20 63.5002V64.5002ZM25 48C22.7909 48 21 46.2091 21 44C21 41.7909 22.7909 40 25 40C27.2091 40 29 41.7909 29 44C29 46.2091 27.2091 48 25 48ZM11 44C11 46.2091 12.7909 48 15 48C17.2091 48 19 46.2091 19 44C19 41.7909 17.2091 40 15 40C12.7909 40 11 41.7909 11 44ZM10 44C10 46.7614 12.2386 49 15 49C17.7614 49 20 46.7614 20 44C20 41.2386 17.7614 39 15 39C12.2386 39 10 41.2386 10 44Z" fill="#252525"/>
<path fill-rule="evenodd" clip-rule="evenodd" d="M151 32C144.925 32 140 36.9249 140 43V61C140 67.0751 144.925 72 151 72H169C175.075 72 180 67.0751 180 61V43C180 36.9249 175.075 32 169 32H151ZM160 63.75C153.649 63.75 148.5 58.6013 148.5 52.25H147.5C147.5 59.1536 153.096 64.75 160 64.75C166.904 64.75 172.5 59.1536 172.5 52.25H171.5C171.5 58.6013 166.351 63.75 160 63.75ZM154.5 46.25V43.25H155.5V46.25H154.5ZM164.5 43.25V46.25H165.5V43.25H164.5Z" fill="#252525"/>
<path fill-rule="evenodd" clip-rule="evenodd" d="M280 28C280 39.0457 288.954 48 300 48C311.046 48 320 39.0457 320 28C320 16.9543 311.046 8 300 8C288.954 8 280 16.9543 280 28ZM305 20V18H304V20H305ZM296 18V20H295V18H296ZM295.511 31.0006C295.647 27.7571 297.111 24.1792 300.291 21.9075L299.71 21.0938C296.055 23.7046 294.5 27.8708 294.5 31.5006V32.0006H300V31.0006H295.511ZM307.5 32C307.5 36.1421 304.142 39.5 300 39.5V40.5C304.694 40.5 308.5 36.6944 308.5 32H307.5Z" fill="#252525"/>
<path fill-rule="evenodd" clip-rule="evenodd" d="M256 39C264.284 39 271 32.2843 271 24C271 15.7157 264.284 9 256 9C255.302 9 254.615 9.04767 253.943 9.13993C253.314 8.88824 252.665 8.6753 252 8.50407C253.278 8.17501 254.619 8 256 8C264.837 8 272 15.1634 272 24C272 32.8366 264.837 40 256 40C254.619 40 253.278 39.825 252 39.4959C252.665 39.3247 253.314 39.1118 253.943 38.8601C254.615 38.9523 255.302 39 256 39Z" fill="#252525"/>
<path fill-rule="evenodd" clip-rule="evenodd" d="M256 40C264.837 40 272 32.8366 272 24C272 15.1634 264.837 8 256 8C255.346 8 254.702 8.03921 254.068 8.1154C253.364 8.20018 252.673 8.33076 252 8.50407C252.665 8.67528 253.314 8.88818 253.942 9.13984C253.942 9.13987 253.943 9.1399 253.943 9.13993C254.459 9.06909 254.984 9.02453 255.516 9.00766C255.677 9.00257 255.838 9 256 9C264.284 9 271 15.7157 271 24C271 32.2843 264.284 39 256 39C255.795 39 255.591 38.9959 255.388 38.9877C254.9 38.9682 254.418 38.9252 253.943 38.8601C253.943 38.8601 253.942 38.8601 253.942 38.8602C253.314 39.1118 252.665 39.3247 252 39.4959C252.673 39.6692 253.364 39.7998 254.068 39.8846C254.522 39.9391 254.981 39.9747 255.445 39.9905C255.629 39.9968 255.814 40 256 40Z" fill="#252525"/>
<path fill-rule="evenodd" clip-rule="evenodd" d="M248 39C256.284 39 263 32.2843 263 24C263 15.7157 256.284 9 248 9C247.302 9 246.615 9.04767 245.943 9.13993C245.314 8.88824 244.665 8.6753 244 8.50407C245.278 8.17501 246.619 8 248 8C256.837 8 264 15.1634 264 24C264 32.8366 256.837 40 248 40C246.619 40 245.278 39.825 244 39.4959C244.665 39.3247 245.314 39.1118 245.943 38.8601C246.615 38.9523 247.302 39 248 39Z" fill="#252525"/>
<path fill-rule="evenodd" clip-rule="evenodd" d="M248 40C256.837 40 264 32.8366 264 24C264 15.1634 256.837 8 248 8C247.346 8 246.702 8.03921 246.068 8.1154C245.364 8.20018 244.673 8.33076 244 8.50407C244.665 8.67528 245.314 8.88818 245.942 9.13984C245.942 9.13987 245.943 9.1399 245.943 9.13993C246.459 9.06909 246.984 9.02453 247.516 9.00766C247.677 9.00257 247.838 9 248 9C256.284 9 263 15.7157 263 24C263 32.2843 256.284 39 248 39C247.795 39 247.591 38.9959 247.388 38.9877C246.9 38.9682 246.418 38.9252 245.943 38.8601C245.943 38.8601 245.942 38.8601 245.942 38.8602C245.314 39.1118 244.665 39.3247 244 39.4959C244.673 39.6692 245.364 39.7998 246.068 39.8846C246.522 39.9391 246.981 39.9747 247.445 39.9905C247.629 39.9968 247.814 40 248 40Z" fill="#252525"/>
<path fill-rule="evenodd" clip-rule="evenodd" d="M225 24C225 32.2843 231.716 39 240 39C248.284 39 255 32.2843 255 24C255 15.7157 248.284 9 240 9C231.716 9 225 15.7157 225 24ZM240 8C231.163 8 224 15.1634 224 24C224 32.8366 231.163 40 240 40C248.837 40 256 32.8366 256 24C256 15.1634 248.837 8 240 8Z" fill="#252525"/>
<path fill-rule="evenodd" clip-rule="evenodd" d="M233.023 22.4052C233.304 25.5642 235.91 29.1453 240 31C244.09 29.1453 246.696 25.5642 246.977 22.4052C246.992 22.2723 247 22.137 247 22C247 20.067 245.433 18.5 243.5 18.5C241.567 18.5 240 20.067 240 22C240 20.067 238.433 18.5 236.5 18.5C234.567 18.5 233 20.067 233 22C233 22.137 233.008 22.2723 233.023 22.4052Z" fill="#252525"/>
<path fill-rule="evenodd" clip-rule="evenodd" d="M64 63C55.7157 63 49 56.2843 49 48C49 39.7157 55.7157 33 64 33C64.698 33 65.3848 33.0477 66.0574 33.1399C66.6862 32.8882 67.3347 32.6753 68 32.5041C66.7215 32.175 65.3812 32 64 32C55.1634 32 48 39.1634 48 48C48 56.8366 55.1634 64 64 64C65.3812 64 66.7215 63.825 68 63.4959C67.3347 63.3247 66.6862 63.1118 66.0574 62.8601C65.3848 62.9523 64.698 63 64 63Z" fill="#252525"/>
<path fill-rule="evenodd" clip-rule="evenodd" d="M64 64C55.1634 64 48 56.8366 48 48C48 39.1634 55.1634 32 64 32C64.6537 32 65.2983 32.0392 65.9315 32.1154C66.6361 32.2002 67.3266 32.3308 68 32.5041C67.3348 32.6753 66.6864 32.8882 66.0576 33.1398C66.0575 33.1399 66.0575 33.1399 66.0574 33.1399C65.5409 33.0691 65.0161 33.0245 64.4843 33.0077C64.3235 33.0026 64.1621 33 64 33C55.7157 33 49 39.7157 49 48C49 56.2843 55.7157 63 64 63C64.2051 63 64.4092 62.9959 64.6123 62.9877C65.1004 62.9682 65.5824 62.9252 66.0574 62.8601C66.0575 62.8601 66.0575 62.8601 66.0576 62.8602C66.6864 63.1118 67.3348 63.3247 68 63.4959C67.3266 63.6692 66.6361 63.7998 65.9315 63.8846C65.4784 63.9391 65.0195 63.9747 64.5555 63.9905C64.3711 63.9968 64.1859 64 64 64Z" fill="#252525"/>
<path fill-rule="evenodd" clip-rule="evenodd" d="M72 63C63.7157 63 57 56.2843 57 48C57 39.7157 63.7157 33 72 33C72.698 33 73.3848 33.0477 74.0574 33.1399C74.6862 32.8882 75.3347 32.6753 76 32.5041C74.7215 32.175 73.3812 32 72 32C63.1634 32 56 39.1634 56 48C56 56.8366 63.1634 64 72 64C73.3812 64 74.7215 63.825 76 63.4959C75.3347 63.3247 74.6862 63.1118 74.0574 62.8601C73.3848 62.9523 72.698 63 72 63Z" fill="#252525"/>
<path fill-rule="evenodd" clip-rule="evenodd" d="M72 64C63.1634 64 56 56.8366 56 48C56 39.1634 63.1634 32 72 32C72.6537 32 73.2983 32.0392 73.9315 32.1154C74.6361 32.2002 75.3266 32.3308 76 32.5041C75.3348 32.6753 74.6864 32.8882 74.0576 33.1398C74.0575 33.1399 74.0575 33.1399 74.0574 33.1399C73.5409 33.0691 73.0161 33.0245 72.4843 33.0077C72.3235 33.0026 72.1621 33 72 33C63.7157 33 57 39.7157 57 48C57 56.2843 63.7157 63 72 63C72.2051 63 72.4092 62.9959 72.6123 62.9877C73.1004 62.9682 73.5824 62.9252 74.0574 62.8601C74.0575 62.8601 74.0575 62.8601 74.0576 62.8602C74.6864 63.1118 75.3348 63.3247 76 63.4959C75.3266 63.6692 74.6361 63.7998 73.9315 63.8846C73.4784 63.9391 73.0195 63.9747 72.5555 63.9905C72.3711 63.9968 72.1859 64 72 64Z" fill="#252525"/>
<path fill-rule="evenodd" clip-rule="evenodd" d="M65 48C65 56.2843 71.7157 63 80 63C88.2843 63 95 56.2843 95 48C95 39.7157 88.2843 33 80 33C71.7157 33 65 39.7157 65 48ZM80 32C71.1634 32 64 39.1634 64 48C64 56.8366 71.1634 64 80 64C88.8366 64 96 56.8366 96 48C96 39.1634 88.8366 32 80 32Z" fill="#252525"/>
<path d="M77 44.9906V52.9641C77 53.5146 77.4448 53.9615 77.9952 53.9641L84.897 53.997C85.3675 53.9992 85.7759 53.6732 85.878 53.2139L87.4327 46.2178C87.5715 45.5932 87.0963 45.0008 86.4565 45.0008H82C82 45.0008 83 43.5637 83 42.0012C83 40.4012 82.5508 39.6906 81.9922 39.2595C81.4336 38.8284 80.2812 39.006 80.2812 40.0281C80.2734 42.0321 78.9375 43.6414 77 44.9906Z" fill="#252525"/>
<path d="M72 45H76V53C76 53.5523 75.5523 54 75 54H73C72.4477 54 72 53.5523 72 53V45Z" fill="#252525"/>
<path fill-rule="evenodd" clip-rule="evenodd" d="M225 72C225 80.2843 231.716 87 240 87C248.284 87 255 80.2843 255 72C255 63.7157 248.284 57 240 57C231.716 57 225 63.7157 225 72ZM240 56C231.163 56 224 63.1634 224 72C224 80.8366 231.163 88 240 88C248.837 88 256 80.8366 256 72C256 63.1634 248.837 56 240 56Z" fill="#252525"/>
<path fill-rule="evenodd" clip-rule="evenodd" d="M256 87C264.284 87 271 80.2843 271 72C271 63.7157 264.284 57 256 57C255.302 57 254.615 57.0477 253.943 57.1399C253.314 56.8882 252.665 56.6753 252 56.5041C253.278 56.175 254.619 56 256 56C264.837 56 272 63.1634 272 72C272 80.8366 264.837 88 256 88C254.619 88 253.278 87.825 252 87.4959C252.665 87.3247 253.314 87.1118 253.943 86.8601C254.615 86.9523 255.302 87 256 87Z" fill="#252525"/>
<path fill-rule="evenodd" clip-rule="evenodd" d="M256 88C264.837 88 272 80.8366 272 72C272 63.1634 264.837 56 256 56C255.346 56 254.702 56.0392 254.068 56.1154C253.364 56.2002 252.673 56.3308 252 56.5041C252.665 56.6753 253.314 56.8882 253.942 57.1398C253.942 57.1399 253.943 57.1399 253.943 57.1399C254.459 57.0691 254.984 57.0245 255.516 57.0077C255.677 57.0026 255.838 57 256 57C264.284 57 271 63.7157 271 72C271 80.2843 264.284 87 256 87C255.795 87 255.591 86.9959 255.388 86.9877C254.9 86.9682 254.418 86.9252 253.943 86.8601C253.943 86.8601 253.942 86.8601 253.942 86.8602C253.314 87.1118 252.665 87.3247 252 87.4959C252.673 87.6692 253.364 87.7998 254.068 87.8846C254.522 87.9391 254.981 87.9747 255.445 87.9905C255.629 87.9968 255.814 88 256 88Z" fill="#252525"/>
<path fill-rule="evenodd" clip-rule="evenodd" d="M248 87C256.284 87 263 80.2843 263 72C263 63.7157 256.284 57 248 57C247.302 57 246.615 57.0477 245.943 57.1399C245.314 56.8882 244.665 56.6753 244 56.5041C245.278 56.175 246.619 56 248 56C256.837 56 264 63.1634 264 72C264 80.8366 256.837 88 248 88C246.619 88 245.278 87.825 244 87.4959C244.665 87.3247 245.314 87.1118 245.943 86.8601C246.615 86.9523 247.302 87 248 87Z" fill="#252525"/>
<path fill-rule="evenodd" clip-rule="evenodd" d="M248 88C256.837 88 264 80.8366 264 72C264 63.1634 256.837 56 248 56C247.346 56 246.702 56.0392 246.068 56.1154C245.364 56.2002 244.673 56.3308 244 56.5041C244.665 56.6753 245.314 56.8882 245.942 57.1398C245.942 57.1399 245.943 57.1399 245.943 57.1399C246.459 57.0691 246.984 57.0245 247.516 57.0077C247.677 57.0026 247.838 57 248 57C256.284 57 263 63.7157 263 72C263 80.2843 256.284 87 248 87C247.795 87 247.591 86.9959 247.388 86.9877C246.9 86.9682 246.418 86.9252 245.943 86.8601C245.943 86.8601 245.942 86.8601 245.942 86.8602C245.314 87.1118 244.665 87.3247 244 87.4959C244.673 87.6692 245.364 87.7998 246.068 87.8846C246.522 87.9391 246.981 87.9747 247.445 87.9905C247.629 87.9968 247.814 88 248 88Z" fill="#252525"/>
<path d="M231 72.5V71.5L238 68V69.5L233 72L231 72.5Z" fill="#252525"/>
<path d="M231 71.5V72.5L238 76V74.5L233 72L231 71.5Z" fill="#252525"/>
<path d="M249 72.5V71.5L242 68V69.5L247 72L249 72.5Z" fill="#252525"/>
<path d="M249 71.5V72.5L242 76V74.5L247 72L249 71.5Z" fill="#252525"/>
</svg>
