<svg width="320" height="104" viewBox="0 0 320 104" fill="none" xmlns="http://www.w3.org/2000/svg">
<mask id="path-1-inside-1_1508_9466" fill="white">
<path fill-rule="evenodd" clip-rule="evenodd" d="M136.763 51.8221C136 53.3194 136 55.2796 136 59.2V60.8C136 64.7204 136 66.6806 136.763 68.1779C137.434 69.4951 138.505 70.5659 139.822 71.237C141.319 72 143.28 72 147.2 72H148.8C152.72 72 154.681 72 156.178 71.237C157.495 70.5659 158.566 69.4951 159.237 68.1779C160 66.6806 160 64.7204 160 60.8V59.2C160 55.2796 160 53.3194 159.237 51.8221C158.566 50.5049 157.495 49.4341 156.178 48.763C154.681 48 152.72 48 148.8 48H147.2C143.28 48 141.319 48 139.822 48.763C138.505 49.4341 137.434 50.5049 136.763 51.8221ZM147.085 65.7914L154.422 54.2675L153.578 53.7305L146.911 64.2027L142.354 59.6436L141.646 60.3505L147.085 65.7914Z"/>
</mask>
<path fill-rule="evenodd" clip-rule="evenodd" d="M136.763 51.8221C136 53.3194 136 55.2796 136 59.2V60.8C136 64.7204 136 66.6806 136.763 68.1779C137.434 69.4951 138.505 70.5659 139.822 71.237C141.319 72 143.28 72 147.2 72H148.8C152.72 72 154.681 72 156.178 71.237C157.495 70.5659 158.566 69.4951 159.237 68.1779C160 66.6806 160 64.7204 160 60.8V59.2C160 55.2796 160 53.3194 159.237 51.8221C158.566 50.5049 157.495 49.4341 156.178 48.763C154.681 48 152.72 48 148.8 48H147.2C143.28 48 141.319 48 139.822 48.763C138.505 49.4341 137.434 50.5049 136.763 51.8221ZM147.085 65.7914L154.422 54.2675L153.578 53.7305L146.911 64.2027L142.354 59.6436L141.646 60.3505L147.085 65.7914Z" fill="#252525"/>
<path d="M136.763 51.8221L137.654 52.2761L136.763 51.8221ZM136.763 68.1779L137.654 67.7239H137.654L136.763 68.1779ZM139.822 71.237L139.368 72.1281L139.822 71.237ZM156.178 71.237L155.724 70.346L156.178 71.237ZM159.237 68.1779L158.346 67.7239L159.237 68.1779ZM159.237 51.8221L160.128 51.3681L159.237 51.8221ZM156.178 48.763L155.724 49.654V49.654L156.178 48.763ZM139.822 48.763L140.276 49.654L139.822 48.763ZM154.422 54.2675L155.265 54.8046L155.802 53.9611L154.959 53.424L154.422 54.2675ZM147.085 65.7914L146.378 66.4983L147.259 67.38L147.928 66.3284L147.085 65.7914ZM153.578 53.7305L154.115 52.8869L153.272 52.3499L152.735 53.1934L153.578 53.7305ZM146.911 64.2027L146.204 64.9097L147.085 65.7914L147.754 64.7398L146.911 64.2027ZM142.354 59.6436L143.061 58.9366L142.354 58.2294L141.647 58.9363L142.354 59.6436ZM141.646 60.3505L140.94 59.6433L140.232 60.3502L140.939 61.0575L141.646 60.3505ZM137 59.2C137 57.2233 137.001 55.8009 137.092 54.6838C137.182 53.5784 137.356 52.8603 137.654 52.2761L135.872 51.3681C135.407 52.2812 135.199 53.2919 135.099 54.521C134.999 55.7384 135 57.2563 135 59.2H137ZM137 60.8V59.2H135V60.8H137ZM137.654 67.7239C137.356 67.1397 137.182 66.4216 137.092 65.3162C137.001 64.1991 137 62.7767 137 60.8H135C135 62.7437 134.999 64.2616 135.099 65.479C135.199 66.7081 135.407 67.7188 135.872 68.6319L137.654 67.7239ZM140.276 70.346C139.147 69.7708 138.229 68.8529 137.654 67.7239L135.872 68.6319C136.639 70.1372 137.863 71.3611 139.368 72.1281L140.276 70.346ZM147.2 71C145.223 71 143.801 70.9992 142.684 70.908C141.578 70.8176 140.86 70.6437 140.276 70.346L139.368 72.1281C140.281 72.5933 141.292 72.8009 142.521 72.9013C143.738 73.0008 145.256 73 147.2 73V71ZM148.8 71H147.2V73H148.8V71ZM155.724 70.346C155.14 70.6437 154.422 70.8176 153.316 70.908C152.199 70.9992 150.777 71 148.8 71V73C150.744 73 152.262 73.0008 153.479 72.9013C154.708 72.8009 155.719 72.5933 156.632 72.1281L155.724 70.346ZM158.346 67.7239C157.771 68.8529 156.853 69.7708 155.724 70.346L156.632 72.1281C158.137 71.3611 159.361 70.1372 160.128 68.6319L158.346 67.7239ZM159 60.8C159 62.7767 158.999 64.1991 158.908 65.3162C158.818 66.4216 158.644 67.1397 158.346 67.7239L160.128 68.6319C160.593 67.7188 160.801 66.7081 160.901 65.479C161.001 64.2616 161 62.7437 161 60.8H159ZM159 59.2V60.8H161V59.2H159ZM158.346 52.2761C158.644 52.8603 158.818 53.5784 158.908 54.6838C158.999 55.8009 159 57.2233 159 59.2H161C161 57.2563 161.001 55.7384 160.901 54.521C160.801 53.2919 160.593 52.2812 160.128 51.3681L158.346 52.2761ZM155.724 49.654C156.853 50.2292 157.771 51.1471 158.346 52.2761L160.128 51.3681C159.361 49.8628 158.137 48.6389 156.632 47.8719L155.724 49.654ZM148.8 49C150.777 49 152.199 49.0008 153.316 49.092C154.422 49.1824 155.14 49.3563 155.724 49.654L156.632 47.8719C155.719 47.4067 154.708 47.1991 153.479 47.0987C152.262 46.9992 150.744 47 148.8 47V49ZM147.2 49H148.8V47H147.2V49ZM140.276 49.654C140.86 49.3563 141.578 49.1824 142.684 49.092C143.801 49.0008 145.223 49 147.2 49V47C145.256 47 143.738 46.9992 142.521 47.0987C141.292 47.1991 140.281 47.4067 139.368 47.8719L140.276 49.654ZM137.654 52.2761C138.229 51.1471 139.147 50.2292 140.276 49.654L139.368 47.8719C137.863 48.6389 136.639 49.8628 135.872 51.3681L137.654 52.2761ZM153.578 53.7305L146.241 65.2543L147.928 66.3284L155.265 54.8046L153.578 53.7305ZM153.041 54.574L153.885 55.1111L154.959 53.424L154.115 52.8869L153.041 54.574ZM147.754 64.7398L154.422 54.2675L152.735 53.1934L146.067 63.6657L147.754 64.7398ZM141.646 60.3505L146.204 64.9097L147.618 63.4958L143.061 58.9366L141.646 60.3505ZM142.353 61.0578L143.061 60.3508L141.647 58.9363L140.94 59.6433L142.353 61.0578ZM147.792 65.0844L142.354 59.6436L140.939 61.0575L146.378 66.4983L147.792 65.0844Z" fill="#252525" mask="url(#path-1-inside-1_1508_9466)"/>
<path fill-rule="evenodd" clip-rule="evenodd" d="M40 84C40 95.0457 31.0457 104 20 104C8.9543 104 0 95.0457 0 84C0 72.9543 8.9543 64 20 64C31.0457 64 40 72.9543 40 84ZM15 76V74H16V76H15ZM24 74V76H25V74H24ZM23.2488 81.9347C22.4378 81.367 21.2907 81 20 81V80C21.4707 80 22.8237 80.4165 23.8223 81.1155C24.8193 81.8134 25.5 82.8256 25.5 84C25.5 85.1744 24.8193 86.1866 23.8223 86.8845C22.8237 87.5835 21.4707 88 20 88V87C21.2907 87 22.4378 86.633 23.2488 86.0653C24.0614 85.4964 24.5 84.7586 24.5 84C24.5 83.2414 24.0614 82.5036 23.2488 81.9347ZM12.5 88C12.5 92.1421 15.8579 95.5 20 95.5V96.5C15.3056 96.5 11.5 92.6944 11.5 88H12.5Z" fill="#252525"/>
<path fill-rule="evenodd" clip-rule="evenodd" d="M88 20C88 31.0457 79.0457 40 68 40C56.9543 40 48 31.0457 48 20C48 8.9543 56.9543 0 68 0C79.0457 0 88 8.9543 88 20ZM63 12V10H64V12H63ZM72 10V12H73V10H72ZM72.4891 23.0006C72.3529 19.7571 70.8894 16.1792 67.709 13.9075L68.2902 13.0938C71.9454 15.7046 73.4996 19.8708 73.4996 23.5006V24.0006H67.9996V23.0006H72.4891ZM60.5 24C60.5 28.1421 63.8579 31.5 68 31.5V32.5C63.3056 32.5 59.5 28.6944 59.5 24H60.5Z" fill="#252525"/>
<path fill-rule="evenodd" clip-rule="evenodd" d="M148 81H60C53.9249 81 49 85.9249 49 92C49 98.0751 53.9249 103 60 103H148C154.075 103 159 98.0751 159 92C159 85.9249 154.075 81 148 81ZM60 80C53.3726 80 48 85.3726 48 92C48 98.6274 53.3726 104 60 104H148C154.627 104 160 98.6274 160 92C160 85.3726 154.627 80 148 80H60Z" fill="#252525"/>
<path fill-rule="evenodd" clip-rule="evenodd" d="M148.375 92.5H60.375V91.5H148.375V92.5Z" fill="#252525"/>
<path fill-rule="evenodd" clip-rule="evenodd" d="M228 1H108C101.925 1 97 5.92487 97 12V20C97 26.0751 101.925 31 108 31H228C234.075 31 239 26.0751 239 20V12C239 5.92487 234.075 1 228 1ZM108 0C101.373 0 96 5.37258 96 12V20C96 26.6274 101.373 32 108 32H228C234.627 32 240 26.6274 240 20V12C240 5.37258 234.627 0 228 0H108Z" fill="#252525"/>
<path fill-rule="evenodd" clip-rule="evenodd" d="M228 12.5H108V11.5H228V12.5Z" fill="#252525"/>
<path fill-rule="evenodd" clip-rule="evenodd" d="M195 20.5H108V19.5H195V20.5Z" fill="#252525"/>
<path fill-rule="evenodd" clip-rule="evenodd" d="M116 49H60C53.9249 49 49 53.9249 49 60C49 66.0751 53.9249 71 60 71H116C122.075 71 127 66.0751 127 60C127 53.9249 122.075 49 116 49ZM60 48C53.3726 48 48 53.3726 48 60C48 66.6274 53.3726 72 60 72H116C122.627 72 128 66.6274 128 60C128 53.3726 122.627 48 116 48H60Z" fill="#252525"/>
<path fill-rule="evenodd" clip-rule="evenodd" d="M116 60.5H60V59.5H116V60.5Z" fill="#252525"/>
<path fill-rule="evenodd" clip-rule="evenodd" d="M260 41H188C181.925 41 177 45.9249 177 52V76C177 82.0751 181.925 87 188 87H260C266.075 87 271 82.0751 271 76V52C271 45.9249 266.075 41 260 41ZM188 40C181.373 40 176 45.3726 176 52V76C176 82.6274 181.373 88 188 88H260C266.627 88 272 82.6274 272 76V52C272 45.3726 266.627 40 260 40H188Z" fill="#252525"/>
<path fill-rule="evenodd" clip-rule="evenodd" d="M259 52.5H188V51.5H259V52.5Z" fill="#252525"/>
<path fill-rule="evenodd" clip-rule="evenodd" d="M248 60.5H188V59.5H248V60.5Z" fill="#252525"/>
<path fill-rule="evenodd" clip-rule="evenodd" d="M259 68.5H188V67.5H259V68.5Z" fill="#252525"/>
<path fill-rule="evenodd" clip-rule="evenodd" d="M232 76.5H188V75.5H232V76.5Z" fill="#252525"/>
<path fill-rule="evenodd" clip-rule="evenodd" d="M300 96C288.954 96 280 87.0457 280 76C280 64.9543 288.954 56 300 56C311.046 56 320 64.9543 320 76C320 87.0457 311.046 96 300 96ZM305 68V70H304V68H305ZM296 70V68H295V70H296ZM299 68C299 70.2091 297.209 72 295 72C292.791 72 291 70.2091 291 68C291 65.7909 292.791 64 295 64C297.209 64 299 65.7909 299 68ZM296.567 72.7495C296.074 72.9121 295.547 73 295 73C292.239 73 290 70.7614 290 68C290 65.2386 292.239 63 295 63C297.761 63 300 65.2386 300 68C300 69.2774 299.521 70.443 298.733 71.3268L292.883 80H300V81H291.003L296.567 72.7495ZM305 73C302.239 73 300 70.7614 300 68C300 65.2386 302.239 63 305 63C307.761 63 310 65.2386 310 68C310 70.7614 307.761 73 305 73ZM305.841 85.8542C304.268 87.4234 302.148 88.5002 300 88.5002V87.5002C301.821 87.5002 303.701 86.577 305.135 85.1461C306.57 83.7155 307.5 81.8362 307.5 80H308.5C308.5 82.1639 307.415 84.2847 305.841 85.8542ZM305 72C307.209 72 309 70.2091 309 68C309 65.7909 307.209 64 305 64C302.791 64 301 65.7909 301 68C301 70.2091 302.791 72 305 72Z" fill="#252525"/>
<circle cx="261" cy="17" r="3" fill="#252525"/>
<circle cx="267" cy="17" r="3" fill="#252525"/>
<path d="M264 24.9997C260.344 23.2802 258.07 19.8913 258 17H264V24.9997Z" fill="#252525"/>
<path d="M264 24.9997C267.656 23.2802 269.93 19.8913 270 17H264V24.9997Z" fill="#252525"/>
<circle cx="247" cy="23" r="3" fill="#252525"/>
<circle cx="253" cy="23" r="3" fill="#252525"/>
<path d="M250 30.9997C246.344 29.2802 244.07 25.8913 244 23H250V30.9997Z" fill="#252525"/>
<path d="M250 30.9997C253.656 29.2802 255.93 25.8913 256 23H250V30.9997Z" fill="#252525"/>
<circle cx="281" cy="3" r="3" fill="#252525"/>
<circle cx="275" cy="3" r="3" fill="#252525"/>
<path d="M278 10.9997C274.344 9.28024 272.07 5.89134 272 3H278V10.9997Z" fill="#252525"/>
<path d="M278 10.9997C281.656 9.28024 283.93 5.89134 284 3H278V10.9997Z" fill="#252525"/>
</svg>
