<svg width="96" height="96" viewBox="0 0 96 96" fill="none" xmlns="http://www.w3.org/2000/svg">
<rect width="96" height="96" rx="8" fill="black"/>
<path opacity="0.9" fill-rule="evenodd" clip-rule="evenodd" d="M49.062 47.9995L65.8272 31.2343C67.803 33.671 68.2921 37.4877 67.0516 42.1116C65.7716 46.8825 62.7033 52.2209 58.073 57.0105L49.062 47.9995ZM69.1222 35.5732C74.535 44.759 73.4434 56.7176 65.8474 64.7849L59.1338 58.0713C66.2564 50.7117 69.9152 41.9847 69.1222 35.5732ZM66.251 29.4815L65.8549 29.0853L65.8479 29.0923C55.8402 19.6355 40.162 19.6352 30.154 29.0915L30.146 29.0835L29.0853 30.1441L29.0933 30.1521C19.6362 40.1601 19.6362 55.8389 29.0933 65.8469L29.0853 65.8549L29.6156 66.3851L30.146 66.9155L30.154 66.9075C40.162 76.3638 55.8402 76.3635 65.8479 66.9067L65.8549 66.9137L66.2493 66.5192C66.2948 66.4744 66.3401 66.4295 66.3853 66.3843C66.4304 66.3391 66.4754 66.2938 66.5202 66.2484L66.9155 65.853L66.9085 65.846C76.3645 55.8383 76.3645 40.1608 66.9085 30.153L66.9155 30.146L66.5185 29.7489C66.4743 29.7041 66.4299 29.6593 66.3853 29.6147C66.3406 29.5701 66.2959 29.5257 66.251 29.4815ZM64.7867 65.8456L58.0732 59.132C50.7144 66.2546 41.9882 69.914 35.5765 69.1226C44.7623 74.534 56.7201 73.4417 64.7867 65.8456ZM26.8781 60.4248C26.0864 54.013 29.7459 45.2865 36.8686 37.9275L30.1544 31.2132C22.558 39.2803 21.4659 51.2388 26.8781 60.4248ZM31.2151 30.1526L37.9293 36.8668C45.2892 29.744 54.0166 26.0852 60.4281 26.8785C51.2421 21.4649 39.2828 22.5563 31.2151 30.1526ZM48.0014 49.0602L57.0124 58.0712C52.2223 62.7025 46.8831 65.7714 42.1116 67.0516C37.4878 68.2921 33.671 67.803 31.2344 65.8272L48.0014 49.0602ZM46.9407 47.9995L30.1737 64.7665C28.1977 62.3298 27.7085 58.513 28.9491 53.889C30.2293 49.1175 33.2981 43.7784 37.9294 38.9883L46.9407 47.9995ZM48.0014 46.9388L38.9901 37.9276C43.7798 33.2973 49.1182 30.2291 53.889 28.9491C58.5131 27.7085 62.3299 28.1977 64.7665 30.1737L48.0014 46.9388Z" fill="white"/>
</svg>