<svg width="96" height="96" viewBox="0 0 96 96" fill="none" xmlns="http://www.w3.org/2000/svg">
<rect width="96" height="96" fill="url(#paint0_linear_10786_37397)"/>
<path fill-rule="evenodd" clip-rule="evenodd" d="M40 22V24H36V26H32V28H30V30H28V32H26V36H24V40H22V48V56H24V60H26V64H28V66H30V68H32V70H36V72H40V74H48H56V72H60V70H64V68H66V66H68V64H70V60H72V56H74V48V40H72V36H70V32H68V30H66V28H64V26H60V24H56V22H48H40ZM53 28V24H56V26H60V28H64V30H66V32H68V36H70V39H59V34H57V32H55V28H53ZM42 28V24H40V26H36V28H32V30H30V32H28V36H26V39H36V34H38V39H57V34H55V32H53V28H51V24H48H44V28H42ZM40 32H38V34H40V32ZM40 32H42V28H40V32ZM61 44V41H70V40H72V48V56H70V55H61V52H63V48V44H61ZM61 48V52H59V55H36V52H34V48V44H36V41H59V44H61V48ZM34 44H32V48V52H34V55H26V56H24V48V40H25V41H34V44ZM57 62H59V57H70V60H68V64H66V66H64V68H60V70H56V72H53V68H55V64H57V62ZM38 62V57H57V62H55V64H53V68H51V72H48H44V68H42V64H40V62H38ZM38 62V64H40V68H42V72H40V70H36V68H32V66H30V64H28V60H26V57H36V62H38Z" fill="black"/>
<defs>
<linearGradient id="paint0_linear_10786_37397" x1="48" y1="2.86102e-06" x2="96" y2="96" gradientUnits="userSpaceOnUse">
<stop offset="0.37125" stop-color="white"/>
<stop offset="0.67875" stop-color="#FBF1CD"/>
<stop offset="1" stop-color="#FFBEB0"/>
</linearGradient>
</defs>
</svg>