<svg width="20" height="20" viewBox="0 0 20 20" fill="none" xmlns="http://www.w3.org/2000/svg">
<path d="M12 9.25C12 9.11193 12.1119 9 12.25 9H13.75C13.8881 9 14 9.11193 14 9.25V9.75C14 9.88807 13.8881 10 13.75 10H12.25C12.1119 10 12 9.88807 12 9.75V9.25Z" fill="#B6B6B6"/>
<path d="M9 11.25C9 11.1119 9.11193 11 9.25 11H10.75C10.8881 11 11 11.1119 11 11.25V11.75C11 11.8881 10.8881 12 10.75 12H9.25C9.11193 12 9 11.8881 9 11.75V11.25Z" fill="#B6B6B6"/>
<path d="M12 11.25C12 11.1119 12.1119 11 12.25 11H13.75C13.8881 11 14 11.1119 14 11.25V11.75C14 11.8881 13.8881 12 13.75 12H12.25C12.1119 12 12 11.8881 12 11.75V11.25Z" fill="#B6B6B6"/>
<path d="M9 9.25C9 9.11193 9.11193 9 9.25 9H10.75C10.8881 9 11 9.11193 11 9.25V9.75C11 9.88807 10.8881 10 10.75 10H9.25C9.11193 10 9 9.88807 9 9.75V9.25Z" fill="#B6B6B6"/>
<path d="M6 11.25C6 11.1119 6.11193 11 6.25 11H7.75C7.88807 11 8 11.1119 8 11.25V11.75C8 11.8881 7.88807 12 7.75 12H6.25C6.11193 12 6 11.8881 6 11.75V11.25Z" fill="#B6B6B6"/>
<path d="M9 13.25C9 13.1119 9.11193 13 9.25 13H10.75C10.8881 13 11 13.1119 11 13.25V13.75C11 13.8881 10.8881 14 10.75 14H9.25C9.11193 14 9 13.8881 9 13.75V13.25Z" fill="#B6B6B6"/>
<path d="M6 13.25C6 13.1119 6.11193 13 6.25 13H7.75C7.88807 13 8 13.1119 8 13.25V13.75C8 13.8881 7.88807 14 7.75 14H6.25C6.11193 14 6 13.8881 6 13.75V13.25Z" fill="#B6B6B6"/>
<path d="M3 5.4375C3 4.88522 3.44772 4.4375 4 4.4375H16C16.5523 4.4375 17 4.88522 17 5.4375V7.43701H3V5.4375Z" fill="#B6B6B6"/>
<rect x="3.25" y="3.75" width="13.5" height="12.5" rx="2.25" stroke="#B6B6B6" stroke-width="1.5"/>
</svg>