<svg width="20" height="20" viewBox="0 0 20 20" fill="none" xmlns="http://www.w3.org/2000/svg">
<path d="M4 6.5H16V8H4V6.5Z" fill="#ACA996"/>
<path d="M11.0312 11.0312H14.0312V14H11.0312V11.0312Z" fill="#ACA996"/>
<path fill-rule="evenodd" clip-rule="evenodd" d="M14.5 4.5H5.5C4.94772 4.5 4.5 4.94772 4.5 5.5V14.5C4.5 15.0523 4.94772 15.5 5.5 15.5H14.5C15.0523 15.5 15.5 15.0523 15.5 14.5V5.5C15.5 4.94772 15.0523 4.5 14.5 4.5ZM5.5 3C4.11929 3 3 4.11929 3 5.5V14.5C3 15.8807 4.11929 17 5.5 17H14.5C15.8807 17 17 15.8807 17 14.5V5.5C17 4.11929 15.8807 3 14.5 3H5.5Z" fill="#ACA996"/>
</svg>
