<svg width="20" height="20" viewBox="0 0 20 20" fill="none" xmlns="http://www.w3.org/2000/svg">
<path fill-rule="evenodd" clip-rule="evenodd" d="M3.5 10C3.5 13.5899 6.41015 16.5 10 16.5C13.5899 16.5 16.5 13.5899 16.5 10C16.5 6.41015 13.5899 3.5 10 3.5C6.41015 3.5 3.5 6.41015 3.5 10ZM10 2C5.58172 2 2 5.58172 2 10C2 14.4183 5.58172 18 10 18C14.4183 18 18 14.4183 18 10C18 5.58172 14.4183 2 10 2Z" fill="#B6B6B6"/>
<path fill-rule="evenodd" clip-rule="evenodd" d="M6.47225 8.4671C6.76657 8.17563 7.24143 8.17794 7.5329 8.47225L9.97612 10.9393L12.4722 8.46712C12.7665 8.17564 13.2414 8.17793 13.5329 8.47223C13.8244 8.76653 13.8221 9.2414 13.5278 9.53288L9.96586 13.0607L6.4671 9.52775C6.17563 9.23343 6.17794 8.75857 6.47225 8.4671Z" fill="#B6B6B6"/>
</svg>