<svg width="20" height="20" viewBox="0 0 20 20" fill="none" xmlns="http://www.w3.org/2000/svg">
<path fill-rule="evenodd" clip-rule="evenodd" d="M5.5 15V11C5.5 10.7239 5.27614 10.5 5 10.5C4.72386 10.5 4.5 10.7239 4.5 11V15C4.5 15.2761 4.72386 15.5 5 15.5C5.27614 15.5 5.5 15.2761 5.5 15ZM5 9C3.89543 9 3 9.89543 3 11V15C3 16.1046 3.89543 17 5 17C6.10457 17 7 16.1046 7 15V11C7 9.89543 6.10457 9 5 9Z" fill="#ACA996"/>
<path fill-rule="evenodd" clip-rule="evenodd" d="M10.5 15V8C10.5 7.72386 10.2761 7.5 10 7.5C9.72386 7.5 9.5 7.72386 9.5 8V15C9.5 15.2761 9.72386 15.5 10 15.5C10.2761 15.5 10.5 15.2761 10.5 15ZM10 6C8.89543 6 8 6.89543 8 8V15C8 16.1046 8.89543 17 10 17C11.1046 17 12 16.1046 12 15V8C12 6.89543 11.1046 6 10 6Z" fill="#ACA996"/>
<path fill-rule="evenodd" clip-rule="evenodd" d="M15.5 15V5C15.5 4.72386 15.2761 4.5 15 4.5C14.7239 4.5 14.5 4.72386 14.5 5V15C14.5 15.2761 14.7239 15.5 15 15.5C15.2761 15.5 15.5 15.2761 15.5 15ZM15 3C13.8954 3 13 3.89543 13 5V15C13 16.1046 13.8954 17 15 17C16.1046 17 17 16.1046 17 15V5C17 3.89543 16.1046 3 15 3Z" fill="#ACA996"/>
</svg>
