<svg width="24" height="25" viewBox="0 0 24 25" fill="none" xmlns="http://www.w3.org/2000/svg">
<path fill-rule="evenodd" clip-rule="evenodd" d="M17 4.98438H7C5.34315 4.98438 4 6.32752 4 7.98437V17.9844C4 19.6412 5.34315 20.9844 7 20.9844H17C18.6569 20.9844 20 19.6412 20 17.9844V7.98438C20 6.32752 18.6569 4.98438 17 4.98438ZM7 3.98438C4.79086 3.98438 3 5.77524 3 7.98437V17.9844C3 20.1935 4.79086 21.9844 7 21.9844H17C19.2091 21.9844 21 20.1935 21 17.9844V7.98438C21 5.77524 19.2091 3.98438 17 3.98438H7Z" fill="#ACA996"/>
</svg>