<svg width="20" height="21" viewBox="0 0 20 21" fill="none" xmlns="http://www.w3.org/2000/svg">
<g opacity="0.9">
<path d="M17 5.40918C17 6.06603 16.4097 6.81595 15.0919 7.43096C13.8146 8.02703 12.0149 8.40918 10 8.40918C7.98515 8.40918 6.18543 8.02703 4.90814 7.43096C3.59025 6.81595 3 6.06603 3 5.40918C3 4.75233 3.59025 4.00241 4.90814 3.3874C6.18543 2.79133 7.98515 2.40918 10 2.40918C12.0149 2.40918 13.8146 2.79133 15.0919 3.3874C16.4097 4.00241 17 4.75233 17 5.40918Z" stroke="#dfddd3"/>
<path fill-rule="evenodd" clip-rule="evenodd" d="M2.54998 5.81543H2.5498L4.9999 17.4521H14.9999L17.4499 5.81596C17.018 7.55732 13.8473 8.90918 10 8.90918C6.15231 8.90918 2.98136 7.55704 2.54998 5.81543Z" fill="#dfddd3"/>
<ellipse cx="10" cy="17.3467" rx="5" ry="2.5" fill="#dfddd3"/>
</g>
</svg>
