<svg width="12" height="12" viewBox="0 0 12 12" fill="none" xmlns="http://www.w3.org/2000/svg">
<path d="M6.36523 11.8873C5.40898 11.8873 4.56367 11.7561 3.8293 11.4936C3.09492 11.2342 2.47773 10.8514 1.97773 10.3451C1.47773 9.83887 1.09961 9.21855 0.843359 8.48418C0.587109 7.7498 0.458984 6.90918 0.458984 5.96231C0.458984 5.04668 0.588672 4.22793 0.848047 3.50606C1.11055 2.78418 1.49023 2.17168 1.98711 1.66856C2.48711 1.1623 3.09336 0.776367 3.80586 0.510743C4.52148 0.245118 5.33086 0.112305 6.23398 0.112305C7.11211 0.112305 7.88086 0.256055 8.54023 0.543555C9.20273 0.82793 9.75586 1.21387 10.1996 1.70137C10.6465 2.18574 10.9809 2.73105 11.2027 3.3373C11.4277 3.94355 11.5402 4.56855 11.5402 5.21231C11.5402 5.66543 11.5184 6.1248 11.4746 6.59043C11.4309 7.05605 11.3387 7.48418 11.198 7.8748C11.0574 8.26231 10.8402 8.5748 10.5465 8.8123C10.2559 9.0498 9.86211 9.16855 9.36523 9.16855C9.14648 9.16855 8.90586 9.13418 8.64336 9.06543C8.38086 8.99668 8.14805 8.88262 7.94492 8.72324C7.7418 8.56387 7.62148 8.3498 7.58398 8.08105H7.52773C7.45273 8.26231 7.33711 8.43418 7.18086 8.59668C7.02773 8.75918 6.82617 8.88887 6.57617 8.98574C6.3293 9.08262 6.02773 9.1248 5.67148 9.1123C5.26523 9.09668 4.90742 9.00605 4.59805 8.84043C4.28867 8.67168 4.0293 8.44355 3.81992 8.15605C3.61367 7.86543 3.45742 7.52949 3.35117 7.14824C3.24805 6.76387 3.19648 6.3498 3.19648 5.90605C3.19648 5.48418 3.25898 5.09824 3.38398 4.74824C3.50898 4.39824 3.68242 4.09199 3.9043 3.82949C4.1293 3.56699 4.3918 3.35762 4.6918 3.20137C4.99492 3.04199 5.32148 2.94356 5.67148 2.90606C5.98398 2.87481 6.26836 2.88887 6.52461 2.94824C6.78086 3.00449 6.9918 3.09043 7.15742 3.20606C7.32305 3.31856 7.42773 3.44356 7.47148 3.58106H7.52773V3.05606H8.52148V7.29355C8.52148 7.55606 8.59492 7.7873 8.7418 7.9873C8.88867 8.1873 9.10273 8.2873 9.38398 8.2873C9.70273 8.2873 9.94648 8.17793 10.1152 7.95918C10.2871 7.74043 10.4043 7.40293 10.4668 6.94668C10.5324 6.49043 10.5652 5.90605 10.5652 5.19355C10.5652 4.7748 10.5074 4.36231 10.3918 3.95605C10.2793 3.54668 10.1074 3.16387 9.87617 2.80762C9.64805 2.45137 9.35898 2.1373 9.00898 1.86543C8.65898 1.59355 8.24805 1.38106 7.77617 1.22793C7.30742 1.07168 6.77461 0.993555 6.17773 0.993555C5.44336 0.993555 4.78555 1.10762 4.2043 1.33574C3.62617 1.56074 3.13398 1.89043 2.72773 2.3248C2.32461 2.75605 2.0168 3.28105 1.8043 3.89981C1.59492 4.51543 1.49023 5.21543 1.49023 5.9998C1.49023 6.79668 1.59492 7.50449 1.8043 8.12324C2.0168 8.74199 2.3293 9.26387 2.7418 9.68887C3.15742 10.1139 3.67148 10.4357 4.28398 10.6545C4.89648 10.8764 5.60273 10.9873 6.40273 10.9873C6.74648 10.9873 7.08555 10.9545 7.41992 10.8889C7.7543 10.8232 8.04961 10.7514 8.30586 10.6732C8.56211 10.5951 8.74648 10.5373 8.85898 10.4998L9.12148 11.3623C8.92773 11.4436 8.67461 11.5248 8.36211 11.6061C8.05273 11.6873 7.72148 11.7545 7.36836 11.8076C7.01836 11.8607 6.68398 11.8873 6.36523 11.8873ZM5.82148 8.15605C6.24023 8.15605 6.5793 8.07168 6.83867 7.90293C7.09805 7.73418 7.28711 7.47949 7.40586 7.13887C7.52461 6.79824 7.58398 6.36856 7.58398 5.8498C7.58398 5.3248 7.51836 4.91543 7.38711 4.62168C7.25586 4.32793 7.06211 4.12168 6.80586 4.00293C6.54961 3.88418 6.23398 3.82481 5.85898 3.82481C5.50273 3.82481 5.19805 3.91856 4.94492 4.10606C4.69492 4.29043 4.50273 4.5373 4.36836 4.84668C4.23711 5.15293 4.17148 5.4873 4.17148 5.8498C4.17148 6.2498 4.22461 6.62637 4.33086 6.97949C4.43711 7.32949 4.61055 7.61387 4.85117 7.83262C5.0918 8.04824 5.41523 8.15605 5.82148 8.15605Z" fill="#171717"/>
</svg>