<svg width="21" height="20" viewBox="0 0 21 20" fill="none" xmlns="http://www.w3.org/2000/svg">
<path d="M10.0156 11.5C10.8441 11.5 11.5156 10.8284 11.5156 10C11.5156 9.17157 10.8441 8.5 10.0156 8.5C9.1872 8.5 8.51562 9.17157 8.51562 10C8.51562 10.8284 9.1872 11.5 10.0156 11.5Z" fill="#dfddd3"/>
<path d="M4.01562 11.5C4.84405 11.5 5.51562 10.8284 5.51562 10C5.51562 9.17157 4.84405 8.5 4.01562 8.5C3.1872 8.5 2.51562 9.17157 2.51562 10C2.51562 10.8284 3.1872 11.5 4.01562 11.5Z" fill="#dfddd3"/>
<path d="M16.0156 11.5C16.8441 11.5 17.5156 10.8284 17.5156 10C17.5156 9.17157 16.8441 8.5 16.0156 8.5C15.1872 8.5 14.5156 9.17157 14.5156 10C14.5156 10.8284 15.1872 11.5 16.0156 11.5Z" fill="#dfddd3"/>
</svg>
