<svg width="12" height="12" viewBox="0 0 12 12" fill="none" xmlns="http://www.w3.org/2000/svg">
<path d="M1.5 5C2.19036 5 2.75 5.55964 2.75 6.25C2.75 6.94036 2.19036 7.5 1.5 7.5C0.809644 7.5 0.25 6.94036 0.25 6.25C0.25 5.55964 0.809644 5 1.5 5ZM6 5C6.69036 5 7.25 5.55964 7.25 6.25C7.25 6.94036 6.69036 7.5 6 7.5C5.30964 7.5 4.75 6.94036 4.75 6.25C4.75 5.55964 5.30964 5 6 5ZM10.5 5C11.1904 5 11.75 5.55964 11.75 6.25C11.75 6.94036 11.1904 7.5 10.5 7.5C9.80964 7.5 9.25 6.94036 9.25 6.25C9.25 5.55964 9.80964 5 10.5 5Z" fill="#f8f8f8"/>
</svg>
