<svg xmlns="http://www.w3.org/2000/svg" width="10" height="10" viewBox="0 0 10 10" fill="none">
    <path d="M8.88672 0.191406C9.14133 -0.0628657 9.55399 -0.0628796 9.80859 0.191406C10.0633 0.446096 10.0633 0.859568 9.80859 1.11426L5.92188 5L9.80859 8.8877C10.0633 9.14239 10.0633 9.55489 9.80859 9.80957C9.55391 10.0643 9.14141 10.0642 8.88672 9.80957L4.99902 5.92285L1.11328 9.80957C0.858592 10.0643 0.445119 10.0643 0.19043 9.80957C-0.0638566 9.55496 -0.0638427 9.14231 0.19043 8.8877L4.07715 5L0.19043 1.11426C-0.0641317 0.859558 -0.0642171 0.446053 0.19043 0.191406C0.445077 -0.0632407 0.858581 -0.0631551 1.11328 0.191406L4.99902 4.07812L8.88672 0.191406Z" fill="#9B9B9B"/>
</svg>
