<svg width="20" height="21" viewBox="0 0 20 21" fill="none" xmlns="http://www.w3.org/2000/svg">
<path fill-rule="evenodd" clip-rule="evenodd" d="M4.46967 4.47553C4.76256 4.18264 5.23744 4.18264 5.53033 4.47553L15.5303 14.4755C15.8232 14.7684 15.8232 15.2433 15.5303 15.5362C15.2374 15.8291 14.7626 15.8291 14.4697 15.5362L4.46967 5.53619C4.17678 5.2433 4.17678 4.76842 4.46967 4.47553Z" fill="#ACA996"/>
<path fill-rule="evenodd" clip-rule="evenodd" d="M15.5303 4.47553C15.2374 4.18264 14.7626 4.18264 14.4697 4.47553L4.46967 14.4755C4.17678 14.7684 4.17678 15.2433 4.46967 15.5362C4.76256 15.8291 5.23744 15.8291 5.53033 15.5362L15.5303 5.53619C15.8232 5.2433 15.8232 4.76842 15.5303 4.47553Z" fill="#ACA996"/>
</svg>