<svg xmlns="http://www.w3.org/2000/svg" width="24" height="24" viewBox="0 0 24 24" fill="none">
    <g clip-path="url(#clip0_7278_7380)">
        <path fill-rule="evenodd" clip-rule="evenodd" d="M18.6369 6.77653L18.9688 6.68155C19.1775 6.62178 19.3748 6.51005 19.5422 6.3427C20.0629 5.822 20.0629 4.97778 19.5422 4.45709C19.0215 3.93639 18.1773 3.93639 17.6566 4.45709C17.4892 4.62443 17.3775 4.82173 17.3177 5.0305L17.2227 5.36232L16.0066 6.57841L12.4711 3.04287C12.2108 2.78252 11.7886 2.78252 11.5283 3.04287L8.93557 5.6356L8.96521 5.66524C9.38586 5.78594 9.78337 6.012 10.1141 6.3427C11.1555 7.3841 11.1555 9.07254 10.1141 10.1139C9.07268 11.1553 7.38424 11.1553 6.34284 10.1139C6.01214 9.78323 5.78608 9.38572 5.66538 8.96507L5.63574 8.93543L3.04301 11.5282C2.78266 11.7885 2.78266 12.2106 3.04301 12.471L6.57855 16.0065L5.36246 17.2226L5.03064 17.3176C4.82187 17.3773 4.62457 17.4891 4.45723 17.6564C3.93653 18.1771 3.93653 19.0213 4.45722 19.542C4.97792 20.0627 5.82214 20.0627 6.34284 19.542C6.51018 19.3747 6.62192 19.1774 6.68169 18.9686L6.77667 18.6368L7.99276 17.4207L11.5283 20.9562C11.7886 21.2166 12.2108 21.2166 12.4711 20.9562L15.0638 18.3635L15.0342 18.3339C14.6135 18.2132 14.216 17.9871 13.8853 17.6564C12.8439 16.615 12.8439 14.9266 13.8853 13.8852C14.9267 12.8438 16.6152 12.8438 17.6566 13.8852C17.9873 14.2159 18.2133 14.6134 18.334 15.034L18.3637 15.0637L20.9564 12.471C21.2167 12.2106 21.2167 11.7885 20.9564 11.5282L17.4208 7.99262L18.6369 6.77653ZM18.3637 16.9493L17.1017 15.6873C17.0822 15.3744 16.9529 15.0671 16.7137 14.828C16.193 14.3073 15.3488 14.3073 14.8281 14.828C14.3074 15.3487 14.3074 16.1929 14.8281 16.7136C15.0672 16.9527 15.3746 17.082 15.6875 17.1015L16.9494 18.3635L13.4139 21.8991C12.6329 22.6801 11.3665 22.6801 10.5855 21.8991L7.99276 19.3063L7.96353 19.3356C7.84307 19.7564 7.61711 20.1534 7.28565 20.4848C6.24425 21.5262 4.55581 21.5262 3.51442 20.4848C2.47302 19.4434 2.47302 17.755 3.51442 16.7136C3.84587 16.3821 4.24288 16.1562 4.6637 16.0357L4.69293 16.0065L2.1002 13.4138C1.31915 12.6327 1.31915 11.3664 2.1002 10.5853L5.63574 7.04981L6.89773 8.3118C6.91724 8.6247 7.04655 8.93202 7.28565 9.17113C7.80635 9.69183 8.65057 9.69183 9.17127 9.17113C9.69197 8.65043 9.69197 7.80621 9.17127 7.28551C8.93216 7.04641 8.62484 6.9171 8.31194 6.89759L7.04995 5.6356L10.5855 2.10006C11.3665 1.31901 12.6329 1.31901 13.4139 2.10006L16.0066 4.69279L16.0359 4.66356C16.1563 4.24274 16.3823 3.84573 16.7137 3.51428C17.7551 2.47288 19.4436 2.47288 20.485 3.51428C21.5264 4.55567 21.5264 6.24411 20.485 7.28551C20.1535 7.61697 19.7565 7.84293 19.3357 7.96339L19.3065 7.99262L21.8992 10.5853C22.6802 11.3664 22.6802 12.6327 21.8992 13.4138L18.3637 16.9493Z" fill="#B6B6B6"/>
    </g>
    <defs>
        <clipPath id="clip0_7278_7380">
            <rect width="24" height="24" fill="white"/>
        </clipPath>
    </defs>
</svg>
