<svg width="14" height="17" viewBox="0 0 14 17" fill="none" xmlns="http://www.w3.org/2000/svg">
<mask id="path-1-inside-1" fill="white">
<path d="M1.01836 4.9375L0.999804 14.0194C0.997543 15.1255 1.89363 16.0234 2.9998 16.0234H10.9998C12.1044 16.0234 12.9998 15.128 12.9998 14.0234V4.9375"/>
</mask>
<path d="M-0.981635 4.93341L-1.00019 14.0153L2.9998 14.0234L3.01836 4.94159L-0.981635 4.93341ZM2.9998 18.0234H10.9998V14.0234H2.9998V18.0234ZM14.9998 14.0234V4.9375H10.9998V14.0234H14.9998ZM10.9998 18.0234C13.209 18.0234 14.9998 16.2326 14.9998 14.0234H10.9998V18.0234ZM-1.00019 14.0153C-1.00471 16.2276 0.787471 18.0234 2.9998 18.0234V14.0234V14.0234L-1.00019 14.0153Z" fill="#6A6962" mask="url(#path-1-inside-1)"/>
<rect x="5" y="6.00049" width="1" height="6" fill="#6D6C66"/>
<rect x="8" y="6.00049" width="1" height="6" fill="#6D6C66"/>
<path d="M0 2.02344H14V3.02344C14 3.57572 13.5523 4.02344 13 4.02344H1C0.447716 4.02344 0 3.57572 0 3.02344V2.02344Z" fill="#6A6962"/>
<path d="M3.97754 1.02344C3.97754 0.471153 4.42525 0.0234375 4.97754 0.0234375H8.97754C9.52982 0.0234375 9.97754 0.471153 9.97754 1.02344V2.02344H3.97754V1.02344Z" fill="#6A6962"/>
</svg>
