<svg xmlns="http://www.w3.org/2000/svg" width="20" height="20" viewBox="0 0 20 20" fill="none">
    <path fill-rule="evenodd" clip-rule="evenodd" d="M10.0026 2C9.63441 2 9.33594 2.29848 9.33594 2.66667V7.5171L6.90991 3.3151C6.72581 2.99623 6.31809 2.88698 5.99923 3.07108C5.68036 3.25517 5.57111 3.6629 5.75521 3.98176L8.17806 8.17826L3.9823 5.75584C3.66344 5.57174 3.25571 5.68099 3.07161 5.99986C2.88752 6.31872 2.99677 6.72644 3.31563 6.91054L7.5131 9.33395H2.66667C2.29848 9.33395 2 9.63242 2 10.0006C2 10.3688 2.29848 10.6673 2.66667 10.6673H7.51177L3.31693 13.0892C2.99807 13.2733 2.88882 13.681 3.07292 13.9999C3.25701 14.3187 3.66474 14.428 3.9836 14.2439L8.18051 11.8208L5.75676 16.0189C5.57266 16.3377 5.68191 16.7454 6.00077 16.9295C6.31964 17.1136 6.72736 17.0044 6.91146 16.6855L9.33594 12.4862V17.3333C9.33594 17.7015 9.63441 18 10.0026 18C10.3708 18 10.6693 17.7015 10.6693 17.3333V12.4932L13.0885 16.6835C13.2726 17.0023 13.6804 17.1116 13.9992 16.9275C14.3181 16.7434 14.4273 16.3357 14.2432 16.0168L11.8208 11.821L16.0173 14.2439C16.3362 14.428 16.7439 14.3187 16.928 13.9999C17.1121 13.681 17.0029 13.2733 16.684 13.0892L12.4892 10.6673H17.3333C17.7015 10.6673 18 10.3688 18 10.0006C18 9.63242 17.7015 9.33395 17.3333 9.33395H12.4878L16.6853 6.91054C17.0042 6.72644 17.1134 6.31872 16.9293 5.99985C16.7452 5.68099 16.3375 5.57174 16.0186 5.75584L11.8232 8.17805L14.2448 3.98381C14.4289 3.66495 14.3196 3.25722 14.0008 3.07313C13.6819 2.88903 13.2742 2.99828 13.0901 3.31715L10.6693 7.51013V2.66667C10.6693 2.29848 10.3708 2 10.0026 2Z" fill="#252525"/>
</svg>
