<svg width="20" height="20" viewBox="0 0 20 20" fill="none" xmlns="http://www.w3.org/2000/svg">
<path d="M2 5C2 4.17157 2.67157 3.5 3.5 3.5C4.32843 3.5 5 4.17157 5 5C5 5.82843 4.32843 6.5 3.5 6.5C2.67157 6.5 2 5.82843 2 5Z" fill="#252525"/>
<path d="M2 10C2 9.17157 2.67157 8.5 3.5 8.5C4.32843 8.5 5 9.17157 5 10C5 10.8284 4.32843 11.5 3.5 11.5C2.67157 11.5 2 10.8284 2 10Z" fill="#252525"/>
<path d="M2 15C2 14.1716 2.67157 13.5 3.5 13.5C4.32843 13.5 5 14.1716 5 15C5 15.8284 4.32843 16.5 3.5 16.5C2.67157 16.5 2 15.8284 2 15Z" fill="#252525"/>
<path d="M7 5C7 4.58579 7.33579 4.25 7.75 4.25H17.25C17.6642 4.25 18 4.58579 18 5C18 5.41421 17.6642 5.75 17.25 5.75H7.75C7.33579 5.75 7 5.41421 7 5Z" fill="#252525"/>
<path d="M7 10C7 9.58579 7.33579 9.25 7.75 9.25H17.25C17.6642 9.25 18 9.58579 18 10C18 10.4142 17.6642 10.75 17.25 10.75H7.75C7.33579 10.75 7 10.4142 7 10Z" fill="#252525"/>
<path d="M7 15C7 14.5858 7.33579 14.25 7.75 14.25H17.25C17.6642 14.25 18 14.5858 18 15C18 15.4142 17.6642 15.75 17.25 15.75H7.75C7.33579 15.75 7 15.4142 7 15Z" fill="#252525"/>
</svg>