<svg width="20" height="20" viewBox="0 0 20 20" fill="none" xmlns="http://www.w3.org/2000/svg">
<path d="M10.0183 2.7424C9.76891 2.7424 9.55861 2.6584 9.38744 2.4904C9.21626 2.3176 9.13067 2.1112 9.13067 1.8712C9.13067 1.6312 9.21626 1.4272 9.38744 1.2592C9.5635 1.0864 9.7738 1 10.0183 1C10.2629 1 10.4707 1.0864 10.6419 1.2592C10.8131 1.4272 10.8987 1.6312 10.8987 1.8712C10.8987 2.116 10.8131 2.3224 10.6419 2.4904C10.4756 2.6584 10.2678 2.7424 10.0183 2.7424ZM6.44567 4.7584C6.20113 4.7584 5.99083 4.6744 5.81476 4.5064C5.64359 4.3336 5.558 4.1272 5.558 3.8872C5.558 3.652 5.64603 3.448 5.8221 3.2752C5.99817 3.1024 6.20602 3.016 6.44567 3.016C6.69509 3.016 6.9054 3.1024 7.07657 3.2752C7.24775 3.4432 7.33333 3.6472 7.33333 3.8872C7.33333 4.132 7.24775 4.3384 7.07657 4.5064C6.91029 4.6744 6.69999 4.7584 6.44567 4.7584ZM13.5763 4.7584C13.3318 4.7584 13.1215 4.6744 12.9454 4.5064C12.7743 4.3336 12.6887 4.1272 12.6887 3.8872C12.6887 3.652 12.7767 3.448 12.9528 3.2752C13.1288 3.1024 13.3367 3.016 13.5763 3.016C13.8258 3.016 14.0361 3.1024 14.2072 3.2752C14.3833 3.4432 14.4713 3.6472 14.4713 3.8872C14.4713 4.132 14.3858 4.3384 14.2146 4.5064C14.0434 4.6744 13.8307 4.7584 13.5763 4.7584ZM2.88033 6.8032C2.63579 6.8032 2.42794 6.7192 2.25676 6.5512C2.08559 6.3784 2 6.172 2 5.932C2 5.6968 2.08559 5.4952 2.25676 5.3272C2.43283 5.1544 2.64068 5.068 2.88033 5.068C3.12976 5.068 3.34006 5.152 3.51123 5.32C3.68241 5.488 3.768 5.692 3.768 5.932C3.768 6.1816 3.68241 6.3904 3.51123 6.5584C3.34495 6.7216 3.13465 6.8032 2.88033 6.8032ZM10.0183 7.084C9.69066 7.084 9.41189 6.9712 9.18203 6.7456C8.95216 6.52 8.83723 6.2488 8.83723 5.932C8.83723 5.62 8.95216 5.3512 9.18203 5.1256C9.41678 4.8952 9.69555 4.78 10.0183 4.78C10.3411 4.78 10.615 4.8952 10.84 5.1256C11.0698 5.3512 11.1848 5.62 11.1848 5.932C11.1848 6.2536 11.0698 6.5272 10.84 6.7528C10.615 6.9736 10.3411 7.084 10.0183 7.084ZM17.1197 6.8032C16.8751 6.8032 16.6648 6.7192 16.4888 6.5512C16.3176 6.3832 16.232 6.1768 16.232 5.932C16.232 5.6968 16.32 5.4952 16.4961 5.3272C16.6722 5.1544 16.88 5.068 17.1197 5.068C17.3642 5.068 17.5721 5.152 17.7432 5.32C17.9144 5.488 18 5.692 18 5.932C18 6.1768 17.9144 6.3832 17.7432 6.5512C17.577 6.7192 17.3691 6.8032 17.1197 6.8032ZM6.44567 9.1144C6.12288 9.1144 5.84655 9.0016 5.61669 8.776C5.38683 8.5504 5.27189 8.2792 5.27189 7.9624C5.27189 7.6504 5.38683 7.3816 5.61669 7.156C5.85144 6.9256 6.12777 6.8104 6.44567 6.8104C6.76846 6.8104 7.04478 6.9232 7.27464 7.1488C7.5094 7.3744 7.62678 7.6456 7.62678 7.9624C7.62678 8.2888 7.51185 8.5624 7.28198 8.7832C7.05212 9.004 6.77335 9.1144 6.44567 9.1144ZM13.5763 9.1144C13.2536 9.1144 12.9772 9.004 12.7474 8.7832C12.5224 8.5576 12.4099 8.284 12.4099 7.9624C12.4099 7.6504 12.5248 7.3816 12.7547 7.156C12.9846 6.9256 13.2584 6.8104 13.5763 6.8104C13.904 6.8104 14.1828 6.9232 14.4127 7.1488C14.6425 7.3744 14.7575 7.6456 14.7575 7.9624C14.7575 8.2888 14.6425 8.5624 14.4127 8.7832C14.1877 9.004 13.9089 9.1144 13.5763 9.1144ZM2.88033 10.8712C2.63579 10.8712 2.42794 10.7872 2.25676 10.6192C2.08559 10.4464 2 10.24 2 10C2 9.76 2.08559 9.556 2.25676 9.388C2.43283 9.2152 2.64068 9.1288 2.88033 9.1288C3.12976 9.1288 3.34006 9.2152 3.51123 9.388C3.68241 9.556 3.768 9.76 3.768 10C3.768 10.2448 3.68241 10.4512 3.51123 10.6192C3.34006 10.7872 3.12976 10.8712 2.88033 10.8712ZM10.0183 11.3464C9.76402 11.3464 9.53416 11.2864 9.32875 11.1664C9.12334 11.0416 8.95705 10.8784 8.82989 10.6768C8.70763 10.4704 8.64649 10.2448 8.64649 10C8.64649 9.7552 8.70763 9.532 8.82989 9.3304C8.95705 9.124 9.12334 8.9608 9.32875 8.8408C9.53416 8.716 9.76402 8.6536 10.0183 8.6536C10.2678 8.6536 10.4952 8.716 10.7006 8.8408C10.906 8.9608 11.0698 9.124 11.1921 9.3304C11.3193 9.532 11.3829 9.7552 11.3829 10C11.3829 10.3744 11.2484 10.6936 10.9794 10.9576C10.7153 11.2168 10.3949 11.3464 10.0183 11.3464ZM17.1197 10.8712C16.8751 10.8712 16.6648 10.7872 16.4888 10.6192C16.3176 10.4464 16.232 10.24 16.232 10C16.232 9.7648 16.32 9.5608 16.4961 9.388C16.6722 9.2152 16.88 9.1288 17.1197 9.1288C17.3642 9.1288 17.5721 9.2152 17.7432 9.388C17.9144 9.556 18 9.76 18 10C18 10.2448 17.9144 10.4512 17.7432 10.6192C17.577 10.7872 17.3691 10.8712 17.1197 10.8712ZM6.44567 13.1896C6.12288 13.1896 5.84655 13.0768 5.61669 12.8512C5.38683 12.6256 5.27189 12.3544 5.27189 12.0376C5.27189 11.7256 5.38683 11.4568 5.61669 11.2312C5.85144 11.0008 6.12777 10.8856 6.44567 10.8856C6.76846 10.8856 7.04478 10.9984 7.27464 11.224C7.5094 11.4448 7.62678 11.716 7.62678 12.0376C7.62678 12.3592 7.51185 12.6328 7.28198 12.8584C7.05212 13.0792 6.77335 13.1896 6.44567 13.1896ZM13.5763 13.1896C13.2536 13.1896 12.9772 13.0768 12.7474 12.8512C12.5224 12.6256 12.4099 12.3544 12.4099 12.0376C12.4099 11.7208 12.5248 11.4496 12.7547 11.224C12.9846 10.9984 13.2584 10.8856 13.5763 10.8856C13.904 10.8856 14.1828 10.9984 14.4127 11.224C14.6425 11.4448 14.7575 11.716 14.7575 12.0376C14.7575 12.3592 14.6425 12.6328 14.4127 12.8584C14.1877 13.0792 13.9089 13.1896 13.5763 13.1896ZM2.88033 14.932C2.63579 14.932 2.42794 14.848 2.25676 14.68C2.08559 14.512 2 14.3056 2 14.0608C2 13.8256 2.08559 13.624 2.25676 13.456C2.43283 13.2832 2.64068 13.1968 2.88033 13.1968C3.12976 13.1968 3.34006 13.2808 3.51123 13.4488C3.68241 13.612 3.768 13.816 3.768 14.0608C3.768 14.3056 3.68485 14.512 3.51857 14.68C3.35228 14.848 3.13954 14.932 2.88033 14.932ZM10.0183 15.2128C9.69066 15.2128 9.41189 15.1 9.18203 14.8744C8.95216 14.6488 8.83723 14.3776 8.83723 14.0608C8.83723 13.7536 8.95216 13.4848 9.18203 13.2544C9.41678 13.024 9.69555 12.9088 10.0183 12.9088C10.3411 12.9088 10.615 13.0216 10.84 13.2472C11.0698 13.4728 11.1848 13.744 11.1848 14.0608C11.1848 14.3824 11.0698 14.656 10.84 14.8816C10.615 15.1024 10.3411 15.2128 10.0183 15.2128ZM17.1197 14.932C16.8751 14.932 16.6648 14.848 16.4888 14.68C16.3176 14.512 16.232 14.3056 16.232 14.0608C16.232 13.8208 16.32 13.6168 16.4961 13.4488C16.6722 13.2808 16.88 13.1968 17.1197 13.1968C17.3642 13.1968 17.5721 13.2808 17.7432 13.4488C17.9144 13.6168 18 13.8208 18 14.0608C18 14.3104 17.9144 14.5192 17.7432 14.6872C17.577 14.8504 17.3691 14.932 17.1197 14.932ZM6.44567 16.9768C6.20113 16.9768 5.99083 16.8928 5.81476 16.7248C5.64359 16.5568 5.558 16.3528 5.558 16.1128C5.558 15.8728 5.64603 15.6664 5.8221 15.4936C5.99817 15.3256 6.20602 15.2416 6.44567 15.2416C6.69509 15.2416 6.9054 15.3256 7.07657 15.4936C7.24775 15.6616 7.33333 15.868 7.33333 16.1128C7.33333 16.3576 7.24775 16.5616 7.07657 16.7248C6.91029 16.8928 6.69999 16.9768 6.44567 16.9768ZM13.5763 16.9768C13.3318 16.9768 13.1215 16.8928 12.9454 16.7248C12.7743 16.5568 12.6887 16.3528 12.6887 16.1128C12.6887 15.8728 12.7767 15.6664 12.9528 15.4936C13.1288 15.3256 13.3367 15.2416 13.5763 15.2416C13.8258 15.2416 14.0361 15.3256 14.2072 15.4936C14.3833 15.6616 14.4713 15.868 14.4713 16.1128C14.4713 16.3576 14.3858 16.5616 14.2146 16.7248C14.0434 16.8928 13.8307 16.9768 13.5763 16.9768ZM10.0183 19C9.76891 19 9.55861 18.9136 9.38744 18.7408C9.21626 18.5728 9.13067 18.3688 9.13067 18.1288C9.13067 17.8936 9.21626 17.6896 9.38744 17.5168C9.5635 17.344 9.7738 17.2576 10.0183 17.2576C10.2629 17.2576 10.4707 17.3416 10.6419 17.5096C10.8131 17.6776 10.8987 17.884 10.8987 18.1288C10.8987 18.3736 10.8131 18.58 10.6419 18.748C10.4756 18.916 10.2678 19 10.0183 19Z" fill="#252525"/>
</svg>