<svg xmlns="http://www.w3.org/2000/svg" width="20" height="20" viewBox="0 0 20 20" fill="none">
    <path d="M2.65231 17.3477C2.30375 16.9991 2.08379 16.6337 1.99242 16.2513C1.89766 15.8655 1.90612 15.4949 2.0178 15.1396C2.12947 14.7775 2.32236 14.4594 2.59647 14.1853C2.76906 14.0127 2.9518 13.8807 3.14469 13.7894C3.3342 13.6946 3.55247 13.6185 3.7995 13.5609C4.033 13.5034 4.17514 13.4086 4.2259 13.2767C4.28004 13.1413 4.24451 13.011 4.1193 12.8858L2.24114 11.0077C1.74369 10.5102 1.49665 10.006 1.50003 9.49498C1.50342 8.97722 1.75891 8.46453 2.26652 7.95692L3.62184 6.60161C3.74367 6.47978 3.87226 6.44594 4.00762 6.50009C4.14299 6.54746 4.23943 6.6879 4.29696 6.9214C4.35449 7.17521 4.42894 7.39855 4.52031 7.59145C4.61168 7.77757 4.74366 7.95692 4.91624 8.12951C5.19035 8.40362 5.50845 8.59651 5.87055 8.70819C6.22926 8.81648 6.59981 8.82494 6.98221 8.73357C7.368 8.63881 7.73347 8.41885 8.07865 8.07367C8.42382 7.7285 8.64209 7.36471 8.73346 6.98232C8.82822 6.59653 8.81976 6.22598 8.70808 5.87065C8.59641 5.50856 8.40352 5.19045 8.12941 4.91635C7.95682 4.74376 7.77747 4.61178 7.59134 4.52041C7.40184 4.42566 7.18018 4.34952 6.92638 4.29199C6.69288 4.23446 6.55075 4.1397 6.49998 4.00773C6.44922 3.86898 6.48476 3.73869 6.60658 3.61687L7.9619 2.26155C8.46612 1.75732 8.97712 1.50352 9.49488 1.50014C10.0093 1.49337 10.5152 1.73871 11.0126 2.23617L12.8908 4.11432C13.016 4.23953 13.1446 4.27676 13.2766 4.226C13.4119 4.17185 13.5067 4.02972 13.5608 3.79961C13.6217 3.54919 13.6996 3.32922 13.7943 3.13972C13.8857 2.94682 14.016 2.76578 14.1852 2.59657C14.4627 2.31908 14.7808 2.12619 15.1395 2.0179C15.4982 1.90284 15.8704 1.89269 16.2562 1.98744C16.6386 2.07881 17.0041 2.29878 17.3527 2.64733C17.6978 2.99251 17.9178 3.35799 18.0126 3.74377C18.1039 4.12617 18.0938 4.49842 17.9821 4.86051C17.8704 5.21584 17.6758 5.53225 17.3984 5.80974C17.2291 5.97894 17.0498 6.11092 16.8603 6.20568C16.6674 6.29704 16.4457 6.37319 16.1953 6.4341C15.9652 6.48824 15.8231 6.583 15.7689 6.71836C15.7182 6.85034 15.7554 6.97893 15.8806 7.10414L17.7588 8.9823C18.2596 9.48314 18.5066 9.99075 18.4999 10.5051C18.4931 11.0195 18.2376 11.5288 17.7334 12.033L16.3781 13.3883C16.2562 13.5102 16.1276 13.5474 15.9923 13.5C15.8603 13.4493 15.7655 13.3071 15.708 13.0736C15.6505 12.8198 15.5743 12.5982 15.4796 12.4087C15.3882 12.2225 15.2562 12.0432 15.0837 11.8706C14.8095 11.5965 14.4914 11.4036 14.1293 11.2919C13.7706 11.1769 13.4001 11.1684 13.0177 11.2665C12.6353 11.3579 12.2715 11.5762 11.9263 11.9214C11.5812 12.2665 11.3612 12.632 11.2664 13.0178C11.1717 13.3968 11.1801 13.7674 11.2918 14.1295C11.4035 14.4915 11.5964 14.8096 11.8705 15.0838C12.0431 15.2563 12.2224 15.3883 12.4086 15.4797C12.6014 15.5711 12.8248 15.6455 13.0786 15.703C13.3121 15.7606 13.4525 15.857 13.4999 15.9924C13.5507 16.1244 13.5151 16.2513 13.3933 16.3731L12.038 17.7284C11.5304 18.236 11.0194 18.4932 10.505 18.5C9.99403 18.5034 9.48811 18.2546 8.98727 17.7538L7.10912 15.8756C6.98391 15.7504 6.85362 15.7149 6.71826 15.769C6.58628 15.8198 6.49153 15.9619 6.434 16.1954C6.37647 16.4425 6.30202 16.6624 6.21065 16.8553C6.11589 17.0448 5.98222 17.2259 5.80964 17.3985C5.53553 17.6726 5.21912 17.8671 4.86041 17.9822C4.5017 18.0905 4.13114 18.099 3.74874 18.0076C3.36296 17.9128 2.99748 17.6929 2.65231 17.3477Z" fill="#252525"/>
</svg>
