<svg width="20" height="20" viewBox="0 0 20 20" fill="none" xmlns="http://www.w3.org/2000/svg">
<path fill-rule="evenodd" clip-rule="evenodd" d="M16 2.5H4C3.72386 2.5 3.5 2.72386 3.5 3V13C3.5 13.2761 3.72386 13.5 4 13.5H16C16.2761 13.5 16.5 13.2761 16.5 13V3C16.5 2.72386 16.2761 2.5 16 2.5ZM4 1C2.89543 1 2 1.89543 2 3V13C2 14.1046 2.89543 15 4 15H16C17.1046 15 18 14.1046 18 13V3C18 1.89543 17.1046 1 16 1H4Z" fill="#ACA996"/>
<path d="M4 17.25C4 16.8358 4.33579 16.5 4.75 16.5H15.25C15.6642 16.5 16 16.8358 16 17.25C16 17.6642 15.6642 18 15.25 18H4.75C4.33579 18 4 17.6642 4 17.25Z" fill="#ACA996"/>
</svg>