<svg width="20" height="20" viewBox="0 0 20 20" fill="none" xmlns="http://www.w3.org/2000/svg">
<path fill-rule="evenodd" clip-rule="evenodd" d="M16 4.5H4C3.72386 4.5 3.5 4.72386 3.5 5V7C3.5 7.27614 3.72386 7.5 4 7.5H16C16.2761 7.5 16.5 7.27614 16.5 7V5C16.5 4.72386 16.2761 4.5 16 4.5ZM4 3C2.89543 3 2 3.89543 2 5V7C2 8.10457 2.89543 9 4 9H16C17.1046 9 18 8.10457 18 7V5C18 3.89543 17.1046 3 16 3H4Z" fill="#ACA996"/>
<path fill-rule="evenodd" clip-rule="evenodd" d="M13.4384 10.2197C13.1455 10.5126 13.1455 10.9874 13.4384 11.2803L15.9081 13.75L13.4384 16.2197C13.1455 16.5126 13.1455 16.9874 13.4384 17.2803C13.7313 17.5732 14.2062 17.5732 14.4991 17.2803L18.0294 13.75L14.4991 10.2197C14.2062 9.92678 13.7313 9.92678 13.4384 10.2197Z" fill="#ACA996"/>
<path d="M15.9688 13H2V14.5H15.9688V13Z" fill="#ACA996"/>
</svg>
