<svg width="20" height="20" viewBox="0 0 20 20" fill="none" xmlns="http://www.w3.org/2000/svg">
<path fill-rule="evenodd" clip-rule="evenodd" d="M10 15.5C13.0376 15.5 15.5 13.0376 15.5 10C15.5 6.96243 13.0376 4.5 10 4.5C6.96243 4.5 4.5 6.96243 4.5 10C4.5 13.0376 6.96243 15.5 10 15.5ZM10 17C13.866 17 17 13.866 17 10C17 6.13401 13.866 3 10 3C6.13401 3 3 6.13401 3 10C3 13.866 6.13401 17 10 17Z" fill="#D4D4D4"/>
<path d="M9.25 1.75C9.25 1.33579 9.58579 1 10 1C10.4142 1 10.75 1.33579 10.75 1.75V10.11C10.75 10.5242 10.4142 10.86 10 10.86C9.58579 10.86 9.25 10.5242 9.25 10.11V1.75Z" fill="#D4D4D4"/>
<path d="M9.25 16.75C9.25 16.3358 9.58579 16 10 16C10.4142 16 10.75 16.3358 10.75 16.75V18.25C10.75 18.6642 10.4142 19 10 19C9.58579 19 9.25 18.6642 9.25 18.25V16.75Z" fill="#D4D4D4"/>
<path d="M5.22559 3.23057C5.01848 2.87185 5.14139 2.41316 5.5001 2.20605C5.85882 1.99895 6.31752 2.12185 6.52462 2.48057L7.27462 3.77961C7.48173 4.13833 7.35882 4.59702 7.0001 4.80413C6.64139 5.01124 6.18269 4.88833 5.97559 4.52961L5.22559 3.23057Z" fill="#D4D4D4"/>
<path d="M12.7256 16.2208C12.5185 15.8621 12.6414 15.4034 13.0001 15.1963C13.3588 14.9892 13.8175 15.1121 14.0246 15.4708L14.7746 16.7698C14.9817 17.1286 14.8588 17.5873 14.5001 17.7944C14.1414 18.0015 13.6827 17.8786 13.4756 17.5198L12.7256 16.2208Z" fill="#D4D4D4"/>
<path d="M2.48033 6.52441C2.12161 6.31731 1.9987 5.85861 2.20581 5.4999C2.41292 5.14118 2.87161 5.01827 3.23033 5.22538L4.52937 5.97538C4.88809 6.18248 5.01099 6.64118 4.80389 6.9999C4.59678 7.35861 4.13809 7.48152 3.77937 7.27441L2.48033 6.52441Z" fill="#D4D4D4"/>
<path d="M9.53135 10.5947C9.17264 10.3876 9.04973 9.92893 9.25684 9.57021C9.46394 9.21149 9.92264 9.08858 10.2814 9.29569L17.5198 13.4748C17.8785 13.6819 18.0014 14.1406 17.7943 14.4993C17.5872 14.858 17.1285 14.9809 16.7698 14.7738L9.53135 10.5947Z" fill="#D4D4D4"/>
<path d="M1.75 10.75C1.33579 10.75 1 10.4142 1 10C1 9.58579 1.33579 9.25 1.75 9.25H3.25C3.66421 9.25 4 9.58579 4 10C4 10.4142 3.66421 10.75 3.25 10.75H1.75Z" fill="#D4D4D4"/>
<path d="M16.75 10.75C16.3358 10.75 16 10.4142 16 10C16 9.58579 16.3358 9.25 16.75 9.25H18.25C18.6642 9.25 19 9.58579 19 10C19 10.4142 18.6642 10.75 18.25 10.75H16.75Z" fill="#D4D4D4"/>
<path d="M3.23033 14.7744C2.87161 14.9815 2.41292 14.8586 2.20581 14.4999C1.9987 14.1412 2.12161 13.6825 2.48033 13.4754L9.7203 9.29538C10.079 9.08827 10.5377 9.21118 10.7448 9.5699C10.9519 9.92861 10.829 10.3873 10.4703 10.5944L3.23033 14.7744Z" fill="#D4D4D4"/>
<path d="M16.2208 7.27441C15.8621 7.48152 15.4034 7.35861 15.1963 6.9999C14.9892 6.64118 15.1121 6.18248 15.4708 5.97538L16.7698 5.22538C17.1286 5.01827 17.5873 5.14118 17.7944 5.4999C18.0015 5.85861 17.8786 6.31731 17.5198 6.52441L16.2208 7.27441Z" fill="#D4D4D4"/>
<path d="M6.52466 17.5204C6.31755 17.8791 5.85886 18.002 5.50014 17.7949C5.14142 17.5878 5.01851 17.1291 5.22562 16.7704L5.97562 15.4714C6.18273 15.1126 6.64142 14.9897 7.00014 15.1968C7.35886 15.404 7.48177 15.8626 7.27466 16.2214L6.52466 17.5204Z" fill="#D4D4D4"/>
<path d="M14.0247 4.53017C13.8176 4.88889 13.3589 5.01179 13.0001 4.80469C12.6414 4.59758 12.5185 4.13889 12.7256 3.78017L13.4756 2.48113C13.6827 2.12241 14.1414 1.9995 14.5001 2.20661C14.8589 2.41372 14.9818 2.87241 14.7747 3.23113L14.0247 4.53017Z" fill="#D4D4D4"/>
</svg>