<svg width="20" height="20" viewBox="0 0 20 20" fill="none" xmlns="http://www.w3.org/2000/svg">
<path fill-rule="evenodd" clip-rule="evenodd" d="M10 15.5C13.0376 15.5 15.5 13.0376 15.5 10C15.5 6.96243 13.0376 4.5 10 4.5C6.96243 4.5 4.5 6.96243 4.5 10C4.5 13.0376 6.96243 15.5 10 15.5ZM10 17C13.866 17 17 13.866 17 10C17 6.13401 13.866 3 10 3C6.13401 3 3 6.13401 3 10C3 13.866 6.13401 17 10 17Z" fill="#CBC9BD"/>
<path d="M9.25 1.75C9.25 1.33579 9.58579 1 10 1C10.4142 1 10.75 1.33579 10.75 1.75V10.11C10.75 10.5242 10.4142 10.86 10 10.86C9.58579 10.86 9.25 10.5242 9.25 10.11V1.75Z" fill="#CBC9BD"/>
<path d="M9.25 16.75C9.25 16.3358 9.58579 16 10 16C10.4142 16 10.75 16.3358 10.75 16.75V18.25C10.75 18.6642 10.4142 19 10 19C9.58579 19 9.25 18.6642 9.25 18.25V16.75Z" fill="#CBC9BD"/>
<path d="M5.22546 3.23057C5.01836 2.87185 5.14126 2.41316 5.49998 2.20605C5.8587 1.99895 6.3174 2.12185 6.5245 2.48057L7.2745 3.77961C7.48161 4.13833 7.3587 4.59702 6.99998 4.80413C6.64126 5.01124 6.18257 4.88833 5.97546 4.52961L5.22546 3.23057Z" fill="#CBC9BD"/>
<path d="M12.7255 16.2208C12.5184 15.8621 12.6413 15.4034 13 15.1963C13.3587 14.9892 13.8174 15.1121 14.0245 15.4708L14.7745 16.7698C14.9816 17.1286 14.8587 17.5873 14.5 17.7944C14.1413 18.0015 13.6826 17.8786 13.4755 17.5198L12.7255 16.2208Z" fill="#CBC9BD"/>
<path d="M2.48033 6.5249C2.12161 6.3178 1.9987 5.8591 2.20581 5.50038C2.41292 5.14166 2.87161 5.01876 3.23033 5.22586L4.52937 5.97586C4.88809 6.18297 5.01099 6.64166 4.80389 7.00038C4.59678 7.3591 4.13809 7.48201 3.77937 7.2749L2.48033 6.5249Z" fill="#CBC9BD"/>
<path d="M9.53123 10.5957C9.17251 10.3886 9.04961 9.9299 9.25671 9.57118C9.46382 9.21246 9.92251 9.08956 10.2812 9.29667L17.5196 13.4758C17.8784 13.6829 18.0013 14.1416 17.7942 14.5003C17.587 14.859 17.1284 14.9819 16.7696 14.7748L9.53123 10.5957Z" fill="#CBC9BD"/>
<path d="M1.75 10.75C1.33579 10.75 1 10.4142 1 10C1 9.58579 1.33579 9.25 1.75 9.25H3.25C3.66421 9.25 4 9.58579 4 10C4 10.4142 3.66421 10.75 3.25 10.75H1.75Z" fill="#CBC9BD"/>
<path d="M16.75 10.75C16.3358 10.75 16 10.4142 16 10C16 9.58579 16.3358 9.25 16.75 9.25H18.25C18.6642 9.25 19 9.58579 19 10C19 10.4142 18.6642 10.75 18.25 10.75H16.75Z" fill="#CBC9BD"/>
<path d="M3.23033 14.7749C2.87161 14.982 2.41292 14.8591 2.20581 14.5004C1.9987 14.1417 2.12161 13.683 2.48033 13.4759L9.7203 9.29586C10.079 9.08876 10.5377 9.21166 10.7448 9.57038C10.9519 9.9291 10.829 10.3878 10.4703 10.5949L3.23033 14.7749Z" fill="#CBC9BD"/>
<path d="M16.2207 7.2749C15.862 7.48201 15.4033 7.3591 15.1962 7.00038C14.9891 6.64166 15.112 6.18297 15.4707 5.97586L16.7697 5.22586C17.1284 5.01876 17.5871 5.14166 17.7942 5.50038C18.0013 5.8591 17.8784 6.3178 17.5197 6.5249L16.2207 7.2749Z" fill="#CBC9BD"/>
<path d="M6.52454 17.5199C6.31743 17.8786 5.85874 18.0015 5.50002 17.7944C5.1413 17.5873 5.01839 17.1286 5.2255 16.7699L5.9755 15.4709C6.1826 15.1122 6.6413 14.9893 7.00002 15.1964C7.35874 15.4035 7.48164 15.8622 7.27454 16.2209L6.52454 17.5199Z" fill="#CBC9BD"/>
<path d="M14.0245 4.52968C13.8174 4.8884 13.3587 5.01131 13 4.8042C12.6413 4.59709 12.5184 4.1384 12.7255 3.77968L13.4755 2.48064C13.6826 2.12192 14.1413 1.99902 14.5 2.20612C14.8587 2.41323 14.9816 2.87192 14.7745 3.23064L14.0245 4.52968Z" fill="#CBC9BD"/>
</svg>
