<svg width="20" height="20" viewBox="0 0 20 20" fill="none" xmlns="http://www.w3.org/2000/svg">
<path d="M8.75011 12.909H10.4547V12.8238C10.4831 11.0624 10.9376 10.2954 12.1876 9.51414C13.4376 8.7542 14.1762 7.66045 14.1762 6.09084C14.1762 3.87493 12.5569 2.25562 10.0569 2.25562C7.75579 2.25562 5.93051 3.67607 5.82397 6.09084H7.61375C7.72028 4.41471 8.89216 3.73289 10.0569 3.73289C11.3922 3.73289 12.4717 4.61357 12.4717 6.00561C12.4717 7.13488 11.8254 7.94454 10.9944 8.4488C9.60238 9.29397 8.77142 10.1178 8.75011 12.8238V12.909ZM9.6592 17.1136C10.3623 17.1136 10.9376 16.5383 10.9376 15.8352C10.9376 15.132 10.3623 14.5568 9.6592 14.5568C8.95608 14.5568 8.38079 15.132 8.38079 15.8352C8.38079 16.5383 8.95608 17.1136 9.6592 17.1136Z" fill="#b6b6b6"/>
</svg>
