<svg width="56" height="56" viewBox="0 0 56 56" fill="none" xmlns="http://www.w3.org/2000/svg">
<mask id="path-1-inside-1_4290_12972" fill="white">
<path d="M24 29C25.6569 29 27 30.3431 27 32V40C27 41.6569 25.6569 43 24 43H14C12.3431 43 11 41.6569 11 40V32C11 30.3431 12.3431 29 14 29H24ZM42 29C43.6569 29 45 30.3431 45 32V40C45 41.6569 43.6569 43 42 43H32C30.3431 43 29 41.6569 29 40V32C29 30.3431 30.3431 29 32 29H42ZM24 13C25.6569 13 27 14.3431 27 16V24C27 25.6569 25.6569 27 24 27H14C12.3431 27 11 25.6569 11 24V16C11 14.3431 12.3431 13 14 13H24ZM42 13C43.6569 13 45 14.3431 45 16V24C45 25.6569 43.6569 27 42 27H32C30.3431 27 29 25.6569 29 24V16C29 14.3431 30.3431 13 32 13H42Z"/>
</mask>
<path d="M24 29C25.6569 29 27 30.3431 27 32V40C27 41.6569 25.6569 43 24 43H14C12.3431 43 11 41.6569 11 40V32C11 30.3431 12.3431 29 14 29H24ZM42 29C43.6569 29 45 30.3431 45 32V40C45 41.6569 43.6569 43 42 43H32C30.3431 43 29 41.6569 29 40V32C29 30.3431 30.3431 29 32 29H42ZM24 13C25.6569 13 27 14.3431 27 16V24C27 25.6569 25.6569 27 24 27H14C12.3431 27 11 25.6569 11 24V16C11 14.3431 12.3431 13 14 13H24ZM42 13C43.6569 13 45 14.3431 45 16V24C45 25.6569 43.6569 27 42 27H32C30.3431 27 29 25.6569 29 24V16C29 14.3431 30.3431 13 32 13H42Z" fill="#9BBCFF"/>
<path d="M11 32H9.5H11ZM11 16H9.5H11ZM24 29V30.5C24.8284 30.5 25.5 31.1716 25.5 32H27H28.5C28.5 29.5147 26.4853 27.5 24 27.5V29ZM27 32H25.5V40H27H28.5V32H27ZM27 40H25.5C25.5 40.8284 24.8284 41.5 24 41.5V43V44.5C26.4853 44.5 28.5 42.4853 28.5 40H27ZM24 43V41.5H14V43V44.5H24V43ZM14 43V41.5C13.1716 41.5 12.5 40.8284 12.5 40H11H9.5C9.5 42.4853 11.5147 44.5 14 44.5V43ZM11 40H12.5V32H11H9.5V40H11ZM11 32H12.5C12.5 31.1716 13.1716 30.5 14 30.5V29V27.5C11.5147 27.5 9.5 29.5147 9.5 32H11ZM14 29V30.5H24V29V27.5H14V29ZM42 29V30.5C42.8284 30.5 43.5 31.1716 43.5 32H45H46.5C46.5 29.5147 44.4853 27.5 42 27.5V29ZM45 32H43.5V40H45H46.5V32H45ZM45 40H43.5C43.5 40.8284 42.8284 41.5 42 41.5V43V44.5C44.4853 44.5 46.5 42.4853 46.5 40H45ZM42 43V41.5H32V43V44.5H42V43ZM32 43V41.5C31.1716 41.5 30.5 40.8284 30.5 40H29H27.5C27.5 42.4853 29.5147 44.5 32 44.5V43ZM29 40H30.5V32H29H27.5V40H29ZM29 32H30.5C30.5 31.1716 31.1716 30.5 32 30.5V29V27.5C29.5147 27.5 27.5 29.5147 27.5 32H29ZM32 29V30.5H42V29V27.5H32V29ZM24 13V14.5C24.8284 14.5 25.5 15.1716 25.5 16H27H28.5C28.5 13.5147 26.4853 11.5 24 11.5V13ZM27 16H25.5V24H27H28.5V16H27ZM27 24H25.5C25.5 24.8284 24.8284 25.5 24 25.5V27V28.5C26.4853 28.5 28.5 26.4853 28.5 24H27ZM24 27V25.5H14V27V28.5H24V27ZM14 27V25.5C13.1716 25.5 12.5 24.8284 12.5 24H11H9.5C9.5 26.4853 11.5147 28.5 14 28.5V27ZM11 24H12.5V16H11H9.5V24H11ZM11 16H12.5C12.5 15.1716 13.1716 14.5 14 14.5V13V11.5C11.5147 11.5 9.5 13.5147 9.5 16H11ZM14 13V14.5H24V13V11.5H14V13ZM42 13V14.5C42.8284 14.5 43.5 15.1716 43.5 16H45H46.5C46.5 13.5147 44.4853 11.5 42 11.5V13ZM45 16H43.5V24H45H46.5V16H45ZM45 24H43.5C43.5 24.8284 42.8284 25.5 42 25.5V27V28.5C44.4853 28.5 46.5 26.4853 46.5 24H45ZM42 27V25.5H32V27V28.5H42V27ZM32 27V25.5C31.1716 25.5 30.5 24.8284 30.5 24H29H27.5C27.5 26.4853 29.5147 28.5 32 28.5V27ZM29 24H30.5V16H29H27.5V24H29ZM29 16H30.5C30.5 15.1716 31.1716 14.5 32 14.5V13V11.5C29.5147 11.5 27.5 13.5147 27.5 16H29ZM32 13V14.5H42V13V11.5H32V13Z" fill="#377AFF" mask="url(#path-1-inside-1_4290_12972)"/>
</svg>
