<svg width="56" height="56" viewBox="0 0 56 56" fill="none" xmlns="http://www.w3.org/2000/svg">
<mask id="path-1-inside-1_4290_12972" fill="white">
<path fill-rule="evenodd" clip-rule="evenodd" d="M14 13C12.3431 13 11 14.3431 11 16V24C11 25.6569 12.3431 27 14 27H24C25.6569 27 27 25.6569 27 24V16C27 14.3431 25.6569 13 24 13H14ZM14 29C12.3431 29 11 30.3431 11 32V40C11 41.6569 12.3431 43 14 43H24C25.6569 43 27 41.6569 27 40V32C27 30.3431 25.6569 29 24 29H14ZM29 16C29 14.3431 30.3431 13 32 13H42C43.6569 13 45 14.3431 45 16V24C45 25.6569 43.6569 27 42 27H32C30.3431 27 29 25.6569 29 24V16ZM32 29C30.3431 29 29 30.3431 29 32V40C29 41.6569 30.3431 43 32 43H42C43.6569 43 45 41.6569 45 40V32C45 30.3431 43.6569 29 42 29H32Z"/>
</mask>
<path fill-rule="evenodd" clip-rule="evenodd" d="M14 13C12.3431 13 11 14.3431 11 16V24C11 25.6569 12.3431 27 14 27H24C25.6569 27 27 25.6569 27 24V16C27 14.3431 25.6569 13 24 13H14ZM14 29C12.3431 29 11 30.3431 11 32V40C11 41.6569 12.3431 43 14 43H24C25.6569 43 27 41.6569 27 40V32C27 30.3431 25.6569 29 24 29H14ZM29 16C29 14.3431 30.3431 13 32 13H42C43.6569 13 45 14.3431 45 16V24C45 25.6569 43.6569 27 42 27H32C30.3431 27 29 25.6569 29 24V16ZM32 29C30.3431 29 29 30.3431 29 32V40C29 41.6569 30.3431 43 32 43H42C43.6569 43 45 41.6569 45 40V32C45 30.3431 43.6569 29 42 29H32Z" fill="#9F6B00"/>
<path d="M12.5 16C12.5 15.1716 13.1716 14.5 14 14.5V11.5C11.5147 11.5 9.5 13.5147 9.5 16H12.5ZM12.5 24V16H9.5V24H12.5ZM14 25.5C13.1716 25.5 12.5 24.8284 12.5 24H9.5C9.5 26.4853 11.5147 28.5 14 28.5V25.5ZM24 25.5H14V28.5H24V25.5ZM25.5 24C25.5 24.8284 24.8284 25.5 24 25.5V28.5C26.4853 28.5 28.5 26.4853 28.5 24H25.5ZM25.5 16V24H28.5V16H25.5ZM24 14.5C24.8284 14.5 25.5 15.1716 25.5 16H28.5C28.5 13.5147 26.4853 11.5 24 11.5V14.5ZM14 14.5H24V11.5H14V14.5ZM12.5 32C12.5 31.1716 13.1716 30.5 14 30.5V27.5C11.5147 27.5 9.5 29.5147 9.5 32H12.5ZM12.5 40V32H9.5V40H12.5ZM14 41.5C13.1716 41.5 12.5 40.8284 12.5 40H9.5C9.5 42.4853 11.5147 44.5 14 44.5V41.5ZM24 41.5H14V44.5H24V41.5ZM25.5 40C25.5 40.8284 24.8284 41.5 24 41.5V44.5C26.4853 44.5 28.5 42.4853 28.5 40H25.5ZM25.5 32V40H28.5V32H25.5ZM24 30.5C24.8284 30.5 25.5 31.1716 25.5 32H28.5C28.5 29.5147 26.4853 27.5 24 27.5V30.5ZM14 30.5H24V27.5H14V30.5ZM32 11.5C29.5147 11.5 27.5 13.5147 27.5 16H30.5C30.5 15.1716 31.1716 14.5 32 14.5V11.5ZM42 11.5H32V14.5H42V11.5ZM46.5 16C46.5 13.5147 44.4853 11.5 42 11.5V14.5C42.8284 14.5 43.5 15.1716 43.5 16H46.5ZM46.5 24V16H43.5V24H46.5ZM42 28.5C44.4853 28.5 46.5 26.4853 46.5 24H43.5C43.5 24.8284 42.8284 25.5 42 25.5V28.5ZM32 28.5H42V25.5H32V28.5ZM27.5 24C27.5 26.4853 29.5147 28.5 32 28.5V25.5C31.1716 25.5 30.5 24.8284 30.5 24H27.5ZM27.5 16V24H30.5V16H27.5ZM30.5 32C30.5 31.1716 31.1716 30.5 32 30.5V27.5C29.5147 27.5 27.5 29.5147 27.5 32H30.5ZM30.5 40V32H27.5V40H30.5ZM32 41.5C31.1716 41.5 30.5 40.8284 30.5 40H27.5C27.5 42.4853 29.5147 44.5 32 44.5V41.5ZM42 41.5H32V44.5H42V41.5ZM43.5 40C43.5 40.8284 42.8284 41.5 42 41.5V44.5C44.4853 44.5 46.5 42.4853 46.5 40H43.5ZM43.5 32V40H46.5V32H43.5ZM42 30.5C42.8284 30.5 43.5 31.1716 43.5 32H46.5C46.5 29.5147 44.4853 27.5 42 27.5V30.5ZM32 30.5H42V27.5H32V30.5Z" fill="#FFB522" mask="url(#path-1-inside-1_4290_12972)"/>
</svg>
