<svg width="56" height="56" viewBox="0 0 56 56" fill="none" xmlns="http://www.w3.org/2000/svg">
<mask id="path-1-inside-1_4290_13009" fill="white">
<path d="M23 13C24.6569 13 26 14.3431 26 16V40C26 41.6569 24.6569 43 23 43H14C12.3431 43 11 41.6569 11 40V16C11 14.3431 12.3431 13 14 13H23ZM42 13C43.6569 13 45 14.3431 45 16V30C45 31.6569 43.6569 33 42 33H33C31.3431 33 30 31.6569 30 30V16C30 14.3431 31.3431 13 33 13H42Z"/>
</mask>
<path d="M23 13C24.6569 13 26 14.3431 26 16V40C26 41.6569 24.6569 43 23 43H14C12.3431 43 11 41.6569 11 40V16C11 14.3431 12.3431 13 14 13H23ZM42 13C43.6569 13 45 14.3431 45 16V30C45 31.6569 43.6569 33 42 33H33C31.3431 33 30 31.6569 30 30V16C30 14.3431 31.3431 13 33 13H42Z" fill="#9BBCFF"/>
<path d="M11 16L9.5 16V16H11ZM23 13V14.5C23.8284 14.5 24.5 15.1716 24.5 16H26H27.5C27.5 13.5147 25.4853 11.5 23 11.5V13ZM26 16H24.5V40H26H27.5V16H26ZM26 40H24.5C24.5 40.8284 23.8284 41.5 23 41.5V43V44.5C25.4853 44.5 27.5 42.4853 27.5 40H26ZM23 43V41.5H14V43V44.5H23V43ZM14 43V41.5C13.1716 41.5 12.5 40.8284 12.5 40H11H9.5C9.5 42.4853 11.5147 44.5 14 44.5V43ZM11 40H12.5V16H11H9.5V40H11ZM11 16L12.5 16C12.5 15.1716 13.1716 14.5 14 14.5V13V11.5C11.5147 11.5 9.5 13.5147 9.5 16L11 16ZM14 13V14.5H23V13V11.5H14V13ZM42 13V14.5C42.8284 14.5 43.5 15.1716 43.5 16H45H46.5C46.5 13.5147 44.4853 11.5 42 11.5V13ZM45 16H43.5V30H45H46.5V16H45ZM45 30H43.5C43.5 30.8284 42.8284 31.5 42 31.5V33V34.5C44.4853 34.5 46.5 32.4853 46.5 30H45ZM42 33V31.5H33V33V34.5H42V33ZM33 33V31.5C32.1716 31.5 31.5 30.8284 31.5 30H30H28.5C28.5 32.4853 30.5147 34.5 33 34.5V33ZM30 30H31.5V16H30H28.5V30H30ZM30 16H31.5C31.5 15.1716 32.1716 14.5 33 14.5V13V11.5C30.5147 11.5 28.5 13.5147 28.5 16H30ZM33 13V14.5H42V13V11.5H33V13Z" fill="#377AFF" mask="url(#path-1-inside-1_4290_13009)"/>
</svg>
