<svg width="20" height="20" viewBox="0 0 20 20" fill="none" xmlns="http://www.w3.org/2000/svg">
<path fill-rule="evenodd" clip-rule="evenodd" d="M16.4 5.5H3.6C3.54477 5.5 3.5 5.54477 3.5 5.6V14.4C3.5 14.4552 3.54477 14.5 3.6 14.5H16.4C16.4552 14.5 16.5 14.4552 16.5 14.4V5.6C16.5 5.54477 16.4552 5.5 16.4 5.5ZM3.6 4C2.71634 4 2 4.71635 2 5.6V14.4C2 15.2837 2.71634 16 3.6 16H16.4C17.2837 16 18 15.2837 18 14.4V5.6C18 4.71634 17.2837 4 16.4 4H3.6Z" fill="#ACA996"/>
<path fill-rule="evenodd" clip-rule="evenodd" d="M2.59326 6.56962L3.407 5.43039L10.0001 10.1398L16.5933 5.43039L17.407 6.56962L10.0001 11.8602L2.59326 6.56962Z" fill="#ACA996"/>
</svg>