<svg width="20" height="21" viewBox="0 0 20 21" fill="none" xmlns="http://www.w3.org/2000/svg">
<circle cx="9.9707" cy="8.16431" r="2" fill="#ACA996"/>
<path fill-rule="evenodd" clip-rule="evenodd" d="M10 16.6643C13.5899 16.6643 16.5 13.7542 16.5 10.1643C16.5 6.57446 13.5899 3.66431 10 3.66431C6.41015 3.66431 3.5 6.57446 3.5 10.1643C3.5 13.7542 6.41015 16.6643 10 16.6643ZM10 18.1643C14.4183 18.1643 18 14.5826 18 10.1643C18 5.74603 14.4183 2.16431 10 2.16431C5.58172 2.16431 2 5.74603 2 10.1643C2 14.5826 5.58172 18.1643 10 18.1643Z" fill="#ACA996"/>
<path fill-rule="evenodd" clip-rule="evenodd" d="M5.98535 13.1456C6.89838 11.9418 8.3442 11.1643 9.9716 11.1643C11.6158 11.1643 13.0746 11.9579 13.9859 13.183C13.0729 14.3868 11.6271 15.1643 9.9997 15.1643C8.3555 15.1643 6.89666 14.3707 5.98535 13.1456Z" fill="#ACA996"/>
</svg>
