<svg width="20" height="20" viewBox="0 0 20 20" fill="none" xmlns="http://www.w3.org/2000/svg">
<path fill-rule="evenodd" clip-rule="evenodd" d="M10 16.5C13.5899 16.5 16.5 13.5899 16.5 10C16.5 6.41015 13.5899 3.5 10 3.5C6.41015 3.5 3.5 6.41015 3.5 10C3.5 13.5899 6.41015 16.5 10 16.5ZM10 18C14.4183 18 18 14.4183 18 10C18 5.58172 14.4183 2 10 2C5.58172 2 2 5.58172 2 10C2 14.4183 5.58172 18 10 18Z" fill="#ACA996"/>
<path fill-rule="evenodd" clip-rule="evenodd" d="M6.46967 8.46967C6.76256 8.17678 7.23744 8.17678 7.53033 8.46967L10 10.9393L12.4697 8.46967C12.7626 8.17678 13.2374 8.17678 13.5303 8.46967C13.8232 8.76256 13.8232 9.23744 13.5303 9.53033L10 13.0607L6.46967 9.53033C6.17678 9.23744 6.17678 8.76256 6.46967 8.46967Z" fill="#ACA996"/>
</svg>