<svg width="20" height="20" viewBox="0 0 20 20" fill="none" xmlns="http://www.w3.org/2000/svg">
<path fill-rule="evenodd" clip-rule="evenodd" d="M5.5 10.5H4.5V15.5H5.5V10.5ZM4.5 9C3.67157 9 3 9.67157 3 10.5V15.5C3 16.3284 3.67157 17 4.5 17H5.5C6.32843 17 7 16.3284 7 15.5V10.5C7 9.67157 6.32843 9 5.5 9H4.5Z" fill="#ACA996"/>
<path fill-rule="evenodd" clip-rule="evenodd" d="M10.5 7.5H9.5V15.5H10.5V7.5ZM9.5 6C8.67157 6 8 6.67157 8 7.5V15.5C8 16.3284 8.67157 17 9.5 17H10.5C11.3284 17 12 16.3284 12 15.5V7.5C12 6.67157 11.3284 6 10.5 6H9.5Z" fill="#ACA996"/>
<path fill-rule="evenodd" clip-rule="evenodd" d="M15.5 4.5H14.5V15.5H15.5V4.5ZM14.5 3C13.6716 3 13 3.67157 13 4.5V15.5C13 16.3284 13.6716 17 14.5 17H15.5C16.3284 17 17 16.3284 17 15.5V4.5C17 3.67157 16.3284 3 15.5 3H14.5Z" fill="#ACA996"/>
</svg>