<svg width="20" height="20" viewBox="0 0 20 20" fill="none" xmlns="http://www.w3.org/2000/svg">
<path fill-rule="evenodd" clip-rule="evenodd" d="M10.6214 3.49986L3.62134 10.4999L9.49999 16.3786L16.5 9.37815L16.5 6.12116L13.8787 3.49951L10.6214 3.49986ZM2.56068 9.43924C1.97489 10.025 1.97489 10.9748 2.56068 11.5606L8.43933 17.4392C9.02513 18.025 9.9749 18.025 10.5607 17.4392L17.5607 10.4388C17.842 10.1575 18 9.77596 18 9.37815L18 6.12116C18 5.72337 17.842 5.34187 17.5607 5.06057L14.9394 2.43893C14.6581 2.15754 14.2765 1.99947 13.8785 1.99951L10.6212 1.99986C10.2234 1.99991 9.84198 2.15794 9.56072 2.4392L2.56068 9.43924Z" fill="#ACA996"/>
<circle cx="13" cy="7" r="1.5" fill="#ACA996"/>
</svg>