<svg width="20" height="20" viewBox="0 0 20 20" fill="none" xmlns="http://www.w3.org/2000/svg">
<path fill-rule="evenodd" clip-rule="evenodd" d="M13.8895 10.3538L15.3034 8.9398C16.475 7.76822 16.475 5.86873 15.3034 4.69715C14.1319 3.52558 12.2324 3.52558 11.0608 4.69715L8.93949 6.81848C7.76792 7.99005 7.76792 9.88954 8.93949 11.0611C9.44476 11.5664 10.0854 11.8537 10.7447 11.9232C10.6494 12.1228 10.519 12.3099 10.3537 12.4753L10.0249 12.804C9.36827 12.6287 8.74755 12.2834 8.23238 11.7682C6.67028 10.2061 6.67028 7.67347 8.23238 6.11137L10.3537 3.99005C11.9158 2.42795 14.4485 2.42795 16.0106 3.99005C17.5727 5.55215 17.5727 8.08481 16.0106 9.6469L13.8895 11.7679C13.9561 11.2991 13.9561 10.8226 13.8895 10.3538Z" fill="#B6B6B6"/>
<path fill-rule="evenodd" clip-rule="evenodd" d="M6.11102 9.6472L4.69704 11.0612C3.52547 12.2328 3.52547 14.1322 4.69704 15.3038C5.86861 16.4754 7.76811 16.4754 8.93968 15.3038L11.061 13.1825C12.2326 12.0109 12.2326 10.1114 11.061 8.93986C10.5557 8.43459 9.91506 8.14723 9.25579 8.07778C9.35113 7.87814 9.48147 7.69104 9.64682 7.52568L9.97556 7.19695C10.6322 7.37232 11.2529 7.71759 11.7681 8.23275C13.3302 9.79485 13.3302 12.3275 11.7681 13.8896L9.64679 16.0109C8.08469 17.573 5.55203 17.573 3.98993 16.0109C2.42784 14.4488 2.42784 11.9162 3.98993 10.3541L6.11096 8.23305C6.04438 8.70189 6.0444 9.17837 6.11102 9.6472Z" fill="#B6B6B6"/>
</svg>
