<svg width="18" height="16" viewBox="0 0 18 16" fill="none" xmlns="http://www.w3.org/2000/svg">
<path d="M15.9875 11.0528C16.3561 11.237 16.3561 11.763 15.9875 11.9472L9.22361 15.3292C9.08284 15.3996 8.91716 15.3996 8.77639 15.3292L2.01246 11.9472C1.64394 11.763 1.64393 11.237 2.01246 11.0528L8.77639 7.67082C8.91716 7.60044 9.08284 7.60044 9.22361 7.67082L15.9875 11.0528Z" fill="white"/>
<path d="M15.9875 11.0528C16.3561 11.237 16.3561 11.763 15.9875 11.9472L9.22361 15.3292C9.08284 15.3996 8.91716 15.3996 8.77639 15.3292L2.01246 11.9472C1.64394 11.763 1.64393 11.237 2.01246 11.0528L8.77639 7.67082C8.91716 7.60044 9.08284 7.60044 9.22361 7.67082L15.9875 11.0528Z" fill="white"/>
<path d="M15.9875 11.0528C16.3561 11.237 16.3561 11.763 15.9875 11.9472L9.22361 15.3292C9.08284 15.3996 8.91716 15.3996 8.77639 15.3292L2.01246 11.9472C1.64394 11.763 1.64393 11.237 2.01246 11.0528L8.77639 7.67082C8.91716 7.60044 9.08284 7.60044 9.22361 7.67082L15.9875 11.0528Z" fill="white"/>
<path d="M15.9875 11.0528C16.3561 11.237 16.3561 11.763 15.9875 11.9472L9.22361 15.3292C9.08284 15.3996 8.91716 15.3996 8.77639 15.3292L2.01246 11.9472C1.64394 11.763 1.64393 11.237 2.01246 11.0528L8.77639 7.67082C8.91716 7.60044 9.08284 7.60044 9.22361 7.67082L15.9875 11.0528Z" stroke="#B6B6B6"/>
<path d="M15.9875 7.55279C16.3561 7.73705 16.3561 8.26295 15.9875 8.44721L9.22361 11.8292C9.08284 11.8996 8.91716 11.8996 8.77639 11.8292L2.01246 8.44721C1.64394 8.26295 1.64393 7.73705 2.01246 7.55279L8.77639 4.17082C8.91716 4.10044 9.08284 4.10044 9.22361 4.17082L15.9875 7.55279Z" fill="white"/>
<path d="M15.9875 7.55279C16.3561 7.73705 16.3561 8.26295 15.9875 8.44721L9.22361 11.8292C9.08284 11.8996 8.91716 11.8996 8.77639 11.8292L2.01246 8.44721C1.64394 8.26295 1.64393 7.73705 2.01246 7.55279L8.77639 4.17082C8.91716 4.10044 9.08284 4.10044 9.22361 4.17082L15.9875 7.55279Z" fill="white"/>
<path d="M15.9875 7.55279C16.3561 7.73705 16.3561 8.26295 15.9875 8.44721L9.22361 11.8292C9.08284 11.8996 8.91716 11.8996 8.77639 11.8292L2.01246 8.44721C1.64394 8.26295 1.64393 7.73705 2.01246 7.55279L8.77639 4.17082C8.91716 4.10044 9.08284 4.10044 9.22361 4.17082L15.9875 7.55279Z" fill="white"/>
<path d="M15.9875 7.55279C16.3561 7.73705 16.3561 8.26295 15.9875 8.44721L9.22361 11.8292C9.08284 11.8996 8.91716 11.8996 8.77639 11.8292L2.01246 8.44721C1.64394 8.26295 1.64393 7.73705 2.01246 7.55279L8.77639 4.17082C8.91716 4.10044 9.08284 4.10044 9.22361 4.17082L15.9875 7.55279Z" stroke="#B6B6B6"/>
<path d="M15.9875 4.05279C16.3561 4.23705 16.3561 4.76295 15.9875 4.94721L9.22361 8.32918C9.08284 8.39956 8.91716 8.39956 8.77639 8.32918L2.01246 4.94721C1.64394 4.76295 1.64393 4.23705 2.01246 4.05279L8.77639 0.67082C8.91716 0.600439 9.08284 0.600439 9.22361 0.67082L15.9875 4.05279Z" fill="white"/>
<path d="M15.9875 4.05279C16.3561 4.23705 16.3561 4.76295 15.9875 4.94721L9.22361 8.32918C9.08284 8.39956 8.91716 8.39956 8.77639 8.32918L2.01246 4.94721C1.64394 4.76295 1.64393 4.23705 2.01246 4.05279L8.77639 0.67082C8.91716 0.600439 9.08284 0.600439 9.22361 0.67082L15.9875 4.05279Z" fill="white"/>
<path d="M15.9875 4.05279C16.3561 4.23705 16.3561 4.76295 15.9875 4.94721L9.22361 8.32918C9.08284 8.39956 8.91716 8.39956 8.77639 8.32918L2.01246 4.94721C1.64394 4.76295 1.64393 4.23705 2.01246 4.05279L8.77639 0.67082C8.91716 0.600439 9.08284 0.600439 9.22361 0.67082L15.9875 4.05279Z" fill="white"/>
<path d="M15.9875 4.05279C16.3561 4.23705 16.3561 4.76295 15.9875 4.94721L9.22361 8.32918C9.08284 8.39956 8.91716 8.39956 8.77639 8.32918L2.01246 4.94721C1.64394 4.76295 1.64393 4.23705 2.01246 4.05279L8.77639 0.67082C8.91716 0.600439 9.08284 0.600439 9.22361 0.67082L15.9875 4.05279Z" stroke="#B6B6B6"/>
</svg>
