<svg width="20" height="20" viewBox="0 0 20 20" fill="none" xmlns="http://www.w3.org/2000/svg">
<g clip-path="url(#clip0_6542_2567)">
<rect x="10" y="2.22176" width="11" height="11" rx="1" transform="rotate(45 10 2.22176)" stroke="#B6B6B6"/>
<mask id="path-2-inside-1_6542_2567" fill="white">
<path fill-rule="evenodd" clip-rule="evenodd" d="M15.502 6.97273C15.8176 6.88238 16.1153 6.71291 16.3639 6.46432C17.145 5.68327 17.145 4.41694 16.3639 3.63589C15.5829 2.85484 14.3165 2.85484 13.5355 3.63589C13.2869 3.88449 13.1174 4.18224 13.0271 4.49786L12.2981 5.22688L13.5355 6.46432L14.7729 7.70176L15.502 6.97273Z"/>
</mask>
<path fill-rule="evenodd" clip-rule="evenodd" d="M15.502 6.97273C15.8176 6.88238 16.1153 6.71291 16.3639 6.46432C17.145 5.68327 17.145 4.41694 16.3639 3.63589C15.5829 2.85484 14.3165 2.85484 13.5355 3.63589C13.2869 3.88449 13.1174 4.18224 13.0271 4.49786L12.2981 5.22688L13.5355 6.46432L14.7729 7.70176L15.502 6.97273Z" fill="white"/>
<path d="M15.502 6.97273L15.2268 6.01135L14.9779 6.08258L14.7948 6.26562L15.502 6.97273ZM13.0271 4.49786L13.7342 5.20496L13.9172 5.02192L13.9885 4.77306L13.0271 4.49786ZM12.2981 5.22688L11.5909 4.51978L10.8838 5.22688L11.5909 5.93399L12.2981 5.22688ZM14.7729 7.70176L14.0658 8.40886L14.7729 9.11597L15.48 8.40886L14.7729 7.70176ZM15.6568 5.75721C15.5313 5.88272 15.3833 5.96652 15.2268 6.01135L15.7772 7.93412C16.2518 7.79824 16.6993 7.54311 17.071 7.17143L15.6568 5.75721ZM15.6568 4.343C16.0473 4.73352 16.0473 5.36669 15.6568 5.75721L17.071 7.17143C18.2426 5.99985 18.2426 4.10036 17.071 2.92879L15.6568 4.343ZM14.2426 4.343C14.6331 3.95248 15.2663 3.95248 15.6568 4.343L17.071 2.92879C15.8995 1.75721 14 1.75721 12.8284 2.92879L14.2426 4.343ZM13.9885 4.77306C14.0333 4.61648 14.1171 4.46851 14.2426 4.343L12.8284 2.92879C12.4567 3.30047 12.2016 3.748 12.0657 4.22265L13.9885 4.77306ZM13.0052 5.93399L13.7342 5.20496L12.32 3.79075L11.5909 4.51978L13.0052 5.93399ZM14.2426 5.75721L13.0052 4.51978L11.5909 5.93399L12.8284 7.17143L14.2426 5.75721ZM15.48 6.99465L14.2426 5.75721L12.8284 7.17143L14.0658 8.40886L15.48 6.99465ZM14.7948 6.26562L14.0658 6.99465L15.48 8.40886L16.2091 7.67984L14.7948 6.26562Z" fill="#B6B6B6" mask="url(#path-2-inside-1_6542_2567)"/>
<rect x="14.4194" y="4.51978" width="1.5" height="2" transform="rotate(45 14.4194 4.51978)" fill="white"/>
<mask id="path-5-inside-2_6542_2567" fill="white">
<path fill-rule="evenodd" clip-rule="evenodd" d="M5.24895 7.72364C5.3393 8.03926 5.50877 8.33701 5.75736 8.5856C6.53841 9.36665 7.80474 9.36665 8.58579 8.5856C9.36684 7.80455 9.36684 6.53822 8.58579 5.75717C8.33719 5.50858 8.03944 5.33911 7.72382 5.24876L6.9948 4.51974L5.75736 5.75717L4.51992 6.99461L5.24895 7.72364Z"/>
</mask>
<path fill-rule="evenodd" clip-rule="evenodd" d="M5.24895 7.72364C5.3393 8.03926 5.50877 8.33701 5.75736 8.5856C6.53841 9.36665 7.80474 9.36665 8.58579 8.5856C9.36684 7.80455 9.36684 6.53822 8.58579 5.75717C8.33719 5.50858 8.03944 5.33911 7.72382 5.24876L6.9948 4.51974L5.75736 5.75717L4.51992 6.99461L5.24895 7.72364Z" fill="white"/>
<path d="M5.24895 7.72364L6.21033 7.44843L6.1391 7.19957L5.95606 7.01653L5.24895 7.72364ZM7.72382 5.24876L7.01672 5.95587L7.19976 6.13891L7.44862 6.21015L7.72382 5.24876ZM6.9948 4.51974L7.7019 3.81263L6.9948 3.10552L6.28769 3.81263L6.9948 4.51974ZM4.51992 6.99461L3.81282 6.2875L3.10571 6.99461L3.81282 7.70172L4.51992 6.99461ZM6.46447 7.87849C6.33896 7.75299 6.25516 7.60501 6.21033 7.44843L4.28756 7.99884C4.42344 8.4735 4.67857 8.92103 5.05025 9.29271L6.46447 7.87849ZM7.87868 7.87849C7.48816 8.26902 6.85499 8.26902 6.46447 7.87849L5.05025 9.29271C6.22183 10.4643 8.12132 10.4643 9.29289 9.29271L7.87868 7.87849ZM7.87868 6.46428C8.2692 6.8548 8.2692 7.48797 7.87868 7.87849L9.29289 9.29271C10.4645 8.12113 10.4645 6.22164 9.29289 5.05007L7.87868 6.46428ZM7.44862 6.21015C7.6052 6.25497 7.75317 6.33877 7.87868 6.46428L9.29289 5.05007C8.92121 4.67839 8.47368 4.42325 7.99903 4.28738L7.44862 6.21015ZM6.28769 5.22684L7.01672 5.95587L8.43093 4.54166L7.7019 3.81263L6.28769 5.22684ZM6.46447 6.46428L7.7019 5.22684L6.28769 3.81263L5.05025 5.05007L6.46447 6.46428ZM5.22703 7.70172L6.46447 6.46428L5.05025 5.05007L3.81282 6.2875L5.22703 7.70172ZM5.95606 7.01653L5.22703 6.2875L3.81282 7.70172L4.54184 8.43074L5.95606 7.01653Z" fill="#B6B6B6" mask="url(#path-5-inside-2_6542_2567)"/>
<rect x="7.70166" y="6.64111" width="1.5" height="2" transform="rotate(135 7.70166 6.64111)" fill="white"/>
<mask id="path-8-inside-3_6542_2567" fill="white">
<path fill-rule="evenodd" clip-rule="evenodd" d="M12.2759 14.7511C11.9603 14.6607 11.6625 14.4912 11.4139 14.2426C10.6329 13.4616 10.6329 12.1953 11.4139 11.4142C12.195 10.6332 13.4613 10.6332 14.2423 11.4142C14.4909 11.6628 14.6604 11.9606 14.7507 12.2762L15.4798 13.0052L14.2423 14.2426L13.0049 15.4801L12.2759 14.7511Z"/>
</mask>
<path fill-rule="evenodd" clip-rule="evenodd" d="M12.2759 14.7511C11.9603 14.6607 11.6625 14.4912 11.4139 14.2426C10.6329 13.4616 10.6329 12.1953 11.4139 11.4142C12.195 10.6332 13.4613 10.6332 14.2423 11.4142C14.4909 11.6628 14.6604 11.9606 14.7507 12.2762L15.4798 13.0052L14.2423 14.2426L13.0049 15.4801L12.2759 14.7511Z" fill="white"/>
<path d="M12.2759 14.7511L12.5511 13.7897L12.7999 13.8609L12.983 14.0439L12.2759 14.7511ZM14.7507 12.2762L14.0436 12.9833L13.8606 12.8002L13.7894 12.5514L14.7507 12.2762ZM15.4798 13.0052L16.1869 12.2981L16.894 13.0052L16.1869 13.7123L15.4798 13.0052ZM13.0049 15.4801L13.712 16.1872L13.0049 16.8943L12.2978 16.1872L13.0049 15.4801ZM12.121 13.5355C12.2465 13.661 12.3945 13.7448 12.5511 13.7897L12.0007 15.7124C11.526 15.5766 11.0785 15.3214 10.7068 14.9497L12.121 13.5355ZM12.121 12.1213C11.7305 12.5118 11.7305 13.145 12.121 13.5355L10.7068 14.9497C9.53523 13.7782 9.53523 11.8787 10.7068 10.7071L12.121 12.1213ZM13.5352 12.1213C13.1447 11.7308 12.5115 11.7308 12.121 12.1213L10.7068 10.7071C11.8784 9.53553 13.7779 9.53553 14.9494 10.7071L13.5352 12.1213ZM13.7894 12.5514C13.7445 12.3948 13.6607 12.2468 13.5352 12.1213L14.9494 10.7071C15.3211 11.0788 15.5763 11.5263 15.7121 12.001L13.7894 12.5514ZM14.7727 13.7123L14.0436 12.9833L15.4579 11.5691L16.1869 12.2981L14.7727 13.7123ZM13.5352 13.5355L14.7727 12.2981L16.1869 13.7123L14.9494 14.9497L13.5352 13.5355ZM12.2978 14.773L13.5352 13.5355L14.9494 14.9497L13.712 16.1872L12.2978 14.773ZM12.983 14.0439L13.712 14.773L12.2978 16.1872L11.5688 15.4582L12.983 14.0439Z" fill="#B6B6B6" mask="url(#path-8-inside-3_6542_2567)"/>
<rect width="1.5" height="2" transform="matrix(-0.707107 0.707107 0.707107 0.707107 13.3584 12.2981)" fill="white"/>
<mask id="path-11-inside-4_6542_2567" fill="white">
<path fill-rule="evenodd" clip-rule="evenodd" d="M6.97224 15.502C6.88189 15.8176 6.71242 16.1153 6.46383 16.3639C5.68278 17.145 4.41645 17.145 3.6354 16.3639C2.85436 15.5829 2.85436 14.3165 3.6354 13.5355C3.884 13.2869 4.18175 13.1174 4.49737 13.0271L5.2264 12.2981L6.46383 13.5355L7.70127 14.7729L6.97224 15.502Z"/>
</mask>
<path fill-rule="evenodd" clip-rule="evenodd" d="M6.97224 15.502C6.88189 15.8176 6.71242 16.1153 6.46383 16.3639C5.68278 17.145 4.41645 17.145 3.6354 16.3639C2.85436 15.5829 2.85436 14.3165 3.6354 13.5355C3.884 13.2869 4.18175 13.1174 4.49737 13.0271L5.2264 12.2981L6.46383 13.5355L7.70127 14.7729L6.97224 15.502Z" fill="white"/>
<path d="M6.97224 15.502L6.01086 15.2268L6.0821 14.9779L6.26514 14.7948L6.97224 15.502ZM4.49737 13.0271L5.20448 13.7342L5.02144 13.9172L4.77257 13.9885L4.49737 13.0271ZM5.2264 12.2981L4.51929 11.5909L5.2264 10.8838L5.9335 11.5909L5.2264 12.2981ZM7.70127 14.7729L8.40838 14.0658L9.11548 14.7729L8.40838 15.48L7.70127 14.7729ZM5.75673 15.6568C5.88223 15.5313 5.96603 15.3833 6.01086 15.2268L7.93363 15.7772C7.79775 16.2518 7.54262 16.6993 7.17094 17.071L5.75673 15.6568ZM4.34251 15.6568C4.73304 16.0473 5.3662 16.0473 5.75673 15.6568L7.17094 17.071C5.99937 18.2426 4.09987 18.2426 2.9283 17.071L4.34251 15.6568ZM4.34251 14.2426C3.95199 14.6331 3.95199 15.2663 4.34251 15.6568L2.9283 17.071C1.75673 15.8995 1.75673 14 2.9283 12.8284L4.34251 14.2426ZM4.77257 13.9885C4.61599 14.0333 4.46802 14.1171 4.34251 14.2426L2.9283 12.8284C3.29998 12.4567 3.74751 12.2016 4.22217 12.0657L4.77257 13.9885ZM5.9335 13.0052L5.20448 13.7342L3.79026 12.32L4.51929 11.5909L5.9335 13.0052ZM5.75673 14.2426L4.51929 13.0052L5.9335 11.5909L7.17094 12.8284L5.75673 14.2426ZM6.99416 15.48L5.75673 14.2426L7.17094 12.8284L8.40838 14.0658L6.99416 15.48ZM6.26514 14.7948L6.99416 14.0658L8.40838 15.48L7.67935 16.2091L6.26514 14.7948Z" fill="#B6B6B6" mask="url(#path-11-inside-4_6542_2567)"/>
<rect width="1.5" height="2" transform="matrix(0.707107 0.707107 0.707107 -0.707107 4.51953 14.4194)" fill="white"/>
</g>
<defs>
<clipPath id="clip0_6542_2567">
<rect width="20" height="20" fill="white"/>
</clipPath>
</defs>
</svg>
