<svg width="18" height="18" viewBox="0 0 18 18" fill="none" xmlns="http://www.w3.org/2000/svg">
<g clip-path="url(#clip0)">
<rect y="0.0302734" width="18" height="18" rx="3" fill="#8C9EA5"/>
<path fill-rule="evenodd" clip-rule="evenodd" d="M8.98438 0H10.9844V1H9V2H7V1H8.98438V0ZM9 3V2H11V3H9ZM9 4H7V3H9V4ZM9 5V4H11V5H9ZM9 6H7V5H9V6ZM9 7V6H11V7H9ZM9 8H7V7H9V8ZM9 8H11V8.98438V9V15H7V8.98438H9V8ZM10 14V13H8V14H10Z" fill="white"/>
</g>
<defs>
<clipPath id="clip0">
<rect width="18" height="18" fill="white"/>
</clipPath>
</defs>
</svg>