<svg width="20" height="20" viewBox="0 0 20 20" fill="none" xmlns="http://www.w3.org/2000/svg">
<path d="M2 1.5C2 0.671573 2.67157 0 3.5 0H16.5C17.3284 0 18 0.671573 18 1.5V18.5C18 19.3284 17.3284 20 16.5 20H3.5C2.67157 20 2 19.3284 2 18.5V1.5Z" fill="#F2F2F2"/>
<path fill-rule="evenodd" clip-rule="evenodd" d="M18 18.5C18 18.7761 17.3284 19 16.5 19H3.5C2.67157 19 2 18.7761 2 18.5C2 19.3284 2.67157 20 3.5 20H16.5C17.3284 20 18 19.3284 18 18.5Z" fill="#EBEBEB"/>
<path fill-rule="evenodd" clip-rule="evenodd" d="M10 0H12V1H10V0ZM10 2H8V1H10V2ZM10 3V2H12V3H10ZM10 4H8V3H10V4ZM10 5V4H12V5H10ZM10 6H8V5H10V6ZM10 7V6H12V7H10ZM10 7V8H8V7H10ZM8 9.5C8 9.22386 8.22386 9 8.5 9H11.5C11.7761 9 12 9.22386 12 9.5V14.5C12 14.7761 11.7761 15 11.5 15H8.5C8.22386 15 8 14.7761 8 14.5V9.5ZM9 14.0026V13.0052H11V14.0026H9Z" fill="#949494"/>
</svg>