<svg width="20" height="20" viewBox="0 0 20 20" fill="none" xmlns="http://www.w3.org/2000/svg">
<path d="M18 1.5C18 0.671573 17.3284 0 16.5 0H3.5C2.67157 0 2 0.671573 2 1.5V18.5C2 19.3284 2.67157 20 3.5 20H16.5C17.3284 20 18 19.3284 18 18.5V1.5Z" fill="#F2F2F2"/>
<path fill-rule="evenodd" clip-rule="evenodd" d="M2 18.5C2 18.7761 2.67157 19 3.5 19H16.5C17.3284 19 18 18.7761 18 18.5C18 19.3284 17.3284 20 16.5 20H3.5C2.67157 20 2 19.3284 2 18.5Z" fill="#EBEBEB"/>
<path fill-rule="evenodd" clip-rule="evenodd" d="M10.9998 8L13.9688 13.0008L9.99968 13.0003L10 13.0008H6L8 10L8.94713 11.421L10.9998 8Z" fill="#0FC8BA"/>
<path opacity="0.70106" d="M7.98438 8C7.43209 8 6.98438 7.55228 6.98438 7C6.98438 6.44772 7.43209 6 7.98438 6C8.53666 6 8.98438 6.44772 8.98438 7C8.98438 7.55228 8.53666 8 7.98438 8Z" fill="#0FC8BA"/>
</svg>