<svg width="20" height="20" viewBox="0 0 20 20" fill="none" xmlns="http://www.w3.org/2000/svg">
<path d="M2 1.5C2 0.671573 2.67157 0 3.5 0H16.5C17.3284 0 18 0.671573 18 1.5V18.5C18 19.3284 17.3284 20 16.5 20H3.5C2.67157 20 2 19.3284 2 18.5V1.5Z" fill="#F2F2F2"/>
<path fill-rule="evenodd" clip-rule="evenodd" d="M18 18.5C18 18.7761 17.3284 19 16.5 19H3.5C2.67157 19 2 18.7761 2 18.5C2 19.3284 2.67157 20 3.5 20H16.5C17.3284 20 18 19.3284 18 18.5Z" fill="#EBEBEB"/>
<path fill-rule="evenodd" clip-rule="evenodd" d="M6.7929 11.3712C6.91515 11.5579 7.05828 11.7349 7.2223 11.8989C7.87569 12.5188 9.42658 11.9949 10.7038 10.7177C11.9915 9.42996 12.5135 7.86413 11.8696 7.22028C11.8604 7.2111 11.8511 7.20215 11.8415 7.19344C11.6893 7.04667 11.5265 6.9174 11.3556 6.80563C12.48 6.33844 13.4843 6.32839 14.0407 6.88475C15.0301 7.87424 14.228 10.2807 12.249 12.2597C10.27 14.2386 7.8636 15.0408 6.87411 14.0513C6.31858 13.4958 6.32778 12.4936 6.7929 11.3712Z" fill="#3E58EB"/>
<path fill-rule="evenodd" clip-rule="evenodd" d="M7.22266 11.899L7.22221 11.8995C7.20676 11.884 7.19148 11.8684 7.1764 11.8527C6.95089 11.6183 6.76685 11.3587 6.62426 11.0832C5.9817 9.84174 6.18102 8.27748 7.22221 7.23628C8.49551 5.96299 10.5511 5.94874 11.8419 7.19355C11.8514 7.20226 11.8608 7.21121 11.87 7.22039C12.5138 7.86424 11.9919 9.43007 10.7042 10.7178C9.42694 11.995 7.87605 12.5189 7.22266 11.899ZM7.88838 11.1504C7.03236 10.2504 7.04601 8.8267 7.92932 7.94339C8.81291 7.0598 10.2374 7.04643 11.1371 7.9032C11.1476 7.94181 11.1717 8.08458 11.0627 8.41141C10.9105 8.86812 10.555 9.45279 9.99708 10.0107C9.44397 10.5638 8.86412 10.9184 8.40857 11.0727C8.07043 11.1873 7.92467 11.1601 7.88838 11.1504Z" fill="#3E58EB"/>
</svg>