<svg width="18" height="18" viewBox="0 0 18 18" fill="none" xmlns="http://www.w3.org/2000/svg">
<rect width="18" height="18" rx="3" fill="#3E58EB"/>
<ellipse cx="9.5876" cy="9.60272" rx="6.51537" ry="3.25769" transform="rotate(-45 9.5876 9.60272)" fill="white"/>
<path fill-rule="evenodd" clip-rule="evenodd" d="M11.4253 5.44639L11.426 5.44573C9.77039 3.79011 7.08611 3.79011 5.43049 5.44573C3.79468 7.08154 3.77512 9.72157 5.37181 11.3814C5.38378 11.3946 5.3961 11.4076 5.40877 11.4202C6.23658 12.2481 8.24979 11.577 9.90541 9.92137C11.5468 8.28002 12.2205 6.2872 11.4253 5.44639Z" fill="#3E58EB"/>
<path fill-rule="evenodd" clip-rule="evenodd" d="M5.37181 11.3814C3.77512 9.72157 3.79468 7.08154 5.43049 5.44573C6.84253 4.03369 9.00282 3.82595 10.635 4.8225C10.892 4.97938 11.1358 5.16611 11.3616 5.38268C11.3833 5.40342 11.4047 5.42444 11.426 5.44573L11.4253 5.44639C12.2205 6.2872 11.5468 8.28002 9.90541 9.92137C8.24979 11.577 6.23658 12.2481 5.40877 11.4202C5.3961 11.4076 5.38378 11.3946 5.37181 11.3814ZM10.691 6.12526C9.42383 4.88781 7.39343 4.897 6.1376 6.15283C4.88772 7.40272 4.8727 9.42011 6.09249 10.6881L6.10296 10.699L6.11311 10.7102L6.11588 10.7131C6.11766 10.7149 6.32946 10.8871 7.03043 10.6534C7.66797 10.4409 8.45647 9.9561 9.1983 9.21426C9.9335 8.47907 10.4166 7.69762 10.632 7.06248C10.8686 6.36488 10.7051 6.14022 10.6988 6.13348L10.691 6.12526Z" fill="white"/>
</svg>
