<svg width="20" height="20" viewBox="0 0 20 20" fill="none" xmlns="http://www.w3.org/2000/svg">
<path d="M2 1.5C2 0.671573 2.67157 0 3.5 0H16.5C17.3284 0 18 0.671573 18 1.5V18.5C18 19.3284 17.3284 20 16.5 20H3.5C2.67157 20 2 19.3284 2 18.5V1.5Z" fill="#F2F2F2"/>
<path fill-rule="evenodd" clip-rule="evenodd" d="M18 18.5H2C2 19.3284 2.67157 20 3.5 20H16.5C17.3284 20 18 19.3284 18 18.5Z" fill="#EBEBEB"/>
<path d="M6 6H8V7H6V6Z" fill="#5DD400"/>
<path d="M12 6H14.0156V7H12V6Z" fill="#5DD400"/>
<path d="M6 8H8V9H6V8Z" fill="#5DD400"/>
<path d="M12 8H14.0156V9H12V8Z" fill="#5DD400"/>
<path d="M6 10H8V11H6V10Z" fill="#5DD400"/>
<path d="M12 10H14.0156V11H12V10Z" fill="#5DD400"/>
<path d="M6 12H8V13H6V12Z" fill="#5DD400"/>
<path d="M9 6H11V7H9V6Z" fill="#5DD400"/>
<path d="M9 8H11V9H9V8Z" fill="#5DD400"/>
<path d="M9 10H11V11H9V10Z" fill="#5DD400"/>
<path d="M9 12H11V13H9V12Z" fill="#5DD400"/>
<path d="M12 12H14.0156V13H12V12Z" fill="#5DD400"/>
</svg>
