<svg width="28" height="32" viewBox="0 0 28 32" fill="none" xmlns="http://www.w3.org/2000/svg">
<path fill-rule="evenodd" clip-rule="evenodd" d="M22.5292 13.6013C21.6623 13.509 20.9262 13.8577 20.6555 14.5336C20.5999 14.6721 20.5551 14.8271 20.5824 14.9062C20.6102 14.9853 20.6629 15.0113 20.7156 15.0367C21.0329 15.1909 21.5621 15.2695 22.3197 15.3618C23.0778 15.4542 23.6102 15.5049 23.9545 15.4314C24.0117 15.4189 24.0691 15.4067 24.1145 15.3364C24.1596 15.266 24.1525 15.1049 24.1312 14.9569C24.0263 14.235 23.393 13.7197 22.5292 13.6013ZM16.4867 30.9969C15.5903 30.4209 15.1292 29.6316 14.942 29.1673C14.7637 28.7104 14.6641 28.2138 14.6641 27.6988C14.6641 25.4967 16.4469 23.6925 18.6489 23.6925C19.3043 23.6925 19.8286 24.2232 19.8286 24.8865C19.8286 25.3274 19.5825 25.7185 19.2196 25.9283C19.099 25.9994 18.9032 26.0644 18.7739 26.0838C18.6447 26.1029 18.1444 26.1629 17.9103 26.369C17.6379 26.5829 17.4431 26.9172 17.4431 27.3008C17.4431 27.6988 17.6002 28.0702 17.8623 28.3355C18.3345 28.8131 18.9637 29.0784 19.6454 29.0784C21.4282 29.0784 22.8701 27.6192 22.8701 25.8151C22.8701 24.1966 21.795 22.7639 20.3795 22.1272C20.1697 22.0211 19.8287 21.9415 19.5143 21.8619C19.121 21.7823 18.754 21.7292 18.7278 21.7292C17.6266 21.5966 14.8738 20.721 14.6903 18.2536C14.6903 18.2536 13.8775 21.968 12.2521 22.9762C12.0948 23.0558 11.8848 23.1354 11.6491 23.1884C11.4131 23.2415 11.1509 23.268 11.0723 23.268C8.42431 23.4272 5.61905 22.5782 3.67895 20.5618C3.67895 20.5618 2.36808 19.474 1.68643 16.4229C1.52886 15.6801 1.21451 14.3535 1.03099 13.1065C0.952337 12.6555 0.92612 12.3106 0.899902 11.9922C0.899902 10.7049 1.68983 9.81715 2.67089 9.69325C2.70104 9.68927 2.78756 9.68396 2.82426 9.68396C3.42228 9.68396 8.00484 9.68396 8.00484 9.68396C8.92245 9.68396 9.4468 9.44518 9.78736 9.1268C10.2333 8.7023 10.3382 8.09208 10.3382 7.37573C10.3382 7.37573 10.3387 2.55259 10.3387 1.9474C10.3387 1.91026 10.3442 1.82271 10.3479 1.79246C10.4703 0.799391 11.3476 0 12.6196 0C12.6196 0 13.0174 0 13.2483 0C13.5168 0 13.8304 0.0241436 14.1174 0.0657979C14.3374 0.0979009 14.5112 0.133984 14.8214 0.212251C16.4217 0.614998 16.7615 2.25517 16.7615 2.25517C16.7615 2.25517 19.7765 2.7858 21.2971 3.05111C22.7391 3.31642 26.3046 3.55521 26.9863 7.19001C28.5855 15.8392 27.6155 24.2232 27.5368 24.2232C26.4095 32.3948 19.6976 31.9969 19.6976 31.9969C18.2873 31.9833 17.208 31.4848 16.4867 30.9969ZM9.36841 7.15975C9.36841 7.47017 9.34088 8.00637 9.02338 8.3526C8.68125 8.6739 8.15113 8.70202 7.84438 8.70202L4.48855 8.70149C3.5185 8.70149 2.94172 8.70149 2.54846 8.75455C2.33872 8.78109 2.07654 8.88721 1.94545 8.94027C1.90455 8.95619 1.89302 8.94027 1.91924 8.91374L9.57762 1.03153C9.60384 1.005 9.61957 1.01667 9.60384 1.05806C9.5514 1.19072 9.44653 1.45603 9.42032 1.66828C9.36788 2.06625 9.36788 2.64995 9.36788 3.63161L9.36841 7.15975Z" fill="#00A82D"/>
</svg>
