<svg width="29" height="28" viewBox="0 0 29 28" fill="none" xmlns="http://www.w3.org/2000/svg">
<rect x="0.151367" width="28" height="28" rx="6" fill="#F16529"/>
<path fill-rule="evenodd" clip-rule="evenodd" d="M11.6818 8.46967C11.9747 8.76256 11.9747 9.23744 11.6818 9.53033L7.21214 14L11.6818 18.4697C11.9747 18.7626 11.9747 19.2374 11.6818 19.5303C11.3889 19.8232 10.914 19.8232 10.6212 19.5303L5.09082 14L10.6212 8.46967C10.914 8.17678 11.3889 8.17678 11.6818 8.46967Z" fill="white"/>
<path fill-rule="evenodd" clip-rule="evenodd" d="M16.6209 8.46967C16.328 8.76256 16.328 9.23744 16.6209 9.53033L21.0906 14L16.6209 18.4697C16.328 18.7626 16.328 19.2374 16.6209 19.5303C16.9138 19.8232 17.3887 19.8232 17.6816 19.5303L23.2119 14L17.6816 8.46967C17.3887 8.17678 16.9138 8.17678 16.6209 8.46967Z" fill="white"/>
</svg>