<svg width="28" height="28" viewBox="0 0 28 28" fill="none" xmlns="http://www.w3.org/2000/svg">
<g clip-path="url(#clip0_3669_2259)">
<path d="M22 0H6C2.68629 0 0 2.68629 0 6V22C0 25.3137 2.68629 28 6 28H22C25.3137 28 28 25.3137 28 22V6C28 2.68629 25.3137 0 22 0Z" fill="#F16529"/>
<path fill-rule="evenodd" clip-rule="evenodd" d="M11.5304 8.46967C11.8233 8.76256 11.8233 9.23744 11.5304 9.53033L7.06077 14L11.5304 18.4697C11.8233 18.7626 11.8233 19.2374 11.5304 19.5303C11.2375 19.8232 10.7626 19.8232 10.4698 19.5303L4.93945 14L10.4698 8.46967C10.7626 8.17678 11.2375 8.17678 11.5304 8.46967Z" fill="white"/>
<path fill-rule="evenodd" clip-rule="evenodd" d="M16.4697 8.46967C16.1768 8.76256 16.1768 9.23744 16.4697 9.53033L20.9394 14L16.4697 18.4697C16.1768 18.7626 16.1768 19.2374 16.4697 19.5303C16.7626 19.8232 17.2375 19.8232 17.5304 19.5303L23.0607 14L17.5304 8.46967C17.2375 8.17678 16.7626 8.17678 16.4697 8.46967Z" fill="white"/>
</g>
<defs>
<clipPath id="clip0_3669_2259">
<rect width="28" height="28" fill="white"/>
</clipPath>
</defs>
</svg>
