<svg width="28" height="28" viewBox="0 0 28 28" fill="none" xmlns="http://www.w3.org/2000/svg">
<path fill-rule="evenodd" clip-rule="evenodd" d="M17.9474 0.0638582L1.76011 1.20736C0.454903 1.31581 0 2.13267 0 3.11192V20.0962C0 20.8593 0.2835 21.5115 0.96542 22.3832L4.7706 27.1192C5.39564 27.8818 5.96361 28.045 7.15711 27.9904L25.9553 26.9015C27.5452 26.7931 28 26.0849 28 24.8873V5.77966C28 5.16059 27.7447 4.98176 26.992 4.45461C26.9506 4.42568 26.9076 4.39563 26.8632 4.36436L21.696 0.880487C20.4466 0.00985556 19.9352 -0.099699 17.9474 0.0638582ZM7.58333 5.46625C6.04858 5.56565 5.69985 5.58824 4.82825 4.90896L2.61187 3.22149C2.38583 3.00328 2.49919 2.73112 3.06678 2.67708L18.629 1.58825C19.9349 1.47915 20.6164 1.91539 21.1278 2.29619L23.797 4.14726C23.9106 4.20149 24.1941 4.52769 23.8532 4.52769L7.78147 5.45347L7.58333 5.46625ZM5.79318 24.7237V8.50201C5.79318 7.79445 6.02039 7.4676 6.70153 7.41263L25.1594 6.37868C25.7855 6.32427 26.069 6.70563 26.069 7.41263V23.5256C26.069 24.2338 25.955 24.8334 24.9323 24.8873L7.2696 25.8678C6.2474 25.9217 5.79318 25.5955 5.79318 24.7237ZM23.2299 9.37215C23.3432 9.86261 23.2299 10.3525 22.7177 10.4077L21.8666 10.5704V22.5463C21.1278 22.9272 20.4464 23.1451 19.8786 23.1451C18.9696 23.1451 18.7419 22.8726 18.0611 22.0565L12.4943 13.6733V21.7844L14.2558 22.1656C14.2558 22.1656 14.2558 23.1451 12.8347 23.1451L8.91683 23.3631C8.80299 23.1451 8.91683 22.6011 9.31418 22.4921L10.3366 22.2203V11.4961L8.91703 11.3869C8.80318 10.8966 9.08668 10.1895 9.8824 10.1346L14.0855 9.8628L19.8786 18.3551V10.8425L18.4016 10.6799C18.2882 10.0804 18.7419 9.64505 19.31 9.59101L23.2299 9.37215Z" fill="black"/>
</svg>