<svg width="28" height="29" viewBox="0 0 28 29" fill="none" xmlns="http://www.w3.org/2000/svg">
<path d="M6 7.0625H28V2.0625C28 0.957931 27.1046 0.0625 26 0.0625H8C6.89543 0.0625 6 0.957931 6 2.0625V7.0625Z" fill="#40A5ED"/>
<path d="M6 14.0312H28V7.03125H6V14.0312Z" fill="#2C7CD5"/>
<path d="M6 21.0625H28V14.0625H6V21.0625Z" fill="#195ABE"/>
<path d="M6 26.125C6 27.2296 6.89543 28.125 8 28.125H26C27.1046 28.125 28 27.2296 28 26.125V21.125H6V26.125Z" fill="#103F91"/>
<path d="M6 6H14C15.6569 6 17 7.34315 17 9V20C17 21.6569 15.6569 23 14 23H6V6Z" fill="#091D40"/>
<rect y="6" width="16" height="16" rx="2" fill="#1856B9"/>
<path d="M5.06641 18.0312H6.28516L7.96875 12.0391H8.03125L9.71484 18.0312H10.9297L13.1523 10.0312H11.8789L10.3242 16.2305H10.25L8.62891 10.0312H7.37109L5.75 16.2266H5.67578L4.11719 10.0312H2.84766L5.06641 18.0312Z" fill="white"/>
</svg>
