<svg xmlns="http://www.w3.org/2000/svg" width="19" height="19" viewBox="0 0 19 19" fill="none">
    <path d="M15.7331 3.0052C17.3929 4.66493 17.3929 7.35588 15.7331 9.01561L13.6118 11.1369C13.5278 11.2209 13.4405 11.2997 13.3515 11.3752C13.4465 10.7097 13.414 10.0293 13.2534 9.374L14.6725 7.95495C15.7464 6.88101 15.7464 5.13981 14.6725 4.06586C13.5985 2.99192 11.8573 2.99192 10.7834 4.06586L8.66206 6.18718C7.58812 7.26113 7.58812 9.00233 8.66206 10.0763C9.01643 10.4306 9.4443 10.6649 9.89604 10.7854C9.86078 11.1797 9.69304 11.5644 9.39126 11.8661L9.13784 12.1196C8.57745 11.9136 8.05131 11.5868 7.6014 11.1369C5.94167 9.4772 5.94167 6.78625 7.6014 5.12652L9.72272 3.0052C11.3824 1.34548 14.0734 1.34548 15.7331 3.0052Z" fill="#9B9B9B"/>
    <path d="M3.00397 15.737C1.34424 14.0773 1.34424 11.3863 3.00397 9.72658L5.12529 7.60526C5.20925 7.52129 5.29664 7.44249 5.38562 7.36702C5.29058 8.03245 5.32312 8.71293 5.48368 9.36819L4.06463 10.7872C2.99069 11.8612 2.99069 13.6024 4.06463 14.6763C5.13857 15.7503 6.87977 15.7503 7.95372 14.6763L10.075 12.555C11.149 11.4811 11.149 9.73986 10.075 8.66592C9.72066 8.31154 9.29279 8.07724 8.84105 7.95674C8.87631 7.56248 9.04405 7.17783 9.34583 6.87605L9.59926 6.62263C10.1596 6.82862 10.6858 7.15534 11.1357 7.60526C12.7954 9.26498 12.7954 11.9559 11.1357 13.6157L9.01438 15.737C7.35465 17.3967 4.6637 17.3967 3.00397 15.737Z" fill="#9B9B9B"/>
</svg>
