<svg width="20" height="20" viewBox="0 0 20 20" fill="none" xmlns="http://www.w3.org/2000/svg">
<path fill-rule="evenodd" clip-rule="evenodd" d="M10 3.25C9.56842 3.25 9.14563 3.2906 8.73544 3.3684C8.32848 3.44558 8.06114 3.83805 8.13833 4.24501C8.21551 4.65197 8.60799 4.91931 9.01494 4.84212C9.33345 4.78172 9.66267 4.75 10 4.75C10.3373 4.75 10.6665 4.78172 10.9851 4.84212C11.392 4.91931 11.7845 4.65197 11.8617 4.24501C11.9389 3.83805 11.6715 3.44558 11.2646 3.3684C10.8544 3.2906 10.4316 3.25 10 3.25ZM7.18713 5.56623C7.53666 5.34396 7.63981 4.88043 7.41754 4.5309C7.19526 4.18138 6.73173 4.07822 6.38221 4.3005C5.66417 4.75712 5.03854 5.34553 4.53911 6.03176C4.29537 6.36667 4.36928 6.83576 4.70419 7.07949C5.0391 7.32323 5.50819 7.24933 5.75193 6.91442C6.1409 6.37995 6.62828 5.92163 7.18713 5.56623ZM13.9682 4.53911C13.6333 4.29537 13.1642 4.36928 12.9205 4.70419C12.6768 5.0391 12.7507 5.50819 13.0856 5.75193C13.6201 6.1409 14.0784 6.62828 14.4338 7.18713C14.656 7.53666 15.1196 7.63981 15.4691 7.41754C15.8186 7.19526 15.9218 6.73173 15.6995 6.38221C15.2429 5.66417 14.6545 5.03854 13.9682 4.53911ZM4.84212 9.01495C4.91931 8.60799 4.65197 8.21551 4.24501 8.13833C3.83805 8.06114 3.44558 8.32848 3.3684 8.73544C3.2906 9.14563 3.25 9.56842 3.25 10C3.25 10.4316 3.2906 10.8544 3.3684 11.2646C3.44558 11.6715 3.83805 11.9389 4.24501 11.8617C4.65197 11.7845 4.91931 11.392 4.84212 10.9851C4.78172 10.6665 4.75 10.3373 4.75 10C4.75 9.66267 4.78172 9.33345 4.84212 9.01495ZM16.6316 8.73544C16.5544 8.32848 16.1619 8.06114 15.755 8.13833C15.348 8.21551 15.0807 8.60799 15.1579 9.01494C15.2183 9.33345 15.25 9.66267 15.25 10C15.25 10.3373 15.2183 10.6665 15.1579 10.9851C15.0807 11.392 15.348 11.7845 15.755 11.8617C16.1619 11.9389 16.5544 11.6715 16.6316 11.2646C16.7094 10.8544 16.75 10.4316 16.75 10C16.75 9.56842 16.7094 9.14563 16.6316 8.73544ZM5.56623 12.8129C5.34396 12.4633 4.88043 12.3602 4.5309 12.5825C4.18138 12.8047 4.07822 13.2683 4.3005 13.6178C4.75712 14.3358 5.34553 14.9615 6.03176 15.4609C6.36667 15.7046 6.83576 15.6307 7.07949 15.2958C7.32323 14.9609 7.24933 14.4918 6.91442 14.2481C6.37995 13.8591 5.92163 13.3717 5.56623 12.8129ZM15.4609 13.9682C15.7046 13.6333 15.6307 13.1642 15.2958 12.9205C14.9609 12.6768 14.4918 12.7507 14.2481 13.0856C13.8591 13.6201 13.3717 14.0784 12.8129 14.4338C12.4633 14.656 12.3602 15.1196 12.5825 15.4691C12.8047 15.8186 13.2683 15.9218 13.6178 15.6995C14.3358 15.2429 14.9615 14.6545 15.4609 13.9682ZM9.01495 15.1579C8.60799 15.0807 8.21551 15.348 8.13833 15.755C8.06114 16.1619 8.32848 16.5544 8.73544 16.6316C9.14563 16.7094 9.56842 16.75 10 16.75C10.4316 16.75 10.8544 16.7094 11.2646 16.6316C11.6715 16.5544 11.9389 16.1619 11.8617 15.755C11.7845 15.348 11.392 15.0807 10.9851 15.1579C10.6665 15.2183 10.3373 15.25 10 15.25C9.66267 15.25 9.33345 15.2183 9.01495 15.1579ZM10 12C11.1046 12 12 11.1046 12 10C12 8.89543 11.1046 8 10 8C8.89543 8 8 8.89543 8 10C8 11.1046 8.89543 12 10 12Z" fill="#B6B6B6"/>
</svg>
