<svg width="20" height="20" viewBox="0 0 20 20" fill="none" xmlns="http://www.w3.org/2000/svg">
<path fill-rule="evenodd" clip-rule="evenodd" d="M13.0304 11.9697L17.7804 16.7197C18.0733 17.0126 18.0733 17.4875 17.7804 17.7804C17.4875 18.0733 17.0126 18.0733 16.7197 17.7804L11.9697 13.0304L13.0304 11.9697Z" fill="#9a9a9a"/>
<path fill-rule="evenodd" clip-rule="evenodd" d="M8.5 13.5C11.2614 13.5 13.5 11.2614 13.5 8.5C13.5 5.73858 11.2614 3.5 8.5 3.5C5.73858 3.5 3.5 5.73858 3.5 8.5C3.5 11.2614 5.73858 13.5 8.5 13.5ZM8.5 15C12.0899 15 15 12.0899 15 8.5C15 4.91015 12.0899 2 8.5 2C4.91015 2 2 4.91015 2 8.5C2 12.0899 4.91015 15 8.5 15Z" fill="#9a9a9a"/>
</svg>
