<svg width="21" height="20" viewBox="0 0 21 20" fill="none" xmlns="http://www.w3.org/2000/svg">
<path fill-rule="evenodd" clip-rule="evenodd" d="M6.38959 6.0055V5C6.38959 4.72386 6.60397 4.5 6.86841 4.5H9.74134C10.0058 4.5 10.2202 4.72386 10.2202 5L10.2202 15C10.2202 15.2761 10.0058 15.5 9.74134 15.5H6.86841C6.60397 15.5 6.38959 15.2761 6.38959 15V13.9948L4.95313 13.9948L4.95312 15C4.95312 16.1046 5.81063 17 6.86841 17H9.74134C10.2011 17 10.623 16.8308 10.9531 16.5489C11.2832 16.8308 11.7052 17 12.1649 17L15.0378 17C16.0956 17 16.9531 16.1046 16.9531 15V5C16.9531 3.89543 16.0956 3 15.0378 3H12.1649C11.7052 3 11.2832 3.16915 10.9531 3.45111C10.623 3.16915 10.2011 3 9.74134 3H6.86841C5.81063 3 4.95313 3.89543 4.95313 5V6.0055H6.38959ZM15.0378 15.5H12.1649C11.9005 15.5 11.6861 15.2761 11.6861 15L11.6861 5C11.6861 4.72386 11.9005 4.5 12.1649 4.5H15.0378C15.3023 4.5 15.5167 4.72386 15.5167 5L15.5167 15C15.5167 15.2761 15.3023 15.5 15.0378 15.5Z" fill="#ACA996"/>
<path fill-rule="evenodd" clip-rule="evenodd" d="M5.68359 12.6805C5.26938 12.6805 4.93359 12.3447 4.93359 11.9305L4.93359 8.06836C4.93359 7.65415 5.26938 7.31836 5.68359 7.31836C6.09781 7.31836 6.43359 7.65415 6.43359 8.06836L6.43359 11.9305C6.43359 12.3447 6.09781 12.6805 5.68359 12.6805Z" fill="#ACA996"/>
<path fill-rule="evenodd" clip-rule="evenodd" d="M3.05513 10C3.05513 9.58579 3.39092 9.25 3.80513 9.25L7.56641 9.25C7.98062 9.25 8.31641 9.58579 8.31641 10C8.31641 10.4142 7.98062 10.75 7.56641 10.75L3.80513 10.75C3.39092 10.75 3.05513 10.4142 3.05513 10Z" fill="#ACA996"/>
</svg>
