<svg width="21" height="20" viewBox="0 0 21 20" fill="none" xmlns="http://www.w3.org/2000/svg">
<path fill-rule="evenodd" clip-rule="evenodd" d="M6.693 5.70209H5.6875C5.41136 5.70209 5.1875 5.91647 5.1875 6.18091V9.05384C5.1875 9.31829 5.41136 9.53266 5.6875 9.53266L15.6875 9.53266C15.9636 9.53266 16.1875 9.31829 16.1875 9.05384V6.18091C16.1875 5.91647 15.9636 5.70209 15.6875 5.70209H14.6823L14.6823 4.26562H15.6875C16.7921 4.26562 17.6875 5.12313 17.6875 6.18091V9.05384C17.6875 9.51359 17.5183 9.9355 17.2364 10.2656C17.5183 10.5957 17.6875 11.0177 17.6875 11.4774V14.3503C17.6875 15.4081 16.7921 16.2656 15.6875 16.2656H5.6875C4.58293 16.2656 3.6875 15.4081 3.6875 14.3503V11.4774C3.6875 11.0177 3.85665 10.5957 4.13861 10.2656C3.85665 9.9355 3.6875 9.51359 3.6875 9.05384V6.18091C3.6875 5.12313 4.58293 4.26562 5.6875 4.26562H6.693V5.70209ZM16.1875 14.3503V11.4774C16.1875 11.213 15.9636 10.9986 15.6875 10.9986H5.6875C5.41136 10.9986 5.1875 11.213 5.1875 11.4774V14.3503C5.1875 14.6148 5.41136 14.8292 5.6875 14.8292H15.6875C15.9636 14.8292 16.1875 14.6148 16.1875 14.3503Z" fill="#ACA996"/>
<path fill-rule="evenodd" clip-rule="evenodd" d="M13.37 4.99609C13.37 4.58188 13.0342 4.24609 12.62 4.24609L8.75781 4.24609C8.3436 4.24609 8.00781 4.58188 8.00781 4.99609C8.00781 5.41031 8.3436 5.74609 8.75781 5.74609L12.62 5.74609C13.0342 5.74609 13.37 5.41031 13.37 4.99609Z" fill="#ACA996"/>
<path fill-rule="evenodd" clip-rule="evenodd" d="M10.6875 2.36568C10.2733 2.36568 9.9375 2.70146 9.9375 3.11568L9.9375 6.87695C9.9375 7.29117 10.2733 7.62695 10.6875 7.62695C11.1017 7.62695 11.4375 7.29117 11.4375 6.87695L11.4375 3.11568C11.4375 2.70146 11.1017 2.36568 10.6875 2.36568Z" fill="#ACA996"/>
</svg>
