<svg width="20" height="20" viewBox="0 0 20 20" fill="none" xmlns="http://www.w3.org/2000/svg">
<path fill-rule="evenodd" clip-rule="evenodd" d="M9.25098 2.65527L9.25098 14.6553H10.751L10.751 2.65527H9.25098Z" fill="#b6b6b6"/>
<path fill-rule="evenodd" clip-rule="evenodd" d="M3.00098 17.6553C3.00098 18.0695 3.33676 18.4053 3.75098 18.4053L16.251 18.4053C16.6652 18.4053 17.001 18.0695 17.001 17.6553C17.001 17.2411 16.6652 16.9053 16.251 16.9053L3.75098 16.9053C3.33676 16.9053 3.00098 17.2411 3.00098 17.6553Z" fill="#b6b6b6"/>
<path fill-rule="evenodd" clip-rule="evenodd" d="M14.5313 7.1856C14.8242 6.89271 14.8242 6.41784 14.5313 6.12494L10.001 1.59461L5.47065 6.12494C5.17775 6.41784 5.17775 6.89271 5.47065 7.1856C5.76354 7.4785 6.23841 7.4785 6.53131 7.1856L10.001 3.71593L13.4706 7.1856C13.7635 7.4785 14.2384 7.4785 14.5313 7.1856Z" fill="#b6b6b6"/>
</svg>