<svg width="20" height="20" viewBox="0 0 20 20" fill="none" xmlns="http://www.w3.org/2000/svg">
<path fill-rule="evenodd" clip-rule="evenodd" d="M2 10.75H14V9.25H2V10.75Z" fill="#b6b6b6"/>
<path fill-rule="evenodd" clip-rule="evenodd" d="M17 17C17.4142 17 17.75 16.6642 17.75 16.25V3.75C17.75 3.33579 17.4142 3 17 3C16.5858 3 16.25 3.33579 16.25 3.75V16.25C16.25 16.6642 16.5858 17 17 17Z" fill="#b6b6b6"/>
<path fill-rule="evenodd" clip-rule="evenodd" d="M6.53033 5.46967C6.23744 5.17678 5.76256 5.17678 5.46967 5.46967L0.93934 10L5.46967 14.5303C5.76256 14.8232 6.23744 14.8232 6.53033 14.5303C6.82322 14.2374 6.82322 13.7626 6.53033 13.4697L3.06066 10L6.53033 6.53033C6.82322 6.23744 6.82322 5.76256 6.53033 5.46967Z" fill="#b6b6b6"/>
</svg>