<svg shape-rendering="geometricPrecision" width="20" height="20" viewBox="0 0 20 20" fill="none" xmlns="http://www.w3.org/2000/svg">
<path fill-rule="evenodd" clip-rule="evenodd" d="M5.42654 13.2986C5.21668 13.1517 4.98994 13 4.73378 13H3C2.44771 13 2 12.5523 2 12V8.00003C2 7.44774 2.44772 7.00003 3 7.00003H4.73378C4.98994 7.00003 5.21668 6.84835 5.42654 6.70145L8.42654 4.60145C9.08931 4.13751 10 4.61166 10 5.42068V14.5794C10 15.3884 9.08932 15.8625 8.42654 15.3986L5.42654 13.2986Z" fill="#252525"/>
<rect x="12.5" y="7.85718" width="1.21218" height="7.27311" rx="0.606092" transform="rotate(-45 12.5 7.85718)" fill="#252525"/>
<rect x="17.6428" y="7" width="1.21218" height="7.27311" rx="0.606092" transform="rotate(45 17.6428 7)" fill="#252525"/>
</svg>
