<svg shape-rendering="geometricPrecision" width="20" height="20" viewBox="0 0 20 20" fill="none" xmlns="http://www.w3.org/2000/svg">
<path fill-rule="evenodd" clip-rule="evenodd" d="M16.0208 4.50971C15.7362 4.16672 15.2221 4.16893 14.9069 4.48397C14.5915 4.79922 14.5957 5.30793 14.8729 5.65723C15.8197 6.8502 16.3851 8.3592 16.3851 10.0002C16.3851 11.6412 15.8197 13.1502 14.8729 14.3432C14.5957 14.6925 14.5915 15.2012 14.9069 15.5165C15.2221 15.8315 15.7362 15.8337 16.0208 15.4907C17.2568 14.0006 17.9998 12.0871 17.9998 10.0002C17.9998 7.91329 17.2568 5.99983 16.0208 4.50971ZM12.2428 12.8536C12.5579 13.1686 13.0754 13.1718 13.3343 12.809C13.8996 12.0169 14.2322 11.0474 14.2322 10.0002C14.2322 8.95304 13.8996 7.98351 13.3343 7.1914C13.0754 6.82868 12.5579 6.83181 12.2428 7.14684C11.9274 7.46209 11.9383 7.97016 12.1662 8.35345C12.4529 8.83557 12.6175 9.39868 12.6175 10.0002C12.6175 10.6018 12.4529 11.1649 12.1662 11.647C11.9383 12.0303 11.9274 12.5383 12.2428 12.8536Z" fill="#252525"/>
<path fill-rule="evenodd" clip-rule="evenodd" d="M5.42654 13.2986C5.21668 13.1517 4.98994 13 4.73378 13H3C2.44771 13 2 12.5523 2 12V8.00003C2 7.44774 2.44772 7.00003 3 7.00003H4.73378C4.98994 7.00003 5.21668 6.84835 5.42654 6.70145L8.42654 4.60145C9.08931 4.13751 10 4.61166 10 5.42068V14.5794C10 15.3884 9.08932 15.8625 8.42654 15.3986L5.42654 13.2986Z" fill="#252525"/>
</svg>
