<svg xmlns="http://www.w3.org/2000/svg" width="20" height="20" viewBox="0 0 20 20" fill="none">
    <path d="M7.75 13C7.88807 13 8 13.1119 8 13.25V13.75C8 13.8881 7.88807 14 7.75 14H6.25C6.11193 14 6 13.8881 6 13.75V13.25C6 13.1119 6.11193 13 6.25 13H7.75ZM10.75 13C10.8881 13 11 13.1119 11 13.25V13.75C11 13.8881 10.8881 14 10.75 14H9.25C9.11193 14 9 13.8881 9 13.75V13.25C9 13.1119 9.11193 13 9.25 13H10.75ZM7.75 11C7.88807 11 8 11.1119 8 11.25V11.75C8 11.8881 7.88807 12 7.75 12H6.25C6.11193 12 6 11.8881 6 11.75V11.25C6 11.1119 6.11193 11 6.25 11H7.75ZM10.75 11C10.8881 11 11 11.1119 11 11.25V11.75C11 11.8881 10.8881 12 10.75 12H9.25C9.11193 12 9 11.8881 9 11.75V11.25C9 11.1119 9.11193 11 9.25 11H10.75ZM13.75 11C13.8881 11 14 11.1119 14 11.25V11.75C14 11.8881 13.8881 12 13.75 12H12.25C12.1119 12 12 11.8881 12 11.75V11.25C12 11.1119 12.1119 11 12.25 11H13.75ZM10.75 9C10.8881 9 11 9.11193 11 9.25V9.75C11 9.88807 10.8881 10 10.75 10H9.25C9.11193 10 9 9.88807 9 9.75V9.25C9 9.11193 9.11193 9 9.25 9H10.75ZM13.75 9C13.8881 9 14 9.11193 14 9.25V9.75C14 9.88807 13.8881 10 13.75 10H12.25C12.1119 10 12 9.88807 12 9.75V9.25C12 9.11193 12.1119 9 12.25 9H13.75Z" fill="#377AFF"/>
    <path d="M3 4.5C3 3.94772 3.44772 3.5 4 3.5H16C16.5523 3.5 17 3.94772 17 4.5V7H3V4.5Z" fill="#377AFF"/>
    <rect x="3.25" y="3.25" width="13.5" height="13.5" rx="2.25" stroke="#377AFF" stroke-width="1.5"/>
</svg>
