<svg xmlns="http://www.w3.org/2000/svg" width="20" height="20" viewBox="0 0 20 20" fill="none">
    <path fill-rule="evenodd" clip-rule="evenodd" d="M8 16.5C5.51472 16.5 3.5 14.4853 3.5 12C3.5 9.51472 5.51472 7.5 8 7.5C10.4853 7.5 12.5 9.51472 12.5 12C12.5 14.4853 10.4853 16.5 8 16.5ZM8 18C4.68629 18 2 15.3137 2 12C2 8.68629 4.68629 6 8 6C11.3137 6 14 8.68629 14 12C14 15.3137 11.3137 18 8 18Z" fill="#377AFF"/>
    <path d="M15.5049 2C16.8854 2.00026 18.0049 3.11945 18.0049 4.5V10.5049C18.0046 11.8852 16.8852 13.0046 15.5049 13.0049H13.9141C13.9692 12.678 14 12.3425 14 12C14 11.8332 13.9909 11.6682 13.9775 11.5049H15.5049C16.0568 11.5046 16.5046 11.0568 16.5049 10.5049V4.5C16.5049 3.94788 16.0569 3.50026 15.5049 3.5H9.5C8.94772 3.5 8.5 3.94772 8.5 4.5V6.02246C8.33508 6.00885 8.16843 6 8 6C7.65923 6 7.32526 6.02941 7 6.08398V4.5C7 3.11929 8.11929 2 9.5 2H15.5049Z" fill="#377AFF"/>
</svg>
