<svg xmlns="http://www.w3.org/2000/svg" width="20" height="20" viewBox="0 0 20 20" fill="none">
    <path d="M16.3646 3.63606C18.0243 5.29579 18.0243 7.98674 16.3646 9.64647L14.2433 11.7678C14.1593 11.8518 14.0719 11.9306 13.9829 12.006C14.078 11.3406 14.0454 10.6601 13.8849 10.0049L15.3039 8.58581C16.3779 7.51187 16.3779 5.77067 15.3039 4.69672C14.23 3.62278 12.4888 3.62278 11.4148 4.69672L9.29351 6.81804C8.21957 7.89199 8.21957 9.63319 9.29351 10.7071C9.64789 11.0615 10.0758 11.2958 10.5275 11.4163C10.4922 11.8106 10.3245 12.1952 10.0227 12.497L9.76929 12.7504C9.20891 12.5444 8.68276 12.2177 8.23285 11.7678C6.57312 10.1081 6.57312 7.41711 8.23285 5.75738L10.3542 3.63606C12.0139 1.97634 14.7049 1.97633 16.3646 3.63606Z" fill="#377AFF"/>
    <path d="M3.63737 16.3639C1.97765 14.7042 1.97765 12.0133 3.63737 10.3535L5.75869 8.23221C5.84266 8.14824 5.93005 8.06945 6.01903 7.99397C5.92398 8.6594 5.95652 9.33988 6.11708 9.99514L4.69803 11.4142C3.62409 12.4881 3.62409 14.2293 4.69803 15.3033C5.77198 16.3772 7.51318 16.3772 8.58712 15.3033L10.7084 13.182C11.7824 12.108 11.7824 10.3668 10.7084 9.29287C10.3541 8.93849 9.9262 8.70419 9.47446 8.58369C9.50972 8.18944 9.67746 7.80479 9.97924 7.50301L10.2327 7.24958C10.793 7.45557 11.3192 7.7823 11.7691 8.23221C13.4288 9.89194 13.4288 12.5829 11.7691 14.2426L9.64778 16.3639C7.98805 18.0237 5.2971 18.0237 3.63737 16.3639Z" fill="#377AFF"/>
</svg>
