<svg width="20" height="20" viewBox="0 0 20 20" fill="none" xmlns="http://www.w3.org/2000/svg">
<path d="M14.5645 15.8948L5.44238 15.8879L3.1875 5.83032H3.19141C3.58962 7.53435 6.48502 8.85669 10 8.85669C13.515 8.85669 16.4104 7.53435 16.8086 5.83032H16.8174L14.5645 15.8948Z" fill="#9B9B9B"/>
<ellipse cx="10.0001" cy="15.7142" rx="4.57143" ry="2.28571" fill="#9B9B9B"/>
<path d="M10 2.57129C11.824 2.57133 13.4469 2.94267 14.5928 3.51562C15.7729 4.1057 16.2852 4.81499 16.2852 5.42871C16.2851 6.04241 15.7728 6.75176 14.5928 7.3418C13.4469 7.91473 11.8239 8.2861 10 8.28613C8.17593 8.28613 6.55222 7.91478 5.40625 7.3418C4.22636 6.75179 3.71394 6.04237 3.71387 5.42871C3.71387 4.81504 4.22635 4.10567 5.40625 3.51562C6.55222 2.94264 8.17593 2.57129 10 2.57129Z" stroke="#9B9B9B" stroke-width="1.14286"/>
</svg>