<svg width="21" height="21" viewBox="0 0 21 21" fill="none" xmlns="http://www.w3.org/2000/svg">
<path d="M5.43066 17.6943C5.16634 17.6943 4.99772 17.6077 4.9248 17.4346C4.85645 17.266 4.88835 17.0951 5.02051 16.9219C5.1071 16.8079 5.23014 16.6553 5.38965 16.4639C5.55371 16.277 5.72233 16.0719 5.89551 15.8486C6.06868 15.6253 6.21908 15.4089 6.34668 15.1992C6.37402 15.1491 6.37858 15.1012 6.36035 15.0557C6.34668 15.0055 6.31478 14.9668 6.26465 14.9395C5.53548 14.5475 4.9043 14.0804 4.37109 13.5381C3.84245 12.9912 3.43457 12.3896 3.14746 11.7334C2.86491 11.0771 2.72363 10.3844 2.72363 9.65527C2.72363 8.79395 2.92188 7.9873 3.31836 7.23535C3.7194 6.4834 4.27311 5.82487 4.97949 5.25977C5.69043 4.6901 6.5153 4.24577 7.4541 3.92676C8.3929 3.60319 9.40006 3.44141 10.4756 3.44141C11.5511 3.44141 12.5583 3.60319 13.4971 3.92676C14.4359 4.24577 15.2585 4.6901 15.9648 5.25977C16.6758 5.82487 17.2295 6.4834 17.626 7.23535C18.027 7.9873 18.2275 8.79395 18.2275 9.65527C18.2275 10.3343 18.1022 10.9837 17.8516 11.6035C17.6009 12.2233 17.2386 12.793 16.7646 13.3125C16.2907 13.8275 15.7165 14.2764 15.042 14.6592C14.3721 15.042 13.6156 15.3382 12.7725 15.5479C11.9294 15.7575 11.0156 15.8623 10.0312 15.8623C9.99023 15.8623 9.94694 15.86 9.90137 15.8555C9.85579 15.8555 9.81022 15.8532 9.76465 15.8486C9.71908 15.8486 9.67122 15.8577 9.62109 15.876C9.57096 15.8942 9.51628 15.9238 9.45703 15.9648C9.16536 16.1745 8.8304 16.3796 8.45215 16.5801C8.07845 16.7852 7.69792 16.972 7.31055 17.1406C6.92773 17.3092 6.56999 17.4437 6.2373 17.5439C5.90462 17.6442 5.63574 17.6943 5.43066 17.6943Z" fill="#252525"/>
</svg>
