<svg width="20" height="20" viewBox="0 0 20 20" fill="none" xmlns="http://www.w3.org/2000/svg">
<path d="M4.0099 8.24704C4.36293 7.89401 4.79768 7.63578 5.31415 7.47234C5.83389 7.31217 6.40103 7.25823 7.01556 7.31053C7.63336 7.35956 8.25607 7.52791 8.88367 7.81556L11.3206 5.70229C11.2127 5.31984 11.1277 4.95373 11.0656 4.60397C11.0068 4.25748 10.9659 3.94204 10.943 3.65766C10.9267 3.37327 10.9316 3.13301 10.9577 2.93689C10.9969 2.63616 11.0999 2.40244 11.2666 2.23573C11.4301 2.07229 11.6197 1.99384 11.8354 2.00038C12.0577 2.00691 12.2603 2.10171 12.4434 2.28476L17.7192 7.5606C17.899 7.74038 17.9922 7.94141 17.9987 8.16369C18.0085 8.3827 17.9317 8.57392 17.7683 8.73736C17.6015 8.90407 17.3662 9.0054 17.0622 9.04136C16.8693 9.07078 16.6291 9.07568 16.3414 9.05607C16.0603 9.03646 15.7449 8.9956 15.3951 8.93349C15.0486 8.86811 14.6825 8.78312 14.2968 8.67852L12.1835 11.1154C12.4744 11.7463 12.6444 12.3706 12.6935 12.9884C12.7458 13.603 12.6902 14.1685 12.5267 14.6849C12.3666 15.2047 12.11 15.6411 11.7569 15.9941C11.5347 16.2164 11.2846 16.3259 11.0068 16.3226C10.7354 16.3193 10.4821 16.2 10.2468 15.9647L7.62846 13.3464L4.90424 16.0706C4.37721 16.5976 3.67319 16.9148 3.27639 16.9826C3.14563 17.0087 3.06391 17.0054 3.03123 16.9728C2.99527 16.9368 2.99037 16.8534 3.01652 16.7227C3.13752 16.1177 3.49973 15.5334 3.93341 15.0997L6.65763 12.3755L4.03442 9.75232C3.80233 9.52024 3.68302 9.26691 3.67649 8.99233C3.67649 8.71775 3.78762 8.46932 4.0099 8.24704Z" fill="#252525"/>
</svg>
