<svg xmlns="http://www.w3.org/2000/svg" width="21" height="20" viewBox="0 0 21 20" fill="none">
    <path fill-rule="evenodd" clip-rule="evenodd" d="M10.5 17.5C14.6421 17.5 18 14.1421 18 10C18 5.85786 14.6421 2.5 10.5 2.5C6.35786 2.5 3 5.85786 3 10C3 14.1421 6.35786 17.5 10.5 17.5ZM10.5 19C15.4706 19 19.5 14.9706 19.5 10C19.5 5.02944 15.4706 1 10.5 1C5.52944 1 1.5 5.02944 1.5 10C1.5 14.9706 5.52944 19 10.5 19Z" fill="#F55522"/>
    <path fill-rule="evenodd" clip-rule="evenodd" d="M11.5 4.75H9.5L9.75 11.75H11.25L11.5 4.75ZM10.5 15.25C11.1904 15.25 11.75 14.6904 11.75 14C11.75 13.3096 11.1904 12.75 10.5 12.75C9.80964 12.75 9.25 13.3096 9.25 14C9.25 14.6904 9.80964 15.25 10.5 15.25Z" fill="#F55522"/>
</svg>
