<svg width="24" height="24" viewBox="0 0 24 24" fill="none" xmlns="http://www.w3.org/2000/svg">
<rect x="3" y="3" width="18" height="18" rx="3" fill="#3E58EB"/>
<ellipse cx="12.5874" cy="12.6024" rx="6.51537" ry="3.25769" transform="rotate(-45 12.5874 12.6024)" fill="white"/>
<path fill-rule="evenodd" clip-rule="evenodd" d="M14.4256 8.44651L14.4263 8.44585C12.7706 6.79023 10.0864 6.79023 8.43074 8.44585C6.79492 10.0817 6.77536 12.7217 8.37205 14.3815C8.38402 14.3947 8.39635 14.4077 8.40902 14.4204C9.23683 15.2482 11.25 14.5771 12.9057 12.9215C14.547 11.2801 15.2207 9.28732 14.4256 8.44651Z" fill="#3E58EB"/>
<path fill-rule="evenodd" clip-rule="evenodd" d="M8.37205 14.3815C6.77536 12.7217 6.79492 10.0817 8.43074 8.44585C9.84277 7.03381 12.0031 6.82607 13.6353 7.82262C13.8922 7.9795 14.1361 8.16623 14.3619 8.3828C14.3835 8.40354 14.405 8.42456 14.4263 8.44585L14.4256 8.44651C15.2207 9.28732 14.547 11.2801 12.9057 12.9215C11.25 14.5771 9.23683 15.2482 8.40902 14.4204C8.39635 14.4077 8.38402 14.3947 8.37205 14.3815ZM13.6912 9.12538C12.4241 7.88793 10.3937 7.89712 9.13785 9.15295C7.88796 10.4028 7.87295 12.4202 9.09274 13.6883L9.10321 13.6991L9.11335 13.7103L9.11612 13.7133C9.11791 13.715 9.3297 13.8872 10.0307 13.6535C10.6682 13.441 11.4567 12.9562 12.1985 12.2144C12.9337 11.4792 13.4169 10.6977 13.6323 10.0626C13.8689 9.36501 13.7054 9.14034 13.699 9.1336L13.6912 9.12538Z" fill="white"/>
</svg>