<svg width="24" height="24" viewBox="0 0 24 24" fill="none" xmlns="http://www.w3.org/2000/svg">
<rect x="3" y="2.9375" width="18" height="18" rx="3" fill="#F55522"/>
<path fill-rule="evenodd" clip-rule="evenodd" d="M11.4887 5.97059C11.7504 5.94823 11.9848 6.13214 12.0253 6.39164C12.3671 8.58068 12.9037 10.118 13.7707 11.2789C14.6328 12.4331 15.8595 13.2656 17.6807 13.9713C17.9231 14.0652 18.0531 14.3293 17.9797 14.5787C17.9063 14.8281 17.654 14.9796 17.3993 14.9273C15.468 14.5303 13.8846 14.4732 12.328 14.8347C10.7672 15.1972 9.19166 15.99 7.29233 17.3588C7.07795 17.5133 6.78036 17.4743 6.61303 17.2698C6.44569 17.0652 6.4664 16.7658 6.66029 16.5863C8.37023 15.0029 9.46908 13.5643 10.1388 11.9952C10.8083 10.4264 11.0658 8.6876 11.0313 6.47657C11.0272 6.21396 11.227 5.99295 11.4887 5.97059ZM11.8214 9.72768C11.6655 10.6689 11.4178 11.5459 11.0585 12.3877C10.7143 13.1941 10.2714 13.9598 9.71839 14.7129C10.5239 14.3265 11.3089 14.0448 12.1017 13.8606C12.9798 13.6567 13.8571 13.575 14.7706 13.5974C14.0636 13.1082 13.4681 12.5448 12.9695 11.8773C12.4995 11.2481 12.1241 10.5373 11.8214 9.72768Z" fill="white"/>
</svg>
