<svg width="18" height="18" viewBox="0 0 18 18" fill="none" xmlns="http://www.w3.org/2000/svg">
<g clip-path="url(#clip0)">
<rect y="-0.0625" width="18" height="18" rx="3" fill="#F55522"/>
<path fill-rule="evenodd" clip-rule="evenodd" d="M8.48869 2.97059C8.75037 2.94823 8.98475 3.13214 9.02527 3.39164C9.36707 5.58068 9.90366 7.11804 10.7707 8.27895C11.6328 9.43314 12.8595 10.2656 14.6807 10.9713C14.9231 11.0652 15.0531 11.3293 14.9797 11.5787C14.9063 11.8281 14.654 11.9796 14.3993 11.9273C12.468 11.5303 10.8846 11.4732 9.32795 11.8347C7.76722 12.1972 6.19166 12.99 4.29233 14.3588C4.07795 14.5133 3.78036 14.4743 3.61303 14.2698C3.44569 14.0652 3.4664 13.7658 3.66029 13.5863C5.37023 12.0029 6.46908 10.5643 7.13877 8.99516C7.80833 7.42636 8.0658 5.6876 8.03132 3.47657C8.02722 3.21396 8.227 2.99295 8.48869 2.97059ZM8.82143 6.72768C8.66549 7.6689 8.41779 8.5459 8.05851 9.3877C7.71432 10.1941 7.27136 10.9598 6.71839 11.7129C7.52394 11.3265 8.30885 11.0448 9.10175 10.8606C9.97984 10.6567 10.8571 10.575 11.7706 10.5974C11.0636 10.1082 10.4681 9.54484 9.96953 8.87735C9.49955 8.2481 9.12412 7.53732 8.82143 6.72768Z" fill="white"/>
</g>
<defs>
<clipPath id="clip0">
<rect width="18" height="18" fill="white"/>
</clipPath>
</defs>
</svg>