<svg width="20" height="20" viewBox="0 0 20 20" fill="none" xmlns="http://www.w3.org/2000/svg">
<path d="M17.8098 2.1454C17.6882 2.03795 17.5271 1.98636 17.3657 2.0031L7.08002 3.14597C6.7905 3.17801 6.57142 3.4227 6.57146 3.71397V13.8976C6.05355 13.5877 5.46072 13.4254 4.85717 13.4285C3.28173 13.4285 2 14.4536 2 15.7142C2 16.9748 3.28173 18 4.85714 18C6.43254 18 7.71427 16.9754 7.71427 15.7142V7.08552L16.8572 6.06721V12.753C16.3391 12.4437 15.7462 12.2821 15.1429 12.2856C13.5674 12.2856 12.2857 13.3108 12.2857 14.5714C12.2857 15.832 13.5675 16.8571 15.1429 16.8571C16.7183 16.8571 18 15.8325 18 14.5714V2.57113C18 2.40861 17.9308 2.25378 17.8098 2.1454Z" fill="#b6b6b6"/>
</svg>
