<svg width="16" height="16" viewBox="0 0 16 16" fill="none" xmlns="http://www.w3.org/2000/svg">
<path d="M15.8097 0.145398C15.6881 0.0379541 15.5271 -0.0136418 15.3657 0.00309924L5.08001 1.14594C4.79049 1.17799 4.57141 1.42267 4.57145 1.71393V11.8974C4.05355 11.5875 3.46071 11.4252 2.85716 11.4282C1.28173 11.4283 0 12.4534 0 13.714C0 14.9745 1.28173 15.9997 2.85713 15.9997C4.43253 15.9997 5.71426 14.9751 5.71426 13.714V5.08542L14.8571 4.06712V10.7528C14.3391 10.4435 13.7462 10.2819 13.1428 10.2854C11.5674 10.2854 10.2857 11.3105 10.2857 12.5711C10.2857 13.8317 11.5674 14.8568 13.1428 14.8568C14.7182 14.8568 16 13.8323 16 12.5711V0.571123C16 0.408601 15.9308 0.25378 15.8097 0.145398Z" fill="#ACA996"/>
</svg>
