<svg width="40" height="40" viewBox="0 0 40 40" fill="none" xmlns="http://www.w3.org/2000/svg">
<path d="M4 13.6C4 10.2397 4 8.55953 4.65396 7.27606C5.2292 6.14708 6.14708 5.2292 7.27606 4.65396C8.55953 4 10.2397 4 13.6 4H26.4C29.7603 4 31.4405 4 32.7239 4.65396C33.8529 5.2292 34.7708 6.14708 35.346 7.27606C36 8.55953 36 10.2397 36 13.6V26.4C36 29.7603 36 31.4405 35.346 32.7239C34.7708 33.8529 33.8529 34.7708 32.7239 35.346C31.4405 36 29.7603 36 26.4 36H13.6C10.2397 36 8.55953 36 7.27606 35.346C6.14708 34.7708 5.2292 33.8529 4.65396 32.7239C4 31.4405 4 29.7603 4 26.4V13.6Z" fill="#F3F2EC"/>
<path d="M12.0123 26L13.1828 22.7046H17.8873L19.0578 26H20.535L16.2623 14.3636H14.8078L10.535 26H12.0123ZM13.6259 21.4546L15.4896 16.2046H15.5805L17.4441 21.4546H13.6259Z" fill="#252525"/>
<path d="M24.6539 26.2046C26.1766 26.2046 26.9721 25.3864 27.2448 24.8182H27.313V26H28.6539V20.25C28.6539 17.4773 26.5403 17.1591 25.4266 17.1591C24.1084 17.1591 22.6084 17.6136 21.9266 19.2046L23.1994 19.6591C23.4948 19.0227 24.1937 18.3409 25.4721 18.3409C26.705 18.3409 27.313 18.9943 27.313 20.1136V20.1591C27.313 20.8068 26.6539 20.75 25.063 20.9546C23.4437 21.1648 21.6766 21.5227 21.6766 23.5227C21.6766 25.2273 22.9948 26.2046 24.6539 26.2046ZM24.8584 25C23.7903 25 23.0175 24.5227 23.0175 23.5909C23.0175 22.5682 23.9494 22.25 24.9948 22.1136C25.563 22.0455 27.0857 21.8864 27.313 21.6136V22.8409C27.313 23.9318 26.4494 25 24.8584 25Z" fill="#252525"/>
</svg>
