<svg width="24" height="24" viewBox="0 0 24 24" fill="none" xmlns="http://www.w3.org/2000/svg">
<path fill-rule="evenodd" clip-rule="evenodd" d="M12 19.897C16.4183 19.897 20 16.3153 20 11.897C20 7.47869 16.4183 3.89697 12 3.89697C7.58172 3.89697 4 7.47869 4 11.897C4 16.3153 7.58172 19.897 12 19.897ZM12 21.897C17.5228 21.897 22 17.4198 22 11.897C22 6.37413 17.5228 1.89697 12 1.89697C6.47715 1.89697 2 6.37413 2 11.897C2 17.4198 6.47715 21.897 12 21.897Z" fill="#0FC8BA"/>
<path fill-rule="evenodd" clip-rule="evenodd" d="M16.9572 9.45718L10.5001 15.9143L7.04297 12.4572L8.45718 11.043L10.5001 13.0859L15.543 8.04297L16.9572 9.45718Z" fill="#0FC8BA"/>
</svg>