<svg width="20" height="20" viewBox="0 0 20 20" fill="none" xmlns="http://www.w3.org/2000/svg">
<path fill-rule="evenodd" clip-rule="evenodd" d="M10 17.5C14.1421 17.5 17.5 14.1421 17.5 10C17.5 5.85786 14.1421 2.5 10 2.5C5.85786 2.5 2.5 5.85786 2.5 10C2.5 14.1421 5.85786 17.5 10 17.5ZM10 19C14.9706 19 19 14.9706 19 10C19 5.02944 14.9706 1 10 1C5.02944 1 1 5.02944 1 10C1 14.9706 5.02944 19 10 19Z" fill="#2BA930"/>
<path fill-rule="evenodd" clip-rule="evenodd" d="M14.5312 7.2794L8.02386 13.8094L4.97186 10.7825L6.02813 9.71747L8.01765 11.6906L13.4687 6.22058L14.5312 7.2794Z" fill="#2BA930"/>
</svg>