<svg width="40" height="40" viewBox="0 0 40 40" fill="none" xmlns="http://www.w3.org/2000/svg">
<rect width="40" height="40" rx="8" fill="#B8F1A4"/>
<path fill-rule="evenodd" clip-rule="evenodd" d="M20 29.5C25.2467 29.5 29.5 25.2467 29.5 20C29.5 14.7533 25.2467 10.5 20 10.5C14.7533 10.5 10.5 14.7533 10.5 20C10.5 25.2467 14.7533 29.5 20 29.5ZM20 31C26.0751 31 31 26.0751 31 20C31 13.9249 26.0751 9 20 9C13.9249 9 9 13.9249 9 20C9 26.0751 13.9249 31 20 31Z" fill="#2BA930"/>
<path fill-rule="evenodd" clip-rule="evenodd" d="M25.6241 15.416L19.1166 25.1772L14.4697 20.5303L15.5304 19.4697L18.8835 22.8228L24.376 14.584L25.6241 15.416Z" fill="#2BA930"/>
</svg>