<svg width="40" height="40" viewBox="0 0 40 40" fill="none" xmlns="http://www.w3.org/2000/svg">
<rect width="40" height="40" rx="8" fill="#F1CAFB"/>
<path fill-rule="evenodd" clip-rule="evenodd" d="M18.5304 16.4702C18.8233 16.7631 18.8233 17.2379 18.5304 17.5308L16.0608 20.0005L18.5304 22.4702C18.8233 22.7631 18.8233 23.2379 18.5304 23.5308C18.2375 23.8237 17.7627 23.8237 17.4698 23.5308L13.9395 20.0005L17.4698 16.4702C17.7627 16.1773 18.2375 16.1773 18.5304 16.4702Z" fill="#A252E0"/>
<path fill-rule="evenodd" clip-rule="evenodd" d="M21.4696 16.4697C21.1767 16.7626 21.1767 17.2374 21.4696 17.5303L23.9392 20L21.4696 22.4697C21.1767 22.7626 21.1767 23.2374 21.4696 23.5303C21.7625 23.8232 22.2373 23.8232 22.5302 23.5303L26.0605 20L22.5302 16.4697C22.2373 16.1768 21.7625 16.1768 21.4696 16.4697Z" fill="#A252E0"/>
<path fill-rule="evenodd" clip-rule="evenodd" d="M27 11.5H13C12.1716 11.5 11.5 12.1716 11.5 13V27C11.5 27.8284 12.1716 28.5 13 28.5H27C27.8284 28.5 28.5 27.8284 28.5 27V13C28.5 12.1716 27.8284 11.5 27 11.5ZM13 10C11.3431 10 10 11.3431 10 13V27C10 28.6569 11.3431 30 13 30H27C28.6569 30 30 28.6569 30 27V13C30 11.3431 28.6569 10 27 10H13Z" fill="#A252E0"/>
</svg>