<svg width="20" height="20" viewBox="0 0 20 20" fill="none" xmlns="http://www.w3.org/2000/svg">
<path fill-rule="evenodd" clip-rule="evenodd" d="M5 1.96875C3.34315 1.96875 2 3.3119 2 4.96875V14.9688C2 16.6256 3.34315 17.9688 5 17.9688H15C16.6569 17.9688 18 16.6256 18 14.9688V4.96875C18 3.3119 16.6569 1.96875 15 1.96875H5Z" fill="#AB50CC"/>
<path fill-rule="evenodd" clip-rule="evenodd" d="M11.9571 7.00004C11.7619 6.80478 11.4453 6.80478 11.25 7.00004C11.0548 7.1953 11.0548 7.51188 11.25 7.70714L13.5429 10L11.25 12.2929C11.0548 12.4882 11.0548 12.8048 11.25 13C11.4453 13.1953 11.7619 13.1953 11.9571 13L14.9571 10L11.9571 7.00004Z" fill="white"/>
<path fill-rule="evenodd" clip-rule="evenodd" d="M8.04286 7.00004C8.23812 6.80478 8.5547 6.80478 8.74996 7.00004C8.94522 7.1953 8.94522 7.51188 8.74996 7.70714L6.45707 10L8.74996 12.2929C8.94522 12.4882 8.94522 12.8048 8.74996 13C8.5547 13.1953 8.23812 13.1953 8.04286 13L5.04286 10L8.04286 7.00004Z" fill="white"/>
</svg>
