<svg width="40" height="40" viewBox="0 0 40 40" fill="none" xmlns="http://www.w3.org/2000/svg">
<path fill-rule="evenodd" clip-rule="evenodd" d="M9 17C9 14.1997 9 12.7996 9.54497 11.73C10.0243 10.7892 10.7892 10.0243 11.73 9.54497C12.7996 9 14.1997 9 17 9H23C25.8003 9 27.2004 9 28.27 9.54497C29.2108 10.0243 29.9757 10.7892 30.455 11.73C31 12.7996 31 14.1997 31 17V23C31 25.8003 31 27.2004 30.455 28.27C29.9757 29.2108 29.2108 29.9757 28.27 30.455C27.2004 31 25.8003 31 23 31H17C14.1997 31 12.7996 31 11.73 30.455C10.7892 29.9757 10.0243 29.2108 9.54497 28.27C9 27.2004 9 25.8003 9 23V17ZM17.5304 15.9697C17.8232 16.2626 17.8232 16.7375 17.5303 17.0304L14.5607 19.9996L17.5303 22.9692C17.8232 23.2621 17.8232 23.737 17.5303 24.0299C17.2374 24.3228 16.7626 24.3228 16.4697 24.0299L12.4393 19.9995L16.4697 15.9696C16.7626 15.6768 17.2375 15.6768 17.5304 15.9697ZM22.4697 17.0304C22.1768 16.7375 22.1768 16.2626 22.4696 15.9697C22.7625 15.6768 23.2374 15.6768 23.5303 15.9696L27.5607 19.9995L23.5303 24.0299C23.2374 24.3228 22.7626 24.3228 22.4697 24.0299C22.1768 23.737 22.1768 23.2621 22.4697 22.9692L25.4393 19.9996L22.4697 17.0304Z" fill="#AB50CC"/>
<path fill-rule="evenodd" clip-rule="evenodd" d="M17.5303 17.0304C17.8232 16.7375 17.8232 16.2626 17.5304 15.9697C17.2375 15.6768 16.7626 15.6768 16.4697 15.9696L12.4393 19.9995L16.4697 24.0299C16.7626 24.3228 17.2374 24.3228 17.5303 24.0299C17.8232 23.737 17.8232 23.2621 17.5303 22.9692L14.5607 19.9996L17.5303 17.0304ZM22.4696 15.9697C22.1768 16.2626 22.1768 16.7375 22.4697 17.0304L25.4393 19.9996L22.4697 22.9692C22.1768 23.2621 22.1768 23.737 22.4697 24.0299C22.7626 24.3228 23.2374 24.3228 23.5303 24.0299L27.5607 19.9995L23.5303 15.9696C23.2374 15.6768 22.7625 15.6768 22.4696 15.9697Z" fill="white"/>
</svg>