<svg width="40" height="40" viewBox="0 0 40 40" fill="none" xmlns="http://www.w3.org/2000/svg">
<path fill-rule="evenodd" clip-rule="evenodd" d="M9 18C9 15.1997 9 13.7996 9.54497 12.73C10.0243 11.7892 10.7892 11.0243 11.73 10.545C12.7996 10 14.1997 10 17 10H23C25.8003 10 27.2004 10 28.27 10.545C29.2108 11.0243 29.9757 11.7892 30.455 12.73C31 13.7996 31 15.1997 31 18V24C31 26.8003 31 28.2004 30.455 29.27C29.9757 30.2108 29.2108 30.9757 28.27 31.455C27.2004 32 25.8003 32 23 32H17C14.1997 32 12.7996 32 11.73 31.455C10.7892 30.9757 10.0243 30.2108 9.54497 29.27C9 28.2004 9 26.8003 9 24V18ZM17.5304 16.9697C17.8232 17.2626 17.8232 17.7375 17.5303 18.0304L14.5607 20.9996L17.5303 23.9692C17.8232 24.2621 17.8232 24.737 17.5303 25.0299C17.2374 25.3228 16.7626 25.3228 16.4697 25.0299L12.4393 20.9995L16.4697 16.9696C16.7626 16.6768 17.2375 16.6768 17.5304 16.9697ZM22.4697 18.0304C22.1768 17.7375 22.1768 17.2626 22.4696 16.9697C22.7625 16.6768 23.2374 16.6768 23.5303 16.9696L27.5607 20.9995L23.5303 25.0299C23.2374 25.3228 22.7626 25.3228 22.4697 25.0299C22.1768 24.737 22.1768 24.2621 22.4697 23.9692L25.4393 20.9996L22.4697 18.0304Z" fill="#AB50CC"/>
</svg>
