<svg width="24" height="24" viewBox="0 0 24 24" fill="none" xmlns="http://www.w3.org/2000/svg">
<path fill-rule="evenodd" clip-rule="evenodd" d="M9.1973 5.2934C9.58781 5.68393 9.5878 6.3171 9.19727 6.70761L3.90442 12.0002L9.19727 17.2928C9.5878 17.6833 9.58781 18.3165 9.1973 18.707C8.80679 19.0975 8.17362 19.0975 7.78309 18.707L1.07593 12.0002L7.78309 5.29336C8.17362 4.90285 8.80679 4.90286 9.1973 5.2934Z" fill="#F55522"/>
<path fill-rule="evenodd" clip-rule="evenodd" d="M14.8335 5.2934C14.4429 5.68393 14.443 6.3171 14.8335 6.70761L20.1263 12.0002L14.8335 17.2928C14.443 17.6833 14.4429 18.3165 14.8335 18.707C15.224 19.0975 15.8571 19.0975 16.2477 18.707L22.9548 12.0002L16.2477 5.29336C15.8571 4.90285 15.224 4.90286 14.8335 5.2934Z" fill="#F55522"/>
</svg>
