<svg width="20" height="20" viewBox="0 0 20 20" fill="none" xmlns="http://www.w3.org/2000/svg">
<path d="M14.0625 2C16.2716 2 18.0625 3.79086 18.0625 6V14C18.0625 16.2091 16.2716 18 14.0625 18H6.0625C3.85336 18 2.0625 16.2091 2.0625 14V6C2.0625 3.79086 3.85336 2 6.0625 2H14.0625ZM8.35352 6.64648C8.15825 6.45122 7.84175 6.45122 7.64648 6.64648L4.29297 10L7.64648 13.3535C7.84174 13.5488 8.15826 13.5487 8.35352 13.3535C8.54877 13.1583 8.54876 12.8417 8.35352 12.6465L5.70703 10L8.35352 7.35352C8.54877 7.15826 8.54876 6.84175 8.35352 6.64648ZM12.3535 6.64648C12.1583 6.45122 11.8417 6.45122 11.6465 6.64648C11.4512 6.84175 11.4512 7.15826 11.6465 7.35352L14.293 10L11.6465 12.6465C11.4512 12.8417 11.4512 13.1583 11.6465 13.3535C11.8417 13.5487 12.1583 13.5488 12.3535 13.3535L15.707 10L12.3535 6.64648Z" fill="#AB50CC"/>
</svg>