<svg width="24" height="24" viewBox="0 0 24 24" fill="none" xmlns="http://www.w3.org/2000/svg">
<path d="M6.08203 5H18.0508V7H6.08203V5Z" fill="#ACA996"/>
<path d="M6.08203 17H18.0508V19H6.08203V17Z" fill="#ACA996"/>
<path d="M13.082 12C13.082 12.5523 12.6343 13 12.082 13C11.5297 13 11.082 12.5523 11.082 12C11.082 11.4477 11.5297 11 12.082 11C12.6343 11 13.082 11.4477 13.082 12Z" fill="#ACA996"/>
<path d="M5.08203 12C5.08203 12.5523 4.63432 13 4.08203 13C3.52975 13 3.08203 12.5523 3.08203 12C3.08203 11.4477 3.52975 11 4.08203 11C4.63432 11 5.08203 11.4477 5.08203 12Z" fill="#ACA996"/>
<path d="M21.082 12C21.082 12.5523 20.6343 13 20.082 13C19.5297 13 19.082 12.5523 19.082 12C19.082 11.4477 19.5297 11 20.082 11C20.6343 11 21.082 11.4477 21.082 12Z" fill="#ACA996"/>
</svg>