<svg width="40" height="40" viewBox="0 0 40 40" fill="none" xmlns="http://www.w3.org/2000/svg">
<path fill-rule="evenodd" clip-rule="evenodd" d="M18.7197 14.7197C19.0126 14.4268 19.4874 14.4268 19.7803 14.7197L25.0607 20L19.7803 25.2803C19.4874 25.5732 19.0126 25.5732 18.7197 25.2803C18.4268 24.9874 18.4268 24.5126 18.7197 24.2197L22.9393 20L18.7197 15.7803C18.4268 15.4874 18.4268 15.0126 18.7197 14.7197Z" fill="#b6b6b6"/>
<path d="M23 19.25H6V20.75H23V19.25Z" fill="#b6b6b6"/>
<path fill-rule="evenodd" clip-rule="evenodd" d="M23 10.5H17C15.5751 10.5 14.5967 10.5012 13.8381 10.5631C13.0971 10.6237 12.6991 10.7347 12.411 10.8815C11.7525 11.217 11.217 11.7525 10.8815 12.411C10.7347 12.6991 10.6237 13.0972 10.5631 13.8382C10.5258 14.2956 10.5105 14.833 10.5043 15.5H9.00415C9.02113 13.661 9.10733 12.5889 9.54495 11.73C10.0243 10.7892 10.7892 10.0243 11.73 9.54497C12.7996 9 14.1997 9 17 9H23C25.8002 9 27.2004 9 28.2699 9.54497C29.2107 10.0243 29.9757 10.7892 30.455 11.73C31 12.7996 31 14.1997 31 17V23C31 25.8003 31 27.2004 30.455 28.27C29.9757 29.2108 29.2107 29.9757 28.2699 30.455C27.2004 31 25.8002 31 23 31H17C14.1997 31 12.7996 31 11.73 30.455C10.7892 29.9757 10.0243 29.2108 9.54495 28.27C9.10733 27.4111 9.02113 26.339 9.00415 24.5H10.5043C10.5105 25.167 10.5258 25.7044 10.5631 26.1618C10.6237 26.9028 10.7347 27.3009 10.8815 27.589C11.217 28.2475 11.7525 28.783 12.411 29.1185C12.6991 29.2653 13.0971 29.3763 13.8381 29.4369C14.5967 29.4988 15.5751 29.5 17 29.5H23C24.4249 29.5 25.4033 29.4988 26.1618 29.4369C26.9028 29.3763 27.3009 29.2653 27.589 29.1185C28.2475 28.783 28.783 28.2475 29.1185 27.589C29.2653 27.3009 29.3763 26.9028 29.4368 26.1618C29.4988 25.4033 29.5 24.4249 29.5 23V17C29.5 15.5751 29.4988 14.5967 29.4368 13.8382C29.3763 13.0972 29.2653 12.6991 29.1185 12.411C28.783 11.7525 28.2475 11.217 27.589 10.8815C27.3009 10.7347 26.9028 10.6237 26.1618 10.5631C25.4033 10.5012 24.4249 10.5 23 10.5Z" fill="#b6b6b6"/>
</svg>
