<svg width="40" height="40" viewBox="0 0 40 40" fill="none" xmlns="http://www.w3.org/2000/svg">
<rect width="40" height="40" rx="8" fill="#A8E5FF"/>
<path fill-rule="evenodd" clip-rule="evenodd" d="M14 11.5H26C26.2761 11.5 26.5 11.7239 26.5 12V28C26.5 28.2761 26.2761 28.5 26 28.5H14C13.7239 28.5 13.5 28.2761 13.5 28V23H12V28C12 29.1046 12.8954 30 14 30H26C27.1046 30 28 29.1046 28 28V12C28 10.8954 27.1046 10 26 10H14C12.8954 10 12 10.8954 12 12V17H13.5V12C13.5 11.7239 13.7239 11.5 14 11.5Z" fill="#1BA0EB"/>
<path fill-rule="evenodd" clip-rule="evenodd" d="M18.4697 15.4697C18.7626 15.1768 19.2374 15.1768 19.5303 15.4697L24.0607 20L19.5303 24.5303C19.2374 24.8232 18.7626 24.8232 18.4697 24.5303C18.1768 24.2374 18.1768 23.7626 18.4697 23.4697L21.9393 20L18.4697 16.5303C18.1768 16.2374 18.1768 15.7626 18.4697 15.4697Z" fill="#1BA0EB"/>
<path d="M23 19.25H8V20.75H23V19.25Z" fill="#1BA0EB"/>
</svg>