<svg width="40" height="40" viewBox="0 0 40 40" fill="none" xmlns="http://www.w3.org/2000/svg">
<rect width="40" height="40" rx="8" fill="#F3F2EC"/>
<path fill-rule="evenodd" clip-rule="evenodd" d="M18.4697 15.4697C18.7626 15.1768 19.2374 15.1768 19.5303 15.4697L24.0607 20L19.5303 24.5303C19.2374 24.8232 18.7626 24.8232 18.4697 24.5303C18.1768 24.2374 18.1768 23.7626 18.4697 23.4697L21.9393 20L18.4697 16.5303C18.1768 16.2374 18.1768 15.7626 18.4697 15.4697Z" fill="#ACA996"/>
<path d="M23 19.25H8V20.75H23V19.25Z" fill="#ACA996"/>
<path fill-rule="evenodd" clip-rule="evenodd" d="M14 11.5H26C27.3807 11.5 28.5 12.6193 28.5 14V26C28.5 27.3807 27.3807 28.5 26 28.5H14C12.6193 28.5 11.5 27.3807 11.5 26V23H10V26C10 28.2091 11.7909 30 14 30H26C28.2091 30 30 28.2091 30 26V14C30 11.7909 28.2091 10 26 10H14C11.7909 10 10 11.7909 10 14V17H11.5V14C11.5 12.6193 12.6193 11.5 14 11.5Z" fill="#ACA996"/>
</svg>
