<svg width="20" height="20" viewBox="0 0 20 20" fill="none" xmlns="http://www.w3.org/2000/svg">
<path fill-rule="evenodd" clip-rule="evenodd" d="M8.96967 6.46967C8.67678 6.76256 8.67678 7.23744 8.96967 7.53033L11.4393 10L8.96967 12.4697C8.67678 12.7626 8.67678 13.2374 8.96967 13.5303C9.26256 13.8232 9.73744 13.8232 10.0303 13.5303L13.5607 10L10.0303 6.46967C9.73744 6.17678 9.26256 6.17678 8.96967 6.46967Z" fill="#b6b6b6"/>
<path d="M12 9.25H0V10.75H12V9.25Z" fill="#b6b6b6"/>
<path fill-rule="evenodd" clip-rule="evenodd" d="M15 16.5H5V11.9844H3.5V16.5C3.5 17.3284 4.17157 18 5 18H15C15.8284 18 16.5 17.3284 16.5 16.5V3.5C16.5 2.67157 15.8284 2 15 2H5C4.17157 2 3.5 2.67157 3.5 3.5V7.98438H5V3.5H15V16.5Z" fill="#b6b6b6"/>
</svg>