<svg width="24" height="24" viewBox="0 0 24 24" fill="none" xmlns="http://www.w3.org/2000/svg">
<path fill-rule="evenodd" clip-rule="evenodd" d="M6 4H18V20H6V15H4V20C4 21.1046 4.89543 22 6 22H18C19.1046 22 20 21.1046 20 20V4C20 2.89543 19.1046 2 18 2H6C4.89543 2 4 2.89543 4 4V9H6V4Z" fill="#2AA7EE"/>
<path fill-rule="evenodd" clip-rule="evenodd" d="M10.7929 7.79289C11.1834 7.40237 11.8166 7.40237 12.2071 7.79289L16.4142 12L12.2071 16.2071C11.8166 16.5976 11.1834 16.5976 10.7929 16.2071C10.4024 15.8166 10.4024 15.1834 10.7929 14.7929L13.5858 12L10.7929 9.20711C10.4024 8.81658 10.4024 8.18342 10.7929 7.79289Z" fill="#2AA7EE"/>
<path d="M1 11H14V13H1V11Z" fill="#2AA7EE"/>
</svg>