<svg width="20" height="20" viewBox="0 0 20 20" fill="none" xmlns="http://www.w3.org/2000/svg">
<path d="M11.9238 3.45703C13.1992 2.1817 15.2675 2.18098 16.543 3.45605L16.6582 3.57812C17.8169 4.86019 17.7787 6.84047 16.543 8.07617L16.4209 8.19141C15.6038 8.9295 14.5048 9.17843 13.4949 8.94313C13.0823 8.84701 12.6289 8.91017 12.3294 9.2097L9.21297 12.3261C8.91327 12.6258 8.85027 13.0796 8.94623 13.4924C9.19312 14.5545 8.90299 15.7162 8.0752 16.5439L7.95312 16.6592C6.67104 17.8173 4.69157 17.7785 3.45605 16.543C2.18118 15.2676 2.18117 13.2001 3.45605 11.9248C4.28387 11.097 5.4455 10.807 6.5077 11.0539C6.92048 11.1498 7.37417 11.0868 7.67383 10.7871L10.787 7.6739C11.0867 7.37421 11.1497 6.92045 11.0537 6.50763C10.8068 5.44584 11.0964 4.2848 11.9238 3.45703ZM7.01465 12.9844C6.32495 12.2951 5.20612 12.2958 4.5166 12.9854C3.82751 13.6749 3.82751 14.7929 4.5166 15.4824C5.20613 16.1719 6.32495 16.1726 7.01465 15.4834C7.70431 14.7937 7.70431 13.674 7.01465 12.9844ZM15.4824 4.5166C14.7927 3.82731 13.6739 3.82804 12.9844 4.51758C12.2953 5.20716 12.2952 6.32511 12.9844 7.01465C13.6739 7.70415 14.7927 7.7048 15.4824 7.01562C16.1721 6.32596 16.1721 5.20627 15.4824 4.5166Z" fill="#9B9B9B"/>
</svg>