<svg width="40" height="40" viewBox="0 0 40 40" fill="none" xmlns="http://www.w3.org/2000/svg">
<rect width="40" height="40" rx="8" fill="#F3F2EC"/>
<path d="M25.5888 12.4075C24.4173 11.2359 22.5178 11.2359 21.3462 12.4075L13.3912 20.3624C11.5363 22.2174 11.5363 25.225 13.3912 27.08C15.2462 28.9349 18.2538 28.9349 20.1088 27.08L27.3566 19.8321L28.4173 20.8928L21.1694 28.1406C18.7286 30.5814 14.7714 30.5814 12.3306 28.1406C9.88981 25.6998 9.88981 21.7426 12.3306 19.3018L20.2855 11.3468C22.0429 9.58947 24.8921 9.58947 26.6495 11.3468C28.4069 13.1042 28.4069 15.9534 26.6495 17.7108L19.4017 24.9586C18.3277 26.0326 16.5865 26.0326 15.5126 24.9586C14.4386 23.8847 14.4386 22.1435 15.5126 21.0695L22.0533 14.5288L23.114 15.5895L16.5732 22.1302C16.0851 22.6184 16.0851 23.4098 16.5732 23.898C17.0614 24.3861 17.8528 24.3861 18.341 23.898L25.5888 16.6501C26.7604 15.4786 26.7604 13.5791 25.5888 12.4075Z" fill="#ACA996"/>
</svg>