<svg width="24" height="24" viewBox="0 0 24 24" fill="none" xmlns="http://www.w3.org/2000/svg">
<g clip-path="url(#clip0)">
<path d="M16.9501 8.65225C18.1217 7.48068 18.1217 5.58118 16.9501 4.40961C15.7785 3.23804 13.879 3.23804 12.7074 4.40961L5.63636 11.4807C3.68374 13.4333 3.68336 16.5987 5.63598 18.5514C7.5886 20.504 10.7544 20.504 12.707 18.5514L19.0709 12.1873L20.4852 13.6015L14.1212 19.9655C11.3875 22.6992 6.95544 22.6992 4.22177 19.9656C1.4881 17.2319 1.4881 12.7997 4.22177 10.0661L11.2932 2.99539C13.2458 1.04277 16.4117 1.04277 18.3643 2.9954C20.3169 4.94802 20.3169 8.11384 18.3643 10.0665L12.0003 16.4304C10.8288 17.602 8.92927 17.602 7.7577 16.4304C6.58612 15.2589 6.58612 13.3594 7.7577 12.1878L13.4146 6.53094L14.8288 7.94515L9.17191 13.602C8.78139 13.9925 8.78139 14.6257 9.17191 15.0162C9.56243 15.4067 10.1956 15.4067 10.5861 15.0162L16.9501 8.65225Z" fill="#F55522"/>
</g>
<defs>
<clipPath id="clip0">
<path d="M0 0H24V24H0V0Z" fill="white"/>
</clipPath>
</defs>
</svg>