<svg width="40" height="40" viewBox="0 0 40 40" fill="none" xmlns="http://www.w3.org/2000/svg">
<path d="M20.2487 10.3818L21.2208 11.354L13.1197 19.4551L12.1476 18.483L20.2487 10.3818Z" fill="#1BA0EB"/>
<path d="M26.7246 16.8578C28.0866 15.3281 28.0341 12.9825 26.5673 11.5157C25.1005 10.0489 22.7549 9.99645 21.2252 11.3584L20.2519 10.385C22.3196 8.48691 25.5356 8.53976 27.5394 10.5436C29.5432 12.5474 29.5961 15.7634 27.698 17.8311L26.7246 16.8578Z" fill="#1BA0EB"/>
<path d="M21.5449 27.8803C19.2183 30.2068 15.4463 30.2068 13.1197 27.8803C10.7932 25.5537 10.7932 21.7817 13.1197 19.4551L12.1476 18.483C9.28414 21.3464 9.28414 25.989 12.1476 28.8524C15.011 31.7159 19.6536 31.7159 22.517 28.8524L21.5449 27.8803Z" fill="#1BA0EB"/>
<path d="M22.193 14.2704L23.1651 15.2425L16.6842 21.7234L15.7121 20.7513L22.193 14.2704Z" fill="#1BA0EB"/>
<path d="M19.2766 24.3158C18.5607 25.0316 17.4001 25.0316 16.6842 24.3158C15.9684 23.5999 15.9684 22.4393 16.6842 21.7234L15.7121 20.7513C14.4593 22.004 14.4593 24.0352 15.7121 25.2879C16.9648 26.5407 18.996 26.5407 20.2487 25.2879L19.2766 24.3158Z" fill="#1BA0EB"/>
<path d="M26.7296 16.8627L27.7017 17.8349L20.2487 25.2879L19.2766 24.3158L26.7296 16.8627Z" fill="#1BA0EB"/>
<path d="M28.6739 20.7513L29.646 21.7234L22.517 28.8524L21.5449 27.8803L28.6739 20.7513Z" fill="#1BA0EB"/>
</svg>
