<svg width="20" height="20" viewBox="0 0 20 20" fill="none" xmlns="http://www.w3.org/2000/svg">
<path d="M10.3238 3.11809L11.4036 4.19781L5.64505 9.95634L4.56533 8.87661L10.3238 3.11809Z" fill="#189BE6"/>
<path d="M11.7635 5.99735L12.8432 7.07707L8.52431 11.396L7.44459 10.3162L11.7635 5.99735Z" fill="#189BE6"/>
<path d="M14.6431 7.43733L15.7228 8.51706L10.6841 13.5558L9.60438 12.476L14.6431 7.43733Z" fill="#189BE6"/>
<path d="M16.0824 10.3162L17.1621 11.396L12.1234 16.4347L11.0437 15.355L16.0824 10.3162Z" fill="#189BE6"/>
<path d="M14.6451 7.4393L15.7228 8.51706C17.2136 7.02627 17.2133 4.60888 15.7225 3.11809C14.2317 1.6273 11.8146 1.6273 10.3238 3.11809L11.4013 4.1955C12.297 3.29975 13.7493 3.29975 14.6451 4.1955C15.5408 5.09125 15.5408 6.54355 14.6451 7.4393Z" fill="#189BE6"/>
<path d="M11.0437 15.355C9.55288 16.8457 7.13584 16.8457 5.64505 15.355C4.15426 13.8642 4.15426 11.4471 5.64505 9.95634L4.56533 8.87661C2.47822 10.9637 2.47822 14.3476 4.56533 16.4347C6.65243 18.5218 10.0363 18.5218 12.1234 16.4347L11.0437 15.355Z" fill="#189BE6"/>
<path d="M9.60438 12.476C9.30623 12.7742 8.82247 12.7738 8.52431 12.4757C8.22615 12.1775 8.22615 11.6941 8.52431 11.396L7.44459 10.3162C6.55012 11.2107 6.55012 12.6609 7.44459 13.5554C8.33906 14.4499 9.78964 14.4502 10.6841 13.5558L9.60438 12.476Z" fill="#189BE6"/>
</svg>