<svg xmlns="http://www.w3.org/2000/svg" width="20" height="14" viewBox="0 0 20 14">
    <g fill="#ffbb2c" fill-rule="evenodd">
        <path d="M12.99 13.641l3.397-3.82c.894-1.007 1.464-1.876 1.464-2.773 0-.827-.414-1.338-1.231-1.338-.83 0-1.335.497-1.478 1.807h-1.905C13.34 5.214 14.624 4 16.71 4c1.024 0 1.827.317 2.385.828.531.538.83 1.282.83 2.165 0 1.31-.713 2.386-1.79 3.49l-1.75 1.82h3.604V14h-7v-.359z"/>
        <path fill-rule="nonzero" d="M1.74 5.6h7.2V8h-7.2z"/>
        <path fill-rule="nonzero" d="M0 0h2.9v14H0zM8.09 0h2.9v14h-2.9z"/>
    </g>
</svg>
