<svg xmlns="http://www.w3.org/2000/svg" width="19" height="13" viewBox="0 0 19 13">
    <g fill="#ACA996" fill-rule="evenodd">
        <path fill-rule="nonzero" d="M1 5.942h6v2H1z"/>
        <path fill-rule="nonzero" d="M0 .942h2.5v12H0zM7 .942h2.5v12H7z"/>
        <path d="M15.023 12.942c-2.48 0-3.712-1.26-3.807-3.225h1.978c.095.935.57 1.613 1.748 1.613 1.098 0 1.612-.529 1.612-1.396 0-.935-.514-1.396-1.558-1.396h-.759V7.075h.705c1.03 0 1.477-.46 1.477-1.287 0-.691-.434-1.206-1.341-1.206-.922 0-1.49.542-1.6 1.463h-1.937c.054-.88.393-1.653 1.003-2.208.596-.542 1.477-.868 2.574-.868 1.07 0 1.897.271 2.48.746.582.474.894 1.124.894 1.883 0 1.084-.623 1.761-1.599 2.1 1.138.258 1.884 1.03 1.884 2.277 0 1.829-1.382 2.967-3.754 2.967z"/>
    </g>
</svg>
