<svg width="40" height="40" viewBox="0 0 40 40" fill="none" xmlns="http://www.w3.org/2000/svg">
<rect y="0.000976562" width="40" height="40" rx="8" fill="#FFEE94"/>
<rect x="11" y="19.001" width="9" height="1.5" fill="#E89D00"/>
<rect x="10.5" y="12.001" width="1.5" height="16" fill="#E89D00"/>
<rect x="19.5" y="12.001" width="1.5" height="16" fill="#E89D00"/>
<path d="M27.4976 28.0873C29.5197 28.0873 31.0048 26.8785 31 25.2345C31.0048 23.9822 30.2453 23.0829 28.9295 22.8798V22.8024C29.9647 22.5365 30.6372 21.7242 30.6323 20.6121C30.6372 19.1567 29.4423 17.9141 27.5363 17.9141C25.7173 17.9141 24.2564 19.0116 24.208 20.6218H25.6545C25.6883 19.7127 26.5446 19.1615 27.5169 19.1615C28.528 19.1615 29.1907 19.7756 29.1859 20.6894C29.1907 21.6468 28.4215 22.2754 27.3234 22.2754H26.4865V23.4938H27.3234C28.6973 23.4938 29.4907 24.1901 29.4907 25.1862C29.4907 26.1484 28.6538 26.8011 27.4879 26.8011C26.414 26.8011 25.5771 26.2499 25.519 25.3699H24C24.0629 26.9848 25.4948 28.0873 27.4976 28.0873Z" fill="#E89D00"/>
</svg>