<svg width="24" height="24" viewBox="0 0 24 24" fill="none" xmlns="http://www.w3.org/2000/svg">
<path fill-rule="evenodd" clip-rule="evenodd" d="M15.0001 18.6414L18.3964 14.8207C19.2908 13.8138 19.8612 12.9448 19.8612 12.0483C19.8612 11.2207 19.4464 10.7103 18.6297 10.7103C17.8001 10.7103 17.2945 11.2069 17.1519 12.5172H15.2464C15.3501 10.2138 16.6334 9 18.7204 9C19.7445 9 20.5482 9.31724 21.1056 9.82759C21.6371 10.3655 21.9352 11.1103 21.9352 11.9931C21.9352 13.3034 21.2223 14.3793 20.1464 15.4828L18.3964 17.3034H22.0001V19H15.0001V18.6414Z" fill="#fff"/>
<rect x="4" y="10.6" width="8" height="2.4" fill="#fff"/>
<rect x="2" y="5" width="2.9" height="14" fill="#fff"/>
<rect x="10.1403" y="5" width="2.9" height="14" fill="#fff"/>
</svg>
