<svg width="24" height="24" viewBox="0 0 24 24" fill="none" xmlns="http://www.w3.org/2000/svg">
<path d="M14.762 18.6641V19.0001H22V17.5581H17.744L19.97 15.3881C21.16 14.2261 21.93 13.1061 21.93 11.8041C21.93 10.0541 20.698 8.8501 18.626 8.8501C16.498 8.8501 15.196 10.0961 15.07 12.2941H16.778C16.946 10.8801 17.562 10.3061 18.57 10.3061C19.536 10.3061 20.068 10.8801 20.068 11.8321C20.068 12.7841 19.494 13.6661 18.542 14.6741L14.762 18.6641Z" fill="#FFB522"/>
<path fill-rule="evenodd" clip-rule="evenodd" d="M2 5H4V11H11V5H13V19H11V12.7H4V19H2V5Z" fill="#FFB522"/>
</svg>
