<svg width="24" height="24" viewBox="0 0 24 24" fill="none" xmlns="http://www.w3.org/2000/svg">
<path d="M4 11.022H10.9985V12.622H4V11.022Z" fill="#FFB522"/>
<path d="M3.04053 6.02197H5.04053V18.022H3.04053V6.02197Z" fill="#FFB522"/>
<path d="M10.0405 6.02197H12.0405V18.022H10.0405V6.02197Z" fill="#FFB522"/>
<path d="M18.016 18.1501C20.312 18.1501 21.768 17.001 21.768 15.1512C21.768 13.8059 21.012 12.9931 19.836 12.7268C20.802 12.3485 21.46 11.6758 21.46 10.5407C21.46 9.04125 20.242 7.8501 18.156 7.8501C16 7.8501 14.726 9.18139 14.614 10.9191H16.266C16.378 9.9101 17.064 9.26547 18.128 9.26547C19.178 9.26547 19.682 9.85404 19.682 10.6808C19.682 11.6338 19.178 12.1523 18.016 12.1523H17.302V13.4836H18.072C19.276 13.4836 19.878 14.0301 19.878 15.1232C19.878 16.1321 19.276 16.7487 17.974 16.7487C16.63 16.7487 16.042 15.964 15.944 14.913H14.25C14.32 16.8188 15.636 18.1501 18.016 18.1501Z" fill="#FFB522"/>
</svg>