<svg width="40" height="40" viewBox="0 0 40 40" fill="none" xmlns="http://www.w3.org/2000/svg">
<rect y="0.000976562" width="40" height="40" rx="8" fill="#FFEE94"/>
<rect x="11" y="19.001" width="9" height="1.5" fill="#E89D00"/>
<rect x="10.5" y="12.001" width="1.5" height="16" fill="#E89D00"/>
<rect x="19.5" y="12.001" width="1.5" height="16" fill="#E89D00"/>
<path d="M24.21 28.0163H30.835V26.7139H26.3037V26.6402L28.3039 24.5466C30.1469 22.6839 30.6728 21.7944 30.6728 20.6689C30.6728 19.052 29.3557 17.8135 27.4586 17.8135C25.5763 17.8135 24.2002 19.0323 24.2002 20.8704H25.65C25.6451 19.7892 26.343 19.0815 27.4291 19.0815C28.4514 19.0815 29.2279 19.7105 29.2279 20.7131C29.2279 21.6027 28.6971 22.2416 27.6159 23.3867L24.21 26.9154V28.0163Z" fill="#E89D00"/>
</svg>