<svg width="20" height="20" viewBox="0 0 20 20" fill="none" xmlns="http://www.w3.org/2000/svg">
<rect x="2.7998" y="9.2002" width="8" height="1.36" fill="#ACA996"/>
<rect x="2" y="3" width="1.5" height="14" fill="#ACA996"/>
<rect x="10" y="3" width="1.5" height="14" fill="#ACA996"/>
<path d="M14.2468 17H19.7002V15.7905H16.2355V15.7359L17.6066 14.3351C19.1525 12.8447 19.5798 12.119 19.5798 11.2177C19.5798 9.87936 18.4961 8.90002 16.8958 8.90002C15.3188 8.90002 14.2002 9.88326 14.2002 11.401H15.5713C15.5713 10.5856 16.084 10.0744 16.8764 10.0744C17.6338 10.0744 18.197 10.5388 18.197 11.2918C18.197 11.959 17.7931 12.435 17.0085 13.2349L14.2468 15.9544V17Z" fill="#ACA996"/>
</svg>