<svg width="40" height="40" viewBox="0 0 40 40" fill="none" xmlns="http://www.w3.org/2000/svg">
<path d="M9.6375 8.97998L3.0575 29H7.3135L8.6855 24.548H15.9375L17.3095 29H22.0415L15.5455 8.97998H9.6375ZM9.6655 21.328L12.3255 12.676L14.9575 21.328H9.6655Z" fill="#252525"/>
<path d="M27.8018 29.308C30.1258 29.308 31.3578 28.44 32.2258 27.236V29H36.1738V19.452C36.1738 17.464 35.5578 16.12 34.4658 15.252C33.3458 14.384 31.8338 14.02 30.0418 14.02C28.2498 14.02 26.6538 14.412 25.5058 15.224C24.3578 16.036 23.5738 17.324 23.4618 19.032H27.2978C27.4938 17.772 28.1938 16.96 29.7898 16.96C31.6658 16.96 32.1698 17.884 32.1698 19.648V20.236H30.5178C28.2778 20.236 26.3738 20.544 25.0298 21.3C23.6858 22.056 22.9018 23.232 22.9018 24.94C22.9018 26.48 23.4618 27.572 24.3578 28.272C25.2538 28.972 26.4578 29.308 27.8018 29.308ZM29.0058 26.48C27.5218 26.48 26.8778 25.808 26.8778 24.716C26.8778 23.148 28.2498 22.644 30.6018 22.644H32.1698V23.876C32.1698 25.528 30.7978 26.48 29.0058 26.48Z" fill="#252525"/>
</svg>
