<svg width="40" height="40" viewBox="0 0 40 40" fill="none" xmlns="http://www.w3.org/2000/svg">
<path fill-rule="evenodd" clip-rule="evenodd" d="M32.9312 13.802V13L32.703 13.0177C32.3434 13.0456 31.7397 13.0457 31.3489 13.0457C30.8133 13.0457 30.16 13.0456 29.7671 13.0176L29.5402 13.0014V13.7871L29.7336 13.804C29.9521 13.8231 30.0561 13.8925 30.1078 13.9523C30.1617 14.0146 30.1843 14.0961 30.1843 14.1828C30.1843 14.2875 30.1455 14.3602 30.0343 14.5055L28.0719 17.1625L25.8554 14.134C25.8054 14.0606 25.7816 14.0203 25.7703 13.9975C25.7865 13.9659 25.8684 13.8152 26.2707 13.8045L26.4769 13.799V13.005L26.2533 13.0174C25.7435 13.0456 24.9607 13.0457 24.4264 13.0457C24.0041 13.0457 23.2071 13.0456 22.8269 13.0176L22.5996 13.0009V13.8048H22.8114C23.2625 13.8048 23.5244 13.8142 23.7178 13.8705C23.89 13.9205 24.0164 14.0108 24.1751 14.2187L27.1971 18.3618L24.4804 22.0665C24.2089 22.4333 23.8767 22.645 23.5629 22.7671H23.4567L23.4503 22.8075C23.0833 22.9283 22.7555 22.9334 22.6003 22.9334H22.3884V23.7383L22.6167 23.7206C22.8016 23.7062 23.0517 23.6992 23.3043 23.6958C23.258 23.9523 23.2091 24.1887 23.1513 24.4064C23.0412 24.8209 22.9025 25.152 22.7011 25.4121C22.3099 25.9174 21.6313 26.2167 20.235 26.2167H17.9941C17.8337 26.2167 17.7258 26.2117 17.6505 26.1995C17.6141 26.1935 17.5911 26.1867 17.577 26.181C17.5702 26.1782 17.5661 26.1759 17.5637 26.1745L17.5618 26.1732L17.5605 26.1721L17.5598 26.1712C17.5592 26.1705 17.558 26.1685 17.5563 26.1646C17.5526 26.1562 17.5473 26.1403 17.5427 26.1119C17.533 26.0514 17.5306 25.9663 17.5306 25.834V21.8331H18.8419C19.5967 21.8331 19.9198 21.9663 20.0805 22.1714C20.1638 22.2777 20.2205 22.4235 20.2547 22.6318C20.2891 22.8413 20.2984 23.0976 20.2984 23.4143V23.6261H20.9816V19.2817H20.2984V19.4935C20.2984 19.8049 20.2891 20.0563 20.2548 20.2615C20.2207 20.4654 20.1643 20.6077 20.0815 20.7113C19.9211 20.9124 19.5974 21.0436 18.8419 21.0436H17.5303V17.5203C17.5303 17.3904 17.5327 17.3075 17.5424 17.2487C17.5469 17.2212 17.552 17.2061 17.5555 17.1983C17.5571 17.1947 17.5588 17.1923 17.5592 17.1918C17.5593 17.1917 17.5602 17.1909 17.5625 17.1895C17.5648 17.188 17.5691 17.1857 17.576 17.1829C17.5903 17.1771 17.6135 17.1704 17.6501 17.1645C17.7255 17.1523 17.8335 17.1474 17.9938 17.1474H20.2014C21.4353 17.1474 22.0502 17.3785 22.4006 17.7862C22.7644 18.2094 22.8919 18.8701 23.0065 19.879L23.0278 20.0669H23.7459L23.3093 16.3098H16.0692L15.8257 13.2508V13.0385H6.30719L6 16.7954H6.71494L6.73117 16.6012C6.78342 15.9764 6.83598 15.4949 6.92217 15.1193C7.00812 14.7448 7.12295 14.4976 7.28464 14.3257C7.44393 14.1564 7.66908 14.0389 8.01931 13.9645C8.37337 13.8894 8.83867 13.8618 9.46197 13.8618H10.3366C10.3851 13.8702 10.4062 13.8812 10.4139 13.8863C10.4184 13.8893 10.4218 13.8919 10.4268 13.9042C10.4338 13.9215 10.4413 13.9528 10.4455 14.0105C10.4496 14.068 10.4497 14.1361 10.4497 14.2251V22.4294C10.4497 22.5697 10.4454 22.6533 10.4287 22.7131C10.4161 22.7581 10.3986 22.7831 10.3579 22.8076C10.305 22.8394 10.2067 22.8727 10.0207 22.8955C9.8379 22.918 9.59011 22.9284 9.25269 22.9284H8.5825V23.72L8.82295 23.7157L8.82304 23.7157C9.59041 23.7019 10.3869 23.6875 11.1682 23.6875C11.95 23.6875 12.7519 23.702 13.5214 23.7159L13.7534 23.72V22.9284H13.091C12.7587 22.9284 12.5149 22.918 12.3351 22.8956C12.1523 22.8727 12.0563 22.8396 12.0049 22.8083C11.9657 22.7843 11.9482 22.7596 11.9356 22.7139C11.919 22.6537 11.9148 22.5696 11.9148 22.4294V14.2253C11.9148 14.1399 11.9149 14.0743 11.9188 14.0185C11.9227 13.9627 11.9297 13.9309 11.937 13.9121C11.9426 13.8975 11.9474 13.8927 11.953 13.8885C11.9604 13.8829 11.9784 13.8722 12.0178 13.8621H12.8796C13.4945 13.8621 13.9542 13.8895 14.3046 13.9644C14.6511 14.0384 14.8748 14.1556 15.0338 14.3249C15.1952 14.4968 15.3105 14.7442 15.397 15.1188C15.4698 15.4338 15.519 15.8235 15.5638 16.3098H14.7336V17.1474H14.9454C15.2338 17.1474 15.4523 17.1475 15.6226 17.1576C15.7963 17.1679 15.8937 17.1878 15.9508 17.2135C15.9931 17.2324 16.0114 17.2525 16.0268 17.2945C16.0479 17.352 16.0602 17.4466 16.0602 17.613V25.7466C16.0602 25.9132 16.0481 26.0078 16.027 26.0655C16.0116 26.1074 15.9935 26.1273 15.9516 26.1461C15.8947 26.1717 15.7975 26.1917 15.6236 26.202C15.4532 26.2121 15.2344 26.2122 14.9454 26.2122H14.7336V27H23.3475V26.7882H23.3476L23.8192 23.6926C23.8723 23.6926 23.9231 23.6926 23.9707 23.6926C24.4101 23.6926 25.1597 23.6927 25.5525 23.7207L25.7794 23.7368V22.9517L25.5866 22.9343C25.3786 22.9155 25.2723 22.8469 25.2169 22.7842C25.1594 22.7192 25.1353 22.6366 25.1353 22.5555C25.1353 22.4343 25.1762 22.3753 25.2526 22.2748L27.6659 18.9871L30.3039 22.6068L30.3067 22.6104C30.3609 22.6815 30.3816 22.7178 30.3891 22.7337C30.3888 22.7342 30.3886 22.7349 30.3882 22.7356C30.377 22.7602 30.3078 22.9129 29.8806 22.9363L29.6803 22.9472V23.7358L29.9039 23.7234C30.4138 23.6951 31.1966 23.695 31.7309 23.695C32.1531 23.695 32.9501 23.6952 33.3322 23.7231L33.5596 23.7398V22.9359H33.3477C32.8244 22.9359 32.561 22.9156 32.3897 22.8572C32.2413 22.8066 32.1524 22.7244 31.999 22.5211L31.8299 22.6487L28.28 17.8009L28.4501 17.9269L30.8377 14.7047L30.8384 14.7038C30.9564 14.5476 31.1189 14.3327 31.4017 14.1504C31.6829 13.9691 32.0963 13.8123 32.722 13.8046L32.9312 13.802Z" fill="#8C9EA5"/>
<path d="M32.9312 13H33.0812V12.8379L32.9196 12.8504L32.9312 13ZM32.9312 13.802L32.933 13.9519L33.0812 13.9501V13.802H32.9312ZM32.703 13.0177L32.7145 13.1672L32.703 13.0177ZM29.7671 13.0176L29.7778 12.868L29.7671 13.0176ZM29.5402 13.0014L29.5509 12.8518L29.3902 12.8404V13.0014H29.5402ZM29.5402 13.7871H29.3902V13.9246L29.5272 13.9366L29.5402 13.7871ZM29.7336 13.804L29.7467 13.6546L29.7336 13.804ZM30.1078 13.9523L30.2212 13.8541V13.8541L30.1078 13.9523ZM30.0343 14.5055L29.9152 14.4144L29.9137 14.4164L30.0343 14.5055ZM28.0719 17.1625L27.9509 17.2511L28.0714 17.4158L28.1926 17.2517L28.0719 17.1625ZM25.8554 14.134L25.7313 14.2185L25.7343 14.2226L25.8554 14.134ZM25.7703 13.9975L25.6369 13.9288L25.6022 13.9963L25.6359 14.0642L25.7703 13.9975ZM26.2707 13.8045L26.2667 13.6545L26.2707 13.8045ZM26.4769 13.799L26.4809 13.949L26.6269 13.9451V13.799H26.4769ZM26.4769 13.005H26.6269V12.8464L26.4686 12.8552L26.4769 13.005ZM26.2533 13.0174L26.2616 13.1672L26.2533 13.0174ZM22.8269 13.0176L22.816 13.1672V13.1672L22.8269 13.0176ZM22.5996 13.0009L22.6106 12.8513L22.4496 12.8395V13.0009H22.5996ZM22.5996 13.8048H22.4496V13.9548H22.5996V13.8048ZM23.7178 13.8705L23.7597 13.7264V13.7264L23.7178 13.8705ZM24.1751 14.2187L24.2964 14.1303L24.2944 14.1277L24.1751 14.2187ZM27.1971 18.3618L27.3181 18.4505L27.383 18.3621L27.3183 18.2734L27.1971 18.3618ZM24.4804 22.0665L24.6009 22.1557L24.6013 22.1552L24.4804 22.0665ZM23.5629 22.7671V22.9171H23.591L23.6172 22.9069L23.5629 22.7671ZM23.4567 22.7671V22.6171H23.3286L23.3086 22.7437L23.4567 22.7671ZM23.4503 22.8075L23.4973 22.95L23.5842 22.9213L23.5985 22.8309L23.4503 22.8075ZM22.3884 22.9334V22.7834H22.2384V22.9334H22.3884ZM22.3884 23.7383H22.2384V23.9004L22.4 23.8879L22.3884 23.7383ZM22.6167 23.7206L22.6283 23.8701H22.6283L22.6167 23.7206ZM23.3043 23.6958L23.4519 23.7224L23.4842 23.5434L23.3022 23.5458L23.3043 23.6958ZM23.1513 24.4064L23.2963 24.4449V24.4449L23.1513 24.4064ZM22.7011 25.4121L22.8197 25.504L22.7011 25.4121ZM17.6505 26.1995L17.6746 26.0514L17.6746 26.0514L17.6505 26.1995ZM17.577 26.181L17.6336 26.0421L17.6336 26.0421L17.577 26.181ZM17.5637 26.1745L17.4803 26.2992L17.4843 26.3017L17.5637 26.1745ZM17.5618 26.1732L17.4673 26.2905L17.4784 26.2979L17.5618 26.1732ZM17.5605 26.1721L17.4436 26.2661L17.4538 26.2788L17.4664 26.289L17.5605 26.1721ZM17.5598 26.1712L17.4357 26.2563L17.4428 26.2652L17.5598 26.1712ZM17.5563 26.1646L17.419 26.2251L17.419 26.2251L17.5563 26.1646ZM17.5427 26.1119L17.6908 26.088L17.6908 26.088L17.5427 26.1119ZM17.5306 21.8331V21.6831H17.3806V21.8331H17.5306ZM20.0805 22.1714L20.1986 22.0789L20.0805 22.1714ZM20.2547 22.6318L20.4027 22.6075V22.6075L20.2547 22.6318ZM20.2984 23.6261H20.1484V23.7761H20.2984V23.6261ZM20.9816 23.6261V23.7761H21.1316V23.6261H20.9816ZM20.9816 19.2817H21.1316V19.1317H20.9816V19.2817ZM20.2984 19.2817V19.1317H20.1484V19.2817H20.2984ZM20.2548 20.2615L20.1068 20.2367V20.2367L20.2548 20.2615ZM20.0815 20.7113L20.1988 20.8049L20.0815 20.7113ZM17.5303 21.0436H17.3803V21.1936H17.5303V21.0436ZM17.5424 17.2487L17.6904 17.2731V17.2731L17.5424 17.2487ZM17.5555 17.1983L17.6924 17.2597L17.6924 17.2597L17.5555 17.1983ZM17.5592 17.1918L17.4566 17.0824L17.4452 17.0931L17.4362 17.1059L17.5592 17.1918ZM17.5625 17.1895L17.6411 17.3172L17.6411 17.3172L17.5625 17.1895ZM17.576 17.1829L17.52 17.0438L17.52 17.0438L17.576 17.1829ZM17.6501 17.1645L17.6262 17.0164L17.6501 17.1645ZM22.4006 17.7862L22.2868 17.8839V17.8839L22.4006 17.7862ZM23.0065 19.879L22.8574 19.8959L23.0065 19.879ZM23.0278 20.0669L22.8788 20.0839L22.8939 20.2169H23.0278V20.0669ZM23.7459 20.0669V20.2169H23.9143L23.8949 20.0496L23.7459 20.0669ZM23.3093 16.3098L23.4583 16.2925L23.4429 16.1598H23.3093V16.3098ZM16.0692 16.3098L15.9197 16.3217L15.9307 16.4598H16.0692V16.3098ZM15.8257 13.2508H15.6753L15.6762 13.2627L15.8257 13.2508ZM15.8257 13.0385H15.9757V12.8885H15.8257V13.0385ZM6.30719 13.0385V12.8885H6.16895L6.15769 13.0262L6.30719 13.0385ZM6 16.7954L5.8505 16.7832L5.83723 16.9454H6V16.7954ZM6.71494 16.7954V16.9454H6.85292L6.86441 16.8079L6.71494 16.7954ZM6.73117 16.6012L6.88065 16.6137L6.73117 16.6012ZM6.92217 15.1193L7.06837 15.1529L6.92217 15.1193ZM7.28464 14.3257L7.17539 14.223H7.17539L7.28464 14.3257ZM8.01931 13.9645L8.05045 14.1113L8.01931 13.9645ZM10.3366 13.8618L10.3622 13.714L10.3495 13.7118H10.3366V13.8618ZM10.4139 13.8863L10.4972 13.7616L10.4972 13.7616L10.4139 13.8863ZM10.4268 13.9042L10.2878 13.9607L10.2878 13.9607L10.4268 13.9042ZM10.4455 14.0105L10.2958 14.0213V14.0213L10.4455 14.0105ZM10.4287 22.7131L10.2843 22.6726L10.2843 22.6726L10.4287 22.7131ZM10.3579 22.8076L10.4353 22.9361L10.3579 22.8076ZM10.0207 22.8955L10.039 23.0444H10.039L10.0207 22.8955ZM8.5825 22.9284V22.7784H8.4325V22.9284H8.5825ZM8.5825 23.72H8.4325V23.8728L8.5852 23.87L8.5825 23.72ZM8.82295 23.7157L8.82565 23.8657L8.82746 23.8656L8.82295 23.7157ZM8.82304 23.7157L8.82034 23.5657L8.81854 23.5658L8.82304 23.7157ZM13.5214 23.7159L13.5241 23.5659H13.5241L13.5214 23.7159ZM13.7534 23.72L13.7507 23.87L13.9034 23.8728V23.72H13.7534ZM13.7534 22.9284H13.9034V22.7784H13.7534V22.9284ZM12.3351 22.8956L12.3165 23.0444H12.3165L12.3351 22.8956ZM12.0049 22.8083L12.0831 22.6803L12.0831 22.6803L12.0049 22.8083ZM11.9356 22.7139L11.791 22.7538V22.7538L11.9356 22.7139ZM11.9188 14.0185L11.7692 14.008V14.008L11.9188 14.0185ZM11.937 13.9121L12.077 13.9659L12.077 13.9659L11.937 13.9121ZM11.953 13.8885L12.0433 14.0083L12.0433 14.0083L11.953 13.8885ZM12.0178 13.8621V13.7121H11.9988L11.9805 13.7168L12.0178 13.8621ZM14.3046 13.9644L14.3359 13.8177L14.3046 13.9644ZM15.0338 14.3249L14.9244 14.4276L15.0338 14.3249ZM15.397 15.1188L15.5432 15.0851V15.0851L15.397 15.1188ZM15.5638 16.3098V16.4598H15.7282L15.7132 16.296L15.5638 16.3098ZM14.7336 16.3098V16.1598H14.5836V16.3098H14.7336ZM14.7336 17.1474H14.5836V17.2974H14.7336V17.1474ZM15.6226 17.1576L15.6137 17.3073L15.6226 17.1576ZM15.9508 17.2135L16.0123 17.0766L16.0123 17.0766L15.9508 17.2135ZM16.0268 17.2945L15.886 17.3462V17.3462L16.0268 17.2945ZM16.027 26.0655L16.1678 26.117L16.1679 26.117L16.027 26.0655ZM15.9516 26.1461L15.8901 26.0093V26.0093L15.9516 26.1461ZM15.6236 26.202L15.6147 26.0523L15.6236 26.202ZM14.7336 26.2122V26.0622H14.5836V26.2122H14.7336ZM14.7336 27H14.5836V27.15H14.7336V27ZM23.3475 27V27.15H23.4975V27H23.3475ZM23.3475 26.7882V26.6382H23.1975V26.7882H23.3475ZM23.3476 26.7882V26.9382H23.4765L23.4959 26.8108L23.3476 26.7882ZM23.8192 23.6926L23.819 23.5426L23.6903 23.5427L23.6709 23.67L23.8192 23.6926ZM25.5525 23.7207L25.5632 23.5711L25.5525 23.7207ZM25.7794 23.7368L25.7687 23.8865L25.9294 23.8979V23.7368H25.7794ZM25.7794 22.9517H25.9294V22.8146L25.7929 22.8023L25.7794 22.9517ZM25.5866 22.9343L25.5731 23.0837L25.5866 22.9343ZM25.2169 22.7842L25.1045 22.8836L25.1045 22.8836L25.2169 22.7842ZM25.2526 22.2748L25.372 22.3656L25.3735 22.3636L25.2526 22.2748ZM27.6659 18.9871L27.7871 18.8988L27.6663 18.7331L27.5449 18.8984L27.6659 18.9871ZM30.3039 22.6068L30.1827 22.6952L30.1847 22.6978L30.3039 22.6068ZM30.3067 22.6104L30.426 22.5195L30.426 22.5195L30.3067 22.6104ZM30.3891 22.7337L30.5247 22.7979L30.555 22.7338L30.5247 22.6697L30.3891 22.7337ZM30.3882 22.7356L30.2517 22.6734L30.2516 22.6736L30.3882 22.7356ZM29.8806 22.9363L29.8724 22.7865H29.8724L29.8806 22.9363ZM29.6803 22.9472L29.6721 22.7974L29.5303 22.8052V22.9472H29.6803ZM29.6803 23.7358H29.5303V23.8943L29.6886 23.8855L29.6803 23.7358ZM29.9039 23.7234L29.9122 23.8731H29.9122L29.9039 23.7234ZM33.3322 23.7231L33.3432 23.5735H33.3432L33.3322 23.7231ZM33.5596 23.7398L33.5486 23.8894L33.7096 23.9011V23.7398H33.5596ZM33.5596 22.9359H33.7096V22.7859H33.5596V22.9359ZM32.3897 22.8572L32.3413 22.9992L32.3897 22.8572ZM31.999 22.5211L32.1188 22.4308L32.0284 22.311L31.9087 22.4014L31.999 22.5211ZM31.8299 22.6487L31.7089 22.7373L31.7988 22.8601L31.9203 22.7684L31.8299 22.6487ZM28.28 17.8009L28.3694 17.6804L28.159 17.8895L28.28 17.8009ZM28.4501 17.9269L28.3608 18.0474L28.4813 18.1367L28.5706 18.0162L28.4501 17.9269ZM30.8377 14.7047L30.7181 14.6142L30.7172 14.6154L30.8377 14.7047ZM30.8384 14.7038L30.958 14.7943L30.9581 14.7943L30.8384 14.7038ZM31.4017 14.1504L31.3204 14.0243V14.0243L31.4017 14.1504ZM32.722 13.8046L32.7201 13.6546L32.722 13.8046ZM32.7812 13V13.802H33.0812V13H32.7812ZM32.7145 13.1672L32.9428 13.1496L32.9196 12.8504L32.6914 12.8681L32.7145 13.1672ZM31.3489 13.1957C31.7372 13.1957 32.3478 13.1957 32.7145 13.1672L32.6914 12.8681C32.339 12.8955 31.7422 12.8957 31.3489 12.8957V13.1957ZM29.7564 13.1672C30.156 13.1957 30.8159 13.1957 31.3489 13.1957V12.8957C30.8108 12.8957 30.164 12.8955 29.7778 12.868L29.7564 13.1672ZM29.5295 13.151L29.7564 13.1672L29.7778 12.868L29.5509 12.8518L29.5295 13.151ZM29.6902 13.7871V13.0014H29.3902V13.7871H29.6902ZM29.7467 13.6546L29.5532 13.6377L29.5272 13.9366L29.7206 13.9535L29.7467 13.6546ZM30.2212 13.8541C30.138 13.7579 29.9937 13.6761 29.7467 13.6546L29.7206 13.9535C29.9104 13.97 29.9742 14.0271 29.9943 14.0504L30.2212 13.8541ZM30.3343 14.1828C30.3343 14.0712 30.3051 13.9511 30.2212 13.8541L29.9943 14.0504C30.0183 14.0781 30.0343 14.121 30.0343 14.1828H30.3343ZM30.1535 14.5967C30.2668 14.4485 30.3343 14.3411 30.3343 14.1828H30.0343C30.0343 14.2339 30.0243 14.2718 29.9152 14.4144L30.1535 14.5967ZM28.1926 17.2517L30.155 14.5947L29.9137 14.4164L27.9513 17.0734L28.1926 17.2517ZM25.7343 14.2226L27.9509 17.2511L28.193 17.0739L25.9764 14.0454L25.7343 14.2226ZM25.6359 14.0642C25.652 14.0965 25.6805 14.1437 25.7314 14.2184L25.9793 14.0495C25.9303 13.9775 25.9112 13.944 25.9046 13.9307L25.6359 14.0642ZM26.2667 13.6545C26.0478 13.6604 25.9 13.7046 25.7994 13.764C25.6953 13.8255 25.6537 13.8963 25.6369 13.9288L25.9036 14.0661C25.9049 14.0637 25.9067 14.0599 25.9121 14.0538C25.9177 14.0472 25.9296 14.0355 25.9519 14.0223C25.997 13.9957 26.0913 13.9593 26.2747 13.9544L26.2667 13.6545ZM26.4729 13.6491L26.2667 13.6545L26.2747 13.9544L26.4809 13.949L26.4729 13.6491ZM26.3269 13.005V13.799H26.6269V13.005H26.3269ZM26.2616 13.1672L26.4852 13.1548L26.4686 12.8552L26.245 12.8676L26.2616 13.1672ZM24.4264 13.1957C24.9591 13.1957 25.7467 13.1957 26.2616 13.1672L26.245 12.8676C25.7403 12.8956 24.9623 12.8957 24.4264 12.8957V13.1957ZM22.816 13.1672C23.2031 13.1957 24.0072 13.1957 24.4264 13.1957V12.8957C24.0011 12.8957 23.2112 12.8955 22.8379 12.868L22.816 13.1672ZM22.5886 13.1505L22.816 13.1672L22.8379 12.868L22.6106 12.8513L22.5886 13.1505ZM22.7496 13.8048V13.0009H22.4496V13.8048H22.7496ZM22.8114 13.6548H22.5996V13.9548H22.8114V13.6548ZM23.7597 13.7264C23.5418 13.6631 23.2568 13.6548 22.8114 13.6548V13.9548C23.2682 13.9548 23.5071 13.9654 23.676 14.0145L23.7597 13.7264ZM24.2944 14.1277C24.1221 13.9021 23.9708 13.7878 23.7597 13.7264L23.676 14.0145C23.8091 14.0532 23.9107 14.1196 24.0559 14.3098L24.2944 14.1277ZM27.3183 18.2734L24.2963 14.1303L24.054 14.3071L27.0759 18.4502L27.3183 18.2734ZM24.6013 22.1552L27.3181 18.4505L27.0762 18.2731L24.3594 21.9778L24.6013 22.1552ZM23.6172 22.9069C23.9532 22.7762 24.31 22.5488 24.6009 22.1557L24.3598 21.9773C24.1078 22.3178 23.8003 22.5138 23.5085 22.6273L23.6172 22.9069ZM23.4567 22.9171H23.5629V22.6171H23.4567V22.9171ZM23.5985 22.8309L23.6049 22.7906L23.3086 22.7437L23.3022 22.784L23.5985 22.8309ZM22.6003 23.0834C22.7602 23.0834 23.1072 23.0784 23.4973 22.95L23.4034 22.665C23.0594 22.7783 22.7508 22.7834 22.6003 22.7834V23.0834ZM22.3884 23.0834H22.6003V22.7834H22.3884V23.0834ZM22.5384 23.7383V22.9334H22.2384V23.7383H22.5384ZM22.6051 23.571L22.3768 23.5888L22.4 23.8879L22.6283 23.8701L22.6051 23.571ZM23.3022 23.5458C23.0493 23.5492 22.795 23.5563 22.6051 23.571L22.6283 23.8701C22.8081 23.8562 23.0542 23.8492 23.3063 23.8458L23.3022 23.5458ZM23.2963 24.4449C23.3556 24.2217 23.4053 23.9809 23.4519 23.7224L23.1566 23.6692C23.1108 23.9236 23.0627 24.1556 23.0063 24.3679L23.2963 24.4449ZM22.8197 25.504C23.0383 25.2216 23.1836 24.8691 23.2963 24.4449L23.0063 24.3679C22.8988 24.7727 22.7667 25.0823 22.5825 25.3203L22.8197 25.504ZM20.235 26.3667C21.6482 26.3667 22.3859 26.0642 22.8197 25.504L22.5825 25.3203C22.2338 25.7706 21.6144 26.0667 20.235 26.0667V26.3667ZM17.9941 26.3667H20.235V26.0667H17.9941V26.3667ZM17.6264 26.3475C17.7147 26.3619 17.8332 26.3667 17.9941 26.3667V26.0667C17.8342 26.0667 17.7369 26.0615 17.6746 26.0514L17.6264 26.3475ZM17.5204 26.3199C17.5481 26.3312 17.5827 26.3404 17.6264 26.3475L17.6746 26.0514C17.6604 26.0491 17.6502 26.0468 17.6434 26.0451C17.6365 26.0433 17.6336 26.0421 17.6336 26.0421L17.5204 26.3199ZM17.4843 26.3017C17.4947 26.3082 17.5066 26.3143 17.5204 26.3199L17.6336 26.0421C17.6338 26.0422 17.6374 26.0437 17.6431 26.0472L17.4843 26.3017ZM17.4784 26.2979L17.4804 26.2992L17.6471 26.0498L17.6452 26.0485L17.4784 26.2979ZM17.4664 26.289L17.4677 26.29L17.6558 26.0563L17.6546 26.0553L17.4664 26.289ZM17.4428 26.2652L17.4436 26.2661L17.6774 26.0782L17.6767 26.0772L17.4428 26.2652ZM17.419 26.2251C17.4242 26.2368 17.4299 26.247 17.4361 26.2561L17.6834 26.0863C17.6886 26.0939 17.6918 26.1002 17.6935 26.1041L17.419 26.2251ZM17.3947 26.1358C17.4006 26.1724 17.4086 26.2015 17.419 26.2251L17.6935 26.1041C17.6951 26.1078 17.6952 26.1088 17.6945 26.1061C17.6938 26.1035 17.6924 26.0977 17.6908 26.088L17.3947 26.1358ZM17.3806 25.834C17.3806 25.9643 17.3826 26.0614 17.3947 26.1358L17.6908 26.088C17.6833 26.0413 17.6806 25.9684 17.6806 25.834H17.3806ZM17.3806 21.8331V25.834H17.6806V21.8331H17.3806ZM18.8419 21.6831H17.5306V21.9831H18.8419V21.6831ZM20.1986 22.0789C19.9911 21.8142 19.6016 21.6831 18.8419 21.6831V21.9831C19.5918 21.9831 19.8484 22.1184 19.9624 22.264L20.1986 22.0789ZM20.4027 22.6075C20.3662 22.3854 20.3031 22.2123 20.1986 22.0789L19.9624 22.264C20.0244 22.343 20.0747 22.4616 20.1067 22.6561L20.4027 22.6075ZM20.4484 23.4143C20.4484 23.0967 20.4393 22.8299 20.4027 22.6075L20.1067 22.6561C20.139 22.8527 20.1484 23.0985 20.1484 23.4143H20.4484ZM20.4484 23.6261V23.4143H20.1484V23.6261H20.4484ZM20.9816 23.4761H20.2984V23.7761H20.9816V23.4761ZM20.8316 19.2817V23.6261H21.1316V19.2817H20.8316ZM20.2984 19.4317H20.9816V19.1317H20.2984V19.4317ZM20.4484 19.4935V19.2817H20.1484V19.4935H20.4484ZM20.4027 20.2862C20.4392 20.0678 20.4484 19.8058 20.4484 19.4935H20.1484C20.1484 19.8039 20.1389 20.0447 20.1068 20.2367L20.4027 20.2862ZM20.1988 20.8049C20.3032 20.674 20.3662 20.5042 20.4027 20.2862L20.1068 20.2367C20.0751 20.4266 20.0253 20.5413 19.9643 20.6178L20.1988 20.8049ZM18.8419 21.1936C19.6017 21.1936 19.9914 21.0648 20.1988 20.8049L19.9643 20.6178C19.8507 20.7601 19.5932 20.8936 18.8419 20.8936V21.1936ZM17.5303 21.1936H18.8419V20.8936H17.5303V21.1936ZM17.3803 17.5203V21.0436H17.6803V17.5203H17.3803ZM17.3944 17.2243C17.3824 17.2973 17.3803 17.3925 17.3803 17.5203H17.6803C17.6803 17.3883 17.6831 17.3178 17.6904 17.2731L17.3944 17.2243ZM17.4186 17.137C17.4083 17.16 17.4003 17.1885 17.3944 17.2243L17.6904 17.2731C17.6919 17.2638 17.6932 17.2586 17.6939 17.2564C17.6945 17.2541 17.6942 17.2556 17.6924 17.2597L17.4186 17.137ZM17.4362 17.1059C17.4333 17.11 17.4257 17.1211 17.4186 17.137L17.6924 17.2597C17.6905 17.264 17.6884 17.2677 17.6866 17.2708C17.6857 17.2723 17.6848 17.2738 17.684 17.275C17.6835 17.2757 17.6831 17.2763 17.6828 17.2768C17.6826 17.277 17.6825 17.2772 17.6823 17.2774C17.6822 17.2776 17.6821 17.2777 17.6822 17.2777L17.4362 17.1059ZM17.4839 17.0617C17.4737 17.068 17.4646 17.0748 17.4566 17.0824L17.6618 17.3012C17.6605 17.3024 17.6587 17.3041 17.6564 17.306C17.6544 17.3077 17.6524 17.3093 17.6506 17.3107C17.6469 17.3135 17.6436 17.3156 17.6411 17.3172L17.4839 17.0617ZM17.52 17.0438C17.5062 17.0493 17.4942 17.0553 17.4838 17.0617L17.6411 17.3172C17.6355 17.3207 17.632 17.3221 17.632 17.3221L17.52 17.0438ZM17.6262 17.0164C17.5824 17.0235 17.5477 17.0326 17.52 17.0438L17.632 17.3221C17.6329 17.3217 17.6445 17.3173 17.6739 17.3126L17.6262 17.0164ZM17.9938 16.9974C17.833 16.9974 17.7145 17.0022 17.6262 17.0164L17.6739 17.3126C17.7365 17.3025 17.8341 17.2974 17.9938 17.2974V16.9974ZM20.2014 16.9974H17.9938V17.2974H20.2014V16.9974ZM22.5143 17.6884C22.1195 17.229 21.4462 16.9974 20.2014 16.9974V17.2974C21.4243 17.2974 21.981 17.5281 22.2868 17.8839L22.5143 17.6884ZM23.1555 19.8621C23.0981 19.3568 23.0367 18.93 22.9419 18.5744C22.847 18.2178 22.7162 17.9232 22.5143 17.6884L22.2868 17.8839C22.4488 18.0723 22.5637 18.3198 22.652 18.6516C22.7407 18.9843 22.8002 19.3922 22.8574 19.8959L23.1555 19.8621ZM23.1769 20.05L23.1555 19.8621L22.8574 19.8959L22.8788 20.0839L23.1769 20.05ZM23.7459 19.9169H23.0278V20.2169H23.7459V19.9169ZM23.1603 16.3271L23.5969 20.0843L23.8949 20.0496L23.4583 16.2925L23.1603 16.3271ZM16.0692 16.4598H23.3093V16.1598H16.0692V16.4598ZM15.6762 13.2627L15.9197 16.3217L16.2188 16.2979L15.9753 13.2389L15.6762 13.2627ZM15.6757 13.0385V13.2508H15.9757V13.0385H15.6757ZM6.30719 13.1885H15.8257V12.8885H6.30719V13.1885ZM6.1495 16.8076L6.45669 13.0507L6.15769 13.0262L5.8505 16.7832L6.1495 16.8076ZM6.71494 16.6454H6V16.9454H6.71494V16.6454ZM6.5817 16.5887L6.56546 16.7829L6.86441 16.8079L6.88065 16.6137L6.5817 16.5887ZM6.77598 15.0858C6.6871 15.473 6.6339 15.9644 6.5817 16.5887L6.88065 16.6137C6.93293 15.9884 6.98486 15.5168 7.06837 15.1529L6.77598 15.0858ZM7.17539 14.223C6.98785 14.4223 6.86477 14.6989 6.77598 15.0858L7.06837 15.1529C7.15147 14.7908 7.25804 14.5729 7.39389 14.4285L7.17539 14.223ZM7.98817 13.8178C7.61904 13.8961 7.36221 14.0244 7.17539 14.223L7.39389 14.4285C7.52566 14.2885 7.71911 14.1816 8.05045 14.1113L7.98817 13.8178ZM9.46197 13.7118C8.8368 13.7118 8.35838 13.7392 7.98817 13.8178L8.05045 14.1113C8.38835 14.0396 8.84054 14.0118 9.46197 14.0118V13.7118ZM10.3366 13.7118H9.46197V14.0118H10.3366V13.7118ZM10.4972 13.7616C10.4667 13.7412 10.4238 13.7247 10.3622 13.714L10.3111 14.0097C10.3282 14.0126 10.337 14.0154 10.3397 14.0164C10.3425 14.0174 10.3385 14.0163 10.3307 14.0111L10.4972 13.7616ZM10.5657 13.8477C10.5607 13.8352 10.5522 13.8168 10.5375 13.7983C10.5205 13.777 10.5026 13.7652 10.4972 13.7616L10.3307 14.0111C10.3313 14.0115 10.3267 14.0086 10.3212 14.004C10.3149 13.9987 10.3086 13.9925 10.3028 13.9852C10.2922 13.9719 10.2879 13.9608 10.2878 13.9607L10.5657 13.8477ZM10.5951 13.9997C10.5904 13.9358 10.5815 13.8864 10.5657 13.8477L10.2878 13.9607C10.2866 13.9577 10.2879 13.9598 10.2898 13.9702C10.2918 13.9804 10.2941 13.9967 10.2958 14.0213L10.5951 13.9997ZM10.5997 14.2251C10.5997 14.1378 10.5997 14.0637 10.5951 13.9997L10.2958 14.0213C10.2995 14.0722 10.2997 14.1344 10.2997 14.2251H10.5997ZM10.5997 22.4294V14.2251H10.2997V22.4294H10.5997ZM10.5731 22.7536C10.5964 22.6707 10.5997 22.5663 10.5997 22.4294H10.2997C10.2997 22.5731 10.2945 22.636 10.2843 22.6726L10.5731 22.7536ZM10.4353 22.9361C10.4671 22.9169 10.4985 22.8923 10.5245 22.8572C10.5501 22.8225 10.564 22.7863 10.5731 22.7536L10.2843 22.6726C10.2808 22.6849 10.2796 22.6837 10.2832 22.6789C10.2848 22.6767 10.2863 22.6753 10.2867 22.675C10.2868 22.6749 10.2852 22.6762 10.2806 22.679L10.4353 22.9361ZM10.039 23.0444C10.2319 23.0207 10.3553 22.9842 10.4353 22.9361L10.2806 22.679C10.2548 22.6945 10.1816 22.7246 10.0024 22.7467L10.039 23.0444ZM9.25269 23.0784C9.59193 23.0784 9.847 23.068 10.039 23.0444L10.0024 22.7467C9.8288 22.768 9.58828 22.7784 9.25269 22.7784V23.0784ZM8.5825 23.0784H9.25269V22.7784H8.5825V23.0784ZM8.7325 23.72V22.9284H8.4325V23.72H8.7325ZM8.82025 23.5657L8.57979 23.5701L8.5852 23.87L8.82565 23.8657L8.82025 23.5657ZM8.81854 23.5658L8.81844 23.5658L8.82746 23.8656L8.82755 23.8656L8.81854 23.5658ZM11.1682 23.5375C10.3853 23.5375 9.58748 23.5519 8.82034 23.5657L8.82575 23.8657C9.59335 23.8519 10.3885 23.8375 11.1682 23.8375V23.5375ZM13.5241 23.5659C12.7548 23.552 11.9516 23.5375 11.1682 23.5375V23.8375C11.9485 23.8375 12.749 23.852 13.5187 23.8658L13.5241 23.5659ZM13.7561 23.5701L13.5241 23.5659L13.5187 23.8658L13.7507 23.87L13.7561 23.5701ZM13.6034 22.9284V23.72H13.9034V22.9284H13.6034ZM13.091 23.0784H13.7534V22.7784H13.091V23.0784ZM12.3165 23.0444C12.5056 23.068 12.7568 23.0784 13.091 23.0784V22.7784C12.7605 22.7784 12.5241 22.768 12.3537 22.7467L12.3165 23.0444ZM11.9268 22.9363C12.0054 22.9843 12.1267 23.0207 12.3165 23.0444L12.3537 22.7467C12.1779 22.7248 12.1072 22.6949 12.0831 22.6803L11.9268 22.9363ZM11.791 22.7538C11.8001 22.7868 11.8139 22.823 11.839 22.8575C11.8646 22.8927 11.8956 22.9173 11.9268 22.9363L12.0831 22.6803C12.0788 22.6776 12.0775 22.6764 12.0778 22.6767C12.0784 22.6772 12.0799 22.6787 12.0815 22.6809C12.085 22.6857 12.0837 22.6866 12.0802 22.6739L11.791 22.7538ZM11.7648 22.4294C11.7648 22.5663 11.7681 22.6708 11.791 22.7538L12.0802 22.6739C12.0699 22.6365 12.0648 22.573 12.0648 22.4294H11.7648ZM11.7648 14.2253V22.4294H12.0648V14.2253H11.7648ZM11.7692 14.008C11.7648 14.0701 11.7648 14.1415 11.7648 14.2253H12.0648C12.0648 14.1383 12.0649 14.0785 12.0684 14.029L11.7692 14.008ZM11.797 13.8582C11.782 13.8973 11.7735 13.946 11.7692 14.008L12.0684 14.029C12.0719 13.9794 12.0775 13.9646 12.077 13.9659L11.797 13.8582ZM11.8628 13.7687C11.8532 13.7759 11.8383 13.7882 11.824 13.8077C11.811 13.8254 11.8027 13.8433 11.797 13.8582L12.077 13.9659C12.0768 13.9663 12.0737 13.9745 12.066 13.9851C12.0619 13.9906 12.0574 13.9957 12.0527 14.0002C12.0482 14.0045 12.0445 14.0074 12.0433 14.0083L11.8628 13.7687ZM11.9805 13.7168C11.9277 13.7303 11.8901 13.7481 11.8628 13.7687L12.0433 14.0083C12.0307 14.0177 12.0291 14.014 12.055 14.0074L11.9805 13.7168ZM12.8796 13.7121H12.0178V14.0121H12.8796V13.7121ZM14.3359 13.8177C13.9693 13.7393 13.4964 13.7121 12.8796 13.7121V14.0121C13.4926 14.0121 13.9391 14.0396 14.2732 14.1111L14.3359 13.8177ZM15.1431 14.2222C14.9568 14.0238 14.7015 13.8958 14.3359 13.8177L14.2732 14.1111C14.6007 14.181 14.7929 14.2875 14.9244 14.4276L15.1431 14.2222ZM15.5432 15.0851C15.4538 14.698 15.3302 14.4215 15.1431 14.2222L14.9244 14.4276C15.0602 14.5722 15.1672 14.7905 15.2509 15.1526L15.5432 15.0851ZM15.7132 16.296C15.6683 15.8085 15.6184 15.4104 15.5432 15.0851L15.2509 15.1526C15.3213 15.4572 15.3698 15.8384 15.4144 16.3235L15.7132 16.296ZM14.7336 16.4598H15.5638V16.1598H14.7336V16.4598ZM14.8836 17.1474V16.3098H14.5836V17.1474H14.8836ZM14.9454 16.9974H14.7336V17.2974H14.9454V16.9974ZM15.6315 17.0078C15.4557 16.9974 15.232 16.9974 14.9454 16.9974V17.2974C15.2356 17.2974 15.4489 17.2975 15.6137 17.3073L15.6315 17.0078ZM16.0123 17.0766C15.9287 17.0391 15.808 17.0183 15.6315 17.0078L15.6137 17.3073C15.7846 17.3175 15.8587 17.3365 15.8894 17.3503L16.0123 17.0766ZM16.1675 17.2427C16.156 17.2112 16.1389 17.1756 16.1086 17.1431C16.0784 17.1107 16.0438 17.0908 16.0123 17.0766L15.8894 17.3503C15.9001 17.3551 15.8958 17.3548 15.8891 17.3476C15.886 17.3443 15.8842 17.3415 15.8836 17.3403C15.8832 17.3395 15.884 17.3409 15.886 17.3462L16.1675 17.2427ZM16.2102 17.613C16.2102 17.4447 16.1986 17.3271 16.1675 17.2427L15.886 17.3462C15.8973 17.377 15.9102 17.4484 15.9102 17.613H16.2102ZM16.2102 25.7466V17.613H15.9102V25.7466H16.2102ZM16.1679 26.117C16.1987 26.0326 16.2102 25.9149 16.2102 25.7466H15.9102C15.9102 25.9115 15.8974 25.983 15.8861 26.0139L16.1679 26.117ZM16.0131 26.283C16.0445 26.2689 16.079 26.249 16.1091 26.2166C16.1394 26.1841 16.1564 26.1484 16.1678 26.117L15.8861 26.0139C15.8842 26.0193 15.8833 26.0206 15.8837 26.0198C15.8844 26.0187 15.8862 26.0157 15.8894 26.0124C15.8962 26.005 15.9007 26.0046 15.8901 26.0093L16.0131 26.283ZM15.6325 26.3517C15.8091 26.3412 15.9297 26.3205 16.0131 26.283L15.8901 26.0093C15.8596 26.023 15.7858 26.0421 15.6147 26.0523L15.6325 26.3517ZM14.9454 26.3622C15.2326 26.3622 15.4566 26.3622 15.6325 26.3517L15.6147 26.0523C15.4498 26.0621 15.2362 26.0622 14.9454 26.0622V26.3622ZM14.7336 26.3622H14.9454V26.0622H14.7336V26.3622ZM14.8836 27V26.2122H14.5836V27H14.8836ZM23.3475 26.85H14.7336V27.15H23.3475V26.85ZM23.1975 26.7882V27H23.4975V26.7882H23.1975ZM23.3476 26.6382H23.3475V26.9382H23.3476V26.6382ZM23.6709 23.67L23.1993 26.7656L23.4959 26.8108L23.9675 23.7152L23.6709 23.67ZM23.9707 23.5426C23.9231 23.5426 23.8722 23.5426 23.819 23.5426L23.8193 23.8426C23.8724 23.8426 23.9231 23.8426 23.9707 23.8426V23.5426ZM25.5632 23.5711C25.1636 23.5426 24.4075 23.5426 23.9707 23.5426V23.8426C24.4128 23.8426 25.1557 23.8428 25.5418 23.8703L25.5632 23.5711ZM25.7901 23.5872L25.5632 23.5711L25.5418 23.8703L25.7687 23.8865L25.7901 23.5872ZM25.6294 22.9517V23.7368H25.9294V22.9517H25.6294ZM25.5731 23.0837L25.7659 23.1011L25.7929 22.8023L25.6001 22.7849L25.5731 23.0837ZM25.1045 22.8836C25.1904 22.9807 25.3354 23.0622 25.5731 23.0837L25.6001 22.7849C25.4218 22.7688 25.3542 22.713 25.3292 22.6848L25.1045 22.8836ZM24.9853 22.5555C24.9853 22.6654 25.0181 22.7859 25.1045 22.8836L25.3292 22.6848C25.3007 22.6526 25.2853 22.6078 25.2853 22.5555H24.9853ZM25.1331 22.1841C25.0963 22.2326 25.0569 22.2847 25.0293 22.3441C24.9992 22.4086 24.9853 22.4757 24.9853 22.5555H25.2853C25.2853 22.5141 25.2918 22.4911 25.3013 22.4707C25.3132 22.4451 25.3325 22.4176 25.372 22.3656L25.1331 22.1841ZM27.5449 18.8984L25.1316 22.1861L25.3735 22.3636L27.7868 19.0759L27.5449 18.8984ZM30.4252 22.5185L27.7871 18.8988L27.5446 19.0755L30.1827 22.6952L30.4252 22.5185ZM30.426 22.5195L30.4232 22.5159L30.1847 22.6978L30.1874 22.7014L30.426 22.5195ZM30.5247 22.6697C30.5107 22.64 30.4828 22.5941 30.426 22.5195L30.1874 22.7014C30.2127 22.7345 30.229 22.7582 30.2394 22.7741C30.2445 22.7821 30.248 22.788 30.2503 22.792C30.2526 22.796 30.2535 22.7978 30.2535 22.7978L30.5247 22.6697ZM30.5248 22.7977L30.5247 22.7979L30.2535 22.6696C30.2526 22.6714 30.2517 22.6734 30.2517 22.6734L30.5248 22.7977ZM29.8888 23.086C30.1186 23.0735 30.2691 23.0254 30.3688 22.9643C30.4733 22.9003 30.5107 22.8288 30.5248 22.7975L30.2516 22.6736C30.2513 22.6744 30.2511 22.6755 30.2478 22.6795C30.2441 22.6841 30.234 22.6951 30.2121 22.7085C30.1675 22.7358 30.0698 22.7757 29.8724 22.7865L29.8888 23.086ZM29.6885 23.097L29.8888 23.086L29.8724 22.7865L29.6721 22.7974L29.6885 23.097ZM29.8303 23.7358V22.9472H29.5303V23.7358H29.8303ZM29.8956 23.5736L29.672 23.586L29.6886 23.8855L29.9122 23.8731L29.8956 23.5736ZM31.7309 23.545C31.1982 23.545 30.4106 23.5451 29.8956 23.5736L29.9122 23.8731C30.417 23.8452 31.195 23.845 31.7309 23.845V23.545ZM33.3432 23.5735C32.9542 23.5451 32.1501 23.545 31.7309 23.545V23.845C32.156 23.845 32.9461 23.8453 33.3213 23.8727L33.3432 23.5735ZM33.5705 23.5902L33.3432 23.5735L33.3213 23.8727L33.5486 23.8894L33.5705 23.5902ZM33.4096 22.9359V23.7398H33.7096V22.9359H33.4096ZM33.3477 23.0859H33.5596V22.7859H33.3477V23.0859ZM32.3413 22.9992C32.5401 23.067 32.829 23.0859 33.3477 23.0859V22.7859C32.8197 22.7859 32.5818 22.7642 32.4381 22.7152L32.3413 22.9992ZM31.8793 22.6114C32.0376 22.8213 32.1492 22.9337 32.3413 22.9992L32.4381 22.7152C32.3334 22.6796 32.2672 22.6275 32.1188 22.4308L31.8793 22.6114ZM31.9203 22.7684L32.0894 22.6409L31.9087 22.4014L31.7396 22.5289L31.9203 22.7684ZM28.159 17.8895L31.7089 22.7373L31.951 22.5601L28.4011 17.7123L28.159 17.8895ZM28.5394 17.8064L28.3694 17.6804L28.1907 17.9214L28.3608 18.0474L28.5394 17.8064ZM30.7172 14.6154L28.3296 17.8376L28.5706 18.0162L30.9583 14.794L30.7172 14.6154ZM30.7188 14.6133L30.7181 14.6142L30.9574 14.7952L30.958 14.7943L30.7188 14.6133ZM31.3204 14.0243C31.0137 14.2221 30.8378 14.4558 30.7187 14.6134L30.9581 14.7943C31.075 14.6395 31.2241 14.4434 31.483 14.2765L31.3204 14.0243ZM32.7201 13.6546C32.0684 13.6627 31.6271 13.8266 31.3204 14.0243L31.483 14.2765C31.7387 14.1116 32.1242 13.962 32.7238 13.9545L32.7201 13.6546ZM32.9293 13.652L32.7201 13.6546L32.7238 13.9545L32.933 13.9519L32.9293 13.652Z" fill="#8C9EA5"/>
</svg>
