<svg width="40" height="40" viewBox="0 0 40 40" fill="none" xmlns="http://www.w3.org/2000/svg">
<path fill-rule="evenodd" clip-rule="evenodd" d="M35.5082 12.6762V11.7299L35.2389 11.7507C34.8146 11.7836 34.1023 11.7838 33.641 11.7838C33.0091 11.7838 32.2381 11.7836 31.7745 11.7506L31.5068 11.7315V12.6587L31.735 12.6786C31.9928 12.7011 32.1155 12.783 32.1765 12.8536C32.2401 12.9271 32.2668 13.0233 32.2668 13.1255C32.2668 13.2491 32.2211 13.3349 32.0899 13.5064L29.7742 16.6417L27.1586 13.068C27.0996 12.9814 27.0715 12.9338 27.0582 12.9069C27.0773 12.8696 27.1739 12.6918 27.6487 12.6792L27.892 12.6727V11.7357L27.6282 11.7504C27.0266 11.7837 26.1028 11.7838 25.4724 11.7838C24.9741 11.7838 24.0336 11.7836 23.585 11.7507L23.3167 11.7309V12.6796H23.5667C24.0989 12.6796 24.408 12.6907 24.6363 12.757C24.8394 12.8161 24.9886 12.9227 25.1759 13.168L28.7419 18.0569L25.536 22.4285C25.2157 22.8614 24.8237 23.1112 24.4533 23.2553H24.3281L24.3206 23.3029C23.8874 23.4455 23.5007 23.4515 23.3175 23.4515H23.0675V24.4013L23.3369 24.3804C23.555 24.3634 23.8502 24.3552 24.1482 24.3511C24.0936 24.6538 24.0359 24.9328 23.9677 25.1897C23.8378 25.6788 23.6741 26.0695 23.4364 26.3765C22.9748 26.9728 22.174 27.3259 20.5264 27.3259H17.8821C17.6928 27.3259 17.5654 27.32 17.4767 27.3056C17.4336 27.2986 17.4065 27.2905 17.3899 27.2837C17.3819 27.2805 17.377 27.2778 17.3742 27.2761L17.3719 27.2745L17.3704 27.2733L17.3695 27.2722L17.3686 27.2708C17.3678 27.2695 17.3667 27.2674 17.3654 27.2644C17.361 27.2545 17.3549 27.2357 17.3494 27.2022C17.3379 27.1308 17.3351 27.0305 17.3351 26.8743V22.1531H18.8825C19.7731 22.1531 20.1544 22.3104 20.3441 22.5524C20.4423 22.6778 20.5092 22.8499 20.5496 23.0957C20.5902 23.3428 20.6012 23.6453 20.6012 24.019V24.269H21.4074V19.1424H20.6012V19.3924C20.6012 19.7598 20.5902 20.0564 20.5497 20.2986C20.5095 20.5392 20.4429 20.7071 20.3453 20.8294C20.1559 21.0668 19.774 21.2215 18.8825 21.2215H17.3348V17.064C17.3348 16.9107 17.3376 16.8129 17.349 16.7435C17.3544 16.711 17.3604 16.6932 17.3645 16.684C17.3664 16.6798 17.3684 16.677 17.3689 16.6763L17.3709 16.6747L17.3727 16.6736C17.3755 16.6718 17.3806 16.6691 17.3887 16.6658C17.4056 16.659 17.4329 16.6511 17.4761 16.6441C17.5651 16.6297 17.6926 16.6239 17.8818 16.6239H20.4867C21.9427 16.6239 22.6684 16.8967 23.0818 17.3777C23.5111 17.8771 23.6616 18.6567 23.7968 19.8473L23.822 20.069H24.6693L24.1541 15.6355H15.6107L15.3234 12.0257V11.7753H4.09125L3.72876 16.2085H4.5724L4.59156 15.9794C4.65321 15.2421 4.71524 14.6739 4.81695 14.2308C4.91837 13.7888 5.05386 13.4971 5.24466 13.2943C5.43263 13.0945 5.69831 12.9558 6.11159 12.8681C6.52938 12.7794 7.07845 12.7469 7.81396 12.7469H8.84606C8.90323 12.7568 8.92817 12.7697 8.93728 12.7758C8.94256 12.7793 8.94656 12.7823 8.95247 12.7968C8.96079 12.8173 8.96958 12.8542 8.9745 12.9223C8.9794 12.9901 8.97953 13.0705 8.97953 13.1755V22.8568C8.97953 23.0223 8.97448 23.121 8.95472 23.1916C8.93984 23.2447 8.91921 23.2742 8.87121 23.303C8.80881 23.3406 8.6928 23.3798 8.47331 23.4068C8.25757 23.4334 7.96517 23.4457 7.567 23.4457H6.77616V24.3798L7.0599 24.3747L7.05998 24.3747C7.9655 24.3584 8.90541 24.3414 9.82738 24.3414C10.7499 24.3414 11.696 24.3585 12.604 24.3749H12.6041H12.6041H12.6041H12.6041H12.6042L12.878 24.3798V23.4457H12.0963C11.7041 23.4457 11.4164 23.4334 11.2044 23.4069C10.9886 23.38 10.8753 23.3409 10.8147 23.3039C10.7684 23.2756 10.7478 23.2464 10.7329 23.1925C10.7133 23.1214 10.7083 23.0223 10.7083 22.8568V13.1758C10.7083 13.0751 10.7084 12.9976 10.7131 12.9318C10.7177 12.8659 10.726 12.8284 10.7345 12.8062C10.7412 12.7889 10.7468 12.7833 10.7534 12.7783C10.7622 12.7717 10.7834 12.7591 10.8299 12.7472H11.8468C12.5724 12.7472 13.1149 12.7795 13.5284 12.8679C13.9372 12.9552 14.2013 13.0936 14.3888 13.2933C14.5793 13.4962 14.7154 13.7881 14.8175 14.2302C14.9033 14.6018 14.9614 15.0617 15.0142 15.6355H14.0345V16.6239H14.2845C14.6248 16.6239 14.8827 16.624 15.0836 16.6359C15.2886 16.6481 15.4035 16.6716 15.471 16.7019C15.5208 16.7243 15.5424 16.748 15.5606 16.7974C15.5855 16.8654 15.6001 16.9769 15.6001 17.1734V26.7711C15.6001 26.9677 15.5857 27.0794 15.5608 27.1474C15.5427 27.1969 15.5213 27.2204 15.4719 27.2426C15.4047 27.2728 15.29 27.2963 15.0848 27.3085C14.8838 27.3205 14.6256 27.3206 14.2845 27.3206H14.0345V28.2502H24.1992V28.0002L24.7557 24.3474C24.8185 24.3473 24.8784 24.3473 24.9347 24.3473C25.4532 24.3473 26.3376 24.3475 26.8012 24.3805L27.069 24.3996V23.4731L26.8414 23.4526C26.596 23.4304 26.4706 23.3494 26.4051 23.2754C26.3373 23.1988 26.3089 23.1013 26.3089 23.0056C26.3089 22.8625 26.3571 22.7929 26.4473 22.6743L29.295 18.7948L32.408 23.0661L32.4113 23.0704C32.4752 23.1543 32.4996 23.1971 32.5085 23.2159C32.5082 23.2165 32.5079 23.2172 32.5075 23.2181C32.4943 23.2472 32.4126 23.4273 31.9085 23.4549L31.6721 23.4678V24.3983L31.936 24.3837C32.5376 24.3503 33.4613 24.3503 34.0918 24.3503C34.59 24.3503 35.5306 24.3504 35.9815 24.3834L36.2497 24.403V23.4545H35.9997C35.3822 23.4545 35.0713 23.4305 34.8692 23.3616C34.6941 23.3019 34.5892 23.2049 34.4082 22.965L34.2087 23.1156L30.0196 17.3949L30.2205 17.5437L33.0379 13.7414L33.0387 13.7404C33.178 13.5561 33.3697 13.3025 33.7034 13.0874C34.0352 12.8735 34.523 12.6884 35.2613 12.6793L35.5082 12.6762Z" fill="#FFB522"/>
</svg>
