<svg width="20" height="20" viewBox="0 0 20 20" fill="none" xmlns="http://www.w3.org/2000/svg">
<path fill-rule="evenodd" clip-rule="evenodd" d="M15.9825 6.51475C16.6722 5.82509 16.6722 4.70692 15.9825 4.01725C15.2929 3.32758 14.1747 3.32758 13.485 4.01725C12.7954 4.70692 12.7954 5.82509 13.485 6.51475C14.1747 7.20442 15.2929 7.20442 15.9825 6.51475ZM17.0432 7.57541C18.3186 6.29996 18.3186 4.23204 17.0432 2.95659C15.7677 1.68114 13.6998 1.68114 12.4244 2.95659C11.5964 3.78452 11.3059 4.94637 11.5529 6.00862C11.6488 6.42152 11.5859 6.87538 11.2861 7.17513L8.17503 10.2862C7.87529 10.586 7.42144 10.6489 7.00855 10.553C5.94632 10.3061 4.7845 10.5966 3.95659 11.4245C2.68114 12.6999 2.68114 14.7679 3.95659 16.0433C5.23204 17.3188 7.29996 17.3188 8.57541 16.0433C9.40304 15.2157 9.69363 14.0544 9.44718 12.9925C9.35139 12.5797 9.41443 12.1261 9.71405 11.8264L12.8264 8.71408C13.126 8.41446 13.5796 8.35142 13.9924 8.4472C15.0543 8.69361 16.2156 8.40302 17.0432 7.57541ZM7.51475 14.9826C8.20442 14.293 8.20442 13.1748 7.51475 12.4851C6.82509 11.7955 5.70692 11.7955 5.01725 12.4851C4.32758 13.1748 4.32758 14.293 5.01725 14.9826C5.70692 15.6723 6.82509 15.6723 7.51475 14.9826Z" fill="#b6b6b6"/>
</svg>
