<svg width="40" height="40" viewBox="0 0 40 40" fill="none" xmlns="http://www.w3.org/2000/svg">
<path d="M0 8C0 3.58172 3.58172 0 8 0H32C36.4183 0 40 3.58172 40 8V32C40 36.4183 36.4183 40 32 40H8C3.58172 40 0 36.4183 0 32V8Z" fill="#B8F1A4"/>
<rect x="18" y="12.25" width="12" height="1.5" fill="#2BA930"/>
<rect x="18" y="19.25" width="8" height="1.5" fill="#2BA930"/>
<rect x="18" y="26.2646" width="12" height="1.5" fill="#2BA930"/>
<path d="M13 10.002H11.9762L10.5 10.96V11.9561L11.8892 11.0596H11.924V16.002H13V10.002Z" fill="#2BA930"/>
<path d="M10.0339 29.9951H14V29.0992H11.4802V29.0587L12.4774 28.0211C13.6017 26.9171 13.9124 26.3795 13.9124 25.7119C13.9124 24.7206 13.1243 23.9951 11.9605 23.9951C10.8136 23.9951 10 24.7234 10 25.8477H10.9972C10.9972 25.2437 11.3701 24.8651 11.9463 24.8651C12.4972 24.8651 12.9068 25.209 12.9068 25.7668C12.9068 26.261 12.613 26.6136 12.0424 27.2061L10.0339 29.2206V29.9951Z" fill="#2BA930"/>
</svg>
