<svg xmlns="http://www.w3.org/2000/svg" width="19" height="19" viewBox="0 0 19 19">
    <g fill="#ACA996" fill-rule="evenodd">
        <path d="M2.038 2.334l-1.22.8V1.973L2.206.988h1.195v6.016H2.038zM.19 18.775l2.225-2.352c.586-.62.96-1.155.96-1.707 0-.509-.272-.823-.807-.823-.543 0-.874.305-.968 1.112H.352c.068-1.418.909-2.165 2.276-2.165.67 0 1.197.195 1.562.51.348.33.544.789.544 1.332 0 .807-.467 1.47-1.172 2.149l-1.147 1.12h2.361v1.045H.191v-.22z"/>
        <path fill-rule="nonzero" d="M7.031 2.996H19v2H7.031zM7.031 8.996h9v2h-9zM7.031 14.996H19v2H7.031z"/>
    </g>
</svg>
