<svg width="40" height="41" viewBox="0 0 40 41" fill="none" xmlns="http://www.w3.org/2000/svg">
<rect y="0.03125" width="40" height="40" rx="8" fill="#F3F2EC"/>
<path d="M21 10.5H19.5V16C19.5 17.1046 20.3954 18 21.5 18H27V16.5H21.5C21.2239 16.5 21 16.2761 21 16V10.5Z" fill="#ACA996"/>
<path d="M12.75 12C12.75 11.3096 13.3096 10.75 14 10.75H21.5858C21.6521 10.75 21.7157 10.7763 21.7626 10.8232L22.2894 10.2964L21.7626 10.8232L27.1768 16.2374C27.2237 16.2843 27.25 16.3479 27.25 16.4142V28C27.25 28.6904 26.6904 29.25 26 29.25H14C13.3096 29.25 12.75 28.6904 12.75 28V12Z" stroke="#ACA996" stroke-width="1.5"/>
</svg>
