<svg width="40" height="40" viewBox="0 0 40 40" fill="none" xmlns="http://www.w3.org/2000/svg">
<path fill-rule="evenodd" clip-rule="evenodd" d="M30.455 11.73C31 12.7996 31 14.1997 31 17V23C31 25.8003 31 27.2004 30.455 28.27C29.9757 29.2108 29.2108 29.9757 28.27 30.455C27.2004 31 25.8003 31 23 31H17C14.1997 31 12.7996 31 11.73 30.455C10.7892 29.9757 10.0243 29.2108 9.54497 28.27C9 27.2004 9 25.8003 9 23V17C9 14.1997 9 12.7996 9.54497 11.73C10.0243 10.7892 10.7892 10.0243 11.73 9.54497C12.7996 9 14.1997 9 17 9H23C25.8003 9 27.2004 9 28.27 9.54497C29.2108 10.0243 29.9757 10.7892 30.455 11.73Z" fill="white"/>
<path fill-rule="evenodd" clip-rule="evenodd" d="M9 17C9 14.1997 9 12.7996 9.54497 11.73C10.0243 10.7892 10.7892 10.0243 11.73 9.54497C12.7996 9 14.1997 9 17 9H23C25.8003 9 27.2004 9 28.27 9.54497C29.2108 10.0243 29.9757 10.7892 30.455 11.73C31 12.7996 31 14.1997 31 17V23C31 25.8003 31 27.2004 30.455 28.27C29.9757 29.2108 29.2108 29.9757 28.27 30.455C27.2004 31 25.8003 31 23 31H17C14.1997 31 12.7996 31 11.73 30.455C10.7892 29.9757 10.0243 29.2108 9.54497 28.27C9 27.2004 9 25.8003 9 23V17ZM20.0309 13.2217C19.9814 12.9045 19.695 12.6798 19.3751 12.7071C19.0553 12.7344 18.8111 13.0045 18.8161 13.3255C18.8583 16.0279 18.5436 18.153 17.7252 20.0704C16.9067 21.9882 15.5637 23.7465 13.4737 25.6818C13.2368 25.9013 13.2115 26.2672 13.416 26.5172C13.6205 26.7672 13.9842 26.8148 14.2462 26.626C16.5676 24.9531 18.4933 23.984 20.4009 23.541C22.3035 23.0992 24.2387 23.169 26.5993 23.6542C26.9105 23.7181 27.2188 23.5329 27.3085 23.2281C27.3982 22.9233 27.2394 22.6005 26.9431 22.4857C24.7172 21.6232 23.2179 20.6058 22.1643 19.1951C21.1045 17.7762 20.4487 15.8972 20.0309 13.2217ZM18.8493 20.5502C19.2885 19.5214 19.5912 18.4495 19.7818 17.2991C20.1518 18.2886 20.6106 19.1574 21.185 19.9265C21.7944 20.7423 22.5223 21.4308 23.3863 22.0288C22.2699 22.0013 21.1976 22.1012 20.1244 22.3505C19.1553 22.5755 18.196 22.9199 17.2114 23.3921C17.8873 22.4717 18.4287 21.5359 18.8493 20.5502Z" fill="#F55522"/>
</svg>
