<svg width="40" height="40" viewBox="0 0 40 40" fill="none" xmlns="http://www.w3.org/2000/svg">
<rect width="40" height="40" rx="8" fill="#A8E5FF"/>
<path fill-rule="evenodd" clip-rule="evenodd" d="M27 11.5H13C12.1716 11.5 11.5 12.1716 11.5 13V27C11.5 27.8284 12.1716 28.5 13 28.5H27C27.8284 28.5 28.5 27.8284 28.5 27V13C28.5 12.1716 27.8284 11.5 27 11.5ZM13 10C11.3431 10 10 11.3431 10 13V27C10 28.6569 11.3431 30 13 30H27C28.6569 30 30 28.6569 30 27V13C30 11.3431 28.6569 10 27 10H13Z" fill="#1BA0EB"/>
<path d="M24 18C25.1046 18 26 17.1046 26 16C26 14.8954 25.1046 14 24 14C22.8954 14 22 14.8954 22 16C22 17.1046 22.8954 18 24 18Z" fill="#1BA0EB"/>
<path d="M20 26L23 21L26 26H20Z" fill="#1BA0EB"/>
<path d="M14 26L19 17.6667L24 26H14Z" fill="#1BA0EB"/>
</svg>