<svg width="20" height="20" viewBox="0 0 20 20" fill="none" xmlns="http://www.w3.org/2000/svg">
<path d="M6 15C6 14.5858 6.33579 14.25 6.75 14.25H13.25C13.6642 14.25 14 14.5858 14 15C14 15.4142 13.6642 15.75 13.25 15.75H6.75C6.33579 15.75 6 15.4142 6 15Z" fill="#b6b6b6"/>
<path d="M11.5 3C11.5 3.82843 10.8284 4.5 10 4.5C9.17157 4.5 8.5 3.82843 8.5 3C8.5 2.17157 9.17157 1.5 10 1.5C10.8284 1.5 11.5 2.17157 11.5 3Z" fill="#b6b6b6"/>
<path d="M4.5 15C4.5 15.8284 3.82843 16.5 3 16.5C2.17157 16.5 1.5 15.8284 1.5 15C1.5 14.1716 2.17157 13.5 3 13.5C3.82843 13.5 4.5 14.1716 4.5 15Z" fill="#b6b6b6"/>
<path d="M18.5 15C18.5 15.8284 17.8284 16.5 17 16.5C16.1716 16.5 15.5 15.8284 15.5 15C15.5 14.1716 16.1716 13.5 17 13.5C17.8284 13.5 18.5 14.1716 18.5 15Z" fill="#b6b6b6"/>
<path fill-rule="evenodd" clip-rule="evenodd" d="M7.83557 5.32934C8.20606 5.51459 8.35623 5.96509 8.17098 6.33557L5.17098 12.3356C4.98574 12.7061 4.53524 12.8562 4.16475 12.671C3.79427 12.4857 3.6441 12.0352 3.82934 11.6648L6.82934 5.66475C7.01459 5.29427 7.46509 5.1441 7.83557 5.32934Z" fill="#b6b6b6"/>
<path fill-rule="evenodd" clip-rule="evenodd" d="M12.1644 5.32934C11.7939 5.51459 11.6438 5.96509 11.829 6.33557L14.829 12.3356C15.0143 12.7061 15.4648 12.8562 15.8352 12.671C16.2057 12.4857 16.3559 12.0352 16.1707 11.6648L13.1707 5.66475C12.9854 5.29427 12.5349 5.1441 12.1644 5.32934Z" fill="#b6b6b6"/>
</svg>
