<svg width="40" height="40" viewBox="0 0 40 40" fill="none" xmlns="http://www.w3.org/2000/svg">
<rect width="40" height="40" rx="6" fill="#C4CBFF"/>
<rect x="15" y="25.25" width="10" height="1.5" rx="0.75" fill="#3E58EB"/>
<path d="M27.5001 22.7609C27.8588 22.5538 27.9818 22.0951 27.7746 21.7363L23.5246 14.3751C23.3175 14.0164 22.8588 13.8935 22.5001 14.1006C22.1414 14.3077 22.0185 14.7664 22.2256 15.1251L26.4756 22.4863C26.6827 22.8451 27.1414 22.968 27.5001 22.7609Z" fill="#3E58EB"/>
<path d="M12.4999 22.7609C12.1412 22.5538 12.0182 22.0951 12.2254 21.7363L16.4754 14.3751C16.6825 14.0164 17.1412 13.8935 17.4999 14.1006C17.8586 14.3077 17.9815 14.7664 17.7744 15.1251L13.5244 22.4863C13.3173 22.8451 12.8586 22.968 12.4999 22.7609Z" fill="#3E58EB"/>
<path d="M22 11C22 12.1046 21.1046 13 20 13C18.8954 13 18 12.1046 18 11C18 9.89543 18.8954 9 20 9C21.1046 9 22 9.89543 22 11Z" fill="#3E58EB"/>
<path d="M13 26C13 27.1046 12.1046 28 11 28C9.89543 28 9 27.1046 9 26C9 24.8954 9.89543 24 11 24C12.1046 24 13 24.8954 13 26Z" fill="#3E58EB"/>
<path d="M31 26C31 27.1046 30.1046 28 29 28C27.8954 28 27 27.1046 27 26C27 24.8954 27.8954 24 29 24C30.1046 24 31 24.8954 31 26Z" fill="#3E58EB"/>
</svg>
