<svg width="40" height="40" viewBox="0 0 40 40" fill="none" xmlns="http://www.w3.org/2000/svg">
<path fill-rule="evenodd" clip-rule="evenodd" d="M31.25 9.25H8.75C8.33579 9.25 8 9.58579 8 10C8 10.4142 8.33579 10.75 8.75 10.75H31.25C31.6642 10.75 32 10.4142 32 10C32 9.58579 31.6642 9.25 31.25 9.25ZM31.25 29.25H8.75C8.33579 29.25 8 29.5858 8 30C8 30.4142 8.33579 30.75 8.75 30.75H31.25C31.6642 30.75 32 30.4142 32 30C32 29.5858 31.6642 29.25 31.25 29.25ZM10 14.75C8.75736 14.75 7.75 15.7574 7.75 17V23C7.75 24.2426 8.75736 25.25 10 25.25H12C13.2426 25.25 14.25 24.2426 14.25 23V17C14.25 15.7574 13.2426 14.75 12 14.75H10ZM8.25 17C8.25 16.0335 9.0335 15.25 10 15.25H12C12.9665 15.25 13.75 16.0335 13.75 17V23C13.75 23.9665 12.9665 24.75 12 24.75H10C9.0335 24.75 8.25 23.9665 8.25 23V17ZM16.75 17C16.75 15.7574 17.7574 14.75 19 14.75H21C22.2426 14.75 23.25 15.7574 23.25 17V23C23.25 24.2426 22.2426 25.25 21 25.25H19C17.7574 25.25 16.75 24.2426 16.75 23V17ZM19 15.25C18.0335 15.25 17.25 16.0335 17.25 17V23C17.25 23.9665 18.0335 24.75 19 24.75H21C21.9665 24.75 22.75 23.9665 22.75 23V17C22.75 16.0335 21.9665 15.25 21 15.25H19ZM28 14.75C26.7574 14.75 25.75 15.7574 25.75 17V23C25.75 24.2426 26.7574 25.25 28 25.25H30C31.2426 25.25 32.25 24.2426 32.25 23V17C32.25 15.7574 31.2426 14.75 30 14.75H28ZM26.25 17C26.25 16.0335 27.0335 15.25 28 15.25H30C30.9665 15.25 31.75 16.0335 31.75 17V23C31.75 23.9665 30.9665 24.75 30 24.75H28C27.0335 24.75 26.25 23.9665 26.25 23V17Z" fill="#b6b6b6"/>
</svg>