<svg width="20" height="20" viewBox="0 0 20 20" fill="none" xmlns="http://www.w3.org/2000/svg">
<path d="M15.5 15.5V16.5H4.5V15.5H15.5ZM17 14V6C17 5.17157 16.3284 4.5 15.5 4.5H4.5C3.67157 4.5 3 5.17157 3 6V14C3 14.8284 3.67157 15.5 4.5 15.5V16.5C3.20566 16.5 2.14082 15.5164 2.0127 14.2559L2 14V6C2 4.70566 2.98361 3.64082 4.24414 3.5127L4.5 3.5H15.5L15.7559 3.5127C17.0164 3.64082 18 4.70566 18 6V14L17.9873 14.2559C17.8592 15.5164 16.7943 16.5 15.5 16.5V15.5C16.3284 15.5 17 14.8284 17 14Z" fill="#9B9B9B"/>
<path d="M2.5 8.5L2.39941 8.49023C2.17145 8.44371 2 8.24171 2 8C2 7.72386 2.22386 7.5 2.5 7.5H17.5C17.7761 7.5 18 7.72386 18 8C18 8.24171 17.8286 8.44371 17.6006 8.49023L17.5 8.5H2.5Z" fill="#9B9B9B"/>
<path d="M8 16C8 16.2761 7.77614 16.5 7.5 16.5C7.22386 16.5 7 16.2761 7 16L7 4L7.00977 3.89941C7.05629 3.67145 7.25829 3.5 7.5 3.5C7.74171 3.5 7.94371 3.67145 7.99023 3.89941L8 4V16Z" fill="#9B9B9B"/>
<path d="M13 16C13 16.2761 12.7761 16.5 12.5 16.5C12.2239 16.5 12 16.2761 12 16V4L12.0098 3.89941C12.0563 3.67145 12.2583 3.5 12.5 3.5C12.7417 3.5 12.9437 3.67145 12.9902 3.89941L13 4V16Z" fill="#9B9B9B"/>
<path d="M2.5 12.5L2.39941 12.4902C2.17145 12.4437 2 12.2417 2 12C2 11.7239 2.22386 11.5 2.5 11.5H17.5C17.7761 11.5 18 11.7239 18 12C18 12.2417 17.8286 12.4437 17.6006 12.4902L17.5 12.5H2.5Z" fill="#9B9B9B"/>
</svg>