<svg width="41" height="40" viewBox="0 0 41 40" fill="none" xmlns="http://www.w3.org/2000/svg">
<path d="M9 13C9 12.1716 9.67157 11.5 10.5 11.5H17V17.5H9V13Z" stroke="#b6b6b6"/>
<path d="M9 17.5H17V23.5H9V17.5Z" stroke="#b6b6b6"/>
<path d="M32 28C32 28.8284 31.3284 29.5 30.5 29.5L24 29.5L24 23.5L32 23.5L32 28Z" stroke="#b6b6b6"/>
<rect x="17" y="11.5" width="7" height="6" stroke="#b6b6b6"/>
<rect x="17" y="17.5" width="7" height="6" stroke="#b6b6b6"/>
<rect x="24" y="29.5" width="7" height="6" transform="rotate(-180 24 29.5)" stroke="#b6b6b6"/>
<path d="M24 11.5H30.5C31.3284 11.5 32 12.1716 32 13V17.5H24V11.5Z" stroke="#b6b6b6"/>
<path d="M24 17.5H32V23.5H24V17.5Z" stroke="#b6b6b6"/>
<path d="M17 29.5L10.5 29.5C9.67157 29.5 9 28.8284 9 28L9 23.5L17 23.5L17 29.5Z" stroke="#b6b6b6"/>
</svg>
