<svg width="24" height="24" viewBox="0 0 24 24" fill="none" xmlns="http://www.w3.org/2000/svg">
<path fill-rule="evenodd" clip-rule="evenodd" d="M18 4H6C4.89543 4 4 4.89543 4 6V18C4 19.1046 4.89543 20 6 20H18C19.1046 20 20 19.1046 20 18V6C20 4.89543 19.1046 4 18 4ZM6 2C3.79086 2 2 3.79086 2 6V18C2 20.2091 3.79086 22 6 22H18C20.2091 22 22 20.2091 22 18V6C22 3.79086 20.2091 2 18 2H6Z" fill="#189BE6"/>
<path fill-rule="evenodd" clip-rule="evenodd" d="M16.6036 9.10357C16.7988 9.29883 16.7988 9.61541 16.6036 9.81068L10.5 15.9142L7.39646 12.8107C7.2012 12.6154 7.2012 12.2988 7.39646 12.1036L8.10357 11.3965C8.29883 11.2012 8.61541 11.2012 8.81068 11.3965L10.5 13.0858L15.1894 8.39646C15.3846 8.2012 15.7012 8.2012 15.8965 8.39646L16.6036 9.10357Z" fill="#189BE6"/>
</svg>
