<svg width="24" height="24" viewBox="0 0 24 24" fill="none" xmlns="http://www.w3.org/2000/svg">
<rect x="10.0715" y="4.97412" width="11.9688" height="2" fill="#0FC8BA"/>
<rect x="10.0715" y="10.9741" width="9" height="2" fill="#0FC8BA"/>
<rect x="10.0715" y="16.9741" width="12" height="2" fill="#0FC8BA"/>
<path d="M5.0376 5.96292L3.53622 4.4635C3.26268 4.19031 3.26239 3.74709 3.53558 3.47355C3.80877 3.2 4.25198 3.19971 4.52553 3.4729L7.0175 5.96164L4.52553 8.45685C4.25234 8.7304 3.80912 8.73068 3.53558 8.4575C3.26203 8.18431 3.26175 7.74109 3.53494 7.46755L5.0376 5.96292Z" fill="#0FC8BA"/>
<path d="M5.0376 17.9629L3.53622 16.4635C3.26268 16.1903 3.26239 15.7471 3.53558 15.4735C3.80877 15.2 4.25198 15.1997 4.52553 15.4729L7.0175 17.9616L4.52553 20.4569C4.25234 20.7304 3.80912 20.7307 3.53558 20.4575C3.26203 20.1843 3.26175 19.7411 3.53494 19.4675L5.0376 17.9629Z" fill="#0FC8BA"/>
</svg>