<svg width="40" height="40" viewBox="0 0 40 40" fill="none" xmlns="http://www.w3.org/2000/svg">
<rect width="40" height="40" rx="8" fill="#B8F1A4"/>
<rect x="18" y="19.25" width="8" height="1.5" fill="#2BA930"/>
<rect x="18" y="26.25" width="12" height="1.5" fill="#2BA930"/>
<rect x="18" y="12.25" width="12" height="1.5" fill="#2BA930"/>
<path fill-rule="evenodd" clip-rule="evenodd" d="M10.6464 10.1464C10.8417 9.95118 11.1583 9.95118 11.3536 10.1464L14.2071 13L11.3536 15.8536C11.1583 16.0488 10.8417 16.0488 10.6464 15.8536C10.4512 15.6583 10.4512 15.3417 10.6464 15.1464L12.7929 13L10.6464 10.8536C10.4512 10.6583 10.4512 10.3417 10.6464 10.1464Z" fill="#2BA930"/>
<path fill-rule="evenodd" clip-rule="evenodd" d="M10.6464 24.1464C10.8417 23.9512 11.1583 23.9512 11.3536 24.1464L14.2071 27L11.3536 29.8536C11.1583 30.0488 10.8417 30.0488 10.6464 29.8536C10.4512 29.6583 10.4512 29.3417 10.6464 29.1464L12.7929 27L10.6464 24.8536C10.4512 24.6583 10.4512 24.3417 10.6464 24.1464Z" fill="#2BA930"/>
</svg>