<svg width="20" height="20" viewBox="0 0 20 20" fill="none" xmlns="http://www.w3.org/2000/svg">
<path fill-rule="evenodd" clip-rule="evenodd" d="M14.5768 9.08457L12.8917 10.7697L13.89 11.768L15.5751 10.0828C17.1825 8.47549 17.2191 5.90615 15.657 4.34405C14.0949 2.78195 11.5256 2.81864 9.91825 4.42599L8.23313 6.11111L9.2314 7.10938L10.9165 5.42426C11.9566 4.38421 13.6191 4.36047 14.6299 5.37124C15.6406 6.38201 15.6169 8.04452 14.5768 9.08457ZM5.51477 10.826L7.10937 9.23141L6.1111 8.23314L4.5165 9.82774C2.85877 11.4855 2.78124 14.0957 4.34333 15.6578C5.90543 17.2199 8.51562 17.1423 10.1734 15.4846L11.768 13.89L10.7697 12.8917L9.17509 14.4863C8.10243 15.559 6.41349 15.6091 5.40272 14.5984C4.39195 13.5876 4.44212 11.8987 5.51477 10.826Z" fill="#b6b6b6"/>
<rect x="6.10938" y="2" width="1.5" height="3" fill="#b6b6b6"/>
<rect x="2" y="7.76172" width="1.5" height="3" transform="rotate(-90 2 7.76172)" fill="#b6b6b6"/>
<rect x="12.2402" y="15" width="1.5" height="3" fill="#b6b6b6"/>
<rect x="15" y="13.8906" width="1.5" height="3" transform="rotate(-90 15 13.8906)" fill="#b6b6b6"/>
</svg>
