<svg width="40" height="40" viewBox="0 0 40 40" fill="none" xmlns="http://www.w3.org/2000/svg">
<path fill-rule="evenodd" clip-rule="evenodd" d="M20 8C13.3726 8 8 13.3726 8 20C8 26.6274 13.3726 32 20 32C26.6274 32 32 26.6274 32 20C32 13.3726 26.6274 8 20 8ZM17 14.5L26.5 19.9998L17 25.5V14.5Z" fill="#3E58EB"/>
<path fill-rule="evenodd" clip-rule="evenodd" d="M29.4938 19.9998L15.5 28.1017V11.8984L29.4938 19.9998ZM20 9.5C14.201 9.5 9.5 14.201 9.5 20C9.5 25.799 14.201 30.5 20 30.5C25.799 30.5 30.5 25.799 30.5 20C30.5 14.201 25.799 9.5 20 9.5ZM17 14.5V25.5L26.5 19.9998L17 14.5ZM8 20C8 13.3726 13.3726 8 20 8C26.6274 8 32 13.3726 32 20C32 26.6274 26.6274 32 20 32C13.3726 32 8 26.6274 8 20Z" fill="#3E58EB"/>
</svg>