<svg width="40" height="41" viewBox="0 0 40 41" fill="none" xmlns="http://www.w3.org/2000/svg">
<rect y="0.0942383" width="40" height="40" rx="8" fill="#F3F2EC"/>
<path d="M24.9996 19.9998L17.5039 15.5V24.5L24.9996 19.9998Z" fill="#ACA996"/>
<path fill-rule="evenodd" clip-rule="evenodd" d="M26 11.5H14C12.6193 11.5 11.5 12.6193 11.5 14V26C11.5 27.3807 12.6193 28.5 14 28.5H26C27.3807 28.5 28.5 27.3807 28.5 26V14C28.5 12.6193 27.3807 11.5 26 11.5ZM14 10C11.7909 10 10 11.7909 10 14V26C10 28.2091 11.7909 30 14 30H26C28.2091 30 30 28.2091 30 26V14C30 11.7909 28.2091 10 26 10H14Z" fill="#ACA996"/>
</svg>
