<svg width="12" height="13" viewBox="0 0 12 13" fill="none" xmlns="http://www.w3.org/2000/svg">
<rect x="2.5" y="6" width="7" height="1" rx="0.5" fill="#929082"/>
<path d="M4.5 10.5C4.5 10.2239 4.72386 10 5 10H7C7.27614 10 7.5 10.2239 7.5 10.5V10.5C7.5 10.7761 7.27614 11 7 11H5C4.72386 11 4.5 10.7761 4.5 10.5V10.5Z" fill="#929082"/>
<path d="M0.5 2.5C0.5 2.22386 0.723858 2 1 2H11C11.2761 2 11.5 2.22386 11.5 2.5V2.5C11.5 2.77614 11.2761 3 11 3H1C0.723858 3 0.5 2.77614 0.5 2.5V2.5Z" fill="#929082"/>
</svg>
