<svg width="20" height="20" viewBox="0 0 20 20" fill="none" xmlns="http://www.w3.org/2000/svg">
<path fill-rule="evenodd" clip-rule="evenodd" d="M5.5 6.5C5.22386 6.5 5 6.72386 5 7C5 7.27614 5.22386 7.5 5.5 7.5H14.5C14.7761 7.5 15 7.27614 15 7C15 6.72386 14.7761 6.5 14.5 6.5H5.5ZM7 10C7 9.72386 7.22386 9.5 7.5 9.5H12.5C12.7761 9.5 13 9.72386 13 10C13 10.2761 12.7761 10.5 12.5 10.5H7.5C7.22386 10.5 7 10.2761 7 10ZM9 13C9 12.7239 9.22386 12.5 9.5 12.5H10.5C10.7761 12.5 11 12.7239 11 13C11 13.2761 10.7761 13.5 10.5 13.5H9.5C9.22386 13.5 9 13.2761 9 13Z" fill="#ACA996"/>
</svg>