<svg width="120" height="60" viewBox="0 0 120 60" fill="none" xmlns="http://www.w3.org/2000/svg">
<rect width="120" height="60" rx="12" fill="black"/>
<path d="M46.6937 39H42.7562L49.9252 18.6364H54.4792L61.6581 39H57.7206L52.2817 22.8125H52.1226L46.6937 39ZM46.8229 31.0156H57.5616V33.9787H46.8229V31.0156ZM68.0961 39.3082C67.1283 39.3082 66.2566 39.1359 65.4811 38.7912C64.7121 38.4399 64.1023 37.9228 63.6515 37.2401C63.2074 36.5573 62.9853 35.7154 62.9853 34.7145C62.9853 33.8527 63.1444 33.1402 63.4626 32.5767C63.7808 32.0133 64.215 31.5625 64.7651 31.2244C65.3153 30.8864 65.9351 30.6312 66.6245 30.4588C67.3205 30.2798 68.0398 30.1506 68.7822 30.071C69.6771 29.9782 70.4029 29.8954 70.9598 29.8224C71.5166 29.7429 71.9209 29.6236 72.1728 29.4645C72.4313 29.2988 72.5606 29.0436 72.5606 28.6989V28.6392C72.5606 27.8902 72.3385 27.3101 71.8944 26.8991C71.4503 26.4882 70.8106 26.2827 69.9754 26.2827C69.0937 26.2827 68.3944 26.4749 67.8774 26.8594C67.3669 27.2438 67.0223 27.6979 66.8433 28.2216L63.4825 27.7443C63.7476 26.8163 64.1851 26.0407 64.795 25.4176C65.4048 24.7879 66.1506 24.3172 67.0322 24.0057C67.9138 23.6875 68.8883 23.5284 69.9555 23.5284C70.6913 23.5284 71.4238 23.6146 72.1529 23.7869C72.8821 23.9593 73.5483 24.2443 74.1515 24.642C74.7547 25.0331 75.2386 25.5668 75.6032 26.2429C75.9744 26.919 76.16 27.7642 76.16 28.7784V39H72.6998V36.902H72.5805C72.3617 37.3262 72.0535 37.724 71.6558 38.0952C71.2647 38.4598 70.7708 38.7547 70.1742 38.9801C69.5843 39.1989 68.8916 39.3082 68.0961 39.3082ZM69.0308 36.6634C69.7533 36.6634 70.3797 36.5208 70.91 36.2358C71.4403 35.9441 71.848 35.5597 72.133 35.0824C72.4247 34.6051 72.5705 34.0848 72.5705 33.5213V31.7216C72.4579 31.8144 72.2656 31.9006 71.9938 31.9801C71.7287 32.0597 71.4304 32.1293 71.099 32.1889C70.7675 32.2486 70.4394 32.3016 70.1146 32.348C69.7898 32.3944 69.508 32.4342 69.2694 32.4673C68.7325 32.5402 68.2519 32.6596 67.8276 32.8253C67.4034 32.991 67.0687 33.223 66.8234 33.5213C66.5781 33.813 66.4555 34.1908 66.4555 34.6548C66.4555 35.3177 66.6974 35.8182 67.1813 36.1562C67.6652 36.4943 68.2817 36.6634 69.0308 36.6634Z" fill="white"/>
</svg>
