<svg width="35" height="22" viewBox="0 0 35 22" fill="none" xmlns="http://www.w3.org/2000/svg">
<path d="M4.69366 21H0.756157L7.92519 0.636363H12.4792L19.6581 21H15.7206L10.2817 4.8125H10.1226L4.69366 21ZM4.82292 13.0156H15.5616V15.9787H4.82292V13.0156ZM26.0961 21.3082C25.1283 21.3082 24.2566 21.1359 23.4811 20.7912C22.7121 20.4399 22.1023 19.9228 21.6515 19.2401C21.2074 18.5573 20.9853 17.7154 20.9853 16.7145C20.9853 15.8527 21.1444 15.1402 21.4626 14.5767C21.7808 14.0133 22.215 13.5625 22.7651 13.2244C23.3153 12.8864 23.9351 12.6312 24.6245 12.4588C25.3205 12.2798 26.0398 12.1506 26.7822 12.071C27.6771 11.9782 28.4029 11.8954 28.9598 11.8224C29.5166 11.7429 29.9209 11.6236 30.1728 11.4645C30.4313 11.2988 30.5606 11.0436 30.5606 10.6989V10.6392C30.5606 9.89015 30.3385 9.31013 29.8944 8.89915C29.4503 8.48816 28.8106 8.28267 27.9754 8.28267C27.0937 8.28267 26.3944 8.47491 25.8774 8.85938C25.3669 9.24384 25.0223 9.69792 24.8433 10.2216L21.4825 9.74432C21.7476 8.81629 22.1851 8.04072 22.795 7.41761C23.4048 6.78788 24.1506 6.31723 25.0322 6.00568C25.9138 5.6875 26.8883 5.52841 27.9555 5.52841C28.6913 5.52841 29.4238 5.61458 30.1529 5.78693C30.8821 5.95928 31.5483 6.24432 32.1515 6.64204C32.7547 7.03314 33.2386 7.56676 33.6032 8.2429C33.9744 8.91903 34.16 9.7642 34.16 10.7784V21H30.6998V18.902H30.5805C30.3617 19.3262 30.0535 19.724 29.6558 20.0952C29.2647 20.4598 28.7708 20.7547 28.1742 20.9801C27.5843 21.1989 26.8916 21.3082 26.0961 21.3082ZM27.0308 18.6634C27.7533 18.6634 28.3797 18.5208 28.91 18.2358C29.4403 17.9441 29.848 17.5597 30.133 17.0824C30.4247 16.6051 30.5705 16.0848 30.5705 15.5213V13.7216C30.4579 13.8144 30.2656 13.9006 29.9938 13.9801C29.7287 14.0597 29.4304 14.1293 29.099 14.1889C28.7675 14.2486 28.4394 14.3016 28.1146 14.348C27.7898 14.3944 27.508 14.4342 27.2694 14.4673C26.7325 14.5402 26.2519 14.6596 25.8276 14.8253C25.4034 14.991 25.0687 15.223 24.8234 15.5213C24.5781 15.813 24.4555 16.1908 24.4555 16.6548C24.4555 17.3177 24.6974 17.8182 25.1813 18.1562C25.6652 18.4943 26.2817 18.6634 27.0308 18.6634Z" fill="white"/>
</svg>