<svg width="121" height="60" viewBox="0 0 121 60" fill="none" xmlns="http://www.w3.org/2000/svg">
<rect x="1.49652" y="0.5" width="119" height="59" rx="11.5" fill="white" stroke="#DFDDD0"/>
<path d="M47.6902 39H43.7527L50.9217 18.6364H55.4757L62.6547 39H58.7172L53.2782 22.8125H53.1192L47.6902 39ZM47.8194 31.0156H58.5581V33.9787H47.8194V31.0156ZM69.0926 39.3082C68.1248 39.3082 67.2531 39.1359 66.4776 38.7912C65.7086 38.4399 65.0988 37.9228 64.648 37.2401C64.2039 36.5573 63.9818 35.7154 63.9818 34.7145C63.9818 33.8527 64.1409 33.1402 64.4591 32.5767C64.7773 32.0133 65.2115 31.5625 65.7617 31.2244C66.3119 30.8864 66.9317 30.6312 67.621 30.4588C68.3171 30.2798 69.0363 30.1506 69.7787 30.071C70.6736 29.9782 71.3995 29.8954 71.9563 29.8224C72.5131 29.7429 72.9174 29.6236 73.1693 29.4645C73.4279 29.2988 73.5571 29.0436 73.5571 28.6989V28.6392C73.5571 27.8902 73.3351 27.3101 72.8909 26.8991C72.4468 26.4882 71.8071 26.2827 70.9719 26.2827C70.0903 26.2827 69.3909 26.4749 68.8739 26.8594C68.3635 27.2438 68.0188 27.6979 67.8398 28.2216L64.479 27.7443C64.7442 26.8163 65.1817 26.0407 65.7915 25.4176C66.4013 24.7879 67.1471 24.3172 68.0287 24.0057C68.9103 23.6875 69.8848 23.5284 70.952 23.5284C71.6878 23.5284 72.4203 23.6146 73.1495 23.7869C73.8786 23.9593 74.5448 24.2443 75.148 24.642C75.7513 25.0331 76.2352 25.5668 76.5997 26.2429C76.971 26.919 77.1566 27.7642 77.1566 28.7784V39H73.6963V36.902H73.577C73.3583 37.3262 73.05 37.724 72.6523 38.0952C72.2612 38.4598 71.7674 38.7547 71.1708 38.9801C70.5808 39.1989 69.8881 39.3082 69.0926 39.3082ZM70.0273 36.6634C70.7498 36.6634 71.3763 36.5208 71.9066 36.2358C72.4369 35.9441 72.8445 35.5597 73.1296 35.0824C73.4212 34.6051 73.5671 34.0848 73.5671 33.5213V31.7216C73.4544 31.8144 73.2621 31.9006 72.9904 31.9801C72.7252 32.0597 72.4269 32.1293 72.0955 32.1889C71.764 32.2486 71.4359 32.3016 71.1111 32.348C70.7863 32.3944 70.5046 32.4342 70.2659 32.4673C69.729 32.5402 69.2484 32.6596 68.8242 32.8253C68.3999 32.991 68.0652 33.223 67.8199 33.5213C67.5746 33.813 67.452 34.1908 67.452 34.6548C67.452 35.3177 67.694 35.8182 68.1779 36.1562C68.6618 36.4943 69.2782 36.6634 70.0273 36.6634Z" fill="black"/>
</svg>
