<svg width="35" height="21" viewBox="0 0 35 21" fill="none" xmlns="http://www.w3.org/2000/svg">
<path d="M4.69366 20.5039H0.756157L7.92519 0.140269H12.4792L19.6581 20.5039H15.7206L10.2817 4.31641H10.1226L4.69366 20.5039ZM4.82292 12.5195H15.5616V15.4826H4.82292V12.5195ZM26.0961 20.8121C25.1283 20.8121 24.2566 20.6398 23.4811 20.2951C22.7121 19.9438 22.1023 19.4267 21.6515 18.744C21.2074 18.0612 20.9853 17.2193 20.9853 16.2184C20.9853 15.3567 21.1444 14.6441 21.4626 14.0806C21.7808 13.5172 22.215 13.0664 22.7651 12.7283C23.3153 12.3903 23.9351 12.1351 24.6245 11.9627C25.3205 11.7837 26.0398 11.6545 26.7822 11.5749C27.6771 11.4821 28.4029 11.3993 28.9598 11.3263C29.5166 11.2468 29.9209 11.1275 30.1728 10.9684C30.4313 10.8027 30.5606 10.5475 30.5606 10.2028V10.1431C30.5606 9.39406 30.3385 8.81404 29.8944 8.40305C29.4503 7.99207 28.8106 7.78658 27.9754 7.78658C27.0937 7.78658 26.3944 7.97881 25.8774 8.36328C25.3669 8.74775 25.0223 9.20182 24.8433 9.7255L21.4825 9.24822C21.7476 8.32019 22.1851 7.54463 22.795 6.92152C23.4048 6.29178 24.1506 5.82114 25.0322 5.50959C25.9138 5.19141 26.8883 5.03232 27.9555 5.03232C28.6913 5.03232 29.4238 5.11849 30.1529 5.29084C30.8821 5.46319 31.5483 5.74822 32.1515 6.14595C32.7547 6.53705 33.2386 7.07067 33.6032 7.7468C33.9744 8.42294 34.16 9.26811 34.16 10.2823V20.5039H30.6998V18.4059H30.5805C30.3617 18.8301 30.0535 19.2279 29.6558 19.5991C29.2647 19.9637 28.7708 20.2586 28.1742 20.484C27.5843 20.7028 26.8916 20.8121 26.0961 20.8121ZM27.0308 18.1673C27.7533 18.1673 28.3797 18.0247 28.91 17.7397C29.4403 17.448 29.848 17.0636 30.133 16.5863C30.4247 16.109 30.5705 15.5887 30.5705 15.0252V13.2255C30.4579 13.3183 30.2656 13.4045 29.9938 13.484C29.7287 13.5636 29.4304 13.6332 29.099 13.6928C28.7675 13.7525 28.4394 13.8055 28.1146 13.8519C27.7898 13.8983 27.508 13.9381 27.2694 13.9712C26.7325 14.0442 26.2519 14.1635 25.8276 14.3292C25.4034 14.4949 25.0687 14.7269 24.8234 15.0252C24.5781 15.3169 24.4555 15.6947 24.4555 16.1587C24.4555 16.8216 24.6974 17.3221 25.1813 17.6602C25.6652 17.9982 26.2817 18.1673 27.0308 18.1673Z" fill="black"/>
</svg>