<svg width="36" height="22" viewBox="0 0 36 22" fill="none" xmlns="http://www.w3.org/2000/svg">
<path d="M27.2443 21.3082C26.2765 21.3082 25.4048 21.1359 24.6293 20.7912C23.8603 20.4399 23.2505 19.9228 22.7997 19.2401C22.3556 18.5573 22.1335 17.7154 22.1335 16.7145C22.1335 15.8527 22.2926 15.1402 22.6108 14.5767C22.929 14.0133 23.3632 13.5625 23.9134 13.2244C24.4635 12.8864 25.0833 12.6312 25.7727 12.4588C26.4688 12.2798 27.188 12.1506 27.9304 12.071C28.8253 11.9782 29.5511 11.8954 30.108 11.8224C30.6648 11.7429 31.0691 11.6236 31.321 11.4645C31.5795 11.2988 31.7088 11.0436 31.7088 10.6989V10.6392C31.7088 9.89015 31.4867 9.31013 31.0426 8.89915C30.5985 8.48816 29.9588 8.28267 29.1236 8.28267C28.242 8.28267 27.5426 8.47491 27.0256 8.85938C26.5152 9.24384 26.1705 9.69792 25.9915 10.2216L22.6307 9.74432C22.8958 8.81629 23.3333 8.04072 23.9432 7.41761C24.553 6.78788 25.2988 6.31723 26.1804 6.00568C27.062 5.6875 28.0365 5.52841 29.1037 5.52841C29.8395 5.52841 30.572 5.61458 31.3011 5.78693C32.0303 5.95928 32.6965 6.24432 33.2997 6.64204C33.9029 7.03314 34.3868 7.56676 34.7514 8.2429C35.1226 8.91903 35.3082 9.7642 35.3082 10.7784V21H31.848V18.902H31.7287C31.5099 19.3262 31.2017 19.724 30.804 20.0952C30.4129 20.4598 29.919 20.7547 29.3224 20.9801C28.7325 21.1989 28.0398 21.3082 27.2443 21.3082ZM28.179 18.6634C28.9015 18.6634 29.5279 18.5208 30.0582 18.2358C30.5885 17.9441 30.9962 17.5597 31.2812 17.0824C31.5729 16.6051 31.7188 16.0848 31.7188 15.5213V13.7216C31.6061 13.8144 31.4138 13.9006 31.142 13.9801C30.8769 14.0597 30.5786 14.1293 30.2472 14.1889C29.9157 14.2486 29.5876 14.3016 29.2628 14.348C28.938 14.3944 28.6563 14.4342 28.4176 14.4673C27.8807 14.5402 27.4001 14.6596 26.9759 14.8253C26.5516 14.991 26.2169 15.223 25.9716 15.5213C25.7263 15.813 25.6037 16.1908 25.6037 16.6548C25.6037 17.3177 25.8456 17.8182 26.3295 18.1562C26.8134 18.4943 27.4299 18.6634 28.179 18.6634Z" fill="white"/>
<path d="M4.62358 20.5039H0.68608L7.85511 0.140269H12.4091L19.5881 20.5039H15.6506L10.2116 4.31641H10.0526L4.62358 20.5039ZM4.75284 12.5195H15.4915V15.4826H4.75284V12.5195Z" fill="black"/>
</svg>