<svg width="40" height="40" viewBox="0 0 40 40" fill="none" xmlns="http://www.w3.org/2000/svg">
<path d="M31.8873 14.1213C31.4204 13.2472 30.7396 12.5664 29.8655 12.0971C28.9869 11.6279 28.122 11.3887 25.8288 11.3887H25.5528L26.505 10.2778C27.0019 9.70044 26.9329 8.8241 26.3555 8.32957C25.7874 7.84195 24.9203 7.90175 24.4073 8.47908L21.9117 11.391H17.714L15.2045 8.46298C14.7077 7.90175 13.8406 7.84195 13.2724 8.33187C12.6951 8.8287 12.6284 9.70274 13.1229 10.2801L14.0752 11.391H13.767C11.5082 11.391 10.625 11.6302 9.78085 12.0742L9.73025 12.1017C8.8562 12.5687 8.17536 13.2495 7.70844 14.1259C7.23921 15.0045 7 15.8716 7 18.1648V25.2952C7.0046 27.5079 7.24381 28.3796 7.68084 29.2169L7.70844 29.2675C8.17536 30.1415 8.8562 30.8223 9.73025 31.2916L9.80845 31.333C10.6434 31.7654 11.5197 32 13.767 32H25.8932C28.1036 31.9954 28.9754 31.7562 29.8126 31.3192L29.8632 31.2916C30.7373 30.8246 31.4181 30.1438 31.885 29.2675C32.3543 28.3888 32.5935 27.5217 32.5935 25.2285V18.1648C32.5935 15.9038 32.3543 15.0206 31.9126 14.1764L31.8873 14.1213ZM29.7735 18.1602V25.2561C29.7735 26.1347 29.7321 26.7742 29.6516 27.2112L29.647 27.2388C29.5941 27.5102 29.5343 27.6781 29.3986 27.9334C29.1962 28.3129 28.9133 28.5958 28.5337 28.7982C28.2807 28.934 28.1128 28.9938 27.8414 29.0467C27.3998 29.1318 26.7397 29.1732 25.8288 29.1732H13.7371C12.8584 29.1732 12.219 29.1318 11.7843 29.0513L11.7566 29.0467C11.4852 28.9938 11.3173 28.934 11.0643 28.7982C10.6848 28.5958 10.4019 28.3129 10.1995 27.9334C10.0638 27.6804 10.004 27.5125 9.95106 27.2388C9.87055 26.8202 9.82915 26.2129 9.82455 25.3803V18.128C9.82455 17.2494 9.86596 16.61 9.94646 16.1729L9.95106 16.1454C10.004 15.8739 10.0638 15.7037 10.1995 15.4507C10.4019 15.0712 10.6848 14.7883 11.0643 14.5859C11.3173 14.4502 11.4852 14.3904 11.7566 14.3375C12.173 14.257 12.7802 14.2155 13.6129 14.2109H13.7371H25.861C26.7397 14.2109 27.3791 14.2524 27.8138 14.3329L27.8414 14.3375C28.1128 14.3904 28.2807 14.4502 28.5337 14.5859C28.9133 14.7883 29.1962 15.0712 29.3986 15.4507C29.5343 15.7037 29.5941 15.8716 29.647 16.1454C29.7321 16.5893 29.7735 17.2471 29.7735 18.1602Z" fill="#DCDCDC"/>
<path d="M15.2796 18.1211C16.2962 18.1211 17.1196 18.9445 17.1196 19.9612V23.4113C17.1196 24.428 16.2962 25.2514 15.2796 25.2514C14.2629 25.2514 13.4395 24.428 13.4395 23.4113V19.9612C13.4395 18.9445 14.2629 18.1211 15.2796 18.1211Z" fill="#DCDCDC"/>
<path d="M24.4807 18.1211C25.4974 18.1211 26.3208 18.9445 26.3208 19.9612V23.4113C26.3208 24.428 25.4974 25.2514 24.4807 25.2514C23.4641 25.2514 22.6406 24.428 22.6406 23.4113V19.9612C22.6406 18.9445 23.4641 18.1211 24.4807 18.1211Z" fill="#DCDCDC"/>
<path d="M31.8873 14.1213C31.4204 13.2472 30.7396 12.5664 29.8655 12.0971C28.9869 11.6279 28.122 11.3887 25.8288 11.3887H25.5528L26.505 10.2778C27.0019 9.70044 26.9329 8.8241 26.3555 8.32957C25.7874 7.84195 24.9203 7.90175 24.4073 8.47908L21.9117 11.391H17.714L15.2045 8.46298C14.7077 7.90175 13.8406 7.84195 13.2724 8.33187C12.6951 8.8287 12.6284 9.70274 13.1229 10.2801L14.0752 11.391H13.767C11.5082 11.391 10.625 11.6302 9.78085 12.0742L9.73025 12.1017C8.8562 12.5687 8.17536 13.2495 7.70844 14.1259C7.23921 15.0045 7 15.8716 7 18.1648V25.2952C7.0046 27.5079 7.24381 28.3796 7.68084 29.2169L7.70844 29.2675C8.17536 30.1415 8.8562 30.8223 9.73025 31.2916L9.80845 31.333C10.6434 31.7654 11.5197 32 13.767 32H25.8932C28.1036 31.9954 28.9754 31.7562 29.8126 31.3192L29.8632 31.2916C30.7373 30.8246 31.4181 30.1438 31.885 29.2675C32.3543 28.3888 32.5935 27.5217 32.5935 25.2285V18.1648C32.5935 15.9038 32.3543 15.0206 31.9126 14.1764L31.8873 14.1213ZM29.7735 18.1602V25.2561C29.7735 26.1347 29.7321 26.7742 29.6516 27.2112L29.647 27.2388C29.5941 27.5102 29.5343 27.6781 29.3986 27.9334C29.1962 28.3129 28.9133 28.5958 28.5337 28.7982C28.2807 28.934 28.1128 28.9938 27.8414 29.0467C27.3998 29.1318 26.7397 29.1732 25.8288 29.1732H13.7371C12.8584 29.1732 12.219 29.1318 11.7843 29.0513L11.7566 29.0467C11.4852 28.9938 11.3173 28.934 11.0643 28.7982C10.6848 28.5958 10.4019 28.3129 10.1995 27.9334C10.0638 27.6804 10.004 27.5125 9.95106 27.2388C9.87055 26.8202 9.82915 26.2129 9.82455 25.3803V18.128C9.82455 17.2494 9.86596 16.61 9.94646 16.1729L9.95106 16.1454C10.004 15.8739 10.0638 15.7037 10.1995 15.4507C10.4019 15.0712 10.6848 14.7883 11.0643 14.5859C11.3173 14.4502 11.4852 14.3904 11.7566 14.3375C12.173 14.257 12.7802 14.2155 13.6129 14.2109H13.7371H25.861C26.7397 14.2109 27.3791 14.2524 27.8138 14.3329L27.8414 14.3375C28.1128 14.3904 28.2807 14.4502 28.5337 14.5859C28.9133 14.7883 29.1962 15.0712 29.3986 15.4507C29.5343 15.7037 29.5941 15.8716 29.647 16.1454C29.7321 16.5893 29.7735 17.2471 29.7735 18.1602Z" fill="#DCDCDC"/>
</svg>