<svg width="40" height="40" viewBox="0 0 40 40" fill="none" xmlns="http://www.w3.org/2000/svg">
<path fill-rule="evenodd" clip-rule="evenodd" d="M31 17C31 14.1997 31 12.7996 30.455 11.73C29.9757 10.7892 29.2108 10.0243 28.27 9.54497C27.2004 9 25.8003 9 23 9H17C14.1997 9 12.7996 9 11.73 9.54497C10.7892 10.0243 10.0243 10.7892 9.54497 11.73C9 12.7996 9 14.1997 9 17V23C9 25.8003 9 27.2004 9.54497 28.27C10.0243 29.2108 10.7892 29.9757 11.73 30.455C12.7996 31 14.1997 31 17 31H23C25.8003 31 27.2004 31 28.27 30.455C29.2108 29.9757 29.9757 29.2108 30.455 28.27C31 27.2004 31 25.8003 31 23V17ZM17.4934 15.9697C17.7863 16.2626 17.7862 16.7375 17.4933 17.0304L14.5237 19.9996L17.4934 22.9692C17.7863 23.2621 17.7863 23.737 17.4934 24.0299C17.2005 24.3228 16.7256 24.3228 16.4327 24.0299L12.4023 19.9995L16.4327 15.9696C16.7256 15.6768 17.2005 15.6768 17.4934 15.9697ZM22.4697 17.0309C22.1768 16.738 22.1768 16.2631 22.4696 15.9702C22.7625 15.6773 23.2374 15.6773 23.5303 15.9701L27.5607 20L23.5303 24.0304C23.2374 24.3233 22.7626 24.3233 22.4697 24.0304C22.1768 23.7375 22.1768 23.2626 22.4697 22.9697L25.4393 20.0001L22.4697 17.0309ZM20.002 21.7051C20.9436 21.7051 21.707 20.9417 21.707 20C21.707 19.0583 20.9436 18.2949 20.002 18.2949C19.0603 18.2949 18.2969 19.0583 18.2969 20C18.2969 20.9417 19.0603 21.7051 20.002 21.7051Z" fill="#DCDCDC"/>
</svg>