<svg width="40" height="40" viewBox="0 0 40 40" fill="none" xmlns="http://www.w3.org/2000/svg">
<path d="M30.9526 27.3091C30.9341 27.2922 30.9116 27.2805 30.8873 27.275C30.8629 27.2695 30.8376 27.2704 30.8137 27.2776C29.7159 25.6559 28.3195 24.1179 26.9676 22.6324L26.7449 22.3888C26.7449 22.3599 26.7318 22.3337 26.7134 22.3102C26.6913 22.2822 26.6595 22.2636 26.6244 22.2578L26.5798 22.2106L26.5484 22.187C26.5091 22.1032 26.4095 22.0403 26.2995 22.0953C25.8855 22.3075 25.5135 22.6115 25.1467 22.8918C24.6567 23.2665 24.1773 23.6568 23.7267 24.076C23.5433 24.2463 23.3625 24.4245 23.2105 24.6236C23.1372 24.7205 23.1922 24.8122 23.2813 24.8515C22.9616 25.1659 22.6394 25.4934 22.3171 25.8314C22.2883 25.8629 22.2726 25.9048 22.2752 25.9467C22.2778 25.9886 22.2988 26.0279 22.3328 26.0541L22.8987 26.4864C22.8987 26.4864 22.9014 26.4943 22.9066 26.4969C23.7162 27.296 25.1362 28.4042 26.6401 29.578C26.8628 29.7535 27.0881 29.9291 27.3134 30.1046C27.4156 30.2277 27.5125 30.3509 27.6068 30.4714C27.6566 30.5369 27.7509 30.55 27.8164 30.5002C27.8505 30.5264 27.8846 30.5552 27.9186 30.5814C27.9341 30.5935 27.9518 30.6024 27.9707 30.6076C27.9896 30.6128 28.0094 30.6142 28.0289 30.6118C28.0483 30.6093 28.0671 30.6031 28.0842 30.5934C28.1012 30.5837 28.1162 30.5707 28.1282 30.5552C28.1466 30.5317 28.1544 30.5028 28.157 30.474C28.1675 30.474 28.1754 30.4819 28.1832 30.4819C28.2225 30.4819 28.2645 30.4662 28.2933 30.4347L30.9604 27.5213C30.9737 27.507 30.984 27.4901 30.9907 27.4717C30.9973 27.4534 31.0003 27.4338 30.9993 27.4143C30.9983 27.3948 30.9935 27.3756 30.985 27.358C30.9765 27.3404 30.9646 27.3247 30.9499 27.3117L30.9526 27.3091ZM23.2944 26.3004C23.3127 26.324 23.331 26.3449 23.3494 26.3659C23.6533 26.6227 23.9782 26.9004 24.3083 27.1833L22.9669 26.1589C22.9669 26.1589 22.883 26.1013 22.8306 26.0646C22.8018 26.0436 22.7756 26.0227 22.7494 26.0017L22.6498 25.9179C22.6498 25.9179 22.6682 25.8995 22.676 25.8891L22.7677 25.7974C23.2184 25.3415 23.9913 24.5817 24.3895 24.2097C23.9677 24.6341 23.1136 25.8786 23.297 26.3004H23.2944ZM27.8872 29.9186L26.7816 29.075C26.3493 28.6269 25.8829 28.1842 25.4087 27.7571C26.006 28.2182 26.5169 28.6086 26.5929 28.6767C27.1719 29.1929 27.1457 29.0985 27.544 29.4391L28.0234 29.7876C27.9763 29.8295 27.9291 29.8741 27.8846 29.916L27.8872 29.9186ZM28.1649 30.1308L28.1439 30.1151C28.1859 30.081 28.2304 30.0496 28.2723 30.0155L28.1675 30.1308H28.1649ZM10.6294 13.0223C10.666 13.211 10.7001 13.397 10.7342 13.5751C10.9149 14.5445 11.0826 15.417 11.4023 16.0798L11.528 16.5829C11.5778 16.7741 11.6485 17.0126 11.714 17.0623C12.4607 17.7226 13.6057 18.7077 14.8292 19.6352C14.8842 19.6771 14.9602 19.6745 15.0126 19.6325C15.0152 19.6378 15.0205 19.6404 15.0231 19.643C15.0519 19.6692 15.086 19.6823 15.1226 19.6823C15.1646 19.6823 15.2039 19.6666 15.2327 19.6325C16.7994 17.8903 17.9653 16.4571 18.7959 15.2572C18.8483 15.1917 18.8744 15.1157 18.8718 15.0371C18.9242 14.9742 18.9792 14.9113 19.029 14.8589C19.0442 14.8434 19.0557 14.8246 19.0627 14.8041C19.0697 14.7835 19.072 14.7616 19.0695 14.74C19.067 14.7185 19.0597 14.6977 19.0482 14.6793C19.0366 14.6609 19.0212 14.6453 19.0028 14.6336C18.9996 14.5979 18.9838 14.5645 18.9583 14.5393C18.5941 14.1882 18.3243 13.9341 18.0518 13.6799C17.5697 13.2293 17.0719 12.763 16.016 11.7123C16.0108 11.7071 16.003 11.7019 15.9977 11.6966C15.9817 11.68 15.9619 11.6674 15.9401 11.6599C15.6493 11.5578 15.0519 11.4556 14.3 11.3246C13.1943 11.1359 11.68 10.8739 10.3176 10.4678H10.3071V10.4652C10.3071 10.4652 10.3019 10.4652 10.2993 10.4705H10.2966L10.3071 10.4652C10.3071 10.4652 10.2259 10.4678 10.2102 10.4757C10.1892 10.4862 10.1735 10.4993 10.1604 10.515C10.1473 10.5307 10.1368 10.5464 10.0373 10.5674C9.93769 10.5884 10.0582 10.5674 10.0661 10.5674H10.0373V10.5753C10.0556 10.6643 10.0504 10.7272 10.0792 10.8294C10.0739 10.8556 10.1342 11.0966 10.1421 11.1202L10.6215 13.0223H10.6294ZM18.7382 14.7358C18.7382 14.7358 18.7304 14.7463 18.7277 14.7489L18.5601 14.5629C18.6177 14.6179 18.6753 14.6729 18.7382 14.7358ZM16.8806 17.196C16.8806 17.196 16.8623 17.2169 16.8544 17.2274L16.8492 17.2222C16.8597 17.2143 16.8702 17.2038 16.8833 17.196H16.8806ZM15.8196 11.9298C15.9113 12.0215 16.2754 12.3621 16.3593 12.4459C15.9794 12.273 15.0336 11.8329 14.5934 11.6914C15.0257 11.7674 15.6231 11.8643 15.8196 11.9298ZM10.7944 11.2041C11.0145 11.5813 11.1874 12.9044 11.3603 14.1908C11.2634 13.7769 11.1796 13.3734 11.101 12.9857C10.9647 12.3149 10.839 11.715 10.6634 11.1831C10.7001 11.1857 10.7446 11.191 10.7918 11.1962C10.7918 11.1988 10.7918 11.2014 10.797 11.2041H10.7944ZM10.7184 10.887C10.6582 10.8818 10.6032 10.8766 10.556 10.8739C10.5508 10.8635 10.5481 10.853 10.5455 10.8425L10.7184 10.8897V10.887ZM30.7141 10.6958C30.7246 10.6355 30.4259 10.3709 30.5203 10.3657C30.743 10.3552 30.7456 10.012 30.5203 10.0225C30.2242 10.0382 29.9255 10.1063 29.6373 10.1613C29.1186 10.2582 28.6024 10.3657 28.0863 10.4783C26.9361 10.7246 25.7886 10.984 24.6541 11.2931C24.2978 11.3901 23.9048 11.4765 23.5773 11.6495C23.4673 11.7071 23.4725 11.825 23.5328 11.8984C23.5092 11.9115 23.4856 11.9193 23.4594 11.9219C23.3625 11.9403 23.2655 11.956 23.1686 11.9717C23.1444 11.9756 23.1215 11.9854 23.102 12.0003C23.0826 12.0151 23.0671 12.0346 23.0569 12.0569C23.0468 12.0792 23.0424 12.1037 23.044 12.1282C23.0457 12.1526 23.0534 12.1763 23.0664 12.197C22.4586 13.0092 21.7669 13.8843 21.0176 14.8039C20.2814 15.6449 19.5163 16.541 18.733 17.4606C16.2676 20.3583 13.472 23.6437 10.3752 26.5362C10.315 26.5912 10.3124 26.6855 10.3674 26.7458C10.3805 26.7615 10.3988 26.772 10.4172 26.7799C10.3752 26.8192 10.3333 26.8585 10.2914 26.8951C10.2652 26.9187 10.2547 26.9475 10.2495 26.979C10.2285 26.9999 10.2076 27.0235 10.1892 27.0445C10.1342 27.1047 10.1368 27.199 10.1971 27.2541C10.2573 27.3091 10.3517 27.3065 10.4067 27.2462C10.4172 27.2357 10.4276 27.2226 10.4381 27.2121C10.4587 27.1904 10.4835 27.1731 10.5109 27.1613C10.5384 27.1495 10.568 27.1434 10.5979 27.1434C10.6278 27.1434 10.6574 27.1495 10.6849 27.1613C10.7124 27.1731 10.7372 27.1904 10.7577 27.2121C10.9385 27.406 11.1088 27.5894 11.2686 27.7597L10.9071 27.4584C10.8768 27.4332 10.8378 27.421 10.7985 27.4244C10.7592 27.4279 10.7229 27.4467 10.6975 27.4768C10.6451 27.5396 10.6529 27.634 10.7158 27.6864L14.5986 30.943C14.6275 30.9666 14.6615 30.9771 14.6956 30.9771C14.7349 30.9771 14.7716 30.9613 14.8004 30.9325L14.8947 30.8382C14.9221 30.8505 14.9527 30.8541 14.9822 30.8484C15.0117 30.8428 15.0388 30.8283 15.0598 30.8068C20.3233 25.5196 24.5624 21.5242 29.4173 17.9531C29.4618 17.9217 29.4828 17.8693 29.4775 17.8195C29.5061 17.8164 29.5331 17.8051 29.5555 17.787C29.5778 17.7688 29.5944 17.7447 29.6033 17.7173C30.4993 14.9768 30.6722 12.5507 30.7246 11.3586C30.7246 11.3508 30.7272 11.3455 30.7299 11.3403C30.7351 11.3272 30.7377 11.3141 30.7403 11.3036C30.7482 11.2748 30.7534 11.2538 30.7534 11.2538C30.8216 11.0495 30.798 10.853 30.7141 10.6905V10.6958ZM21.3032 14.9847C21.539 14.7148 21.7721 14.4502 22.0027 14.1935C20.4936 16.1794 17.9941 19.2395 14.4545 22.8761C16.8649 20.2089 19.2936 17.4449 21.3032 14.9847ZM12.7751 28.8208L12.7673 28.813C12.7961 28.8182 12.8171 28.8234 12.8197 28.8234C12.8049 28.8207 12.7899 28.8207 12.7751 28.8234V28.8208ZM14.5829 30.5028L14.5698 30.4924L14.5777 30.4845C14.5829 30.4845 14.5855 30.4897 14.5882 30.4897C14.5882 30.495 14.5829 30.4976 14.5803 30.5028H14.5829ZM16.7732 28.6138L17.1348 28.2366C17.1374 28.2392 17.14 28.2444 17.1426 28.2497C17.0195 28.3702 16.8964 28.4933 16.7706 28.6138H16.7732ZM17.3601 28.0348C17.4282 27.9562 17.5068 27.8645 17.588 27.7676C17.5907 27.765 17.5933 27.7597 17.5985 27.7571C18.4605 26.8689 19.3487 25.9703 20.2657 25.0716C20.2709 25.0664 20.2788 25.0611 20.284 25.0559C20.5093 24.883 20.7608 24.6917 20.9966 24.5109C19.8124 25.6428 18.6098 26.8113 17.3601 28.0374V28.0348ZM23.0324 13.3944C22.545 14.0284 22.0106 14.8511 21.5573 15.5087C20.1268 17.5811 15.5209 22.656 15.4187 22.7529C14.7087 23.4394 12.5682 25.4934 11.2031 26.7799C11.1665 26.8139 11.1376 26.8427 11.1141 26.8716C11.095 26.8517 11.08 26.8282 11.0701 26.8025C11.0601 26.7768 11.0554 26.7494 11.0561 26.7219C11.0568 26.6943 11.063 26.6672 11.0743 26.6421C11.0856 26.617 11.1018 26.5943 11.1219 26.5755C17.6247 20.4447 21.5704 15.3384 23.1738 13.114C23.1398 13.2005 23.111 13.2948 23.0297 13.3996L23.0324 13.3944ZM27.3579 15.2546L27.3553 15.2598C27.3553 15.2546 27.3501 15.2415 27.3579 15.2546ZM25.5764 16.3864C24.9842 16.0432 24.7065 15.5297 24.8663 15.0109L24.9161 14.838C24.9371 14.7882 24.9607 14.7384 24.9895 14.6886C25.1441 14.4319 25.3799 14.2039 25.6497 14.0703C25.6628 14.0651 25.6759 14.0625 25.689 14.0598C25.6752 14.024 25.6716 13.985 25.6785 13.9472C25.6916 13.866 25.744 13.7952 25.8515 13.7952C26.027 13.7952 26.572 13.9577 26.7789 14.1358C26.8418 14.1856 26.9021 14.2406 26.9571 14.3009C27.0357 14.3926 27.151 14.5419 27.2086 14.6493C27.2427 14.6651 27.2689 14.8118 27.3082 14.8878C27.3448 15.0083 27.3606 15.1314 27.3553 15.2546C27.3553 15.2598 27.3553 15.2598 27.3579 15.2624C27.3501 15.2808 27.3579 15.3594 27.3475 15.3672C27.3213 15.5559 27.2531 15.7419 27.151 15.9043C27.1405 15.9174 27.1326 15.9331 27.1222 15.9462C27.1222 15.9488 27.1169 15.9515 27.1143 15.9567C27.0357 16.0694 26.944 16.1742 26.8313 16.2528C26.5012 16.4859 26.1161 16.5567 25.7309 16.4597C25.6801 16.4404 25.6303 16.4185 25.5816 16.3942L25.5764 16.3864ZM29.8391 15.9593C29.7107 16.4964 29.5535 17.0571 29.3675 17.6309C29.3596 17.6518 29.3596 17.6728 29.3596 17.6911C29.3334 17.6938 29.3098 17.7042 29.2889 17.72C28.1256 18.5741 27.0016 19.4544 25.8881 20.3688C26.8497 19.4989 27.8243 18.6343 28.8304 17.7619C29.1218 17.5085 29.3171 17.1625 29.3832 16.782L29.5299 15.8991L29.5378 15.8729C29.6033 15.6869 29.8888 15.7681 29.8443 15.9593H29.8391Z" fill="#DCDCDC"/>
</svg>