<svg width="40" height="40" viewBox="0 0 40 40" fill="none" xmlns="http://www.w3.org/2000/svg">
<g clip-path="url(#clip0_6817_20715)">
<path fill-rule="evenodd" clip-rule="evenodd" d="M20 8.00002C26.6274 8.00002 32 13.3726 32 20C32 26.1351 27.3957 31.1942 21.4542 31.9121V23.667H24.7004L25.3738 20L25.3734 20L21.4542 20V18.7031C21.4542 16.7652 22.2144 16.0199 24.1821 16.0199C24.2201 16.0199 24.2578 16.02 24.2949 16.0201C24.4439 16.0206 24.585 16.022 24.717 16.0243C25.0799 16.0307 25.3733 16.0442 25.568 16.0647V16.0646C25.5682 16.0646 25.5683 16.0646 25.5684 16.0646V12.7405C25.0318 12.5914 23.72 12.4423 22.9597 12.4423C22.5191 12.4423 22.1046 12.4652 21.7158 12.5113C18.5657 12.8847 17.1011 14.7841 17.1011 18.4199V20H14.6266V23.667L14.627 23.667L17.1011 23.667V31.6466C11.8743 30.3499 8 25.6278 8 20C8 13.3726 13.3726 8.00002 20 8.00002Z" fill="#DCDCDC"/>
</g>
<defs>
<clipPath id="clip0_6817_20715">
<rect width="24" height="24" fill="white" transform="translate(8 8)"/>
</clipPath>
</defs>
</svg>