<svg width="40" height="40" viewBox="0 0 40 40" fill="none" xmlns="http://www.w3.org/2000/svg">
<g clip-path="url(#clip0_6817_20726)">
<path fill-rule="evenodd" clip-rule="evenodd" d="M20.0099 8C13.3687 8 8 13.4083 8 20.0992C8 25.4475 11.4399 29.9748 16.2121 31.5771C16.8087 31.6976 17.0272 31.3168 17.0272 30.9965C17.0272 30.716 17.0076 29.7545 17.0076 28.7527C13.6667 29.474 12.971 27.3104 12.971 27.3104C12.4341 25.9082 11.6386 25.5478 11.6386 25.5478C10.5451 24.8066 11.7182 24.8066 11.7182 24.8066C12.9312 24.8868 13.5676 26.0486 13.5676 26.0486C14.6412 27.8913 16.3711 27.3707 17.0671 27.0501C17.1664 26.2688 17.4847 25.728 17.8228 25.4276C15.1582 25.1471 12.3547 24.1055 12.3547 19.458C12.3547 18.1359 12.8316 17.0543 13.5873 16.213C13.4681 15.9126 13.0504 14.6704 13.7068 13.0079C13.7068 13.0079 14.7208 12.6873 17.0073 14.2498C17.9863 13.985 18.9958 13.8502 20.0099 13.8491C21.024 13.8491 22.0577 13.9895 23.0123 14.2498C25.299 12.6873 26.3131 13.0079 26.3131 13.0079C26.9695 14.6704 26.5515 15.9126 26.4323 16.213C27.2079 17.0543 27.6652 18.1359 27.6652 19.458C27.6652 24.1055 24.8617 25.1269 22.1772 25.4276C22.6148 25.8081 22.9924 26.5292 22.9924 27.6711C22.9924 29.2936 22.9727 30.5957 22.9727 30.9962C22.9727 31.3168 23.1915 31.6976 23.7879 31.5774C28.56 29.9745 31.9999 25.4475 31.9999 20.0992C32.0196 13.4083 26.6312 8 20.0099 8Z" fill="#DCDCDC"/>
</g>
<defs>
<clipPath id="clip0_6817_20726">
<rect width="24" height="24" fill="white" transform="translate(8 8)"/>
</clipPath>
</defs>
</svg>