<svg width="40" height="40" viewBox="0 0 40 40" fill="none" xmlns="http://www.w3.org/2000/svg">
<path d="M26.6413 21.1273H26.6474C26.6474 21.1273 24.362 24.4796 22.4404 26.9711C20.7794 29.1231 20.2944 30.9659 20.155 31.857C20.1005 32.1843 19.8337 32.4268 19.5124 32.4268C19.1912 32.4268 18.9244 32.1843 18.8699 31.857C18.7305 30.9659 18.2455 29.1231 16.5845 26.9711C16.3299 26.6377 16.0693 26.2921 15.8086 25.9405L22.0827 18.4843L27.1323 12.4951C27.69 13.6651 27.9992 14.9745 27.9992 16.3626C27.9992 18.1206 27.496 19.7513 26.6413 21.1273Z" fill="#DCDCDC"/>
<path d="M22.0825 18.4841L15.8084 25.9403C14.0989 23.6489 12.3773 21.1271 12.3773 21.1271H12.3834C12.2015 20.8361 12.0379 20.5391 11.8984 20.2299L16.942 14.2407C16.4631 14.8166 16.1782 15.5562 16.1782 16.3624C16.1782 18.2052 17.6694 19.6965 19.5123 19.6965C20.5488 19.6965 21.4763 19.2236 22.0825 18.4841Z" fill="#DCDCDC"/>
<path d="M22.1776 8.02134L16.9825 14.1924L13.0059 10.725C14.5577 8.79727 16.8976 7.57275 19.5103 7.57275C20.4439 7.57275 21.341 7.73036 22.1776 8.02134Z" fill="#DCDCDC"/>
<path d="M16.9843 14.1922L16.9419 14.2407L11.8983 20.2299C11.3406 19.0599 11.0254 17.7505 11.0254 16.3623C11.0254 14.2164 11.771 12.2463 13.0076 10.7247L16.9843 14.1922Z" fill="#DCDCDC"/>
<path d="M22.0819 18.4843C22.5608 17.9084 22.8457 17.1689 22.8457 16.3626C22.8457 14.5198 21.3545 13.0285 19.5117 13.0285C18.4751 13.0285 17.5476 13.5014 16.9414 14.2409L22.1789 8.02136C24.3552 8.76092 26.1374 10.3916 27.1316 12.4951L22.0819 18.4843Z" fill="#DCDCDC"/>
</svg>