<svg width="40" height="40" viewBox="0 0 40 40" fill="none" xmlns="http://www.w3.org/2000/svg">
<g clip-path="url(#clip0_6787_23052)">
<path fill-rule="evenodd" clip-rule="evenodd" d="M11.488 7H28.512C30.9906 7 33 9.00937 33 11.488V28.512C33 30.9906 30.9906 33 28.512 33H11.488C9.00937 33 7 30.9906 7 28.512V11.488C7 9.00937 9.00937 7 11.488 7ZM23.3627 14.3728C24.912 13.3347 26.7521 12.8179 28.6153 12.8977C28.6783 14.3879 28.3604 15.8695 27.6916 17.2027C27.0228 18.5358 26.0252 19.6765 24.7929 20.5169C24.161 20.951 23.6446 21.5328 23.2885 22.2117C22.9325 22.8907 22.7475 23.6463 22.7497 24.413V27.1108H17.2528V24.413C17.2549 23.6463 17.0698 22.8906 16.7136 22.2117C16.3575 21.5327 15.841 20.951 15.209 20.5169C13.9771 19.6762 12.9797 18.5354 12.311 17.2024C11.6422 15.8693 11.3241 14.3878 11.3866 12.8977C13.2499 12.8179 15.09 13.3347 16.6392 14.3728C18.1885 15.411 19.3662 16.9163 20.001 18.6699C20.6357 16.9163 21.8134 15.411 23.3627 14.3728ZM15.1839 23.02C15.4083 23.4498 15.5242 23.9279 15.5216 24.4128V27.1106H11.3789V19.041C11.7687 19.6355 12.2182 20.1886 12.7204 20.6917C13.1848 21.1563 13.6916 21.5765 14.2343 21.9468C14.6335 22.2218 14.9595 22.5902 15.1839 23.02ZM25 24.3718C24.9975 23.8869 25.1134 23.4088 25.3378 22.979C25.5621 22.5492 25.8881 22.1808 26.2874 21.9057C26.83 21.5355 27.3369 21.1153 27.8013 20.6507C28.3035 20.1476 28.753 19.5945 29.1428 19V27.0696H25V24.3718Z" fill="#DCDCDC"/>
</g>
<defs>
<clipPath id="clip0_6787_23052">
<rect width="26" height="26" fill="white" transform="translate(7 7)"/>
</clipPath>
</defs>
</svg>