<svg width="40" height="40" viewBox="0 0 40 40" fill="none" xmlns="http://www.w3.org/2000/svg">
<g clip-path="url(#clip0_6817_20733)">
<path d="M31.9469 14.615C31.6089 12.4 30.4289 10.518 28.6149 9.29997C25.3129 7.07797 20.8429 7.76697 18.3479 10.881C17.2639 12.2354 16.6744 13.9192 16.6769 15.654C16.6769 16.247 16.7439 16.825 16.8619 17.328C17.0429 18.128 17.4439 19.095 17.8689 19.757L18.0869 20.1L16.3409 21.844L16.0639 21.704C15.8219 21.58 15.7449 21.564 15.4429 21.564C14.7929 21.562 14.9789 21.405 11.3739 25.013C7.80592 28.585 8.00192 28.354 8.00192 28.999C7.99792 29.579 8.06892 29.688 9.18592 30.801C10.1239 31.735 10.3059 31.88 10.6589 31.969L10.6599 31.97C10.9149 32.035 11.3349 31.989 11.6059 31.864C11.8179 31.767 12.2439 31.359 15.0079 28.603C18.5939 25.021 18.4409 25.205 18.4379 24.554C18.4379 24.253 18.4229 24.178 18.2979 23.937L18.1579 23.657L19.9039 21.913L20.2469 22.131C21.5849 22.989 23.3339 23.425 24.9089 23.294C26.0159 23.201 26.8329 22.974 27.7939 22.491L27.8339 22.474C28.5452 22.1279 29.19 21.6594 29.7389 21.09L29.7399 21.089C30.946 19.9093 31.7229 18.3601 31.9469 16.688C32.0179 16.194 32.0179 15.081 31.9469 14.615ZM30.0989 18.441L30.0819 18.479C29.6373 19.3735 28.9912 20.1527 28.1943 20.7551C27.3975 21.3576 26.4718 21.767 25.4899 21.951L25.4909 21.953C24.9669 22.048 23.9329 22.068 23.4229 21.99L23.3879 21.986C21.8878 21.7555 20.5179 21.0013 19.5209 19.857C18.503 18.696 17.9428 17.204 17.9449 15.66C17.9449 14.267 18.3919 12.978 19.1379 11.947C19.4469 11.51 20.1739 10.783 20.6199 10.466C21.3585 9.94416 22.1965 9.57994 23.0819 9.39597C23.6879 9.26697 24.9169 9.25397 25.4989 9.37097C26.3379 9.53897 27.2299 9.90297 27.8689 10.333C30.5549 12.134 31.4919 15.541 30.0989 18.441Z" fill="#DCDCDC"/>
<path d="M10.7126 13.459C10.7256 13.478 11.7066 13.774 12.8956 14.113H12.9006L15.0856 14.742C15.1196 14.745 13.8856 10.417 13.8376 10.366C13.7966 10.324 9.50756 9.09501 9.48156 9.12001C9.46556 9.13801 10.6726 13.397 10.7126 13.459ZM30.0806 22.662C30.0676 22.625 29.9756 22.671 29.8156 22.796C28.6826 23.653 27.2436 24.282 25.9026 24.509L25.7466 24.537L25.7906 24.693L25.7926 24.702C25.8086 24.767 25.8286 24.829 25.8496 24.88L25.8486 24.882C25.8606 24.903 30.3126 23.655 30.3456 23.621C30.3526 23.612 30.1346 22.827 30.0806 22.662ZM25.2276 25.463C25.0556 25.379 20.8316 24.201 20.8086 24.227C20.7586 24.28 19.5246 28.648 19.5496 28.676L18.9756 28.518C19.7046 28.751 20.4376 28.973 21.7476 29.327L21.7466 29.326C22.9386 29.67 23.9406 29.954 23.9686 29.957C23.9966 29.957 24.0406 29.888 24.0656 29.801L24.7606 26.987C24.9766 26.239 25.1936 25.492 24.7016 27.565C25.2246 25.751 25.2896 25.488 25.2276 25.463ZM30.2576 24.293C30.2406 24.274 25.9586 25.47 25.9116 25.504C25.8926 25.518 24.6636 29.798 24.6636 29.851C24.6636 29.87 24.7076 29.882 24.7616 29.871C24.8946 29.844 29.0056 28.672 29.0256 28.653C29.0576 28.63 30.2766 24.311 30.2576 24.293ZM9.48256 19.289C9.56756 19.713 10.6976 23.54 10.7476 23.579L10.7486 23.58C10.7856 23.609 10.8256 23.634 10.8416 23.634L10.8666 23.611C11.3266 23.172 11.7796 22.726 12.2336 22.267C12.9886 21.512 13.6746 20.847 13.7586 20.788C13.8946 20.694 13.9116 20.663 13.8836 20.565C13.8536 20.454 13.7826 20.429 11.6586 19.825C9.62856 19.246 9.46656 19.206 9.48256 19.289ZM17.9056 9.32201C17.8696 9.33601 17.0786 9.56601 16.1436 9.83101L14.4486 10.314L14.5266 10.594L15.0466 12.4V12.402C15.4376 13.767 15.5526 14.085 15.5526 13.792L15.5566 13.766C15.5896 13.573 15.6356 13.384 15.6846 13.231L15.6986 13.17C16.0647 11.8638 16.7315 10.6614 17.6456 9.65901C17.8226 9.46301 17.9396 9.30701 17.9056 9.32201ZM18.3436 10.889L18.3496 10.882L18.3556 10.873L18.3436 10.889ZM15.3976 16.73L14.9766 18.206C14.8316 18.7183 14.6833 19.2297 14.5316 19.74L14.5326 19.739C14.5166 19.779 14.5336 19.789 14.5916 19.773C14.6366 19.759 14.9886 19.658 15.3786 19.549C15.7656 19.438 16.0906 19.343 16.0986 19.337C16.0467 19.1526 15.9863 18.9708 15.9176 18.792C15.7133 18.2257 15.5581 17.6429 15.4536 17.05L15.3976 16.73ZM11.5696 19.202C12.7576 19.542 13.7686 19.824 13.8186 19.827C13.8986 19.831 13.9656 19.627 14.5426 17.607C14.8916 16.385 15.1706 15.377 15.1616 15.368C15.1146 15.327 10.7086 14.093 10.6866 14.116C10.6626 14.143 9.38356 18.564 9.40056 18.576C9.40356 18.579 10.3806 18.859 11.5696 19.202ZM17.4396 29.079C18.2276 28.856 18.8856 28.659 18.9056 28.643C18.9446 28.604 20.1766 24.308 20.1536 24.283C20.1446 24.273 20.0546 24.289 19.9516 24.317L19.7696 24.368L19.7586 24.675C19.7536 24.845 19.7266 25.079 19.7006 25.197C19.6336 25.48 19.3996 25.994 19.2276 26.212C19.1526 26.313 18.3986 27.088 17.5516 27.94L17.5526 27.942L16.0136 29.484L17.4396 29.079Z" fill="#DCDCDC"/>
</g>
<defs>
<clipPath id="clip0_6817_20733">
<rect width="24" height="24" fill="white" transform="translate(8 8)"/>
</clipPath>
</defs>
</svg>