<svg width="40" height="40" viewBox="0 0 40 40" fill="none" xmlns="http://www.w3.org/2000/svg">
<path fill-rule="evenodd" clip-rule="evenodd" d="M8.7224 18.7529C15.1201 15.9655 19.3862 14.1279 21.5208 13.24C27.6154 10.705 28.8818 10.2647 29.7073 10.2502C29.8888 10.247 30.2947 10.2919 30.5577 10.5053C30.7797 10.6855 30.8408 10.9288 30.87 11.0996C30.8993 11.2704 30.9357 11.6595 30.9067 11.9636C30.5765 15.4338 29.1474 23.8551 28.4203 27.7417C28.1127 29.3863 27.507 29.9378 26.9205 29.9917C25.6461 30.109 24.6783 29.1495 23.444 28.3403C21.5125 27.0742 20.4213 26.286 18.5464 25.0505C16.3796 23.6226 17.7842 22.8378 19.0191 21.5553C19.3422 21.2196 24.9575 16.1121 25.0661 15.6488C25.0797 15.5908 25.0923 15.3748 24.964 15.2608C24.8357 15.1467 24.6463 15.1857 24.5096 15.2167C24.3159 15.2607 21.2303 17.3002 15.2527 21.3353C14.3768 21.9367 13.5835 22.2297 12.8727 22.2144C12.0892 22.1974 10.5819 21.7713 9.46133 21.4071C8.08696 20.9603 6.99464 20.7241 7.08976 19.9654C7.1393 19.5702 7.68352 19.166 8.7224 18.7529Z" fill="#DCDCDC"/>
</svg>