<svg width="40" height="40" viewBox="0 0 40 40" fill="none" xmlns="http://www.w3.org/2000/svg">
<path fill-rule="evenodd" clip-rule="evenodd" d="M8.39821 16.0204C8.39821 16.0204 10.8136 13.139 11.9151 16.0204C11.9151 16.0204 14.5421 24.7064 15.6863 28.3929C16.8301 32.0791 20.559 30.5963 20.559 30.5963C20.559 30.5963 25.008 29.2401 30.3468 20.3421C35.6856 11.4441 31.3165 9.03799 31.3165 9.03799C31.3165 9.03799 27.5077 6.35968 23.6521 10.9357C23.6521 10.9357 22.3951 12.3567 21.7551 14.5718C21.7551 14.5718 25.102 12.7015 25.5203 15.433C25.9386 18.1646 22.2719 22.1758 22.2719 22.1758C22.2719 22.1758 20.7455 24.3412 20.0076 20.8223C20.0076 20.8223 18.4085 12.9228 18.2854 12.0369C18.2854 12.0369 17.4685 6.76127 12.6943 9.61596C12.6943 9.61596 9.83997 11.5528 7 14.4526L8.39821 16.0204Z" fill="#DCDCDC"/>
</svg>