<svg width="40" height="40" viewBox="0 0 40 40" fill="none" xmlns="http://www.w3.org/2000/svg">
<path fill-rule="evenodd" clip-rule="evenodd" d="M30.7992 12.5517C31.5202 13.2926 31.7533 14.9451 31.7533 14.9451L31.756 14.9424C31.9046 16.2391 31.986 17.5427 32 18.8479V20.6822C31.9897 21.9874 31.9101 23.2911 31.7615 24.5878C31.7615 24.5878 31.5257 26.2513 30.8047 26.9812C29.9798 27.8472 29.0654 27.9353 28.5509 27.9848C28.4959 27.9901 28.4455 27.995 28.4003 28.0003C25.0446 28.2509 20 28.2509 20 28.2509C20 28.2509 13.7601 28.1958 11.841 28.0113C11.7485 27.9938 11.6364 27.9801 11.5095 27.9647C10.8988 27.8905 9.94569 27.7747 9.18986 26.9812C8.4743 26.2403 8.23852 24.5878 8.23852 24.5878C8.0901 23.292 8.01048 21.9892 8 20.685V18.8562C8.01035 17.5519 8.08997 16.2491 8.23852 14.9534C8.23852 14.9534 8.46881 13.2898 9.18986 12.5599C10.011 11.6979 10.9208 11.6067 11.4366 11.555C11.4943 11.5492 11.5471 11.5439 11.5942 11.5381C14.9527 11.293 19.989 11.293 19.989 11.293C19.989 11.293 25.0391 11.293 28.3948 11.5298C28.442 11.5357 28.4948 11.541 28.5528 11.5468C29.0672 11.5985 29.9786 11.6902 30.7992 12.5517ZM17.5135 16.1157V22.8912L23.9946 19.5172L17.5135 16.1157Z" fill="#DCDCDC"/>
</svg>