<svg width="26" height="31" viewBox="0 0 26 31" fill="none" xmlns="http://www.w3.org/2000/svg">
<path opacity="0.8" d="M25.2459 15.8039C21.0493 15.8862 21.9234 18.5428 18.9659 19.2146C15.9615 19.8972 15.4872 11.877 12.4836 11.877C9.47952 11.877 8.81406 19.6677 5.05263 25.0162L4.94531 25.1676L13.0098 29.8228L25.2459 22.759V15.8039Z" fill="#949494"/>
<path opacity="0.8" d="M25.2443 15.5622C23.8395 13.7593 22.8866 11.6865 20.8366 11.6865C17.2087 11.6865 18.1633 17.6047 14.1539 17.6047C10.144 17.6047 9.72247 11.2389 5.18001 17.2229C3.73258 19.1296 2.56751 21.2557 1.65234 23.2674L13.0083 29.8231L25.2443 22.7594V15.5622Z" fill="#BFBFBF"/>
<path opacity="0.8" d="M0.771484 18.0144C2.14818 14.202 2.74235 11.1143 5.3706 11.1143C9.38005 11.1143 10.3344 22.3783 13.7717 21.2324C17.2083 20.087 16.8264 13.9776 22.1727 13.9776C23.1903 13.9776 24.2293 14.601 25.2441 15.6094V22.7599L13.0081 29.8237L0.771672 22.7599L0.771484 18.0144Z" fill="#949494"/>
<path d="M13 30.7093L0 23.205V8.19588L13 0.691406L26 8.19588V23.2048L13 30.7093ZM1.52735 22.3232L13 28.9461L24.4726 22.3232V9.07766L13 2.45477L1.52735 9.07766V22.3232Z" fill="#C9C9C9"/>
</svg>
