<svg width="40" height="40" viewBox="0 0 40 40" fill="none" xmlns="http://www.w3.org/2000/svg">
<path opacity="0.3" d="M32.2459 19.8039C28.0493 19.8862 28.9234 22.5428 25.9659 23.2146C22.9615 23.8972 22.4872 15.877 19.4836 15.877C16.4795 15.877 15.8141 23.6677 12.0526 29.0162L11.9453 29.1676L20.0098 33.8228L32.2459 26.759V19.8039Z" fill="#464646"/>
<path opacity="0.4" d="M32.2443 19.5622C30.8395 17.7593 29.8866 15.6865 27.8366 15.6865C24.2087 15.6865 25.1633 21.6047 21.1539 21.6047C17.144 21.6047 16.7225 15.2389 12.18 21.2229C10.7326 23.1296 9.56751 25.2557 8.65234 27.2674L20.0083 33.8231L32.2443 26.7594V19.5622Z" fill="#464646"/>
<path opacity="0.5" d="M7.77148 22.0144C9.14818 18.202 9.74235 15.1143 12.3706 15.1143C16.3801 15.1143 17.3344 26.3783 20.7717 25.2324C24.2083 24.087 23.8264 17.9776 29.1727 17.9776C30.1903 17.9776 31.2293 18.601 32.2441 19.6094V26.7599L20.0081 33.8237L7.77167 26.7599L7.77148 22.0144Z" fill="#464646"/>
<path d="M20 34.7093L7 27.205V12.1959L20 4.69141L33 12.1959V27.2048L20 34.7093ZM8.52735 26.3232L20 32.9461L31.4726 26.3232V13.0777L20 6.45477L8.52735 13.0777V26.3232Z" fill="#464646"/>
</svg>