<svg width="40px" height="40px" viewBox="0 0 40 40" fill="none" xmlns="http://www.w3.org/2000/svg">
  <path d="M 31.550781 22.449219 L 27.433594 22.449219 L 23.59375 15.800781 L 23.84375 15.800781 C 24.214844 15.800781 24.570312 15.652344 24.835938 15.390625 C 25.097656 15.128906 25.242188 14.769531 25.242188 14.398438 L 25.242188 8.449219 C 25.242188 8.078125 25.097656 7.722656 24.835938 7.460938 C 24.570312 7.195312 24.214844 7.050781 23.84375 7.050781 L 16.148438 7.050781 C 15.777344 7.050781 15.421875 7.195312 15.160156 7.460938 C 14.898438 7.722656 14.75 8.078125 14.75 8.449219 L 14.75 14.398438 C 14.75 14.769531 14.898438 15.128906 15.160156 15.390625 C 15.421875 15.652344 15.777344 15.800781 16.148438 15.800781 L 16.40625 15.800781 L 12.566406 22.449219 L 8.449219 22.449219 C 8.078125 22.449219 7.722656 22.597656 7.460938 22.859375 C 7.195312 23.121094 7.050781 23.480469 7.050781 23.851562 L 7.050781 29.800781 C 7.050781 30.171875 7.195312 30.527344 7.460938 30.789062 C 7.722656 31.054688 8.078125 31.199219 8.449219 31.199219 L 16.148438 31.199219 C 16.519531 31.199219 16.878906 31.054688 17.140625 30.789062 C 17.402344 30.527344 17.550781 30.171875 17.550781 29.800781 L 17.550781 23.851562 C 17.550781 23.480469 17.402344 23.121094 17.140625 22.859375 C 16.878906 22.597656 16.519531 22.449219 16.148438 22.449219 L 14.992188 22.449219 L 18.832031 15.800781 L 21.167969 15.800781 L 25.007812 22.449219 L 23.851562 22.449219 C 23.480469 22.449219 23.121094 22.597656 22.859375 22.859375 C 22.597656 23.121094 22.449219 23.480469 22.449219 23.851562 L 22.449219 29.800781 C 22.449219 30.171875 22.597656 30.527344 22.859375 30.789062 C 23.121094 31.054688 23.480469 31.199219 23.851562 31.199219 L 31.550781 31.199219 C 31.921875 31.199219 32.277344 31.054688 32.539062 30.789062 C 32.804688 30.527344 32.949219 30.171875 32.949219 29.800781 L 32.949219 23.851562 C 32.949219 23.480469 32.804688 23.121094 32.539062 22.859375 C 32.277344 22.597656 31.921875 22.449219 31.550781 22.449219 Z M 31.550781 22.449219 " style="fill:#df6c0c"/>
</svg>