<svg width="40" height="40" viewBox="0 0 40 40" fill="none" xmlns="http://www.w3.org/2000/svg">
<g clip-path="url(#clip0_6787_23068)">
<path d="M28.9267 12.0825C28.9267 14.4068 27.0425 16.291 24.7182 16.291H20.4004V7.87402H24.7182C27.0425 7.87402 28.9267 9.75823 28.9267 12.0825Z" stroke="#464646" stroke-width="1.5"/>
<path d="M11.875 12.0825C11.875 14.4068 13.7592 16.291 16.0835 16.291H20.4013V7.87402H16.0835C13.7592 7.87402 11.875 9.75823 11.875 12.0825Z" stroke="#464646" stroke-width="1.5"/>
<path d="M11.875 20.4996C11.875 22.8239 13.7592 24.7081 16.0835 24.7081H20.4013V16.2911H16.0835C13.7592 16.2911 11.875 18.1753 11.875 20.4996Z" stroke="#464646" stroke-width="1.5"/>
<path d="M11.875 28.9165C11.875 31.2408 13.7864 33.125 16.1107 33.125C18.4651 33.125 20.4013 31.2163 20.4013 28.8619V24.708H16.0835C13.7592 24.708 11.875 26.5922 11.875 28.9165Z" stroke="#464646" stroke-width="1.5"/>
<path d="M20.4004 20.4995C20.4004 22.8238 22.2846 24.708 24.6089 24.708H24.7182C27.0425 24.708 28.9267 22.8238 28.9267 20.4995C28.9267 18.1752 27.0425 16.291 24.7182 16.291H24.6089C22.2846 16.291 20.4004 18.1752 20.4004 20.4995Z" stroke="#464646" stroke-width="1.5"/>
</g>
<defs>
<clipPath id="clip0_6787_23068">
<rect width="18.8016" height="27" fill="white" transform="translate(11 7)"/>
</clipPath>
</defs>
</svg>