<svg width="40" height="40" viewBox="0 0 40 40" fill="none" xmlns="http://www.w3.org/2000/svg">
<path d="M26.4334 19.8755L23.0827 7.5686L6 12.0789L11.3481 32.4311L28.5985 27.8273L27.0073 21.983L24.4434 20.8611C23.8364 21.4787 22.9349 21.8954 21.9932 21.8954C20.1545 21.8954 18.6587 20.4287 18.6587 18.6259C18.6587 16.8232 20.1545 15.3564 21.9932 15.3564C23.8318 15.3564 25.3276 16.8232 25.3276 18.626C25.3276 18.8886 25.2959 19.144 25.236 19.3888L26.4335 19.8754L26.4334 19.8755ZM19.2917 13.8247C19.2917 13.8247 18.8703 14.0311 18.7943 14.183C18.7918 14.1879 18.7885 14.1934 18.7856 14.1986C18.7978 14.2094 18.8101 14.2202 18.8227 14.2313C19.1004 14.4754 19.5174 14.8426 20.0071 15.3488C19.7763 15.4846 19.561 15.6431 19.3645 15.8214C18.9264 15.3742 18.5537 15.0458 18.3015 14.824C18.2953 14.8186 18.2898 14.8137 18.2838 14.8085C18.1873 14.9817 18.0922 15.3526 18.0922 15.3526C18.0922 15.3526 17.698 13.9476 17.5231 13.5918C17.7706 13.684 18.9393 13.8836 19.2916 13.8247L19.2917 13.8247ZM15.2144 30.5209C13.6566 30.9247 12.1747 30.4063 11.9043 29.3633C11.6523 28.3906 12.5429 27.3055 13.9273 26.836C13.0428 24.045 12.3855 19.9933 13.7135 15.5836C13.6954 15.5752 13.6786 15.5667 13.6647 15.5583C13.5199 15.4697 13.0531 15.518 13.0531 15.518C13.3831 15.3812 14.2683 14.5925 14.4293 14.3833C14.4696 14.7776 14.88 16.1779 14.88 16.1779C14.88 16.1779 14.6349 15.9445 14.4614 15.837C13.1926 20.0748 13.8406 23.9744 14.6966 26.6504C16.0891 26.4449 17.3753 26.9455 17.5456 27.9014C17.755 29.0773 16.7722 30.1173 15.2144 30.5209ZM24.7424 27.9275C23.1846 28.3312 21.7026 27.8129 21.4323 26.7698C21.2295 25.9871 21.7665 25.1313 22.7055 24.5823C22.3607 24.493 21.2358 24.207 20.8899 24.1855L21.4565 23.961L18.7557 21.4216C18.5168 21.5321 18.2563 21.6253 17.9769 21.6977C17.78 21.7487 17.5843 21.7849 17.392 21.8073L16.3184 25.2796L16.8988 25.2726C16.4608 25.3038 15.5595 26.6069 15.5595 26.6069C15.5595 26.6069 15.2516 25.0793 15.0934 24.6997L15.5449 25.1092L16.5628 21.8169C15.6058 21.7225 14.8519 21.2544 14.6668 20.5399C14.3964 19.4969 15.4402 18.324 16.9979 17.9203C17.0103 17.9171 17.0226 17.9145 17.0351 17.9114C16.7558 17.6154 16.0163 16.8404 15.7482 16.6471L16.3463 16.7593L15.6555 14.2789C14.242 14.515 12.9701 14.0002 12.7217 13.0416C12.4514 11.9986 13.4951 10.8257 15.0529 10.422C16.6106 10.0184 18.0926 10.5367 18.3629 11.5797C18.6101 12.5336 17.7581 13.5957 16.4192 14.0791L17.0936 16.5006L17.5861 16.1895C17.2955 16.3981 17.185 17.4871 17.1541 17.8832C17.407 17.8273 17.6587 17.7956 17.9037 17.7854C17.8616 18.0239 17.8395 18.2668 17.8395 18.5134C17.8395 20.5208 19.2727 22.2032 21.1828 22.6205L21.9507 23.3424L22.2006 22.8184C22.0566 23.1728 22.6238 24.269 22.7721 24.545C23.0683 24.3797 23.4018 24.2441 23.7634 24.1503C23.7708 24.1484 23.7781 24.1469 23.7854 24.145C23.6302 23.4681 23.4479 22.8331 23.2461 22.2373C23.4997 22.152 23.7415 22.042 23.9685 21.9095C24.1937 22.5662 24.3961 23.2688 24.5665 24.0207C25.8216 23.9376 26.9173 24.431 27.0735 25.308C27.2829 26.4839 26.3001 27.524 24.7423 27.9276L24.7424 27.9275ZM27.955 20.7088L27.8401 20.9661L25.5435 19.88L25.1337 20.7465L27.4399 21.8371L27.3346 22.0989L33.3796 24.7965L33.9999 23.4064L27.955 20.7088V20.7088Z" fill="#464646"/>
</svg>