<svg width="40" height="40" viewBox="0 0 40 40" fill="none" xmlns="http://www.w3.org/2000/svg">
<path d="M16.6101 30.9727C16.204 30.7251 15.6305 29.7005 15.0056 28.1063C13.727 24.8446 12.2347 19.4131 11.4593 15.1994C11.2151 13.8723 11.1144 11.7339 11.2626 11.0231C11.4565 10.0931 11.9506 9.60997 12.8121 9.50794L13.211 9.46069L13.4327 9.83897C13.9713 10.758 14.0731 11.311 14.2539 14.2977C14.3709 16.2308 14.5591 17.4 14.8035 17.7114C14.9718 17.9257 15.1749 17.8133 15.4272 17.3664C15.9297 16.4759 18.4775 13.7148 19.4427 13.0147C20.6477 12.1406 22.1041 11.6868 23.7044 11.6868C24.2441 11.6868 24.2363 11.6701 24.0692 12.4673C24.0121 12.7393 23.8665 13.1307 23.7455 13.3372C23.4051 13.9181 22.3889 14.9477 20.995 16.1242C19.5455 17.3476 17.6411 19.2456 17.6411 19.467C17.6411 19.5488 17.6871 19.6283 17.7432 19.6436C18.733 19.9133 22.2495 21.4529 24.471 22.5893C27.0063 23.8862 28.5878 24.9429 28.8638 25.5244C29.0662 25.9511 29.0402 26.8402 28.8121 27.2923C28.5633 27.7852 28.3555 27.8782 27.648 27.8132C26.1507 27.6755 25.0514 27.1789 22.2923 25.3938C19.7976 23.7796 18.6759 23.2283 17.4873 23.032C16.7494 22.9101 16.6133 22.9999 16.6323 23.5961C16.6499 24.1495 16.8658 24.6479 17.6484 25.9416C18.6499 27.597 18.9394 28.6425 18.7068 29.7632C18.5882 30.3344 18.3446 30.6402 17.7865 30.9182C17.2842 31.1686 16.9562 31.1838 16.6101 30.9727Z" fill="#464646"/>
</svg>