<svg width="40" height="40" viewBox="0 0 40 40" fill="none" xmlns="http://www.w3.org/2000/svg">
<path fill-rule="evenodd" clip-rule="evenodd" d="M32.9312 13.802V13L32.703 13.0177C32.3434 13.0456 31.7397 13.0457 31.3489 13.0457C30.8133 13.0457 30.16 13.0456 29.7671 13.0176L29.5402 13.0014V13.7871L29.7336 13.804C29.9521 13.8231 30.0561 13.8925 30.1078 13.9523C30.1617 14.0146 30.1843 14.0961 30.1843 14.1828C30.1843 14.2875 30.1455 14.3602 30.0343 14.5055L28.0719 17.1625L25.8554 14.134C25.8054 14.0606 25.7816 14.0203 25.7703 13.9975C25.7865 13.9659 25.8684 13.8152 26.2707 13.8045L26.4769 13.799V13.005L26.2533 13.0174C25.7435 13.0456 24.9607 13.0457 24.4264 13.0457C24.0041 13.0457 23.2071 13.0456 22.8269 13.0176L22.5996 13.0009V13.8048H22.8114C23.2625 13.8048 23.5244 13.8142 23.7178 13.8705C23.89 13.9205 24.0164 14.0108 24.1751 14.2187L27.1971 18.3618L24.4804 22.0665C24.2089 22.4333 23.8767 22.645 23.5629 22.7671H23.4567L23.4503 22.8075C23.0833 22.9283 22.7555 22.9334 22.6003 22.9334H22.3884V23.7383L22.6167 23.7206C22.8016 23.7062 23.0517 23.6992 23.3043 23.6958C23.258 23.9523 23.2091 24.1887 23.1513 24.4064C23.0412 24.8209 22.9025 25.152 22.7011 25.4121C22.3099 25.9174 21.6313 26.2167 20.235 26.2167H17.9941C17.8337 26.2167 17.7258 26.2117 17.6505 26.1995C17.6141 26.1935 17.5911 26.1867 17.577 26.181C17.5702 26.1782 17.5661 26.1759 17.5637 26.1745L17.5618 26.1732L17.5605 26.1721L17.5598 26.1712C17.5592 26.1705 17.558 26.1685 17.5563 26.1646C17.5526 26.1562 17.5473 26.1403 17.5427 26.1119C17.533 26.0514 17.5306 25.9663 17.5306 25.834V21.8331H18.8419C19.5967 21.8331 19.9198 21.9663 20.0805 22.1714C20.1638 22.2777 20.2205 22.4235 20.2547 22.6318C20.2891 22.8413 20.2984 23.0976 20.2984 23.4143V23.6261H20.9816V19.2817H20.2984V19.4935C20.2984 19.8049 20.2891 20.0563 20.2548 20.2615C20.2207 20.4654 20.1643 20.6077 20.0815 20.7113C19.9211 20.9124 19.5974 21.0436 18.8419 21.0436H17.5303V17.5203C17.5303 17.3904 17.5327 17.3075 17.5424 17.2487C17.5469 17.2212 17.552 17.2061 17.5555 17.1983C17.5571 17.1947 17.5588 17.1923 17.5592 17.1918C17.5593 17.1917 17.5602 17.1909 17.5625 17.1895C17.5648 17.188 17.5691 17.1857 17.576 17.1829C17.5903 17.1771 17.6135 17.1704 17.6501 17.1645C17.7255 17.1523 17.8335 17.1474 17.9938 17.1474H20.2014C21.4353 17.1474 22.0502 17.3785 22.4006 17.7862C22.7644 18.2094 22.8919 18.8701 23.0065 19.879L23.0278 20.0669H23.7459L23.3093 16.3098H16.0692L15.8257 13.2508V13.0385H6.30719L6 16.7954H6.71494L6.73117 16.6012C6.78342 15.9764 6.83598 15.4949 6.92217 15.1193C7.00812 14.7448 7.12295 14.4976 7.28464 14.3257C7.44393 14.1564 7.66908 14.0389 8.01931 13.9645C8.37337 13.8894 8.83867 13.8618 9.46197 13.8618H10.3366C10.3851 13.8702 10.4062 13.8812 10.4139 13.8863C10.4184 13.8893 10.4218 13.8919 10.4268 13.9042C10.4338 13.9215 10.4413 13.9528 10.4455 14.0105C10.4496 14.068 10.4497 14.1361 10.4497 14.2251V22.4294C10.4497 22.5697 10.4454 22.6533 10.4287 22.7131C10.4161 22.7581 10.3986 22.7831 10.3579 22.8076C10.305 22.8394 10.2067 22.8727 10.0207 22.8955C9.8379 22.918 9.59011 22.9284 9.25269 22.9284H8.5825V23.72L8.82295 23.7157H8.82304C9.59041 23.7019 10.3869 23.6875 11.1682 23.6875C11.95 23.6875 12.7519 23.702 13.5214 23.7159L13.7534 23.72V22.9284H13.091C12.7587 22.9284 12.5149 22.918 12.3351 22.8956C12.1523 22.8727 12.0563 22.8396 12.0049 22.8083C11.9657 22.7843 11.9482 22.7596 11.9356 22.7139C11.919 22.6537 11.9148 22.5696 11.9148 22.4294V14.2253C11.9148 14.1399 11.9149 14.0743 11.9188 14.0185C11.9227 13.9627 11.9297 13.9309 11.937 13.9121C11.9426 13.8975 11.9474 13.8927 11.953 13.8885C11.9604 13.8829 11.9784 13.8722 12.0178 13.8621H12.8796C13.4945 13.8621 13.9542 13.8895 14.3046 13.9644C14.6511 14.0384 14.8748 14.1556 15.0338 14.3249C15.1952 14.4968 15.3105 14.7442 15.397 15.1188C15.4698 15.4338 15.519 15.8235 15.5638 16.3098H14.7336V17.1474H14.9454C15.2338 17.1474 15.4523 17.1475 15.6226 17.1576C15.7963 17.1679 15.8937 17.1878 15.9508 17.2135C15.9931 17.2324 16.0114 17.2525 16.0268 17.2945C16.0479 17.352 16.0602 17.4466 16.0602 17.613V25.7466C16.0602 25.9132 16.0481 26.0078 16.027 26.0655C16.0116 26.1074 15.9935 26.1273 15.9516 26.1461C15.8947 26.1717 15.7975 26.1917 15.6236 26.202C15.4532 26.2121 15.2344 26.2122 14.9454 26.2122H14.7336V27H23.3475V26.7882H23.3476L23.8192 23.6926C23.8723 23.6926 23.9231 23.6926 23.9707 23.6926C24.4101 23.6926 25.1597 23.6927 25.5525 23.7207L25.7794 23.7368V22.9517L25.5866 22.9343C25.3786 22.9155 25.2723 22.8469 25.2169 22.7842C25.1594 22.7192 25.1353 22.6366 25.1353 22.5555C25.1353 22.4343 25.1762 22.3753 25.2526 22.2748L27.6659 18.9871L30.3039 22.6068L30.3067 22.6104C30.3609 22.6815 30.3816 22.7178 30.3891 22.7337C30.3888 22.7342 30.3886 22.7349 30.3882 22.7356C30.377 22.7602 30.3078 22.9129 29.8806 22.9363L29.6803 22.9472V23.7358L29.9039 23.7234C30.4138 23.6951 31.1966 23.695 31.7309 23.695C32.1531 23.695 32.9501 23.6952 33.3322 23.7231L33.5596 23.7398V22.9359H33.3477C32.8244 22.9359 32.561 22.9156 32.3897 22.8572C32.2413 22.8066 32.1524 22.7244 31.999 22.5211L31.8299 22.6487L28.28 17.8009L28.4501 17.9269L30.8377 14.7047L30.8384 14.7038C30.9564 14.5476 31.1189 14.3327 31.4017 14.1504C31.6829 13.9691 32.0963 13.8123 32.722 13.8046L32.9312 13.802Z" fill="#464646"/>
<path d="M32.9319 13H33.0819V12.8379L32.9203 12.8504L32.9319 13ZM32.9319 13.802L32.9337 13.9519L33.0819 13.9501V13.802H32.9319ZM32.7037 13.0177L32.7152 13.1672L32.7037 13.0177ZM29.7678 13.0176L29.7785 12.868L29.7678 13.0176ZM29.5409 13.0014L29.5516 12.8518L29.3909 12.8404V13.0014H29.5409ZM29.5409 13.7871H29.3909V13.9246L29.5279 13.9366L29.5409 13.7871ZM29.7343 13.804L29.7474 13.6546L29.7343 13.804ZM30.1085 13.9523L30.2219 13.8541L30.1085 13.9523ZM30.035 14.5055L29.9159 14.4144L29.9144 14.4164L30.035 14.5055ZM28.0726 17.1625L27.9516 17.2511L28.0721 17.4158L28.1933 17.2517L28.0726 17.1625ZM25.8561 14.134L25.732 14.2185L25.735 14.2226L25.8561 14.134ZM25.771 13.9975L25.6376 13.9288L25.6029 13.9963L25.6366 14.0642L25.771 13.9975ZM26.2714 13.8045L26.2674 13.6545L26.2714 13.8045ZM26.4776 13.799L26.4816 13.949L26.6276 13.9451V13.799H26.4776ZM26.4776 13.005H26.6276V12.8464L26.4693 12.8552L26.4776 13.005ZM26.254 13.0174L26.2623 13.1672L26.254 13.0174ZM22.8276 13.0176L22.8167 13.1672L22.8276 13.0176ZM22.6003 13.0009L22.6113 12.8513L22.4503 12.8395V13.0009H22.6003ZM22.6003 13.8048H22.4503V13.9548H22.6003V13.8048ZM23.7185 13.8705L23.7604 13.7264L23.7185 13.8705ZM24.1758 14.2187L24.2971 14.1303L24.2951 14.1277L24.1758 14.2187ZM27.1978 18.3618L27.3188 18.4505L27.3837 18.3621L27.319 18.2734L27.1978 18.3618ZM24.4811 22.0665L24.6016 22.1557L24.602 22.1552L24.4811 22.0665ZM23.5636 22.7671V22.9171H23.5917L23.6179 22.9069L23.5636 22.7671ZM23.4574 22.7671V22.6171H23.3293L23.3093 22.7437L23.4574 22.7671ZM23.451 22.8075L23.498 22.95L23.5849 22.9213L23.5992 22.8309L23.451 22.8075ZM22.3891 22.9334V22.7834H22.2391V22.9334H22.3891ZM22.3891 23.7383H22.2391V23.9004L22.4007 23.8879L22.3891 23.7383ZM22.6174 23.7206L22.629 23.8701L22.6174 23.7206ZM23.305 23.6958L23.4526 23.7224L23.4849 23.5434L23.3029 23.5458L23.305 23.6958ZM23.152 24.4064L23.297 24.4449L23.152 24.4064ZM22.7018 25.4121L22.8204 25.504L22.7018 25.4121ZM17.6512 26.1995L17.6753 26.0514L17.6512 26.1995ZM17.5777 26.181L17.6343 26.0421L17.5777 26.181ZM17.5644 26.1745L17.481 26.2992L17.485 26.3017L17.5644 26.1745ZM17.5625 26.1732L17.468 26.2905L17.4791 26.2979L17.5625 26.1732ZM17.5612 26.1721L17.4443 26.2661L17.4545 26.2788L17.4671 26.289L17.5612 26.1721ZM17.5605 26.1712L17.4364 26.2563L17.4435 26.2652L17.5605 26.1712ZM17.557 26.1646L17.4197 26.2251L17.557 26.1646ZM17.5434 26.1119L17.6915 26.088L17.5434 26.1119ZM17.5313 21.8331V21.6831H17.3813V21.8331H17.5313ZM20.0812 22.1714L20.1993 22.0789L20.0812 22.1714ZM20.2554 22.6318L20.4034 22.6075L20.2554 22.6318ZM20.2991 23.6261H20.1491V23.7761H20.2991V23.6261ZM20.9823 23.6261V23.7761H21.1323V23.6261H20.9823ZM20.9823 19.2817H21.1323V19.1317H20.9823V19.2817ZM20.2991 19.2817V19.1317H20.1491V19.2817H20.2991ZM20.2555 20.2615L20.1075 20.2367L20.2555 20.2615ZM20.0822 20.7113L20.1995 20.8049L20.0822 20.7113ZM17.531 21.0436H17.381V21.1936H17.531V21.0436ZM17.5431 17.2487L17.6911 17.2731L17.5431 17.2487ZM17.5562 17.1983L17.6931 17.2597L17.5562 17.1983ZM17.5599 17.1918L17.4573 17.0824L17.4459 17.0931L17.4369 17.1059L17.5599 17.1918ZM17.5632 17.1895L17.6418 17.3172L17.5632 17.1895ZM17.5767 17.1829L17.5207 17.0438L17.5767 17.1829ZM17.6508 17.1645L17.6269 17.0164L17.6508 17.1645ZM22.4013 17.7862L22.2875 17.8839L22.4013 17.7862ZM23.0072 19.879L22.8581 19.8959L23.0072 19.879ZM23.0285 20.0669L22.8795 20.0839L22.8946 20.2169H23.0285V20.0669ZM23.7466 20.0669V20.2169H23.915L23.8956 20.0496L23.7466 20.0669ZM23.31 16.3098L23.459 16.2925L23.4436 16.1598H23.31V16.3098ZM16.0699 16.3098L15.9204 16.3217L15.9314 16.4598H16.0699V16.3098ZM15.8264 13.2508H15.676L15.6769 13.2627L15.8264 13.2508ZM15.8264 13.0385H15.9764V12.8885H15.8264V13.0385ZM6.30785 13.0385V12.8885H6.16961L6.15835 13.0262L6.30785 13.0385ZM6.00066 16.7954L5.85116 16.7832L5.83789 16.9454H6.00066V16.7954ZM6.7156 16.7954V16.9454H6.85358L6.86507 16.8079L6.7156 16.7954ZM6.73183 16.6012L6.88131 16.6137L6.73183 16.6012ZM6.92283 15.1193L7.06903 15.1529L6.92283 15.1193ZM7.2853 14.3257L7.17605 14.223L7.2853 14.3257ZM8.01997 13.9645L8.05111 14.1113L8.01997 13.9645ZM10.3373 13.8618L10.3629 13.714L10.3502 13.7118H10.3373V13.8618ZM10.4146 13.8863L10.4979 13.7616L10.4146 13.8863ZM10.4275 13.9042L10.2885 13.9607L10.4275 13.9042ZM10.4462 14.0105L10.2965 14.0213L10.4462 14.0105ZM10.4294 22.7131L10.285 22.6726L10.4294 22.7131ZM10.3586 22.8076L10.436 22.9361L10.3586 22.8076ZM10.0214 22.8955L10.0397 23.0444L10.0214 22.8955ZM8.58316 22.9284V22.7784H8.43316V22.9284H8.58316ZM8.58316 23.72H8.43316V23.8728L8.58586 23.87L8.58316 23.72ZM8.82361 23.7157L8.82631 23.8657L8.82812 23.8656L8.82361 23.7157ZM8.8237 23.7157L8.821 23.5657L8.8192 23.5658L8.8237 23.7157ZM13.5221 23.7159L13.5248 23.5659L13.5221 23.7159ZM13.7541 23.72L13.7514 23.87L13.9041 23.8728V23.72H13.7541ZM13.7541 22.9284H13.9041V22.7784H13.7541V22.9284ZM12.3358 22.8956L12.3172 23.0444L12.3358 22.8956ZM12.0056 22.8083L12.0838 22.6803L12.0056 22.8083ZM11.9363 22.7139L11.7917 22.7538L11.9363 22.7139ZM11.9195 14.0185L11.7699 14.008L11.9195 14.0185ZM11.9377 13.9121L12.0777 13.9659L11.9377 13.9121ZM11.9537 13.8885L12.044 14.0083L11.9537 13.8885ZM12.0185 13.8621V13.7121H11.9995L11.9812 13.7168L12.0185 13.8621ZM14.3053 13.9644L14.3366 13.8177L14.3053 13.9644ZM15.0345 14.3249L14.9251 14.4276L15.0345 14.3249ZM15.3977 15.1188L15.5439 15.0851L15.3977 15.1188ZM15.5645 16.3098V16.4598H15.7289L15.7139 16.296L15.5645 16.3098ZM14.7343 16.3098V16.1598H14.5843V16.3098H14.7343ZM14.7343 17.1474H14.5843V17.2974H14.7343V17.1474ZM15.6233 17.1576L15.6144 17.3073L15.6233 17.1576ZM15.9515 17.2135L16.013 17.0766L15.9515 17.2135ZM16.0275 17.2945L15.8867 17.3462L16.0275 17.2945ZM16.0277 26.0655L16.1685 26.117H16.1686L16.0277 26.0655ZM15.9523 26.1461L15.8908 26.0093L15.9523 26.1461ZM15.6243 26.202L15.6154 26.0523L15.6243 26.202ZM14.7343 26.2122V26.0622H14.5843V26.2122H14.7343ZM14.7343 27H14.5843V27.15H14.7343V27ZM23.3482 27V27.15H23.4982V27H23.3482ZM23.3482 26.7882V26.6382H23.1982V26.7882H23.3482ZM23.3483 26.7882V26.9382H23.4772L23.4966 26.8108L23.3483 26.7882ZM23.8199 23.6926L23.8197 23.5426L23.691 23.5427L23.6716 23.67L23.8199 23.6926ZM25.5532 23.7207L25.5639 23.5711L25.5532 23.7207ZM25.7801 23.7368L25.7694 23.8865L25.9301 23.8979V23.7368H25.7801ZM25.7801 22.9517H25.9301V22.8146L25.7936 22.8023L25.7801 22.9517ZM25.5873 22.9343L25.5738 23.0837L25.5873 22.9343ZM25.2176 22.7842L25.1052 22.8836L25.2176 22.7842ZM25.2533 22.2748L25.3727 22.3656L25.3742 22.3636L25.2533 22.2748ZM27.6666 18.9871L27.7878 18.8988L27.667 18.7331L27.5456 18.8984L27.6666 18.9871ZM30.3046 22.6068L30.1834 22.6952L30.1854 22.6978L30.3046 22.6068ZM30.3074 22.6104L30.4267 22.5195L30.3074 22.6104ZM30.3898 22.7337L30.5254 22.7979L30.5557 22.7338L30.5254 22.6697L30.3898 22.7337ZM30.3889 22.7356L30.2524 22.6734L30.2523 22.6736L30.3889 22.7356ZM29.8813 22.9363L29.8731 22.7865L29.8813 22.9363ZM29.681 22.9472L29.6728 22.7974L29.531 22.8052V22.9472H29.681ZM29.681 23.7358H29.531V23.8943L29.6893 23.8855L29.681 23.7358ZM29.9046 23.7234L29.9129 23.8731L29.9046 23.7234ZM33.3329 23.7231L33.3439 23.5735L33.3329 23.7231ZM33.5603 23.7398L33.5493 23.8894L33.7103 23.9011V23.7398H33.5603ZM33.5603 22.9359H33.7103V22.7859H33.5603V22.9359ZM32.3904 22.8572L32.342 22.9992L32.3904 22.8572ZM31.9997 22.5211L32.1195 22.4308L32.0291 22.311L31.9094 22.4014L31.9997 22.5211ZM31.8306 22.6487L31.7096 22.7373L31.7995 22.8601L31.921 22.7684L31.8306 22.6487ZM28.2807 17.8009L28.3701 17.6804L28.1597 17.8895L28.2807 17.8009ZM28.4508 17.9269L28.3615 18.0474L28.482 18.1367L28.5713 18.0162L28.4508 17.9269ZM30.8384 14.7047L30.7188 14.6142L30.7179 14.6154L30.8384 14.7047ZM30.8391 14.7038L30.9587 14.7943H30.9588L30.8391 14.7038ZM31.4024 14.1504L31.3211 14.0243L31.4024 14.1504ZM32.7227 13.8046L32.7208 13.6546L32.7227 13.8046ZM32.7819 13V13.802H33.0819V13H32.7819ZM32.7152 13.1672L32.9435 13.1496L32.9203 12.8504L32.6921 12.8681L32.7152 13.1672ZM31.3496 13.1957C31.7379 13.1957 32.3485 13.1957 32.7152 13.1672L32.6921 12.8681C32.3397 12.8955 31.7429 12.8957 31.3496 12.8957V13.1957ZM29.7571 13.1672C30.1567 13.1957 30.8166 13.1957 31.3496 13.1957V12.8957C30.8115 12.8957 30.1647 12.8955 29.7785 12.868L29.7571 13.1672ZM29.5302 13.151L29.7571 13.1672L29.7785 12.868L29.5516 12.8518L29.5302 13.151ZM29.6909 13.7871V13.0014H29.3909V13.7871H29.6909ZM29.7474 13.6546L29.5539 13.6377L29.5279 13.9366L29.7213 13.9535L29.7474 13.6546ZM30.2219 13.8541C30.1387 13.7579 29.9944 13.6761 29.7474 13.6546L29.7213 13.9535C29.9111 13.97 29.9749 14.0271 29.995 14.0504L30.2219 13.8541ZM30.335 14.1828C30.335 14.0712 30.3058 13.9511 30.2219 13.8541L29.995 14.0504C30.019 14.0781 30.035 14.121 30.035 14.1828H30.335ZM30.1542 14.5967C30.2675 14.4485 30.335 14.3411 30.335 14.1828H30.035C30.035 14.2339 30.025 14.2718 29.9159 14.4144L30.1542 14.5967ZM28.1933 17.2517L30.1557 14.5947L29.9144 14.4164L27.952 17.0734L28.1933 17.2517ZM25.735 14.2226L27.9516 17.2511L28.1937 17.0739L25.9771 14.0454L25.735 14.2226ZM25.6366 14.0642C25.6527 14.0965 25.6812 14.1437 25.7321 14.2184L25.98 14.0495C25.931 13.9775 25.9119 13.944 25.9053 13.9307L25.6366 14.0642ZM26.2674 13.6545C26.0485 13.6604 25.9007 13.7046 25.8001 13.764C25.696 13.8255 25.6544 13.8963 25.6376 13.9288L25.9043 14.0661C25.9056 14.0637 25.9074 14.0599 25.9128 14.0538C25.9184 14.0472 25.9303 14.0355 25.9526 14.0223C25.9977 13.9957 26.092 13.9593 26.2754 13.9544L26.2674 13.6545ZM26.4736 13.6491L26.2674 13.6545L26.2754 13.9544L26.4816 13.949L26.4736 13.6491ZM26.3276 13.005V13.799H26.6276V13.005H26.3276ZM26.2623 13.1672L26.4859 13.1548L26.4693 12.8552L26.2457 12.8676L26.2623 13.1672ZM24.4271 13.1957C24.9598 13.1957 25.7474 13.1957 26.2623 13.1672L26.2457 12.8676C25.741 12.8956 24.963 12.8957 24.4271 12.8957V13.1957ZM22.8167 13.1672C23.2038 13.1957 24.0079 13.1957 24.4271 13.1957V12.8957C24.0018 12.8957 23.2119 12.8955 22.8386 12.868L22.8167 13.1672ZM22.5893 13.1505L22.8167 13.1672L22.8386 12.868L22.6113 12.8513L22.5893 13.1505ZM22.7503 13.8048V13.0009H22.4503V13.8048H22.7503ZM22.8121 13.6548H22.6003V13.9548H22.8121V13.6548ZM23.7604 13.7264C23.5425 13.6631 23.2575 13.6548 22.8121 13.6548V13.9548C23.2689 13.9548 23.5078 13.9654 23.6767 14.0145L23.7604 13.7264ZM24.2951 14.1277C24.1228 13.9021 23.9715 13.7878 23.7604 13.7264L23.6767 14.0145C23.8098 14.0532 23.9114 14.1196 24.0566 14.3098L24.2951 14.1277ZM27.319 18.2734L24.297 14.1303L24.0547 14.3071L27.0766 18.4502L27.319 18.2734ZM24.602 22.1552L27.3188 18.4505L27.0769 18.2731L24.3601 21.9778L24.602 22.1552ZM23.6179 22.9069C23.9539 22.7762 24.3107 22.5488 24.6016 22.1557L24.3605 21.9773C24.1085 22.3178 23.801 22.5138 23.5092 22.6273L23.6179 22.9069ZM23.4574 22.9171H23.5636V22.6171H23.4574V22.9171ZM23.5992 22.8309L23.6056 22.7906L23.3093 22.7437L23.3029 22.784L23.5992 22.8309ZM22.601 23.0834C22.7609 23.0834 23.1079 23.0784 23.498 22.95L23.4041 22.665C23.0601 22.7783 22.7515 22.7834 22.601 22.7834V23.0834ZM22.3891 23.0834H22.601V22.7834H22.3891V23.0834ZM22.5391 23.7383V22.9334H22.2391V23.7383H22.5391ZM22.6058 23.571L22.3775 23.5888L22.4007 23.8879L22.629 23.8701L22.6058 23.571ZM23.3029 23.5458C23.05 23.5492 22.7957 23.5563 22.6058 23.571L22.629 23.8701C22.8088 23.8562 23.0549 23.8492 23.307 23.8458L23.3029 23.5458ZM23.297 24.4449C23.3563 24.2217 23.406 23.9809 23.4526 23.7224L23.1573 23.6692C23.1115 23.9236 23.0634 24.1556 23.007 24.3679L23.297 24.4449ZM22.8204 25.504C23.039 25.2216 23.1843 24.8691 23.297 24.4449L23.007 24.3679C22.8995 24.7727 22.7674 25.0823 22.5832 25.3203L22.8204 25.504ZM20.2357 26.3667C21.6489 26.3667 22.3866 26.0642 22.8204 25.504L22.5832 25.3203C22.2345 25.7706 21.6151 26.0667 20.2357 26.0667V26.3667ZM17.9948 26.3667H20.2357V26.0667H17.9948V26.3667ZM17.6271 26.3475C17.7154 26.3619 17.8339 26.3667 17.9948 26.3667V26.0667C17.8349 26.0667 17.7376 26.0615 17.6753 26.0514L17.6271 26.3475ZM17.5211 26.3199C17.5488 26.3312 17.5834 26.3404 17.6271 26.3475L17.6753 26.0514C17.6611 26.0491 17.6509 26.0468 17.6441 26.0451C17.6372 26.0433 17.6343 26.0421 17.6343 26.0421L17.5211 26.3199ZM17.485 26.3017C17.4954 26.3082 17.5073 26.3143 17.5211 26.3199L17.6343 26.0421C17.6345 26.0422 17.6381 26.0437 17.6438 26.0472L17.485 26.3017ZM17.4791 26.2979L17.4811 26.2992L17.6478 26.0498L17.6459 26.0485L17.4791 26.2979ZM17.4671 26.289L17.4684 26.29L17.6565 26.0563L17.6553 26.0553L17.4671 26.289ZM17.4435 26.2652L17.4443 26.2661L17.6781 26.0782L17.6774 26.0772L17.4435 26.2652ZM17.4197 26.2251C17.4249 26.2368 17.4306 26.247 17.4368 26.2561L17.6841 26.0863C17.6893 26.0939 17.6925 26.1002 17.6942 26.1041L17.4197 26.2251ZM17.3954 26.1358C17.4013 26.1724 17.4093 26.2015 17.4197 26.2251L17.6942 26.1041C17.6958 26.1078 17.6959 26.1088 17.6952 26.1061C17.6945 26.1035 17.6931 26.0977 17.6915 26.088L17.3954 26.1358ZM17.3813 25.834C17.3813 25.9643 17.3833 26.0614 17.3954 26.1358L17.6915 26.088C17.684 26.0413 17.6813 25.9684 17.6813 25.834H17.3813ZM17.3813 21.8331V25.834H17.6813V21.8331H17.3813ZM18.8426 21.6831H17.5313V21.9831H18.8426V21.6831ZM20.1993 22.0789C19.9918 21.8142 19.6023 21.6831 18.8426 21.6831V21.9831C19.5925 21.9831 19.8491 22.1184 19.9631 22.264L20.1993 22.0789ZM20.4034 22.6075C20.3669 22.3854 20.3038 22.2123 20.1993 22.0789L19.9631 22.264C20.0251 22.343 20.0754 22.4616 20.1074 22.6561L20.4034 22.6075ZM20.4491 23.4143C20.4491 23.0967 20.44 22.8299 20.4034 22.6075L20.1074 22.6561C20.1397 22.8527 20.1491 23.0985 20.1491 23.4143H20.4491ZM20.4491 23.6261V23.4143H20.1491V23.6261H20.4491ZM20.9823 23.4761H20.2991V23.7761H20.9823V23.4761ZM20.8323 19.2817V23.6261H21.1323V19.2817H20.8323ZM20.2991 19.4317H20.9823V19.1317H20.2991V19.4317ZM20.4491 19.4935V19.2817H20.1491V19.4935H20.4491ZM20.4034 20.2862C20.4399 20.0678 20.4491 19.8058 20.4491 19.4935H20.1491C20.1491 19.8039 20.1396 20.0447 20.1075 20.2367L20.4034 20.2862ZM20.1995 20.8049C20.3039 20.674 20.3669 20.5042 20.4034 20.2862L20.1075 20.2367C20.0758 20.4266 20.026 20.5413 19.965 20.6178L20.1995 20.8049ZM18.8426 21.1936C19.6024 21.1936 19.9921 21.0648 20.1995 20.8049L19.965 20.6178C19.8514 20.7601 19.5939 20.8936 18.8426 20.8936V21.1936ZM17.531 21.1936H18.8426V20.8936H17.531V21.1936ZM17.381 17.5203V21.0436H17.681V17.5203H17.381ZM17.3951 17.2243C17.3831 17.2973 17.381 17.3925 17.381 17.5203H17.681C17.681 17.3883 17.6838 17.3178 17.6911 17.2731L17.3951 17.2243ZM17.4193 17.137C17.409 17.16 17.401 17.1885 17.3951 17.2243L17.6911 17.2731C17.6926 17.2638 17.6939 17.2586 17.6946 17.2564C17.6952 17.2541 17.6949 17.2556 17.6931 17.2597L17.4193 17.137ZM17.4369 17.1059C17.434 17.11 17.4264 17.1211 17.4193 17.137L17.6931 17.2597C17.6912 17.264 17.6891 17.2677 17.6873 17.2708C17.6864 17.2723 17.6855 17.2738 17.6847 17.275C17.6842 17.2757 17.6838 17.2763 17.6835 17.2768C17.6833 17.277 17.6832 17.2772 17.683 17.2774C17.6829 17.2776 17.6828 17.2777 17.6829 17.2777L17.4369 17.1059ZM17.4846 17.0617C17.4744 17.068 17.4653 17.0748 17.4573 17.0824L17.6625 17.3012C17.6612 17.3024 17.6594 17.3041 17.6571 17.306C17.6551 17.3077 17.6531 17.3093 17.6513 17.3107C17.6476 17.3135 17.6443 17.3156 17.6418 17.3172L17.4846 17.0617ZM17.5207 17.0438C17.5069 17.0493 17.4949 17.0553 17.4845 17.0617L17.6418 17.3172C17.6362 17.3207 17.6327 17.3221 17.6327 17.3221L17.5207 17.0438ZM17.6269 17.0164C17.5831 17.0235 17.5484 17.0326 17.5207 17.0438L17.6327 17.3221C17.6336 17.3217 17.6452 17.3173 17.6746 17.3126L17.6269 17.0164ZM17.9945 16.9974C17.8337 16.9974 17.7152 17.0022 17.6269 17.0164L17.6746 17.3126C17.7372 17.3025 17.8348 17.2974 17.9945 17.2974V16.9974ZM20.2021 16.9974H17.9945V17.2974H20.2021V16.9974ZM22.515 17.6884C22.1202 17.229 21.4469 16.9974 20.2021 16.9974V17.2974C21.425 17.2974 21.9817 17.5281 22.2875 17.8839L22.515 17.6884ZM23.1562 19.8621C23.0988 19.3568 23.0374 18.93 22.9426 18.5744C22.8477 18.2178 22.7169 17.9232 22.515 17.6884L22.2875 17.8839C22.4495 18.0723 22.5644 18.3198 22.6527 18.6516C22.7414 18.9843 22.8009 19.3922 22.8581 19.8959L23.1562 19.8621ZM23.1776 20.05L23.1562 19.8621L22.8581 19.8959L22.8795 20.0839L23.1776 20.05ZM23.7466 19.9169H23.0285V20.2169H23.7466V19.9169ZM23.161 16.3271L23.5976 20.0843L23.8956 20.0496L23.459 16.2925L23.161 16.3271ZM16.0699 16.4598H23.31V16.1598H16.0699V16.4598ZM15.6769 13.2627L15.9204 16.3217L16.2195 16.2979L15.976 13.2389L15.6769 13.2627ZM15.6764 13.0385V13.2508H15.9764V13.0385H15.6764ZM6.30785 13.1885H15.8264V12.8885H6.30785V13.1885ZM6.15016 16.8076L6.45735 13.0507L6.15835 13.0262L5.85116 16.7832L6.15016 16.8076ZM6.7156 16.6454H6.00066V16.9454H6.7156V16.6454ZM6.58236 16.5887L6.56612 16.7829L6.86507 16.8079L6.88131 16.6137L6.58236 16.5887ZM6.77664 15.0858C6.68776 15.473 6.63456 15.9644 6.58236 16.5887L6.88131 16.6137C6.93359 15.9884 6.98552 15.5168 7.06903 15.1529L6.77664 15.0858ZM7.17605 14.223C6.98851 14.4223 6.86543 14.6989 6.77664 15.0858L7.06903 15.1529C7.15213 14.7908 7.2587 14.5729 7.39455 14.4285L7.17605 14.223ZM7.98883 13.8178C7.6197 13.8961 7.36287 14.0244 7.17605 14.223L7.39455 14.4285C7.52632 14.2885 7.71977 14.1816 8.05111 14.1113L7.98883 13.8178ZM9.46263 13.7118C8.83746 13.7118 8.35904 13.7392 7.98883 13.8178L8.05111 14.1113C8.38901 14.0396 8.8412 14.0118 9.46263 14.0118V13.7118ZM10.3373 13.7118H9.46263V14.0118H10.3373V13.7118ZM10.4979 13.7616C10.4674 13.7412 10.4245 13.7247 10.3629 13.714L10.3118 14.0097C10.3289 14.0126 10.3377 14.0154 10.3404 14.0164C10.3432 14.0174 10.3392 14.0163 10.3314 14.0111L10.4979 13.7616ZM10.5664 13.8477C10.5614 13.8352 10.5529 13.8168 10.5382 13.7983C10.5212 13.777 10.5033 13.7652 10.4979 13.7616L10.3314 14.0111C10.332 14.0115 10.3274 14.0086 10.3219 14.004C10.3156 13.9987 10.3093 13.9925 10.3035 13.9852C10.2929 13.9719 10.2886 13.9608 10.2885 13.9607L10.5664 13.8477ZM10.5958 13.9997C10.5911 13.9358 10.5822 13.8864 10.5664 13.8477L10.2885 13.9607C10.2873 13.9577 10.2886 13.9598 10.2905 13.9702C10.2925 13.9804 10.2948 13.9967 10.2965 14.0213L10.5958 13.9997ZM10.6004 14.2251C10.6004 14.1378 10.6004 14.0637 10.5958 13.9997L10.2965 14.0213C10.3002 14.0722 10.3004 14.1344 10.3004 14.2251H10.6004ZM10.6004 22.4294V14.2251H10.3004V22.4294H10.6004ZM10.5738 22.7536C10.5971 22.6707 10.6004 22.5663 10.6004 22.4294H10.3004C10.3004 22.5731 10.2952 22.636 10.285 22.6726L10.5738 22.7536ZM10.436 22.9361C10.4678 22.9169 10.4992 22.8923 10.5252 22.8572C10.5508 22.8225 10.5647 22.7863 10.5738 22.7536L10.285 22.6726C10.2815 22.6849 10.2803 22.6837 10.2839 22.6789C10.2855 22.6767 10.287 22.6753 10.2874 22.675C10.2875 22.6749 10.2859 22.6762 10.2813 22.679L10.436 22.9361ZM10.0397 23.0444C10.2326 23.0207 10.356 22.9842 10.436 22.9361L10.2813 22.679C10.2555 22.6945 10.1823 22.7246 10.0031 22.7467L10.0397 23.0444ZM9.25335 23.0784C9.59259 23.0784 9.84766 23.068 10.0397 23.0444L10.0031 22.7467C9.82946 22.768 9.58894 22.7784 9.25335 22.7784V23.0784ZM8.58316 23.0784H9.25335V22.7784H8.58316V23.0784ZM8.73316 23.72V22.9284H8.43316V23.72H8.73316ZM8.82091 23.5657L8.58045 23.5701L8.58586 23.87L8.82631 23.8657L8.82091 23.5657ZM8.8192 23.5658H8.8191L8.82812 23.8656H8.82821L8.8192 23.5658ZM11.1689 23.5375C10.386 23.5375 9.58814 23.5519 8.821 23.5657L8.82641 23.8657C9.59401 23.8519 10.3892 23.8375 11.1689 23.8375V23.5375ZM13.5248 23.5659C12.7555 23.552 11.9523 23.5375 11.1689 23.5375V23.8375C11.9492 23.8375 12.7497 23.852 13.5194 23.8658L13.5248 23.5659ZM13.7568 23.5701L13.5248 23.5659L13.5194 23.8658L13.7514 23.87L13.7568 23.5701ZM13.6041 22.9284V23.72H13.9041V22.9284H13.6041ZM13.0917 23.0784H13.7541V22.7784H13.0917V23.0784ZM12.3172 23.0444C12.5063 23.068 12.7575 23.0784 13.0917 23.0784V22.7784C12.7612 22.7784 12.5248 22.768 12.3544 22.7467L12.3172 23.0444ZM11.9275 22.9363C12.0061 22.9843 12.1274 23.0207 12.3172 23.0444L12.3544 22.7467C12.1786 22.7248 12.1079 22.6949 12.0838 22.6803L11.9275 22.9363ZM11.7917 22.7538C11.8008 22.7868 11.8146 22.823 11.8397 22.8575C11.8653 22.8927 11.8963 22.9173 11.9275 22.9363L12.0838 22.6803C12.0795 22.6776 12.0782 22.6764 12.0785 22.6767C12.0791 22.6772 12.0806 22.6787 12.0822 22.6809C12.0857 22.6857 12.0844 22.6866 12.0809 22.6739L11.7917 22.7538ZM11.7655 22.4294C11.7655 22.5663 11.7688 22.6708 11.7917 22.7538L12.0809 22.6739C12.0706 22.6365 12.0655 22.573 12.0655 22.4294H11.7655ZM11.7655 14.2253V22.4294H12.0655V14.2253H11.7655ZM11.7699 14.008C11.7655 14.0701 11.7655 14.1415 11.7655 14.2253H12.0655C12.0655 14.1383 12.0656 14.0785 12.0691 14.029L11.7699 14.008ZM11.7977 13.8582C11.7827 13.8973 11.7742 13.946 11.7699 14.008L12.0691 14.029C12.0726 13.9794 12.0782 13.9646 12.0777 13.9659L11.7977 13.8582ZM11.8635 13.7687C11.8539 13.7759 11.839 13.7882 11.8247 13.8077C11.8117 13.8254 11.8034 13.8433 11.7977 13.8582L12.0777 13.9659C12.0775 13.9663 12.0744 13.9745 12.0667 13.9851C12.0626 13.9906 12.0581 13.9957 12.0534 14.0002C12.0489 14.0045 12.0452 14.0074 12.044 14.0083L11.8635 13.7687ZM11.9812 13.7168C11.9284 13.7303 11.8908 13.7481 11.8635 13.7687L12.044 14.0083C12.0314 14.0177 12.0298 14.014 12.0557 14.0074L11.9812 13.7168ZM12.8803 13.7121H12.0185V14.0121H12.8803V13.7121ZM14.3366 13.8177C13.97 13.7393 13.4971 13.7121 12.8803 13.7121V14.0121C13.4933 14.0121 13.9398 14.0396 14.2739 14.1111L14.3366 13.8177ZM15.1438 14.2222C14.9575 14.0238 14.7022 13.8958 14.3366 13.8177L14.2739 14.1111C14.6014 14.181 14.7936 14.2875 14.9251 14.4276L15.1438 14.2222ZM15.5439 15.0851C15.4545 14.698 15.3309 14.4215 15.1438 14.2222L14.9251 14.4276C15.0609 14.5722 15.1679 14.7905 15.2516 15.1526L15.5439 15.0851ZM15.7139 16.296C15.669 15.8085 15.6191 15.4104 15.5439 15.0851L15.2516 15.1526C15.322 15.4572 15.3705 15.8384 15.4151 16.3235L15.7139 16.296ZM14.7343 16.4598H15.5645V16.1598H14.7343V16.4598ZM14.8843 17.1474V16.3098H14.5843V17.1474H14.8843ZM14.9461 16.9974H14.7343V17.2974H14.9461V16.9974ZM15.6322 17.0078C15.4564 16.9974 15.2327 16.9974 14.9461 16.9974V17.2974C15.2363 17.2974 15.4496 17.2975 15.6144 17.3073L15.6322 17.0078ZM16.013 17.0766C15.9294 17.0391 15.8087 17.0183 15.6322 17.0078L15.6144 17.3073C15.7853 17.3175 15.8594 17.3365 15.8901 17.3503L16.013 17.0766ZM16.1682 17.2427C16.1567 17.2112 16.1396 17.1756 16.1093 17.1431C16.0791 17.1107 16.0445 17.0908 16.013 17.0766L15.8901 17.3503C15.9008 17.3551 15.8965 17.3548 15.8898 17.3476C15.8867 17.3443 15.8849 17.3415 15.8843 17.3403C15.8839 17.3395 15.8847 17.3409 15.8867 17.3462L16.1682 17.2427ZM16.2109 17.613C16.2109 17.4447 16.1993 17.3271 16.1682 17.2427L15.8867 17.3462C15.898 17.377 15.9109 17.4484 15.9109 17.613H16.2109ZM16.2109 25.7466V17.613H15.9109V25.7466H16.2109ZM16.1686 26.117C16.1994 26.0326 16.2109 25.9149 16.2109 25.7466H15.9109C15.9109 25.9115 15.8981 25.983 15.8868 26.0139L16.1686 26.117ZM16.0138 26.283C16.0452 26.2689 16.0797 26.249 16.1098 26.2166C16.1401 26.1841 16.1571 26.1484 16.1685 26.117L15.8868 26.0139C15.8849 26.0193 15.884 26.0206 15.8844 26.0198C15.8851 26.0187 15.8869 26.0157 15.8901 26.0124C15.8969 26.005 15.9014 26.0046 15.8908 26.0093L16.0138 26.283ZM15.6332 26.3517C15.8098 26.3412 15.9304 26.3205 16.0138 26.283L15.8908 26.0093C15.8603 26.023 15.7865 26.0421 15.6154 26.0523L15.6332 26.3517ZM14.9461 26.3622C15.2333 26.3622 15.4573 26.3622 15.6332 26.3517L15.6154 26.0523C15.4505 26.0621 15.2369 26.0622 14.9461 26.0622V26.3622ZM14.7343 26.3622H14.9461V26.0622H14.7343V26.3622ZM14.8843 27V26.2122H14.5843V27H14.8843ZM23.3482 26.85H14.7343V27.15H23.3482V26.85ZM23.1982 26.7882V27H23.4982V26.7882H23.1982ZM23.3483 26.6382H23.3482V26.9382H23.3483V26.6382ZM23.6716 23.67L23.2 26.7656L23.4966 26.8108L23.9682 23.7152L23.6716 23.67ZM23.9714 23.5426C23.9238 23.5426 23.8729 23.5426 23.8197 23.5426L23.82 23.8426C23.8731 23.8426 23.9238 23.8426 23.9714 23.8426V23.5426ZM25.5639 23.5711C25.1643 23.5426 24.4082 23.5426 23.9714 23.5426V23.8426C24.4135 23.8426 25.1564 23.8428 25.5425 23.8703L25.5639 23.5711ZM25.7908 23.5872L25.5639 23.5711L25.5425 23.8703L25.7694 23.8865L25.7908 23.5872ZM25.6301 22.9517V23.7368H25.9301V22.9517H25.6301ZM25.5738 23.0837L25.7666 23.1011L25.7936 22.8023L25.6008 22.7849L25.5738 23.0837ZM25.1052 22.8836C25.1911 22.9807 25.3361 23.0622 25.5738 23.0837L25.6008 22.7849C25.4225 22.7688 25.3549 22.713 25.3299 22.6848L25.1052 22.8836ZM24.986 22.5555C24.986 22.6654 25.0188 22.7859 25.1052 22.8836L25.3299 22.6848C25.3014 22.6526 25.286 22.6078 25.286 22.5555H24.986ZM25.1338 22.1841C25.097 22.2326 25.0576 22.2847 25.03 22.3441C24.9999 22.4086 24.986 22.4757 24.986 22.5555H25.286C25.286 22.5141 25.2925 22.4911 25.302 22.4707C25.3139 22.4451 25.3332 22.4176 25.3727 22.3656L25.1338 22.1841ZM27.5456 18.8984L25.1323 22.1861L25.3742 22.3636L27.7875 19.0759L27.5456 18.8984ZM30.4259 22.5185L27.7878 18.8988L27.5453 19.0755L30.1834 22.6952L30.4259 22.5185ZM30.4267 22.5195L30.4239 22.5159L30.1854 22.6978L30.1881 22.7014L30.4267 22.5195ZM30.5254 22.6697C30.5114 22.64 30.4835 22.5941 30.4267 22.5195L30.1881 22.7014C30.2134 22.7345 30.2297 22.7582 30.2401 22.7741C30.2452 22.7821 30.2487 22.788 30.251 22.792C30.2533 22.796 30.2542 22.7978 30.2542 22.7978L30.5254 22.6697ZM30.5255 22.7977L30.5254 22.7979L30.2542 22.6696C30.2533 22.6714 30.2524 22.6734 30.2524 22.6734L30.5255 22.7977ZM29.8895 23.086C30.1193 23.0735 30.2698 23.0254 30.3695 22.9643C30.474 22.9003 30.5114 22.8288 30.5255 22.7975L30.2523 22.6736C30.252 22.6744 30.2518 22.6755 30.2485 22.6795C30.2448 22.6841 30.2347 22.6951 30.2128 22.7085C30.1682 22.7358 30.0705 22.7757 29.8731 22.7865L29.8895 23.086ZM29.6892 23.097L29.8895 23.086L29.8731 22.7865L29.6728 22.7974L29.6892 23.097ZM29.831 23.7358V22.9472H29.531V23.7358H29.831ZM29.8963 23.5736L29.6727 23.586L29.6893 23.8855L29.9129 23.8731L29.8963 23.5736ZM31.7316 23.545C31.1989 23.545 30.4113 23.5451 29.8963 23.5736L29.9129 23.8731C30.4177 23.8452 31.1957 23.845 31.7316 23.845V23.545ZM33.3439 23.5735C32.9549 23.5451 32.1508 23.545 31.7316 23.545V23.845C32.1567 23.845 32.9468 23.8453 33.322 23.8727L33.3439 23.5735ZM33.5712 23.5902L33.3439 23.5735L33.322 23.8727L33.5493 23.8894L33.5712 23.5902ZM33.4103 22.9359V23.7398H33.7103V22.9359H33.4103ZM33.3484 23.0859H33.5603V22.7859H33.3484V23.0859ZM32.342 22.9992C32.5408 23.067 32.8297 23.0859 33.3484 23.0859V22.7859C32.8204 22.7859 32.5825 22.7642 32.4388 22.7152L32.342 22.9992ZM31.88 22.6114C32.0383 22.8213 32.1499 22.9337 32.342 22.9992L32.4388 22.7152C32.3341 22.6796 32.2679 22.6275 32.1195 22.4308L31.88 22.6114ZM31.921 22.7684L32.0901 22.6409L31.9094 22.4014L31.7403 22.5289L31.921 22.7684ZM28.1597 17.8895L31.7096 22.7373L31.9517 22.5601L28.4018 17.7123L28.1597 17.8895ZM28.5401 17.8064L28.3701 17.6804L28.1914 17.9214L28.3615 18.0474L28.5401 17.8064ZM30.7179 14.6154L28.3303 17.8376L28.5713 18.0162L30.959 14.794L30.7179 14.6154ZM30.7195 14.6133L30.7188 14.6142L30.9581 14.7952L30.9587 14.7943L30.7195 14.6133ZM31.3211 14.0243C31.0144 14.2221 30.8385 14.4558 30.7194 14.6134L30.9588 14.7943C31.0757 14.6395 31.2248 14.4434 31.4837 14.2765L31.3211 14.0243ZM32.7208 13.6546C32.0691 13.6627 31.6278 13.8266 31.3211 14.0243L31.4837 14.2765C31.7394 14.1116 32.1249 13.962 32.7245 13.9545L32.7208 13.6546ZM32.93 13.652L32.7208 13.6546L32.7245 13.9545L32.9337 13.9519L32.93 13.652Z" fill="#464646"/>
</svg>