<svg width="40" height="40" viewBox="0 0 40 40" fill="none" xmlns="http://www.w3.org/2000/svg">
<path fill-rule="evenodd" clip-rule="evenodd" d="M8 20C8 13.3728 13.3728 8 20 8C26.6272 8 32 13.3728 32 20C32 26.6272 26.6272 32 20 32H9.73813C9.09688 32 8.77531 31.2247 9.22906 30.7709L11.5147 28.4853C9.34344 26.3141 8 23.3141 8 20ZM24.3875 15.1981C23.4416 15.1981 22.6494 14.5409 22.4413 13.6587V13.6606C21.2938 13.8228 20.4088 14.8109 20.4088 16.0015V16.009C22.1853 16.0756 23.8091 16.5762 25.0953 17.3722C25.5678 17.0084 26.1594 16.7919 26.8016 16.7919C28.3494 16.7919 29.6038 18.0462 29.6038 19.594C29.6038 20.7106 28.9494 21.6753 28.0035 22.1253C27.9153 25.3812 24.366 28.0006 20.0057 28.0006C15.6453 28.0006 12.1007 25.384 12.0078 22.1309C11.0544 21.6837 10.3944 20.7162 10.3944 19.5931C10.3944 18.0453 11.6488 16.7909 13.1966 16.7909C13.8416 16.7909 14.436 17.0094 14.9094 17.3759C16.1844 16.5856 17.7903 16.085 19.5491 16.0109V16.0006C19.5491 14.3384 20.8119 12.9669 22.4291 12.7934C22.6166 11.8831 23.4219 11.1987 24.3875 11.1987C25.4919 11.1987 26.3872 12.094 26.3872 13.1984C26.3872 14.3028 25.4919 15.1981 24.3875 15.1981ZM16.3035 19.5753C15.5188 19.5753 14.8438 20.3553 14.7969 21.3715C14.75 22.3878 15.4372 22.8012 16.2228 22.8012C17.0085 22.8012 17.5944 22.4319 17.6413 21.4156C17.6882 20.3994 17.0882 19.5753 16.3035 19.5753ZM25.2153 21.3715C25.1694 20.3553 24.4944 19.5753 23.7088 19.5753C22.9232 19.5753 22.3241 20.3994 22.371 21.4156C22.4178 22.4328 23.0047 22.8012 23.7894 22.8012C24.5741 22.8012 25.2622 22.3878 25.2153 21.3715ZM22.9588 24.0275C23.016 23.8906 22.9222 23.7378 22.775 23.7228C21.9116 23.6356 20.9797 23.5878 20.0057 23.5878C19.0316 23.5878 18.0988 23.6356 17.2363 23.7228C17.0891 23.7378 16.9953 23.8906 17.0525 24.0275C17.5363 25.1815 18.6753 25.9925 20.0057 25.9925C21.336 25.9925 22.476 25.1815 22.9588 24.0275Z" fill="#464646"/>
</svg>