<svg width="40" height="40" viewBox="0 0 40 40" fill="none" xmlns="http://www.w3.org/2000/svg">
<path d="M34.9982 22.6743C34.9361 24.8478 33.0514 26.5089 30.8904 26.5089H21.0072C20.554 26.5055 20.1889 26.1362 20.1906 25.683V15.0485C20.1717 14.671 20.3897 14.3217 20.7371 14.1729C20.7371 14.1729 21.6437 13.5518 23.5564 13.5518C24.7312 13.5477 25.8851 13.8632 26.8943 14.4647C28.4838 15.395 29.6102 16.9494 29.9992 18.7496C30.3402 18.6508 30.6937 18.6016 31.0487 18.6037C32.1172 18.604 33.1401 19.037 33.8842 19.8039C34.6282 20.5708 35.0301 21.6062 34.9982 22.6743ZM18.9548 15.7254C19.2529 19.3302 19.4703 22.6184 18.9548 26.2171C18.9548 26.3937 18.8116 26.5369 18.635 26.5369C18.4584 26.5369 18.3152 26.3937 18.3152 26.2171C17.837 22.6526 18.0482 19.2992 18.3152 15.7254C18.3152 15.5487 18.4584 15.4056 18.635 15.4056C18.8116 15.4056 18.9548 15.5487 18.9548 15.7254ZM16.9614 16.9674C17.3061 20.1841 17.4086 23.0003 16.9552 26.2295C16.9325 26.3956 16.7906 26.5193 16.623 26.5193C16.4554 26.5193 16.3135 26.3956 16.2908 26.2295C15.8902 23.0469 15.9803 20.1562 16.2908 16.9674C16.2908 16.7822 16.4409 16.632 16.6261 16.632C16.8113 16.632 16.9614 16.7822 16.9614 16.9674ZM14.9525 16.6569C15.2785 19.9543 15.4245 22.9134 14.9525 26.2202C14.9525 26.3977 14.8086 26.5415 14.6312 26.5415C14.4537 26.5415 14.3098 26.3977 14.3098 26.2202C13.8502 22.9662 13.9993 19.9171 14.3098 16.6569C14.3098 16.4794 14.4537 16.3355 14.6312 16.3355C14.8086 16.3355 14.9525 16.4794 14.9525 16.6569ZM12.9622 17.5883C13.355 20.4576 13.3519 23.3673 12.9529 26.2357C12.9365 26.4043 12.7947 26.5329 12.6253 26.5329C12.4559 26.5329 12.3142 26.4043 12.2978 26.2357C11.9283 23.3651 11.9283 20.459 12.2978 17.5883C12.2978 17.4049 12.4465 17.2561 12.63 17.2561C12.8135 17.2561 12.9622 17.4049 12.9622 17.5883ZM10.944 19.7277C11.4532 21.985 11.2203 23.9629 10.9098 26.2481C10.9098 26.4196 10.7708 26.5586 10.5993 26.5586C10.4279 26.5586 10.2888 26.4196 10.2888 26.2481C10.0342 24.0001 9.80758 21.9539 10.2888 19.7277C10.3053 19.5591 10.447 19.4305 10.6164 19.4305C10.7858 19.4305 10.9276 19.5591 10.944 19.7277ZM8.94439 19.3985C9.41324 21.6931 9.258 23.643 8.93198 25.9469C8.90093 26.2854 8.31098 26.2885 8.27993 25.9469C7.98496 23.6741 7.86076 21.6621 8.26751 19.3985C8.2905 19.2292 8.43507 19.103 8.60595 19.103C8.77682 19.103 8.9214 19.2292 8.94439 19.3985ZM6.92926 20.5008C7.41364 22.0347 7.23976 23.2736 6.89822 24.8229C6.89822 24.9944 6.7592 25.1334 6.58772 25.1334C6.41623 25.1334 6.27722 24.9944 6.27722 24.8229C5.98535 23.2953 5.84873 22.0254 6.24927 20.5008C6.26604 20.3256 6.41324 20.1918 6.58927 20.1918C6.7653 20.1918 6.9125 20.3256 6.92926 20.5008Z" fill="#464646"/>
</svg>