<svg width="40" height="40" viewBox="0 0 40 40" fill="none" xmlns="http://www.w3.org/2000/svg">
<g clip-path="url(#clip0_7432_9260)">
<path d="M20 8C26.6242 8 32 13.3758 32 20C32 26.6242 26.6242 32 20 32C13.3758 32 8 26.6242 8 20C8 13.3758 13.3758 8 20 8ZM25.1396 23.9844C21.6849 21.9829 17.6347 21.9075 13.6719 22.7559C13.309 22.8309 13.0137 23.0611 13.0137 23.5439C13.0139 23.9235 13.3091 24.2842 13.7783 24.2842C13.9186 24.2841 14.165 24.209 14.3535 24.1621C17.8229 23.4731 21.3361 23.5481 24.3555 25.3105C24.5441 25.4183 24.6699 25.4795 24.873 25.4795C25.2649 25.4795 25.6083 25.1843 25.6084 24.7578C25.6084 24.3314 25.4346 24.1671 25.1396 23.9844ZM18.002 18.4346C15.9892 18.4346 14.6146 18.7057 13.2695 19.0713C12.7713 19.2073 12.5195 19.5405 12.5195 20.042C12.5195 20.5436 12.9412 20.9512 13.459 20.9512C13.6765 20.9511 13.8021 20.89 14.0342 20.8291C18.0455 19.7744 22.5559 20.4736 25.5801 22.208C25.7541 22.297 25.9234 22.4043 26.1748 22.4043C26.7022 22.4043 27.1084 21.9965 27.1133 21.4902C27.1132 21.0825 26.9583 20.7923 26.5664 20.5674C24.1761 19.1893 21.1423 18.4346 18.002 18.4346ZM18.2344 14.4404C16.1586 14.4404 14.252 14.6705 12.5488 15.1533C12.1134 15.2753 11.707 15.636 11.707 16.2734C11.7071 16.8966 12.1956 17.3796 12.834 17.3799C13.0662 17.3799 13.2848 17.3047 13.459 17.2578C17.4461 16.1798 23.6057 16.6573 27.0508 18.6494C27.2685 18.7713 27.4232 18.833 27.6748 18.833C28.2651 18.833 28.7969 18.3777 28.7969 17.7402C28.7968 17.1825 28.5502 16.8916 28.1729 16.6807C25.468 15.1527 21.7665 14.4404 18.2344 14.4404Z" fill="#414141"/>
</g>
<defs>
<clipPath id="clip0_7432_9260">
<rect width="24" height="24" fill="white" transform="translate(8 8)"/>
</clipPath>
</defs>
</svg>
