<svg width="20" height="21" viewBox="0 0 20 21" fill="none" xmlns="http://www.w3.org/2000/svg">
<path d="M2 5.03125C2 4.61704 2.33579 4.28125 2.75 4.28125H17.25C17.6642 4.28125 18 4.61704 18 5.03125C18 5.44546 17.6642 5.78125 17.25 5.78125H2.75C2.33579 5.78125 2 5.44546 2 5.03125Z" fill="#b6b6b6"/>
<path d="M5 10.0312C5 9.61704 5.33579 9.28125 5.75 9.28125H14.25C14.6642 9.28125 15 9.61704 15 10.0312C15 10.4455 14.6642 10.7812 14.25 10.7812H5.75C5.33579 10.7812 5 10.4455 5 10.0312Z" fill="#b6b6b6"/>
<path d="M8 15.0312C8 14.617 8.33579 14.2812 8.75 14.2812H11.25C11.6642 14.2812 12 14.617 12 15.0312C12 15.4455 11.6642 15.7812 11.25 15.7812H8.75C8.33579 15.7812 8 15.4455 8 15.0312Z" fill="#b6b6b6"/>
</svg>
