<svg width="20" height="21" viewBox="0 0 20 21" fill="none" xmlns="http://www.w3.org/2000/svg">
<path fill-rule="evenodd" clip-rule="evenodd" d="M16.5303 3.50873C16.8232 3.80163 16.8232 4.2765 16.5303 4.56939L4.53033 16.5694C4.23744 16.8623 3.76256 16.8623 3.46967 16.5694C3.17678 16.2765 3.17678 15.8016 3.46967 15.5087L15.4697 3.50873C15.7626 3.21584 16.2374 3.21584 16.5303 3.50873Z" fill="#b6b6b6"/>
<path fill-rule="evenodd" clip-rule="evenodd" d="M15.1066 4.9327C13.8243 3.99388 12.1448 3.28907 10 3.28906C6.7142 3.28908 4.52021 4.94332 3.17388 6.55892C2.50302 7.36395 2.03559 8.16592 1.73547 8.76615C1.58499 9.06711 1.47541 9.31971 1.40249 9.49986C1.36336 9.59653 1.20947 10.0391 1.20947 10.0391C1.26995 10.2205 1.33069 10.4009 1.40249 10.5783C1.47541 10.7584 1.58499 11.011 1.73547 11.312C2.03559 11.9122 2.50302 12.7142 3.17388 13.5192C3.64148 14.0803 4.21134 14.6461 4.89368 15.1456L5.96921 14.0701C5.31445 13.6223 4.77169 13.0935 4.32621 12.5589C3.74707 11.864 3.3395 11.1659 3.07711 10.6412C2.95313 10.3932 2.86261 10.186 2.8025 10.0391C2.86261 9.89211 2.95313 9.68494 3.07711 9.43697C3.3395 8.91221 3.74707 8.21417 4.32621 7.5192C5.47986 6.13481 7.28585 4.78908 10 4.78906C11.6662 4.78907 12.9902 5.29626 14.0311 6.00822L15.1066 4.9327ZM15.3562 7.158L16.4173 6.09685C16.5615 6.25025 16.6977 6.40476 16.8261 6.55892C17.497 7.36395 17.9644 8.16592 18.2645 8.76615C18.415 9.06711 18.5246 9.31971 18.5975 9.49986C18.6366 9.59653 18.7905 10.0391 18.7905 10.0391C18.73 10.2205 18.6693 10.4009 18.5975 10.5783C18.5246 10.7584 18.415 11.011 18.2645 11.312C17.9644 11.9122 17.497 12.7142 16.8261 13.5192C15.4798 15.1348 13.2858 16.789 10 16.7891C8.63734 16.7891 7.46245 16.5045 6.45793 16.0563L7.61336 14.9008C8.31722 15.1443 9.10976 15.2891 10 15.2891C12.7142 15.289 14.5201 13.9433 15.6738 12.5589C16.2529 11.864 16.6605 11.1659 16.9229 10.6412C17.0469 10.3932 17.1374 10.186 17.1975 10.0391C17.1374 9.89211 17.0469 9.68494 16.9229 9.43697C16.6605 8.91221 16.2529 8.21417 15.6738 7.5192C15.573 7.39821 15.4672 7.27752 15.3562 7.158ZM12.8286 7.21077C12.1047 6.48683 11.1046 6.03906 10 6.03906C7.79086 6.03906 6 7.82992 6 10.0391C6 11.1437 6.44777 12.1438 7.1717 12.8676L8.23236 11.807C7.77988 11.3545 7.5 10.7295 7.5 10.0391C7.5 8.65835 8.61929 7.53906 10 7.53906C10.6904 7.53906 11.3155 7.81894 11.7679 8.27143L12.8286 7.21077ZM12.4999 10.0143L13.7817 8.73247C13.9232 9.14193 14 9.58152 14 10.0391C14 12.2482 12.2091 14.0391 10 14.0391C9.54246 14.0391 9.10286 13.9622 8.6934 13.8208L9.97526 12.5389C9.98349 12.539 9.99174 12.5391 10 12.5391C11.3807 12.5391 12.5 11.4198 12.5 10.0391C12.5 10.0308 12.5 10.0226 12.4999 10.0143Z" fill="#b6b6b6"/>
</svg>
