<svg width="20" height="20" viewBox="0 0 20 20" fill="none" xmlns="http://www.w3.org/2000/svg">
<path fill-rule="evenodd" clip-rule="evenodd" d="M3 6C3 5.58579 3.29381 5.25 3.65625 5.25H16.3438C16.7062 5.25 17 5.58579 17 6C17 6.41421 16.7062 6.75 16.3438 6.75H3.65625C3.29381 6.75 3 6.41421 3 6ZM6 10C6 9.58579 6.26863 9.25 6.6 9.25H13.4C13.7314 9.25 14 9.58579 14 10C14 10.4142 13.7314 10.75 13.4 10.75H6.6C6.26863 10.75 6 10.4142 6 10ZM8.75 13.25C8.33579 13.25 8 13.5858 8 14C8 14.4142 8.33579 14.75 8.75 14.75H11.25C11.6642 14.75 12 14.4142 12 14C12 13.5858 11.6642 13.25 11.25 13.25H8.75Z" fill="#B6B6B6"/>
</svg>