<svg width="20" height="20" viewBox="0 0 20 20" fill="none" xmlns="http://www.w3.org/2000/svg">
<path d="M2 5C2 4.58579 2.33579 4.25 2.75 4.25H17.25C17.6642 4.25 18 4.58579 18 5C18 5.41421 17.6642 5.75 17.25 5.75H2.75C2.33579 5.75 2 5.41421 2 5Z" fill="#DFDDD0"/>
<path d="M5 10C5 9.58579 5.33579 9.25 5.75 9.25H14.25C14.6642 9.25 15 9.58579 15 10C15 10.4142 14.6642 10.75 14.25 10.75H5.75C5.33579 10.75 5 10.4142 5 10Z" fill="#DFDDD0"/>
<path d="M8 15C8 14.5858 8.33579 14.25 8.75 14.25H11.25C11.6642 14.25 12 14.5858 12 15C12 15.4142 11.6642 15.75 11.25 15.75H8.75C8.33579 15.75 8 15.4142 8 15Z" fill="#DFDDD0"/>
</svg>
