<svg width="20" height="20" viewBox="0 0 20 20" fill="none" xmlns="http://www.w3.org/2000/svg">
<path fill-rule="evenodd" clip-rule="evenodd" d="M13 6.5C13.8284 6.5 14.5 5.82843 14.5 5C14.5 4.17157 13.8284 3.5 13 3.5C12.1716 3.5 11.5 4.17157 11.5 5C11.5 5.82843 12.1716 6.5 13 6.5ZM13 8C14.6569 8 16 6.65685 16 5C16 3.34315 14.6569 2 13 2C11.3431 2 10 3.34315 10 5C10 6.65685 11.3431 8 13 8Z" fill="#cbc9bd"/>
<path fill-rule="evenodd" clip-rule="evenodd" d="M7 16.5C6.17157 16.5 5.5 15.8284 5.5 15C5.5 14.1716 6.17157 13.5 7 13.5C7.82843 13.5 8.5 14.1716 8.5 15C8.5 15.8284 7.82843 16.5 7 16.5ZM7 18C5.34315 18 4 16.6569 4 15C4 13.3431 5.34315 12 7 12C8.65685 12 10 13.3431 10 15C10 16.6569 8.65685 18 7 18Z" fill="#cbc9bd"/>
<path fill-rule="evenodd" clip-rule="evenodd" d="M15.9055 5.75C15.9672 5.51029 16 5.25897 16 5C16 4.74103 15.9672 4.48971 15.9055 4.25H18.25C18.6642 4.25 19 4.58579 19 5C19 5.41421 18.6642 5.75 18.25 5.75H15.9055ZM10.0945 5.75H1.75C1.33579 5.75 1 5.41421 1 5C1 4.58579 1.33579 4.25 1.75 4.25H10.0945C10.0328 4.48971 10 4.74103 10 5C10 5.25897 10.0328 5.51029 10.0945 5.75Z" fill="#cbc9bd"/>
<path fill-rule="evenodd" clip-rule="evenodd" d="M4.09451 15.75C4.03281 15.5103 4 15.259 4 15C4 14.741 4.03281 14.4897 4.09451 14.25H1.75C1.33579 14.25 1 14.5858 1 15C1 15.4142 1.33579 15.75 1.75 15.75H4.09451ZM9.90549 15.75H18.25C18.6642 15.75 19 15.4142 19 15C19 14.5858 18.6642 14.25 18.25 14.25H9.90549C9.96719 14.4897 10 14.741 10 15C10 15.259 9.96719 15.5103 9.90549 15.75Z" fill="#cbc9bd"/>
</svg>