<svg width="24" height="24" viewBox="0 0 24 24" fill="none" xmlns="http://www.w3.org/2000/svg">
<path fill-rule="evenodd" clip-rule="evenodd" d="M5 8C5 7.58579 5.29381 7.25 5.65625 7.25H18.3438C18.7062 7.25 19 7.58579 19 8C19 8.41421 18.7062 8.75 18.3438 8.75H5.65625C5.29381 8.75 5 8.41421 5 8ZM8 12C8 11.5858 8.26863 11.25 8.6 11.25H15.4C15.7314 11.25 16 11.5858 16 12C16 12.4142 15.7314 12.75 15.4 12.75H8.6C8.26863 12.75 8 12.4142 8 12ZM10.75 15.25C10.3358 15.25 10 15.5858 10 16C10 16.4142 10.3358 16.75 10.75 16.75H13.25C13.6642 16.75 14 16.4142 14 16C14 15.5858 13.6642 15.25 13.25 15.25H10.75Z" fill="#B6B6B6"/>
</svg>
