<svg xmlns="http://www.w3.org/2000/svg" width="40" height="40" viewBox="0 0 40 40" fill="none">
    <circle cx="20" cy="20" r="20" fill="#2AA7EE"/>
    <path d="M20 10C26.3513 10 31.5 14.2533 31.5 19.5C31.5 24.7467 26.3513 29 20 29C19.5371 29 19.0804 28.9761 18.6318 28.9316C18.4532 28.914 18.2738 28.9607 18.126 29.0625C16.4852 30.1923 14.3897 31.009 12.3682 31.3389C11.7203 31.4443 11.3914 30.665 11.8379 30.1836C12.4254 29.5501 12.9592 28.8958 13.4531 28.2314C13.7111 27.8843 13.5878 27.3938 13.2178 27.1699C10.3584 25.4419 8.5 22.651 8.5 19.5C8.5 14.2533 13.6487 10 20 10ZM15.3574 18.0713C14.5685 18.0713 13.9288 18.7111 13.9287 19.5C13.9288 20.2889 14.5685 20.9287 15.3574 20.9287C16.1463 20.9286 16.7861 20.2889 16.7861 19.5C16.7861 18.7111 16.1463 18.0714 15.3574 18.0713ZM20 18.0713C19.2111 18.0713 18.5714 18.7111 18.5713 19.5C18.5714 20.2889 19.2111 20.9287 20 20.9287C20.7889 20.9286 21.4286 20.2889 21.4287 19.5C21.4286 18.7111 20.7889 18.0714 20 18.0713ZM24.6426 18.0713C23.8536 18.0713 23.2139 18.7111 23.2139 19.5C23.2139 20.2889 23.8536 20.9287 24.6426 20.9287C25.4314 20.9286 26.0712 20.2889 26.0713 19.5C26.0712 18.7111 25.4315 18.0714 24.6426 18.0713Z" fill="white"/>
</svg>
