<svg xmlns="http://www.w3.org/2000/svg" width="40" height="40" viewBox="0 0 40 40" fill="none">
    <circle cx="20" cy="20" r="20" fill="#0FC8BA"/>
    <path d="M30.7305 19.9863C30.7305 25.9035 25.9337 30.7 20.0166 30.7002C14.0993 30.7002 9.30176 25.9037 9.30176 19.9863C9.30178 14.3217 13.6981 9.68659 19.2646 9.30078V21.75L16.2598 18.7441C15.967 18.4515 15.4921 18.4516 15.1992 18.7441C14.9063 19.037 14.9063 19.5128 15.1992 19.8057L20.0146 24.6211L24.8311 19.8057C25.1239 19.5128 25.1239 19.037 24.8311 18.7441C24.5382 18.4516 24.0633 18.4516 23.7705 18.7441L20.7646 21.75V9.30078C26.3327 9.68511 30.7304 14.3207 30.7305 19.9863Z" fill="white"/>
</svg>
