<svg xmlns="http://www.w3.org/2000/svg" width="40" height="40" viewBox="0 0 40 40" fill="none">
    <circle cx="20" cy="20" r="20" fill="#3E58EB"/>
    <path d="M20.0229 10.7582C19.7111 10.7582 19.4483 10.6512 19.2343 10.4373C19.0203 10.2172 18.9133 9.95432 18.9133 9.64865C18.9133 9.34298 19.0203 9.08316 19.2343 8.86919C19.4544 8.6491 19.7173 8.53906 20.0229 8.53906C20.3286 8.53906 20.5884 8.6491 20.8024 8.86919C21.0164 9.08316 21.1233 9.34298 21.1233 9.64865C21.1233 9.96043 21.0164 10.2233 20.8024 10.4373C20.5945 10.6512 20.3347 10.7582 20.0229 10.7582ZM15.5571 13.3259C15.2514 13.3259 14.9885 13.2189 14.7685 13.0049C14.5545 12.7848 14.4475 12.5219 14.4475 12.2163C14.4475 11.9167 14.5575 11.6569 14.7776 11.4368C14.9977 11.2167 15.2575 11.1067 15.5571 11.1067C15.8689 11.1067 16.1317 11.2167 16.3457 11.4368C16.5597 11.6508 16.6667 11.9106 16.6667 12.2163C16.6667 12.5281 16.5597 12.7909 16.3457 13.0049C16.1379 13.2189 15.875 13.3259 15.5571 13.3259ZM24.4704 13.3259C24.1648 13.3259 23.9019 13.2189 23.6818 13.0049C23.4678 12.7848 23.3608 12.5219 23.3608 12.2163C23.3608 11.9167 23.4709 11.6569 23.691 11.4368C23.911 11.2167 24.1709 11.1067 24.4704 11.1067C24.7822 11.1067 25.0451 11.2167 25.2591 11.4368C25.4791 11.6508 25.5892 11.9106 25.5892 12.2163C25.5892 12.5281 25.4822 12.7909 25.2682 13.0049C25.0543 13.2189 24.7883 13.3259 24.4704 13.3259ZM11.1004 15.9302C10.7947 15.9302 10.5349 15.8232 10.321 15.6092C10.107 15.3891 10 15.1263 10 14.8206C10 14.521 10.107 14.2643 10.321 14.0503C10.541 13.8302 10.8009 13.7202 11.1004 13.7202C11.4122 13.7202 11.6751 13.8272 11.889 14.0411C12.103 14.2551 12.21 14.5149 12.21 14.8206C12.21 15.1385 12.103 15.4044 11.889 15.6184C11.6812 15.8262 11.4183 15.9302 11.1004 15.9302ZM20.0229 16.2878C19.6133 16.2878 19.2649 16.1441 18.9775 15.8568C18.6902 15.5695 18.5465 15.2241 18.5465 14.8206C18.5465 14.4232 18.6902 14.0809 18.9775 13.7935C19.271 13.5001 19.6194 13.3534 20.0229 13.3534C20.4264 13.3534 20.7688 13.5001 21.05 13.7935C21.3373 14.0809 21.481 14.4232 21.481 14.8206C21.481 15.2302 21.3373 15.5786 21.05 15.866C20.7688 16.1472 20.4264 16.2878 20.0229 16.2878ZM28.8996 15.9302C28.5939 15.9302 28.331 15.8232 28.111 15.6092C27.897 15.3952 27.79 15.1324 27.79 14.8206C27.79 14.521 27.9 14.2643 28.1201 14.0503C28.3402 13.8302 28.6 13.7202 28.8996 13.7202C29.2053 13.7202 29.4651 13.8272 29.679 14.0411C29.893 14.2551 30 14.5149 30 14.8206C30 15.1324 29.893 15.3952 29.679 15.6092C29.4712 15.8232 29.2114 15.9302 28.8996 15.9302ZM15.5571 18.8738C15.1536 18.8738 14.8082 18.7301 14.5209 18.4428C14.2335 18.1554 14.0899 17.81 14.0899 17.4066C14.0899 17.0092 14.2335 16.6668 14.5209 16.3795C14.8143 16.0861 15.1597 15.9393 15.5571 15.9393C15.9606 15.9393 16.306 16.083 16.5933 16.3703C16.8867 16.6577 17.0335 17.0031 17.0335 17.4066C17.0335 17.8223 16.8898 18.1707 16.6025 18.4519C16.3151 18.7332 15.9667 18.8738 15.5571 18.8738ZM24.4704 18.8738C24.0669 18.8738 23.7215 18.7332 23.4342 18.4519C23.153 18.1646 23.0124 17.8162 23.0124 17.4066C23.0124 17.0092 23.156 16.6668 23.4434 16.3795C23.7307 16.0861 24.0731 15.9393 24.4704 15.9393C24.88 15.9393 25.2285 16.083 25.5158 16.3703C25.8031 16.6577 25.9468 17.0031 25.9468 17.4066C25.9468 17.8223 25.8031 18.1707 25.5158 18.4519C25.2346 18.7332 24.8861 18.8738 24.4704 18.8738ZM11.1004 21.1113C10.7947 21.1113 10.5349 21.0043 10.321 20.7903C10.107 20.5702 10 20.3074 10 20.0017C10 19.696 10.107 19.4362 10.321 19.2222C10.541 19.0022 10.8009 18.8921 11.1004 18.8921C11.4122 18.8921 11.6751 19.0022 11.889 19.2222C12.103 19.4362 12.21 19.696 12.21 20.0017C12.21 20.3135 12.103 20.5764 11.889 20.7903C11.6751 21.0043 11.4122 21.1113 11.1004 21.1113ZM20.0229 21.7165C19.705 21.7165 19.4177 21.6401 19.1609 21.4873C18.9042 21.3283 18.6963 21.1204 18.5374 20.8637C18.3845 20.6008 18.3081 20.3135 18.3081 20.0017C18.3081 19.6899 18.3845 19.4056 18.5374 19.1489C18.6963 18.886 18.9042 18.6781 19.1609 18.5253C19.4177 18.3664 19.705 18.2869 20.0229 18.2869C20.3347 18.2869 20.619 18.3664 20.8757 18.5253C21.1325 18.6781 21.3373 18.886 21.4901 19.1489C21.6491 19.4056 21.7286 19.6899 21.7286 20.0017C21.7286 20.4785 21.5604 20.8851 21.2242 21.2213C20.8941 21.5514 20.4937 21.7165 20.0229 21.7165ZM28.8996 21.1113C28.5939 21.1113 28.331 21.0043 28.111 20.7903C27.897 20.5702 27.79 20.3074 27.79 20.0017C27.79 19.7021 27.9 19.4423 28.1201 19.2222C28.3402 19.0022 28.6 18.8921 28.8996 18.8921C29.2053 18.8921 29.4651 19.0022 29.679 19.2222C29.893 19.4362 30 19.696 30 20.0017C30 20.3135 29.893 20.5764 29.679 20.7903C29.4712 21.0043 29.2114 21.1113 28.8996 21.1113ZM15.5571 24.0641C15.1536 24.0641 14.8082 23.9204 14.5209 23.6331C14.2335 23.3457 14.0899 23.0003 14.0899 22.5968C14.0899 22.1995 14.2335 21.8571 14.5209 21.5698C14.8143 21.2763 15.1597 21.1296 15.5571 21.1296C15.9606 21.1296 16.306 21.2733 16.5933 21.5606C16.8867 21.8418 17.0335 22.1872 17.0335 22.5968C17.0335 23.0064 16.8898 23.3549 16.6025 23.6422C16.3151 23.9234 15.9667 24.0641 15.5571 24.0641ZM24.4704 24.0641C24.0669 24.0641 23.7215 23.9204 23.4342 23.6331C23.153 23.3457 23.0124 23.0003 23.0124 22.5968C23.0124 22.1933 23.156 21.8479 23.4434 21.5606C23.7307 21.2733 24.0731 21.1296 24.4704 21.1296C24.88 21.1296 25.2285 21.2733 25.5158 21.5606C25.8031 21.8418 25.9468 22.1872 25.9468 22.5968C25.9468 23.0064 25.8031 23.3549 25.5158 23.6422C25.2346 23.9234 24.8861 24.0641 24.4704 24.0641ZM11.1004 26.2832C10.7947 26.2832 10.5349 26.1762 10.321 25.9623C10.107 25.7483 10 25.4854 10 25.1736C10 24.8741 10.107 24.6173 10.321 24.4033C10.541 24.1833 10.8009 24.0732 11.1004 24.0732C11.4122 24.0732 11.6751 24.1802 11.889 24.3942C12.103 24.602 12.21 24.8619 12.21 25.1736C12.21 25.4854 12.1061 25.7483 11.8982 25.9623C11.6904 26.1762 11.4244 26.2832 11.1004 26.2832ZM20.0229 26.6409C19.6133 26.6409 19.2649 26.4972 18.9775 26.2099C18.6902 25.9225 18.5465 25.5771 18.5465 25.1736C18.5465 24.7824 18.6902 24.44 18.9775 24.1466C19.271 23.8531 19.6194 23.7064 20.0229 23.7064C20.4264 23.7064 20.7688 23.8501 21.05 24.1374C21.3373 24.4247 21.481 24.7701 21.481 25.1736C21.481 25.5832 21.3373 25.9317 21.05 26.219C20.7688 26.5002 20.4264 26.6409 20.0229 26.6409ZM28.8996 26.2832C28.5939 26.2832 28.331 26.1762 28.111 25.9623C27.897 25.7483 27.79 25.4854 27.79 25.1736C27.79 24.868 27.9 24.6081 28.1201 24.3942C28.3402 24.1802 28.6 24.0732 28.8996 24.0732C29.2053 24.0732 29.4651 24.1802 29.679 24.3942C29.893 24.6081 30 24.868 30 25.1736C30 25.4915 29.893 25.7575 29.679 25.9714C29.4712 26.1793 29.2114 26.2832 28.8996 26.2832ZM15.5571 28.8875C15.2514 28.8875 14.9885 28.7805 14.7685 28.5666C14.5545 28.3526 14.4475 28.0928 14.4475 27.7871C14.4475 27.4814 14.5575 27.2186 14.7776 26.9985C14.9977 26.7845 15.2575 26.6775 15.5571 26.6775C15.8689 26.6775 16.1317 26.7845 16.3457 26.9985C16.5597 27.2125 16.6667 27.4753 16.6667 27.7871C16.6667 28.0989 16.5597 28.3587 16.3457 28.5666C16.1379 28.7805 15.875 28.8875 15.5571 28.8875ZM24.4704 28.8875C24.1648 28.8875 23.9019 28.7805 23.6818 28.5666C23.4678 28.3526 23.3608 28.0928 23.3608 27.7871C23.3608 27.4814 23.4709 27.2186 23.691 26.9985C23.911 26.7845 24.1709 26.6775 24.4704 26.6775C24.7822 26.6775 25.0451 26.7845 25.2591 26.9985C25.4791 27.2125 25.5892 27.4753 25.5892 27.7871C25.5892 28.0989 25.4822 28.3587 25.2682 28.5666C25.0543 28.7805 24.7883 28.8875 24.4704 28.8875ZM20.0229 31.4643C19.7111 31.4643 19.4483 31.3543 19.2343 31.1342C19.0203 30.9202 18.9133 30.6604 18.9133 30.3547C18.9133 30.0552 19.0203 29.7954 19.2343 29.5753C19.4544 29.3552 19.7173 29.2452 20.0229 29.2452C20.3286 29.2452 20.5884 29.3521 20.8024 29.5661C21.0164 29.7801 21.1233 30.043 21.1233 30.3547C21.1233 30.6665 21.0164 30.9294 20.8024 31.1434C20.5945 31.3573 20.3347 31.4643 20.0229 31.4643Z" fill="white"/>
</svg>
