<svg width="49" height="48" viewBox="0 0 49 48" fill="none" xmlns="http://www.w3.org/2000/svg">
<rect x="0.125" width="48" height="48" rx="8" fill="#3E58EB"/>
<path d="M24.0275 12.9099C23.6534 12.9099 23.3379 12.7815 23.0812 12.5247C22.8244 12.2606 22.696 11.9452 22.696 11.5784C22.696 11.2116 22.8244 10.8998 23.0812 10.643C23.3453 10.3789 23.6607 10.2469 24.0275 10.2469C24.3943 10.2469 24.7061 10.3789 24.9629 10.643C25.2196 10.8998 25.348 11.2116 25.348 11.5784C25.348 11.9525 25.2196 12.268 24.9629 12.5247C24.7134 12.7815 24.4017 12.9099 24.0275 12.9099ZM18.6685 15.991C18.3017 15.991 17.9862 15.8627 17.7221 15.6059C17.4654 15.3418 17.337 15.0263 17.337 14.6595C17.337 14.3001 17.4691 13.9883 17.7332 13.7242C17.9972 13.4601 18.309 13.328 18.6685 13.328C19.0426 13.328 19.3581 13.4601 19.6149 13.7242C19.8716 13.981 20 14.2927 20 14.6595C20 15.0337 19.8716 15.3491 19.6149 15.6059C19.3654 15.8627 19.05 15.991 18.6685 15.991ZM29.3645 15.991C28.9977 15.991 28.6823 15.8627 28.4182 15.6059C28.1614 15.3418 28.033 15.0263 28.033 14.6595C28.033 14.3001 28.1651 13.9883 28.4292 13.7242C28.6933 13.4601 29.005 13.328 29.3645 13.328C29.7387 13.328 30.0541 13.4601 30.3109 13.7242C30.575 13.981 30.707 14.2927 30.707 14.6595C30.707 15.0337 30.5786 15.3491 30.3219 15.6059C30.0651 15.8627 29.746 15.991 29.3645 15.991ZM13.3205 19.1162C12.9537 19.1162 12.6419 18.9878 12.3851 18.7311C12.1284 18.467 12 18.1515 12 17.7847C12 17.4252 12.1284 17.1171 12.3851 16.8604C12.6492 16.5963 12.961 16.4642 13.3205 16.4642C13.6946 16.4642 14.0101 16.5926 14.2668 16.8494C14.5236 17.1061 14.652 17.4179 14.652 17.7847C14.652 18.1662 14.5236 18.4853 14.2668 18.7421C14.0174 18.9915 13.702 19.1162 13.3205 19.1162ZM24.0275 19.5454C23.536 19.5454 23.1178 19.373 22.773 19.0282C22.4282 18.6834 22.2558 18.2689 22.2558 17.7847C22.2558 17.3079 22.4282 16.897 22.773 16.5523C23.1252 16.2001 23.5433 16.0241 24.0275 16.0241C24.5117 16.0241 24.9225 16.2001 25.26 16.5523C25.6048 16.897 25.7772 17.3079 25.7772 17.7847C25.7772 18.2762 25.6048 18.6944 25.26 19.0392C24.9225 19.3766 24.5117 19.5454 24.0275 19.5454ZM34.6795 19.1162C34.3127 19.1162 33.9972 18.9878 33.7332 18.7311C33.4764 18.4743 33.348 18.1589 33.348 17.7847C33.348 17.4252 33.4801 17.1171 33.7442 16.8604C34.0083 16.5963 34.32 16.4642 34.6795 16.4642C35.0463 16.4642 35.3581 16.5926 35.6149 16.8494C35.8716 17.1061 36 17.4179 36 17.7847C36 18.1589 35.8716 18.4743 35.6149 18.7311C35.3654 18.9878 35.0536 19.1162 34.6795 19.1162ZM18.6685 22.6485C18.1843 22.6485 17.7698 22.4761 17.425 22.1313C17.0802 21.7865 16.9078 21.3721 16.9078 20.8879C16.9078 20.411 17.0802 20.0002 17.425 19.6554C17.7772 19.3033 18.1917 19.1272 18.6685 19.1272C19.1527 19.1272 19.5672 19.2996 19.912 19.6444C20.2641 19.9892 20.4402 20.4037 20.4402 20.8879C20.4402 21.3867 20.2678 21.8049 19.923 22.1423C19.5782 22.4798 19.16 22.6485 18.6685 22.6485ZM29.3645 22.6485C28.8803 22.6485 28.4658 22.4798 28.121 22.1423C27.7836 21.7976 27.6149 21.3794 27.6149 20.8879C27.6149 20.411 27.7873 20.0002 28.132 19.6554C28.4768 19.3033 28.8877 19.1272 29.3645 19.1272C29.856 19.1272 30.2742 19.2996 30.619 19.6444C30.9638 19.9892 31.1362 20.4037 31.1362 20.8879C31.1362 21.3867 30.9638 21.8049 30.619 22.1423C30.2815 22.4798 29.8634 22.6485 29.3645 22.6485ZM13.3205 25.3335C12.9537 25.3335 12.6419 25.2052 12.3851 24.9484C12.1284 24.6843 12 24.3688 12 24.002C12 23.6352 12.1284 23.3235 12.3851 23.0667C12.6492 22.8026 12.961 22.6705 13.3205 22.6705C13.6946 22.6705 14.0101 22.8026 14.2668 23.0667C14.5236 23.3235 14.652 23.6352 14.652 24.002C14.652 24.3762 14.5236 24.6916 14.2668 24.9484C14.0101 25.2052 13.6946 25.3335 13.3205 25.3335ZM24.0275 26.0598C23.646 26.0598 23.3012 25.9681 22.9931 25.7847C22.685 25.594 22.4356 25.3446 22.2448 25.0364C22.0614 24.721 21.9697 24.3762 21.9697 24.002C21.9697 23.6279 22.0614 23.2868 22.2448 22.9787C22.4356 22.6632 22.685 22.4138 22.9931 22.2304C23.3012 22.0396 23.646 21.9443 24.0275 21.9443C24.4017 21.9443 24.7428 22.0396 25.0509 22.2304C25.359 22.4138 25.6048 22.6632 25.7882 22.9787C25.9789 23.2868 26.0743 23.6279 26.0743 24.002C26.0743 24.5743 25.8725 25.0621 25.4691 25.4656C25.0729 25.8617 24.5924 26.0598 24.0275 26.0598ZM34.6795 25.3335C34.3127 25.3335 33.9972 25.2052 33.7332 24.9484C33.4764 24.6843 33.348 24.3688 33.348 24.002C33.348 23.6426 33.4801 23.3308 33.7442 23.0667C34.0083 22.8026 34.32 22.6705 34.6795 22.6705C35.0463 22.6705 35.3581 22.8026 35.6149 23.0667C35.8716 23.3235 36 23.6352 36 24.002C36 24.3762 35.8716 24.6916 35.6149 24.9484C35.3654 25.2052 35.0536 25.3335 34.6795 25.3335ZM18.6685 28.8769C18.1843 28.8769 17.7698 28.7045 17.425 28.3597C17.0802 28.0149 16.9078 27.6004 16.9078 27.1162C16.9078 26.6394 17.0802 26.2285 17.425 25.8838C17.7772 25.5316 18.1917 25.3556 18.6685 25.3556C19.1527 25.3556 19.5672 25.528 19.912 25.8727C20.2641 26.2102 20.4402 26.6247 20.4402 27.1162C20.4402 27.6077 20.2678 28.0259 19.923 28.3707C19.5782 28.7081 19.16 28.8769 18.6685 28.8769ZM29.3645 28.8769C28.8803 28.8769 28.4658 28.7045 28.121 28.3597C27.7836 28.0149 27.6149 27.6004 27.6149 27.1162C27.6149 26.632 27.7873 26.2175 28.132 25.8727C28.4768 25.528 28.8877 25.3556 29.3645 25.3556C29.856 25.3556 30.2742 25.528 30.619 25.8727C30.9638 26.2102 31.1362 26.6247 31.1362 27.1162C31.1362 27.6077 30.9638 28.0259 30.619 28.3707C30.2815 28.7081 29.8634 28.8769 29.3645 28.8769ZM13.3205 31.5399C12.9537 31.5399 12.6419 31.4115 12.3851 31.1547C12.1284 30.898 12 30.5825 12 30.2084C12 29.8489 12.1284 29.5408 12.3851 29.284C12.6492 29.0199 12.961 28.8879 13.3205 28.8879C13.6946 28.8879 14.0101 29.0163 14.2668 29.273C14.5236 29.5224 14.652 29.8342 14.652 30.2084C14.652 30.5825 14.5273 30.898 14.2779 31.1547C14.0284 31.4115 13.7093 31.5399 13.3205 31.5399ZM24.0275 31.969C23.536 31.969 23.1178 31.7966 22.773 31.4518C22.4282 31.107 22.2558 30.6926 22.2558 30.2084C22.2558 29.7389 22.4282 29.328 22.773 28.9759C23.1252 28.6238 23.5433 28.4477 24.0275 28.4477C24.5117 28.4477 24.9225 28.6201 25.26 28.9649C25.6048 29.3097 25.7772 29.7242 25.7772 30.2084C25.7772 30.6999 25.6048 31.118 25.26 31.4628C24.9225 31.8003 24.5117 31.969 24.0275 31.969ZM34.6795 31.5399C34.3127 31.5399 33.9972 31.4115 33.7332 31.1547C33.4764 30.898 33.348 30.5825 33.348 30.2084C33.348 29.8416 33.4801 29.5298 33.7442 29.273C34.0083 29.0163 34.32 28.8879 34.6795 28.8879C35.0463 28.8879 35.3581 29.0163 35.6149 29.273C35.8716 29.5298 36 29.8416 36 30.2084C36 30.5898 35.8716 30.909 35.6149 31.1657C35.3654 31.4152 35.0536 31.5399 34.6795 31.5399ZM18.6685 34.665C18.3017 34.665 17.9862 34.5367 17.7221 34.2799C17.4654 34.0231 17.337 33.7114 17.337 33.3445C17.337 32.9777 17.4691 32.6623 17.7332 32.3982C17.9972 32.1414 18.309 32.0131 18.6685 32.0131C19.0426 32.0131 19.3581 32.1414 19.6149 32.3982C19.8716 32.655 20 32.9704 20 33.3445C20 33.7187 19.8716 34.0305 19.6149 34.2799C19.3654 34.5367 19.05 34.665 18.6685 34.665ZM29.3645 34.665C28.9977 34.665 28.6823 34.5367 28.4182 34.2799C28.1614 34.0231 28.033 33.7114 28.033 33.3445C28.033 32.9777 28.1651 32.6623 28.4292 32.3982C28.6933 32.1414 29.005 32.0131 29.3645 32.0131C29.7387 32.0131 30.0541 32.1414 30.3109 32.3982C30.575 32.655 30.707 32.9704 30.707 33.3445C30.707 33.7187 30.5786 34.0305 30.3219 34.2799C30.0651 34.5367 29.746 34.665 29.3645 34.665ZM24.0275 37.7572C23.6534 37.7572 23.3379 37.6252 23.0812 37.3611C22.8244 37.1043 22.696 36.7925 22.696 36.4257C22.696 36.0662 22.8244 35.7545 23.0812 35.4904C23.3453 35.2263 23.6607 35.0942 24.0275 35.0942C24.3943 35.0942 24.7061 35.2226 24.9629 35.4794C25.2196 35.7361 25.348 36.0516 25.348 36.4257C25.348 36.7998 25.2196 37.1153 24.9629 37.3721C24.7134 37.6288 24.4017 37.7572 24.0275 37.7572Z" fill="white"/>
</svg>