<svg width="16" height="21" viewBox="0 0 16 21" fill="none" xmlns="http://www.w3.org/2000/svg">
<path d="M9.5 1.46875H8V6.96875C8 8.07332 8.89543 8.96875 10 8.96875H15.5V7.46875H10C9.72386 7.46875 9.5 7.24489 9.5 6.96875V1.46875Z" fill="#ACA996"/>
<path fill-rule="evenodd" clip-rule="evenodd" d="M14.5 7.59007V18.9688C14.5 19.2449 14.2761 19.4688 14 19.4688H2C1.72386 19.4688 1.5 19.2449 1.5 18.9688V2.96875C1.5 2.69261 1.72386 2.46875 2 2.46875H9.37868L14.5 7.59007ZM2 0.96875C0.895431 0.96875 0 1.86418 0 2.96875V18.9688C0 20.0733 0.895431 20.9688 2 20.9688H14C15.1046 20.9688 16 20.0733 16 18.9688V7.38296C16 7.11775 15.8946 6.86339 15.7071 6.67586L10.2929 1.26164C10.1054 1.07411 9.851 0.96875 9.58579 0.96875H2Z" fill="#ACA996"/>
</svg>
