<svg width="20" height="21" viewBox="0 0 20 21" fill="none" xmlns="http://www.w3.org/2000/svg">
<path fill-rule="evenodd" clip-rule="evenodd" d="M15.6241 6.3843L9.11663 16.1455L4.46973 11.4986L5.53039 10.4379L8.88349 13.791L14.376 5.55225L15.6241 6.3843Z" fill="#ACA996"/>
<path fill-rule="evenodd" clip-rule="evenodd" d="M14 2.46826H6C3.51472 2.46826 1.5 4.48298 1.5 6.96826V14.9683C1.5 17.4535 3.51472 19.4683 6 19.4683H14C16.4853 19.4683 18.5 17.4535 18.5 14.9683V6.96826C18.5 4.48298 16.4853 2.46826 14 2.46826ZM6 0.968262C2.68629 0.968262 0 3.65455 0 6.96826V14.9683C0 18.282 2.68629 20.9683 6 20.9683H14C17.3137 20.9683 20 18.282 20 14.9683V6.96826C20 3.65455 17.3137 0.968262 14 0.968262H6Z" fill="#ACA996"/>
</svg>
