<svg width="28" height="28" viewBox="0 0 28 28" fill="none" xmlns="http://www.w3.org/2000/svg">
<path fill-rule="evenodd" clip-rule="evenodd" d="M20 4.5H8C6.067 4.5 4.5 6.067 4.5 8V20C4.5 21.933 6.067 23.5 8 23.5H20C21.933 23.5 23.5 21.933 23.5 20V8C23.5 6.067 21.933 4.5 20 4.5ZM8 3C5.23858 3 3 5.23858 3 8V20C3 22.7614 5.23858 25 8 25H20C22.7614 25 25 22.7614 25 20V8C25 5.23858 22.7614 3 20 3H8Z" fill="#ACA996"/>
<path d="M4 10.5H24V9H4V10.5Z" fill="#ACA996"/>
<path d="M16.4688 17.4688C16.4688 16.9165 16.9165 16.4688 17.4688 16.4688H19.4688C20.021 16.4688 20.4688 16.9165 20.4688 17.4688V19.4688C20.4688 20.021 20.021 20.4688 19.4688 20.4688H17.4688C16.9165 20.4688 16.4688 20.021 16.4688 19.4688V17.4688Z" fill="#ACA996"/>
</svg>
