<svg xmlns="http://www.w3.org/2000/svg" width="24" height="24" viewBox="0 0 24 24" fill="none">
    <path d="M4 7.0166C4 6.18817 4.67157 5.5166 5.5 5.5166C6.32843 5.5166 7 6.18817 7 7.0166C7 7.84503 6.32843 8.5166 5.5 8.5166C4.67157 8.5166 4 7.84503 4 7.0166Z" fill="#B6B6B6"/>
    <path d="M4 12.0166C4 11.1882 4.67157 10.5166 5.5 10.5166C6.32843 10.5166 7 11.1882 7 12.0166C7 12.845 6.32843 13.5166 5.5 13.5166C4.67157 13.5166 4 12.845 4 12.0166Z" fill="#B6B6B6"/>
    <path d="M4 17.0166C4 16.1882 4.67157 15.5166 5.5 15.5166C6.32843 15.5166 7 16.1882 7 17.0166C7 17.845 6.32843 18.5166 5.5 18.5166C4.67157 18.5166 4 17.845 4 17.0166Z" fill="#B6B6B6"/>
    <path d="M9 7.0166C9 6.60239 9.33579 6.2666 9.75 6.2666H19.25C19.6642 6.2666 20 6.60239 20 7.0166C20 7.43082 19.6642 7.7666 19.25 7.7666H9.75C9.33579 7.7666 9 7.43082 9 7.0166Z" fill="#B6B6B6"/>
    <path d="M9 12.0166C9 11.6024 9.33579 11.2666 9.75 11.2666H19.25C19.6642 11.2666 20 11.6024 20 12.0166C20 12.4308 19.6642 12.7666 19.25 12.7666H9.75C9.33579 12.7666 9 12.4308 9 12.0166Z" fill="#B6B6B6"/>
    <path d="M9 17.0166C9 16.6024 9.33579 16.2666 9.75 16.2666H19.25C19.6642 16.2666 20 16.6024 20 17.0166C20 17.4308 19.6642 17.7666 19.25 17.7666H9.75C9.33579 17.7666 9 17.4308 9 17.0166Z" fill="#B6B6B6"/>
</svg>
