<svg width="28" height="28" viewBox="0 0 28 28" fill="none" xmlns="http://www.w3.org/2000/svg">
<path fill-rule="evenodd" clip-rule="evenodd" d="M14 25.5C20.3513 25.5 25.5 20.3513 25.5 14C25.5 7.64873 20.3513 2.5 14 2.5C7.64873 2.5 2.5 7.64873 2.5 14C2.5 20.3513 7.64873 25.5 14 25.5ZM14 27C21.1797 27 27 21.1797 27 14C27 6.8203 21.1797 1 14 1C6.8203 1 1 6.8203 1 14C1 21.1797 6.8203 27 14 27Z" fill="#B6B6B6"/>
<path fill-rule="evenodd" clip-rule="evenodd" d="M8.46967 12.2197C8.76256 11.9268 9.23744 11.9268 9.53033 12.2197L14 16.6893L18.4697 12.2197C18.7626 11.9268 19.2374 11.9268 19.5303 12.2197C19.8232 12.5126 19.8232 12.9874 19.5303 13.2803L14 18.8107L8.46967 13.2803C8.17678 12.9874 8.17678 12.5126 8.46967 12.2197Z" fill="#B6B6B6"/>
</svg>