<svg width="28" height="28" viewBox="0 0 28 28" fill="none" xmlns="http://www.w3.org/2000/svg">
<path d="M2.5 22H25.5V23.5H2.5V22Z" fill="#b6b6b6"/>
<path d="M20.3444 16.7239C19.1309 16.7239 18.2281 16.1025 18.2281 15.0346C18.2281 13.9862 18.927 13.4328 20.5192 13.326L23.3346 13.1415V14.1027C23.3346 15.5977 22.0628 16.7239 20.3444 16.7239ZM20.0338 18.1898C21.4318 18.1898 22.5773 17.5782 23.2569 16.4617H23.4122V18.0053H25.0044V10.8407C25.0044 8.66607 23.5773 7.35547 21.024 7.35547C18.7911 7.35547 17.1407 8.4622 16.9175 10.1417H18.6067C18.8397 9.31652 19.7134 8.84082 20.9658 8.84082C22.5288 8.84082 23.3346 9.54952 23.3346 10.8407V11.7921L20.3153 11.9766C17.8786 12.1222 16.5 13.1998 16.5 15.0735C16.5 16.986 18.0048 18.1898 20.0338 18.1898Z" fill="#b6b6b6"/>
<path d="M13.1739 18H15L9.8599 4H8.1401L3 18H4.82609L6.22705 13.9931H11.7729L13.1739 18ZM8.92271 6.26057H9.0773L11.2609 12.5087H6.73913L8.92271 6.26057Z" fill="#b6b6b6"/>
</svg>