<svg width="28" height="28" viewBox="0 0 28 28" fill="none" xmlns="http://www.w3.org/2000/svg">
<path fill-rule="evenodd" clip-rule="evenodd" d="M23.5 22V6C23.5 5.17157 22.8284 4.5 22 4.5C21.1716 4.5 20.5 5.17157 20.5 6V22C20.5 22.8284 21.1716 23.5 22 23.5C22.8284 23.5 23.5 22.8284 23.5 22ZM22 3C20.3431 3 19 4.34315 19 6V22C19 23.6569 20.3431 25 22 25C23.6569 25 25 23.6569 25 22V6C25 4.34315 23.6569 3 22 3Z" fill="#ACA996"/>
<path fill-rule="evenodd" clip-rule="evenodd" d="M15.5 22V12C15.5 11.1716 14.8284 10.5 14 10.5C13.1716 10.5 12.5 11.1716 12.5 12V22C12.5 22.8284 13.1716 23.5 14 23.5C14.8284 23.5 15.5 22.8284 15.5 22ZM14 9C12.3431 9 11 10.3431 11 12V22C11 23.6569 12.3431 25 14 25C15.6569 25 17 23.6569 17 22V12C17 10.3431 15.6569 9 14 9Z" fill="#ACA996"/>
<path fill-rule="evenodd" clip-rule="evenodd" d="M7.5 22V18C7.5 17.1716 6.82843 16.5 6 16.5C5.17157 16.5 4.5 17.1716 4.5 18V22C4.5 22.8284 5.17157 23.5 6 23.5C6.82843 23.5 7.5 22.8284 7.5 22ZM6 15C4.34315 15 3 16.3431 3 18V22C3 23.6569 4.34315 25 6 25C7.65685 25 9 23.6569 9 22V18C9 16.3431 7.65685 15 6 15Z" fill="#ACA996"/>
</svg>
