<svg width="20" height="20" viewBox="0 0 20 20" fill="none" xmlns="http://www.w3.org/2000/svg">
<path fill-rule="evenodd" clip-rule="evenodd" d="M7.54725 6.44753C7.25507 6.15392 6.7802 6.15276 6.48659 6.44494C6.19298 6.73712 6.19182 7.21199 6.484 7.5056L8.94973 9.9834L6.484 12.4612C6.19182 12.7548 6.19298 13.2297 6.48659 13.5219C6.7802 13.814 7.25507 13.8129 7.54725 13.5193L10.0078 11.0467L12.4684 13.5193C12.7606 13.8129 13.2354 13.814 13.529 13.5219C13.8226 13.2297 13.8238 12.7548 13.5316 12.4612L11.0659 9.9834L13.5316 7.5056C13.8238 7.21199 13.8226 6.73712 13.529 6.44494C13.2354 6.15276 12.7606 6.15392 12.4684 6.44753L10.0078 8.92014L7.54725 6.44753Z" fill="white"/>
</svg>
