<svg xmlns="http://www.w3.org/2000/svg" width="20" height="20" viewBox="0 0 20 20" fill="none">
    <path d="M15.2168 1.94141C16.8019 2.02171 18.0625 3.33239 18.0625 4.9375V11L18.0586 11.1543C17.9783 12.7394 16.6676 14 15.0625 14H14V12.5H15.0625C15.8909 12.5 16.5625 11.8284 16.5625 11V4.9375C16.5625 4.10907 15.8909 3.4375 15.0625 3.4375H9C8.17157 3.4375 7.5 4.10907 7.5 4.9375V6H6V4.9375C6 3.33239 7.26055 2.02171 8.8457 1.94141L9 1.9375H15.0625L15.2168 1.94141Z" fill="#9B9B9B"/>
    <path d="M11.0625 16.5V18H5V16.5H11.0625ZM12.5625 15V8.9375C12.5625 8.10907 11.8909 7.4375 11.0625 7.4375H5C4.17157 7.4375 3.5 8.10907 3.5 8.9375V15C3.5 15.8284 4.17157 16.5 5 16.5V18C3.34315 18 2 16.6569 2 15V8.9375C2 7.33239 3.26055 6.02171 4.8457 5.94141L5 5.9375H11.0625L11.2168 5.94141C12.8019 6.02171 14.0625 7.33239 14.0625 8.9375V15L14.0586 15.1543C13.9783 16.7394 12.6676 18 11.0625 18V16.5C11.8909 16.5 12.5625 15.8284 12.5625 15Z" fill="#9B9B9B"/>
</svg>
