<svg width="20" height="20" viewBox="0 0 20 20" fill="none" xmlns="http://www.w3.org/2000/svg">
<path fill-rule="evenodd" clip-rule="evenodd" d="M3.5 10C3.5 13.5899 6.41015 16.5 10 16.5C13.5899 16.5 16.5 13.5899 16.5 10C16.5 6.41015 13.5899 3.5 10 3.5C6.41015 3.5 3.5 6.41015 3.5 10ZM10 2C5.58172 2 2 5.58172 2 10C2 14.4183 5.58172 18 10 18C14.4183 18 18 14.4183 18 10C18 5.58172 14.4183 2 10 2ZM7 8C7 7.17157 7.44772 6.5 8 6.5C8.55228 6.5 9 7.17157 9 8C9 8.82843 8.55228 9.5 8 9.5C7.44772 9.5 7 8.82843 7 8ZM12 6.5C11.4477 6.5 11 7.17157 11 8C11 8.82843 11.4477 9.5 12 9.5C12.5523 9.5 13 8.82843 13 8C13 7.17157 12.5523 6.5 12 6.5Z" fill="#B6B6B6"/>
<path d="M13.9549 11.7218C14.2966 11.0129 13.5584 10.4096 12.7997 10.6185C12.0508 10.8246 11.0982 11 9.99984 11C8.91327 11.014 7.9693 10.8452 7.2241 10.6404C6.45931 10.4302 5.71042 11.0374 6.05856 11.7501C6.86359 13.398 8.32748 14.5 9.99984 14.5C11.6818 14.5 13.1528 13.3854 13.9549 11.7218Z" fill="#B6B6B6"/>
</svg>