<svg width="20" height="20" viewBox="0 0 20 20" fill="none" xmlns="http://www.w3.org/2000/svg">
<path fill-rule="evenodd" clip-rule="evenodd" d="M3.5 10C3.5 13.5899 6.41015 16.5 10 16.5C13.5899 16.5 16.5 13.5899 16.5 10C16.5 6.41015 13.5899 3.5 10 3.5C6.41015 3.5 3.5 6.41015 3.5 10ZM10 2C5.58172 2 2 5.58172 2 10C2 14.4183 5.58172 18 10 18C14.4183 18 18 14.4183 18 10C18 5.58172 14.4183 2 10 2ZM7 8C7 7.44772 7.44772 7 8 7C8.55228 7 9 7.44772 9 8C9 8.55228 8.55228 9 8 9C7.44772 9 7 8.55228 7 8ZM12 7C11.4477 7 11 7.44772 11 8C11 8.55228 11.4477 9 12 9C12.5523 9 13 8.55228 13 8C13 7.44772 12.5523 7 12 7Z" fill="#B6B6B6"/>
<path d="M13.9511 11.2734C14.0838 11.2413 14.209 11.2856 14.277 11.3487C14.3079 11.3773 14.315 11.3985 14.3162 11.4033C14.3168 11.4058 14.3172 11.4082 14.3169 11.4123C14.3166 11.4164 14.3151 11.428 14.3068 11.448C13.4567 13.4823 11.7974 14.75 9.99981 14.75C8.21001 14.75 6.55764 13.4936 5.70405 11.4746C5.69549 11.4544 5.69407 11.4428 5.69377 11.4389C5.69346 11.435 5.69378 11.4328 5.69439 11.4304C5.69561 11.4256 5.70295 11.4038 5.73506 11.3741C5.80602 11.3087 5.93588 11.2636 6.0714 11.2967C7.07906 11.5427 8.42465 11.7587 10.0046 11.7388C11.5931 11.7384 12.9439 11.5172 13.9511 11.2734Z" stroke="#B6B6B6" stroke-width="1.5"/>
</svg>