<svg width="20" height="20" viewBox="0 0 20 20" fill="none" xmlns="http://www.w3.org/2000/svg">
<rect x="2.75" y="2.75" width="14.5" height="14.5" rx="7.25" stroke="#B6B6B6" stroke-width="1.5"/>
<path d="M10 14C7.90401 14 6.5 12.513 6.5 11.8069C6.5 11.5501 6.73066 11.4325 6.95129 11.5394C7.67335 11.9567 8.54585 12.4488 10 12.4488C11.4542 12.4488 12.3266 11.9674 13.0587 11.5394C13.2693 11.4325 13.5 11.5501 13.5 11.8069C13.5 12.513 12.096 14 10 14Z" fill="#B6B6B6"/>
<path fill-rule="evenodd" clip-rule="evenodd" d="M8 7C7.44772 7 7 7.44772 7 8C7 8.55228 7.44772 9 8 9C8.55228 9 9 8.55228 9 8C9 7.44772 8.55228 7 8 7ZM12 7C11.4477 7 11 7.44772 11 8C11 8.55228 11.4477 9 12 9C12.5523 9 13 8.55228 13 8C13 7.44772 12.5523 7 12 7Z" fill="#B6B6B6"/>
</svg>
