<svg xmlns="http://www.w3.org/2000/svg" width="20" height="20" viewBox="0 0 20 20" fill="none">
    <path d="M16.3636 3.63606C18.0233 5.29579 18.0233 7.98674 16.3636 9.64647L14.2423 11.7678C14.1583 11.8518 14.0709 11.9306 13.982 12.006C14.077 11.3406 14.0445 10.6601 13.8839 10.0049L15.3029 8.58581C16.3769 7.51187 16.3769 5.77067 15.3029 4.69672C14.229 3.62278 12.4878 3.62278 11.4139 4.69672L9.29253 6.81804C8.21859 7.89199 8.21859 9.63319 9.29253 10.7071C9.64691 11.0615 10.0748 11.2958 10.5265 11.4163C10.4913 11.8106 10.3235 12.1952 10.0217 12.497L9.76831 12.7504C9.20793 12.5444 8.68179 12.2177 8.23187 11.7678C6.57215 10.1081 6.57215 7.41711 8.23187 5.75738L10.3532 3.63606C12.0129 1.97634 14.7039 1.97633 16.3636 3.63606Z" fill="#9B9B9B"/>
    <path d="M3.63542 16.3639C1.97569 14.7042 1.97569 12.0133 3.63542 10.3535L5.75674 8.23221C5.84071 8.14824 5.9281 8.06945 6.01707 7.99397C5.92203 8.6594 5.95457 9.33988 6.11513 9.99514L4.69608 11.4142C3.62214 12.4881 3.62214 14.2293 4.69608 15.3033C5.77002 16.3772 7.51123 16.3772 8.58517 15.3033L10.7065 13.182C11.7804 12.108 11.7804 10.3668 10.7065 9.29287C10.3521 8.93849 9.92424 8.70419 9.4725 8.58369C9.50777 8.18944 9.6755 7.80479 9.97729 7.50301L10.2307 7.24958C10.7911 7.45557 11.3172 7.7823 11.7671 8.23221C13.4269 9.89194 13.4269 12.5829 11.7671 14.2426L9.64583 16.3639C7.9861 18.0237 5.29515 18.0237 3.63542 16.3639Z" fill="#9B9B9B"/>
</svg>
