<svg width="20" height="20" viewBox="0 0 20 20" fill="none" xmlns="http://www.w3.org/2000/svg">
<path d="M10.3828 17.6247C9.11699 17.6247 7.99408 17.4512 7.01409 17.1041C6.03818 16.7611 5.21539 16.2548 4.54573 15.5851C3.87607 14.9196 3.3677 14.1029 3.02062 13.1352C2.67354 12.1674 2.5 11.0629 2.5 9.82156C2.5 8.6129 2.67558 7.52675 3.02675 6.56309C3.37791 5.59943 3.88832 4.77869 4.55798 4.10086C5.23173 3.41895 6.05043 2.89833 7.01409 2.539C7.97775 2.17967 9.07207 2 10.2971 2C11.469 2 12.502 2.18375 13.3963 2.55125C14.2905 2.91874 15.0419 3.42303 15.6503 4.06411C16.2628 4.70519 16.7242 5.44018 17.0345 6.26909C17.3448 7.098 17.5 7.97387 17.5 8.89669C17.5 9.54185 17.4592 10.1727 17.3775 10.7893C17.2958 11.4018 17.1448 11.9571 16.9243 12.4553C16.7078 12.9494 16.3934 13.3454 15.981 13.6435C15.5727 13.9375 15.0419 14.0906 14.3885 14.1029C14.0414 14.1151 13.7046 14.0743 13.3779 13.9804C13.0512 13.8865 12.7736 13.7354 12.5449 13.5272C12.3163 13.3148 12.1774 13.0453 12.1284 12.7187H12.0549C11.9569 12.9596 11.7936 13.1842 11.5649 13.3924C11.3363 13.5966 11.0443 13.7599 10.6891 13.8824C10.3379 14.0008 9.92956 14.0498 9.46407 14.0294C8.94957 14.009 8.48612 13.8926 8.0737 13.6803C7.66129 13.4679 7.30808 13.1739 7.01409 12.7983C6.72417 12.4226 6.50163 11.9775 6.34647 11.463C6.1913 10.9486 6.11372 10.3769 6.11372 9.74806C6.11372 9.14373 6.20151 8.6027 6.37709 8.12495C6.55267 7.64312 6.79155 7.22866 7.09371 6.88158C7.39996 6.53042 7.75112 6.25276 8.1472 6.04859C8.54328 5.84443 8.96182 5.7158 9.40282 5.66272C9.83156 5.61372 10.2256 5.62597 10.5849 5.69947C10.9443 5.77297 11.2423 5.88526 11.4792 6.03634C11.7201 6.18742 11.8712 6.3528 11.9324 6.53246H12.012V5.84647H13.5188V11.5304C13.5188 11.853 13.6025 12.1266 13.7699 12.3512C13.9414 12.5757 14.1844 12.688 14.4988 12.688C14.8704 12.688 15.1603 12.5512 15.3685 12.2777C15.5808 12.0041 15.7299 11.5835 15.8156 11.0159C15.9055 10.4483 15.9504 9.72152 15.9504 8.83544C15.9504 8.21478 15.8667 7.63087 15.6993 7.08371C15.5359 6.53246 15.293 6.0343 14.9704 5.58922C14.6519 5.14006 14.2599 4.75419 13.7944 4.4316C13.3289 4.10902 12.7981 3.85994 12.2019 3.68436C11.6098 3.50878 10.9545 3.42099 10.2358 3.42099C9.2599 3.42099 8.3922 3.57207 7.63271 3.87423C6.87321 4.17232 6.23214 4.6031 5.70947 5.1666C5.19089 5.73009 4.79686 6.40588 4.52736 7.19396C4.26194 7.97795 4.12924 8.8579 4.12924 9.83381C4.12924 10.8506 4.26603 11.753 4.53961 12.541C4.81319 13.325 5.21744 13.9865 5.75235 14.5255C6.28726 15.0645 6.94876 15.4728 7.73683 15.7505C8.52491 16.0323 9.43344 16.1731 10.4624 16.1731C10.9198 16.1731 11.3689 16.1323 11.8099 16.0506C12.2509 15.9731 12.6429 15.8832 12.9859 15.7811C13.333 15.6831 13.5923 15.6035 13.7638 15.5423L14.1925 16.8836C13.9394 17.002 13.6025 17.1184 13.1819 17.2327C12.7654 17.3471 12.3122 17.441 11.8222 17.5145C11.3363 17.588 10.8565 17.6247 10.3828 17.6247ZM9.81931 12.5288C10.3501 12.5288 10.7768 12.4226 11.0994 12.2103C11.4261 11.998 11.6609 11.6815 11.8038 11.2609C11.9508 10.8363 12.0243 10.3054 12.0243 9.66844C12.0202 9.04777 11.9406 8.5537 11.7854 8.1862C11.6343 7.81462 11.3975 7.5492 11.0749 7.38996C10.7564 7.22662 10.3461 7.14496 9.84381 7.14496C9.3824 7.14496 8.98836 7.25725 8.6617 7.48183C8.33912 7.70641 8.09208 8.01062 7.92058 8.39445C7.75316 8.77828 7.66742 9.20498 7.66333 9.67456C7.66742 10.1686 7.73683 10.6341 7.87158 11.071C8.01041 11.5039 8.23499 11.855 8.54533 12.1245C8.85974 12.394 9.2844 12.5288 9.81931 12.5288Z" fill="#B6B6B6"/>
</svg>
