<svg width="20" height="20" viewBox="0 0 20 20" fill="none" xmlns="http://www.w3.org/2000/svg">
<path fill-rule="evenodd" clip-rule="evenodd" d="M11.5821 2.15642C11.0707 2.05383 10.5416 2 10 2C5.58172 2 2 5.58172 2 10C2 14.4183 5.58172 18 10 18C14.4183 18 18 14.4183 18 10C18 9.69754 17.9832 9.399 17.9505 9.10525C17.4912 9.30004 16.9967 9.42811 16.4793 9.47733C16.493 9.64974 16.5 9.82405 16.5 10C16.5 13.5899 13.5899 16.5 10 16.5C6.41015 16.5 3.5 13.5899 3.5 10C3.5 6.41015 6.41015 3.5 10 3.5C10.3689 3.5 10.7306 3.53073 11.0827 3.58976C11.1763 3.08082 11.3469 2.59886 11.5821 2.15642Z" fill="#252525"/>
<path fill-rule="evenodd" clip-rule="evenodd" d="M8 6C7.44772 6 7 6.67157 7 7.5C7 8.32843 7.44772 9 8 9C8.55228 9 9 8.32843 9 7.5C9 6.67157 8.55228 6 8 6ZM12 6C11.4477 6 11 6.67157 11 7.5C11 8.32843 11.4477 9 12 9C12.5523 9 13 8.32843 13 7.5C13 6.67157 12.5523 6 12 6Z" fill="#252525"/>
<path fill-rule="evenodd" clip-rule="evenodd" d="M16 1C15.5858 1 15.25 1.33579 15.25 1.75V3.25H13.75C13.3358 3.25 13 3.58579 13 4C13 4.41421 13.3358 4.75 13.75 4.75H15.25V6.25C15.25 6.66421 15.5858 7 16 7C16.4142 7 16.75 6.66421 16.75 6.25V4.75H18.25C18.6642 4.75 19 4.41421 19 4C19 3.58579 18.6642 3.25 18.25 3.25H16.75V1.75C16.75 1.33579 16.4142 1 16 1Z" fill="#252525"/>
<path d="M13.9549 11.7218C14.2966 11.0129 13.5584 10.4096 12.7997 10.6185C12.0508 10.8246 11.0982 11 9.99984 11C8.91327 11.014 7.9693 10.8452 7.2241 10.6404C6.45931 10.4302 5.71042 11.0374 6.05856 11.7501C6.86359 13.398 8.32748 14.5 9.99984 14.5C11.6818 14.5 13.1528 13.3854 13.9549 11.7218Z" fill="#252525"/>
</svg>