<svg xmlns="http://www.w3.org/2000/svg" width="20" height="20" viewBox="0 0 20 20" fill="none">
    <path d="M10 2C10.5419 2 11.0713 2.05355 11.583 2.15625C11.3475 2.5991 11.1766 3.08134 11.083 3.59082C10.7308 3.53173 10.369 3.5 10 3.5C6.41015 3.5 3.5 6.41015 3.5 10C3.5 13.5899 6.41015 16.5 10 16.5C13.5899 16.5 16.5 13.5899 16.5 10C16.5 9.82372 16.4903 9.6493 16.4766 9.47656C16.9945 9.42758 17.4895 9.3003 17.9492 9.10547C17.9819 9.39919 18 9.69756 18 10C18 14.4183 14.4183 18 10 18C5.58172 18 2 14.4183 2 10C2 5.58172 5.58172 2 10 2Z" fill="#9B9B9B"/>
    <path d="M8 6C8.55228 6 9 6.67157 9 7.5C9 8.32843 8.55228 9 8 9C7.44772 9 7 8.32843 7 7.5C7 6.67157 7.44772 6 8 6ZM12 6C12.5523 6 13 6.67157 13 7.5C13 8.32843 12.5523 9 12 9C11.4477 9 11 8.32843 11 7.5C11 6.67157 11.4477 6 12 6Z" fill="#9B9B9B"/>
    <path d="M16 1C16.4142 1 16.75 1.33579 16.75 1.75V3.25H18.25C18.6642 3.25 19 3.58579 19 4C19 4.41421 18.6642 4.75 18.25 4.75H16.75V6.25C16.75 6.66421 16.4142 7 16 7C15.5858 7 15.25 6.66421 15.25 6.25V4.75H13.75C13.3358 4.75 13 4.41421 13 4C13 3.58579 13.3358 3.25 13.75 3.25H15.25V1.75C15.25 1.33579 15.5858 1 16 1Z" fill="#9B9B9B"/>
    <path d="M13.9549 11.7218C14.2966 11.0129 13.5584 10.4096 12.7997 10.6185C12.0508 10.8246 11.0982 11 9.99984 11C8.91327 11.014 7.9693 10.8452 7.2241 10.6404C6.45931 10.4302 5.71042 11.0374 6.05856 11.7501C6.86359 13.398 8.32748 14.5 9.99984 14.5C11.6818 14.5 13.1528 13.3854 13.9549 11.7218Z" fill="#9B9B9B"/>
</svg>
