<svg width="20" height="20" viewBox="0 0 20 20" fill="none" xmlns="http://www.w3.org/2000/svg">
<path fill-rule="evenodd" clip-rule="evenodd" d="M15.25 1.75C15.25 1.33579 15.5858 1 16 1C16.4142 1 16.75 1.33579 16.75 1.75V3.25H18.25C18.6642 3.25 19 3.58579 19 4C19 4.41421 18.6642 4.75 18.25 4.75H16.75V6.25C16.75 6.66421 16.4142 7 16 7C15.5858 7 15.25 6.66421 15.25 6.25V4.75H13.75C13.3358 4.75 13 4.41421 13 4C13 3.58579 13.3358 3.25 13.75 3.25H15.25V1.75ZM10 2C10.466 2 10.9228 2.03985 11.367 2.11633C11.1807 2.57405 11.0603 3.06558 11.0175 3.57917C10.686 3.52706 10.3461 3.5 10 3.5C6.41015 3.5 3.5 6.41015 3.5 10C3.5 13.5899 6.41015 16.5 10 16.5C13.5899 16.5 16.5 13.5899 16.5 10C16.5 9.65386 16.4729 9.31404 16.4208 8.98254C16.9344 8.93974 17.426 8.81932 17.8837 8.63303C17.9602 9.07723 18 9.53396 18 10C18 14.4183 14.4183 18 10 18C5.58172 18 2 14.4183 2 10C2 5.58172 5.58172 2 10 2ZM8 7C7.44772 7 7 7.44772 7 8C7 8.55228 7.44772 9 8 9C8.55228 9 9 8.55228 9 8C9 7.44772 8.55228 7 8 7ZM11 8C11 7.44772 11.4477 7 12 7C12.5523 7 13 7.44772 13 8C13 8.55228 12.5523 9 12 9C11.4477 9 11 8.55228 11 8Z" fill="#171717"/>
<path d="M13.9511 11.2734C14.0838 11.2413 14.209 11.2856 14.277 11.3487C14.3079 11.3773 14.315 11.3985 14.3162 11.4033C14.3168 11.4058 14.3172 11.4082 14.3169 11.4123C14.3166 11.4164 14.3151 11.428 14.3068 11.448C13.4567 13.4823 11.7974 14.75 9.99981 14.75C8.21001 14.75 6.55764 13.4936 5.70405 11.4746C5.69549 11.4544 5.69407 11.4428 5.69377 11.4389C5.69346 11.435 5.69378 11.4328 5.69439 11.4304C5.69561 11.4256 5.70295 11.4038 5.73506 11.3741C5.80602 11.3087 5.93588 11.2636 6.0714 11.2967C7.07906 11.5427 8.42465 11.7587 10.0046 11.7388C11.5931 11.7384 12.9439 11.5172 13.9511 11.2734Z" stroke="#171717" stroke-width="1.5"/>
</svg>