<svg width="8" height="8" viewBox="0 0 8 8" fill="none" xmlns="http://www.w3.org/2000/svg">
<path fill-rule="evenodd" clip-rule="evenodd" d="M6.63008 0.235269C6.94239 -0.0773428 7.44998 -0.0785774 7.76381 0.232511C8.07765 0.5436 8.07889 1.04921 7.76658 1.36182L5.13097 4L7.76658 6.63818C8.07889 6.95079 8.07765 7.4564 7.76381 7.76749C7.44998 8.07858 6.94239 8.07734 6.63008 7.76473L4 5.13208L1.36992 7.76473C1.05761 8.07734 0.550025 8.07858 0.236189 7.76749C-0.0776455 7.4564 -0.078885 6.95079 0.233421 6.63818L2.86903 4L0.233421 1.36182C-0.0788849 1.04921 -0.0776455 0.5436 0.23619 0.232511C0.550025 -0.0785774 1.05761 -0.0773428 1.36992 0.235269L4 2.86792L6.63008 0.235269Z" fill="#252525"/>
</svg>
