<svg xmlns="http://www.w3.org/2000/svg" width="20" height="20" viewBox="0 0 20 20" fill="none">
    <mask id="path-1-inside-1_16496_15532" fill="white">
        <path d="M11 1C12.1046 1 13 1.89543 13 3V3.5H16.75C17.1642 3.5 17.5 3.83579 17.5 4.25C17.5 4.66421 17.1642 5 16.75 5H15.9482L15.5996 15.1035L15.5752 15.4023C15.3777 16.8743 14.1171 18 12.6016 18H7.39844L7.09863 17.9854C5.71938 17.8484 4.60917 16.7761 4.4248 15.4023L4.40039 15.1035L4.05176 5H3.25C2.83579 5 2.5 4.66421 2.5 4.25C2.5 3.83579 2.83579 3.5 3.25 3.5H7V3C7 1.89543 7.89543 1 9 1H11ZM5.89941 15.0518C5.92731 15.8596 6.59015 16.5 7.39844 16.5H12.6016C13.4098 16.5 14.0727 15.8596 14.1006 15.0518L14.4473 5H5.55273L5.89941 15.0518ZM8.25 6.5C8.66421 6.5 9 6.83579 9 7.25V14.25C9 14.6642 8.66421 15 8.25 15C7.83579 15 7.5 14.6642 7.5 14.25V7.25C7.5 6.83579 7.83579 6.5 8.25 6.5ZM11.75 6.5C12.1642 6.5 12.5 6.83579 12.5 7.25V14.25C12.5 14.6642 12.1642 15 11.75 15C11.3358 15 11 14.6642 11 14.25V7.25C11 6.83579 11.3358 6.5 11.75 6.5ZM9 2.5C8.72386 2.5 8.5 2.72386 8.5 3V3.5H11.5V3C11.5 2.72386 11.2761 2.5 11 2.5H9Z"/>
    </mask>
    <path d="M11 1C12.1046 1 13 1.89543 13 3V3.5H16.75C17.1642 3.5 17.5 3.83579 17.5 4.25C17.5 4.66421 17.1642 5 16.75 5H15.9482L15.5996 15.1035L15.5752 15.4023C15.3777 16.8743 14.1171 18 12.6016 18H7.39844L7.09863 17.9854C5.71938 17.8484 4.60917 16.7761 4.4248 15.4023L4.40039 15.1035L4.05176 5H3.25C2.83579 5 2.5 4.66421 2.5 4.25C2.5 3.83579 2.83579 3.5 3.25 3.5H7V3C7 1.89543 7.89543 1 9 1H11ZM5.89941 15.0518C5.92731 15.8596 6.59015 16.5 7.39844 16.5H12.6016C13.4098 16.5 14.0727 15.8596 14.1006 15.0518L14.4473 5H5.55273L5.89941 15.0518ZM8.25 6.5C8.66421 6.5 9 6.83579 9 7.25V14.25C9 14.6642 8.66421 15 8.25 15C7.83579 15 7.5 14.6642 7.5 14.25V7.25C7.5 6.83579 7.83579 6.5 8.25 6.5ZM11.75 6.5C12.1642 6.5 12.5 6.83579 12.5 7.25V14.25C12.5 14.6642 12.1642 15 11.75 15C11.3358 15 11 14.6642 11 14.25V7.25C11 6.83579 11.3358 6.5 11.75 6.5ZM9 2.5C8.72386 2.5 8.5 2.72386 8.5 3V3.5H11.5V3C11.5 2.72386 11.2761 2.5 11 2.5H9Z" fill="#F55522"/>
    <path d="M13 3.5H12V4.5H13V3.5ZM16.75 3.5V2.5V3.5ZM16.75 5V6V5ZM15.9482 5V4H14.9822L14.9488 4.96551L15.9482 5ZM15.5996 15.1035L16.5963 15.1849L16.5982 15.1615L16.599 15.138L15.5996 15.1035ZM15.5752 15.4023L16.5663 15.5354L16.5698 15.5096L16.5719 15.4838L15.5752 15.4023ZM7.39844 18L7.34964 18.9988L7.37402 19H7.39844V18ZM7.09863 17.9854L6.99982 18.9805L7.02478 18.9829L7.04983 18.9842L7.09863 17.9854ZM4.4248 15.4023L3.42813 15.4838L3.43024 15.5096L3.43369 15.5354L4.4248 15.4023ZM4.40039 15.1035L3.40099 15.138L3.4018 15.1615L3.40371 15.1849L4.40039 15.1035ZM4.05176 5L5.05116 4.96551L5.01785 4H4.05176V5ZM3.25 5L3.25 6H3.25V5ZM3.25 3.5V2.5V3.5ZM7 3.5V4.5H8V3.5H7ZM9 1V0V1ZM5.89941 15.0518L4.90001 15.0862L4.90001 15.0863L5.89941 15.0518ZM14.1006 15.0518L15.1 15.0863L15.1 15.0862L14.1006 15.0518ZM14.4473 5L15.4467 5.03447L15.4823 4H14.4473V5ZM5.55273 5V4H4.51765L4.55333 5.03447L5.55273 5ZM9 7.25H10H9ZM9 14.25H10H9ZM7.5 14.25H6.5H7.5ZM7.5 7.25L6.5 7.25V7.25H7.5ZM12.5 7.25H13.5H12.5ZM12.5 14.25H13.5H12.5ZM11 14.25H10H11ZM11 7.25L10 7.25V7.25H11ZM9 2.5V1.5V2.5ZM8.5 3.5H7.5V4.5H8.5V3.5ZM11.5 3.5V4.5H12.5V3.5H11.5ZM11 1V2C11.5523 2 12 2.44772 12 3H13H14C14 1.34315 12.6569 0 11 0V1ZM13 3H12V3.5H13H14V3H13ZM13 3.5V4.5H16.75V3.5V2.5H13V3.5ZM16.75 3.5V4.5C16.6119 4.5 16.5 4.38807 16.5 4.25H17.5H18.5C18.5 3.2835 17.7165 2.5 16.75 2.5V3.5ZM17.5 4.25H16.5C16.5 4.11193 16.6119 4 16.75 4V5V6C17.7165 6 18.5 5.2165 18.5 4.25H17.5ZM16.75 5V4H15.9482V5V6H16.75V5ZM15.9482 5L14.9488 4.96551L14.6002 15.069L15.5996 15.1035L16.599 15.138L16.9476 5.03449L15.9482 5ZM15.5996 15.1035L14.6029 15.0221L14.5785 15.3209L15.5752 15.4023L16.5719 15.4838L16.5963 15.1849L15.5996 15.1035ZM15.5752 15.4023L14.5841 15.2693C14.4525 16.2494 13.6116 17 12.6016 17V18V19C14.6226 19 16.3028 17.4991 16.5663 15.5354L15.5752 15.4023ZM12.6016 18V17H7.39844V18V19H12.6016V18ZM7.39844 18L7.44724 17.0012L7.14743 16.9865L7.09863 17.9854L7.04983 18.9842L7.34964 18.9988L7.39844 18ZM7.09863 17.9854L7.19745 16.9902C6.27936 16.8991 5.5386 16.1835 5.41592 15.2693L4.4248 15.4023L3.43369 15.5354C3.67974 17.3687 5.15941 18.7977 6.99982 18.9805L7.09863 17.9854ZM4.4248 15.4023L5.42148 15.3209L5.39707 15.0221L4.40039 15.1035L3.40371 15.1849L3.42813 15.4838L4.4248 15.4023ZM4.40039 15.1035L5.3998 15.069L5.05116 4.96551L4.05176 5L3.05235 5.03449L3.40099 15.138L4.40039 15.1035ZM4.05176 5V4H3.25V5V6H4.05176V5ZM3.25 5L3.25 4C3.38807 4 3.5 4.11193 3.5 4.25H2.5H1.5C1.5 5.2165 2.2835 6 3.25 6L3.25 5ZM2.5 4.25H3.5C3.5 4.38807 3.38807 4.5 3.25 4.5V3.5V2.5C2.2835 2.5 1.5 3.2835 1.5 4.25H2.5ZM3.25 3.5V4.5H7V3.5V2.5H3.25V3.5ZM7 3.5H8V3H7H6V3.5H7ZM7 3H8C8 2.44772 8.44772 2 9 2V1V0C7.34315 5.96046e-08 6 1.34315 6 3H7ZM9 1V2H11V1V0H9V1ZM5.89941 15.0518L4.90001 15.0863C4.94649 16.4325 6.05122 17.5 7.39844 17.5V16.5V15.5C7.12909 15.5 6.90812 15.2866 6.89882 15.0172L5.89941 15.0518ZM7.39844 16.5V17.5H12.6016V16.5V15.5H7.39844V16.5ZM12.6016 16.5V17.5C13.9488 17.5 15.0535 16.4325 15.1 15.0863L14.1006 15.0518L13.1012 15.0172C13.0919 15.2866 12.8709 15.5 12.6016 15.5V16.5ZM14.1006 15.0518L15.1 15.0862L15.4467 5.03447L14.4473 5L13.4479 4.96553L13.1012 15.0173L14.1006 15.0518ZM14.4473 5V4H5.55273V5V6H14.4473V5ZM5.55273 5L4.55333 5.03447L4.90001 15.0862L5.89941 15.0518L6.89882 15.0173L6.55214 4.96553L5.55273 5ZM8.25 6.5V7.5C8.11193 7.5 8 7.38807 8 7.25H9H10C10 6.2835 9.2165 5.5 8.25 5.5V6.5ZM9 7.25H8V14.25H9H10V7.25H9ZM9 14.25H8C8 14.1119 8.11193 14 8.25 14V15V16C9.2165 16 10 15.2165 10 14.25H9ZM8.25 15V14C8.38807 14 8.5 14.1119 8.5 14.25H7.5H6.5C6.5 15.2165 7.2835 16 8.25 16V15ZM7.5 14.25H8.5V7.25H7.5H6.5V14.25H7.5ZM7.5 7.25L8.5 7.25C8.5 7.38807 8.38807 7.5 8.25 7.5V6.5V5.5C7.2835 5.5 6.5 6.2835 6.5 7.25L7.5 7.25ZM11.75 6.5V7.5C11.6119 7.5 11.5 7.38807 11.5 7.25H12.5H13.5C13.5 6.2835 12.7165 5.5 11.75 5.5V6.5ZM12.5 7.25H11.5V14.25H12.5H13.5V7.25H12.5ZM12.5 14.25H11.5C11.5 14.1119 11.6119 14 11.75 14V15V16C12.7165 16 13.5 15.2165 13.5 14.25H12.5ZM11.75 15V14C11.8881 14 12 14.1119 12 14.25H11H10C10 15.2165 10.7835 16 11.75 16V15ZM11 14.25H12V7.25H11H10V14.25H11ZM11 7.25L12 7.25C12 7.38807 11.8881 7.5 11.75 7.5V6.5V5.5C10.7835 5.5 10 6.2835 10 7.25L11 7.25ZM9 2.5V1.5C8.17157 1.5 7.5 2.17157 7.5 3H8.5H9.5C9.5 3.27614 9.27614 3.5 9 3.5V2.5ZM8.5 3H7.5V3.5H8.5H9.5V3H8.5ZM8.5 3.5V4.5H11.5V3.5V2.5H8.5V3.5ZM11.5 3.5H12.5V3H11.5H10.5V3.5H11.5ZM11.5 3H12.5C12.5 2.17157 11.8284 1.5 11 1.5V2.5V3.5C10.7239 3.5 10.5 3.27614 10.5 3H11.5ZM11 2.5V1.5H9V2.5V3.5H11V2.5Z" fill="#F55522" mask="url(#path-1-inside-1_16496_15532)"/>
</svg>
