<svg xmlns="http://www.w3.org/2000/svg" width="20" height="20" viewBox="0 0 20 20" fill="none">
	<path d="M9.29731 16C8.9564 16 8.67811 15.8691 8.34416 15.5747L2.85482 10.7001C2.59045 10.4646 2.5 10.2159 2.5 10C2.5 9.77754 2.58349 9.53544 2.85482 9.29335L8.34416 4.46456C8.71289 4.1374 8.94249 4 9.2834 4C9.77041 4 10.1113 4.35987 10.1113 4.79826V7.27154H10.3131C15.3224 7.27154 17.5 10.2879 17.5 15.1232C17.5 15.6859 17.1521 16 16.7834 16C16.4912 16 16.1712 15.9346 15.9276 15.5158C14.7101 13.3762 13.0125 12.735 10.3131 12.735H10.1113V15.2345C10.1113 15.6728 9.77041 16 9.29731 16Z" fill="#B6B6B6"/>
</svg>
