<svg xmlns="http://www.w3.org/2000/svg" width="20" height="20" viewBox="0 0 20 20" fill="none">
	<path d="M2.29551 16.7303C1.7887 16.2304 2.02303 15.666 2.40995 14.9618L4.42087 11.2691C4.68245 10.8069 4.88409 10.6403 5.32006 10.6295L16.8842 10.1995C17.0204 10.1941 17.0967 10.1081 17.0967 10.0006C17.0913 9.89849 17.0204 9.80711 16.8842 9.80174L5.32006 9.41473C4.86774 9.3986 4.66065 9.21585 4.42087 8.76434L2.37181 4.98026C2.00668 4.30837 1.79415 3.76548 2.29551 3.27097C2.69334 2.87858 3.32549 2.95384 3.95765 3.23334L16.9223 8.93634C17.2711 9.08685 17.549 9.25347 17.7343 9.43623C18.0886 9.78561 18.0886 10.2156 17.7343 10.565C17.549 10.7478 17.2711 10.9144 16.9223 11.0649L4.0285 16.741C3.30369 17.0581 2.68789 17.1173 2.29551 16.7303Z" fill="#252525"/>
</svg>
