<svg width="20" height="20" viewBox="0 0 20 20" fill="none" xmlns="http://www.w3.org/2000/svg">
<path d="M15.0482 16C14.4765 16 13.9597 15.8981 13.4977 15.6943C13.0356 15.4868 12.6695 15.1868 12.3994 14.7943C12.1331 14.4019 12 13.9208 12 13.3509C12 12.8604 12.0979 12.4566 12.2937 12.1396C12.4894 11.8226 12.7537 11.5717 13.0865 11.3868C13.4193 11.2019 13.7913 11.0623 14.2024 10.9679C14.6135 10.8736 15.0325 10.8019 15.4593 10.7528C15.9996 10.6925 16.4381 10.6434 16.7749 10.6057C17.1116 10.5642 17.3563 10.4981 17.509 10.4075C17.6617 10.317 17.7381 10.1698 17.7381 9.96604V9.92641C17.7381 9.43207 17.5932 9.04906 17.3034 8.77736C17.0176 8.50566 16.5908 8.36981 16.0231 8.36981C15.4319 8.36981 14.9659 8.49623 14.6253 8.74906C14.5152 8.83049 14.4162 8.91494 14.3283 9.00242C14.037 9.29233 13.6352 9.51722 13.2338 9.4291C12.7278 9.31802 12.4262 8.77129 12.74 8.35904C12.8578 8.20418 12.989 8.06437 13.1335 7.93962C13.5133 7.61132 13.9499 7.37358 14.4432 7.22641C14.9366 7.07547 15.4554 7 15.9996 7C16.3598 7 16.7416 7.04151 17.1449 7.12453C17.5521 7.20377 17.9319 7.35094 18.2843 7.56604C18.6406 7.78113 18.9323 8.08868 19.1594 8.48868C19.3865 8.88491 19.5 9.4 19.5 10.034V15.1425C19.5 15.6161 19.1161 16 18.6425 16C18.1689 16 17.785 15.6161 17.785 15.1425V14.6189H17.7146C17.601 14.8377 17.4307 15.0528 17.2036 15.2642C16.9765 15.4755 16.6848 15.6509 16.3285 15.7906C15.9722 15.9302 15.5454 16 15.0482 16ZM15.4299 14.6415C15.9154 14.6415 16.3305 14.5491 16.675 14.3642C17.0235 14.1792 17.2878 13.9377 17.4679 13.6396C17.6519 13.3377 17.7439 13.0151 17.7439 12.6717V11.5509C17.6813 11.6113 17.5599 11.6679 17.3798 11.7208C17.2036 11.7698 17.002 11.8132 16.7749 11.8509C16.5478 11.8849 16.3265 11.917 16.1112 11.9472C15.8959 11.9736 15.7157 11.9962 15.5709 12.0151C15.2302 12.0566 14.919 12.1264 14.637 12.2245C14.359 12.3226 14.1359 12.4642 13.9675 12.6491C13.8031 12.8302 13.7208 13.0717 13.7208 13.3736C13.7208 13.7925 13.8814 14.1094 14.2024 14.3245C14.5235 14.5358 14.9327 14.6415 15.4299 14.6415Z" fill="#B6B6B6"/>
<path d="M2.58413 15.4001C2.46267 15.7587 2.12616 16 1.74754 16C1.13837 16 0.712064 15.3979 0.914429 14.8233L4.49118 4.6678C4.63211 4.26767 5.01016 4 5.43439 4H6.06561C6.48983 4 6.86789 4.26767 7.00882 4.6678L10.5856 14.8235C10.788 15.398 10.3617 16 9.75269 16C9.37397 16 9.03741 15.7585 8.91611 15.3997L5.79874 6.17969H5.70699L2.58413 15.4001ZM2.69634 11.3008H8.79792V12.8242H2.69634V11.3008Z" fill="#B6B6B6"/>
</svg>
