<svg width="40" height="40" viewBox="0 0 40 40" fill="none" xmlns="http://www.w3.org/2000/svg">
<path d="M18.5 20C18.5 19.1716 19.1716 18.5 20 18.5C20.8284 18.5 21.5 19.1716 21.5 20C21.5 20.8284 20.8284 21.5 20 21.5C19.1716 21.5 18.5 20.8284 18.5 20Z" fill="#b6b6b6"/>
<path d="M9.5 20C9.5 19.1716 10.1716 18.5 11 18.5C11.8284 18.5 12.5 19.1716 12.5 20C12.5 20.8284 11.8284 21.5 11 21.5C10.1716 21.5 9.5 20.8284 9.5 20Z" fill="#b6b6b6"/>
<path d="M27.5 20C27.5 19.1716 28.1716 18.5 29 18.5C29.8284 18.5 30.5 19.1716 30.5 20C30.5 20.8284 29.8284 21.5 29 21.5C28.1716 21.5 27.5 20.8284 27.5 20Z" fill="#b6b6b6"/>
</svg>
