<svg width="16" height="14" viewBox="0 0 16 14" fill="none" xmlns="http://www.w3.org/2000/svg">
<path fill-rule="evenodd" clip-rule="evenodd" d="M6 1.00024V0L2 0.000976562V1.00024H1V2.00024L0 2.00049V7.00024L1 7.00049V8.00049H2V9.00049H3V10.0002H4V11.0005H5V12.0005H6V13H7V14H9V13L10 12.9998V12.0005H11V11.0005H12V10.0005H13V9.00049H14.0039V8.00049H15.0039V7.00049L16 7.00024V2.00049L15.0039 2.00024L15 1.00024L14 1.00012V0L10 0.000976562V1.00024H9V2.00024H7V1.00024H6ZM11 2H12H13V3H12H11V2ZM13 3H14V4V5H13V4V3Z" fill="#252525"/>
</svg>
