<svg width="22" height="22" viewBox="0 0 22 22" fill="none" xmlns="http://www.w3.org/2000/svg">
<rect width="22" height="22" rx="4" fill="#F55522"/>
<path fill-rule="evenodd" clip-rule="evenodd" d="M14.9288 9.57056C14.9288 8.18984 13.8095 7.07056 12.4288 7.07056H9.57163C8.51729 7.07056 7.6154 7.72322 7.24792 8.64658C7.30782 8.64353 7.36812 8.64199 7.42877 8.64199H9.85734C11.7903 8.64199 13.3573 10.209 13.3573 12.142V14.5706C13.3573 14.6312 13.3558 14.6915 13.3527 14.7514C14.2761 14.3839 14.9288 13.482 14.9288 12.4277V9.57056Z" fill="white"/>
<path fill-rule="evenodd" clip-rule="evenodd" d="M17.2856 7.21375C17.2856 5.83303 16.1664 4.71375 14.7856 4.71375H11.9285C10.8742 4.71375 9.97227 5.36641 9.6048 6.28977C9.66469 6.28672 9.72499 6.28517 9.78564 6.28517H12.2142C14.1472 6.28517 15.7142 7.85218 15.7142 9.78517V12.2137C15.7142 12.2744 15.7127 12.3347 15.7096 12.3946C16.633 12.0271 17.2856 11.1252 17.2856 10.0709V7.21375Z" fill="white"/>
<rect x="13.0714" y="8.92859" width="8.85714" height="8.85714" rx="3" transform="rotate(90 13.0714 8.92859)" fill="white" stroke="#F55522"/>
</svg>
