<svg width="24" height="24" viewBox="0 0 24 24" fill="none" xmlns="http://www.w3.org/2000/svg">
<rect width="24" height="24" rx="4" fill="#E51CA0"/>
<path fill-rule="evenodd" clip-rule="evenodd" d="M19.0001 6.99976C19.0001 5.89519 18.1046 4.99976 17.0001 4.99976H12.25C11.2301 4.99976 10.3885 5.76317 10.2655 6.74975H14.25C15.9068 6.74975 17.25 8.09289 17.25 9.74975V13.7343C18.2366 13.6113 19.0001 12.7697 19.0001 11.7498V6.99976ZM16.3752 10.1247C16.3752 8.74402 15.2559 7.62473 13.8752 7.62473H10.1252C9.00576 7.62473 8.05819 8.36045 7.73962 9.37472H11.6251C13.282 9.37472 14.6251 10.7179 14.6251 12.3747V16.2603C15.6394 15.9418 16.3752 14.9942 16.3752 13.8747V10.1247ZM13.75 12.2501C13.75 11.1455 12.8546 10.2501 11.75 10.2501H7C5.89543 10.2501 5 11.1455 5 12.2501V17.0001C5 18.1047 5.89543 19.0001 7 19.0001H11.75C12.8546 19.0001 13.75 18.1047 13.75 17.0001V12.2501Z" fill="white"/>
</svg>
