<svg width="22" height="22" viewBox="0 0 22 22" fill="none" xmlns="http://www.w3.org/2000/svg">
<rect width="22" height="22" rx="4" fill="#3E58EB"/>
<path fill-rule="evenodd" clip-rule="evenodd" d="M5.66665 15H15.6666C16.9553 15 18 13.9554 18 12.6666C18 11.378 16.9554 10.3334 15.6666 10.3334C15.4827 10.3334 15.3334 10.184 15.3334 9.99999C15.3334 8.34431 13.989 7 12.3334 7C11.0527 7 9.95805 7.80434 9.52802 8.93505C9.46362 9.10403 9.27668 9.19097 9.10602 9.13104C8.86428 9.04599 8.60402 9.00001 8.33336 9.00001C7.04565 9.00001 6 10.0457 6 11.3334C6 11.5173 5.85066 11.6666 5.66663 11.6666C4.74631 11.6666 4 12.4129 4 13.3334C4 14.2537 4.74631 15 5.66663 15L5.66665 15Z" fill="white"/>
</svg>
