<svg width="29" height="28" viewBox="0 0 29 28" fill="none" xmlns="http://www.w3.org/2000/svg">
<rect width="28" height="28" rx="6" transform="matrix(1 0 0 -1 0.887695 28)" fill="#ECD91B"/>
<circle r="9" transform="matrix(1 0 0 -1 14.8877 14)" fill="white"/>
<path fill-rule="evenodd" clip-rule="evenodd" d="M15.6377 19C15.6377 19.4142 15.3019 19.75 14.8877 19.75C14.4735 19.75 14.1377 19.4142 14.1377 19V10.8107L10.418 14.5303C10.1251 14.8232 9.65025 14.8232 9.35736 14.5303C9.06446 14.2374 9.06446 13.7626 9.35736 13.4697L14.8877 7.93934L20.418 13.4697C20.7109 13.7626 20.7109 14.2374 20.418 14.5303C20.1251 14.8232 19.6503 14.8232 19.3574 14.5303L15.6377 10.8107V19Z" fill="#ECD91B"/>
</svg>
