<svg width="14" height="14" viewBox="0 0 14 14" fill="none" xmlns="http://www.w3.org/2000/svg">
<circle cx="7" cy="7" r="6.5" stroke="#252525"/>
<path d="M6.40136 8.51912H7.21769V8.47897C7.23129 7.64914 7.44898 7.28776 8.04762 6.91969C8.64626 6.56166 9 6.04637 9 5.30688C9 4.26291 8.22449 3.5 7.02721 3.5C5.92517 3.5 5.05102 4.16922 5 5.30688H5.85714C5.90816 4.51721 6.46939 4.19598 7.02721 4.19598C7.66667 4.19598 8.18367 4.6109 8.18367 5.26673C8.18367 5.79876 7.87415 6.18021 7.47619 6.41778C6.80952 6.81597 6.41156 7.20411 6.40136 8.47897V8.51912ZM6.83673 10.5C7.17347 10.5 7.44898 10.229 7.44898 9.89771C7.44898 9.56644 7.17347 9.29541 6.83673 9.29541C6.5 9.29541 6.22449 9.56644 6.22449 9.89771C6.22449 10.229 6.5 10.5 6.83673 10.5Z" fill="#252525"/>
</svg>