<svg width="22px" height="22px" viewBox="0 0 22 22" xmlns="http://www.w3.org/2000/svg">
    <!-- Purple rounded square background -->
    <rect width="22" height="22" rx="4" fill="#7D5DBA"/>
    <!-- Keyboard SVG integrated and scaled down to fit within the purple square -->
    <g transform="scale(0.38) translate(5 5)">
        <path fill="white" d="M5,13H7a.9.9,0,0,1,1,1v2a.9.9,0,0,1-1,1H5a.9.9,0,0,1-1-1V14A.9.9,0,0,1,5,13Zm6,0h2a.9.9,0,0,1,1,1v2a.9.9,0,0,1-1,1H11a.9.9,0,0,1-1-1V14A.9.9,0,0,1,11,13Zm6,0h2a.9.9,0,0,1,1,1v2a.9.9,0,0,1-1,1H17a.9.9,0,0,1-1-1V14A.9.9,0,0,1,17,13Zm6,0h2a.9.9,0,0,1,1,1v2a.9.9,0,0,1-1,1H23a.9.9,0,0,1-1-1V14A.9.9,0,0,1,23,13Zm6,0h2a.9.9,0,0,1,1,1v2a.9.9,0,0,1-1,1H29a.9.9,0,0,1-1-1V14A.9.9,0,0,1,29,13Zm6,0h2a.9.9,0,0,1,1,1v2a.9.9,0,0,1-1,1H35a.9.9,0,0,1-1-1V14A.9.9,0,0,1,35,13Zm6,0h2a.9.9,0,0,1,1,1v2a.9.9,0,0,1-1,1H41a.9.9,0,0,1-1-1V14A.9.9,0,0,1,41,13ZM11,19h2a.9.9,0,0,1,1,1v2a.9.9,0,0,1-1,1H11a.9.9,0,0,1-1-1V20A.9.9,0,0,1,11,19Zm6,0h2a.9.9,0,0,1,1,1v2a.9.9,0,0,1-1,1H17a.9.9,0,0,1-1-1V20A.9.9,0,0,1,17,19Zm6,0h2a.9.9,0,0,1,1,1v2a.9.9,0,0,1-1,1H23a.9.9,0,0,1-1-1V20A.9.9,0,0,1,23,19Zm6,0h2a.9.9,0,0,1,1,1v2a.9.9,0,0,1-1,1H29a.9.9,0,0,1-1-1V20A.9.9,0,0,1,29,19Zm6,0h2a.9.9,0,0,1,1,1v2a.9.9,0,0,1-1,1H35a.9.9,0,0,1-1-1V20A.9.9,0,0,1,35,19ZM17,25h2a.9.9,0,0,1,1,1v2a.9.9,0,0,1-1,1H17a.9.9,0,0,1-1-1V26A.9.9,0,0,1,17,25Zm6,0h2a.9.9,0,0,1,1,1v2a.9.9,0,0,1-1,1H23a.9.9,0,0,1-1-1V26A.9.9,0,0,1,23,25Zm6,0h2a.9.9,0,0,1,1,1v2a.9.9,0,0,1-1,1H29a.9.9,0,0,1-1-1V26A.9.9,0,0,1,29,25Zm0,0h2a.9.9,0,0,1,1,1v2a.9.9,0,0,1-1,1H29a.9.9,0,0,1-1-1V26A.9.9,0,0,1,29,25ZM9,31H39a.9.9,0,0,1,1,1v2a.9.9,0,0,1-1,1H9a.9.9,0,0,1-1-1V32A.9.9,0,0,1,9,31Z"/>
    </g>
</svg>
