<svg width="22" height="22" viewBox="0 0 22 22" fill="none" xmlns="http://www.w3.org/2000/svg">
<g id="Icon">
<path id="Union" fill-rule="evenodd" clip-rule="evenodd" d="M14.5 6C15.6046 6 16.5 5.10457 16.5 4C16.5 2.89543 15.6046 2 14.5 2C13.3954 2 12.5 2.89543 12.5 4C12.5 5.10457 13.3954 6 14.5 6ZM15.4007 6.8626C15.1165 6.95187 14.8141 7 14.5005 7C13.2318 7 12.1471 6.21248 11.7084 5.09961H8.02464L5.75674 8.4306C5.477 8.84146 5.5833 9.40131 5.99416 9.68105C6.40503 9.96079 6.96488 9.85449 7.24462 9.44362L8.97671 6.89961H10.8055L8.59766 10.8984L8.6001 11.9883L8.61524 11.9914L8.60059 11.9995V15.0995H4.00059C3.50353 15.0995 3.10059 15.5025 3.10059 15.9995C3.10059 16.4966 3.50353 16.8995 4.00059 16.8995H10.4006V13.6233L12.6006 14.9984V18.9995C12.6006 19.4966 13.0035 19.8995 13.5006 19.8995C13.9976 19.8995 14.4006 19.4966 14.4006 18.9995V14.0007L11.3124 12.0706L13.6007 7.8755V11.8996H18.0001C18.4971 11.8996 18.9001 11.4967 18.9001 10.9996C18.9001 10.5026 18.4971 10.0996 18.0001 10.0996H15.4007V6.8626Z" fill="#252525"/>
</g>
</svg>
