<svg width="22" height="22" viewBox="0 0 22 22" fill="none" xmlns="http://www.w3.org/2000/svg">
<rect width="22" height="22" rx="4" fill="#252525"/>
<path d="M10.9564 17.5673C10.7109 16.16 9.71273 14.3927 7.81455 12.9691C6.88182 12.2655 5.93273 11.8073 5 11.6109V10.9236C6.84909 10.4818 8.66545 9.23818 9.82727 7.55273C10.4164 6.70182 10.7927 5.86727 10.9564 5H11.6436C11.9218 6.65273 13.1982 8.48546 14.9327 9.71273C15.7836 10.3182 16.6673 10.7273 17.5673 10.9236V11.6109C15.7509 11.9873 13.64 13.6073 12.5927 15.26C12.0691 16.0945 11.7582 16.8636 11.6436 17.5673H10.9564Z" fill="white"/>
<path d="M10.9564 17.5673C10.7109 16.16 9.71273 14.3927 7.81455 12.9691C6.88182 12.2655 5.93273 11.8073 5 11.6109V10.9236C6.84909 10.4818 8.66545 9.23818 9.82727 7.55273C10.4164 6.70182 10.7927 5.86727 10.9564 5H11.6436C11.9218 6.65273 13.1982 8.48546 14.9327 9.71273C15.7836 10.3182 16.6673 10.7273 17.5673 10.9236V11.6109C15.7509 11.9873 13.64 13.6073 12.5927 15.26C12.0691 16.0945 11.7582 16.8636 11.6436 17.5673H10.9564Z" fill="url(#paint0_linear_9739_24299)"/>
<defs>
<linearGradient id="paint0_linear_9739_24299" x1="9.50062" y1="-25.5518" x2="-12.0578" y2="4.34144" gradientUnits="userSpaceOnUse">
<stop offset="0.640625" stop-color="#FFEDBE" stop-opacity="0"/>
<stop offset="0.820797" stop-color="#FFEDBE"/>
<stop offset="1" stop-color="#FFBCC3"/>
</linearGradient>
</defs>
</svg>