<svg width="18" height="20" viewBox="0 0 18 20" fill="none" xmlns="http://www.w3.org/2000/svg">
<circle cx="9" cy="8.98224" r="7" fill="#6C6A5F"/>
<path d="M11 17.9823C11 19.0868 10.1046 19.9823 9 19.9823C7.89543 19.9823 7 19.0868 7 17.9823C8.30817 17.9823 9.65398 17.9822 11 17.9823Z" fill="#6C6A5F"/>
<path d="M2 9.10718H16V16.9822H2V9.10718Z" fill="#6C6A5F"/>
<path d="M11.3882 2.45367C11.3882 3.8088 10.2896 4.90735 8.93451 4.90735C7.57938 4.90735 6.48083 3.8088 6.48083 2.45367C6.48083 1.09855 7.57938 0 8.93451 0C10.2896 0 11.3882 1.09855 11.3882 2.45367Z" fill="#6C6A5F"/>
<circle cx="1.5" cy="15.4822" r="1.5" fill="#6C6A5F"/>
<circle cx="16.5" cy="15.4822" r="1.5" fill="#6C6A5F"/>
<path d="M1.5 13.9822H2V16.9822H1.5V13.9822Z" fill="#6C6A5F"/>
<path d="M16 13.9822H16.5V16.9822H16V13.9822Z" fill="#6C6A5F"/>
</svg>
