<svg width="28" height="28" viewBox="0 0 28 28" fill="none" xmlns="http://www.w3.org/2000/svg">
<rect width="28" height="28" rx="6" fill="#8C9EA5"/>
<path d="M23 13.7349C22.9942 13.6259 22.9503 13.5225 22.8762 13.443C22.802 13.3635 22.7024 13.3131 22.595 13.3007L21.4856 13.1194C21.4357 13.1111 21.3898 13.0868 21.3547 13.0501C21.3196 13.0133 21.2972 12.9661 21.2909 12.9154C21.2697 12.7778 21.2476 12.635 21.2173 12.4996C21.2075 12.4503 21.2133 12.3992 21.2337 12.3534C21.2541 12.3076 21.2881 12.2693 21.3311 12.244L22.3168 11.6914C22.4147 11.6411 22.4908 11.5561 22.5307 11.4528C22.5706 11.3495 22.5714 11.2349 22.5331 11.131L22.3622 10.6548C22.3247 10.5505 22.2505 10.4639 22.1536 10.4114C22.0568 10.3589 21.9442 10.3443 21.8374 10.3705L20.7318 10.5889C20.6824 10.5978 20.6314 10.5907 20.5862 10.5687C20.541 10.5466 20.5038 10.5108 20.48 10.4661C20.4155 10.3443 20.3454 10.2202 20.2723 10.0983C20.2458 10.0549 20.2333 10.0042 20.2367 9.95327C20.2401 9.90235 20.2592 9.85379 20.2913 9.81438L21.0269 8.95645C21.1016 8.87546 21.1446 8.76976 21.1477 8.65913C21.1508 8.5485 21.1139 8.44051 21.0438 8.35538L20.7227 7.96617C20.6529 7.88074 20.5541 7.82451 20.4456 7.80837C20.337 7.79223 20.2264 7.81733 20.1351 7.8788L19.1672 8.46546C19.1243 8.49142 19.0743 8.50275 19.0245 8.4978C18.9747 8.49284 18.9278 8.47186 18.8907 8.43794C18.7838 8.34315 18.6744 8.25185 18.5718 8.16754C18.5325 8.13619 18.504 8.09298 18.4907 8.0442C18.4773 7.99542 18.4796 7.9436 18.4974 7.89627L18.8981 6.83042C18.9417 6.72872 18.9468 6.61438 18.9124 6.50912C18.8781 6.40387 18.8066 6.31503 18.7116 6.25948L18.275 6.00219C18.1799 5.94685 18.068 5.92886 17.9606 5.95167C17.8532 5.97448 17.7579 6.03649 17.693 6.12581L16.9856 7.02306C16.9601 7.06206 16.922 7.09089 16.8778 7.1046C16.8336 7.11831 16.786 7.11604 16.7433 7.09819C16.7169 7.08727 16.4936 6.9951 16.3201 6.93657C16.2725 6.92091 16.2311 6.89028 16.202 6.84918C16.1729 6.80807 16.1576 6.75864 16.1583 6.7081L16.1751 5.5693C16.1812 5.4581 16.1468 5.34849 16.0786 5.26101C16.0103 5.17353 15.9128 5.11416 15.8043 5.09403L15.3089 5.00666C15.201 4.98784 15.0899 5.00921 14.9964 5.06682C14.9029 5.12443 14.8333 5.21435 14.8005 5.31987L14.4327 6.40364C14.416 6.45175 14.3845 6.49319 14.3427 6.52188C14.301 6.55058 14.2512 6.56501 14.2008 6.56308H13.7789C13.7288 6.56412 13.6797 6.54918 13.6385 6.5204C13.5974 6.49161 13.5662 6.45045 13.5496 6.40276L13.1835 5.32511C13.1513 5.21882 13.0818 5.12802 12.9881 5.06972C12.8943 5.01143 12.7828 4.98963 12.6742 5.00841L12.1779 5.09578C12.0701 5.11575 11.9732 5.17453 11.9051 5.26122C11.8369 5.3479 11.8023 5.45659 11.8076 5.56711L11.8249 6.70985C11.8252 6.76114 11.8091 6.81117 11.779 6.85249C11.7489 6.89382 11.7064 6.92422 11.6578 6.93919C11.5588 6.97806 11.3437 7.06106 11.2459 7.09775C11.1594 7.12921 11.0651 7.0947 10.9889 7.00602L10.2853 6.13237C10.2208 6.0425 10.1256 5.97989 10.0181 5.95659C9.91059 5.93328 9.79834 5.95093 9.70294 6.00612L9.26765 6.26079C9.17161 6.31644 9.09937 6.40601 9.06486 6.51224C9.03034 6.61846 9.036 6.73383 9.08073 6.8361L9.48097 7.89933C9.49843 7.94676 9.50072 7.99853 9.48753 8.04734C9.47433 8.09616 9.44631 8.13957 9.40741 8.17147C9.30227 8.25884 9.19453 8.34621 9.08722 8.44318C9.05037 8.47683 9.00382 8.4977 8.95439 8.50273C8.90495 8.50776 8.85522 8.49669 8.81246 8.47114L7.85578 7.87312C7.76391 7.8128 7.6534 7.78838 7.54498 7.80447C7.43655 7.82055 7.33767 7.87603 7.26688 7.96049L6.94712 8.34883C6.87609 8.43338 6.83846 8.54141 6.84141 8.65223C6.84436 8.76306 6.8877 8.86889 6.96313 8.94946L7.70217 9.80652C7.73497 9.84514 7.75457 9.8934 7.75808 9.94414C7.76158 9.99489 7.74881 10.0454 7.72164 10.0883C7.64765 10.2071 7.57712 10.332 7.51308 10.457C7.48913 10.5019 7.45169 10.538 7.40614 10.5602C7.36058 10.5823 7.30926 10.5893 7.25953 10.5801L6.15573 10.3648C6.04886 10.3387 5.93623 10.3534 5.83935 10.4058C5.74246 10.4583 5.66809 10.5449 5.63044 10.6492L5.45736 11.1244C5.41911 11.2285 5.42 11.3431 5.45988 11.4466C5.49975 11.55 5.57584 11.6351 5.67371 11.6857L6.65938 12.2383C6.70371 12.263 6.73887 12.3016 6.75955 12.3483C6.78024 12.3949 6.78533 12.4471 6.77405 12.4969L6.76366 12.5524C6.74116 12.6743 6.72039 12.7896 6.70049 12.9124C6.69361 12.9624 6.67124 13.0089 6.63658 13.0453C6.60191 13.0817 6.55674 13.1061 6.50751 13.115L5.39592 13.2963C5.28721 13.3098 5.18708 13.3628 5.11422 13.4453C5.04137 13.5279 5.00077 13.6344 5.00001 13.7449V14.2508C4.99937 14.3618 5.03956 14.4691 5.11278 14.5519C5.186 14.6347 5.28704 14.6871 5.39635 14.699L6.50751 14.8798C6.55744 14.888 6.6034 14.9123 6.6385 14.9491C6.6736 14.9859 6.69595 15.0331 6.70222 15.0838C6.72342 15.2219 6.74549 15.3643 6.77578 15.4997C6.78554 15.5489 6.77981 15.6 6.75941 15.6459C6.73901 15.6917 6.70495 15.7299 6.66198 15.7552L5.67674 16.3087C5.57886 16.3591 5.50274 16.444 5.46285 16.5473C5.42296 16.6507 5.42209 16.7652 5.46039 16.8691L5.63347 17.3453C5.67104 17.4495 5.74532 17.5361 5.84214 17.5886C5.93895 17.641 6.05151 17.6557 6.15832 17.6296L7.26385 17.4134C7.31329 17.4044 7.3643 17.4114 7.40955 17.4334C7.4548 17.4555 7.49196 17.4915 7.51568 17.5362C7.58058 17.6585 7.65025 17.7821 7.72337 17.904C7.75006 17.9474 7.76258 17.9981 7.75916 18.049C7.75574 18.1 7.73657 18.1486 7.70433 18.1879L6.96876 19.0454C6.89316 19.1258 6.84924 19.2313 6.84525 19.342C6.84127 19.4528 6.8775 19.5612 6.94712 19.6469L7.26775 20.0361C7.33753 20.1216 7.4363 20.1779 7.54488 20.1941C7.65345 20.2102 7.7641 20.1851 7.85534 20.1235L8.82328 19.5368C8.86619 19.5109 8.91624 19.4995 8.96602 19.5045C9.01581 19.5094 9.0627 19.5304 9.09977 19.5644C9.20707 19.6591 9.31611 19.7504 9.41866 19.8348C9.45798 19.8661 9.48642 19.9093 9.49988 19.9581C9.51333 20.0068 9.5111 20.0586 9.49352 20.106L9.09241 21.1719C9.04878 21.2736 9.04366 21.3879 9.07804 21.4932C9.11242 21.5984 9.1839 21.6873 9.2789 21.7428L9.71635 21.9979C9.81137 22.0533 9.92328 22.0714 10.0307 22.0486C10.138 22.0259 10.2333 21.964 10.2983 21.8747L11.0144 20.9858C11.075 20.9102 11.1702 20.8766 11.2407 20.9054C11.3913 20.9683 11.4921 21.0037 11.6708 21.064C11.7184 21.0797 11.7598 21.1103 11.789 21.1514C11.8182 21.1925 11.8336 21.2419 11.8331 21.2924L11.8158 22.4304C11.8099 22.5415 11.8443 22.651 11.9126 22.7385C11.9808 22.8259 12.0782 22.8853 12.1866 22.9056L12.682 22.993C12.79 23.012 12.9011 22.9907 12.9947 22.9331C13.0882 22.8755 13.1578 22.7854 13.1904 22.6798L13.5582 21.5978C13.5749 21.5496 13.6064 21.5082 13.6481 21.4795C13.6899 21.4507 13.7397 21.4363 13.7901 21.4383H14.212C14.2621 21.4372 14.3113 21.4521 14.3524 21.4809C14.3936 21.5097 14.4248 21.5509 14.4413 21.5987L14.8078 22.6763C14.8362 22.7699 14.8936 22.8518 14.9714 22.91C15.0493 22.9683 15.1436 22.9998 15.2405 23C15.2664 23.0001 15.2921 22.9977 15.3176 22.993L15.8138 22.9056C15.9217 22.8857 16.0186 22.8269 16.0867 22.7402C16.1548 22.6535 16.1895 22.5448 16.1842 22.4343L16.1669 21.2916C16.1666 21.2412 16.1821 21.1921 16.2113 21.1512C16.2405 21.1104 16.2818 21.08 16.3292 21.0644C16.4953 21.0081 16.6122 20.9626 16.7147 20.9225L16.7407 20.9124C16.8748 20.8657 16.9397 20.9224 16.9774 20.9696L17.7021 21.8708C17.7671 21.9599 17.8623 22.0218 17.9696 22.0445C18.0769 22.0672 18.1887 22.0492 18.2837 21.994L18.7194 21.7393C18.8147 21.6837 18.8864 21.5947 18.9208 21.4891C18.9552 21.3836 18.9499 21.2689 18.9059 21.1671L18.5061 20.1038C18.4884 20.0565 18.486 20.0047 18.4991 19.9558C18.5122 19.907 18.5402 19.8636 18.5792 19.8317C18.6843 19.7443 18.7921 19.657 18.8994 19.56C18.9365 19.5262 18.9833 19.5054 19.033 19.5005C19.0827 19.4956 19.1326 19.507 19.1754 19.5329L20.1442 20.1183C20.2361 20.1787 20.3466 20.2031 20.4551 20.187C20.5635 20.171 20.6624 20.1154 20.7331 20.0309L21.0533 19.6421C21.1243 19.5576 21.162 19.4495 21.159 19.3387C21.1561 19.2279 21.1127 19.122 21.0373 19.0415L20.2991 18.1822C20.2663 18.1436 20.2467 18.0954 20.2432 18.0446C20.2397 17.9939 20.2525 17.9433 20.2797 17.9005C20.3537 17.7821 20.4242 17.6572 20.4882 17.5318C20.5123 17.487 20.5497 17.4509 20.5953 17.4288C20.6408 17.4067 20.6921 17.3996 20.7418 17.4086L21.8443 17.6257C21.9512 17.6518 22.0638 17.6371 22.1607 17.5847C22.2575 17.5322 22.3319 17.4456 22.3696 17.3413L22.5405 16.8661C22.5787 16.7621 22.5778 16.6475 22.5379 16.5441C22.498 16.4407 22.422 16.3557 22.3241 16.3052L21.3376 15.7517C21.2939 15.7268 21.2593 15.6883 21.239 15.6419C21.2186 15.5956 21.2136 15.5439 21.2247 15.4944L21.235 15.439C21.2575 15.3171 21.2783 15.2018 21.2982 15.079C21.3051 15.029 21.3275 14.9825 21.3621 14.9461C21.3968 14.9097 21.442 14.8852 21.4912 14.8763L22.6028 14.6955C22.7118 14.6822 22.8122 14.6293 22.8853 14.5466C22.9584 14.464 22.9992 14.3572 23 14.2464V13.7349ZM10.7786 17.8411C10.7247 17.9357 10.6493 18.0161 10.5586 18.0756C10.4679 18.1352 10.3646 18.1721 10.257 18.1834C10.1494 18.1948 10.0407 18.1802 9.9398 18.1409C9.8389 18.1016 9.74867 18.0386 9.67654 17.9573C8.70175 16.8691 8.16352 15.4534 8.16688 13.9862C8.17024 12.5191 8.71495 11.1059 9.69472 10.0223C9.76722 9.94098 9.85783 9.8782 9.95908 9.83915C10.0603 9.80011 10.1693 9.78591 10.2771 9.79772C10.3848 9.80954 10.4883 9.84704 10.5788 9.90712C10.6694 9.9672 10.7446 10.0482 10.7981 10.1433L12.7733 13.6532C12.8326 13.7579 12.8638 13.8764 12.8638 13.997C12.8638 14.1176 12.8326 14.2361 12.7733 14.3408L10.7786 17.8411ZM14 19.902C13.5882 19.9021 13.1776 19.8582 12.7751 19.771C12.6702 19.7473 12.5723 19.6991 12.4893 19.6301C12.4064 19.5611 12.3407 19.4734 12.2976 19.374C12.2545 19.2746 12.2352 19.1664 12.2412 19.0581C12.2473 18.9498 12.2785 18.8444 12.3324 18.7505L14.3228 15.2559C14.3827 15.1506 14.469 15.0631 14.5731 15.0023C14.6772 14.9415 14.7953 14.9095 14.9156 14.9095H18.9024C19.0098 14.9094 19.1157 14.9347 19.2116 14.9836C19.3075 15.0325 19.3906 15.1034 19.4542 15.1908C19.5178 15.2781 19.5602 15.3794 19.5778 15.4863C19.5955 15.5933 19.5879 15.7029 19.5558 15.8063C18.799 18.1792 16.5962 19.902 14 19.902ZM14.325 12.7424L12.3558 9.2417C12.3024 9.1477 12.2717 9.04233 12.2661 8.93413C12.2606 8.82593 12.2803 8.71792 12.3237 8.61883C12.3671 8.51975 12.4331 8.43237 12.5161 8.36377C12.5992 8.29516 12.6971 8.24724 12.8019 8.22389C13.1958 8.14008 13.5974 8.09791 14 8.09809C16.5962 8.09809 18.799 9.82093 19.5545 12.1951C19.5866 12.2985 19.5942 12.4082 19.5765 12.5151C19.5589 12.6221 19.5165 12.7233 19.4529 12.8106C19.3893 12.898 19.3062 12.969 19.2103 13.0178C19.1144 13.0667 19.0085 13.0921 18.9011 13.0919H14.9203C14.7993 13.0921 14.6804 13.0599 14.5758 12.9985C14.4712 12.9371 14.3846 12.8487 14.325 12.7424Z" fill="white"/>
</svg>
