<svg width="20" height="20" viewBox="0 0 20 20" fill="none" xmlns="http://www.w3.org/2000/svg">
<path fill-rule="evenodd" clip-rule="evenodd" d="M2 10C2.66667 8 5.2 4 10 4C14.8 4 17.3333 8 18 10C17.3333 12 14.8 16 10 16C5.2 16 2.66667 12 2 10ZM7.25 10C7.25 8.48122 8.48122 7.25 10 7.25C11.5188 7.25 12.75 8.48122 12.75 10C12.75 11.5188 11.5188 12.75 10 12.75C8.48122 12.75 7.25 11.5188 7.25 10ZM10 5.75C7.65279 5.75 5.75 7.65279 5.75 10C5.75 12.3472 7.65279 14.25 10 14.25C12.3472 14.25 14.25 12.3472 14.25 10C14.25 7.65279 12.3472 5.75 10 5.75Z" fill="#949494"/>
</svg>