<svg width="20" height="20" viewBox="0 0 20 20" fill="none" xmlns="http://www.w3.org/2000/svg">
<path fill-rule="evenodd" clip-rule="evenodd" d="M4.53033 16.5303L16.5303 4.53033C16.8232 4.23744 16.8232 3.76256 16.5303 3.46967C16.2374 3.17678 15.7626 3.17678 15.4697 3.46967L3.46967 15.4697C3.17678 15.7626 3.17678 16.2374 3.46967 16.5303C3.76256 16.8232 4.23744 16.8232 4.53033 16.5303ZM10 4C11.1059 4 12.0914 4.21232 12.9616 4.56357L11.5021 6.02306C11.0351 5.84658 10.5288 5.75 10 5.75C7.65279 5.75 5.75 7.65279 5.75 10C5.75 10.5288 5.84658 11.0351 6.02306 11.5021L4.11245 13.4127C2.99535 12.2383 2.30383 10.9115 2 10C2.66667 8 5.2 4 10 4ZM15.8876 6.58732L13.9769 8.49793C14.1534 8.96495 14.25 9.47119 14.25 10C14.25 12.3472 12.3472 14.25 10 14.25C9.47119 14.25 8.96495 14.1534 8.49793 13.9769L7.03845 15.4364C7.90858 15.7877 8.89413 16 10 16C14.8 16 17.3333 12 18 10C17.6962 9.08852 17.0046 7.76165 15.8876 6.58732ZM10 7.25C10.0886 7.25 10.1763 7.25419 10.2627 7.26239L7.26239 10.2627C7.25419 10.1763 7.25 10.0886 7.25 10C7.25 8.48122 8.48122 7.25 10 7.25ZM12.7376 9.73726L9.73726 12.7376C9.82374 12.7458 9.91138 12.75 10 12.75C11.5188 12.75 12.75 11.5188 12.75 10C12.75 9.91138 12.7458 9.82374 12.7376 9.73726Z" fill="#B6B6B6"/>
</svg>
