<svg width="24" height="24" viewBox="0 0 24 24" fill="none" xmlns="http://www.w3.org/2000/svg">
<rect width="24" height="24" rx="4" fill="#2AA7EE"/>
<path fill-rule="evenodd" clip-rule="evenodd" d="M13.5 12.2092C14.9659 11.6159 16 10.1787 16 8.5C16 6.29086 14.2091 4.5 12 4.5C9.79086 4.5 8 6.29086 8 8.5C8 10.1787 9.03408 11.6159 10.5 12.2092V17.9805L12 19.5L13.5 17.9805V17.2325L12.375 16.1104L13.5 14.9883L12.375 13.8662L13.5 12.7442V12.2092ZM13.25 7.75C13.25 8.44036 12.6904 9 12 9C11.3096 9 10.75 8.44036 10.75 7.75C10.75 7.05964 11.3096 6.5 12 6.5C12.6904 6.5 13.25 7.05964 13.25 7.75Z" fill="white"/>
</svg>
