<svg width="16" height="20" viewBox="0 0 16 20" fill="none" xmlns="http://www.w3.org/2000/svg">
<path fill-rule="evenodd" clip-rule="evenodd" d="M11 11.0625V5.0625C11 3.40565 9.65685 2.0625 8 2.0625C6.34315 2.0625 5 3.40565 5 5.0625V11.0625C5 12.7194 6.34315 14.0625 8 14.0625C9.65685 14.0625 11 12.7194 11 11.0625ZM8 0.0625C5.23858 0.0625 3 2.30108 3 5.0625V11.0625C3 13.8239 5.23858 16.0625 8 16.0625C10.7614 16.0625 13 13.8239 13 11.0625V5.0625C13 2.30108 10.7614 0.0625 8 0.0625Z" fill="#6C6A5F"/>
<path d="M0 9.98882C0 9.43654 0.447715 8.98882 1 8.98882H15C15.5523 8.98882 16 9.43654 16 9.98882V18.9375C16 19.4898 15.5523 19.9375 15 19.9375H1C0.447715 19.9375 0 19.4898 0 18.9375V9.98882Z" fill="#6C6A5F"/>
</svg>
