<svg width="24" height="24" viewBox="0 0 24 24" fill="none" xmlns="http://www.w3.org/2000/svg">
<rect width="24" height="24" rx="4" fill="#5DD400"/>
<path fill-rule="evenodd" clip-rule="evenodd" d="M10 11H14V8.5C14 7.39543 13.1046 6.5 12 6.5C10.8954 6.5 10 7.39543 10 8.5V11ZM8.5 11H7.5C6.94772 11 6.5 11.4477 6.5 12V18C6.5 18.5523 6.94771 19 7.5 19H16.5C17.0523 19 17.5 18.5523 17.5 18V12C17.5 11.4477 17.0523 11 16.5 11H15.5V8.5C15.5 6.567 13.933 5 12 5C10.067 5 8.5 6.567 8.5 8.5V11Z" fill="white"/>
</svg>
