<svg width="24" height="24" viewBox="0 0 24 24" fill="none" xmlns="http://www.w3.org/2000/svg">
<rect width="24" height="24" rx="4" fill="#3E58EB"/>
<path fill-rule="evenodd" clip-rule="evenodd" d="M5.5 8.5C5.5 7.11929 6.61929 6 8 6H16C17.3807 6 18.5 7.11929 18.5 8.5C18.5 9.88071 17.3807 11 16 11H8C6.61929 11 5.5 9.88071 5.5 8.5ZM9.5 8.5C9.5 9.05228 9.05228 9.5 8.5 9.5C7.94772 9.5 7.5 9.05228 7.5 8.5C7.5 7.94772 7.94772 7.5 8.5 7.5C9.05228 7.5 9.5 7.94772 9.5 8.5ZM5.5 15.5C5.5 14.1193 6.61929 13 8 13H16C17.3807 13 18.5 14.1193 18.5 15.5C18.5 16.8807 17.3807 18 16 18H8C6.61929 18 5.5 16.8807 5.5 15.5ZM9.5 15.5C9.5 16.0523 9.05228 16.5 8.5 16.5C7.94772 16.5 7.5 16.0523 7.5 15.5C7.5 14.9477 7.94772 14.5 8.5 14.5C9.05228 14.5 9.5 14.9477 9.5 15.5Z" fill="white"/>
</svg>
