<svg width="22" height="22" viewBox="0 0 22 22" fill="none" xmlns="http://www.w3.org/2000/svg">
<rect width="22" height="22" rx="4" fill="#3E58EB"/>
<path fill-rule="evenodd" clip-rule="evenodd" d="M4.5 7.5C4.5 6.11929 5.61929 5 7 5H15C16.3807 5 17.5 6.11929 17.5 7.5C17.5 8.88071 16.3807 10 15 10H7C5.61929 10 4.5 8.88071 4.5 7.5ZM8.5 7.5C8.5 8.05228 8.05228 8.5 7.5 8.5C6.94772 8.5 6.5 8.05228 6.5 7.5C6.5 6.94772 6.94772 6.5 7.5 6.5C8.05228 6.5 8.5 6.94772 8.5 7.5ZM4.5 14.5C4.5 13.1193 5.61929 12 7 12H15C16.3807 12 17.5 13.1193 17.5 14.5C17.5 15.8807 16.3807 17 15 17H7C5.61929 17 4.5 15.8807 4.5 14.5ZM8.5 14.5C8.5 15.0523 8.05228 15.5 7.5 15.5C6.94772 15.5 6.5 15.0523 6.5 14.5C6.5 13.9477 6.94772 13.5 7.5 13.5C8.05228 13.5 8.5 13.9477 8.5 14.5Z" fill="white"/>
</svg>
