<svg width="18" height="18" viewBox="0 0 18 18" fill="none" xmlns="http://www.w3.org/2000/svg">
<path d="M0 6.99207C0 6.43978 0.447715 5.99207 1 5.99207H17C17.5523 5.99207 18 6.43978 18 6.99207V16.9921C18 17.5444 17.5523 17.9921 17 17.9921H1C0.447716 17.9921 0 17.5443 0 16.9921V6.99207Z" fill="#6C6A5F"/>
<path d="M1 3.99597C1 3.44369 1.44772 2.99597 2 2.99597H16C16.5523 2.99597 17 3.44369 17 3.99597V4.99597H1V3.99597Z" fill="#6C6A5F"/>
<path d="M2.00024 1C2.00024 0.447715 2.44796 0 3.00024 0H15.0002C15.5525 0 16.0002 0.447715 16.0002 1V2H2.00024V1Z" fill="#6C6A5F"/>
</svg>