<svg width="28" height="28" viewBox="0 0 28 28" fill="none" xmlns="http://www.w3.org/2000/svg">
<rect width="28" height="28" rx="6" fill="#AB50CC"/>
<path d="M7 13.0039C7 12.4516 7.44772 12.0039 8 12.0039H20C20.5523 12.0039 21 12.4516 21 13.0039V21.0039C21 21.5562 20.5523 22.0039 20 22.0039H8C7.44772 22.0039 7 21.5562 7 21.0039V13.0039Z" fill="white"/>
<path d="M8 10.0039C8 9.45162 8.44772 9.00391 9 9.00391H19C19.5523 9.00391 20 9.45162 20 10.0039V11.0039H8V10.0039Z" fill="white"/>
<path d="M9 7.00391C9 6.45162 9.44772 6.00391 10 6.00391H18C18.5523 6.00391 19 6.45162 19 7.00391V8.00391H9V7.00391Z" fill="white"/>
</svg>
