<svg width="20" height="20" viewBox="0 0 20 20" fill="none" xmlns="http://www.w3.org/2000/svg">
<path fill-rule="evenodd" clip-rule="evenodd" d="M10 18.9902C14.9706 18.9902 19 14.9608 19 9.99023C19 5.01967 14.9706 0.990234 10 0.990234C5.02944 0.990234 1 5.01967 1 9.99023C1 14.9608 5.02944 18.9902 10 18.9902ZM6.48659 6.44494C6.7802 6.15276 7.25507 6.15392 7.54725 6.44753L10.0078 8.92014L12.4684 6.44753C12.7606 6.15392 13.2354 6.15276 13.529 6.44494C13.8226 6.73712 13.8238 7.21199 13.5316 7.5056L11.0659 9.9834L13.5316 12.4612C13.8238 12.7548 13.8226 13.2297 13.529 13.5219C13.2354 13.814 12.7606 13.8129 12.4684 13.5193L10.0078 11.0467L7.54725 13.5193C7.25507 13.8129 6.7802 13.814 6.48659 13.5219C6.19298 13.2297 6.19182 12.7548 6.484 12.4612L8.94973 9.9834L6.484 7.5056C6.19182 7.21199 6.19298 6.73712 6.48659 6.44494Z" fill="#a09f92"/>
</svg>