<svg width="16" height="16" viewBox="0 0 16 16" fill="none" xmlns="http://www.w3.org/2000/svg">
<path d="M16 2.70086C15.4113 2.98224 14.7787 3.17174 14.1147 3.25716C14.7927 2.82002 15.3133 2.12734 15.558 1.30187C14.924 1.70671 14.2213 2.001 13.4733 2.15964C12.8753 1.4727 12.0213 1.04346 11.0773 1.04346C8.958 1.04346 7.40067 3.17246 7.87933 5.38257C5.152 5.23542 2.73333 3.82853 1.114 1.6902C0.254 3.27869 0.668 5.35673 2.12933 6.40902C1.592 6.39036 1.08533 6.23173 0.643333 5.96686C0.607333 7.60416 1.69733 9.13595 3.276 9.47691C2.814 9.61185 2.308 9.64344 1.79333 9.5372C2.21067 10.9412 3.42267 11.9627 4.86 11.9914C3.48 13.1564 1.74133 13.6768 0 13.4557C1.45267 14.4584 3.17867 15.0435 5.032 15.0435C11.1267 15.0435 14.57 9.50131 14.362 4.53054C15.0033 4.03166 15.56 3.40933 16 2.70086Z" fill="#a09f92"/>
</svg>