<svg xmlns="http://www.w3.org/2000/svg" width="20" height="20" viewBox="0 0 20 20" fill="none">
    <path d="M7.10938 12.75C7.36464 13.2959 7.69423 13.7996 8.08398 14.25H2.65625C2.29381 14.25 2 13.9142 2 13.5C2 13.0858 2.29381 12.75 2.65625 12.75H7.10938ZM6.57715 9C6.5268 9.326 6.5 9.6599 6.5 10C6.5 10.1683 6.50892 10.3349 6.52148 10.5H2.65625C2.29381 10.5 2 10.1642 2 9.75C2 9.33579 2.29381 9 2.65625 9H6.57715ZM8.56543 5.25C8.0975 5.68705 7.69487 6.19222 7.37207 6.75H2.65625C2.29381 6.75 2 6.41421 2 6C2 5.58579 2.29381 5.25 2.65625 5.25H8.56543Z" fill="#377AFF"/>
    <path d="M12.5694 15C12.2871 15 12.08 14.8352 12.0188 14.5621L11.7835 13.5593C11.6188 13.5028 11.4635 13.4416 11.3224 13.3757L10.4518 13.9124C10.2212 14.0584 9.94824 14.0348 9.75529 13.8418L9.15294 13.2392C8.96 13.0461 8.93176 12.7637 9.08706 12.533L9.61882 11.6667C9.55294 11.5207 9.49176 11.3701 9.44471 11.2241L8.43765 10.984C8.16471 10.9228 8 10.7156 8 10.4379V9.5904C8 9.31262 8.16471 9.10546 8.43765 9.04426L9.43529 8.80414C9.48706 8.63465 9.55294 8.48399 9.60941 8.35687L9.07765 7.47175C8.92706 7.23635 8.94588 6.97269 9.14353 6.77495L9.75529 6.17232C9.95294 5.9887 10.1976 5.96045 10.4329 6.09228L11.3176 6.63371C11.4588 6.56309 11.6188 6.50188 11.7835 6.44539L12.0188 5.44256C12.08 5.16478 12.2871 5 12.5694 5H13.4306C13.7082 5 13.92 5.16478 13.9765 5.43785L14.2165 6.4548C14.3859 6.5113 14.5365 6.5725 14.6729 6.63842L15.5624 6.09228C15.7976 5.96045 16.0424 5.99341 16.24 6.17232L16.8518 6.77495C17.0494 6.97269 17.0682 7.23635 16.9176 7.47175L16.3859 8.35687C16.4424 8.48399 16.5082 8.63465 16.5647 8.80414L17.5624 9.04426C17.8353 9.10546 18 9.31262 18 9.5904V10.4379C18 10.7156 17.8353 10.9228 17.5624 10.984L16.5553 11.2241C16.5082 11.3701 16.4424 11.5207 16.3765 11.6667L16.9082 12.533C17.0635 12.7637 17.0353 13.0461 16.8424 13.2392L16.24 13.8418C16.0471 14.0348 15.7788 14.0584 15.5482 13.9124L14.6729 13.3757C14.5318 13.4416 14.3765 13.5028 14.2165 13.5593L13.9765 14.5621C13.92 14.8352 13.7082 15 13.4306 15H12.5694ZM13.0024 11.6478C13.9059 11.6478 14.6447 10.904 14.6447 9.99529C14.6447 9.09605 13.9059 8.35217 13.0024 8.35217C12.0941 8.35217 11.3506 9.09605 11.3506 9.99529C11.3506 10.904 12.0941 11.6478 13.0024 11.6478Z" fill="#377AFF"/>
</svg>
