<svg width="20" height="20" viewBox="0 0 20 20" fill="none" xmlns="http://www.w3.org/2000/svg">
<path d="M12.25 2C12.6642 2 13 2.33579 13 2.75V4C14.6569 4 16 5.34315 16 7H17.25C17.6642 7 18 7.33579 18 7.75C18 8.16421 17.6642 8.5 17.25 8.5H16V11.5H17.25C17.6642 11.5 18 11.8358 18 12.25C18 12.6642 17.6642 13 17.25 13H16C16 14.6569 14.6569 16 13 16V17.25C13 17.6642 12.6642 18 12.25 18C11.8358 18 11.5 17.6642 11.5 17.25V16H8.5V17.25C8.5 17.6642 8.16421 18 7.75 18C7.33579 18 7 17.6642 7 17.25V16C5.34315 16 4 14.6569 4 13H2.75C2.33579 13 2 12.6642 2 12.25C2 11.8358 2.33579 11.5 2.75 11.5H4V8.5H2.75C2.33579 8.5 2 8.16421 2 7.75C2 7.33579 2.33579 7 2.75 7H4C4 5.34315 5.34315 4 7 4V2.75C7 2.33579 7.33579 2 7.75 2C8.16421 2 8.5 2.33579 8.5 2.75V4H11.5V2.75C11.5 2.33579 11.8358 2 12.25 2ZM7 5.5C6.17157 5.5 5.5 6.17157 5.5 7V13C5.5 13.8284 6.17157 14.5 7 14.5H13C13.8284 14.5 14.5 13.8284 14.5 13V7C14.5 6.17157 13.8284 5.5 13 5.5H7ZM11 7C12.1046 7 13 7.89543 13 9V11C13 12.1046 12.1046 13 11 13H9C7.89543 13 7 12.1046 7 11V9C7 7.89543 7.89543 7 9 7H11Z" fill="#9B9B9B"/>
</svg>
