<svg width="21" height="21" viewBox="0 0 21 21" fill="none" xmlns="http://www.w3.org/2000/svg">
<path d="M12.5 6.67383L12.5078 6.82715C12.5846 7.58355 13.2233 8.17383 14 8.17383H18.5V14.1738C18.5 15.2784 17.6046 16.1738 16.5 16.1738H13.5V11.0381C13.5 10.2517 13.1908 9.49653 12.6396 8.93555L8.84375 5.07129C8.73699 4.96262 8.62042 4.8656 8.5 4.77539V4.17383C8.5 3.06926 9.39543 2.17383 10.5 2.17383H12.5V6.67383ZM13.5 2.23438C13.871 2.32677 14.2117 2.5235 14.4775 2.80762L17.96 6.5293C18.1363 6.71775 18.2726 6.93737 18.3643 7.17383H14C13.7583 7.17383 13.5563 7.00238 13.5098 6.77441L13.5 6.67383V2.23438Z" fill="#9B9B9B"/>
<path d="M6.5 5.17383V9.67383L6.50781 9.82715C6.58461 10.5836 7.22334 11.1738 8 11.1738H12.5V17.1738C12.5 18.2784 11.6046 19.1738 10.5 19.1738H4.5C3.39543 19.1738 2.5 18.2784 2.5 17.1738V7.17383C2.5 6.06926 3.39543 5.17383 4.5 5.17383H6.5ZM7.5 5.23438C7.87096 5.32677 8.21169 5.5235 8.47754 5.80762L11.96 9.5293C12.1363 9.71775 12.2726 9.93737 12.3643 10.1738H8C7.75829 10.1738 7.55629 10.0024 7.50977 9.77441L7.5 9.67383V5.23438Z" fill="#9B9B9B"/>
</svg>
