<svg xmlns="http://www.w3.org/2000/svg" width="40" height="40" viewBox="0 0 40 40" fill="none">
    <path d="M22 16.5C22 17.3284 22.6716 18 23.5 18H28V24C28 25.1046 27.1046 26 26 26H23V20.8643C23 20.0778 22.6908 19.3227 22.1396 18.7617L18.3438 14.8975C18.237 14.7888 18.1204 14.6918 18 14.6016V14C18 12.8954 18.8954 12 20 12H22V16.5ZM23 12.0605C23.371 12.1529 23.7117 12.3497 23.9775 12.6338L27.46 16.3555C27.6363 16.5439 27.7726 16.7635 27.8643 17H23.5C23.2239 17 23 16.7761 23 16.5V12.0605Z" fill="#252525"/>
    <path d="M16 15V19.5C16 20.3284 16.6716 21 17.5 21H22V27C22 28.1046 21.1046 29 20 29H14C12.8954 29 12 28.1046 12 27V17C12 15.8954 12.8954 15 14 15H16ZM17 15.0605C17.371 15.1529 17.7117 15.3497 17.9775 15.6338L21.46 19.3555C21.6363 19.5439 21.7726 19.7635 21.8643 20H17.5C17.2239 20 17 19.7761 17 19.5V15.0605Z" fill="#252525"/>
</svg>
