<svg xmlns="http://www.w3.org/2000/svg" width="24" height="24" viewBox="0 0 24 24" fill="none">
    <path d="M16.5 12.5C18.433 12.5 20 14.067 20 16C20 17.933 18.433 19.5 16.5 19.5H7.5L7.32031 19.4951C5.47083 19.4016 4 17.8727 4 16C4 14.067 5.567 12.5 7.5 12.5H16.5ZM7.5 13.5C6.11929 13.5 5 14.6193 5 16C5 17.3807 6.11929 18.5 7.5 18.5H16.5C17.8807 18.5 19 17.3807 19 16C19 14.6193 17.8807 13.5 16.5 13.5H7.5ZM8.25 14.75C8.94036 14.75 9.5 15.3096 9.5 16C9.5 16.6904 8.94036 17.25 8.25 17.25C7.55964 17.25 7 16.6904 7 16C7 15.3096 7.55964 14.75 8.25 14.75ZM16.5 4.5C18.433 4.5 20 6.067 20 8C20 9.933 18.433 11.5 16.5 11.5H7.5L7.32031 11.4951C5.47083 11.4016 4 9.87273 4 8C4 6.067 5.567 4.5 7.5 4.5H16.5ZM7.5 5.5C6.11929 5.5 5 6.61929 5 8C5 9.38071 6.11929 10.5 7.5 10.5H16.5C17.8807 10.5 19 9.38071 19 8C19 6.61929 17.8807 5.5 16.5 5.5H7.5ZM8.25 6.75C8.94036 6.75 9.5 7.30964 9.5 8C9.5 8.69036 8.94036 9.25 8.25 9.25C7.55964 9.25 7 8.69036 7 8C7 7.30964 7.55964 6.75 8.25 6.75Z" fill="#252525"/>
</svg>
