<svg width="22" height="22" viewBox="0 0 22 22" fill="none" xmlns="http://www.w3.org/2000/svg">
<rect width="22" height="22" rx="4" transform="matrix(1 0 0 -1 0 22)" fill="#ECD91B"/>
<circle cx="7.07143" cy="7.07143" r="7.07143" transform="matrix(1 0 0 -1 3.92856 18.0714)" fill="white"/>
<path fill-rule="evenodd" clip-rule="evenodd" d="M11.5893 14.9285C11.5893 15.254 11.3255 15.5178 11 15.5178C10.6746 15.5178 10.4107 15.254 10.4107 14.9285V8.49406L7.48812 11.4167C7.25799 11.6468 6.88488 11.6468 6.65475 11.4167C6.42461 11.1865 6.42461 10.8134 6.65475 10.5833L10.5829 6.6551C10.5832 6.65484 10.5834 6.65458 10.5837 6.65431L11 6.23802L11.4159 6.65394C11.4164 6.65445 11.4169 6.65496 11.4175 6.65547L15.3453 10.5833C15.5754 10.8134 15.5754 11.1865 15.3453 11.4167C15.1151 11.6468 14.742 11.6468 14.5119 11.4167L11.5893 8.49406V14.9285Z" fill="#ECD91B"/>
</svg>
