<svg width="20" height="20" viewBox="0 0 20 20" fill="none" xmlns="http://www.w3.org/2000/svg">
<path d="M8.87608 2.61233C9.52641 2.06721 10.4738 2.06721 11.1241 2.61233L17.4815 7.94143C17.799 8.20751 17.8414 8.68063 17.5753 8.99807C17.3093 9.31543 16.8361 9.35671 16.5187 9.09084L10.1603 3.76174C10.0674 3.68414 9.93276 3.68414 9.83994 3.76174L3.48155 9.09084C3.1641 9.35671 2.69092 9.31543 2.42491 8.99807C2.15885 8.68063 2.20122 8.20751 2.51866 7.94143L8.87608 2.61233Z" fill="#9B9B9B"/>
<path d="M9.35938 5.53284C9.73022 5.2238 10.2698 5.2238 10.6406 5.53284L16 9.99866V15.9987C16 16.5509 15.5523 16.9987 15 16.9987H5C4.44772 16.9987 4 16.5509 4 15.9987V9.99866L9.35938 5.53284ZM8.5 10.9996C8.22398 10.9996 8.00019 11.2237 8 11.4996V15.4996H12V11.4996C11.9998 11.2237 11.776 10.9996 11.5 10.9996H8.5Z" fill="#9B9B9B"/>
<path d="M14 3.5C14 3.22386 14.2239 3 14.5 3H15.5C15.7761 3 16 3.22386 16 3.5V7H15C14.4477 7 14 6.55228 14 6V3.5Z" fill="#9B9B9B"/>
</svg>
