<svg width="22" height="22" viewBox="0 0 22 22" fill="none" xmlns="http://www.w3.org/2000/svg">
<rect width="22" height="22" rx="4" fill="#FFB522"/>
<circle cx="11" cy="11" r="7.07143" fill="white"/>
<path fill-rule="evenodd" clip-rule="evenodd" d="M11.5893 7.07146C11.5893 6.74601 11.3255 6.48218 11 6.48218C10.6746 6.48218 10.4107 6.74601 10.4107 7.07146V13.5059L7.48812 10.5833C7.25799 10.3532 6.88488 10.3532 6.65475 10.5833C6.42461 10.8135 6.42461 11.1866 6.65475 11.4167L10.5829 15.3449C10.5832 15.3452 10.5834 15.3454 10.5837 15.3457L11 15.762L11.4159 15.3461C11.4164 15.3455 11.4169 15.345 11.4175 15.3445L15.3453 11.4167C15.5754 11.1866 15.5754 10.8135 15.3453 10.5833C15.1151 10.3532 14.742 10.3532 14.5119 10.5833L11.5893 13.5059V7.07146Z" fill="#FFB522"/>
</svg>
