<svg width="21" height="21" viewBox="0 0 21 21" fill="none" xmlns="http://www.w3.org/2000/svg">
<path d="M10.5 9.17383C11.8503 9.17383 13.096 9.62029 14.0986 10.373C12.0193 10.979 10.5 12.8989 10.5 15.1738C10.5 15.8851 10.6493 16.5613 10.917 17.1738H6.09961C5.21626 17.1736 4.50021 16.4576 4.5 15.5742V15.1738C4.5 11.8601 7.18629 9.17383 10.5 9.17383ZM10.5 2.17383C12.0188 2.17383 13.25 3.51697 13.25 5.17383C13.25 6.83068 12.0188 8.17383 10.5 8.17383C8.98122 8.17383 7.75 6.83068 7.75 5.17383C7.75 3.51697 8.98122 2.17383 10.5 2.17383Z" fill="#9B9B9B"/>
<path fill-rule="evenodd" clip-rule="evenodd" d="M15.5 19.1738C17.7091 19.1738 19.5 17.383 19.5 15.1738C19.5 12.9647 17.7091 11.1738 15.5 11.1738C13.2909 11.1738 11.5 12.9647 11.5 15.1738C11.5 17.383 13.2909 19.1738 15.5 19.1738ZM16.25 13.4238C16.25 13.0096 15.9142 12.6738 15.5 12.6738C15.0858 12.6738 14.75 13.0096 14.75 13.4238V14.4238H13.75C13.3358 14.4238 13 14.7596 13 15.1738C13 15.588 13.3358 15.9238 13.75 15.9238H14.75V16.9238C14.75 17.338 15.0858 17.6738 15.5 17.6738C15.9142 17.6738 16.25 17.338 16.25 16.9238V15.9238H17.25C17.6642 15.9238 18 15.588 18 15.1738C18 14.7596 17.6642 14.4238 17.25 14.4238H16.25V13.4238Z" fill="#9B9B9B"/>
</svg>