<svg xmlns="http://www.w3.org/2000/svg" width="20" height="20" viewBox="0 0 20 20" fill="none">
    <path fill-rule="evenodd" clip-rule="evenodd" d="M3.29731 14.9475C3.33245 14.9466 3.37138 14.9457 3.41441 14.9457H3.99099C4.22948 14.9457 4.46661 14.8724 4.74472 14.7865C5.13897 14.6647 5.61556 14.5174 6.29505 14.5174C7.77156 14.5174 8.96929 14.8974 10.1521 15.2726C11.3058 15.6385 12.4452 16 13.8153 16C15.045 16 15.5023 15.8608 16.1014 15.5823C16.6453 15.3283 17 14.9024 17 14.1488V10.9911V5.83481C17 5.39249 16.6374 5.13857 16.1802 5.13857C16.0458 5.13857 15.8703 5.18023 15.6415 5.23456C15.2128 5.33635 14.5969 5.48259 13.7128 5.48259C12.3437 5.48259 11.2068 5.12162 10.0549 4.75591C8.87235 4.38045 7.67406 4 6.19257 4C4.96284 4 4.49775 4.13925 3.89865 4.41775C3.35473 4.67167 3 5.09761 3 5.843V11V14.6637C3 14.9548 3.06854 14.9531 3.29731 14.9475ZM4.1982 10.2176C4.28777 10.0873 4.41081 9.98131 4.57355 9.89246C4.83125 9.75248 5.03456 9.66135 5.29471 9.59997C5.56222 9.53686 5.91281 9.5 6.46453 9.5C7.72225 9.5 8.74683 9.8698 9.83433 10.2732L9.90206 10.2984C10.9568 10.6899 12.0856 11.1089 13.4476 11.1089C14.1296 11.1089 14.6551 11.0073 15.0529 10.9071C15.1663 10.8785 15.2886 10.8447 15.389 10.8169L15.389 10.8169C15.4462 10.8011 15.4963 10.7873 15.5335 10.7775C15.6681 10.7421 15.7208 10.7356 15.7387 10.7356C15.765 10.7356 15.7886 10.7376 15.8097 10.7412V14.116C15.6993 14.3863 15.045 14.7631 13.8153 14.7631C12.5504 14.7631 11.463 14.4189 10.3363 14.0621C9.12468 13.6786 7.86752 13.2805 6.29505 13.2805C5.42793 13.2805 4.63964 13.387 4.1982 13.5754V10.2176Z" fill="#252525"/>
</svg>
