<svg xmlns="http://www.w3.org/2000/svg" width="24" height="24" viewBox="0 0 24 24" fill="none">
    <path d="M9.8125 5.5C10.302 5.5 10.7613 5.73866 11.042 6.13965L11.6562 7.01758L12.0508 7.45312C12.1142 7.48159 12.1824 7.49999 12.2539 7.5H17.0996C17.5958 7.5 18.0766 7.68749 18.4346 8.02832C18.7933 8.36997 18.9999 8.83881 19 9.33301V16.667C18.9999 17.1612 18.7933 17.63 18.4346 17.9717C18.0766 18.3125 17.5958 18.5 17.0996 18.5H5.90039C5.40422 18.5 4.92339 18.3125 4.56543 17.9717C4.2067 17.63 4.00009 17.1612 4 16.667V7.33301C4.00009 6.83881 4.2067 6.36997 4.56543 6.02832C4.92339 5.68749 5.40422 5.5 5.90039 5.5H9.8125ZM5 16.667C5.00009 16.8797 5.08878 17.0888 5.25488 17.2471C5.422 17.4062 5.65404 17.5 5.90039 17.5H17.0996C17.346 17.5 17.578 17.4062 17.7451 17.2471C17.9112 17.0888 17.9999 16.8797 18 16.667V9.33301C17.9999 9.12027 17.9112 8.9112 17.7451 8.75293C17.578 8.59377 17.346 8.5 17.0996 8.5H5V16.667Z" fill="#252525"/>
</svg>
