<svg width="20" height="20" viewBox="0 0 20 20" fill="none" xmlns="http://www.w3.org/2000/svg">
    <path d="M9.28452 2.31604C9.66844 1.89465 10.3316 1.89465 10.7155 2.31604L11.3357 2.99677C11.5904 3.27631 11.9845 3.38192 12.3449 3.26718L13.2224 2.98775C13.7655 2.81478 14.3398 3.14634 14.4616 3.70324L14.6584 4.60287C14.7392 4.9723 15.0277 5.26084 15.3971 5.34164L16.2968 5.53839C16.8537 5.66019 17.1852 6.23447 17.0122 6.77765L16.7328 7.65513C16.6181 8.01546 16.7237 8.40962 17.0032 8.6643L17.684 9.28452C18.1053 9.66844 18.1053 10.3316 17.684 10.7155L17.0032 11.3357C16.7237 11.5904 16.6181 11.9845 16.7328 12.3449L17.0122 13.2224C17.1852 13.7655 16.8537 14.3398 16.2968 14.4616L15.3971 14.6584C15.0277 14.7392 14.7392 15.0277 14.6584 15.3971L14.4616 16.2968C14.3398 16.8537 13.7655 17.1852 13.2224 17.0122L12.3449 16.7328C11.9845 16.6181 11.5904 16.7237 11.3357 17.0032L10.7155 17.684C10.3316 18.1053 9.66844 18.1053 9.28452 17.684L8.6643 17.0032C8.40962 16.7237 8.01546 16.6181 7.65513 16.7328L6.77765 17.0122C6.23447 17.1852 5.66019 16.8537 5.53839 16.2968L5.34164 15.3971C5.26084 15.0277 4.9723 14.7392 4.60287 14.6584L3.70324 14.4616C3.14634 14.3398 2.81478 13.7655 2.98775 13.2224L3.26718 12.3449C3.38192 11.9845 3.27631 11.5904 2.99677 11.3357L2.31604 10.7155C1.89465 10.3316 1.89465 9.66844 2.31604 9.28452L2.99677 8.6643C3.27631 8.40962 3.38192 8.01546 3.26718 7.65513L2.98775 6.77765C2.81478 6.23447 3.14634 5.66019 3.70324 5.53839L4.60287 5.34164C4.9723 5.26084 5.26084 4.9723 5.34164 4.60287L5.53839 3.70324C5.66019 3.14634 6.23447 2.81478 6.77765 2.98775L7.65513 3.26718C8.01546 3.38192 8.40962 3.27631 8.6643 2.99677L9.28452 2.31604Z" fill="#9B9B9B"/>
    <path d="M6.97534 9.9901L9.45184 12.4288L13.0248 7.57031" stroke="white" stroke-width="1.20989" stroke-linecap="round"/>
</svg>
