<svg xmlns="http://www.w3.org/2000/svg" width="24" height="24" viewBox="0 0 24 24" fill="none">
    <path fill-rule="evenodd" clip-rule="evenodd" d="M12 4.5C12.2761 4.5 12.5 4.72386 12.5 5V14.0858L15.2929 11.2929C15.4882 11.0976 15.8047 11.0976 16 11.2929C16.1953 11.4882 16.1953 11.8047 16 12L12.3536 15.6464C12.1583 15.8417 11.8417 15.8417 11.6464 15.6464L8 12C7.80474 11.8047 7.80474 11.4882 8 11.2929C8.19526 11.0976 8.51184 11.0976 8.70711 11.2929L11.5 14.0858V5C11.5 4.72386 11.7239 4.5 12 4.5ZM5 15.5C5.27614 15.5 5.5 15.7239 5.5 16V17.5C5.5 17.7652 5.60536 18.0196 5.79289 18.2071C5.98043 18.3946 6.23478 18.5 6.5 18.5H17.5C17.7652 18.5 18.0196 18.3946 18.2071 18.2071C18.3946 18.0196 18.5 17.7652 18.5 17.5V16C18.5 15.7239 18.7239 15.5 19 15.5C19.2761 15.5 19.5 15.7239 19.5 16V17.5C19.5 18.0304 19.2893 18.5391 18.9142 18.9142C18.5391 19.2893 18.0304 19.5 17.5 19.5H6.5C5.96957 19.5 5.46086 19.2893 5.08579 18.9142C4.71071 18.5391 4.5 18.0304 4.5 17.5V16C4.5 15.7239 4.72386 15.5 5 15.5Z" fill="#9B9B9B"/>
</svg>
