<svg xmlns="http://www.w3.org/2000/svg" width="20" height="20" viewBox="0 0 20 20" fill="none">
    <path fill-rule="evenodd" clip-rule="evenodd" d="M4.46466 13.305C4.46466 13.832 4.67277 14 5.21859 14H5.26963C5.81544 14 6.02356 13.832 6.02356 13.305V11.2888L7.81414 12.2969C7.98691 12.3847 8.12435 12.442 8.25 12.442C8.46597 12.442 8.61518 12.2969 8.79581 12.0334L8.8233 11.9914C8.9411 11.8196 9 11.663 9 11.5332C9 11.3193 8.84686 11.1589 8.57592 11.0138L6.73037 9.97518L8.57199 8.98616C8.84686 8.84487 8.98822 8.68831 8.98822 8.47446C8.98822 8.34463 8.92932 8.1957 8.83115 8.02387L8.80366 7.97422C8.62696 7.69547 8.46597 7.55418 8.25393 7.55418C8.12827 7.55418 7.98298 7.61146 7.81021 7.69928L6.02356 8.7074V6.69499C6.02356 6.16802 5.81544 6 5.26963 6H5.21859C4.67277 6 4.46466 6.16802 4.46466 6.69499V8.70358L2.68194 7.69928C2.50916 7.60382 2.34817 7.54272 2.21466 7.54272C1.99869 7.54272 1.82199 7.68783 1.68455 7.98186L1.66099 8.02387C1.57461 8.19952 1.51963 8.35227 1.51963 8.4821C1.51963 8.68449 1.64921 8.84105 1.92408 8.98998L3.76571 9.97518L1.92016 11.0138C1.64921 11.1589 1.5 11.3155 1.5 11.5255C1.5 11.6554 1.56283 11.8119 1.66492 11.9876L1.68848 12.022C1.8534 12.3007 2.01047 12.4458 2.23429 12.4458C2.35995 12.4458 2.50916 12.3847 2.67801 12.2969L4.46466 11.2926V13.305ZM13.9647 13.305C13.9647 13.832 14.1728 14 14.7186 14H14.7696C15.3154 14 15.5236 13.832 15.5236 13.305V11.2888L17.3141 12.2969C17.4869 12.3847 17.6243 12.442 17.75 12.442C17.966 12.442 18.1152 12.2969 18.2958 12.0334L18.3233 11.9914C18.4411 11.8196 18.5 11.663 18.5 11.5332C18.5 11.3193 18.3469 11.1589 18.0759 11.0138L16.2304 9.97518L18.072 8.98616C18.3469 8.84487 18.4882 8.68831 18.4882 8.47446C18.4882 8.34463 18.4293 8.1957 18.3312 8.02387L18.3037 7.97422C18.127 7.69547 17.966 7.55418 17.7539 7.55418C17.6283 7.55418 17.483 7.61146 17.3102 7.69928L15.5236 8.7074V6.69499C15.5236 6.16802 15.3154 6 14.7696 6H14.7186C14.1728 6 13.9647 6.16802 13.9647 6.69499V8.70358L12.1819 7.69928C12.0092 7.60382 11.8482 7.54272 11.7147 7.54272C11.4987 7.54272 11.322 7.68783 11.1846 7.98186L11.161 8.02387C11.0746 8.19952 11.0196 8.35227 11.0196 8.4821C11.0196 8.68449 11.1492 8.84105 11.4241 8.98998L13.2657 9.97518L11.4202 11.0138C11.1492 11.1589 11 11.3155 11 11.5255C11 11.6554 11.0628 11.8119 11.1649 11.9876L11.1885 12.022C11.3534 12.3007 11.5105 12.4458 11.7343 12.4458C11.8599 12.4458 12.0092 12.3847 12.178 12.2969L13.9647 11.2926V13.305Z" fill="#252525"/>
</svg>
