<svg width="20" height="20" viewBox="0 0 20 20" fill="none" xmlns="http://www.w3.org/2000/svg">
<path d="M12.3506 16.0625C12.3747 16.0626 12.398 16.0692 12.419 16.0811C12.4401 16.093 12.4582 16.1101 12.4708 16.1309C12.4832 16.1516 12.4906 16.1751 12.4913 16.1992C12.4919 16.2233 12.4859 16.2472 12.4747 16.2686C12.2342 16.7159 11.877 17.0898 11.4415 17.3506C11.0058 17.6114 10.5076 17.7496 10.0001 17.75C9.49266 17.7495 8.99508 17.6112 8.55962 17.3506C8.12407 17.0898 7.76687 16.7159 7.52642 16.2686C7.51516 16.2472 7.50915 16.2234 7.50982 16.1992C7.51051 16.1749 7.51777 16.1507 7.53033 16.1299C7.54287 16.1093 7.56106 16.0919 7.58208 16.0801C7.60311 16.0684 7.62735 16.0624 7.65142 16.0625H12.3506ZM10.0001 2C10.9421 2 11.7778 2.68505 12.0831 3.70801C12.0911 3.7174 12.1006 3.72539 12.1114 3.73145C12.96 4.0809 13.6038 4.55441 14.0801 5.17773C14.4001 5.59561 14.6421 6.08222 14.8047 6.63379L6.50298 14.9365H4.5772C4.04995 14.9365 3.58788 14.6523 3.37115 14.1953C3.26942 13.9824 3.23093 13.745 3.25982 13.5107C3.28876 13.2764 3.38364 13.0548 3.53423 12.873C3.59246 12.8014 3.64998 12.7328 3.70611 12.665C4.47956 11.7306 4.9463 11.1656 4.94634 8.5166C4.94634 6.11191 5.90926 4.54645 7.8897 3.73047C7.90039 3.72449 7.90987 3.71618 7.91802 3.70703C8.2233 2.6852 9.05808 2.00008 10.0001 2ZM15.0538 8.51758C15.0538 11.1656 15.5222 11.7305 16.295 12.666C16.351 12.7336 16.4078 12.804 16.4659 12.874C16.6165 13.0561 16.7126 13.278 16.7413 13.5127C16.7699 13.7473 16.7302 13.9852 16.628 14.1982C16.4105 14.6531 15.9515 14.9365 15.4268 14.9365H8.62408L15.0528 8.50684C15.0528 8.51031 15.0538 8.5141 15.0538 8.51758Z" fill="#9B9B9B"/>
<path fill-rule="evenodd" clip-rule="evenodd" d="M16.2803 3.21967C16.5732 3.51256 16.5732 3.98744 16.2803 4.28033L3.28033 17.2803C2.98744 17.5732 2.51256 17.5732 2.21967 17.2803C1.92678 16.9874 1.92678 16.5126 2.21967 16.2197L15.2197 3.21967C15.5126 2.92678 15.9874 2.92678 16.2803 3.21967Z" fill="#9B9B9B"/>
</svg>
