<svg xmlns="http://www.w3.org/2000/svg" width="20" height="20" viewBox="0 0 20 20" fill="none">
    <path d="M16.2162 12.8742C16.1579 12.8039 16.1006 12.7336 16.0444 12.6657C15.2716 11.7302 14.8041 11.1656 14.8041 8.51727C14.8041 7.14617 14.4764 6.02117 13.8304 5.17742C13.3541 4.5541 12.7102 4.08125 11.8615 3.7318C11.8506 3.72572 11.8409 3.71774 11.8327 3.70824C11.5275 2.6852 10.6922 2 9.75009 2C8.80799 2 7.97303 2.6852 7.66778 3.70719C7.65963 3.71634 7.65002 3.72406 7.63933 3.73004C5.65889 4.54602 4.69642 6.11152 4.69642 8.51621C4.69642 11.1656 4.22959 11.7302 3.4561 12.6646C3.3999 12.7325 3.34264 12.8014 3.28433 12.8731C3.13371 13.0549 3.03828 13.2761 3.00933 13.5105C2.98038 13.7449 3.01913 13.9827 3.12099 14.1957C3.33772 14.6527 3.79964 14.9364 4.32689 14.9364H15.1771C15.7019 14.9364 16.1607 14.6531 16.3781 14.1982C16.4804 13.9851 16.5195 13.7471 16.4908 13.5124C16.4621 13.2778 16.3668 13.0563 16.2162 12.8742ZM9.75009 17.75C10.2577 17.7496 10.7557 17.6117 11.1913 17.3509C11.6269 17.0902 11.9839 16.7163 12.2244 16.2689C12.2357 16.2474 12.2413 16.2234 12.2406 16.1992C12.24 16.1749 12.233 16.1513 12.2205 16.1305C12.208 16.1097 12.1903 16.0926 12.1692 16.0806C12.1481 16.0687 12.1243 16.0625 12.1001 16.0625H7.40082C7.37655 16.0624 7.35268 16.0686 7.33153 16.0805C7.31037 16.0924 7.29265 16.1096 7.2801 16.1304C7.26754 16.1511 7.26057 16.1748 7.25988 16.1991C7.25918 16.2234 7.26478 16.2474 7.27612 16.2689C7.51657 16.7162 7.8735 17.0901 8.30905 17.3508C8.74461 17.6116 9.24255 17.7495 9.75009 17.75Z" fill="#9B9B9B"/>
</svg>
