<svg xmlns="http://www.w3.org/2000/svg" width="20" height="20" viewBox="0 0 20 20" fill="none">
    <path d="M7.49996 15.75C7.49996 16.0261 7.2761 16.25 6.99996 16.25C6.72382 16.25 6.49996 16.0261 6.49996 15.75V13.207L2.35348 17.3535C2.15822 17.5488 1.84171 17.5488 1.64645 17.3535C1.45118 17.1583 1.45118 16.8417 1.64645 16.6465L5.79293 12.5H3.24996C2.97382 12.5 2.74996 12.2761 2.74996 12C2.74996 11.7239 2.97382 11.5 3.24996 11.5H7.49996V15.75ZM15 3C16.6568 3 18 4.34315 18 6V14L17.9961 14.1543C17.9157 15.7394 16.6051 17 15 17H8.99996C9.23109 16.6923 9.42698 16.3569 9.58297 16H15C16.1045 16 17 15.1046 17 14V7H2.99996V9.41602C2.64289 9.57203 2.30774 9.7688 1.99996 10V6C1.99996 4.34315 3.34311 3 4.99996 3H15Z" fill="#9B9B9B"/>
</svg>
