<svg width="17" height="17" viewBox="0 0 17 17" fill="none" xmlns="http://www.w3.org/2000/svg">
<path fill-rule="evenodd" clip-rule="evenodd" d="M13.4073 5.61783C14.1993 4.82581 14.1993 3.54167 13.4073 2.74964C12.6153 1.95761 11.3311 1.95761 10.5391 2.74964L7.31237 5.97636L5.87828 4.54226L9.10499 1.31555C10.6891 -0.268512 13.2573 -0.268512 14.8414 1.31555C16.4254 2.8996 16.4254 5.46787 14.8414 7.05193L11.6147 10.2786L10.1806 8.84455L13.4073 5.61783ZM1.21746 14.9395C-0.366595 13.3554 -0.366597 10.7871 1.21746 9.20307L4.44418 5.97636L5.87828 7.41046L2.65156 10.6372C1.85953 11.4292 1.85953 12.7133 2.65156 13.5054C3.44359 14.2974 4.72772 14.2974 5.51975 13.5054L8.74647 10.2786L10.1806 11.7127L6.95385 14.9395C5.36979 16.5235 2.80152 16.5235 1.21746 14.9395Z" fill="#6C6A5F"/>
<path d="M9.48595 5.28171C9.88197 4.8857 10.524 4.8857 10.9201 5.28171C11.3161 5.67773 11.3161 6.3198 10.9201 6.71581L6.61776 11.0181C6.22175 11.4141 5.57968 11.4141 5.18367 11.0181C4.78765 10.6221 4.78765 9.98002 5.18367 9.584L9.48595 5.28171Z" fill="#6C6A5F"/>
</svg>
