<svg width="20" height="20" viewBox="0 0 20 20" fill="none" xmlns="http://www.w3.org/2000/svg">
<g clip-path="url(#clip0_4926_10390)">
<circle cx="10" cy="9.99941" r="8.5" transform="rotate(45 10 9.99941)" stroke="#ebebeb"/>
<path d="M13.3585 13.3589C11.6525 15.0649 9.72112 16.188 7.99747 16.6416C6.26007 17.0988 4.83648 16.8577 3.98931 16.0105C3.14214 15.1633 2.90104 13.7397 3.35825 12.0023C3.81185 10.2787 4.93495 8.34736 6.64096 6.64134C8.34697 4.93533 10.2783 3.81223 12.002 3.35864C13.7394 2.90143 15.163 3.14252 16.0101 3.98969C16.8573 4.83687 17.0984 6.26046 16.6412 7.99785C16.1876 9.72151 15.0645 11.6528 13.3585 13.3589Z" stroke="#ebebeb"/>
<path d="M15.6572 4.3418C15.6572 4.3418 8.10018 11.8992 4.34352 15.6555" stroke="#ebebeb"/>
<path d="M4.34277 4.3418C4.34277 4.3418 11.9001 11.8988 15.6565 15.6555" stroke="#ebebeb"/>
</g>
<defs>
<clipPath id="clip0_4926_10390">
<rect width="20" height="20" fill="white"/>
</clipPath>
</defs>
</svg>
