<svg width="20" height="20" viewBox="0 0 20 20" fill="none" xmlns="http://www.w3.org/2000/svg">
<g clip-path="url(#clip0_2834_14592)">
<circle cx="9.99926" cy="10" r="7.55556" transform="rotate(-45 9.99926 10)" stroke="#d4d4d4" stroke-width="0.888889"/>
<path d="M12.1595 7.92763C13.6888 9.45686 14.7864 11.0981 15.335 12.5002C15.6096 13.2019 15.7387 13.8234 15.7302 14.3297C15.7217 14.833 15.5792 15.1931 15.3415 15.4308C15.1038 15.6685 14.7437 15.811 14.2404 15.8195C13.7341 15.828 13.1126 15.6989 12.4109 15.4243C11.0088 14.8757 9.36755 13.7781 7.83831 12.2488C6.30908 10.7196 5.21144 9.07836 4.6628 7.67628C4.38822 6.97456 4.2591 6.35307 4.26765 5.84676C4.27616 5.34342 4.4186 4.98337 4.65633 4.74565C4.89406 4.50792 5.25411 4.36547 5.75744 4.35697C6.26375 4.34842 6.88525 4.47753 7.58696 4.75212C8.98905 5.30076 10.6303 6.39839 12.1595 7.92763Z" stroke="#d4d4d4" stroke-width="0.888889"/>
<path d="M4.9707 15.0283C4.9707 15.0283 11.6881 8.31066 15.0273 4.97169" stroke="#d4d4d4" stroke-width="0.888889"/>
</g>
<defs>
<clipPath id="clip0_2834_14592">
<rect width="20" height="20" fill="white"/>
</clipPath>
</defs>
</svg>