<svg width="20" height="20" viewBox="0 0 20 20" fill="none" xmlns="http://www.w3.org/2000/svg">
<path fill-rule="evenodd" clip-rule="evenodd" d="M10 5.5C11.1046 5.5 12 4.60457 12 3.5C12 2.39543 11.1046 1.5 10 1.5C8.89543 1.5 8 2.39543 8 3.5C8 4.60457 8.89543 5.5 10 5.5ZM12.5 10C12.5 11.3807 11.3807 12.5 10 12.5C8.61929 12.5 7.5 11.3807 7.5 10C7.5 8.61929 8.61929 7.5 10 7.5C11.3807 7.5 12.5 8.61929 12.5 10ZM12 16.5C12 17.6046 11.1046 18.5 10 18.5C8.89543 18.5 8 17.6046 8 16.5C8 15.3954 8.89543 14.5 10 14.5C11.1046 14.5 12 15.3954 12 16.5ZM18 13.5C18 14.6046 17.1046 15.5 16 15.5C14.8954 15.5 14 14.6046 14 13.5C14 12.3954 14.8954 11.5 16 11.5C17.1046 11.5 18 12.3954 18 13.5ZM4 8.5C5.10457 8.5 6 7.60457 6 6.5C6 5.39543 5.10457 4.5 4 4.5C2.89543 4.5 2 5.39543 2 6.5C2 7.60457 2.89543 8.5 4 8.5ZM18 6.5C18 7.60457 17.1046 8.5 16 8.5C14.8954 8.5 14 7.60457 14 6.5C14 5.39543 14.8954 4.5 16 4.5C17.1046 4.5 18 5.39543 18 6.5ZM4 15.5C5.10457 15.5 6 14.6046 6 13.5C6 12.3954 5.10457 11.5 4 11.5C2.89543 11.5 2 12.3954 2 13.5C2 14.6046 2.89543 15.5 4 15.5Z" fill="white"/>
</svg>
