<svg xmlns="http://www.w3.org/2000/svg" width="20" height="20" viewBox="0 0 20 20" fill="none">
    <path d="M5.26953 6C5.81534 6 6.02344 6.16834 6.02344 6.69531V8.70703L7.81055 7.69922C7.98318 7.61148 8.12833 7.55372 8.25391 7.55371C8.46595 7.55371 8.62701 7.69585 8.80371 7.97461L8.83105 8.02344C8.92922 8.19528 8.98828 8.34478 8.98828 8.47461C8.98822 8.68834 8.84697 8.84509 8.57227 8.98633L6.73047 9.97559L8.57617 11.0137C8.84703 11.1588 9 11.3194 9 11.5332C8.99999 11.663 8.94099 11.8194 8.82324 11.9912L8.7959 12.0332C8.61527 12.2967 8.46597 12.4424 8.25 12.4424C8.1244 12.4424 7.98711 12.3846 7.81445 12.2969L6.02344 11.2891V13.3047C6.02344 13.8317 5.81534 14 5.26953 14H5.21875C4.67294 14 4.46484 13.8317 4.46484 13.3047V11.293L2.67773 12.2969C2.50901 12.3846 2.35996 12.4463 2.23438 12.4463C2.01055 12.4463 1.8534 12.3002 1.68848 12.0215L1.66504 11.9873C1.563 11.8117 1.5 11.6552 1.5 11.5254C1.50007 11.3155 1.64911 11.1587 1.91992 11.0137L3.76562 9.97559L1.92383 8.99023C1.64917 8.8414 1.51967 8.68463 1.51953 8.48242C1.51953 8.35259 1.57475 8.19909 1.66113 8.02344L1.68457 7.98145C1.82198 7.68765 1.99896 7.54297 2.21484 7.54297C2.34825 7.54302 2.50904 7.60388 2.68164 7.69922L4.46484 8.70312V6.69531C4.46484 6.16834 4.67294 6 5.21875 6H5.26953ZM14.7695 6C15.3153 6 15.5234 6.16834 15.5234 6.69531V8.70703L17.3105 7.69922C17.4832 7.61148 17.6283 7.55372 17.7539 7.55371C17.9659 7.55371 18.127 7.69585 18.3037 7.97461L18.3311 8.02344C18.4292 8.19528 18.4883 8.34478 18.4883 8.47461C18.4882 8.68834 18.347 8.84509 18.0723 8.98633L16.2305 9.97559L18.0762 11.0137C18.347 11.1588 18.5 11.3194 18.5 11.5332C18.5 11.663 18.441 11.8194 18.3232 11.9912L18.2959 12.0332C18.1153 12.2967 17.966 12.4424 17.75 12.4424C17.6244 12.4424 17.4871 12.3846 17.3145 12.2969L15.5234 11.2891V13.3047C15.5234 13.8317 15.3153 14 14.7695 14H14.7188C14.1729 14 13.9648 13.8317 13.9648 13.3047V11.293L12.1777 12.2969C12.009 12.3846 11.86 12.4463 11.7344 12.4463C11.5106 12.4463 11.3534 12.3002 11.1885 12.0215L11.165 11.9873C11.063 11.8117 11 11.6552 11 11.5254C11.0001 11.3155 11.1491 11.1587 11.4199 11.0137L13.2656 9.97559L11.4238 8.99023C11.1492 8.8414 11.0197 8.68463 11.0195 8.48242C11.0195 8.35259 11.0747 8.19909 11.1611 8.02344L11.1846 7.98145C11.322 7.68765 11.499 7.54297 11.7148 7.54297C11.8482 7.54302 12.009 7.60388 12.1816 7.69922L13.9648 8.70312V6.69531C13.9648 6.16834 14.1729 6 14.7188 6H14.7695Z" fill="#D4D4D4"/>
</svg>
