<svg xmlns="http://www.w3.org/2000/svg" width="28" height="28" viewBox="0 0 28 28" fill="none">
    <path d="M12.1748 15.3799C13.2167 16.3059 14.7872 16.3059 15.8291 15.3799L16.5234 14.7617L20.3154 19.6924C19.9178 19.887 19.4726 20 19 20H9C8.52635 20 8.07997 19.8869 7.68164 19.6914L11.4766 14.7588L12.1748 15.3799ZM21.8389 10.0361C21.9416 10.3389 22 10.6625 22 11V17C22 17.6387 21.7982 18.2293 21.458 18.7158L17.6475 13.7627L21.8389 10.0361ZM10.3525 13.7598L6.54004 18.7148C6.20047 18.2286 6 17.638 6 17V11C6 10.6615 6.0578 10.3367 6.16113 10.0332L10.3525 13.7598ZM19 8C19.7712 8 20.4724 8.29328 21.0039 8.77148L14.832 14.2588C14.3586 14.6793 13.6453 14.6793 13.1719 14.2588L6.99707 8.77051C7.52841 8.29285 8.22927 8 9 8H19Z" fill="#D4D4D4"/>
</svg>
