<svg width="25" height="24" viewBox="0 0 25 24" fill="none" xmlns="http://www.w3.org/2000/svg">
<path d="M6.99878 4V20H12.4836C15.6849 20 17.7445 18.5455 17.7445 15.5245V15.435C17.7445 13.3538 16.8714 12.1678 14.5432 11.6084C16.3565 10.9818 16.961 9.68392 16.961 8.22937V8.13986C16.961 4.98462 14.7894 4 11.812 4H6.99878ZM12.4388 18.4783H8.90167V12.5035H12.1702C14.767 12.5035 15.8416 13.4434 15.8416 15.4126V15.5021C15.8416 17.4713 14.767 18.4783 12.4388 18.4783ZM11.812 10.9818H8.90167V5.52168H11.7672C14.0059 5.52168 15.0581 6.26014 15.0581 8.07273V8.16224C15.0581 10.1315 14.1626 10.9818 11.812 10.9818Z" fill="#2C2B27"/>
</svg>