<svg width="24" height="24" viewBox="0 0 24 24" fill="none" xmlns="http://www.w3.org/2000/svg">
<path fill-rule="evenodd" clip-rule="evenodd" d="M6.104 4.27069H12.2912C15.748 4.27069 17.5095 5.68048 17.5095 8.43293V8.52244C17.5095 10.2231 16.7168 11.4315 14.9554 11.9462C17.0031 12.3714 18.104 13.5574 18.104 15.7057V15.7952C18.104 18.749 16.2545 20.2707 12.5774 20.2707H6.104V4.27069ZM12.0269 17.7644C13.7884 17.7644 14.5811 16.9588 14.5811 15.5042V15.4147C14.5811 13.9154 13.7884 13.1769 11.8508 13.1769H9.58291V17.7644H12.0269ZM11.7187 10.8497C13.4581 10.8497 14.1187 10.2231 14.1187 8.79094V8.70143C14.1187 7.35877 13.3701 6.75458 11.6967 6.75458H9.58291V10.8497H11.7187Z" fill="#2c2b27"/>
</svg>