<svg width="20" height="20" viewBox="0 0 20 20" fill="none" xmlns="http://www.w3.org/2000/svg">
<path d="M5.33691 3V17H10.1361C12.9373 17 14.7394 15.7273 14.7394 13.0839V13.0056C14.7394 11.1846 13.9755 10.1469 11.9383 9.65734C13.5249 9.10909 14.0538 7.97343 14.0538 6.7007V6.62238C14.0538 3.86154 12.1537 3 9.54846 3H5.33691ZM10.0969 15.6685H7.00194V10.4406H9.86187C12.1341 10.4406 13.0744 11.2629 13.0744 12.986V13.0643C13.0744 14.7874 12.1341 15.6685 10.0969 15.6685ZM9.54846 9.10909H7.00194V4.33147H9.50928C11.4681 4.33147 12.3888 4.97762 12.3888 6.56364V6.64196C12.3888 8.36504 11.6053 9.10909 9.54846 9.10909Z" fill="#252525"/>
</svg>