<svg width="24" height="24" viewBox="0 0 24 24" fill="none" xmlns="http://www.w3.org/2000/svg">
<path d="M6.99683 4V20H12.4816C15.683 20 17.7426 18.5455 17.7426 15.5245V15.435C17.7426 13.3538 16.8695 12.1678 14.5412 11.6084C16.3546 10.9818 16.959 9.68392 16.959 8.22937V8.13986C16.959 4.98462 14.7875 4 11.81 4H6.99683ZM12.4369 18.4783H8.89972V12.5035H12.1682C14.7651 12.5035 15.8397 13.4434 15.8397 15.4126V15.5021C15.8397 17.4713 14.7651 18.4783 12.4369 18.4783ZM11.81 10.9818H8.89972V5.52168H11.7652C14.0039 5.52168 15.0561 6.26014 15.0561 8.07273V8.16224C15.0561 10.1315 14.1606 10.9818 11.81 10.9818Z" fill="#2C2B27"/>
</svg>