<svg width="24" height="24" viewBox="0 0 24 24" fill="none" xmlns="http://www.w3.org/2000/svg">
<path fill-rule="evenodd" clip-rule="evenodd" d="M10.1214 5.29322C10.5119 5.68375 10.5119 6.31691 10.1213 6.70743L4.8285 12L10.1213 17.2926C10.5119 17.6831 10.5119 18.3163 10.1214 18.7068C9.73086 19.0973 9.09769 19.0974 8.70716 18.7068L2 12L8.70716 5.29318C9.09769 4.90267 9.73086 4.90268 10.1214 5.29322Z" fill="#2c2b27"/>
<path fill-rule="evenodd" clip-rule="evenodd" d="M13.8786 5.29322C13.4881 5.68375 13.4881 6.31691 13.8787 6.70743L19.1715 12L13.8787 17.2926C13.4881 17.6831 13.4881 18.3163 13.8786 18.7068C14.2691 19.0973 14.9023 19.0974 15.2928 18.7068L22 12L15.2928 5.29318C14.9023 4.90267 14.2691 4.90268 13.8786 5.29322Z" fill="#2c2b27"/>
</svg>
