<svg width="20" height="20" viewBox="0 0 20 20" fill="none" xmlns="http://www.w3.org/2000/svg">
<path d="M9.55705 8.8872C9.91534 8.98989 10.2533 9.18235 10.5356 9.46458C11.4229 10.3519 11.4229 11.7905 10.5356 12.6778L8.39342 14.8199C7.50612 15.7072 6.06751 15.7072 5.18021 14.8199C4.2929 13.9326 4.2929 12.494 5.18021 11.6067L6.6812 10.1057C6.50451 9.44404 6.47968 8.75023 6.6067 8.07951C6.48338 8.17549 6.36463 8.28015 6.25128 8.3935L4.10913 10.5357C2.63029 12.0145 2.63029 14.4122 4.10913 15.891C5.58798 17.3699 7.98565 17.3699 9.4645 15.891L11.6066 13.7489C13.0855 12.27 13.0855 9.87235 11.6066 8.3935C11.2259 8.01272 10.7842 7.72998 10.3129 7.54529L10.0001 7.85808C9.71502 8.14318 9.56733 8.51365 9.55705 8.8872Z" fill="#b6b6b6"/>
<path d="M10.4431 11.113C10.0847 11.0103 9.74669 10.8178 9.46443 10.5356C8.57712 9.64826 8.57712 8.20966 9.46443 7.32235L11.6066 5.18021C12.4939 4.2929 13.9325 4.2929 14.8198 5.1802C15.7071 6.06751 15.7071 7.50612 14.8198 8.39342L13.3189 9.89436C13.4956 10.556 13.5204 11.2498 13.3935 11.9205C13.5167 11.8246 13.6354 11.7199 13.7487 11.6066L15.8909 9.4645C17.3697 7.98565 17.3697 5.58798 15.8909 4.10913C14.412 2.63029 12.0143 2.63029 10.5355 4.10913L8.39336 6.25128C6.91451 7.73012 6.91451 10.1278 8.39336 11.6066C8.77419 11.9875 9.21595 12.2702 9.68727 12.4549L9.99999 12.1422C10.2851 11.8571 10.4328 11.4866 10.4431 11.113Z" fill="#b6b6b6"/>
</svg>