<svg width="24" height="24" viewBox="0 0 24 24" fill="none" xmlns="http://www.w3.org/2000/svg">
<path fill-rule="evenodd" clip-rule="evenodd" d="M12.3647 4.48159L9.14146 7.70479L10.5716 9.13613L13.7954 5.91234C14.9807 4.72707 16.9024 4.72707 18.0877 5.91234C19.2729 7.09761 19.2729 9.01932 18.0877 10.2046L14.8621 13.4302L16.2922 14.8615L19.5184 11.6353C21.4939 9.65989 21.4939 6.45704 19.5184 4.48159C17.543 2.50614 14.3401 2.50614 12.3647 4.48159Z" fill="#2c2b27"/>
<path fill-rule="evenodd" clip-rule="evenodd" d="M4.48159 12.3647L7.70479 9.14148L9.13613 10.5716L5.91234 13.7954C4.72707 14.9807 4.72707 16.9024 5.91234 18.0877C7.09761 19.2729 9.01932 19.2729 10.2046 18.0877L13.4302 14.8621L14.8615 16.2923L11.6353 19.5184C9.65989 21.4939 6.45704 21.4939 4.48159 19.5184C2.50614 17.543 2.50614 14.3401 4.48159 12.3647Z" fill="#2c2b27"/>
<path d="M8.43012 15.5699C8.03503 15.1748 8.03503 14.5343 8.43012 14.1392L14.1531 8.41616C14.5482 8.02107 15.1888 8.02107 15.5839 8.41616C15.979 8.81125 15.979 9.45182 15.5839 9.84691L9.86087 15.5699C9.46578 15.965 8.82521 15.965 8.43012 15.5699Z" fill="#2c2b27"/>
</svg>
