<svg width="24" height="24" viewBox="0 0 24 24" fill="none" xmlns="http://www.w3.org/2000/svg">
<path d="M11.4364 10.5839C11.8923 10.7145 12.3224 10.9594 12.6814 11.3185C13.8104 12.4475 13.8104 14.2779 12.6814 15.4069L9.95587 18.1325C8.8269 19.2614 6.99648 19.2614 5.86751 18.1325C4.73854 17.0035 4.73854 15.1731 5.86751 14.0441L7.7773 12.1343C7.5525 11.2924 7.52091 10.4096 7.68252 9.55622C7.52561 9.67833 7.37452 9.8115 7.23029 9.95573L4.50472 12.6813C2.6231 14.5629 2.6231 17.6136 4.50472 19.4952C6.38634 21.3769 9.43704 21.3769 11.3187 19.4952L14.0442 16.7697C15.9258 14.888 15.9258 11.8373 14.0442 9.95573C13.5597 9.47123 12.9977 9.11149 12.3981 8.8765L12.0002 9.27448C11.6374 9.63722 11.4495 10.1086 11.4364 10.5839Z" fill="#ACA996"/>
<path d="M12.5637 13.4159C12.1078 13.2852 11.6777 13.0403 11.3186 12.6812C10.1896 11.5522 10.1896 9.72181 11.3186 8.59284L14.0441 5.86726C15.1731 4.73829 17.0035 4.73829 18.1325 5.86726C19.2615 6.99623 19.2615 8.82665 18.1325 9.95562L16.2228 11.8653C16.4476 12.7072 16.4793 13.59 16.3177 14.4433C16.4745 14.3213 16.6256 14.1882 16.7697 14.044L19.4953 11.3184C21.3769 9.4368 21.3769 6.38609 19.4953 4.50447C17.6137 2.62286 14.563 2.62286 12.6814 4.50447L9.95578 7.23005C8.07417 9.11167 8.07417 12.1624 9.95578 14.044C10.4403 14.5285 11.0024 14.8883 11.6021 15.1233L12 14.7254C12.3628 14.3626 12.5507 13.8912 12.5637 13.4159Z" fill="#ACA996"/>
</svg>