<svg width="24" height="24" viewBox="0 0 24 24" fill="none" xmlns="http://www.w3.org/2000/svg">
<path fill-rule="evenodd" clip-rule="evenodd" d="M12.2922 20.5C7.99928 20.5 6.44844 18.0648 6.15625 15.2353H8.04423C8.29147 17.2067 9.07812 18.8765 12.2922 18.8765C14.36 18.8765 15.9558 17.6241 15.9558 15.7456C15.9558 13.867 15.1242 13.0553 12.0674 12.5682C8.69603 12.0116 6.69567 10.9679 6.69567 7.99932C6.69567 5.47135 8.83089 3.5 11.8651 3.5C15.1017 3.5 17.0571 5.10027 17.3942 8.0689H15.6411C15.259 5.95839 14.1127 5.12347 11.8651 5.12347C9.64002 5.12347 8.51623 6.2367 8.51623 7.81378C8.51623 9.41405 9.1006 10.2954 12.3821 10.7824C15.9558 11.339 17.8438 12.4986 17.8438 15.6064C17.8438 18.3895 15.4838 20.5 12.2922 20.5Z" fill="#ACA996"/>
<rect x="4" y="11" width="16" height="2" fill="#ACA996"/>
</svg>