<svg xmlns="http://www.w3.org/2000/svg" width="16" height="16" viewBox="0 0 16 16">
    <g fill="#ffbb2c" fill-rule="evenodd">
        <path d="M8.284 15.996c-4.17 0-5.676-2.292-5.96-4.955h1.834c.24 1.856 1.004 3.427 4.126 3.427 2.008 0 3.558-1.179 3.558-2.947s-.808-2.532-3.777-2.99C4.791 8.007 2.85 7.025 2.85 4.23c0-2.38 2.073-4.235 5.02-4.235 3.143 0 5.042 1.506 5.37 4.3h-1.703c-.37-1.986-1.484-2.772-3.667-2.772-2.161 0-3.252 1.048-3.252 2.532 0 1.506.567 2.336 3.754 2.794 3.47.524 5.304 1.615 5.304 4.54 0 2.62-2.292 4.606-5.391 4.606z"/>
        <path fill-rule="nonzero" d="M0 6.996h16v1.5H0z"/>
    </g>
</svg>