<svg width="71" height="40" viewBox="0 0 71 40" fill="none" xmlns="http://www.w3.org/2000/svg">
<path fill-rule="evenodd" clip-rule="evenodd" d="M40 20C40 31.0457 31.0457 40 20 40C8.95431 40 0 31.0457 0 20C0 8.9543 8.95431 0 20 0C31.0457 0 40 8.9543 40 20ZM15 14V12H16V14H15ZM24 12V14H25V12H24ZM27.0644 24H20V25H28.9356L23.4174 16.7444C23.9147 16.9102 24.4469 17 25 17C27.7614 17 30 14.7614 30 12C30 9.23858 27.7614 7 25 7C22.2386 7 20 9.23858 20 12C20 13.2768 20.4786 14.4418 21.2662 15.3255L27.0644 24ZM20 32.5002C17.8524 32.5002 15.7319 31.4234 14.1586 29.8542C12.5851 28.2847 11.5 26.1639 11.5 24H12.5C12.5 25.8362 13.4305 27.7155 14.8648 29.1461C16.2993 30.577 18.1788 31.5002 20 31.5002V32.5002ZM25 16C22.7909 16 21 14.2091 21 12C21 9.79086 22.7909 8 25 8C27.2091 8 29 9.79086 29 12C29 14.2091 27.2091 16 25 16ZM11 12C11 14.2091 12.7909 16 15 16C17.2091 16 19 14.2091 19 12C19 9.79086 17.2091 8 15 8C12.7909 8 11 9.79086 11 12ZM10 12C10 14.7614 12.2386 17 15 17C17.7614 17 20 14.7614 20 12C20 9.23858 17.7614 7 15 7C12.2386 7 10 9.23858 10 12Z" fill="#252525"/>
<path fill-rule="evenodd" clip-rule="evenodd" d="M51 40C39.9543 40 31 31.0457 31 20C31 8.9543 39.9543 0 51 0C62.0457 0 71 8.9543 71 20C71 31.0457 62.0457 40 51 40ZM56 12V10H55V12H56ZM47 12V10H46V12H47ZM51 17C49.7093 17 48.5622 17.367 47.7512 17.9347C46.9386 18.5036 46.5 19.2414 46.5 20C46.5 20.7586 46.9386 21.4964 47.7512 22.0653C48.5622 22.633 49.7093 23 51 23V24C49.5293 24 48.1763 23.5835 47.1777 22.8845C46.1807 22.1866 45.5 21.1744 45.5 20C45.5 18.8256 46.1807 17.8134 47.1777 17.1155C48.1763 16.4165 49.5293 16 51 16V17ZM51 31.5C55.1421 31.5 58.5 28.1421 58.5 24H59.5C59.5 28.6944 55.6944 32.5 51 32.5V31.5Z" fill="#252525"/>
</svg>