<svg width="20" height="20" viewBox="0 0 20 20" fill="none" xmlns="http://www.w3.org/2000/svg">
<path fill-rule="evenodd" clip-rule="evenodd" d="M2.59314 6.56962L3.40687 5.43039L10 10.1398L16.5931 5.43039L17.4069 6.56962L10 11.8602L2.59314 6.56962Z" fill="#ACA996"/>
<path fill-rule="evenodd" clip-rule="evenodd" d="M15.5 5H4.5C3.94772 5 3.5 5.44772 3.5 6V14C3.5 14.5523 3.94772 15 4.5 15H15.5C16.0523 15 16.5 14.5523 16.5 14V6C16.5 5.44772 16.0523 5 15.5 5ZM4.5 3.5C3.11929 3.5 2 4.61929 2 6V14C2 15.3807 3.11929 16.5 4.5 16.5H15.5C16.8807 16.5 18 15.3807 18 14V6C18 4.61929 16.8807 3.5 15.5 3.5H4.5Z" fill="#ACA996"/>
</svg>
