<svg width="20" height="20" viewBox="0 0 20 20" fill="none" xmlns="http://www.w3.org/2000/svg">
<path d="M14.4993 7.56221C15.4109 6.64714 15.4109 5.16351 14.4993 4.24844C13.5877 3.33336 12.1097 3.33336 11.1981 4.24844L5.69603 9.77139C4.17668 11.2965 4.17638 13.7689 5.69573 15.2941C7.21508 16.8192 9.67844 16.8192 11.1978 15.2941L16.1496 10.3233L17.25 11.4279L12.2981 16.3986C10.1711 18.5338 6.72241 18.5338 4.59532 16.3986C2.46823 14.2635 2.46823 10.8017 4.59532 8.6665L10.0977 3.14384C11.617 1.61872 14.0804 1.61872 15.5997 3.14384C17.1191 4.66897 17.1191 7.14168 15.5997 8.66681L10.6479 13.6375C9.73628 14.5525 8.25827 14.5525 7.34665 13.6375C6.43504 12.7224 6.43504 11.2388 7.34665 10.3237L11.7483 5.90533L12.8487 7.00993L8.44707 11.4283C8.1432 11.7333 8.1432 12.2279 8.44707 12.5329C8.75094 12.8379 9.24361 12.8379 9.54748 12.5329L14.4993 7.56221Z" fill="#ACA996"/>
</svg>
