<svg width="20" height="20" viewBox="0 0 20 20" fill="none" xmlns="http://www.w3.org/2000/svg">
<path d="M8.19082 6.93454C8.47399 6.65137 8.49141 6.19792 8.23079 5.89386L5.97973 3.26763C5.6892 2.92868 5.1716 2.9088 4.85593 3.22447L3.27345 4.80695L6.79593 8.32943L8.19082 6.93454Z" fill="#ACA996"/>
<path d="M13.0681 11.8118C13.3513 11.5287 13.8047 11.5112 14.1088 11.7719L16.735 14.0229C17.0739 14.3134 17.0938 14.831 16.7781 15.1467L15.2795 16.6451L11.6732 13.2067L13.0681 11.8118Z" fill="#ACA996"/>
<path d="M3.00249 5.07791C3.00249 5.07791 2.75965 8.64001 7.06684 12.9357C11.3965 17.2769 14.9375 16.9871 14.9375 16.9871L15.2795 16.6451L11.6732 13.2067C11.6732 13.2067 10.7039 13.3212 8.6926 11.3099C6.68128 9.29861 6.79593 8.32943 6.79593 8.32943L3.27345 4.80695L3.00249 5.07791Z" fill="#ACA996"/>
</svg>