<svg width="20" height="20" viewBox="0 0 20 20" fill="none" xmlns="http://www.w3.org/2000/svg">
<rect x="2" y="15.001" width="16" height="1.49889" fill="#ACA996"/>
<path d="M3.61223 13L4.53632 10.3535H8.4686L9.38777 13H11L7.37739 3H5.62261L2 13H3.61223ZM4.9787 9.08398L6.46313 4.81641H6.54178L8.02622 9.08398H4.9787Z" fill="#ACA996"/>
<path d="M14.2243 13.1705C15.4871 13.1705 16.198 12.5291 16.4814 11.9574H16.5411V13.0014H17.9928V7.9304C17.9928 5.7081 16.2428 5.26562 15.0297 5.26562C13.6476 5.26562 12.3749 5.82244 11.8777 7.21449L13.2747 7.53267C13.4935 6.99077 14.0503 6.46875 15.0496 6.46875C16.0091 6.46875 16.5013 6.97088 16.5013 7.83594V7.87074C16.5013 8.41264 15.9445 8.4027 14.5723 8.56179C13.1256 8.73082 11.644 9.10866 11.644 10.8437C11.644 12.3452 12.7726 13.1705 14.2243 13.1705ZM14.5475 11.9773C13.7073 11.9773 13.1007 11.5994 13.1007 10.8636C13.1007 10.0682 13.8067 9.7848 14.6668 9.67045C15.149 9.60582 16.2925 9.47656 16.5063 9.26278V10.2472C16.5063 11.152 15.7854 11.9773 14.5475 11.9773Z" fill="#ACA996"/>
</svg>
