<svg width="20" height="20" viewBox="0 0 20 20" fill="none" xmlns="http://www.w3.org/2000/svg">
<path fill-rule="evenodd" clip-rule="evenodd" d="M10.6214 3.49995L3.62134 10.5L9.49999 16.3786L16.5 9.37824L16.5 6.12125L13.8787 3.4996L10.6214 3.49995ZM2.56068 9.43933C1.97489 10.0251 1.97489 10.9749 2.56068 11.5607L8.43933 17.4393C9.02513 18.0251 9.9749 18.0251 10.5607 17.4393L17.5607 10.4389C17.842 10.1576 18 9.77605 18 9.37824L18 6.12125C18 5.72346 17.842 5.34196 17.5607 5.06067L14.9394 2.43902C14.6581 2.15763 14.2765 1.99956 13.8785 1.9996L10.6212 1.99995C10.2234 2 9.84198 2.15803 9.56072 2.43929L2.56068 9.43933Z" fill="#ACA996"/>
<circle cx="13" cy="7" r="1.5" fill="#ACA996"/>
</svg>
