<svg width="20" height="20" viewBox="0 0 20 20" fill="none" xmlns="http://www.w3.org/2000/svg">
<path d="M9.55698 8.85516C9.91527 8.95785 10.2533 9.1503 10.5355 9.43253C11.4228 10.3198 11.4228 11.7584 10.5355 12.6457L8.39337 14.7878C7.50607 15.6751 6.06748 15.6751 5.18018 14.7878C4.29289 13.9005 4.29289 12.4619 5.18018 11.5746L6.68116 10.0737C6.50448 9.41199 6.47965 8.71819 6.60667 8.04748C6.48335 8.14345 6.3646 8.24811 6.25124 8.36146L4.10912 10.5036C2.63029 11.9824 2.63029 14.3801 4.10912 15.8589C5.58795 17.3377 7.9856 17.3377 9.46443 15.8589L11.6066 13.7168C13.0854 12.2379 13.0854 9.84029 11.6066 8.36146C11.2258 7.98069 10.7841 7.69795 10.3128 7.51326L10 7.82605C9.71495 8.11114 9.56726 8.48161 9.55698 8.85516Z" fill="#ACA996"/>
<path d="M10.443 11.0809C10.0847 10.9782 9.74661 10.7858 9.46436 10.5035C8.57706 9.61621 8.57706 8.17762 9.46436 7.29032L11.6065 5.1482C12.4938 4.2609 13.9324 4.2609 14.8197 5.1482C15.707 6.0355 15.707 7.47409 14.8197 8.36138L13.3188 9.8623C13.4955 10.524 13.5203 11.2177 13.3933 11.8884C13.5166 11.7925 13.6353 11.6879 13.7486 11.5746L15.8907 9.43245C17.3696 7.95362 17.3696 5.55597 15.8907 4.07714C14.4119 2.59831 12.0143 2.59831 10.5354 4.07714L8.3933 6.21926C6.91447 7.69809 6.91447 10.0957 8.3933 11.5746C8.77413 11.9554 9.21589 12.2382 9.6872 12.4228L9.99991 12.1101C10.285 11.825 10.4327 11.4545 10.443 11.0809Z" fill="#ACA996"/>
</svg>
