<svg width="18" height="18" viewBox="0 0 18 18" fill="none" xmlns="http://www.w3.org/2000/svg">
<path fill-rule="evenodd" clip-rule="evenodd" d="M12.8895 9.35378L14.3034 7.9398C15.475 6.76822 15.475 4.86873 14.3034 3.69715C13.1319 2.52558 11.2324 2.52558 10.0608 3.69715L7.93949 5.81848C6.76792 6.99005 6.76792 8.88954 7.93949 10.0611C8.44476 10.5664 9.08543 10.8537 9.7447 10.9232C9.64936 11.1228 9.51902 11.3099 9.35366 11.4753L9.02493 11.804C8.36827 11.6287 7.74755 11.2834 7.23238 10.7682C5.67028 9.20613 5.67028 6.67347 7.23238 5.11137L9.3537 2.99005C10.9158 1.42795 13.4485 1.42795 15.0106 2.99005C16.5727 4.55215 16.5727 7.08481 15.0106 8.6469L12.8895 10.7679C12.9561 10.2991 12.9561 9.82261 12.8895 9.35378Z" fill="#B6B6B6"/>
<path fill-rule="evenodd" clip-rule="evenodd" d="M5.11078 8.6472L3.69679 10.0612C2.52522 11.2328 2.52522 13.1322 3.69679 14.3038C4.86837 15.4754 6.76786 15.4754 7.93944 14.3038L10.0608 12.1825C11.2323 11.0109 11.2323 9.11143 10.0608 7.93986C9.55548 7.43459 8.91482 7.14723 8.25554 7.07778C8.35088 6.87814 8.48123 6.69104 8.64658 6.52568L8.97531 6.19695C9.63197 6.37232 10.2527 6.71759 10.7679 7.23275C12.33 8.79485 12.33 11.3275 10.7679 12.8896L8.64654 15.0109C7.08445 16.573 4.55179 16.573 2.98969 15.0109C1.42759 13.4488 1.42759 10.9162 2.98969 9.35407L5.11071 7.23305C5.04413 7.70189 5.04415 8.17837 5.11078 8.6472Z" fill="#B6B6B6"/>
</svg>