<svg width="22" height="23" viewBox="0 0 22 23" fill="none" xmlns="http://www.w3.org/2000/svg">
<path d="M14 8.96826C14 10.6251 12.6569 11.9683 11 11.9683C9.34315 11.9683 8 10.6251 8 8.96826C8 7.31141 9.34315 5.96826 11 5.96826C12.6569 5.96826 14 7.31141 14 8.96826Z" fill="#ACA996"/>
<path fill-rule="evenodd" clip-rule="evenodd" d="M4.31445 16.5193C5.75004 14.3781 8.1924 12.9688 10.964 12.9688C13.7592 12.9688 16.2196 14.4024 17.6501 16.5744C16.2145 18.7156 13.7721 20.125 11.0006 20.125C8.20532 20.125 5.74489 18.6914 4.31445 16.5193Z" fill="#ACA996"/>
<path fill-rule="evenodd" clip-rule="evenodd" d="M11 21.4688C16.2467 21.4688 20.5 17.2155 20.5 11.9688C20.5 6.72204 16.2467 2.46875 11 2.46875C5.75329 2.46875 1.5 6.72204 1.5 11.9688C1.5 17.2155 5.75329 21.4688 11 21.4688ZM11 22.9688C17.0751 22.9688 22 18.0439 22 11.9688C22 5.89362 17.0751 0.96875 11 0.96875C4.92487 0.96875 0 5.89362 0 11.9688C0 18.0439 4.92487 22.9688 11 22.9688Z" fill="#ACA996"/>
</svg>
