<svg width="20" height="20" viewBox="0 0 20 20" fill="none" xmlns="http://www.w3.org/2000/svg">
<path fill-rule="evenodd" clip-rule="evenodd" d="M5.95 2.75C5.6189 2.75 5.30906 2.87491 5.08677 3.08536C4.86588 3.29449 4.75 3.56909 4.75 3.84615V16.1538C4.75 16.4309 4.86588 16.7055 5.08677 16.9146C5.30906 17.1251 5.6189 17.25 5.95 17.25H15.05C15.3811 17.25 15.6909 17.1251 15.9132 16.9146C16.1341 16.7055 16.25 16.4309 16.25 16.1538V8.66358C16.25 8.66354 16.25 8.66362 16.25 8.66358C16.2499 8.54983 16.2026 8.43175 16.1037 8.3381M16.1037 8.3381L10.3651 2.90508C10.3651 2.90506 10.3651 2.9051 10.3651 2.90508C10.2647 2.81013 10.1203 2.75005 9.96172 2.75C9.96168 2.75 9.96175 2.75 9.96172 2.75H5.95M4.05551 1.99609C4.56461 1.5141 5.24676 1.25 5.95 1.25H9.96172C10.4924 1.25008 11.0091 1.44928 11.3962 1.81569L17.135 7.24883C17.5234 7.61665 17.7499 8.12454 17.75 8.66334L17.75 16.1538C17.75 16.856 17.455 17.5206 16.9445 18.0039C16.4354 18.4859 15.7532 18.75 15.05 18.75H5.95C5.24676 18.75 4.56461 18.4859 4.05551 18.0039C3.54502 17.5206 3.25 16.856 3.25 16.1538V3.84615C3.25 3.14396 3.54502 2.4794 4.05551 1.99609Z" fill="#ACA996"/>
<path fill-rule="evenodd" clip-rule="evenodd" d="M6.25 9.91663H14.75V11.4166H6.25V9.91663ZM6.25 13.25H14.75V14.75H6.25V13.25Z" fill="#ACA996"/>
<path d="M10.3544 2.05109C10.5702 1.95808 10.8231 1.99402 11.001 2.14296L16.795 6.99401C16.9835 7.15185 17.0497 7.40443 16.9612 7.62816C16.8727 7.8519 16.648 8 16.397 8H11.8228C11.3627 8 10.9082 7.84765 10.5622 7.55793C10.2137 7.26611 10 6.85319 10 6.40426V2.57448C10 2.34885 10.1386 2.14411 10.3544 2.05109Z" fill="#ACA996"/>
</svg>
