<svg width="21" height="20" viewBox="0 0 21 20" fill="none" xmlns="http://www.w3.org/2000/svg">
<path fill-rule="evenodd" clip-rule="evenodd" d="M14.9707 3.5H6.9707C5.58999 3.5 4.4707 4.61929 4.4707 6V14C4.4707 15.3807 5.58999 16.5 6.9707 16.5H14.9707C16.3514 16.5 17.4707 15.3807 17.4707 14V6C17.4707 4.61929 16.3514 3.5 14.9707 3.5ZM6.9707 2C4.76156 2 2.9707 3.79086 2.9707 6V14C2.9707 16.2091 4.76156 18 6.9707 18H14.9707C17.1798 18 18.9707 16.2091 18.9707 14V6C18.9707 3.79086 17.1798 2 14.9707 2H6.9707Z" fill="#b6b6b6"/>
<path d="M8.25 6V14H9.73811V10.7664H10.6892L12.7815 14H14.3927L12.1437 10.5427C13.1283 10.2741 13.9227 9.65874 13.9227 8.3944V8.34965C13.9227 6.71608 12.692 6 10.9353 6H8.25ZM10.9353 9.7035H9.73811V7.15245H10.9353C11.8864 7.15245 12.457 7.45455 12.457 8.38322V8.42797C12.457 9.27832 11.9535 9.7035 10.9353 9.7035Z" fill="#b6b6b6"/>
</svg>
