<svg width="8" height="8" viewBox="0 0 8 8" fill="none" xmlns="http://www.w3.org/2000/svg">
<path fill-rule="evenodd" clip-rule="evenodd" d="M0.167368 0.167368C0.390524 -0.0557892 0.752333 -0.0557892 0.97549 0.167368L4 3.19188L7.02451 0.167368C7.24767 -0.0557892 7.60948 -0.0557892 7.83263 0.167368C8.05579 0.390524 8.05579 0.752333 7.83263 0.97549L4.80812 4L7.83263 7.02451C8.05579 7.24767 8.05579 7.60948 7.83263 7.83263C7.60948 8.05579 7.24767 8.05579 7.02451 7.83263L4 4.80812L0.97549 7.83263C0.752333 8.05579 0.390524 8.05579 0.167368 7.83263C-0.0557892 7.60948 -0.0557892 7.24767 0.167368 7.02451L3.19188 4L0.167368 0.97549C-0.0557892 0.752333 -0.0557892 0.390524 0.167368 0.167368Z" fill="#b6b6b6"/>
</svg>
