<svg width="24" height="24" viewBox="0 0 24 24" fill="none" xmlns="http://www.w3.org/2000/svg">
<path d="M8 13C8 12.4477 8.44772 12 9 12C9.55228 12 10 12.4477 10 13C10 13.5523 9.55228 14 9 14C8.44772 14 8 13.5523 8 13Z" fill="#ACA996"/>
<path d="M11 13C11 12.4477 11.4477 12 12 12C12.5523 12 13 12.4477 13 13C13 13.5523 12.5523 14 12 14C11.4477 14 11 13.5523 11 13Z" fill="#ACA996"/>
<path d="M14 13C14 12.4477 14.4477 12 15 12C15.5523 12 16 12.4477 16 13C16 13.5523 15.5523 14 15 14C14.4477 14 14 13.5523 14 13Z" fill="#ACA996"/>
<path d="M8 15.9967C8 15.4444 8.44772 14.9967 9 14.9967C9.55228 14.9967 10 15.4444 10 15.9967C10 16.549 9.55228 16.9967 9 16.9967C8.44772 16.9967 8 16.549 8 15.9967Z" fill="#ACA996"/>
<path d="M11 15.9967C11 15.4444 11.4477 14.9967 12 14.9967C12.5523 14.9967 13 15.4444 13 15.9967C13 16.549 12.5523 16.9967 12 16.9967C11.4477 16.9967 11 16.549 11 15.9967Z" fill="#ACA996"/>
<path d="M14 15.9967C14 15.4444 14.4477 14.9967 15 14.9967C15.5523 14.9967 16 15.4444 16 15.9967C16 16.549 15.5523 16.9967 15 16.9967C14.4477 16.9967 14 16.549 14 15.9967Z" fill="#ACA996"/>
<path fill-rule="evenodd" clip-rule="evenodd" d="M13.85 2L20 8.15V20C20 21.1046 19.1046 22 18 22H6C4.89543 22 4 21.1046 4 20V4C4 2.89543 4.89543 2 6 2H13.85ZM18 9V20H6L6 4H13V8C13 8.55228 13.4476 9 13.9998 9H18Z" fill="#ACA996"/>
</svg>
