<svg width="18" height="18" viewBox="0 0 18 18" fill="none" xmlns="http://www.w3.org/2000/svg">
<path d="M2.70106 16.875C2.46195 16.8739 2.23305 16.778 2.06453 16.6084C1.89602 16.4387 1.80165 16.2092 1.80212 15.9701C1.80421 15.8792 1.8184 15.789 1.8443 15.7018L2.49188 13.3594C2.51895 13.2729 2.48837 13.1857 2.44864 13.1168L2.44091 13.1027C2.43809 13.0982 2.42473 13.0795 2.41524 13.0658C2.40575 13.0521 2.39485 13.0373 2.38501 13.0229L2.37833 13.0134C1.56065 11.7741 1.12485 10.322 1.12501 8.83723C1.11868 6.81258 1.91075 4.89973 3.35602 3.44848C4.85157 1.95012 6.85196 1.125 8.99368 1.125C10.8105 1.1241 12.5735 1.7421 13.9922 2.87719C15.3791 3.9934 16.3431 5.54906 16.7066 7.26047C16.8185 7.78037 16.8748 8.31069 16.8747 8.8425C16.8747 10.9143 16.0787 12.8602 14.6331 14.3223C13.1748 15.7989 11.2166 16.6096 9.11954 16.6096C8.38126 16.6096 7.43661 16.4211 6.98309 16.2932C6.43747 16.1406 5.92032 15.9416 5.86337 15.9205C5.80309 15.8974 5.73912 15.8855 5.67458 15.8854C5.60458 15.8849 5.53521 15.8987 5.47067 15.9258L5.44079 15.9374L3.06844 16.7945C2.95193 16.8435 2.82741 16.8708 2.70106 16.875Z" fill="_COLOR_VAR_"/>
</svg>
