<svg width="18" height="18" viewBox="0 0 18 18" fill="none" xmlns="http://www.w3.org/2000/svg">
<path fill-rule="evenodd" clip-rule="evenodd" d="M9 3.5C4.97911 3.5 2 5.96091 2 8.75482C2 10.543 3.14804 12.1748 5.15412 13.2037C5.29569 13.2762 5.4333 13.4041 5.49674 13.5934C5.56175 13.7874 5.52674 13.9806 5.44207 14.1326L5.435 14.1452L5.42721 14.1575C5.22248 14.4795 4.9456 14.8211 4.70038 15.1101C4.58848 15.242 4.48687 15.3589 4.3978 15.4613C4.32024 15.5505 4.25219 15.6288 4.19514 15.6965C4.3268 15.6856 4.51914 15.6484 4.76715 15.5776C5.05907 15.4942 5.3974 15.3734 5.75156 15.2268C6.46322 14.9322 7.20567 14.5473 7.73144 14.1861L7.73461 14.184L7.73462 14.184C7.90134 14.0713 8.09031 13.9906 8.31217 13.9906H8.33055L8.34889 13.992C8.43797 13.9986 8.50559 14.0033 8.57011 14.0033C13.2037 14.0033 16 11.5088 16 8.75482C16 5.96091 13.0209 3.5 9 3.5ZM1 8.75482C1 5.17981 4.68755 2.5 9 2.5C13.3124 2.5 17 5.17981 17 8.75482C17 12.3064 13.4735 15.0033 8.57011 15.0033C8.4836 15.0033 8.39911 14.9982 8.32622 14.993C8.3192 14.9968 8.30917 15.0027 8.29583 15.0117C7.69744 15.4224 6.88985 15.8379 6.13403 16.1508C5.75405 16.308 5.37892 16.4428 5.04171 16.5391C4.71363 16.6328 4.38784 16.7 4.11905 16.7C3.73857 16.7 3.36014 16.543 3.18336 16.1798C3.01055 15.8248 3.11435 15.4408 3.33243 15.1714C3.41185 15.0716 3.53462 14.9301 3.6688 14.7755C3.75658 14.6744 3.84925 14.5676 3.93785 14.4631C4.09048 14.2832 4.24236 14.0978 4.37529 13.9197C2.3189 12.7557 1 10.9079 1 8.75482Z" fill="#B6B6B6"/>
</svg>