<svg width="18" height="18" viewBox="0 0 18 18" fill="none" xmlns="http://www.w3.org/2000/svg">
<path d="M6.25 12.5C6.38807 12.5 6.5 12.6119 6.5 12.75V13.25C6.5 13.3881 6.38807 13.5 6.25 13.5H4.75C4.61193 13.5 4.5 13.3881 4.5 13.25V12.75C4.5 12.6119 4.61193 12.5 4.75 12.5H6.25ZM9.25 12.5C9.38807 12.5 9.5 12.6119 9.5 12.75V13.25C9.5 13.3881 9.38807 13.5 9.25 13.5H7.75C7.61193 13.5 7.5 13.3881 7.5 13.25V12.75C7.5 12.6119 7.61193 12.5 7.75 12.5H9.25ZM6.25 10.5C6.38807 10.5 6.5 10.6119 6.5 10.75V11.25C6.5 11.3881 6.38807 11.5 6.25 11.5H4.75C4.61193 11.5 4.5 11.3881 4.5 11.25V10.75C4.5 10.6119 4.61193 10.5 4.75 10.5H6.25ZM9.25 10.5C9.38807 10.5 9.5 10.6119 9.5 10.75V11.25C9.5 11.3881 9.38807 11.5 9.25 11.5H7.75C7.61193 11.5 7.5 11.3881 7.5 11.25V10.75C7.5 10.6119 7.61193 10.5 7.75 10.5H9.25ZM12.25 10.5C12.3881 10.5 12.5 10.6119 12.5 10.75V11.25C12.5 11.3881 12.3881 11.5 12.25 11.5H10.75C10.6119 11.5 10.5 11.3881 10.5 11.25V10.75C10.5 10.6119 10.6119 10.5 10.75 10.5H12.25ZM9.25 8.5C9.38807 8.5 9.5 8.61193 9.5 8.75V9.25C9.5 9.38807 9.38807 9.5 9.25 9.5H7.75C7.61193 9.5 7.5 9.38807 7.5 9.25V8.75C7.5 8.61193 7.61193 8.5 7.75 8.5H9.25ZM12.25 8.5C12.3881 8.5 12.5 8.61193 12.5 8.75V9.25C12.5 9.38807 12.3881 9.5 12.25 9.5H10.75C10.6119 9.5 10.5 9.38807 10.5 9.25V8.75C10.5 8.61193 10.6119 8.5 10.75 8.5H12.25Z" fill="_COLOR_VAR_"/>
<path d="M1.5 4C1.5 3.44772 1.94772 3 2.5 3H14.5C15.0523 3 15.5 3.44772 15.5 4V6.5H1.5V4Z" fill="_COLOR_VAR_"/>
<rect x="1.75" y="2.75" width="13.5" height="13.5" rx="2.25" stroke="_COLOR_VAR_" stroke-width="1.5"/>
</svg>
