<svg width="18" height="18" viewBox="0 0 18 18" fill="none" xmlns="http://www.w3.org/2000/svg">
<path fill-rule="evenodd" clip-rule="evenodd" d="M14.4409 10.7207L13.3228 11.2797L15.7639 12.5003L9.00002 15.8822L2.23608 12.5003L4.67693 11.2799L3.5589 10.7208L1.78887 11.6058C1.05182 11.9744 1.05182 13.0262 1.78887 13.3947L8.5528 16.7767C8.83433 16.9174 9.1657 16.9174 9.44723 16.7767L16.2112 13.3947C16.9482 13.0262 16.9482 11.9744 16.2112 11.6058L14.4409 10.7207Z" fill="#B6B6B6"/>
<path fill-rule="evenodd" clip-rule="evenodd" d="M14.5589 7.2207L13.4408 7.77972L15.7639 8.94128L9.00002 12.3232L2.23608 8.94127L4.55897 7.77983L3.44094 7.22082L1.78887 8.04685C1.05182 8.41537 1.05182 9.46718 1.78887 9.8357L8.5528 13.2177C8.83433 13.3584 9.1657 13.3584 9.44723 13.2177L16.2112 9.8357C16.9482 9.46718 16.9482 8.41537 16.2112 8.04685L14.5589 7.2207Z" fill="#B6B6B6"/>
<path fill-rule="evenodd" clip-rule="evenodd" d="M8.99974 8.88208L15.7637 5.50011L8.99974 2.11815L2.2358 5.50011L8.99974 8.88208ZM16.2109 6.39454C16.9479 6.02602 16.9479 4.97421 16.2109 4.60569L9.44695 1.22372C9.16543 1.08296 8.83405 1.08296 8.55253 1.22372L1.78859 4.60569C1.05154 4.97421 1.05154 6.02602 1.78859 6.39454L8.55253 9.77651C8.83405 9.91727 9.16542 9.91727 9.44695 9.77651L16.2109 6.39454Z" fill="#B6B6B6"/>
</svg>