<svg width="18" height="18" viewBox="0 0 18 18" fill="none" xmlns="http://www.w3.org/2000/svg">
<path d="M13.0857 1.5C13.3509 1.5 13.6052 1.60545 13.7928 1.79297L16.2068 4.20703C16.3943 4.39453 16.4998 4.6489 16.4998 4.91406V8.08496C16.4997 8.35068 16.3941 8.6054 16.2059 8.79297L8.70586 16.2656C8.31574 16.6543 7.68402 16.6542 7.29375 16.2656L1.71074 10.707C1.31872 10.3168 1.31764 9.68216 1.70879 9.29102L9.20683 1.79297C9.39428 1.60552 9.64878 1.5001 9.91386 1.5H13.0857ZM12.2811 4.53125C11.5908 4.53137 11.0311 5.09097 11.0311 5.78125C11.0311 6.47153 11.5908 7.03113 12.2811 7.03125C12.9714 7.03125 13.5311 6.47161 13.5311 5.78125C13.5311 5.09089 12.9714 4.53125 12.2811 4.53125Z" fill="_COLOR_VAR_"/>
</svg>
