<svg width="18" height="18" viewBox="0 0 18 18" fill="none" xmlns="http://www.w3.org/2000/svg">
<path fill-rule="evenodd" clip-rule="evenodd" d="M2.41406 10L10.4141 2L13.5856 2L15.9998 4.41421L15.9999 7.58579L7.99985 15.5858L2.41406 10ZM1.70696 9.29289L9.70696 1.29289C9.89449 1.10536 10.1488 1 10.4141 1H13.5856C13.8509 1 14.1052 1.10536 14.2927 1.29289L16.707 3.70711C16.8945 3.89464 16.9998 4.149 16.9998 4.41421V7.58579C16.9998 7.851 16.8945 8.10536 16.707 8.29289L8.70696 16.2929C8.31643 16.6834 7.68327 16.6834 7.29274 16.2929L1.70696 10.7071C1.31643 10.3166 1.31643 9.68342 1.70696 9.29289ZM12.5 6.5C13.0523 6.5 13.5 6.05228 13.5 5.5C13.5 4.94772 13.0523 4.5 12.5 4.5C11.9477 4.5 11.5 4.94772 11.5 5.5C11.5 6.05228 11.9477 6.5 12.5 6.5Z" fill="#B6B6B6"/>
</svg>