<svg width="18" height="18" viewBox="0 0 18 18" fill="none" xmlns="http://www.w3.org/2000/svg">
<g clip-path="url(#clip0_6588_8717)">
<path fill-rule="evenodd" clip-rule="evenodd" d="M13.9779 5.08264L14.2268 5.0114C14.3834 4.96658 14.5314 4.88278 14.6569 4.75727C15.0474 4.36675 15.0474 3.73358 14.6569 3.34306C14.2663 2.95253 13.6332 2.95253 13.2427 3.34306C13.1172 3.46856 13.0333 3.61654 12.9885 3.77312L12.9173 4.02198L12.0052 4.93405L9.35357 2.2824C9.15831 2.08714 8.84173 2.08714 8.64646 2.2824L6.70192 4.22694L6.72415 4.24917C7.03964 4.3397 7.33777 4.50924 7.5858 4.75727C8.36685 5.53832 8.36685 6.80465 7.5858 7.5857C6.80476 8.36675 5.53843 8.36675 4.75738 7.5857C4.50935 7.33767 4.3398 7.03954 4.24928 6.72405L4.22705 6.70182L2.2825 8.64636C2.08724 8.84162 2.08724 9.1582 2.2825 9.35347L4.93415 12.0051L4.02209 12.9172L3.77323 12.9884C3.61664 13.0332 3.46867 13.117 3.34316 13.2426C2.95264 13.6331 2.95264 14.2662 3.34316 14.6568C3.73369 15.0473 4.36685 15.0473 4.75738 14.6568C4.88288 14.5313 4.96669 14.3833 5.01151 14.2267L5.08275 13.9778L5.99481 13.0658L8.64646 15.7174C8.84173 15.9127 9.15831 15.9127 9.35357 15.7174L11.2981 13.7729L11.2759 13.7507C10.9604 13.6601 10.6623 13.4906 10.4142 13.2426C9.63318 12.4615 9.63318 11.1952 10.4142 10.4141C11.1953 9.63308 12.4616 9.63308 13.2427 10.4141C13.4907 10.6622 13.6602 10.9603 13.7508 11.2758L13.773 11.298L15.7175 9.35347C15.9128 9.1582 15.9128 8.84162 15.7175 8.64636L13.0659 5.99471L13.9779 5.08264ZM13.773 12.7122L12.8265 11.7657C12.8119 11.5311 12.7149 11.3006 12.5356 11.1212C12.145 10.7307 11.5119 10.7307 11.1213 11.1212C10.7308 11.5118 10.7308 12.1449 11.1213 12.5354C11.3007 12.7148 11.5312 12.8118 11.7658 12.8264L12.7123 13.7729L10.0607 16.4245C9.47489 17.0103 8.52514 17.0103 7.93936 16.4245L5.99481 14.48L5.97289 14.5019C5.88255 14.8175 5.71308 15.1153 5.46448 15.3639C4.68343 16.1449 3.41711 16.1449 2.63606 15.3639C1.85501 14.5828 1.85501 13.3165 2.63606 12.5354C2.88465 12.2869 3.1824 12.1174 3.49802 12.027L3.51994 12.0051L1.5754 10.0606C0.98961 9.47479 0.98961 8.52504 1.5754 7.93925L4.22705 5.2876L5.17354 6.23409C5.18817 6.46877 5.28515 6.69926 5.46448 6.87859C5.85501 7.26912 6.48817 7.26912 6.8787 6.87859C7.26922 6.48807 7.26922 5.8549 6.8787 5.46438C6.69937 5.28505 6.46887 5.18807 6.2342 5.17343L5.28771 4.22694L7.93936 1.57529C8.52514 0.989505 9.47489 0.989505 10.0607 1.57529L12.0052 3.51983L12.0271 3.49792C12.1175 3.1823 12.287 2.88454 12.5356 2.63595C13.3166 1.8549 14.5829 1.8549 15.364 2.63595C16.145 3.417 16.145 4.68333 15.364 5.46438C15.1154 5.71297 14.8176 5.88244 14.502 5.97279L14.4801 5.99471L16.4246 7.93925C17.0104 8.52504 17.0104 9.47479 16.4246 10.0606L13.773 12.7122Z" fill="#B6B6B6"/>
</g>
<defs>
<clipPath id="clip0_6588_8717">
<rect width="18" height="18" fill="white"/>
</clipPath>
</defs>
</svg>