<svg xmlns="http://www.w3.org/2000/svg" width="40" height="40" viewBox="0 0 40 40" fill="none">
    <circle cx="20" cy="20" r="20" fill="#3C3C3C"/>
    <path d="M19.9994 9.28516C25.9166 9.28516 30.713 14.0819 30.7133 19.999C30.7133 25.9164 25.9167 30.7139 19.9994 30.7139C14.3348 30.7138 9.69965 26.3176 9.31384 20.751H21.7631L18.7572 23.7559C18.4646 24.0487 18.4647 24.5235 18.7572 24.8164C19.0501 25.1093 19.5258 25.1093 19.8187 24.8164L24.6342 20.001L19.8187 15.1846C19.5258 14.8917 19.0501 14.8917 18.7572 15.1846C18.4646 15.4774 18.4646 15.9523 18.7572 16.2451L21.7631 19.251H9.31384C9.69817 13.683 14.3338 9.28518 19.9994 9.28516Z" fill="white"/>
</svg>
