<svg width="40" height="40" viewBox="0 0 40 40" fill="none" xmlns="http://www.w3.org/2000/svg">
<path d="M11.878 11.27L6.70801 27H10.052L11.13 23.502H16.828L17.906 27H21.624L16.52 11.27H11.878ZM11.9 20.972L13.99 14.174L16.058 20.972H11.9Z" fill="#a09f92"/>
<path d="M26.11 27.242C27.936 27.242 28.904 26.56 29.586 25.614V27H32.688V19.498C32.688 17.936 32.204 16.88 31.346 16.198C30.466 15.516 29.278 15.23 27.87 15.23C26.462 15.23 25.208 15.538 24.306 16.176C23.404 16.814 22.788 17.826 22.7 19.168H25.714C25.868 18.178 26.418 17.54 27.672 17.54C29.146 17.54 29.542 18.266 29.542 19.652V20.114H28.244C26.484 20.114 24.988 20.356 23.932 20.95C22.876 21.544 22.26 22.468 22.26 23.81C22.26 25.02 22.7 25.878 23.404 26.428C24.108 26.978 25.054 27.242 26.11 27.242ZM27.056 25.02C25.89 25.02 25.384 24.492 25.384 23.634C25.384 22.402 26.462 22.006 28.31 22.006H29.542V22.974C29.542 24.272 28.464 25.02 27.056 25.02Z" fill="#a09f92"/>
</svg>
