<svg width="20" height="20" viewBox="0 0 20 20" fill="none" xmlns="http://www.w3.org/2000/svg">
<path d="M4.03911 14L4.91695 11.5284H8.44536L9.3232 14H10.4312L7.22661 5.27271H6.1357L2.93115 14H4.03911ZM5.24933 10.5909L6.64706 6.65339H6.71524L8.11297 10.5909H5.24933Z" fill="#a09f92"/>
<path d="M13.4603 14.1534C14.6023 14.1534 15.1989 13.5398 15.4035 13.1136H15.4546V14H16.4603V9.68748C16.4603 7.60793 14.8751 7.3693 14.0398 7.3693C13.0512 7.3693 11.9262 7.71021 11.4148 8.90339L12.3694 9.2443C12.591 8.76702 13.1151 8.25566 14.0739 8.25566C14.9987 8.25566 15.4546 8.74572 15.4546 9.58521V9.6193C15.4546 10.1051 14.9603 10.0625 13.7671 10.2159C12.5526 10.3736 11.2273 10.642 11.2273 12.142C11.2273 13.4204 12.216 14.1534 13.4603 14.1534ZM13.6137 13.25C12.8126 13.25 12.233 12.892 12.233 12.1932C12.233 11.4261 12.9319 11.1875 13.716 11.0852C14.1421 11.0341 15.2842 10.9148 15.4546 10.7102V11.6307C15.4546 12.4488 14.8069 13.25 13.6137 13.25Z" fill="#a09f92"/>
</svg>
