<svg width="40" height="40" viewBox="0 0 40 40" fill="none" xmlns="http://www.w3.org/2000/svg">
<path d="M12.2617 26L13.4322 22.7046H18.1367L19.3072 26H20.7844L16.5117 14.3636H15.0572L10.7844 26H12.2617ZM13.8753 21.4546L15.739 16.2046H15.8299L17.6935 21.4546H13.8753Z" fill="#a09f92"/>
<path d="M24.7833 26.2046C26.306 26.2046 27.1015 25.3864 27.3742 24.8182H27.4424V26H28.7833V20.25C28.7833 17.4773 26.6697 17.1591 25.556 17.1591C24.2378 17.1591 22.7378 17.6136 22.056 19.2046L23.3287 19.6591C23.6242 19.0227 24.3231 18.3409 25.6015 18.3409C26.8344 18.3409 27.4424 18.9943 27.4424 20.1136V20.1591C27.4424 20.8068 26.7833 20.75 25.1924 20.9546C23.5731 21.1648 21.806 21.5227 21.806 23.5227C21.806 25.2273 23.1242 26.2046 24.7833 26.2046ZM24.9878 25C23.9197 25 23.1469 24.5227 23.1469 23.5909C23.1469 22.5682 24.0787 22.25 25.1242 22.1136C25.6924 22.0455 27.2151 21.8864 27.4424 21.6136V22.8409C27.4424 23.9318 26.5787 25 24.9878 25Z" fill="#a09f92"/>
</svg>
