<svg width="20" height="20" viewBox="0 0 20 20" fill="none" xmlns="http://www.w3.org/2000/svg">
<path d="M2.35986 14.3135C2.35986 14.0353 2.43334 13.7703 2.58028 13.5184C2.72723 13.2612 2.91354 13.0146 3.1392 12.7784C3.37012 12.5422 3.60366 12.3087 3.83983 12.0778C4.02351 11.8993 4.16521 11.6658 4.26492 11.3771C4.36988 11.0885 4.4486 10.771 4.50108 10.4246C4.55357 10.0782 4.59555 9.724 4.62704 9.36188C4.65853 8.36999 4.78186 7.49093 4.99703 6.72471C5.21745 5.95849 5.54283 5.3156 5.97317 4.79604C6.40877 4.27648 6.97031 3.89337 7.65781 3.64671C7.80476 3.12715 8.08553 2.69156 8.50013 2.33993C8.91473 1.98831 9.4133 1.8125 9.99584 1.8125C10.5836 1.8125 11.0848 1.98831 11.4994 2.33993C11.914 2.69156 12.1948 3.12715 12.3417 3.64671C13.0292 3.89337 13.5882 4.27648 14.0185 4.79604C14.4541 5.3156 14.7795 5.95849 14.9946 6.72471C15.2151 7.49093 15.341 8.36999 15.3725 9.36188C15.404 9.724 15.446 10.0782 15.4985 10.4246C15.5509 10.771 15.627 11.0885 15.7268 11.3771C15.8317 11.6658 15.976 11.8993 16.1597 12.0778C16.3959 12.3087 16.6268 12.5422 16.8525 12.7784C17.0834 13.0146 17.2723 13.2612 17.4193 13.5184C17.5662 13.7703 17.6397 14.0353 17.6397 14.3135C17.6397 14.6493 17.5216 14.9196 17.2854 15.1243C17.0545 15.3237 16.7344 15.4234 16.325 15.4234H13.0817C13.0607 15.9325 12.9164 16.4048 12.6487 16.8404C12.3863 17.2812 12.0268 17.6355 11.5703 17.9031C11.1189 18.1761 10.5941 18.3125 9.99584 18.3125C9.4028 18.3125 8.87799 18.1761 8.42141 17.9031C7.97007 17.6355 7.61058 17.2812 7.34293 16.8404C7.08052 16.4048 6.93882 15.9325 6.91783 15.4234H3.67451C3.26516 15.4234 2.9424 15.3237 2.70624 15.1243C2.47532 14.9196 2.35986 14.6493 2.35986 14.3135ZM4.2413 13.9828H15.7346V13.8884C15.6664 13.8201 15.5772 13.7283 15.467 13.6128C15.3568 13.4974 15.2334 13.3714 15.097 13.235C14.9658 13.0933 14.8346 12.9489 14.7034 12.802C14.5669 12.6498 14.4488 12.4661 14.3491 12.251C14.2494 12.0305 14.1654 11.7839 14.0972 11.511C14.029 11.2328 13.9713 10.9311 13.924 10.6057C13.882 10.2803 13.8506 9.92867 13.8296 9.55081C13.7981 8.4907 13.6774 7.64575 13.4674 7.01598C13.2575 6.38096 12.9794 5.90864 12.633 5.599C12.2919 5.28411 11.9088 5.06894 11.4837 4.95348C11.3945 4.93249 11.321 4.89575 11.2633 4.84327C11.2108 4.78554 11.1819 4.7042 11.1767 4.59924C11.1557 4.20038 11.0402 3.87762 10.8303 3.63096C10.6256 3.3843 10.3475 3.26097 9.99584 3.26097C9.65471 3.26097 9.37919 3.3843 9.16926 3.63096C8.95934 3.87762 8.84388 4.20038 8.82289 4.59924C8.81764 4.7042 8.78615 4.78554 8.72842 4.84327C8.67594 4.89575 8.60247 4.93249 8.508 4.95348C8.08291 5.06894 7.6998 5.28411 7.35867 5.599C7.01754 5.90864 6.74202 6.38096 6.5321 7.01598C6.32217 7.64575 6.20147 8.4907 6.16998 9.55081C6.14899 9.92867 6.11487 10.2803 6.06764 10.6057C6.02566 10.9311 5.96793 11.2328 5.89445 11.511C5.82623 11.7839 5.74226 12.0305 5.64254 12.251C5.54283 12.4661 5.42475 12.6498 5.2883 12.802C5.16234 12.9489 5.03114 13.0933 4.89469 13.235C4.75824 13.3714 4.63229 13.4974 4.51683 13.6128C4.40137 13.7283 4.30953 13.8201 4.2413 13.8884V13.9828ZM8.40566 15.4234C8.43191 15.922 8.59197 16.3182 8.88587 16.6121C9.18501 16.906 9.555 17.053 9.99584 17.053C10.4472 17.053 10.8172 16.906 11.1058 16.6121C11.3997 16.3182 11.5624 15.922 11.5939 15.4234H8.40566Z" fill="#9B9B9B"/>
</svg>
