<svg width="20" height="20" viewBox="0 0 20 20" fill="none" xmlns="http://www.w3.org/2000/svg">
<path d="M10 2C14.4183 2 18 5.58172 18 10C18 14.4183 14.4183 18 10 18C5.58172 18 2 14.4183 2 10C2 5.58172 5.58172 2 10 2ZM8.0166 10.75C8.09356 12.4862 8.43292 13.9894 8.89941 15.0557C9.16661 15.6664 9.44645 16.0665 9.68066 16.293C9.79319 16.4017 9.87845 16.4545 9.92969 16.4785L10 16.5C10.0033 16.5 10.0237 16.5003 10.0703 16.4785C10.1216 16.4545 10.2068 16.4017 10.3193 16.293C10.5535 16.0665 10.8334 15.6664 11.1006 15.0557C11.5671 13.9894 11.9064 12.4862 11.9834 10.75H8.0166ZM3.54395 10.75C3.82693 13.2127 5.48539 15.2561 7.73242 16.0928C7.05677 14.7775 6.60348 12.8856 6.5166 10.75H3.54395ZM13.4834 10.75C13.3965 12.8859 12.9424 14.7775 12.2666 16.0928C14.5141 15.2563 16.173 13.213 16.4561 10.75H13.4834ZM7.73242 3.90625C5.48523 4.74281 3.82695 6.7872 3.54395 9.25H6.5166C6.6035 7.11393 7.05655 5.22158 7.73242 3.90625ZM9.92969 3.52148C9.87845 3.54553 9.79319 3.59829 9.68066 3.70703C9.44645 3.93346 9.16661 4.33361 8.89941 4.94434C8.43292 6.01061 8.09356 7.51381 8.0166 9.25H11.9834C11.9064 7.51381 11.5671 6.01061 11.1006 4.94434C10.8334 4.33361 10.5535 3.93346 10.3193 3.70703C10.2068 3.59829 10.1216 3.54553 10.0703 3.52148C10.0237 3.49969 10.0033 3.5 10 3.5C9.99673 3.5 9.97629 3.49969 9.92969 3.52148ZM12.2666 3.90625C12.9426 5.2216 13.3965 7.11372 13.4834 9.25H16.4561C16.173 6.78689 14.5142 4.74261 12.2666 3.90625Z" fill="#9B9B9B"/>
</svg>
