<svg width="20" height="20" viewBox="0 0 20 20" fill="none" xmlns="http://www.w3.org/2000/svg">
<path d="M5.1875 17.3994C4.91406 17.3994 4.70215 17.3311 4.55176 17.1943C4.40137 17.0622 4.31934 16.8958 4.30566 16.6953C4.29655 16.4948 4.36491 16.2988 4.51074 16.1074C4.611 15.9798 4.72949 15.8158 4.86621 15.6152C5.00293 15.4193 5.13737 15.2142 5.26953 15C5.40625 14.7812 5.52474 14.5785 5.625 14.3916C4.90951 14.0452 4.28516 13.6009 3.75195 13.0586C3.22331 12.5163 2.81315 11.9079 2.52148 11.2334C2.22982 10.5589 2.08398 9.84798 2.08398 9.10059C2.08398 8.22103 2.28678 7.39616 2.69238 6.62598C3.10254 5.85124 3.66764 5.17448 4.3877 4.5957C5.1123 4.01237 5.95312 3.55664 6.91016 3.22852C7.87174 2.90039 8.90169 2.73633 10 2.73633C11.0983 2.73633 12.126 2.90039 13.083 3.22852C14.0446 3.55664 14.8877 4.01237 15.6123 4.5957C16.3369 5.17448 16.902 5.85124 17.3076 6.62598C17.7132 7.39616 17.916 8.22103 17.916 9.10059C17.916 9.83431 17.7793 10.5247 17.5059 11.1719C17.2324 11.819 16.8428 12.4092 16.3369 12.9424C15.8356 13.471 15.2363 13.9268 14.5391 14.3096C13.8464 14.6878 13.0739 14.9772 12.2217 15.1777C11.3695 15.3783 10.4603 15.4694 9.49414 15.4512C9.01562 15.7975 8.50293 16.1165 7.95605 16.4082C7.40918 16.7044 6.88737 16.9437 6.39062 17.126C5.89844 17.3083 5.4974 17.3994 5.1875 17.3994ZM6.00098 16.0117C6.2015 15.9297 6.45898 15.7975 6.77344 15.6152C7.08789 15.4375 7.41146 15.237 7.74414 15.0137C8.08138 14.7949 8.38672 14.5853 8.66016 14.3848C8.79232 14.2799 8.91992 14.2048 9.04297 14.1592C9.16602 14.109 9.30046 14.084 9.44629 14.084C9.56478 14.0885 9.6696 14.0931 9.76074 14.0977C9.85645 14.0977 9.9362 14.0977 10 14.0977C10.9115 14.0977 11.7614 13.9678 12.5498 13.708C13.3428 13.4482 14.0378 13.0905 14.6348 12.6348C15.2318 12.1745 15.6989 11.6436 16.0361 11.042C16.3734 10.4359 16.542 9.78874 16.542 9.10059C16.542 8.41244 16.3734 7.76758 16.0361 7.16602C15.6989 6.56445 15.2318 6.03353 14.6348 5.57324C14.0378 5.11296 13.3428 4.75293 12.5498 4.49316C11.7614 4.2334 10.9115 4.10352 10 4.10352C9.0931 4.10352 8.24316 4.2334 7.4502 4.49316C6.65723 4.75293 5.96224 5.11296 5.36523 5.57324C4.76823 6.03353 4.30111 6.56445 3.96387 7.16602C3.63118 7.76758 3.46484 8.41244 3.46484 9.10059C3.46484 9.69759 3.59245 10.265 3.84766 10.8027C4.10742 11.3359 4.4834 11.8258 4.97559 12.2725C5.46777 12.7145 6.0625 13.0996 6.75977 13.4277C6.97852 13.5326 7.1084 13.6647 7.14941 13.8242C7.19499 13.9792 7.16764 14.1523 7.06738 14.3438C6.93978 14.5762 6.76432 14.8428 6.54102 15.1436C6.31771 15.4489 6.11947 15.7087 5.94629 15.9229C5.91439 15.9593 5.90527 15.9867 5.91895 16.0049C5.93262 16.0277 5.95996 16.0299 6.00098 16.0117Z" fill="#9B9B9B"/>
</svg>
