<svg width="20" height="20" viewBox="0 0 20 20" fill="none" xmlns="http://www.w3.org/2000/svg">
<path d="M13.4697 6.46967C13.7626 6.17678 14.2373 6.17678 14.5302 6.46967L17.5302 9.46967C17.8231 9.76256 17.8231 10.2373 17.5302 10.5302L14.5302 13.5302C14.2373 13.8231 13.7626 13.8231 13.4697 13.5302C13.1768 13.2373 13.1768 12.7626 13.4697 12.4697L15.9394 9.99994L13.4697 7.53022C13.1768 7.23732 13.1768 6.76256 13.4697 6.46967Z" fill="#9B9B9B"/>
<path d="M6.53033 6.46967C6.23744 6.17678 5.76268 6.17678 5.46978 6.46967L2.46978 9.46967C2.17689 9.76256 2.17689 10.2373 2.46978 10.5302L5.46978 13.5302C5.76268 13.8231 6.23744 13.8231 6.53033 13.5302C6.82322 13.2373 6.82322 12.7626 6.53033 12.4697L4.0606 9.99994L6.53033 7.53022C6.82322 7.23732 6.82322 6.76256 6.53033 6.46967Z" fill="#9B9B9B"/>
<path d="M11.9872 3.28769C11.5943 3.1567 11.169 3.36934 11.038 3.7623L7.038 15.7623C6.90701 16.1553 7.11965 16.5805 7.51261 16.7115C7.90556 16.8425 8.33084 16.6299 8.46183 16.2369L12.4618 4.23691C12.5928 3.84395 12.3802 3.41867 11.9872 3.28769Z" fill="#9B9B9B"/>
</svg>
