<svg xmlns="http://www.w3.org/2000/svg" width="22" height="22" viewBox="0 0 22 22">
	<g fill="none" fill-rule="evenodd">
		<circle cx="11" cy="11" r="10" fill-rule="nonzero" stroke="#b6b6b6" stroke-width="2"/>
		<path fill="#b6b6b6" d="M7.394 8.495c.068-1.994 1.439-3.44 3.937-3.44 2.305 0 3.844 1.329 3.844 3.188 0 1.287-.64 2.187-1.783 2.868-1.102.648-1.413 1.077-1.413 1.91v.948h-1.952l-.008-1.041c-.076-1.262.412-2.019 1.573-2.7 1.043-.631 1.396-1.077 1.396-1.91 0-.874-.706-1.505-1.766-1.505-1.085 0-1.784.656-1.85 1.682H7.393z"/>
		<path fill="#b6b6b6" fill-rule="nonzero" d="M10 15h2v2h-2z"/>
	</g>
</svg>
