<svg width="20" height="20" viewBox="0 0 20 20" fill="none" xmlns="http://www.w3.org/2000/svg">
<path d="M4.00098 15.4316C3.33659 15.4316 2.83724 15.2687 2.50293 14.9429C2.17285 14.6128 2.00781 14.1198 2.00781 13.4639V7.36377C2.00781 6.71208 2.17285 6.22331 2.50293 5.89746C2.83724 5.56738 3.33659 5.40234 4.00098 5.40234H15.9917C16.6519 5.40234 17.1491 5.56738 17.4834 5.89746C17.8177 6.22331 17.9849 6.71208 17.9849 7.36377V13.4639C17.9849 14.1156 17.8177 14.6064 17.4834 14.9365C17.1491 15.2666 16.6519 15.4316 15.9917 15.4316H4.00098ZM4.41357 8.89355H5.0166C5.21549 8.89355 5.31494 8.79622 5.31494 8.60156V7.99854C5.31494 7.80387 5.21549 7.70654 5.0166 7.70654H4.41357C4.22314 7.70654 4.12793 7.80387 4.12793 7.99854V8.60156C4.12793 8.79622 4.22314 8.89355 4.41357 8.89355ZM6.521 8.89355H7.12402C7.31869 8.89355 7.41602 8.79622 7.41602 8.60156V7.99854C7.41602 7.80387 7.31869 7.70654 7.12402 7.70654H6.521C6.32633 7.70654 6.229 7.80387 6.229 7.99854V8.60156C6.229 8.79622 6.32633 8.89355 6.521 8.89355ZM8.62842 8.89355H9.2251C9.42399 8.89355 9.52344 8.79622 9.52344 8.60156V7.99854C9.52344 7.80387 9.42399 7.70654 9.2251 7.70654H8.62842C8.43376 7.70654 8.33643 7.80387 8.33643 7.99854V8.60156C8.33643 8.79622 8.43376 8.89355 8.62842 8.89355ZM10.7358 8.89355H11.3389C11.5335 8.89355 11.6309 8.79622 11.6309 8.60156V7.99854C11.6309 7.80387 11.5335 7.70654 11.3389 7.70654H10.7358C10.5412 7.70654 10.4438 7.80387 10.4438 7.99854V8.60156C10.4438 8.79622 10.5412 8.89355 10.7358 8.89355ZM12.8433 8.89355H13.4463C13.6367 8.89355 13.7319 8.79622 13.7319 8.60156V7.99854C13.7319 7.80387 13.6367 7.70654 13.4463 7.70654H12.8433C12.6444 7.70654 12.5449 7.80387 12.5449 7.99854V8.60156C12.5449 8.79622 12.6444 8.89355 12.8433 8.89355ZM14.9507 8.89355H15.5474C15.742 8.89355 15.8394 8.79622 15.8394 8.60156V7.99854C15.8394 7.80387 15.742 7.70654 15.5474 7.70654H14.9507C14.7518 7.70654 14.6523 7.80387 14.6523 7.99854V8.60156C14.6523 8.79622 14.7518 8.89355 14.9507 8.89355ZM4.41357 11.001H5.0166C5.21549 11.001 5.31494 10.9036 5.31494 10.709V10.106C5.31494 9.9113 5.21549 9.81396 5.0166 9.81396H4.41357C4.22314 9.81396 4.12793 9.9113 4.12793 10.106V10.709C4.12793 10.9036 4.22314 11.001 4.41357 11.001ZM6.521 11.001H7.12402C7.31869 11.001 7.41602 10.9036 7.41602 10.709V10.106C7.41602 9.9113 7.31869 9.81396 7.12402 9.81396H6.521C6.32633 9.81396 6.229 9.9113 6.229 10.106V10.709C6.229 10.9036 6.32633 11.001 6.521 11.001ZM8.62842 11.001H9.2251C9.42399 11.001 9.52344 10.9036 9.52344 10.709V10.106C9.52344 9.9113 9.42399 9.81396 9.2251 9.81396H8.62842C8.43376 9.81396 8.33643 9.9113 8.33643 10.106V10.709C8.33643 10.9036 8.43376 11.001 8.62842 11.001ZM10.7358 11.001H11.3389C11.5335 11.001 11.6309 10.9036 11.6309 10.709V10.106C11.6309 9.9113 11.5335 9.81396 11.3389 9.81396H10.7358C10.5412 9.81396 10.4438 9.9113 10.4438 10.106V10.709C10.4438 10.9036 10.5412 11.001 10.7358 11.001ZM12.8433 11.001H13.4463C13.6367 11.001 13.7319 10.9036 13.7319 10.709V10.106C13.7319 9.9113 13.6367 9.81396 13.4463 9.81396H12.8433C12.6444 9.81396 12.5449 9.9113 12.5449 10.106V10.709C12.5449 10.9036 12.6444 11.001 12.8433 11.001ZM14.9507 11.001H15.5474C15.742 11.001 15.8394 10.9036 15.8394 10.709V10.106C15.8394 9.9113 15.742 9.81396 15.5474 9.81396H14.9507C14.7518 9.81396 14.6523 9.9113 14.6523 10.106V10.709C14.6523 10.9036 14.7518 11.001 14.9507 11.001ZM4.41357 13.1084H5.0166C5.21549 13.1084 5.31494 13.0111 5.31494 12.8164V12.2134C5.31494 12.0187 5.21549 11.9214 5.0166 11.9214H4.41357C4.22314 11.9214 4.12793 12.0187 4.12793 12.2134V12.8164C4.12793 13.0111 4.22314 13.1084 4.41357 13.1084ZM6.59082 13.1084H13.3765C13.6134 13.1084 13.7319 12.9878 13.7319 12.7466V12.2769C13.7319 12.0399 13.6134 11.9214 13.3765 11.9214H6.59082C6.34961 11.9214 6.229 12.0399 6.229 12.2769V12.7466C6.229 12.9878 6.34961 13.1084 6.59082 13.1084ZM14.9507 13.1084H15.5474C15.742 13.1084 15.8394 13.0111 15.8394 12.8164V12.2134C15.8394 12.0187 15.742 11.9214 15.5474 11.9214H14.9507C14.7518 11.9214 14.6523 12.0187 14.6523 12.2134V12.8164C14.6523 13.0111 14.7518 13.1084 14.9507 13.1084Z" fill="#9B9B9B"/>
</svg>