<svg width="20" height="20" viewBox="0 0 20 20" fill="none" xmlns="http://www.w3.org/2000/svg">
<path d="M3.5332 15.5947C2.79492 15.5947 2.23665 15.4056 1.8584 15.0273C1.48014 14.6536 1.29102 14.0999 1.29102 13.3662V6.74902C1.29102 6.01986 1.48014 5.46842 1.8584 5.09473C2.23665 4.72103 2.79492 4.53418 3.5332 4.53418H16.46C17.1937 4.53418 17.7497 4.72103 18.1279 5.09473C18.5107 5.46842 18.7021 6.01986 18.7021 6.74902V13.3662C18.7021 14.0954 18.5107 14.6491 18.1279 15.0273C17.7497 15.4056 17.1937 15.5947 16.46 15.5947H3.5332ZM3.61523 14.248H16.3779C16.6878 14.248 16.9294 14.166 17.1025 14.002C17.2757 13.8333 17.3623 13.5827 17.3623 13.25V6.87207C17.3623 6.53939 17.2757 6.29102 17.1025 6.12695C16.9294 5.96289 16.6878 5.88086 16.3779 5.88086H3.61523C3.29622 5.88086 3.05241 5.96289 2.88379 6.12695C2.71973 6.29102 2.6377 6.53939 2.6377 6.87207V13.25C2.6377 13.5827 2.71973 13.8333 2.88379 14.002C3.05241 14.166 3.29622 14.248 3.61523 14.248ZM4.26465 8.5127C4.05501 8.5127 3.9502 8.40788 3.9502 8.19824V7.56934C3.9502 7.35514 4.05501 7.24805 4.26465 7.24805H4.90039C5.11458 7.24805 5.22168 7.35514 5.22168 7.56934V8.19824C5.22168 8.40788 5.11458 8.5127 4.90039 8.5127H4.26465ZM6.43164 8.5127C6.21745 8.5127 6.11035 8.40788 6.11035 8.19824V7.56934C6.11035 7.35514 6.21745 7.24805 6.43164 7.24805H7.06055C7.27018 7.24805 7.375 7.35514 7.375 7.56934V8.19824C7.375 8.40788 7.27018 8.5127 7.06055 8.5127H6.43164ZM8.5918 8.5127C8.3776 8.5127 8.27051 8.40788 8.27051 8.19824V7.56934C8.27051 7.35514 8.3776 7.24805 8.5918 7.24805H9.2207C9.43034 7.24805 9.53516 7.35514 9.53516 7.56934V8.19824C9.53516 8.40788 9.43034 8.5127 9.2207 8.5127H8.5918ZM10.752 8.5127C10.5378 8.5127 10.4307 8.40788 10.4307 8.19824V7.56934C10.4307 7.35514 10.5378 7.24805 10.752 7.24805H11.3809C11.5951 7.24805 11.7021 7.35514 11.7021 7.56934V8.19824C11.7021 8.40788 11.5951 8.5127 11.3809 8.5127H10.752ZM12.9258 8.5127C12.7025 8.5127 12.5908 8.40788 12.5908 8.19824V7.56934C12.5908 7.35514 12.7025 7.24805 12.9258 7.24805H13.541C13.7507 7.24805 13.8555 7.35514 13.8555 7.56934V8.19824C13.8555 8.40788 13.7507 8.5127 13.541 8.5127H12.9258ZM15.0723 8.5127C14.8581 8.5127 14.751 8.40788 14.751 8.19824V7.56934C14.751 7.35514 14.8581 7.24805 15.0723 7.24805H15.7012C15.9154 7.24805 16.0225 7.35514 16.0225 7.56934V8.19824C16.0225 8.40788 15.9154 8.5127 15.7012 8.5127H15.0723ZM4.26465 10.6934C4.05501 10.6934 3.9502 10.5863 3.9502 10.3721V9.74316C3.9502 9.52897 4.05501 9.42188 4.26465 9.42188H4.90039C5.11458 9.42188 5.22168 9.52897 5.22168 9.74316V10.3721C5.22168 10.5863 5.11458 10.6934 4.90039 10.6934H4.26465ZM6.43164 10.6934C6.21745 10.6934 6.11035 10.5863 6.11035 10.3721V9.74316C6.11035 9.52897 6.21745 9.42188 6.43164 9.42188H7.06055C7.27018 9.42188 7.375 9.52897 7.375 9.74316V10.3721C7.375 10.5863 7.27018 10.6934 7.06055 10.6934H6.43164ZM8.5918 10.6934C8.3776 10.6934 8.27051 10.5863 8.27051 10.3721V9.74316C8.27051 9.52897 8.3776 9.42188 8.5918 9.42188H9.2207C9.43034 9.42188 9.53516 9.52897 9.53516 9.74316V10.3721C9.53516 10.5863 9.43034 10.6934 9.2207 10.6934H8.5918ZM10.752 10.6934C10.5378 10.6934 10.4307 10.5863 10.4307 10.3721V9.74316C10.4307 9.52897 10.5378 9.42188 10.752 9.42188H11.3809C11.5951 9.42188 11.7021 9.52897 11.7021 9.74316V10.3721C11.7021 10.5863 11.5951 10.6934 11.3809 10.6934H10.752ZM12.9258 10.6934C12.7025 10.6934 12.5908 10.5863 12.5908 10.3721V9.74316C12.5908 9.52897 12.7025 9.42188 12.9258 9.42188H13.541C13.7507 9.42188 13.8555 9.52897 13.8555 9.74316V10.3721C13.8555 10.5863 13.7507 10.6934 13.541 10.6934H12.9258ZM15.0723 10.6934C14.8581 10.6934 14.751 10.5863 14.751 10.3721V9.74316C14.751 9.52897 14.8581 9.42188 15.0723 9.42188H15.7012C15.9154 9.42188 16.0225 9.52897 16.0225 9.74316V10.3721C16.0225 10.5863 15.9154 10.6934 15.7012 10.6934H15.0723ZM4.26465 12.8672C4.05501 12.8672 3.9502 12.7601 3.9502 12.5459V11.917C3.9502 11.7074 4.05501 11.6025 4.26465 11.6025H4.90039C5.11458 11.6025 5.22168 11.7074 5.22168 11.917V12.5459C5.22168 12.7601 5.11458 12.8672 4.90039 12.8672H4.26465ZM6.48633 12.8672C6.23568 12.8672 6.11035 12.7419 6.11035 12.4912V11.9717C6.11035 11.7256 6.23568 11.6025 6.48633 11.6025H13.4863C13.7324 11.6025 13.8555 11.7256 13.8555 11.9717V12.4912C13.8555 12.7419 13.7324 12.8672 13.4863 12.8672H6.48633ZM15.0723 12.8672C14.8581 12.8672 14.751 12.7601 14.751 12.5459V11.917C14.751 11.7074 14.8581 11.6025 15.0723 11.6025H15.7012C15.9154 11.6025 16.0225 11.7074 16.0225 11.917V12.5459C16.0225 12.7601 15.9154 12.8672 15.7012 12.8672H15.0723Z" fill="#9B9B9B"/>
</svg>