<svg width="20" height="20" viewBox="0 0 20 20" fill="none" xmlns="http://www.w3.org/2000/svg">
<path d="M9.99219 18.4297C8.8776 18.4297 7.83333 18.2188 6.85938 17.7969C5.88542 17.3802 5.02865 16.8021 4.28906 16.0625C3.54948 15.3281 2.96875 14.474 2.54688 13.5C2.13021 12.5208 1.92188 11.474 1.92188 10.3594C1.92188 9.24479 2.13021 8.20052 2.54688 7.22656C2.96875 6.2474 3.54948 5.38802 4.28906 4.64844C5.02865 3.90885 5.88542 3.33073 6.85938 2.91406C7.83333 2.4974 8.8776 2.28906 9.99219 2.28906C11.1068 2.28906 12.151 2.4974 13.125 2.91406C14.1042 3.33073 14.9635 3.90885 15.7031 4.64844C16.4427 5.38802 17.0208 6.2474 17.4375 7.22656C17.8594 8.20052 18.0703 9.24479 18.0703 10.3594C18.0703 11.474 17.8594 12.5208 17.4375 13.5C17.0208 14.474 16.4427 15.3281 15.7031 16.0625C14.9635 16.8021 14.1042 17.3802 13.125 17.7969C12.151 18.2188 11.1068 18.4297 9.99219 18.4297ZM9.99219 16.8359C10.888 16.8359 11.7266 16.6667 12.5078 16.3281C13.2891 15.9948 13.9766 15.5312 14.5703 14.9375C15.1693 14.3438 15.6354 13.6562 15.9688 12.875C16.3021 12.0938 16.4688 11.2552 16.4688 10.3594C16.4688 9.46354 16.3021 8.625 15.9688 7.84375C15.6354 7.05729 15.1693 6.36979 14.5703 5.78125C13.9766 5.1875 13.2891 4.72396 12.5078 4.39062C11.7266 4.05208 10.888 3.88281 9.99219 3.88281C9.10156 3.88281 8.26302 4.05208 7.47656 4.39062C6.69531 4.72396 6.00781 5.1875 5.41406 5.78125C4.82031 6.36979 4.35417 7.05729 4.01562 7.84375C3.68229 8.625 3.51562 9.46354 3.51562 10.3594C3.51562 11.2552 3.68229 12.0938 4.01562 12.875C4.35417 13.6562 4.82031 14.3438 5.41406 14.9375C6.00781 15.5312 6.69531 15.9948 7.47656 16.3281C8.26302 16.6667 9.10156 16.8359 9.99219 16.8359ZM6.32812 11.5234C6.00521 11.5234 5.72917 11.4089 5.5 11.1797C5.27083 10.9505 5.15625 10.6745 5.15625 10.3516C5.15625 10.0286 5.27083 9.7526 5.5 9.52344C5.72917 9.29427 6.00521 9.17969 6.32812 9.17969C6.65104 9.17969 6.92708 9.29427 7.15625 9.52344C7.39062 9.7526 7.50781 10.0286 7.50781 10.3516C7.50781 10.6745 7.39323 10.9505 7.16406 11.1797C6.9349 11.4089 6.65625 11.5234 6.32812 11.5234ZM9.99219 11.5234C9.67448 11.5234 9.39844 11.4089 9.16406 11.1797C8.9349 10.9505 8.82031 10.6745 8.82031 10.3516C8.82031 10.0286 8.9349 9.7526 9.16406 9.52344C9.39844 9.29427 9.67448 9.17969 9.99219 9.17969C10.3151 9.17969 10.5911 9.29427 10.8203 9.52344C11.0495 9.7526 11.1641 10.0286 11.1641 10.3516C11.1641 10.6745 11.0495 10.9505 10.8203 11.1797C10.5911 11.4089 10.3151 11.5234 9.99219 11.5234ZM13.6562 11.5234C13.3333 11.5234 13.0573 11.4089 12.8281 11.1797C12.599 10.9505 12.4844 10.6745 12.4844 10.3516C12.4844 10.0286 12.599 9.7526 12.8281 9.52344C13.0573 9.29427 13.3333 9.17969 13.6562 9.17969C13.9844 9.17969 14.263 9.29427 14.4922 9.52344C14.7214 9.7526 14.8359 10.0286 14.8359 10.3516C14.8359 10.6745 14.7214 10.9505 14.4922 11.1797C14.263 11.4089 13.9844 11.5234 13.6562 11.5234Z" fill="#9B9B9B"/>
</svg>
