<svg width="20" height="20" viewBox="0 0 20 20" fill="none" xmlns="http://www.w3.org/2000/svg">
<path d="M5.32871 16.709C5.18743 16.6042 5.10085 16.4629 5.06895 16.2852C5.0416 16.1074 5.07122 15.8955 5.15781 15.6494L6.58652 11.3975L2.93613 8.77246C2.72194 8.62207 2.57383 8.46712 2.4918 8.30762C2.40977 8.14811 2.39609 7.98405 2.45078 7.81543C2.50547 7.65137 2.61257 7.5306 2.77207 7.45312C2.93158 7.37109 3.14349 7.33008 3.40781 7.33008H7.88535L9.2457 3.08496C9.32773 2.83431 9.43027 2.64518 9.55332 2.51758C9.68092 2.38997 9.83132 2.32617 10.0045 2.32617C10.1822 2.32617 10.3326 2.38997 10.4557 2.51758C10.5833 2.64518 10.6881 2.83431 10.7701 3.08496L12.1305 7.33008H16.608C16.8723 7.33008 17.0842 7.37109 17.2437 7.45312C17.4033 7.5306 17.5104 7.65137 17.565 7.81543C17.6197 7.98405 17.6061 8.14811 17.524 8.30762C17.442 8.46712 17.2939 8.62207 17.0797 8.77246L13.4293 11.3975L14.858 15.6494C14.9446 15.8955 14.9719 16.1074 14.94 16.2852C14.9127 16.4629 14.8284 16.6042 14.6871 16.709C14.5458 16.8184 14.3863 16.8548 14.2086 16.8184C14.0309 16.7865 13.8372 16.6953 13.6275 16.5449L10.0045 13.8857L6.38828 16.5449C6.17865 16.6953 5.98496 16.7865 5.80723 16.8184C5.62949 16.8548 5.46999 16.8184 5.32871 16.709Z" fill="#9B9B9B"/>
</svg>