<svg width="20" height="20" viewBox="0 0 20 20" fill="none" xmlns="http://www.w3.org/2000/svg">
<path d="M9.6748 12.7246C9.05957 12.7246 8.75195 12.2764 8.75195 11.6963V11.4941C8.75195 10.3691 9.29688 9.62207 10.4395 8.93652C11.5029 8.29492 11.8809 7.76758 11.8809 6.90625C11.8809 5.86914 11.0811 5.15723 9.91211 5.15723C8.84863 5.15723 8.14551 5.68457 7.86426 6.64258C7.68848 7.1875 7.41602 7.38086 6.97656 7.38086C6.43164 7.38086 6.12402 7.05566 6.12402 6.51953C6.12402 6.1416 6.20312 5.83398 6.36133 5.49121C6.89746 4.27832 8.2334 3.54004 9.99121 3.54004C12.2852 3.54004 13.876 4.88477 13.876 6.82715C13.876 8.18945 13.1904 9.12109 12.0303 9.81543C10.8965 10.4834 10.5977 10.9316 10.5537 11.793C10.5098 12.3555 10.2461 12.7246 9.6748 12.7246ZM9.6748 16.46C9.0332 16.46 8.52344 15.9678 8.52344 15.3262C8.52344 14.6846 9.0332 14.1924 9.6748 14.1924C10.334 14.1924 10.835 14.6846 10.835 15.3262C10.835 15.9678 10.334 16.46 9.6748 16.46Z" fill="#9B9B9B"/>
</svg>
