<svg width="18" height="18" viewBox="0 0 18 18" fill="none" xmlns="http://www.w3.org/2000/svg">
<path d="M14.0625 16.875C13.9249 16.8754 13.792 16.8254 13.6888 16.7344L9 12.5652L4.31121 16.7344C4.23007 16.8065 4.12979 16.8536 4.02247 16.87C3.91516 16.8864 3.80538 16.8714 3.70641 16.8268C3.60743 16.7822 3.52347 16.7099 3.46466 16.6186C3.40586 16.5274 3.37472 16.4211 3.375 16.3125V3.375C3.37565 2.77846 3.61292 2.20654 4.03473 1.78473C4.45655 1.36291 5.02846 1.12565 5.625 1.125H12.375C12.9715 1.12565 13.5435 1.36291 13.9653 1.78473C14.3871 2.20654 14.6244 2.77846 14.625 3.375V16.3125C14.625 16.4617 14.5657 16.6048 14.4603 16.7102C14.3548 16.8157 14.2117 16.875 14.0625 16.875Z" fill="_COLOR_VAR_"/>
</svg>
