<svg xmlns="http://www.w3.org/2000/svg" width="18" height="18" viewBox="0 0 19 18" fill="none">
    <path d="M13.4375 0.5625H5.5625C4.96596 0.563151 4.39404 0.800413 3.97223 1.22223C3.55041 1.64404 3.31315 2.21596 3.3125 2.8125V15.1875C3.31315 15.784 3.55041 16.356 3.97223 16.7778C4.39404 17.1996 4.96596 17.4368 5.5625 17.4375H13.4375C14.034 17.4368 14.606 17.1996 15.0278 16.7778C15.4496 16.356 15.6868 15.784 15.6875 15.1875V2.8125C15.6868 2.21596 15.4496 1.64404 15.0278 1.22223C14.606 0.800413 14.034 0.563151 13.4375 0.5625ZM12.2239 10.0023C12.49 10.2895 12.6201 10.6759 12.5892 11.09C12.5284 11.9148 11.8994 12.5859 11.1875 12.5859C10.4756 12.5859 9.84559 11.9148 9.78547 11.09C9.75523 10.6717 9.88426 10.2846 10.149 10.0002C10.4137 9.71578 10.7797 9.5625 11.1875 9.5625C11.3813 9.55971 11.5736 9.59738 11.7521 9.67311C11.9305 9.74884 12.0912 9.86096 12.2239 10.0023ZM7.25 2.8125C7.25 2.66332 7.30926 2.52024 7.41475 2.41475C7.52024 2.30926 7.66332 2.25 7.8125 2.25H11.1875C11.3367 2.25 11.4798 2.30926 11.5852 2.41475C11.6907 2.52024 11.75 2.66332 11.75 2.8125C11.75 2.96168 11.6907 3.10476 11.5852 3.21025C11.4798 3.31574 11.3367 3.375 11.1875 3.375H7.8125C7.66332 3.375 7.52024 3.31574 7.41475 3.21025C7.30926 3.10476 7.25 2.96168 7.25 2.8125ZM13.8945 15.6034C13.854 15.6503 13.8037 15.6877 13.7472 15.713C13.6906 15.7384 13.6292 15.751 13.5672 15.75H8.80777C8.74582 15.751 8.68439 15.7384 8.62784 15.713C8.57129 15.6877 8.52098 15.6503 8.48047 15.6034C8.43654 15.5508 8.40501 15.489 8.38822 15.4225C8.37142 15.356 8.36979 15.2867 8.38344 15.2195C8.4977 14.6021 8.85383 14.0836 9.41352 13.7197C9.91062 13.3966 10.5406 13.2188 11.1875 13.2188C11.8344 13.2188 12.4644 13.3966 12.9615 13.7197C13.5212 14.0836 13.8773 14.6021 13.9916 15.2195C14.0052 15.2867 14.0036 15.356 13.9868 15.4225C13.97 15.489 13.9385 15.5508 13.8945 15.6034Z" fill="_COLOR_VAR_"/>
</svg>
