<svg width="18" height="18" viewBox="0 0 18 18" fill="none" xmlns="http://www.w3.org/2000/svg">
<path fill-rule="evenodd" clip-rule="evenodd" d="M11.5667 3H3.5C2.11929 3 1 4.11929 1 5.5V14.5C1 15.8807 2.11929 17 3.5 17H12.5C13.8807 17 15 15.8807 15 14.5V6.2772L9.4067 11.9355C9.22415 12.1202 8.99937 12.2577 8.75176 12.3361L7.15058 12.843C5.87669 13.2464 4.67674 12.0474 5.07912 10.7731L5.58472 9.17209C5.66305 8.92404 5.80069 8.69879 5.98573 8.5159L11.5667 3Z" fill="_COLOR_VAR_"/>
<path d="M6.33922 11.4748L6.84482 9.87377C6.84972 9.85827 6.85832 9.84419 6.86989 9.83276L13.375 3.40342L14.5988 4.62717L8.16965 11.131C8.15824 11.1426 8.14419 11.1512 8.12872 11.1561L6.52754 11.663C6.41173 11.6997 6.30264 11.5907 6.33922 11.4748Z" fill="_COLOR_VAR_"/>
<path d="M15.126 4.09377L16.0057 3.20384C16.3358 2.86996 16.3343 2.33224 16.0024 2.00019C15.6704 1.66804 15.1325 1.6664 14.7985 1.99651L13.9084 2.8762L15.126 4.09377Z" fill="_COLOR_VAR_"/>
</svg>