<svg xmlns="http://www.w3.org/2000/svg" width="18" height="18" viewBox="0 0 18 18" fill="none">
    <path fill-rule="evenodd" clip-rule="evenodd" d="M6.97869 13.0931C5.7048 13.4964 4.50486 12.2974 4.90725 11.0231L5.41284 9.42209C5.49117 9.17404 5.62881 8.94879 5.81386 8.7659L11.6477 3H3.5C2.11929 3 1 4.11929 1 5.5V14.5C1 15.8807 2.11929 17 3.5 17H12.5C13.8807 17 15 15.8807 15 14.5V6.35333L9.23482 12.1855C9.05227 12.3702 8.8275 12.5077 8.57988 12.5861L6.97869 13.0931ZM14.7696 4.45036C14.7699 4.45088 14.7701 4.45141 14.7704 4.45194L8.16805 11.131C8.15664 11.1426 8.14259 11.1512 8.12712 11.1561L6.52593 11.663C6.50996 11.6681 6.49412 11.6704 6.47877 11.6702C6.4934 11.6701 6.50846 11.6678 6.52363 11.663L8.12481 11.1561C8.14029 11.1512 8.15434 11.1426 8.16575 11.131L14.7696 4.45036Z" fill="_COLOR_VAR_"/>
    <path fill-rule="evenodd" clip-rule="evenodd" d="M6.33694 11.4744L6.84254 9.87328C6.84744 9.85778 6.85604 9.8437 6.86761 9.83227L13.3727 3.40293L14.5965 4.62668L8.16737 11.1305C8.15596 11.1421 8.14191 11.1507 8.12644 11.1556L6.52526 11.6625C6.40945 11.6992 6.30036 11.5902 6.33694 11.4744ZM15.1237 4.09329L16.0035 3.20335C16.3335 2.86947 16.332 2.33175 16.0001 1.9997C15.6681 1.66755 15.1302 1.66591 14.7962 1.99603L13.9062 2.87571L15.1237 4.09329Z" fill="_COLOR_VAR_"/>
</svg>
