<svg width="18" height="18" viewBox="0 0 18 18" fill="none" xmlns="http://www.w3.org/2000/svg">
<path d="M17.4375 5.34375C17.4375 4.82161 17.2301 4.32085 16.8609 3.95164C16.4917 3.58243 15.9909 3.375 15.4688 3.375H7.73824C7.57178 3.37554 7.40891 3.32659 7.27031 3.23438L6.29297 2.58082C5.96933 2.36441 5.58859 2.24924 5.19926 2.25H2.53125C2.00911 2.25 1.50835 2.45743 1.13913 2.82664C0.769921 3.19585 0.5625 3.69661 0.5625 4.21875V5.90625C0.5625 5.98085 0.592132 6.05238 0.644876 6.10513C0.697621 6.15787 0.769158 6.1875 0.84375 6.1875H17.1562C17.2308 6.1875 17.3024 6.15787 17.3551 6.10513C17.4079 6.05238 17.4375 5.98085 17.4375 5.90625V5.34375Z" fill="_COLOR_VAR_"/>
<path d="M0.5625 13.7812C0.5625 14.3034 0.769921 14.8042 1.13913 15.1734C1.50835 15.5426 2.00911 15.75 2.53125 15.75H15.4688C15.9909 15.75 16.4917 15.5426 16.8609 15.1734C17.2301 14.8042 17.4375 14.3034 17.4375 13.7812V7.59375C17.4375 7.51916 17.4079 7.44762 17.3551 7.39488C17.3024 7.34213 17.2308 7.3125 17.1562 7.3125H0.84375C0.769158 7.3125 0.697621 7.34213 0.644876 7.39488C0.592132 7.44762 0.5625 7.51916 0.5625 7.59375V13.7812Z" fill="_COLOR_VAR_"/>
</svg>
