<svg width="18" height="18" viewBox="0 0 18 18" fill="none" xmlns="http://www.w3.org/2000/svg">
<path d="M12.9375 1.125H5.0625C4.46596 1.12565 3.89404 1.36291 3.47223 1.78473C3.05041 2.20654 2.81315 2.77846 2.8125 3.375V14.625C2.81315 15.2215 3.05041 15.7935 3.47223 16.2153C3.89404 16.6371 4.46596 16.8743 5.0625 16.875H12.9375C13.534 16.8743 14.106 16.6371 14.5278 16.2153C14.9496 15.7935 15.1868 15.2215 15.1875 14.625V3.375C15.1868 2.77846 14.9496 2.20654 14.5278 1.78473C14.106 1.36291 13.534 1.12565 12.9375 1.125ZM9 10.6875H6.1875C6.03832 10.6875 5.89524 10.6282 5.78975 10.5227C5.68426 10.4173 5.625 10.2742 5.625 10.125C5.625 9.97582 5.68426 9.83274 5.78975 9.72725C5.89524 9.62176 6.03832 9.5625 6.1875 9.5625H9C9.14918 9.5625 9.29226 9.62176 9.39775 9.72725C9.50324 9.83274 9.5625 9.97582 9.5625 10.125C9.5625 10.2742 9.50324 10.4173 9.39775 10.5227C9.29226 10.6282 9.14918 10.6875 9 10.6875ZM11.8125 7.875H6.1875C6.03832 7.875 5.89524 7.81574 5.78975 7.71025C5.68426 7.60476 5.625 7.46168 5.625 7.3125C5.625 7.16332 5.68426 7.02024 5.78975 6.91475C5.89524 6.80926 6.03832 6.75 6.1875 6.75H11.8125C11.9617 6.75 12.1048 6.80926 12.2102 6.91475C12.3157 7.02024 12.375 7.16332 12.375 7.3125C12.375 7.46168 12.3157 7.60476 12.2102 7.71025C12.1048 7.81574 11.9617 7.875 11.8125 7.875ZM11.8125 5.0625H6.1875C6.03832 5.0625 5.89524 5.00324 5.78975 4.89775C5.68426 4.79226 5.625 4.64918 5.625 4.5C5.625 4.35082 5.68426 4.20774 5.78975 4.10225C5.89524 3.99676 6.03832 3.9375 6.1875 3.9375H11.8125C11.9617 3.9375 12.1048 3.99676 12.2102 4.10225C12.3157 4.20774 12.375 4.35082 12.375 4.5C12.375 4.64918 12.3157 4.79226 12.2102 4.89775C12.1048 5.00324 11.9617 5.0625 11.8125 5.0625Z" fill="_COLOR_VAR_"/>
</svg>
