<svg width="18" height="18" viewBox="0 0 18 18" fill="none" xmlns="http://www.w3.org/2000/svg">
<path d="M13.5014 11.812C13.1984 11.8119 12.8985 11.8732 12.6198 11.9923C12.3411 12.1113 12.0894 12.2856 11.88 12.5046L6.67687 9.57713C6.77766 9.19865 6.77766 8.80038 6.67687 8.4219L11.88 5.49444C12.2589 5.88725 12.768 6.12845 13.3119 6.17284C13.8559 6.21723 14.3974 6.06177 14.8349 5.73559C15.2725 5.4094 15.5761 4.93487 15.6889 4.40089C15.8017 3.86691 15.716 3.31012 15.4477 2.83484C15.1795 2.35955 14.7471 1.99838 14.2317 1.81898C13.7162 1.63958 13.1531 1.65426 12.6477 1.86028C12.1423 2.0663 11.7294 2.44952 11.4863 2.93814C11.2431 3.42676 11.1865 3.98726 11.327 4.51463L6.12386 7.44209C5.81307 7.11804 5.41242 6.89438 4.97346 6.79989C4.5345 6.70541 4.07732 6.74442 3.66071 6.91191C3.24411 7.0794 2.88715 7.3677 2.63574 7.73973C2.38434 8.11176 2.25 8.55051 2.25 8.99952C2.25 9.44853 2.38434 9.88727 2.63574 10.2593C2.88715 10.6313 3.24411 10.9196 3.66071 11.0871C4.07732 11.2546 4.5345 11.2936 4.97346 11.1991C5.41242 11.1047 5.81307 10.881 6.12386 10.5569L11.327 13.4844C11.2064 13.9386 11.2309 14.4191 11.3973 14.8586C11.5637 15.2981 11.8635 15.6745 12.2546 15.9349C12.6458 16.1953 13.1087 16.3267 13.5783 16.3107C14.048 16.2947 14.5008 16.132 14.8733 15.8455C15.2458 15.559 15.5192 15.1631 15.6553 14.7133C15.7913 14.2635 15.7831 13.7824 15.6317 13.3375C15.4804 12.8926 15.1936 12.5063 14.8115 12.2327C14.4295 11.9591 13.9713 11.812 13.5014 11.812Z" fill="_COLOR_VAR_"/>
</svg>
