<svg width="18" height="18" viewBox="0 0 18 18" fill="none" xmlns="http://www.w3.org/2000/svg">
<path d="M16.3125 13.5134C16.155 13.5133 15.9993 13.4801 15.8555 13.416C15.822 13.4011 15.7901 13.383 15.7602 13.3619L12.8524 11.3151C12.705 11.2113 12.5846 11.0735 12.5015 10.9135C12.4184 10.7534 12.375 10.5757 12.375 10.3954V7.60397C12.375 7.42363 12.4184 7.24594 12.5015 7.08589C12.5846 6.92583 12.705 6.78809 12.8524 6.68428L15.7602 4.63749C15.7901 4.61634 15.822 4.5982 15.8555 4.58335C16.0268 4.5072 16.2143 4.47505 16.4012 4.48983C16.5881 4.50461 16.7683 4.56585 16.9255 4.66798C17.0826 4.77012 17.2118 4.9099 17.3012 5.07465C17.3907 5.23939 17.4375 5.42387 17.4375 5.61131V12.388C17.4375 12.6864 17.319 12.9726 17.108 13.1835C16.897 13.3945 16.6109 13.513 16.3125 13.513V13.5134Z" fill="_COLOR_VAR_"/>
<path d="M9.42188 14.0625H2.95312C2.31929 14.0618 1.71161 13.8098 1.26342 13.3616C0.815229 12.9134 0.563151 12.3057 0.5625 11.6719V6.32812C0.563151 5.69429 0.815229 5.08661 1.26342 4.63842C1.71161 4.19023 2.31929 3.93815 2.95312 3.9375H9.43875C10.0681 3.93824 10.6714 4.18857 11.1164 4.63358C11.5614 5.07858 11.8118 5.68192 11.8125 6.31125V11.6719C11.8118 12.3057 11.5598 12.9134 11.1116 13.3616C10.6634 13.8098 10.0557 14.0618 9.42188 14.0625Z" fill="_COLOR_VAR_"/>
</svg>
