<svg width="48" height="48" viewBox="0 0 48 48" fill="none" xmlns="http://www.w3.org/2000/svg">
<rect x="0.5" y="0.5" width="47" height="47" rx="7.5" stroke="#F2F2F2"/>
<path fill-rule="evenodd" clip-rule="evenodd" d="M13.5 27.0452C13.5 31.1614 16.8369 34.4983 20.9531 34.4983C25.0694 34.4983 28.4062 31.1614 28.4062 27.0452C28.4062 22.9289 25.0694 19.592 20.9531 19.592C16.8369 19.592 13.5 22.9289 13.5 27.0452ZM20.9531 18.092C16.0085 18.092 12 22.1005 12 27.0452C12 31.9898 16.0085 35.9983 20.9531 35.9983C25.8978 35.9983 29.9062 31.9898 29.9062 27.0452C29.9062 22.1005 25.8978 18.092 20.9531 18.092Z" fill="#B6B6B6"/>
<path fill-rule="evenodd" clip-rule="evenodd" d="M24 13.5017H32C33.3807 13.5017 34.5 14.621 34.5 16.0017V24.0017C34.5 25.3824 33.3807 26.5017 32 26.5017H29.89C29.9008 26.6815 29.9062 26.8627 29.9062 27.0452C29.9062 27.3683 29.8891 27.6874 29.8558 28.0017H32C34.2091 28.0017 36 26.2108 36 24.0017V16.0017C36 13.7926 34.2091 12.0017 32 12.0017H24C21.7909 12.0017 20 13.7926 20 16.0017V18.1422C20.3132 18.109 20.6312 18.092 20.9531 18.092C21.1368 18.092 21.3191 18.0976 21.5 18.1085V16.0017C21.5 14.621 22.6193 13.5017 24 13.5017Z" fill="#B6B6B6"/>
</svg>