<svg width="16" height="12" viewBox="0 0 16 12" fill="none" xmlns="http://www.w3.org/2000/svg">
<path d="M14.6104 5.60089C14.7057 5.74995 14.7876 5.88441 14.856 6.00008C14.7877 6.11574 14.7057 6.25017 14.6105 6.39921C14.2734 6.92708 13.7767 7.62777 13.1383 8.32432C11.8378 9.74321 10.0862 11 8 11C5.91482 11 4.16328 9.74329 2.86241 8.32425C2.22383 7.62767 1.72695 6.92694 1.38964 6.39905C1.29441 6.25003 1.21243 6.11561 1.14407 5.99995C1.21241 5.8843 1.29437 5.7499 1.38957 5.60089C1.72683 5.07301 2.22364 4.37229 2.86215 3.67572C4.16289 2.25674 5.91443 1 8 1C10.0856 1 11.8371 2.25674 13.1378 3.67572C13.7764 4.37229 14.2732 5.07301 14.6104 5.60089Z" stroke="#ACA996" stroke-width="2"/>
<path d="M8 9C9.65685 9 11 7.65685 11 6C11 4.34315 9.65685 3 8 3C6.34315 3 5 4.34315 5 6C5 7.65685 6.34315 9 8 9Z" fill="#ACA996"/>
</svg>
