<svg width="20" height="20" viewBox="0 0 20 20" fill="none" xmlns="http://www.w3.org/2000/svg">
<path d="M3 16.3073V7.11542C3 5.67814 3.74712 4.92273 5.1875 4.92273H6.325V3.69269C6.325 2.24872 7.07885 1.5 8.5125 1.5H11.05C11.824 1.5 12.4231 1.69387 12.9279 2.20861L16.2865 5.6046C16.8183 6.14609 17 6.70763 17 7.58337V12.8779C17 14.3219 16.2529 15.0706 14.8125 15.0706H13.6683V16.3073C13.6683 17.7446 12.9279 18.5 11.4875 18.5H5.1875C3.74712 18.5 3 17.7513 3 16.3073ZM12.9952 9.28136C13.5606 9.84959 13.6683 10.2641 13.6683 11.1665V13.7603H14.6981C15.3577 13.7603 15.6808 13.4194 15.6808 12.7977V7.26249H12.7125C11.8846 7.26249 11.4404 6.83464 11.4404 6.0057V2.81026H8.62692C7.97404 2.81026 7.64423 3.1512 7.64423 3.76622V4.92941C8.39135 4.9361 8.82885 5.07648 9.34712 5.59792L12.9952 9.28136ZM12.5442 5.83858C12.5442 6.07255 12.6452 6.16614 12.874 6.16614H15.3375L12.5442 3.35175V5.83858ZM4.31923 16.2271C4.31923 16.8488 4.64231 17.1897 5.29519 17.1897H11.3731C12.026 17.1897 12.349 16.8488 12.349 16.2271V11.3203H8.79519C7.83942 11.3203 7.36154 10.8523 7.36154 9.89638V6.23299H5.29519C4.64231 6.23299 4.31923 6.58061 4.31923 7.19564V16.2271ZM8.92308 10.1638H12.1673L8.52596 6.48702V9.76937C8.52596 10.0435 8.64712 10.1638 8.92308 10.1638Z" fill="#9B9B9B"/>
</svg>