<svg width="20" height="20" viewBox="0 0 20 20" fill="none" xmlns="http://www.w3.org/2000/svg">
<path d="M4.85271 8.78183C3.5476 8.78183 2.5 7.7192 2.5 6.39682C2.5 5.06853 3.5476 4 4.85271 4C6.16368 4 7.21713 5.06263 7.21713 6.39682C7.21713 6.92223 7.25224 7.10524 7.66777 7.32957L8.99629 8.04389V8.07931C8.62758 8.31545 8.40519 8.63424 8.27058 9.13013H8.23547C8.15938 9.077 8.05989 9.01797 7.93699 8.95303L6.94791 8.42171C6.8016 8.35087 6.71966 8.32726 6.60847 8.32726C6.12271 8.32726 5.94713 8.78183 4.85271 8.78183ZM4.85271 7.81956C5.63695 7.81956 6.26317 7.17608 6.26317 6.39682C6.26317 5.59985 5.63695 4.96817 4.85271 4.96817C4.08018 4.96817 3.45981 5.59985 3.45981 6.39682C3.45981 7.17608 4.08018 7.81956 4.85271 7.81956ZM4.85271 15.5C3.5476 15.5 2.5 14.4315 2.5 13.1032C2.5 11.7867 3.5476 10.7241 4.85271 10.7241C5.94128 10.7241 6.11686 11.1845 6.60847 11.1845C6.71966 11.1845 6.8016 11.1609 6.94791 11.0842L7.85505 10.6001C8.3174 10.364 8.45786 10.2105 8.5398 9.90349L8.65685 9.47254C8.83242 8.81135 9.14846 8.46894 9.85076 8.21509L14.8488 6.40272C16.3061 5.88321 17.26 6.0308 17.5 6.91632L7.59754 12.2236C7.24054 12.4184 7.21713 12.6132 7.21713 13.1032C7.21713 14.4374 6.16368 15.5 4.85271 15.5ZM14.8488 13.115L10.319 11.3912V11.3203L12.7361 10.0393L17.5 12.5778C17.26 13.4869 16.3178 13.664 14.8488 13.115ZM4.85271 14.5318C5.63695 14.5318 6.26317 13.9002 6.26317 13.1032C6.26317 12.3239 5.63695 11.6863 4.85271 11.6863C4.08018 11.6863 3.45981 12.3239 3.45981 13.1032C3.45981 13.9002 4.08018 14.5318 4.85271 14.5318Z" fill="#9B9B9B"/>
</svg>
