<svg width="20" height="20" viewBox="0 0 20 20" fill="none" xmlns="http://www.w3.org/2000/svg">
<path d="M5.5 5.00098C5.50003 5.02944 5.50155 5.05808 5.50391 5.08594C4.91959 5.29092 4.5 5.84663 4.5 6.50098V15.501C4.50051 16.329 5.17189 17.001 6 17.001H14C14.8281 17.001 15.4995 16.329 15.5 15.501V6.50098C15.5 5.84631 15.0799 5.29067 14.4951 5.08594C14.4975 5.05805 14.5 5.02946 14.5 5.00098V3.54297C15.9187 3.78111 17 5.01456 17 6.50098V15.501C16.9995 17.1056 15.7391 18.4168 14.1543 18.4971L14 18.501H6C4.39522 18.501 3.08469 17.24 3.00391 15.6553L3 15.501V6.50098C3 5.01451 4.08118 3.78006 5.5 3.54199V5.00098ZM10 1.5C10.9319 1.5 11.7145 2.13744 11.9365 3H13C13.5523 3 14 3.44772 14 4V4.5C14 5.05228 13.5523 5.5 13 5.5H7C6.44772 5.5 6 5.05228 6 4.5V4C6 3.44772 6.44772 3 7 3H8.06348C8.28554 2.13744 9.06812 1.5 10 1.5ZM10 2.5C9.44772 2.5 9 2.94772 9 3.5C9 4.05228 9.44772 4.5 10 4.5C10.5523 4.5 11 4.05228 11 3.5C11 2.94772 10.5523 2.5 10 2.5Z" fill="#9B9B9B"/>
</svg>