<svg width="16" height="16" viewBox="0 0 16 16" fill="none" xmlns="http://www.w3.org/2000/svg">
<path fill-rule="evenodd" clip-rule="evenodd" d="M6 2.00024V1L2 1.00098V2.00024H1V3.00024L0 3.00049V8.00024L1 8.00049V9.00049H2V10.0005H3V11.0002H4V12.0005H5V13.0005H6V14H7V15H9V14L10 13.9998V13.0005H11V12.0005H12V11.0005H13V10.0005H14.0039V9.00049H15.0039V8.00049L16 8.00024V3.00049L15.0039 3.00024L15 2.00024L14 2.00012V1L10 1.00098V2.00024H9V3.00024H7V2.00024H6ZM11 3H12H13V4H12H11V3ZM13 4H14V5V6H13V5V4Z" fill="#D4D4D4"/>
</svg>
