<svg width="40" height="40" viewBox="0 0 40 40" fill="none" xmlns="http://www.w3.org/2000/svg">
<path d="M4 2C4 0.895431 4.89543 0 6 0H34C35.1046 0 36 0.895431 36 2V38C36 39.1046 35.1046 40 34 40H6C4.89543 40 4 39.1046 4 38V2Z" fill="black" fill-opacity="0.05"/>
<path fill-rule="evenodd" clip-rule="evenodd" d="M16 13H12V15H16V13ZM28 13H24V15H28V13ZM12 17H16V19H12V17ZM28 17H24V19H28V17ZM12 21H16V23H12V21ZM28 21H24V23H28V21ZM12 25H16V27H12V25ZM22 13H18V15H22V13ZM18 17H22V19H18V17ZM22 21H18V23H22V21ZM18 25H22V27H18V25ZM28 25H24V27H28V25Z" fill="#5DD400"/>
</svg>