<svg width="18" height="18" viewBox="0 0 18 18" fill="none" xmlns="http://www.w3.org/2000/svg">
<path fill-rule="evenodd" clip-rule="evenodd" d="M11.5376 0.0410517L1.1315 0.77616C0.292438 0.845877 0 1.371 0 2.00052V12.919C0 13.4095 0.18225 13.8288 0.620627 14.3892L3.06681 17.4338C3.46863 17.924 3.83375 18.0289 4.601 17.9938L16.6855 17.2938C17.7076 17.2241 18 16.7689 18 15.999V3.71549C18 3.31752 17.8359 3.20256 17.352 2.86368C17.3254 2.84508 17.2977 2.82576 17.2692 2.80566L13.9474 0.566028C13.1442 0.00633572 12.8155 -0.0640922 11.5376 0.0410517ZM4.875 3.51402C3.88837 3.57792 3.66419 3.59244 3.10387 3.15576L1.67906 2.07096C1.53375 1.93068 1.60662 1.75572 1.9715 1.72098L11.9758 1.02102C12.8153 0.950882 13.2534 1.23132 13.5822 1.47612L15.2981 2.66609C15.3711 2.70096 15.5534 2.91066 15.3342 2.91066L5.00237 3.5058L4.875 3.51402ZM3.72419 15.8938V5.46557C3.72419 5.01072 3.87025 4.8006 4.30813 4.76526L16.1739 4.10058C16.5764 4.0656 16.7586 4.31076 16.7586 4.76526V15.1236C16.7586 15.5789 16.6854 15.9643 16.0279 15.999L4.67331 16.6293C4.01619 16.6639 3.72419 16.4542 3.72419 15.8938ZM14.9335 6.02496C15.0063 6.34025 14.9335 6.65517 14.6042 6.69066L14.0571 6.79525V14.494C13.5822 14.7389 13.1441 14.879 12.7791 14.879C12.1947 14.879 12.0484 14.7038 11.6107 14.1792L8.03205 8.78997V14.0042L9.16444 14.2493C9.16444 14.2493 9.16444 14.879 8.25088 14.879L5.73225 15.0191C5.65906 14.879 5.73225 14.5293 5.98769 14.4592L6.64496 14.2845V7.39035L5.73238 7.32015C5.65919 7.00495 5.84144 6.55039 6.35297 6.5151L9.05496 6.34037L12.7791 11.7997V6.97017L11.8296 6.86565C11.7567 6.48025 12.0484 6.20039 12.4136 6.16565L14.9335 6.02496Z" fill="black"/>
</svg>
