<svg width="40" height="40" viewBox="0 0 40 40" fill="none" xmlns="http://www.w3.org/2000/svg">
<path d="M4 2C4 0.895431 4.89543 0 6 0H34C35.1046 0 36 0.895431 36 2V38C36 39.1046 35.1046 40 34 40H6C4.89543 40 4 39.1046 4 38V2Z" fill="black" fill-opacity="0.05"/>
<path fill-rule="evenodd" clip-rule="evenodd" d="M22.5376 11.0411L12.1315 11.7762C11.2924 11.8459 11 12.371 11 13.0005V23.919C11 24.4095 11.1823 24.8288 11.6206 25.3892L14.0668 28.4338C14.4686 28.924 14.8337 29.0289 15.601 28.9938L27.6855 28.2938C28.7076 28.2241 29 27.7689 29 26.999V14.7155C29 14.3175 28.8359 14.2026 28.352 13.8637C28.3254 13.8451 28.2977 13.8258 28.2692 13.8057L24.9474 11.566C24.1442 11.0063 23.8155 10.9359 22.5376 11.0411ZM15.875 14.514C14.8884 14.5779 14.6642 14.5924 14.1039 14.1558L12.6791 13.071C12.5337 12.9307 12.6066 12.7557 12.9715 12.721L22.9758 12.021C23.8153 11.9509 24.2534 12.2313 24.5822 12.4761L26.2981 13.6661C26.3711 13.701 26.5534 13.9107 26.3342 13.9107L16.0024 14.5058L15.875 14.514ZM14.7242 26.8938V16.4656C14.7242 16.0107 14.8703 15.8006 15.3081 15.7653L27.1739 15.1006C27.5764 15.0656 27.7586 15.3108 27.7586 15.7653V26.1236C27.7586 26.5789 27.6854 26.9643 27.0279 26.999L15.6733 27.6293C15.0162 27.6639 14.7242 27.4542 14.7242 26.8938ZM25.9335 17.025C26.0063 17.3403 25.9335 17.6552 25.6042 17.6907L25.0571 17.7953V25.494C24.5822 25.7389 24.1441 25.879 23.7791 25.879C23.1947 25.879 23.0484 25.7038 22.6107 25.1792L19.0321 19.79V25.0042L20.1644 25.2493C20.1644 25.2493 20.1644 25.879 19.2509 25.879L16.7322 26.0191C16.6591 25.879 16.7322 25.5293 16.9877 25.4592L17.645 25.2845V18.3903L16.7324 18.3201C16.6592 18.005 16.8414 17.5504 17.353 17.5151L20.055 17.3404L23.7791 22.7997V17.9702L22.8296 17.8656C22.7567 17.4803 23.0484 17.2004 23.4136 17.1657L25.9335 17.025Z" fill="#252525"/>
</svg>