<svg width="18" height="18" viewBox="0 0 18 18" fill="none" xmlns="http://www.w3.org/2000/svg">
<path d="M7.24121 11.3262C8.52643 11.0371 9.74079 10.9429 10.8408 11.3545C11.9813 11.7816 13.0551 12.7754 13.9531 14.8145C13.6724 15.4421 13.5197 16.1196 13.4395 16.7158C13.3288 17.5369 12.5259 18.1783 11.7275 17.957C10.5898 17.6435 9.27222 17.1547 8.08691 17.0635C7.93063 17.0515 6.26953 16.9258 6.26953 16.9258C6.21601 16.922 6.16333 16.9132 6.11133 16.9023C7.23721 14.6044 7.48412 12.7765 7.24121 11.3262ZM4.06836 7.70801C4.8671 8.23837 5.83178 9.06363 6.35449 10.3389C6.9309 11.7458 6.99346 13.7624 5.58105 16.6445C5.55136 16.6194 5.52243 16.5926 5.49512 16.5645L2.36523 13.3408C2.02312 12.9885 1.92983 12.4627 2.13086 12.0146C2.14412 11.9855 3.71181 8.53816 4.06836 7.70801ZM13.5723 4.40918C13.7482 4.63283 13.8385 4.91078 13.8398 5.19531C13.8434 5.94412 13.9054 7.4815 14.3193 8.47168C14.722 9.43483 15.4604 10.4755 15.8467 10.9873C15.9949 11.1838 16.0178 11.4493 15.8926 11.6611C15.62 12.1228 15.0818 13.0095 14.3193 14.1465C14.3144 14.1539 14.3096 14.1615 14.3047 14.1689C13.3977 12.2949 12.2938 11.2683 11.0479 10.8018C10.705 10.6734 10.355 10.589 10.001 10.54C9.36485 8.90484 9.17546 7.69178 9.2168 6.7373C9.25935 5.75802 9.5441 5.02752 9.86914 4.36523C10.1865 3.71878 10.5817 3.07411 10.7666 2.35938C10.8797 1.92173 10.913 1.45585 10.832 0.928711L13.5723 4.40918ZM8.71777 0.306641C9.07773 -0.0169636 9.57621 -0.0798123 9.99023 0.0966797C10.3405 0.984424 10.3438 1.63725 10.1953 2.21191C10.0305 2.8489 9.69155 3.38893 9.33984 4.10547C8.99576 4.80655 8.67534 5.62008 8.62793 6.71191C8.58458 7.7126 8.77317 8.92774 9.35156 10.4893C8.61226 10.471 7.86037 10.5827 7.11621 10.75C7.05543 10.5289 6.98307 10.3171 6.90039 10.1152C6.27438 8.588 5.09093 7.65738 4.2207 7.10547C4.33242 6.424 4.51289 5.13381 4.63086 4.35156C4.6723 4.07683 4.8081 3.82449 5.01465 3.63867L8.71777 0.306641Z" fill="#252525"/>
</svg>
