<svg width="43" height="55" viewBox="0 0 43 55" fill="none" xmlns="http://www.w3.org/2000/svg">
<path d="M15.7032 33.6752C19.7952 32.7032 23.7699 32.3016 27.3936 33.6576C30.9176 34.9766 34.1639 37.9808 36.8604 43.8862C35.7962 45.9586 35.2529 48.2863 34.9815 50.3031C34.6498 52.7669 32.2385 54.6913 29.8428 54.0268C26.4294 53.0863 22.4771 51.6195 18.9209 51.3461C18.4521 51.3101 13.4698 50.933 13.4698 50.933C13.1079 50.9072 12.7565 50.8232 12.4239 50.6938C15.9467 43.5392 16.574 37.9823 15.7032 33.6752ZM7.0889 22.7231C9.55306 24.3428 12.6154 26.9153 14.2696 30.9506C16.0856 35.3809 16.2286 41.6359 11.8936 50.4379C11.622 50.2769 11.3699 50.081 11.1465 49.851L1.75393 40.1791C0.727561 39.1222 0.45063 37.5457 1.05374 36.2016C1.07281 36.1597 6.86069 23.4369 7.0762 22.7738C7.08087 22.7595 7.0837 22.7421 7.0889 22.7231ZM35.378 13.3852C35.9059 14.0562 36.1767 14.8899 36.1807 15.7436C36.1914 17.99 36.3763 22.6022 37.6182 25.5727C38.8264 28.462 41.0443 31.5822 42.2032 33.1176C42.6477 33.7069 42.7155 34.5045 42.3399 35.1401C41.522 36.5249 39.9056 39.1831 37.6182 42.5942C37.4762 42.8059 37.3434 43.0236 37.2149 43.2436C34.5089 37.4995 31.2293 34.4633 27.5996 33.1049C26.5024 32.6943 25.3775 32.4388 24.2334 32.3071C22.2046 27.1881 21.5903 23.3713 21.7217 20.3432C21.8542 17.2927 22.7431 15.0193 23.7373 12.9936C24.724 10.9834 25.8532 9.15453 26.3877 7.08732C26.7815 5.56401 26.8546 3.90934 26.3584 1.92619L35.378 13.3852ZM20.8135 1.07854C22.1442 -0.118498 24.1073 -0.131494 25.4483 0.930098C26.2806 3.35577 26.255 5.24354 25.8164 6.93986C25.302 8.9292 24.2291 10.6527 23.208 12.7328C22.1947 14.7974 21.2702 17.1546 21.1328 20.3178C20.9994 23.3936 21.6126 27.2103 23.5762 32.2455C20.973 32.0518 18.2769 32.4592 15.5772 33.1C15.3764 32.2606 15.1192 31.4703 14.8145 30.727C13.0515 26.4264 9.75829 23.7421 7.21683 22.101C7.53303 20.3391 8.15815 15.8277 8.55276 13.2113C8.67709 12.3872 9.08359 11.6311 9.70315 11.0737L20.8135 1.07854Z" fill="#252525"/>
</svg>