<svg width="40" height="40" viewBox="0 0 40 40" fill="none" xmlns="http://www.w3.org/2000/svg">
<path d="M4 2C4 0.895431 4.89543 0 6 0H34C35.1046 0 36 0.895431 36 2V38C36 39.1046 35.1046 40 34 40H6C4.89543 40 4 39.1046 4 38V2Z" fill="black" fill-opacity="0.05"/>
<path fill-rule="evenodd" clip-rule="evenodd" d="M25 15.5V12H14.5V15.5H25ZM25 15.5V29H28.5V15.5L25 15.5ZM17.5 29C20.5376 29 23 26.5376 23 23.5C23 20.4624 20.5376 18 17.5 18C14.4624 18 12 20.4624 12 23.5C12 26.5376 14.4624 29 17.5 29Z" fill="#252525"/>
</svg>