<svg width="28" height="28" viewBox="0 0 28 28" fill="none" xmlns="http://www.w3.org/2000/svg">
<g clip-path="url(#clip0_4323_6525)">
<path d="M20.1594 14.6041C21.6326 13.7068 23.1019 12.8021 24.5801 11.914C25.9831 11.0709 27.6339 11.8484 27.952 13.4891C28.1361 14.4383 27.7365 15.4636 26.9286 15.963C24.2797 17.6001 21.627 19.2307 18.9611 20.8363C18.136 21.3333 17.2861 21.2419 16.5341 20.6329C15.7702 20.0146 15.5295 19.1618 15.7086 18.1692C15.9132 17.4135 16.3813 16.9084 17.0197 16.5304C18.0753 15.9057 19.1137 15.2479 20.1594 14.6041Z" fill="#FABC05"/>
<path d="M21.241 13.9511C19.7716 13.0468 18.2984 12.1495 16.8341 11.236C15.444 10.3688 15.2537 8.46383 16.4343 7.35116C17.1172 6.70771 18.1542 6.5619 18.966 7.05432C21.6273 8.66869 24.2851 10.2899 26.9292 11.9356C27.7475 12.445 28.0977 13.2715 27.9766 14.2666C27.8536 15.2772 27.2776 15.9247 26.3776 16.2566C25.6582 16.4466 25.0117 16.2691 24.3839 15.8717C23.3458 15.2146 22.2896 14.5896 21.241 13.9511Z" fill="#109D58"/>
<path d="M7.84785 13.3113C6.90493 13.8795 5.96146 14.4466 5.01953 15.0165C4.46849 15.3499 3.92359 15.6946 3.36971 16.0224C2.25376 16.6831 0.927917 16.2959 0.295182 15.1323C-0.308677 14.0219 0.0383698 12.5823 1.11309 11.917C3.74082 10.2903 6.37534 8.67547 9.01937 7.07873C9.83028 6.58898 10.6716 6.65057 11.4215 7.23602C12.2129 7.85396 12.472 8.72349 12.2943 9.7429C12.184 9.98952 12.1182 10.2787 11.9531 10.473C11.6846 10.7891 11.3795 11.0917 11.0397 11.314C9.98843 12.0015 8.9136 12.6486 7.84785 13.3113Z" fill="#E94436"/>
<path d="M6.76672 13.9486C7.70221 14.5305 8.63703 15.1136 9.57339 15.6938C10.121 16.0332 10.675 16.3614 11.2196 16.706C12.3171 17.4009 12.6639 18.8121 12.0301 19.975C11.4252 21.0849 10.0763 21.486 8.99557 20.8315C6.35339 19.2312 3.71757 17.6191 1.09169 15.9889C0.286362 15.489 -0.0839817 14.6854 0.019159 13.704C0.127987 12.668 0.70844 11.9953 1.62971 11.6488C1.88619 11.6269 2.15525 11.5426 2.39653 11.5972C2.78886 11.6858 3.18863 11.8147 3.53994 12.0156C4.62702 12.6373 5.69277 13.3011 6.76672 13.9486Z" fill="#4385F3"/>
</g>
<defs>
<clipPath id="clip0_4323_6525">
<rect width="28" height="14.5" fill="white" transform="translate(0 6.75)"/>
</clipPath>
</defs>
</svg>