<svg width="44" height="32" viewBox="0 0 44 32" fill="none" xmlns="http://www.w3.org/2000/svg">
<path fill-rule="evenodd" clip-rule="evenodd" d="M0 4C0 1.79086 1.79086 0 4 0H40C42.2091 0 44 1.79086 44 4V28C44 30.2091 42.2091 32 40 32H4C1.79086 32 0 30.2091 0 28V4ZM5.10157 7.12012C5.10157 6.01555 5.997 5.12012 7.10157 5.12012H15.8552C16.9598 5.12012 17.8552 6.01555 17.8552 7.12012V15.9201C17.8552 17.0247 16.9598 17.9201 15.8552 17.9201H7.10156C5.99699 17.9201 5.10157 17.0247 5.10157 15.9201V7.12012ZM34.4349 5.76012C34.4349 5.40684 34.1492 5.12012 33.7972 5.12012H23.5943C23.2423 5.12012 22.9566 5.40684 22.9566 5.76012V7.04012C22.9566 7.3934 23.2423 7.68012 23.5943 7.68012H33.7972C34.1492 7.68012 34.4349 7.3934 34.4349 7.04012V5.76012ZM22.9566 13.4401C22.9566 13.7934 23.2423 14.0801 23.5943 14.0801H29.9711C30.3231 14.0801 30.6088 13.7934 30.6088 13.4401V12.1601C30.6088 11.8068 30.3231 11.5201 29.9711 11.5201H23.5943C23.2423 11.5201 22.9566 11.8068 22.9566 12.1601V13.4401ZM12.7537 24.9601C12.7537 24.6068 12.4681 24.3201 12.1161 24.3201H5.73925C5.38725 24.3201 5.10157 24.6068 5.10157 24.9601V26.2401C5.10157 26.5934 5.38725 26.8801 5.73925 26.8801H12.1161C12.4681 26.8801 12.7537 26.5934 12.7537 26.2401V24.9601Z" fill="#dfddd3"/>
</svg>
