<svg width="32" height="32" viewBox="0 0 32 32" fill="none" xmlns="http://www.w3.org/2000/svg">
<path d="M25.7778 19.0664C26.2194 19.0664 26.5778 19.4473 26.5778 19.9165V21.6167C26.5778 22.086 26.2194 22.4668 25.7778 22.4668H0.800001C0.358401 22.4668 0 22.086 0 21.6167V19.9165C0 19.4473 0.358401 19.0664 0.800001 19.0664H25.7778ZM25.7778 0C26.2194 0 26.5778 0.380843 26.5778 0.850095V2.55028C26.5778 3.01954 26.2194 3.40038 25.7778 3.40038H0.800001C0.358401 3.40038 0 3.01954 0 2.55028V0.850095C0 0.380843 0.358401 0 0.800001 0H25.7778ZM0.800001 12.9336C0.358401 12.9336 0 12.5527 0 12.0835V10.3833C0 9.91405 0.358401 9.53321 0.800001 9.53321H31.2C31.6416 9.53321 32 9.91405 32 10.3833V12.0835C32 12.5527 31.6416 12.9336 31.2 12.9336H0.800001ZM31.2 28.5996C31.6416 28.5996 32 28.9805 32 29.4497V31.1499C32 31.6192 31.6416 32 31.2 32H0.800001C0.358401 32 0 31.6192 0 31.1499V29.4497C0 28.9805 0.358401 28.5996 0.800001 28.5996H31.2Z" fill="#dfddd3"/>
</svg>
