<svg width="320" height="104" viewBox="0 0 320 104" fill="none" xmlns="http://www.w3.org/2000/svg">
<path fill-rule="evenodd" clip-rule="evenodd" d="M190.625 35.5145L232.811 11.5151C232.958 11.8158 233.124 12.1058 233.306 12.3838L191.133 36.3757C190.981 36.0773 190.811 35.7898 190.625 35.5145ZM248.774 33.5952L242.258 15.6769C242.581 15.5822 242.894 15.4678 243.198 15.3351L249.715 33.2574C249.398 33.3624 249.084 33.475 248.774 33.5952ZM236.402 48.2393L191.954 40.857C191.918 41.1922 191.862 41.5213 191.786 41.8428L236.227 49.224C236.277 48.893 236.335 48.5647 236.402 48.2393ZM236.038 53.4948L141.9 62.9085C141.96 63.2319 141.993 63.5643 141.999 63.9036L236.124 54.4911C236.087 54.1614 236.058 53.8292 236.038 53.4948ZM239.588 63.6844L215.69 81.608C215.903 81.864 216.104 82.1309 216.291 82.4076L240.181 64.4899C239.977 64.2265 239.779 63.9579 239.588 63.6844ZM262.445 71.189L269.485 90.5508C269.786 90.4119 270.1 90.2971 270.425 90.2089L263.383 70.8432C263.074 70.966 262.761 71.0814 262.445 71.189ZM275.504 56.6921L304.086 62.8168C304.136 62.4837 304.206 62.1572 304.295 61.8388L275.701 55.7116C275.643 56.0413 275.578 56.3682 275.504 56.6921ZM272.179 40.4912L299.516 19.9881C299.295 19.7393 299.094 19.4719 298.916 19.1886L271.571 39.6976C271.78 39.9568 271.983 40.2215 272.179 40.4912ZM49.5723 13.792C49.8974 13.7039 50.2115 13.5892 50.5121 13.4503L57.6337 33.0346C57.3168 33.1409 57.0035 33.255 56.6939 33.3765L49.5723 13.792ZM80.2946 40.4015C80.1009 40.1299 79.9006 39.8633 79.6939 39.602L103.708 21.5918C103.895 21.8685 104.095 22.1354 104.308 22.3914L80.2946 40.4015ZM121.319 19.6332C121.44 19.3241 121.545 19.0076 121.635 18.6845L176.581 36.9998C176.457 37.307 176.351 37.6237 176.265 37.9485L121.319 19.6332ZM176.005 40.2959C176.017 40.6334 176.05 40.9655 176.103 41.2911L83.9445 50.5069C83.9199 50.1728 83.887 49.8411 83.8461 49.5118L176.005 40.2959ZM198.68 84.3676L141.831 65.418C141.752 65.7455 141.645 66.0626 141.515 66.3667L198.364 85.3163C198.454 84.9932 198.559 84.6766 198.68 84.3676ZM130.192 62.4864C130.109 62.8054 130.052 63.1347 130.022 63.4719L83.6449 55.7691C83.7071 55.443 83.7613 55.114 83.8075 54.7824L130.192 62.4864ZM70.3631 70.9666C70.6799 70.8603 70.9933 70.7463 71.3028 70.6248L77.7389 88.3241C77.4168 88.4188 77.1031 88.5332 76.7992 88.666L70.3631 70.9666ZM72.1375 94.5126C72.0765 94.837 72.0351 95.1682 72.0145 95.5051L21.8718 89.2372C21.9393 88.9151 21.981 88.5836 21.9946 88.2448L72.1375 94.5126ZM21.0824 84.8107C20.9043 84.5274 20.7031 84.2601 20.4815 84.0113L47.7021 63.5959C47.8957 63.8675 48.096 64.1342 48.3026 64.3955L21.0824 84.8107ZM44.5552 47.2985C44.4774 47.6215 44.4074 47.9475 44.3455 48.2763L15.7188 42.1084C15.8057 41.7894 15.8733 41.4625 15.9204 41.1289L44.5552 47.2985Z" fill="#DCDCDC"/>
<path d="M54 8C54 11.3137 51.3137 14 48 14C44.6863 14 42 11.3137 42 8C42 4.68629 44.6863 2 48 2C51.3137 2 54 4.68629 54 8Z" fill="#DCDCDC"/>
<path d="M122.25 16C122.25 21.5228 117.773 26 112.25 26C106.727 26 102.25 21.5228 102.25 16C102.25 10.4772 106.727 6 112.25 6C117.773 6 122.25 10.4772 122.25 16Z" fill="#DCDCDC"/>
<path d="M142 64C142 67.3137 139.314 70 136 70C132.686 70 130 67.3137 130 64C130 60.6863 132.686 58 136 58C139.314 58 142 60.6863 142 64Z" fill="#DCDCDC"/>
<path d="M22 88C22 91.3137 19.3137 94 16 94C12.6863 94 10 91.3137 10 88C10 84.6863 12.6863 82 16 82C19.3137 82 22 84.6863 22 88Z" fill="#DCDCDC"/>
<path d="M88 96C88 100.418 84.4183 104 80 104C75.5817 104 72 100.418 72 96C72 91.5817 75.5817 88 80 88C84.4183 88 88 91.5817 88 96Z" fill="#DCDCDC"/>
<path d="M16 40C16 44.4183 12.4183 48 8 48C3.58172 48 0 44.4183 0 40C0 35.5817 3.58172 32 8 32C12.4183 32 16 35.5817 16 40Z" fill="#DCDCDC"/>
<path fill-rule="evenodd" clip-rule="evenodd" d="M84 52C84 63.0457 75.0457 72 64 72C52.9543 72 44 63.0457 44 52C44 40.9543 52.9543 32 64 32C75.0457 32 84 40.9543 84 52ZM59 46V44H60V46H59ZM68 44V46H69V44H68ZM71.0644 56H64V57H72.9356L67.4174 48.7444C67.9147 48.9102 68.4469 49 69 49C71.7614 49 74 46.7614 74 44C74 41.2386 71.7614 39 69 39C66.2386 39 64 41.2386 64 44C64 45.2768 64.4786 46.4418 65.2662 47.3255L71.0644 56ZM64 64.5002C61.8524 64.5002 59.7319 63.4234 58.1586 61.8542C56.5851 60.2847 55.5 58.1639 55.5 56H56.5C56.5 57.8362 57.4305 59.7155 58.8648 61.1461C60.2993 62.577 62.1788 63.5002 64 63.5002V64.5002ZM69 48C66.7909 48 65 46.2091 65 44C65 41.7909 66.7909 40 69 40C71.2091 40 73 41.7909 73 44C73 46.2091 71.2091 48 69 48ZM55 44C55 46.2091 56.7909 48 59 48C61.2091 48 63 46.2091 63 44C63 41.7909 61.2091 40 59 40C56.7909 40 55 41.7909 55 44ZM54 44C54 46.7614 56.2386 49 59 49C61.7614 49 64 46.7614 64 44C64 41.2386 61.7614 39 59 39C56.2386 39 54 41.2386 54 44Z" fill="#DCDCDC"/>
<path fill-rule="evenodd" clip-rule="evenodd" d="M272 91C269.239 91 267 93.2386 267 96C267 98.7614 269.239 101 272 101C274.761 101 277 98.7614 277 96C277 93.2386 274.761 91 272 91ZM272 90C268.686 90 266 92.6863 266 96C266 99.3137 268.686 102 272 102C275.314 102 278 99.3137 278 96C278 92.6863 275.314 90 272 90Z" fill="#DCDCDC"/>
<path fill-rule="evenodd" clip-rule="evenodd" d="M304 11C301.239 11 299 13.2386 299 16C299 18.7614 301.239 21 304 21C306.761 21 309 18.7614 309 16C309 13.2386 306.761 11 304 11ZM304 10C300.686 10 298 12.6863 298 16C298 19.3137 300.686 22 304 22C307.314 22 310 19.3137 310 16C310 12.6863 307.314 10 304 10Z" fill="#DCDCDC"/>
<path fill-rule="evenodd" clip-rule="evenodd" d="M207.75 79C202.779 79 198.75 83.0294 198.75 88C198.75 92.9706 202.779 97 207.75 97C212.721 97 216.75 92.9706 216.75 88C216.75 83.0294 212.721 79 207.75 79ZM207.75 78C202.227 78 197.75 82.4772 197.75 88C197.75 93.5228 202.227 98 207.75 98C213.273 98 217.75 93.5228 217.75 88C217.75 82.4772 213.273 78 207.75 78Z" fill="#DCDCDC"/>
<path fill-rule="evenodd" clip-rule="evenodd" d="M184 33C180.134 33 177 36.134 177 40C177 43.866 180.134 47 184 47C187.866 47 191 43.866 191 40C191 36.134 187.866 33 184 33ZM184 32C179.582 32 176 35.5817 176 40C176 44.4183 179.582 48 184 48C188.418 48 192 44.4183 192 40C192 35.5817 188.418 32 184 32Z" fill="#DCDCDC"/>
<path fill-rule="evenodd" clip-rule="evenodd" d="M312 57C308.134 57 305 60.134 305 64C305 67.866 308.134 71 312 71C315.866 71 319 67.866 319 64C319 60.134 315.866 57 312 57ZM312 56C307.582 56 304 59.5817 304 64C304 68.4183 307.582 72 312 72C316.418 72 320 68.4183 320 64C320 59.5817 316.418 56 312 56Z" fill="#DCDCDC"/>
<path fill-rule="evenodd" clip-rule="evenodd" d="M240 1C236.134 1 233 4.13401 233 8C233 11.866 236.134 15 240 15C243.866 15 247 11.866 247 8C247 4.13401 243.866 1 240 1ZM240 0C235.582 0 232 3.58172 232 8C232 12.4183 235.582 16 240 16C244.418 16 248 12.4183 248 8C248 3.58172 244.418 0 240 0Z" fill="#DCDCDC"/>
<path fill-rule="evenodd" clip-rule="evenodd" d="M256 72C244.954 72 236 63.0457 236 52C236 40.9543 244.954 32 256 32C267.046 32 276 40.9543 276 52C276 63.0457 267.046 72 256 72ZM261 44V42H260V44H261ZM252 44V42H251V44H252ZM256 49C254.709 49 253.562 49.367 252.751 49.9347C251.939 50.5036 251.5 51.2414 251.5 52C251.5 52.7586 251.939 53.4964 252.751 54.0653C253.562 54.633 254.709 55 256 55V56C254.529 56 253.176 55.5835 252.178 54.8845C251.181 54.1866 250.5 53.1744 250.5 52C250.5 50.8256 251.181 49.8134 252.178 49.1155C253.176 48.4165 254.529 48 256 48V49ZM256 63.5C260.142 63.5 263.5 60.1421 263.5 56H264.5C264.5 60.6944 260.694 64.5 256 64.5V63.5Z" fill="#DCDCDC"/>
</svg>
