<svg width="320" height="104" viewBox="0 0 320 104" fill="none" xmlns="http://www.w3.org/2000/svg">
<path fill-rule="evenodd" clip-rule="evenodd" d="M75 37C71.134 37 68 40.134 68 44C68 47.866 71.134 51 75 51H93C96.866 51 100 47.866 100 44C100 40.134 96.866 37 93 37H75ZM91 43H90V45H91V43ZM87 43H88V45H87V43ZM94 43H93V45H94V43Z" fill="#DCDCDC"/>
<path fill-rule="evenodd" clip-rule="evenodd" d="M75 53C71.134 53 68 56.134 68 60C68 63.866 71.134 67 75 67H93C96.866 67 100 63.866 100 60C100 56.134 96.866 53 93 53H75ZM91 59H90V61H91V59ZM87 59H88V61H87V59ZM94 59H93V61H94V59Z" fill="#DCDCDC"/>
<rect width="12" height="12" rx="6" transform="matrix(-1 0 0 1 232 46)" fill="#DCDCDC"/>
<rect width="12" height="12" rx="6" transform="matrix(-1 0 0 1 248 37)" fill="#DCDCDC"/>
<rect width="12" height="12" rx="6" transform="matrix(-1 0 0 1 248 55)" fill="#DCDCDC"/>
<rect x="120.5" y="0.5" width="79" height="103" rx="11.5" stroke="#DCDCDC"/>
<rect x="56.5" y="16.5" width="55" height="71" rx="9.5" stroke="#DCDCDC"/>
<rect x="208.5" y="16.125" width="55" height="71" rx="9.5" stroke="#DCDCDC"/>
<rect x="0.5" y="22.5" width="47" height="59" rx="7.5" stroke="#DCDCDC"/>
<rect x="136" y="69" width="48" height="1" fill="#DCDCDC"/>
<rect x="136" y="77" width="48" height="1" fill="#DCDCDC"/>
<rect x="148" y="85" width="24" height="1" fill="#DCDCDC"/>
<rect x="272.5" y="22.125" width="47" height="59" rx="7.5" stroke="#DCDCDC"/>
<path fill-rule="evenodd" clip-rule="evenodd" d="M308 52C308 58.6274 302.627 64 296 64C289.373 64 284 58.6274 284 52C284 45.3726 289.373 40 296 40C302.627 40 308 45.3726 308 52ZM295.5 51.5V46H296.5V51.5H302V52.5H296.5V58H295.5V52.5H290V51.5H295.5Z" fill="#DCDCDC"/>
<circle cx="24.0625" cy="51.8125" r="11.9375" fill="#DCDCDC"/>
<path d="M32 52L34 66L21 59L32 52Z" fill="#DCDCDC"/>
<path fill-rule="evenodd" clip-rule="evenodd" d="M160.391 58C149.345 58 140.391 49.0457 140.391 38C140.391 26.9543 149.345 18 160.391 18C171.436 18 180.391 26.9543 180.391 38C180.391 49.0457 171.436 58 160.391 58ZM165.391 30V32H164.391V30H165.391ZM156.391 32V30H155.391V32H156.391ZM159.391 30C159.391 32.2091 157.6 34 155.391 34C153.181 34 151.391 32.2091 151.391 30C151.391 27.7909 153.181 26 155.391 26C157.6 26 159.391 27.7909 159.391 30ZM156.958 34.7495C156.465 34.9121 155.938 35 155.391 35C152.629 35 150.391 32.7614 150.391 30C150.391 27.2386 152.629 25 155.391 25C158.152 25 160.391 27.2386 160.391 30C160.391 31.2774 159.912 32.443 159.123 33.3268L153.274 42H160.391V43H151.393L156.958 34.7495ZM165.391 35C162.629 35 160.391 32.7614 160.391 30C160.391 27.2386 162.629 25 165.391 25C168.152 25 170.391 27.2386 170.391 30C170.391 32.7614 168.152 35 165.391 35ZM166.232 47.8542C164.659 49.4234 162.538 50.5002 160.391 50.5002V49.5002C162.212 49.5002 164.091 48.577 165.526 47.1461C166.96 45.7155 167.891 43.8362 167.891 42H168.891C168.891 44.1639 167.805 46.2847 166.232 47.8542ZM165.391 34C167.6 34 169.391 32.2091 169.391 30C169.391 27.7909 167.6 26 165.391 26C163.181 26 161.391 27.7909 161.391 30C161.391 32.2091 163.181 34 165.391 34Z" fill="#DCDCDC"/>
</svg>
