<svg width="320" height="104" viewBox="0 0 320 104" fill="none" xmlns="http://www.w3.org/2000/svg">
<path fill-rule="evenodd" clip-rule="evenodd" d="M136.763 51.8221C136 53.3194 136 55.2796 136 59.2V60.8C136 64.7204 136 66.6806 136.763 68.1779C137.434 69.4951 138.505 70.5659 139.822 71.237C141.319 72 143.28 72 147.2 72H148.8C152.72 72 154.681 72 156.178 71.237C157.495 70.5659 158.566 69.4951 159.237 68.1779C160 66.6806 160 64.7204 160 60.8V59.2C160 55.2796 160 53.3194 159.237 51.8221C158.566 50.5049 157.495 49.4341 156.178 48.763C154.681 48 152.72 48 148.8 48H147.2C143.28 48 141.319 48 139.822 48.763C138.505 49.4341 137.434 50.5049 136.763 51.8221ZM147.085 65.7914L154.422 54.2675L153.578 53.7305L146.911 64.2027L142.354 59.6436L141.646 60.3505L147.085 65.7914Z" fill="#DCDCDC"/>
<path fill-rule="evenodd" clip-rule="evenodd" d="M40 84C40 95.0457 31.0457 104 20 104C8.9543 104 0 95.0457 0 84C0 72.9543 8.9543 64 20 64C31.0457 64 40 72.9543 40 84ZM15 76V74H16V76H15ZM24 74V76H25V74H24ZM23.2488 81.9347C22.4378 81.367 21.2907 81 20 81V80C21.4707 80 22.8237 80.4165 23.8223 81.1155C24.8193 81.8134 25.5 82.8256 25.5 84C25.5 85.1744 24.8193 86.1866 23.8223 86.8845C22.8237 87.5835 21.4707 88 20 88V87C21.2907 87 22.4378 86.633 23.2488 86.0653C24.0614 85.4964 24.5 84.7586 24.5 84C24.5 83.2414 24.0614 82.5036 23.2488 81.9347ZM12.5 88C12.5 92.1421 15.8579 95.5 20 95.5V96.5C15.3056 96.5 11.5 92.6944 11.5 88H12.5Z" fill="#DCDCDC"/>
<path fill-rule="evenodd" clip-rule="evenodd" d="M88 20C88 31.0457 79.0457 40 68 40C56.9543 40 48 31.0457 48 20C48 8.9543 56.9543 0 68 0C79.0457 0 88 8.9543 88 20ZM63 12V10H64V12H63ZM72 10V12H73V10H72ZM72.4891 23.0006C72.3529 19.7571 70.8894 16.1792 67.709 13.9075L68.2902 13.0938C71.9454 15.7046 73.4996 19.8708 73.4996 23.5006V24.0006H67.9996V23.0006H72.4891ZM60.5 24C60.5 28.1421 63.8579 31.5 68 31.5V32.5C63.3056 32.5 59.5 28.6944 59.5 24H60.5Z" fill="#DCDCDC"/>
<path fill-rule="evenodd" clip-rule="evenodd" d="M148 81H60C53.9249 81 49 85.9249 49 92C49 98.0751 53.9249 103 60 103H148C154.075 103 159 98.0751 159 92C159 85.9249 154.075 81 148 81ZM60 80C53.3726 80 48 85.3726 48 92C48 98.6274 53.3726 104 60 104H148C154.627 104 160 98.6274 160 92C160 85.3726 154.627 80 148 80H60Z" fill="#DCDCDC"/>
<path fill-rule="evenodd" clip-rule="evenodd" d="M148.375 92.5H60.375V91.5H148.375V92.5Z" fill="#DCDCDC"/>
<path fill-rule="evenodd" clip-rule="evenodd" d="M228 1H108C101.925 1 97 5.92487 97 12V20C97 26.0751 101.925 31 108 31H228C234.075 31 239 26.0751 239 20V12C239 5.92487 234.075 1 228 1ZM108 0C101.373 0 96 5.37258 96 12V20C96 26.6274 101.373 32 108 32H228C234.627 32 240 26.6274 240 20V12C240 5.37258 234.627 0 228 0H108Z" fill="#DCDCDC"/>
<path fill-rule="evenodd" clip-rule="evenodd" d="M228 12.5H108V11.5H228V12.5Z" fill="#DCDCDC"/>
<path fill-rule="evenodd" clip-rule="evenodd" d="M195 20.5H108V19.5H195V20.5Z" fill="#DCDCDC"/>
<path fill-rule="evenodd" clip-rule="evenodd" d="M116 49H60C53.9249 49 49 53.9249 49 60C49 66.0751 53.9249 71 60 71H116C122.075 71 127 66.0751 127 60C127 53.9249 122.075 49 116 49ZM60 48C53.3726 48 48 53.3726 48 60C48 66.6274 53.3726 72 60 72H116C122.627 72 128 66.6274 128 60C128 53.3726 122.627 48 116 48H60Z" fill="#DCDCDC"/>
<path fill-rule="evenodd" clip-rule="evenodd" d="M116 60.5H60V59.5H116V60.5Z" fill="#DCDCDC"/>
<path fill-rule="evenodd" clip-rule="evenodd" d="M260 41H188C181.925 41 177 45.9249 177 52V76C177 82.0751 181.925 87 188 87H260C266.075 87 271 82.0751 271 76V52C271 45.9249 266.075 41 260 41ZM188 40C181.373 40 176 45.3726 176 52V76C176 82.6274 181.373 88 188 88H260C266.627 88 272 82.6274 272 76V52C272 45.3726 266.627 40 260 40H188Z" fill="#DCDCDC"/>
<path fill-rule="evenodd" clip-rule="evenodd" d="M259 52.5H188V51.5H259V52.5Z" fill="#DCDCDC"/>
<path fill-rule="evenodd" clip-rule="evenodd" d="M248 60.5H188V59.5H248V60.5Z" fill="#DCDCDC"/>
<path fill-rule="evenodd" clip-rule="evenodd" d="M259 68.5H188V67.5H259V68.5Z" fill="#DCDCDC"/>
<path fill-rule="evenodd" clip-rule="evenodd" d="M232 76.5H188V75.5H232V76.5Z" fill="#DCDCDC"/>
<path fill-rule="evenodd" clip-rule="evenodd" d="M300 96C288.954 96 280 87.0457 280 76C280 64.9543 288.954 56 300 56C311.046 56 320 64.9543 320 76C320 87.0457 311.046 96 300 96ZM305 68V70H304V68H305ZM296 70V68H295V70H296ZM299 68C299 70.2091 297.209 72 295 72C292.791 72 291 70.2091 291 68C291 65.7909 292.791 64 295 64C297.209 64 299 65.7909 299 68ZM296.567 72.7495C296.074 72.9121 295.547 73 295 73C292.239 73 290 70.7614 290 68C290 65.2386 292.239 63 295 63C297.761 63 300 65.2386 300 68C300 69.2774 299.521 70.443 298.733 71.3268L292.883 80H300V81H291.003L296.567 72.7495ZM305 73C302.239 73 300 70.7614 300 68C300 65.2386 302.239 63 305 63C307.761 63 310 65.2386 310 68C310 70.7614 307.761 73 305 73ZM305.841 85.8542C304.268 87.4234 302.148 88.5002 300 88.5002V87.5002C301.821 87.5002 303.701 86.577 305.135 85.1461C306.57 83.7155 307.5 81.8362 307.5 80H308.5C308.5 82.1639 307.415 84.2847 305.841 85.8542ZM305 72C307.209 72 309 70.2091 309 68C309 65.7909 307.209 64 305 64C302.791 64 301 65.7909 301 68C301 70.2091 302.791 72 305 72Z" fill="#DCDCDC"/>
<circle cx="261" cy="17" r="3" fill="#DCDCDC"/>
<circle cx="267" cy="17" r="3" fill="#DCDCDC"/>
<path d="M264 24.9997C260.344 23.2802 258.07 19.8913 258 17H264V24.9997Z" fill="#DCDCDC"/>
<path d="M264 24.9997C267.656 23.2802 269.93 19.8913 270 17H264V24.9997Z" fill="#DCDCDC"/>
<circle cx="247" cy="23" r="3" fill="#DCDCDC"/>
<circle cx="253" cy="23" r="3" fill="#DCDCDC"/>
<path d="M250 30.9997C246.344 29.2802 244.07 25.8913 244 23H250V30.9997Z" fill="#DCDCDC"/>
<path d="M250 30.9997C253.656 29.2802 255.93 25.8913 256 23H250V30.9997Z" fill="#DCDCDC"/>
<circle cx="281" cy="3" r="3" fill="#DCDCDC"/>
<circle cx="275" cy="3" r="3" fill="#DCDCDC"/>
<path d="M278 10.9997C274.344 9.28024 272.07 5.89134 272 3H278V10.9997Z" fill="#DCDCDC"/>
<path d="M278 10.9997C281.656 9.28024 283.93 5.89134 284 3H278V10.9997Z" fill="#DCDCDC"/>
</svg>
