<svg width="20" height="20" viewBox="0 0 20 20" fill="none" xmlns="http://www.w3.org/2000/svg">
<path d="M16.4707 8.7804C16.4707 9.19461 16.1349 9.5304 15.7207 9.5304H10.4707V8.0304H15.7207C16.1349 8.0304 16.4707 8.36618 16.4707 8.7804Z" fill="#ACA996"/>
<path d="M11.2207 3.5304C11.6349 3.5304 11.9707 3.86618 11.9707 4.2804V9.5304H10.4707V4.2804C10.4707 3.86618 10.8065 3.5304 11.2207 3.5304Z" fill="#ACA996"/>
<path fill-rule="evenodd" clip-rule="evenodd" d="M10.9413 8.00001L15.9413 3.00001L17.002 4.06067L12.002 9.06067L10.9413 8.00001Z" fill="#ACA996"/>
<path fill-rule="evenodd" clip-rule="evenodd" d="M9.06066 12.0001L4.06066 17.0001L3 15.9395L8 10.9395L9.06066 12.0001Z" fill="#ACA996"/>
<path d="M3.53125 11.2197C3.53125 10.8055 3.86704 10.4697 4.28125 10.4697H9.53125V11.9697H4.28125C3.86704 11.9697 3.53125 11.6339 3.53125 11.2197Z" fill="#ACA996"/>
<path d="M8.78125 16.4697C8.36704 16.4697 8.03125 16.1339 8.03125 15.7197L8.03125 10.4697H9.53125L9.53125 15.7197C9.53125 16.1339 9.19546 16.4697 8.78125 16.4697Z" fill="#ACA996"/>
</svg>