<svg width="20" height="20" viewBox="0 0 20 20" fill="none" xmlns="http://www.w3.org/2000/svg">
<mask id="path-1-inside-1" fill="white">
<path d="M18 10C18 14.4183 14.4183 18 10 18C5.58172 18 2 14.4183 2 10C2 5.58172 5.58172 2 10 2C14.4183 2 18 5.58172 18 10Z"/>
</mask>
<path d="M16.5 10C16.5 13.5899 13.5899 16.5 10 16.5V19.5C15.2467 19.5 19.5 15.2467 19.5 10H16.5ZM10 16.5C6.41015 16.5 3.5 13.5899 3.5 10H0.5C0.5 15.2467 4.75329 19.5 10 19.5V16.5ZM3.5 10C3.5 6.41015 6.41015 3.5 10 3.5V0.5C4.75329 0.5 0.5 4.75329 0.5 10H3.5ZM10 3.5C13.5899 3.5 16.5 6.41015 16.5 10H19.5C19.5 4.75329 15.2467 0.5 10 0.5V3.5Z" fill="#ACA996" mask="url(#path-1-inside-1)"/>
<ellipse cx="7.6475" cy="8.00005" rx="0.96" ry="1.2" fill="#ACA996"/>
<ellipse cx="12.4463" cy="8.00005" rx="0.96" ry="1.2" fill="#ACA996"/>
<path d="M14.1385 11.7668C14.2904 11.4112 13.936 11.0806 13.5599 11.1703C12.7718 11.3583 11.5298 11.5755 9.99837 11.5755C8.47322 11.5914 7.23524 11.3739 6.44664 11.1817C6.06838 11.0895 5.70957 11.4217 5.86361 11.7792C6.55312 13.3799 8.14488 14.5005 9.99837 14.5005C11.8567 14.5005 13.4519 13.3741 14.1385 11.7668Z" fill="#ACA996"/>
</svg>
