<svg width="20" height="20" viewBox="0 0 20 20" fill="none" xmlns="http://www.w3.org/2000/svg">
<g clip-path="url(#clip0_10696_21741)">
<path fill-rule="evenodd" clip-rule="evenodd" d="M17.9557 6.99103C17.9557 6.80044 17.9557 6.60986 17.9548 6.41928C17.9539 6.25884 17.9521 6.09839 17.9477 5.93795C17.9384 5.58825 17.9176 5.2359 17.8555 4.89019C17.7926 4.53917 17.6893 4.21252 17.5271 3.89341C17.3675 3.58006 17.1592 3.29374 16.9106 3.0451C16.6619 2.79645 16.3752 2.58814 16.0618 2.42859C15.7432 2.26637 15.4165 2.16355 15.0659 2.10017C14.7202 2.03812 14.3674 2.01729 14.0177 2.00798C13.8573 2.00355 13.6968 2.00177 13.5364 2.00089C13.3458 2 13.1552 2 12.9647 2H6.99103C6.80044 2 6.60986 2 6.41928 2.00089C6.25884 2.00177 6.09839 2.00355 5.93795 2.00798C5.58825 2.01773 5.23546 2.03812 4.88975 2.10061C4.53873 2.16355 4.21252 2.26681 3.89385 2.42903C3.5805 2.58859 3.29374 2.7969 3.0451 3.04554C2.79645 3.29418 2.58814 3.5805 2.42859 3.89385C2.26637 4.21296 2.1631 4.53961 2.10017 4.89064C2.03812 5.23634 2.01729 5.58914 2.00798 5.93839C2.00355 6.09884 2.00177 6.25928 2.00089 6.41972C2 6.60986 2 6.80044 2 6.99103V12.9642C2 13.1548 2 13.3454 2.00089 13.536C2.00177 13.6964 2.00355 13.8568 2.00798 14.0173C2.01729 14.367 2.03812 14.7193 2.10017 15.065C2.1631 15.4161 2.26637 15.7427 2.42859 16.0618C2.58814 16.3752 2.79645 16.6615 3.0451 16.9101C3.29374 17.1588 3.5805 17.3671 3.89385 17.5266C4.21252 17.6889 4.53917 17.7917 4.88975 17.8551C5.23546 17.9171 5.58825 17.938 5.93795 17.9473C6.09839 17.9517 6.25884 17.9535 6.41928 17.9543C6.60986 17.9557 6.80044 17.9552 6.99103 17.9552H12.9642C13.1548 17.9552 13.3454 17.9552 13.536 17.9543C13.6964 17.9535 13.8568 17.9517 14.0173 17.9473C14.367 17.938 14.7198 17.9171 15.0655 17.8551C15.4165 17.7921 15.7427 17.6889 16.0614 17.5266C16.3747 17.3671 16.6615 17.1588 16.9101 16.9101C17.1588 16.6615 17.3671 16.3752 17.5266 16.0618C17.6889 15.7427 17.7921 15.4161 17.8551 15.065C17.9171 14.7193 17.938 14.3665 17.9473 14.0173C17.9517 13.8568 17.9535 13.6964 17.9543 13.536C17.9557 13.3454 17.9552 13.1548 17.9552 12.9642V6.99103H17.9557Z" fill="url(#paint0_linear_10696_21741)"/>
<path fill-rule="evenodd" clip-rule="evenodd" d="M13.2797 4.43762C13.2412 4.44116 12.8986 4.50188 12.8573 4.51031L8.11496 5.4672L8.11319 5.46765C7.98953 5.4938 7.89247 5.53767 7.81756 5.60061C7.72715 5.6764 7.67707 5.78366 7.65801 5.90864C7.65402 5.93524 7.64737 5.98931 7.64737 6.06909C7.64737 6.06909 7.64737 10.9143 7.64737 12.0046C7.64737 12.1433 7.63629 12.2781 7.54233 12.3929C7.44837 12.5076 7.33225 12.5422 7.19618 12.5697C7.09291 12.5905 6.98964 12.6114 6.88637 12.6322C6.49457 12.7111 6.23973 12.7647 6.00881 12.8542C5.78809 12.9398 5.62277 13.0488 5.49114 13.1871C5.23009 13.4606 5.12416 13.8315 5.1605 14.179C5.19153 14.4755 5.32493 14.7592 5.55407 14.9688C5.70876 15.1106 5.902 15.2183 6.12981 15.264C6.36604 15.3114 6.61779 15.295 6.98565 15.2206C7.18155 15.1811 7.36504 15.1195 7.53967 15.0162C7.71252 14.9143 7.86056 14.7782 7.97623 14.6125C8.09236 14.4463 8.16726 14.2614 8.20848 14.0651C8.25103 13.8625 8.26122 13.6795 8.26122 13.4774V8.32947C8.26122 8.0538 8.33923 7.98111 8.56172 7.92704C8.56172 7.92704 12.5037 7.13191 12.6876 7.09601C12.9442 7.04682 13.0652 7.11995 13.0652 7.38898V10.9032C13.0652 11.0424 13.0639 11.1833 12.969 11.2986C12.8751 11.4134 12.7589 11.4479 12.6229 11.4754C12.5196 11.4962 12.4163 11.5171 12.3131 11.5379C11.9213 11.6168 11.6664 11.6704 11.4355 11.7599C11.2148 11.8455 11.0495 11.9545 10.9178 12.0928C10.6568 12.3663 10.5416 12.7372 10.5779 13.0847C10.6089 13.3812 10.7516 13.6649 10.9808 13.8745C11.1355 14.0163 11.3287 14.1209 11.5565 14.167C11.7927 14.2145 12.0445 14.1976 12.4124 14.1236C12.6083 14.0842 12.7917 14.0252 12.9664 13.9219C13.1392 13.82 13.2873 13.6839 13.4029 13.5182C13.5191 13.352 13.594 13.1671 13.6352 12.9708C13.6777 12.7683 13.6795 12.5852 13.6795 12.3831V4.8569C13.6804 4.58388 13.5363 4.41546 13.2797 4.43762Z" fill="white"/>
</g>
<defs>
<linearGradient id="paint0_linear_10696_21741" x1="9.97784" y1="17.8938" x2="9.97784" y2="2.34387" gradientUnits="userSpaceOnUse">
<stop stop-color="#FA233B"/>
<stop offset="1" stop-color="#FB5C74"/>
</linearGradient>
<clipPath id="clip0_10696_21741">
<rect width="16" height="16" fill="white" transform="translate(2 2)"/>
</clipPath>
</defs>
</svg>
