<svg width="20" height="20" viewBox="0 0 20 20" fill="none" xmlns="http://www.w3.org/2000/svg">
<path d="M17.5585 5.82675C17.2666 5.28034 16.841 4.85471 16.2946 4.56137C15.7453 4.26803 15.2046 4.11849 13.771 4.11849H13.5984L14.1937 3.42397C14.5044 3.06304 14.4612 2.51519 14.1003 2.20604C13.7451 1.90119 13.203 1.93858 12.8823 2.2995L11.3222 4.11993H8.69795L7.12914 2.28944C6.81854 1.93858 6.27644 1.90119 5.92126 2.20747C5.56034 2.51807 5.51864 3.06448 5.8278 3.42541L6.42311 4.11993H6.23042C4.81837 4.11993 4.2662 4.26947 3.73847 4.54699L3.70684 4.56424C3.16042 4.85615 2.73479 5.28178 2.44289 5.82963C2.14955 6.37892 2 6.92102 2 8.35461V12.8122C2.00288 14.1955 2.15242 14.7405 2.42563 15.2639L2.44289 15.2956C2.73479 15.842 3.16042 16.2676 3.70684 16.5609L3.75573 16.5868C4.2777 16.8571 4.82556 17.0038 6.23042 17.0038H13.8112C15.1931 17.0009 15.7381 16.8514 16.2615 16.5782L16.2931 16.5609C16.8396 16.269 17.2652 15.8434 17.5571 15.2956C17.8505 14.7462 18 14.2042 18 12.7705V8.35461C18 6.94115 17.8505 6.38898 17.5743 5.86126L17.5585 5.82675ZM16.2371 8.35174V12.7878C16.2371 13.3371 16.2112 13.7369 16.1608 14.01L16.158 14.0273C16.1249 14.197 16.0875 14.3019 16.0027 14.4615C15.8761 14.6988 15.6993 14.8756 15.462 15.0022C15.3038 15.0871 15.1989 15.1245 15.0292 15.1575C14.7531 15.2107 14.3404 15.2366 13.771 15.2366H6.21173C5.66244 15.2366 5.26269 15.2107 4.99092 15.1604L4.97366 15.1575C4.80399 15.1245 4.69902 15.0871 4.54085 15.0022C4.30358 14.8756 4.12671 14.6988 4.00018 14.4615C3.91534 14.3034 3.87795 14.1984 3.84488 14.0273C3.79455 13.7656 3.76867 13.386 3.76579 12.8654V8.33161C3.76579 7.78234 3.79168 7.3826 3.84201 7.10939L3.84488 7.09214C3.87795 6.92246 3.91534 6.81605 4.00018 6.65788C4.12671 6.42062 4.30358 6.24375 4.54085 6.11721C4.69902 6.03238 4.80399 5.99499 4.97366 5.96192C5.23393 5.91159 5.61355 5.88571 6.13408 5.88283H6.21173H13.7911C14.3404 5.88283 14.7402 5.90872 15.0119 5.95904L15.0292 5.96192C15.1989 5.99499 15.3038 6.03238 15.462 6.11721C15.6993 6.24375 15.8761 6.42062 16.0027 6.65788C16.0875 6.81605 16.1249 6.92102 16.158 7.09214C16.2112 7.36966 16.2371 7.78091 16.2371 8.35174Z" fill="#06B6F2"/>
<path d="M7.17599 8.32739C7.81156 8.32739 8.32632 8.84215 8.32632 9.47775V11.6346C8.32632 12.2702 7.81156 12.785 7.17599 12.785C6.54042 12.785 6.02563 12.2702 6.02563 11.6346V9.47775C6.02563 8.84215 6.54042 8.32739 7.17599 8.32739Z" fill="#06B6F2"/>
<path d="M12.9282 8.32739C13.5638 8.32739 14.0785 8.84215 14.0785 9.47775V11.6346C14.0785 12.2702 13.5638 12.785 12.9282 12.785C12.2926 12.785 11.7778 12.2702 11.7778 11.6346V9.47775C11.7778 8.84215 12.2926 8.32739 12.9282 8.32739Z" fill="#06B6F2"/>
<path d="M17.5585 5.82675C17.2666 5.28034 16.841 4.85471 16.2946 4.56137C15.7453 4.26803 15.2046 4.11849 13.771 4.11849H13.5984L14.1937 3.42397C14.5044 3.06304 14.4612 2.51519 14.1003 2.20604C13.7451 1.90119 13.203 1.93858 12.8823 2.2995L11.3222 4.11993H8.69795L7.12914 2.28944C6.81854 1.93858 6.27644 1.90119 5.92126 2.20747C5.56034 2.51807 5.51864 3.06448 5.8278 3.42541L6.42311 4.11993H6.23042C4.81837 4.11993 4.2662 4.26947 3.73847 4.54699L3.70684 4.56424C3.16042 4.85615 2.73479 5.28178 2.44289 5.82963C2.14955 6.37892 2 6.92102 2 8.35461V12.8122C2.00288 14.1955 2.15242 14.7405 2.42563 15.2639L2.44289 15.2956C2.73479 15.842 3.16042 16.2676 3.70684 16.5609L3.75573 16.5868C4.2777 16.8571 4.82556 17.0038 6.23042 17.0038H13.8112C15.1931 17.0009 15.7381 16.8514 16.2615 16.5782L16.2931 16.5609C16.8396 16.269 17.2652 15.8434 17.5571 15.2956C17.8505 14.7462 18 14.2042 18 12.7705V8.35461C18 6.94115 17.8505 6.38898 17.5743 5.86126L17.5585 5.82675ZM16.2371 8.35174V12.7878C16.2371 13.3371 16.2112 13.7369 16.1608 14.01L16.158 14.0273C16.1249 14.197 16.0875 14.3019 16.0027 14.4615C15.8761 14.6988 15.6993 14.8756 15.462 15.0022C15.3038 15.0871 15.1989 15.1245 15.0292 15.1575C14.7531 15.2107 14.3404 15.2366 13.771 15.2366H6.21173C5.66244 15.2366 5.26269 15.2107 4.99092 15.1604L4.97366 15.1575C4.80399 15.1245 4.69902 15.0871 4.54085 15.0022C4.30358 14.8756 4.12671 14.6988 4.00018 14.4615C3.91534 14.3034 3.87795 14.1984 3.84488 14.0273C3.79455 13.7656 3.76867 13.386 3.76579 12.8654V8.33161C3.76579 7.78234 3.79168 7.3826 3.84201 7.10939L3.84488 7.09214C3.87795 6.92246 3.91534 6.81605 4.00018 6.65788C4.12671 6.42062 4.30358 6.24375 4.54085 6.11721C4.69902 6.03238 4.80399 5.99499 4.97366 5.96192C5.23393 5.91159 5.61355 5.88571 6.13408 5.88283H6.21173H13.7911C14.3404 5.88283 14.7402 5.90872 15.0119 5.95904L15.0292 5.96192C15.1989 5.99499 15.3038 6.03238 15.462 6.11721C15.6993 6.24375 15.8761 6.42062 16.0027 6.65788C16.0875 6.81605 16.1249 6.92102 16.158 7.09214C16.2112 7.36966 16.2371 7.78091 16.2371 8.35174Z" fill="#06B6F2"/>
</svg>