<svg width="20" height="20" viewBox="0 0 20 20" fill="none" xmlns="http://www.w3.org/2000/svg">
<path d="M17.5359 10.0639C14.9535 10.1146 15.4913 11.7494 13.6713 12.1628C11.8225 12.5829 11.5306 7.64734 9.68219 7.64734C7.83355 7.64734 7.42404 12.4417 5.10931 15.733L5.04327 15.8262L10.006 18.6909L17.5359 14.344V10.0639Z" fill="#36A2EB"/>
<path d="M17.5351 9.91519C16.6706 8.80568 16.0842 7.53015 14.8227 7.53015C12.5901 7.53015 13.1776 11.1721 10.7102 11.1721C8.24262 11.1721 7.9832 7.25468 5.18784 10.9372C4.29712 12.1105 3.58015 13.4189 3.01697 14.6569L10.0052 18.6912L17.5351 14.3442V9.91519Z" fill="#FFCE56"/>
<path opacity="0.8" d="M2.47473 11.424C3.32193 9.07787 3.68757 7.17773 5.30496 7.17773C7.77231 7.17773 8.35962 14.1094 10.4748 13.4043C12.5897 12.6994 12.3547 8.93978 15.6447 8.93978C16.271 8.93978 16.9103 9.32344 17.5348 9.944V14.3443L10.005 18.6912L2.47485 14.3443L2.47473 11.424Z" fill="#FE6184"/>
<path d="M10 19.2362L2 14.6182V5.38181L10 0.763672L18 5.38181V14.6181L10 19.2362ZM2.93991 14.0756L10 18.1512L17.0601 14.0756V5.92444L10 1.84882L2.93991 5.92444V14.0756Z" fill="#E7E9ED"/>
</svg>