<svg width="40" height="40" viewBox="0 0 40 40" fill="none" xmlns="http://www.w3.org/2000/svg">
<rect width="40" height="40" rx="8" fill="white"/>
<path d="M32.2459 19.8043C28.0493 19.8867 28.9234 22.5433 25.9659 23.2151C22.9615 23.8977 22.4872 15.8774 19.4836 15.8774C16.4795 15.8774 15.8141 23.6682 12.0526 29.0166L11.9453 29.1681L20.0098 33.8233L32.2459 26.7595V19.8043Z" fill="#36A2EB"/>
<path d="M32.2443 19.5627C30.8395 17.7597 29.8866 15.687 27.8366 15.687C24.2087 15.687 25.1633 21.6052 21.1539 21.6052C17.144 21.6052 16.7225 15.2394 12.18 21.2234C10.7326 23.1301 9.56751 25.2562 8.65234 27.2679L20.0083 33.8236L32.2443 26.7599V19.5627Z" fill="#FFCE56"/>
<path opacity="0.8" d="M7.77148 22.0144C9.14818 18.202 9.74235 15.1143 12.3706 15.1143C16.3801 15.1143 17.3344 26.3783 20.7717 25.2324C24.2083 24.087 23.8264 17.9776 29.1727 17.9776C30.1903 17.9776 31.2293 18.601 32.2441 19.6094V26.7599L20.0081 33.8237L7.77167 26.7599L7.77148 22.0144Z" fill="#FE6184"/>
<path d="M20 34.7093L7 27.205V12.1959L20 4.69141L33 12.1959V27.2048L20 34.7093ZM8.52735 26.3232L20 32.9461L31.4726 26.3232V13.0777L20 6.45477L8.52735 13.0777V26.3232Z" fill="#E7E9ED"/>
</svg>
