<svg width="20" height="20" viewBox="0 0 20 20" fill="none" xmlns="http://www.w3.org/2000/svg">
<path d="M17.4138 12.1661H14.9831L12.4093 7.79076C12.9813 7.67637 13.4102 7.16163 13.4102 6.56109V3.25814C13.4102 2.55752 12.8526 1.99988 12.152 1.99988H7.86241C7.16178 1.99988 6.60414 2.55752 6.60414 3.25814V6.56109C6.60414 7.17593 7.0331 7.67637 7.59074 7.79076L5.01701 12.1804H2.58627C1.88564 12.1804 1.328 12.738 1.328 13.4387V16.7416C1.328 17.4422 1.88564 17.9999 2.58627 17.9999H6.87581C7.57644 17.9999 8.13408 17.4422 8.13408 16.7416V13.4387C8.13408 12.738 7.57644 12.1804 6.87581 12.1804H6.46116L9.00629 7.83366H10.9938L13.5532 12.1804H13.1242C12.4236 12.1804 11.866 12.738 11.866 13.4387V16.7416C11.866 17.4422 12.4236 17.9999 13.1242 17.9999H17.4138C18.1144 17.9999 18.6721 17.4422 18.6721 16.7416V13.4387C18.6721 12.738 18.1144 12.1661 17.4138 12.1661Z" fill="#E28C34"/>
</svg>