<svg width="40" height="40" viewBox="0 0 40 40" fill="none" xmlns="http://www.w3.org/2000/svg">
<rect width="40" height="40" rx="8" fill="white"/>
<path d="M30.9535 27.3093C30.9351 27.2925 30.9126 27.2807 30.8883 27.2752C30.8639 27.2697 30.8386 27.2706 30.8147 27.2779C29.7169 25.6561 28.3205 24.1182 26.9685 22.6327L26.7458 22.389C26.7458 22.3602 26.7327 22.334 26.7144 22.3104C26.6922 22.2825 26.6605 22.2638 26.6253 22.258L26.5808 22.2108L26.5494 22.1873C26.5101 22.1034 26.4105 22.0405 26.3005 22.0956C25.8865 22.3078 25.5145 22.6117 25.1477 22.892C24.6577 23.2667 24.1783 23.6571 23.7276 24.0763C23.5442 24.2466 23.3635 24.4247 23.2115 24.6239C23.1381 24.7208 23.1932 24.8125 23.2822 24.8518C22.9626 25.1662 22.6403 25.4937 22.3181 25.8317C22.2893 25.8631 22.2735 25.905 22.2762 25.9469C22.2788 25.9889 22.2997 26.0282 22.3338 26.0544L22.8997 26.4867C22.8997 26.4867 22.9023 26.4945 22.9076 26.4971C23.7172 27.2962 25.1372 28.4045 26.641 29.5782C26.8637 29.7538 27.0891 29.9293 27.3144 30.1049C27.4166 30.228 27.5135 30.3511 27.6078 30.4717C27.6576 30.5372 27.7519 30.5503 27.8174 30.5005C27.8515 30.5267 27.8855 30.5555 27.9196 30.5817C27.9351 30.5937 27.9528 30.6026 27.9717 30.6078C27.9906 30.613 28.0104 30.6144 28.0298 30.612C28.0493 30.6096 28.0681 30.6033 28.0851 30.5936C28.1022 30.5839 28.1172 30.571 28.1292 30.5555C28.1475 30.5319 28.1554 30.5031 28.158 30.4743C28.1685 30.4743 28.1764 30.4821 28.1842 30.4821C28.2235 30.4821 28.2654 30.4664 28.2943 30.435L30.9614 27.5216C30.9747 27.5072 30.985 27.4903 30.9916 27.472C30.9983 27.4536 31.0013 27.4341 31.0003 27.4145C30.9993 27.395 30.9944 27.3759 30.986 27.3583C30.9775 27.3406 30.9656 27.3249 30.9509 27.312L30.9535 27.3093ZM23.2953 26.3006C23.3137 26.3242 23.332 26.3452 23.3504 26.3661C23.6543 26.6229 23.9791 26.9006 24.3093 27.1836L22.9678 26.1592C22.9678 26.1592 22.884 26.1015 22.8316 26.0648C22.8028 26.0439 22.7766 26.0229 22.7504 26.002L22.6508 25.9181C22.6508 25.9181 22.6692 25.8998 22.677 25.8893L22.7687 25.7976C23.2194 25.3417 23.9923 24.5819 24.3905 24.2099C23.9687 24.6343 23.1146 25.8788 23.298 26.3006H23.2953ZM27.8882 29.9188L26.7825 29.0752C26.3502 28.6272 25.8839 28.1844 25.4097 27.7573C26.007 28.2185 26.5179 28.6088 26.5939 28.677C27.1729 29.1931 27.1467 29.0988 27.5449 29.4394L28.0244 29.7878C27.9772 29.8298 27.9301 29.8743 27.8855 29.9162L27.8882 29.9188ZM28.1659 30.1311L28.1449 30.1153C28.1868 30.0813 28.2314 30.0498 28.2733 30.0158L28.1685 30.1311H28.1659ZM10.6303 13.0226C10.667 13.2112 10.7011 13.3972 10.7351 13.5754C10.9159 14.5448 11.0836 15.4172 11.4032 16.0801L11.529 16.5831C11.5788 16.7744 11.6495 17.0128 11.715 17.0626C12.4617 17.7228 13.6066 18.7079 14.8302 19.6354C14.8852 19.6773 14.9612 19.6747 15.0136 19.6328C15.0162 19.638 15.0214 19.6406 15.0241 19.6433C15.0529 19.6695 15.0869 19.6826 15.1236 19.6826C15.1655 19.6826 15.2048 19.6668 15.2337 19.6328C16.8004 17.8905 17.9663 16.4574 18.7968 15.2574C18.8492 15.1919 18.8754 15.1159 18.8728 15.0373C18.9252 14.9745 18.9802 14.9116 19.03 14.8592C19.0452 14.8436 19.0567 14.8249 19.0637 14.8043C19.0707 14.7837 19.073 14.7619 19.0705 14.7403C19.068 14.7187 19.0607 14.698 19.0492 14.6796C19.0376 14.6611 19.0221 14.6455 19.0038 14.6339C19.0006 14.5981 18.9848 14.5647 18.9593 14.5395C18.5951 14.1885 18.3252 13.9343 18.0528 13.6802C17.5707 13.2296 17.0729 12.7632 16.017 11.7126C16.0118 11.7073 16.0039 11.7021 15.9987 11.6969C15.9827 11.6802 15.9629 11.6677 15.941 11.6602C15.6502 11.558 15.0529 11.4558 14.3009 11.3248C13.1953 11.1362 11.681 10.8742 10.3186 10.4681H10.3081V10.4655C10.3081 10.4655 10.3028 10.4655 10.3002 10.4707H10.2976L10.3081 10.4655C10.3081 10.4655 10.2269 10.4681 10.2111 10.476C10.1902 10.4864 10.1745 10.4995 10.1614 10.5153C10.1483 10.531 10.1378 10.5467 10.0382 10.5677C9.93867 10.5886 10.0592 10.5677 10.067 10.5677H10.0382V10.5755C10.0566 10.6646 10.0513 10.7275 10.0801 10.8297C10.0749 10.8559 10.1352 11.0969 10.143 11.1205L10.6225 13.0226H10.6303ZM18.7392 14.736C18.7392 14.736 18.7313 14.7465 18.7287 14.7491L18.561 14.5631C18.6187 14.6181 18.6763 14.6732 18.7392 14.736ZM16.8816 17.1962C16.8816 17.1962 16.8633 17.2172 16.8554 17.2276L16.8502 17.2224C16.8607 17.2145 16.8711 17.2041 16.8842 17.1962H16.8816ZM15.8205 11.93C15.9122 12.0217 16.2764 12.3623 16.3602 12.4462C15.9803 12.2733 15.0345 11.8331 14.5944 11.6916C15.0267 11.7676 15.624 11.8645 15.8205 11.93ZM10.7954 11.2043C11.0155 11.5816 11.1884 12.9047 11.3613 14.1911C11.2644 13.7771 11.1805 13.3737 11.1019 12.9859C10.9657 12.3152 10.8399 11.7152 10.6644 11.1833C10.7011 11.186 10.7456 11.1912 10.7928 11.1964C10.7928 11.1991 10.7928 11.2017 10.798 11.2043H10.7954ZM10.7194 10.8873C10.6592 10.882 10.6041 10.8768 10.557 10.8742C10.5517 10.8637 10.5491 10.8532 10.5465 10.8428L10.7194 10.8899V10.8873ZM30.7151 10.696C30.7256 10.6358 30.4269 10.3712 30.5212 10.3659C30.7439 10.3554 30.7466 10.0122 30.5212 10.0227C30.2252 10.0384 29.9265 10.1065 29.6383 10.1616C29.1196 10.2585 28.6034 10.3659 28.0873 10.4786C26.9371 10.7249 25.7896 10.9842 24.6551 11.2934C24.2988 11.3903 23.9058 11.4768 23.5783 11.6497C23.4683 11.7073 23.4735 11.8252 23.5338 11.8986C23.5102 11.9117 23.4866 11.9196 23.4604 11.9222C23.3635 11.9405 23.2665 11.9562 23.1696 11.972C23.1454 11.9758 23.1225 11.9856 23.103 12.0005C23.0835 12.0154 23.068 12.0348 23.0579 12.0572C23.0478 12.0795 23.0434 12.104 23.045 12.1284C23.0467 12.1529 23.0544 12.1765 23.0674 12.1973C22.4596 13.0095 21.7679 13.8845 21.0186 14.8042C20.2824 15.6452 19.5173 16.5412 18.7339 17.4608C16.2685 20.3585 13.473 23.644 10.3762 26.5364C10.3159 26.5915 10.3133 26.6858 10.3683 26.746C10.3814 26.7618 10.3998 26.7722 10.4181 26.7801C10.3762 26.8194 10.3343 26.8587 10.2924 26.8954C10.2662 26.919 10.2557 26.9478 10.2504 26.9792C10.2295 27.0002 10.2085 27.0238 10.1902 27.0447C10.1352 27.105 10.1378 27.1993 10.198 27.2543C10.2583 27.3093 10.3526 27.3067 10.4076 27.2465C10.4181 27.236 10.4286 27.2229 10.4391 27.2124C10.4597 27.1907 10.4844 27.1734 10.5119 27.1615C10.5394 27.1497 10.569 27.1436 10.5989 27.1436C10.6288 27.1436 10.6584 27.1497 10.6859 27.1615C10.7134 27.1734 10.7382 27.1907 10.7587 27.2124C10.9395 27.4063 11.1098 27.5897 11.2696 27.76L10.9081 27.4587C10.8778 27.4335 10.8387 27.4212 10.7995 27.4247C10.7602 27.4281 10.7239 27.4469 10.6985 27.477C10.6461 27.5399 10.6539 27.6342 10.7168 27.6866L14.5996 30.9432C14.6284 30.9668 14.6625 30.9773 14.6966 30.9773C14.7359 30.9773 14.7725 30.9616 14.8014 30.9328L14.8957 30.8384C14.9231 30.8507 14.9536 30.8543 14.9832 30.8487C15.0127 30.8431 15.0398 30.8285 15.0607 30.807C20.3243 25.5199 24.5634 21.5244 29.4182 17.9534C29.4628 17.9219 29.4837 17.8695 29.4785 17.8198C29.5071 17.8166 29.5341 17.8053 29.5564 17.7872C29.5787 17.7691 29.5953 17.7449 29.6042 17.7176C30.5003 14.9771 30.6732 12.551 30.7256 11.3589C30.7256 11.351 30.7282 11.3458 30.7308 11.3405C30.7361 11.3274 30.7387 11.3143 30.7413 11.3039C30.7492 11.275 30.7544 11.2541 30.7544 11.2541C30.8225 11.0497 30.799 10.8532 30.7151 10.6908V10.696ZM21.3041 14.9849C21.5399 14.7151 21.7731 14.4505 22.0037 14.1937C20.4946 16.1797 17.9951 19.2398 14.4555 22.8763C16.8659 20.2092 19.2946 17.4451 21.3041 14.9849ZM12.7761 28.8211L12.7683 28.8132C12.7971 28.8184 12.818 28.8237 12.8206 28.8237C12.8059 28.821 12.7908 28.821 12.7761 28.8237V28.8211ZM14.5839 30.5031L14.5708 30.4926L14.5787 30.4847C14.5839 30.4847 14.5865 30.49 14.5891 30.49C14.5891 30.4952 14.5839 30.4978 14.5813 30.5031H14.5839ZM16.7742 28.6141L17.1358 28.2368C17.1384 28.2394 17.141 28.2447 17.1436 28.2499C17.0205 28.3704 16.8973 28.4936 16.7716 28.6141H16.7742ZM17.3611 28.0351C17.4292 27.9565 17.5078 27.8648 17.589 27.7678C17.5916 27.7652 17.5943 27.76 17.5995 27.7573C18.4615 26.8692 19.3496 25.9705 20.2666 25.0719C20.2719 25.0666 20.2797 25.0614 20.285 25.0561C20.5103 24.8832 20.7618 24.692 20.9976 24.5112C19.8134 25.643 18.6108 26.8115 17.3611 28.0377V28.0351ZM23.0333 13.3946C22.546 14.0286 22.0115 14.8513 21.5583 15.5089C20.1278 17.5813 15.5219 22.6562 15.4197 22.7532C14.7097 23.4396 12.5691 25.4937 11.2041 26.7801C11.1674 26.8142 11.1386 26.843 11.115 26.8718C11.0959 26.8519 11.081 26.8285 11.071 26.8028C11.0611 26.7771 11.0563 26.7497 11.0571 26.7221C11.0578 26.6946 11.064 26.6675 11.0753 26.6423C11.0866 26.6172 11.1028 26.5946 11.1229 26.5757C17.6257 20.445 21.5714 15.3386 23.1748 13.1143C23.1408 13.2007 23.1119 13.2951 23.0307 13.3999L23.0333 13.3946ZM27.3589 15.2548L27.3563 15.26C27.3563 15.2548 27.3511 15.2417 27.3589 15.2548ZM25.5773 16.3866C24.9852 16.0434 24.7075 15.5299 24.8673 15.0111L24.9171 14.8382C24.9381 14.7884 24.9616 14.7387 24.9905 14.6889C25.145 14.4321 25.3808 14.2042 25.6507 14.0706C25.6638 14.0653 25.6769 14.0627 25.69 14.0601C25.6762 14.0242 25.6725 13.9852 25.6795 13.9474C25.6926 13.8662 25.745 13.7955 25.8524 13.7955C26.028 13.7955 26.5729 13.9579 26.7799 14.1361C26.8428 14.1858 26.903 14.2409 26.9581 14.3011C27.0367 14.3928 27.1519 14.5422 27.2096 14.6496C27.2436 14.6653 27.2698 14.812 27.3091 14.888C27.3458 15.0085 27.3615 15.1317 27.3563 15.2548C27.3563 15.26 27.3563 15.26 27.3589 15.2627C27.3511 15.281 27.3589 15.3596 27.3484 15.3675C27.3222 15.5561 27.2541 15.7421 27.1519 15.9046C27.1415 15.9177 27.1336 15.9334 27.1231 15.9465C27.1231 15.9491 27.1179 15.9517 27.1153 15.957C27.0367 16.0696 26.945 16.1744 26.8323 16.253C26.5022 16.4862 26.1171 16.5569 25.7319 16.46C25.6811 16.4406 25.6313 16.4188 25.5826 16.3945L25.5773 16.3866ZM29.84 15.9596C29.7117 16.4967 29.5545 17.0573 29.3685 17.6311C29.3606 17.6521 29.3606 17.673 29.3606 17.6914C29.3344 17.694 29.3108 17.7045 29.2899 17.7202C28.1266 18.5743 27.0026 19.4546 25.8891 20.369C26.8506 19.4992 27.8253 18.6346 28.8314 17.7621C29.1228 17.5088 29.3181 17.1627 29.3842 16.7822L29.5309 15.8993L29.5387 15.8731C29.6042 15.6871 29.8898 15.7683 29.8453 15.9596H29.84Z" fill="#6965DB"/>
</svg>
