<svg width="20" height="20" viewBox="0 0 20 20" fill="none" xmlns="http://www.w3.org/2000/svg">
<path d="M17.9643 15.1879C17.9502 15.175 17.9331 15.1661 17.9145 15.1619C17.896 15.1577 17.8767 15.1584 17.8585 15.1639C17.0221 13.9284 15.9582 12.7567 14.9283 11.6249L14.7586 11.4393C14.7586 11.4174 14.7486 11.3974 14.7347 11.3794C14.7178 11.3582 14.6936 11.3439 14.6668 11.3395L14.6329 11.3036L14.6089 11.2856C14.579 11.2217 14.5031 11.1738 14.4193 11.2158C14.1039 11.3774 13.8205 11.609 13.541 11.8225C13.1678 12.108 12.8025 12.4054 12.4592 12.7248C12.3195 12.8545 12.1817 12.9902 12.066 13.1419C12.0101 13.2158 12.052 13.2856 12.1199 13.3156C11.8763 13.5551 11.6308 13.8046 11.3853 14.0621C11.3634 14.0861 11.3514 14.118 11.3534 14.1499C11.3554 14.1819 11.3713 14.2118 11.3973 14.2318L11.8284 14.5611C11.8284 14.5611 11.8304 14.5671 11.8344 14.5691C12.4512 15.1779 13.533 16.0222 14.6788 16.9164C14.8484 17.0502 15.0201 17.1839 15.1918 17.3176C15.2696 17.4115 15.3435 17.5053 15.4153 17.5971C15.4532 17.647 15.5251 17.657 15.575 17.619C15.6009 17.639 15.6269 17.661 15.6528 17.6809C15.6646 17.6901 15.6781 17.6969 15.6925 17.7008C15.7069 17.7048 15.722 17.7059 15.7368 17.704C15.7516 17.7022 15.766 17.6974 15.779 17.69C15.7919 17.6826 15.8033 17.6728 15.8125 17.661C15.8265 17.643 15.8325 17.621 15.8345 17.5991C15.8425 17.5991 15.8485 17.6051 15.8544 17.6051C15.8844 17.6051 15.9163 17.5931 15.9383 17.5691L17.9702 15.3496C17.9804 15.3386 17.9882 15.3258 17.9933 15.3118C17.9984 15.2978 18.0006 15.2829 17.9999 15.268C17.9991 15.2532 17.9954 15.2386 17.9889 15.2252C17.9825 15.2117 17.9734 15.1997 17.9623 15.1899L17.9643 15.1879ZM12.1298 14.4194C12.1438 14.4374 12.1578 14.4533 12.1717 14.4693C12.4033 14.6649 12.6508 14.8765 12.9023 15.0921L11.8803 14.3116C11.8803 14.3116 11.8165 14.2677 11.7765 14.2398C11.7546 14.2238 11.7346 14.2078 11.7147 14.1918L11.6388 14.128C11.6388 14.128 11.6528 14.114 11.6588 14.106L11.7286 14.0362C12.0719 13.6888 12.6608 13.11 12.9642 12.8266C12.6428 13.1499 11.9921 14.098 12.1318 14.4194H12.1298ZM15.6289 17.1759L14.7866 16.5332C14.4572 16.1919 14.1019 15.8546 13.7406 15.5292C14.1957 15.8805 14.585 16.1779 14.6428 16.2298C15.084 16.623 15.064 16.5512 15.3674 16.8107L15.7327 17.0761C15.6968 17.1081 15.6608 17.142 15.6269 17.1739L15.6289 17.1759ZM15.8405 17.3376L15.8245 17.3256C15.8564 17.2997 15.8904 17.2757 15.9223 17.2498L15.8425 17.3376H15.8405ZM2.48097 4.30347C2.50892 4.44718 2.53487 4.5889 2.56082 4.72463C2.69854 5.46317 2.82629 6.12785 3.06981 6.63285L3.16562 7.01609C3.20354 7.1618 3.25743 7.34344 3.30733 7.38136C3.87621 7.88436 4.74848 8.63487 5.68063 9.34147C5.72254 9.37341 5.78043 9.37141 5.82035 9.33948C5.82235 9.34347 5.82634 9.34546 5.82833 9.34746C5.85029 9.36742 5.87624 9.3774 5.90418 9.3774C5.93612 9.3774 5.96606 9.36542 5.98802 9.33948C7.18165 8.01211 8.06989 6.92028 8.70263 6.00609C8.74255 5.95619 8.76251 5.8983 8.76051 5.83842C8.80044 5.79052 8.84235 5.74261 8.88028 5.70269C8.89183 5.69083 8.90059 5.67655 8.90592 5.66088C8.91126 5.64522 8.91304 5.62856 8.91112 5.61211C8.90921 5.59567 8.90366 5.57986 8.89487 5.56584C8.88608 5.55181 8.87428 5.53992 8.86032 5.53103C8.85787 5.50382 8.84585 5.47835 8.82638 5.45917C8.54893 5.19171 8.34334 4.99809 8.13576 4.80447C7.76848 4.46115 7.38924 4.10586 6.58483 3.30545C6.58084 3.30146 6.57485 3.29746 6.57086 3.29347C6.55865 3.2808 6.5436 3.27122 6.52695 3.26553C6.30539 3.18768 5.85029 3.10984 5.27743 3.01003C4.4351 2.86632 3.28139 2.66671 2.24345 2.35733H2.23546V2.35533C2.23546 2.35533 2.23147 2.35533 2.22947 2.35932H2.22748L2.23546 2.35533C2.23546 2.35533 2.17358 2.35733 2.16161 2.36332C2.14564 2.3713 2.13366 2.38128 2.12368 2.39326C2.1137 2.40523 2.10572 2.41721 2.02987 2.43318C1.95402 2.44915 2.04584 2.43318 2.05183 2.43318H2.02987V2.43917C2.04384 2.50703 2.03985 2.55494 2.06181 2.63278C2.05781 2.65274 2.10372 2.83638 2.10971 2.85434L2.47499 4.30347H2.48097ZM8.65872 5.60888C8.65872 5.60888 8.65273 5.61686 8.65073 5.61886L8.52299 5.47714C8.5669 5.51906 8.61081 5.56097 8.65872 5.60888ZM7.24353 7.48316C7.24353 7.48316 7.22955 7.49913 7.22356 7.50711L7.21957 7.50312C7.22756 7.49713 7.23554 7.48915 7.24552 7.48316H7.24353ZM6.43513 3.47112C6.50499 3.54098 6.78244 3.80046 6.84631 3.86434C6.55689 3.7326 5.83632 3.39726 5.50098 3.28948C5.83033 3.34736 6.28543 3.42122 6.43513 3.47112ZM2.60672 2.91821C2.77439 3.20564 2.90613 4.21365 3.03787 5.1937C2.96402 4.87833 2.90014 4.57094 2.84026 4.27552C2.73647 3.76454 2.64066 3.30744 2.50692 2.90225C2.53487 2.90424 2.5688 2.90824 2.60473 2.91223C2.60473 2.91422 2.60473 2.91622 2.60872 2.91821H2.60672ZM2.54884 2.67669C2.50293 2.6727 2.46101 2.66871 2.42508 2.66671C2.42109 2.65873 2.4191 2.65075 2.4171 2.64276L2.54884 2.67869V2.67669ZM17.7826 2.53098C17.7906 2.48507 17.5631 2.28348 17.6349 2.27948C17.8046 2.2715 17.8066 2.01002 17.6349 2.018C17.4094 2.02998 17.1818 2.08187 16.9622 2.12379C16.567 2.19764 16.1738 2.27948 15.7806 2.36531C14.9043 2.55294 14.0301 2.75055 13.1658 2.98608C12.8943 3.05993 12.5949 3.1258 12.3454 3.25754C12.2616 3.30145 12.2656 3.39128 12.3115 3.44717C12.2935 3.45715 12.2755 3.46313 12.2556 3.46513C12.1817 3.4791 12.1079 3.49108 12.034 3.50305C12.0156 3.506 11.9982 3.51347 11.9833 3.5248C11.9685 3.53612 11.9567 3.55095 11.949 3.56796C11.9412 3.58496 11.9379 3.60362 11.9391 3.62225C11.9404 3.64088 11.9462 3.6589 11.9562 3.67471C11.4931 4.29349 10.9661 4.96016 10.3953 5.66077C9.83438 6.3015 9.25154 6.98415 8.65473 7.68476C6.77645 9.89238 4.64668 12.3954 2.28736 14.599C2.24145 14.641 2.23945 14.7128 2.28137 14.7587C2.29135 14.7707 2.30532 14.7787 2.3193 14.7847C2.28736 14.8146 2.25542 14.8446 2.22349 14.8725C2.20352 14.8905 2.19554 14.9124 2.19155 14.9364C2.17558 14.9523 2.15961 14.9703 2.14564 14.9863C2.10372 15.0322 2.10572 15.104 2.15163 15.146C2.19754 15.1879 2.26939 15.1859 2.31131 15.14C2.31929 15.132 2.32728 15.122 2.33526 15.114C2.35093 15.0975 2.36981 15.0843 2.39074 15.0753C2.41168 15.0663 2.43423 15.0616 2.45702 15.0616C2.47981 15.0616 2.50236 15.0663 2.5233 15.0753C2.54423 15.0843 2.56311 15.0975 2.57878 15.114C2.71651 15.2617 2.84625 15.4014 2.96801 15.5312L2.69255 15.3016C2.66948 15.2824 2.63975 15.2731 2.60983 15.2757C2.57992 15.2784 2.55226 15.2927 2.53287 15.3156C2.49295 15.3635 2.49894 15.4354 2.54684 15.4753L5.50497 17.9564C5.52693 17.9743 5.55288 17.9823 5.57883 17.9823C5.60877 17.9823 5.63671 17.9704 5.65867 17.9484L5.73053 17.8765C5.75142 17.8859 5.77468 17.8886 5.79717 17.8843C5.81966 17.8801 5.84029 17.869 5.85628 17.8526C9.86632 13.8246 13.0959 10.7806 16.7946 8.06001C16.8285 8.03606 16.8445 7.99614 16.8405 7.95822C16.8623 7.95584 16.8829 7.94722 16.8999 7.93342C16.9169 7.91961 16.9295 7.90119 16.9363 7.88037C17.6189 5.79251 17.7507 3.94418 17.7906 3.03598C17.7906 3.02999 17.7926 3.026 17.7946 3.02201C17.7986 3.01203 17.8006 3.00205 17.8026 2.99406C17.8086 2.97211 17.8126 2.95614 17.8126 2.95614C17.8645 2.80045 17.8465 2.65075 17.7826 2.52699V2.53098ZM10.6128 5.7985C10.7925 5.59291 10.9701 5.39131 11.1458 5.1957C9.99606 6.70869 8.09184 9.04007 5.39519 11.8106C7.23155 9.7786 9.08188 7.67278 10.6128 5.7985ZM4.11573 16.3396L4.10974 16.3336C4.1317 16.3376 4.14767 16.3416 4.14966 16.3416C4.13845 16.3395 4.12695 16.3395 4.11573 16.3416V16.3396ZM5.493 17.621L5.48302 17.6131L5.48901 17.6071C5.493 17.6071 5.49499 17.6111 5.49699 17.6111C5.49699 17.6151 5.493 17.6171 5.491 17.621H5.493ZM7.16169 16.1819L7.43714 15.8945C7.43914 15.8965 7.44113 15.9005 7.44313 15.9045C7.34932 15.9963 7.2555 16.0901 7.15969 16.1819H7.16169ZM7.6088 15.7408C7.6607 15.6809 7.72058 15.611 7.78246 15.5372C7.78445 15.5352 7.78645 15.5312 7.79044 15.5292C8.44714 14.8525 9.12379 14.1679 9.82241 13.4833C9.8264 13.4793 9.83239 13.4753 9.83638 13.4713C10.008 13.3395 10.1997 13.1938 10.3793 13.0561C9.47709 13.9184 8.56091 14.8086 7.6088 15.7428V15.7408ZM11.9302 4.5869C11.559 5.06995 11.1518 5.6967 10.8065 6.19771C9.71662 7.77658 6.20758 11.6429 6.12973 11.7168C5.58881 12.2397 3.95804 13.8046 2.91811 14.7847C2.89016 14.8106 2.86821 14.8326 2.85024 14.8545C2.8357 14.8394 2.8243 14.8215 2.81672 14.802C2.80914 14.7824 2.80552 14.7615 2.80608 14.7405C2.80664 14.7195 2.81136 14.6989 2.81996 14.6797C2.82857 14.6606 2.8409 14.6433 2.85623 14.629C7.8104 9.95825 10.8164 6.06797 12.038 4.37333C12.0121 4.4392 11.9901 4.51105 11.9282 4.5909L11.9302 4.5869ZM15.2257 6.00409L15.2237 6.00809C15.2237 6.00409 15.2197 5.99411 15.2257 6.00409ZM13.8684 6.86638C13.4173 6.6049 13.2057 6.21368 13.3275 5.81846L13.3654 5.68672C13.3813 5.6488 13.3993 5.61087 13.4213 5.57295C13.539 5.37734 13.7187 5.20368 13.9243 5.10188C13.9343 5.09789 13.9442 5.09589 13.9542 5.0939C13.9437 5.06657 13.9409 5.03687 13.9462 5.00807C13.9562 4.94619 13.9961 4.8923 14.078 4.8923C14.2117 4.8923 14.6269 5.01605 14.7846 5.15178C14.8325 5.18971 14.8784 5.23163 14.9203 5.27753C14.9802 5.3474 15.068 5.46117 15.1119 5.54301C15.1379 5.55498 15.1578 5.66676 15.1878 5.72465C15.2157 5.81647 15.2277 5.91028 15.2237 6.00409C15.2237 6.00809 15.2237 6.00809 15.2257 6.01008C15.2197 6.02405 15.2257 6.08393 15.2177 6.08992C15.1977 6.23364 15.1458 6.37536 15.068 6.49911C15.06 6.50909 15.054 6.52107 15.046 6.53105C15.046 6.53304 15.0421 6.53504 15.0401 6.53903C14.9802 6.62486 14.9103 6.7047 14.8245 6.76458C14.573 6.94223 14.2796 6.99612 13.9861 6.92227C13.9474 6.90751 13.9095 6.89086 13.8724 6.87237L13.8684 6.86638ZM17.1159 6.54103C17.0181 6.95022 16.8984 7.37737 16.7566 7.8145C16.7507 7.83047 16.7507 7.84644 16.7507 7.86041C16.7307 7.86241 16.7127 7.87039 16.6968 7.88237C15.8105 8.53307 14.9542 9.20374 14.1059 9.90036C14.8385 9.23768 15.581 8.57898 16.3475 7.9143C16.5695 7.7213 16.7183 7.45765 16.7686 7.16778L16.8804 6.49512L16.8864 6.47516C16.9363 6.33344 17.1539 6.39532 17.1199 6.54103H17.1159Z" fill="#6965DB"/>
</svg>