<svg width="20" height="20" viewBox="0 0 20 20" fill="none" xmlns="http://www.w3.org/2000/svg">
<g clip-path="url(#clip0_10811_4700)">
<path d="M19 10C19 5.02945 14.9705 1.00001 9.99999 1.00001C5.02944 1.00001 1 5.02945 1 10C1 14.2208 3.90574 17.7624 7.82581 18.735V12.7503H5.96994V10H7.82581V8.81492C7.82581 5.75161 9.2121 4.33177 12.2195 4.33177C12.7897 4.33177 13.7735 4.44355 14.176 4.55537V7.04851C13.9636 7.02616 13.5947 7.01496 13.1363 7.01496C11.6605 7.01496 11.0903 7.57397 11.0903 9.02736V10H14.03L13.525 12.7503H11.0903V18.9341C15.5466 18.3958 19 14.6014 19 10Z" fill="#0866FF"/>
<path d="M13.525 12.7503L14.0301 10H11.0903V9.02732C11.0903 7.57393 11.6605 7.01496 13.1362 7.01496C13.5946 7.01496 13.9636 7.02612 14.176 7.04848V4.55537C13.7735 4.44356 12.7897 4.33174 12.2195 4.33174C9.2121 4.33174 7.82578 5.75161 7.82578 8.81492V10H5.96991V12.7503H7.82578V18.735C8.52213 18.9077 9.25023 19 9.99996 19C10.3691 19 10.7329 18.9772 11.0903 18.9341V12.7503H13.525Z" fill="white"/>
</g>
<defs>
<clipPath id="clip0_10811_4700">
<rect width="18" height="18" fill="white" transform="translate(1 1)"/>
</clipPath>
</defs>
</svg>
