<svg width="40" height="40" viewBox="0 0 40 40" fill="none" xmlns="http://www.w3.org/2000/svg">
<rect width="40" height="40" rx="8" fill="white"/>
<g clip-path="url(#clip0_6275_19610)">
<path d="M32 20C32 13.3726 26.6274 8.00002 20 8.00002C13.3726 8.00002 8 13.3726 8 20C8 25.6278 11.8743 30.3499 17.1011 31.6466V23.667H14.6266V20H17.1011V18.4199C17.1011 14.3355 18.9495 12.4424 22.9594 12.4424C23.7196 12.4424 25.0314 12.5914 25.568 12.7405V16.0647C25.2848 16.0349 24.7929 16.0199 24.1817 16.0199C22.214 16.0199 21.4538 16.7653 21.4538 18.7031V20H25.3734L24.7001 23.667H21.4538V31.9121C27.3955 31.1945 32 26.1353 32 20Z" fill="#0866FF"/>
<path d="M24.7004 23.667L25.3738 20H21.4542V18.7031C21.4542 16.7652 22.2144 16.0199 24.1821 16.0199C24.7933 16.0199 25.2852 16.0348 25.5684 16.0646V12.7405C25.0318 12.5914 23.72 12.4423 22.9597 12.4423C18.9499 12.4423 17.1014 14.3355 17.1014 18.4199V20H14.627V23.667H17.1014V31.6466C18.0299 31.8769 19.0007 32 20.0004 32C20.4925 32 20.9775 31.9697 21.4542 31.9121V23.667H24.7004Z" fill="white"/>
</g>
<defs>
<clipPath id="clip0_6275_19610">
<rect width="24" height="24" fill="white" transform="translate(8 8)"/>
</clipPath>
</defs>
</svg>
