<svg width="20" height="20" viewBox="0 0 20 20" fill="none" xmlns="http://www.w3.org/2000/svg">
<g clip-path="url(#clip0_10688_19288)">
<path d="M10 9.99992C10 9.29267 10.281 8.6144 10.781 8.1143C11.2811 7.6142 11.9594 7.33325 12.6667 7.33325C13.3739 7.33325 14.0522 7.6142 14.5523 8.1143C15.0524 8.6144 15.3333 9.29267 15.3333 9.99992C15.3333 10.7072 15.0524 11.3854 14.5523 11.8855C14.0522 12.3856 13.3739 12.6666 12.6667 12.6666C11.9594 12.6666 11.2811 12.3856 10.781 11.8855C10.281 11.3854 10 10.7072 10 9.99992Z" fill="#1ABCFE"/>
<path d="M4.66663 15.3334C4.66663 14.6262 4.94758 13.9479 5.44767 13.4478C5.94777 12.9477 6.62605 12.6667 7.33329 12.6667H9.99996V15.3334C9.99996 16.0407 9.71901 16.7189 9.21891 17.219C8.71881 17.7191 8.04054 18.0001 7.33329 18.0001C6.62605 18.0001 5.94777 17.7191 5.44767 17.219C4.94758 16.7189 4.66663 16.0407 4.66663 15.3334V15.3334Z" fill="#0ACF83"/>
<path d="M10 2V7.33333H12.6667C13.3739 7.33333 14.0522 7.05238 14.5523 6.55228C15.0524 6.05219 15.3333 5.37391 15.3333 4.66667C15.3333 3.95942 15.0524 3.28115 14.5523 2.78105C14.0522 2.28095 13.3739 2 12.6667 2H10Z" fill="#FF7262"/>
<path d="M4.66663 4.66667C4.66663 5.37391 4.94758 6.05219 5.44767 6.55228C5.94777 7.05238 6.62605 7.33333 7.33329 7.33333H9.99996V2H7.33329C6.62605 2 5.94777 2.28095 5.44767 2.78105C4.94758 3.28115 4.66663 3.95942 4.66663 4.66667V4.66667Z" fill="#F24E1E"/>
<path d="M4.66663 9.99992C4.66663 10.7072 4.94758 11.3854 5.44767 11.8855C5.94777 12.3856 6.62605 12.6666 7.33329 12.6666H9.99996V7.33325H7.33329C6.62605 7.33325 5.94777 7.6142 5.44767 8.1143C4.94758 8.6144 4.66663 9.29267 4.66663 9.99992V9.99992Z" fill="#A259FF"/>
</g>
<defs>
<clipPath id="clip0_10688_19288">
<rect width="10.6667" height="16" fill="white" transform="translate(4.66663 2)"/>
</clipPath>
</defs>
</svg>