<svg width="40" height="40" viewBox="0 0 40 40" fill="none" xmlns="http://www.w3.org/2000/svg">
<rect width="40" height="40" rx="8" fill="white"/>
<g clip-path="url(#clip0_6275_19581)">
<path d="M20 20.5C20 19.3065 20.4741 18.1619 21.318 17.318C22.1619 16.4741 23.3065 16 24.5 16C25.6935 16 26.8381 16.4741 27.682 17.318C28.5259 18.1619 29 19.3065 29 20.5C29 21.6935 28.5259 22.8381 27.682 23.682C26.8381 24.5259 25.6935 25 24.5 25C23.3065 25 22.1619 24.5259 21.318 23.682C20.4741 22.8381 20 21.6935 20 20.5V20.5Z" fill="#1ABCFE"/>
<path d="M11 29.5C11 28.3065 11.4741 27.1619 12.318 26.318C13.1619 25.4741 14.3065 25 15.5 25H20V29.5C20 30.6935 19.5259 31.8381 18.682 32.682C17.8381 33.5259 16.6935 34 15.5 34C14.3065 34 13.1619 33.5259 12.318 32.682C11.4741 31.8381 11 30.6935 11 29.5V29.5Z" fill="#0ACF83"/>
<path d="M20 7V16H24.5C25.6935 16 26.8381 15.5259 27.682 14.682C28.5259 13.8381 29 12.6935 29 11.5C29 10.3065 28.5259 9.16193 27.682 8.31802C26.8381 7.47411 25.6935 7 24.5 7H20Z" fill="#FF7262"/>
<path d="M11 11.5C11 12.6935 11.4741 13.8381 12.318 14.682C13.1619 15.5259 14.3065 16 15.5 16H20V7H15.5C14.3065 7 13.1619 7.47411 12.318 8.31802C11.4741 9.16193 11 10.3065 11 11.5V11.5Z" fill="#F24E1E"/>
<path d="M11 20.5C11 21.6935 11.4741 22.8381 12.318 23.682C13.1619 24.5259 14.3065 25 15.5 25H20V16H15.5C14.3065 16 13.1619 16.4741 12.318 17.318C11.4741 18.1619 11 19.3065 11 20.5V20.5Z" fill="#A259FF"/>
</g>
<defs>
<clipPath id="clip0_6275_19581">
<rect width="18" height="27" fill="white" transform="translate(11 7)"/>
</clipPath>
</defs>
</svg>
