<svg width="20" height="20" viewBox="0 0 20 20" fill="none" xmlns="http://www.w3.org/2000/svg">
<g clip-path="url(#clip0_10811_6789)">
<path fill-rule="evenodd" clip-rule="evenodd" d="M10.0074 1C5.02656 1 1 5.05625 1 10.0744C1 14.0856 3.57996 17.4811 7.15904 18.6828C7.60652 18.7732 7.77043 18.4876 7.77043 18.2473C7.77043 18.037 7.75568 17.3159 7.75568 16.5646C5.25002 17.1055 4.72824 15.4828 4.72824 15.4828C4.32557 14.4312 3.72893 14.1609 3.72893 14.1609C2.90883 13.605 3.78867 13.605 3.78867 13.605C4.69837 13.6651 5.17572 14.5364 5.17572 14.5364C5.98089 15.9185 7.27833 15.528 7.8003 15.2876C7.87478 14.7016 8.11355 14.296 8.36706 14.0707C6.36863 13.8603 4.26602 13.0791 4.26602 9.59353C4.26602 8.60196 4.6237 7.79071 5.19047 7.15978C5.10105 6.93447 4.7878 6.00283 5.28008 4.7559C5.28008 4.7559 6.04062 4.51547 7.75549 5.68736C8.48969 5.48873 9.24685 5.38768 10.0074 5.38683C10.768 5.38683 11.5433 5.49211 12.2592 5.68736C13.9743 4.51547 14.7348 4.7559 14.7348 4.7559C15.2271 6.00283 14.9137 6.93447 14.8242 7.15978C15.4059 7.79071 15.7489 8.60196 15.7489 9.59353C15.7489 13.0791 13.6463 13.8452 11.6329 14.0707C11.9611 14.3561 12.2443 14.8969 12.2443 15.7533C12.2443 16.9702 12.2295 17.9468 12.2295 18.2472C12.2295 18.4876 12.3936 18.7732 12.8409 18.683C16.42 17.4809 19 14.0856 19 10.0744C19.0147 5.05625 14.9734 1 10.0074 1Z" fill="#24292F"/>
</g>
<defs>
<clipPath id="clip0_10811_6789">
<rect width="18" height="18" fill="white" transform="translate(1 1)"/>
</clipPath>
</defs>
</svg>
