<svg width="20" height="20" viewBox="0 0 20 20" fill="none" xmlns="http://www.w3.org/2000/svg">
<path d="M15.163 10.8165H15.1674C15.1674 10.8165 13.5123 13.2443 12.1206 15.0487C10.9177 16.6072 10.5665 17.9419 10.4655 18.5872C10.426 18.8243 10.2328 18.9999 10.0001 18.9999C9.76744 18.9999 9.57427 18.8243 9.53476 18.5872C9.43378 17.9419 9.08256 16.6072 7.87964 15.0487C7.69525 14.8072 7.50647 14.557 7.31769 14.3024L11.8616 8.90237L15.5186 4.56482C15.9225 5.41213 16.1464 6.36042 16.1464 7.36579C16.1464 8.63896 15.7821 9.81993 15.163 10.8165Z" fill="#48B564"/>
<path d="M11.8614 8.90227L7.31754 14.3023C6.07949 12.6427 4.83267 10.8164 4.83267 10.8164H4.83706C4.70535 10.6057 4.58682 10.3906 4.48584 10.1667L8.13851 5.8291C7.79169 6.24617 7.58535 6.78178 7.58535 7.36568C7.58535 8.70031 8.66534 9.78031 9.99997 9.78031C10.7507 9.78031 11.4224 9.43787 11.8614 8.90227Z" fill="#FCC60E"/>
<path d="M11.9303 1.32488L8.16783 5.79414L5.28784 3.28292C6.41174 1.88683 8.10637 1 9.99856 1C10.6747 1 11.3244 1.11415 11.9303 1.32488Z" fill="#2C85EB"/>
<path d="M8.16918 5.79368L8.13845 5.82881L4.48577 10.1664C4.08187 9.31904 3.85358 8.37075 3.85358 7.36539C3.85358 5.81125 4.39358 4.38442 5.28918 3.28247L8.16918 5.79368Z" fill="#ED5748"/>
<path d="M11.861 8.90249C12.2078 8.48542 12.4141 7.94981 12.4141 7.36591C12.4141 6.03128 11.3342 4.95128 9.99952 4.95128C9.24879 4.95128 8.57708 5.29372 8.13806 5.82933L11.9312 1.32495C13.5073 1.86056 14.798 3.04153 15.518 4.56494L11.861 8.90249Z" fill="#5695F6"/>
</svg>