<svg width="40" height="40" viewBox="0 0 40 40" fill="none" xmlns="http://www.w3.org/2000/svg">
<rect width="40" height="40" rx="8" fill="white"/>
<path d="M26.4334 19.8757L23.0827 7.56885L6 12.0791L11.3481 32.4313L28.5985 27.8276L27.0073 21.9832L24.4434 20.8614C23.8364 21.4789 22.9349 21.8957 21.9932 21.8957C20.1545 21.8957 18.6587 20.4289 18.6587 18.6262C18.6587 16.8234 20.1545 15.3567 21.9932 15.3567C23.8318 15.3567 25.3276 16.8234 25.3276 18.6262C25.3276 18.8888 25.2959 19.1442 25.236 19.3891L26.4335 19.8757L26.4334 19.8757ZM19.2917 13.8249C19.2917 13.8249 18.8703 14.0314 18.7943 14.1832C18.7918 14.1882 18.7885 14.1936 18.7856 14.1989C18.7978 14.2096 18.8101 14.2204 18.8227 14.2315C19.1004 14.4757 19.5174 14.8429 20.0071 15.3491C19.7763 15.4848 19.561 15.6433 19.3645 15.8216C18.9264 15.3744 18.5537 15.046 18.3015 14.8242C18.2953 14.8188 18.2898 14.814 18.2838 14.8087C18.1873 14.9819 18.0922 15.3528 18.0922 15.3528C18.0922 15.3528 17.698 13.9478 17.5231 13.5921C17.7706 13.6842 18.9393 13.8838 19.2916 13.825L19.2917 13.8249ZM15.2144 30.5212C13.6566 30.9249 12.1747 30.4066 11.9043 29.3635C11.6523 28.3909 12.5429 27.3058 13.9273 26.8362C13.0428 24.0453 12.3855 19.9936 13.7135 15.5838C13.6954 15.5754 13.6786 15.5669 13.6647 15.5585C13.5199 15.47 13.0531 15.5183 13.0531 15.5183C13.3831 15.3814 14.2683 14.5927 14.4293 14.3835C14.4696 14.7779 14.88 16.1782 14.88 16.1782C14.88 16.1782 14.6349 15.9448 14.4614 15.8373C13.1926 20.0751 13.8406 23.9746 14.6966 26.6507C16.0891 26.4451 17.3753 26.9458 17.5456 27.9017C17.755 29.0776 16.7722 30.1175 15.2144 30.5212ZM24.7424 27.9277C23.1846 28.3314 21.7026 27.8131 21.4323 26.7701C21.2295 25.9873 21.7665 25.1316 22.7055 24.5826C22.3607 24.4933 21.2358 24.2072 20.8899 24.1857L21.4565 23.9613L18.7557 21.4218C18.5168 21.5323 18.2563 21.6255 17.9769 21.6979C17.78 21.7489 17.5843 21.7851 17.392 21.8075L16.3184 25.2799L16.8988 25.2729C16.4608 25.3041 15.5595 26.6071 15.5595 26.6071C15.5595 26.6071 15.2516 25.0795 15.0934 24.7L15.5449 25.1095L16.5628 21.8172C15.6058 21.7228 14.8519 21.2547 14.6668 20.5402C14.3964 19.4971 15.4402 18.3242 16.9979 17.9206C17.0103 17.9174 17.0226 17.9147 17.0351 17.9117C16.7558 17.6157 16.0163 16.8407 15.7482 16.6474L16.3463 16.7595L15.6555 14.2791C14.242 14.5153 12.9701 14.0005 12.7217 13.0419C12.4514 11.9988 13.4951 10.8259 15.0529 10.4223C16.6106 10.0186 18.0926 10.5369 18.3629 11.58C18.6101 12.5339 17.7581 13.5959 16.4192 14.0793L17.0936 16.5008L17.5861 16.1898C17.2955 16.3984 17.185 17.4873 17.1541 17.8834C17.407 17.8276 17.6587 17.7958 17.9037 17.7857C17.8616 18.0242 17.8395 18.267 17.8395 18.5137C17.8395 20.521 19.2727 22.2034 21.1828 22.6207L21.9507 23.3427L22.2006 22.8186C22.0566 23.1731 22.6238 24.2692 22.7721 24.5453C23.0683 24.3799 23.4018 24.2443 23.7634 24.1506C23.7708 24.1487 23.7781 24.1471 23.7854 24.1453C23.6302 23.4684 23.4479 22.8334 23.2461 22.2376C23.4997 22.1523 23.7415 22.0422 23.9685 21.9097C24.1937 22.5665 24.3961 23.269 24.5665 24.021C25.8216 23.9378 26.9173 24.4312 27.0735 25.3083C27.2829 26.4842 26.3001 27.5242 24.7423 27.9279L24.7424 27.9277ZM27.955 20.7091L27.8401 20.9664L25.5435 19.8803L25.1337 20.7467L27.4399 21.8373L27.3346 22.0991L33.3796 24.7968L33.9999 23.4067L27.955 20.709V20.7091Z" fill="black"/>
</svg>
