<svg width="20" height="20" viewBox="0 0 20 20" fill="none" xmlns="http://www.w3.org/2000/svg">
<path d="M14.5953 9.91099L12.202 1.12036L0 4.342L3.82008 18.8793L16.1418 15.5909L15.0052 11.4163L13.1738 10.615C12.7403 11.0561 12.0963 11.3538 11.4237 11.3538C10.1104 11.3538 9.04195 10.3061 9.04195 9.01845C9.04195 7.73075 10.1104 6.6831 11.4237 6.6831C12.737 6.6831 13.8054 7.73075 13.8054 9.01849C13.8054 9.20607 13.7828 9.38849 13.74 9.56337L14.5954 9.91095L14.5953 9.91099ZM9.49406 5.58899C9.49406 5.58899 9.19305 5.73646 9.13879 5.84493C9.13703 5.84845 9.13465 5.85235 9.13258 5.8561C9.14129 5.86376 9.15008 5.87149 9.1591 5.87942C9.35742 6.0538 9.65531 6.3161 10.005 6.67767C9.8402 6.77462 9.68645 6.88786 9.54605 7.01521C9.23316 6.69575 8.96691 6.46118 8.78676 6.30278C8.78234 6.29892 8.7784 6.29544 8.77414 6.29169C8.70523 6.4154 8.63727 6.68036 8.63727 6.68036C8.63727 6.68036 8.35574 5.67677 8.23082 5.42267C8.40754 5.48849 9.24234 5.63106 9.49402 5.58903L9.49406 5.58899ZM6.58172 17.5149C5.46898 17.8033 4.41047 17.433 4.21738 16.688C4.03734 15.9933 4.67352 15.2182 5.66238 14.8828C5.03059 12.8892 4.56105 9.99517 5.50961 6.84536C5.49668 6.83935 5.48473 6.83329 5.4748 6.82728C5.37133 6.76403 5.03793 6.79853 5.03793 6.79853C5.27363 6.70079 5.90594 6.13743 6.02094 5.98798C6.04969 6.26966 6.34285 7.26989 6.34285 7.26989C6.34285 7.26989 6.16781 7.10317 6.04383 7.02638C5.13758 10.0534 5.60043 12.8388 6.21187 14.7502C7.20652 14.6034 8.12523 14.961 8.24684 15.6438C8.39641 16.4837 7.69441 17.2266 6.58172 17.5149ZM13.3874 15.6624C12.2747 15.9508 11.2162 15.5806 11.0231 14.8355C10.8782 14.2764 11.2618 13.6652 11.9325 13.273C11.6862 13.2092 10.8827 13.0049 10.6356 12.9895L11.0404 12.8292L9.11121 11.0154C8.94059 11.0943 8.75453 11.1608 8.55496 11.2126C8.4143 11.249 8.27449 11.2749 8.13715 11.2908L7.37031 13.7711L7.78484 13.7661C7.47203 13.7884 6.82824 14.7191 6.82824 14.7191C6.82824 14.7191 6.60828 13.628 6.49527 13.3569L6.81781 13.6494L7.54488 11.2977C6.86125 11.2303 6.32281 10.8959 6.19055 10.3856C5.99746 9.64056 6.74297 8.80278 7.85566 8.51446C7.86449 8.51216 7.87332 8.51028 7.88219 8.5081C7.6827 8.29665 7.15453 7.7431 6.96297 7.60501L7.39023 7.68513L6.8968 5.91341C5.88715 6.08208 4.97867 5.71439 4.80121 5.02966C4.60813 4.28462 5.35363 3.44685 6.46633 3.15853C7.57902 2.87021 8.63758 3.2404 8.83066 3.98544C9.00723 4.66681 8.39863 5.4254 7.44227 5.77071L7.92402 7.50036L8.27582 7.27817C8.0682 7.42716 7.9893 8.20497 7.96719 8.4879C8.14785 8.44802 8.32766 8.42536 8.50262 8.4181C8.47254 8.58845 8.45676 8.76192 8.45676 8.9381C8.45676 10.3719 9.48051 11.5736 10.8449 11.8717L11.3934 12.3874L11.5719 12.0131C11.469 12.2662 11.8741 13.0492 11.9801 13.2464C12.1916 13.1283 12.4298 13.0314 12.6882 12.9645C12.6934 12.9631 12.6986 12.962 12.7039 12.9607C12.593 12.4772 12.4628 12.0236 12.3187 11.598C12.4998 11.5371 12.6725 11.4585 12.8346 11.3638C12.9955 11.8329 13.14 12.3348 13.2618 12.8719C14.1583 12.8125 14.9409 13.1649 15.0525 13.7914C15.2021 14.6313 14.5001 15.3742 13.3874 15.6625L13.3874 15.6624ZM15.6821 10.5062L15.6001 10.69L13.9596 9.91423L13.6669 10.5331L15.3142 11.3121L15.239 11.4991L19.5568 13.426L20 12.4331L15.6821 10.5062V10.5062Z" fill="black"/>
</svg>
