<svg width="20" height="20" viewBox="0 0 20 20" fill="none" xmlns="http://www.w3.org/2000/svg">
<path d="M7.19911 19.1681C6.86159 18.9623 6.38494 18.1108 5.86559 16.7859C4.803 14.0751 3.56279 9.56122 2.91844 6.05935C2.71549 4.95638 2.63178 3.17926 2.75494 2.58849C2.91607 1.81565 3.32671 1.4141 4.04264 1.32931L4.37419 1.29004L4.55843 1.60441C5.00606 2.36823 5.0907 2.82778 5.24092 5.3099C5.33815 6.91651 5.4946 7.88819 5.69771 8.14695C5.83753 8.32508 6.00637 8.23169 6.216 7.86024C6.63364 7.12021 8.75105 4.82553 9.55315 4.24369C10.5546 3.51725 11.765 3.14011 13.0949 3.14011C13.5435 3.14011 13.537 3.12624 13.3981 3.78873C13.3507 4.01478 13.2297 4.3401 13.1291 4.51167C12.8462 4.99444 12.0017 5.85014 10.8432 6.82789C9.6386 7.84459 8.05594 9.42204 8.05594 9.60599C8.05594 9.674 8.09413 9.74005 8.1408 9.75276C8.96339 9.97686 11.8858 11.2564 13.7321 12.2009C15.8391 13.2787 17.1534 14.1569 17.3828 14.6402C17.551 14.9947 17.5294 15.7336 17.3398 16.1093C17.1331 16.519 16.9604 16.5963 16.3724 16.5423C15.128 16.4279 14.2144 16.0152 11.9214 14.5316C9.8481 13.1901 8.91589 12.7319 7.92814 12.5687C7.31483 12.4675 7.20173 12.5421 7.2175 13.0376C7.23214 13.4975 7.41159 13.9117 8.06199 14.9868C8.89427 16.3626 9.13491 17.2315 8.94157 18.1629C8.84302 18.6376 8.64055 18.8917 8.1768 19.1228C7.75931 19.3308 7.48671 19.3435 7.19911 19.1681Z" fill="#24292F"/>
</svg>
