<svg width="40" height="40" viewBox="0 0 40 40" fill="none" xmlns="http://www.w3.org/2000/svg">
<rect width="40" height="40" rx="8" fill="white"/>
<path d="M16.6091 30.973C16.203 30.7253 15.6295 29.7008 15.0046 28.1066C13.726 24.8448 12.2337 19.4134 11.4584 15.1997C11.2142 13.8725 11.1134 11.7342 11.2616 11.0233C11.4555 10.0934 11.9496 9.61021 12.8111 9.50819L13.21 9.46094L13.4317 9.83921C13.9703 10.7583 14.0722 11.3112 14.2529 14.2979C14.3699 16.2311 14.5582 17.4003 14.8026 17.7116C14.9708 17.926 15.174 17.8136 15.4262 17.3666C15.9287 16.4762 18.4765 13.7151 19.4417 13.015C20.6467 12.1409 22.1031 11.6871 23.7034 11.6871C24.2431 11.6871 24.2353 11.6704 24.0682 12.4675C24.0111 12.7395 23.8655 13.131 23.7445 13.3374C23.4041 13.9183 22.3879 14.948 20.994 16.1244C19.5445 17.3478 17.6401 19.2459 17.6401 19.4672C17.6401 19.5491 17.6861 19.6285 17.7423 19.6438C18.732 19.9135 22.2485 21.4532 24.4701 22.5896C27.0054 23.8865 28.5869 24.9432 28.8628 25.5247C29.0653 25.9513 29.0393 26.8404 28.8111 27.2925C28.5624 27.7855 28.3546 27.8784 27.6471 27.8134C26.1497 27.6758 25.0504 27.1792 22.2913 25.394C19.7966 23.7799 18.6749 23.2285 17.4864 23.0322C16.7484 22.9104 16.6123 23.0001 16.6313 23.5963C16.6489 24.1497 16.8648 24.6481 17.6474 25.9418C18.6489 27.5972 18.9384 28.6428 18.7058 29.7634C18.5872 30.3346 18.3436 30.6404 17.7856 30.9185C17.2832 31.1688 16.9552 31.184 16.6091 30.973Z" fill="#24292F"/>
</svg>
