<svg width="20" height="20" viewBox="0 0 20 20" fill="none" xmlns="http://www.w3.org/2000/svg">
<path d="M6.78174 6.44629H6.41113C6.37891 6.31738 6.31982 6.1652 6.23389 5.98975C6.15153 5.81071 6.05843 5.64242 5.95459 5.48486C5.84717 5.32015 5.729 5.17692 5.6001 5.05518C5.47477 4.92985 5.35303 4.85824 5.23486 4.84033C5.12386 4.82601 4.98421 4.81527 4.81592 4.80811C4.64762 4.80094 4.49186 4.79736 4.34863 4.79736H4.03711V10.8936C4.03711 11.0117 4.06217 11.1209 4.1123 11.2212C4.16244 11.3179 4.25016 11.3931 4.37549 11.4468C4.43994 11.4718 4.57422 11.5059 4.77832 11.5488C4.986 11.5918 5.14714 11.6151 5.26172 11.6187V12H1.66309V11.6187C1.76335 11.6115 1.91553 11.5972 2.11963 11.5757C2.32731 11.5542 2.47054 11.5273 2.54932 11.4951C2.66748 11.4486 2.75342 11.3823 2.80713 11.2964C2.86442 11.2069 2.89307 11.0887 2.89307 10.9419V4.79736H2.58154C2.47054 4.79736 2.33268 4.80094 2.16797 4.80811C2.00326 4.81169 1.8457 4.82243 1.69531 4.84033C1.57715 4.85465 1.45361 4.92627 1.32471 5.05518C1.19938 5.1805 1.08301 5.32373 0.975586 5.48486C0.868164 5.646 0.773275 5.81787 0.690918 6.00049C0.608561 6.17952 0.55127 6.32812 0.519043 6.44629H0.143066V4.37842H6.78174V6.44629Z" fill="#252525"/>
<path d="M12.5278 13.4424L12.3828 15.6875H6.05566V15.3062C6.16309 15.299 6.30632 15.2847 6.48535 15.2632C6.66439 15.2381 6.78076 15.2131 6.83447 15.188C6.94906 15.1343 7.02783 15.0645 7.0708 14.9785C7.11735 14.8926 7.14062 14.7834 7.14062 14.6509V9.17236C7.14062 9.0542 7.12093 8.95036 7.08154 8.86084C7.04215 8.76774 6.9598 8.69255 6.83447 8.63525C6.73779 8.5887 6.6071 8.54753 6.44238 8.51172C6.28125 8.47591 6.15234 8.45443 6.05566 8.44727V8.06592H11.9531V9.90283H11.5503C11.4787 9.6307 11.3229 9.34245 11.083 9.03809C10.8467 8.73014 10.6211 8.56185 10.4062 8.5332C10.2952 8.51888 10.1628 8.50814 10.0088 8.50098C9.85482 8.49382 9.67936 8.49023 9.48242 8.49023H8.28467V11.5195H9.14404C9.41976 11.5195 9.62028 11.4945 9.74561 11.4443C9.87451 11.3906 9.9873 11.3029 10.084 11.1812C10.1628 11.0773 10.229 10.9395 10.2827 10.7676C10.34 10.5921 10.3776 10.4274 10.3955 10.2734H10.7983V13.2544H10.3955C10.3812 13.0825 10.3418 12.9017 10.2773 12.7119C10.2165 12.5186 10.152 12.3789 10.084 12.293C9.97298 12.1533 9.84587 12.062 9.70264 12.019C9.56299 11.9761 9.37679 11.9546 9.14404 11.9546H8.28467V14.2427C8.28467 14.4718 8.30078 14.6527 8.33301 14.7852C8.36523 14.9176 8.4279 15.0179 8.521 15.0859C8.61409 15.154 8.74121 15.1987 8.90234 15.2202C9.06348 15.2381 9.29264 15.2471 9.58984 15.2471C9.70801 15.2471 9.86377 15.2471 10.0571 15.2471C10.2505 15.2471 10.4134 15.2399 10.5459 15.2256C10.682 15.2113 10.8216 15.1862 10.9648 15.1504C11.1117 15.111 11.2155 15.0591 11.2764 14.9946C11.4411 14.8228 11.613 14.5632 11.792 14.2158C11.9746 13.8649 12.091 13.6071 12.1411 13.4424H12.5278Z" fill="#252525"/>
<path d="M19.8882 12H16.3218V11.6187C16.6154 11.6115 16.8517 11.5846 17.0308 11.5381C17.2134 11.488 17.3047 11.4128 17.3047 11.3125C17.3047 11.2588 17.2635 11.1478 17.1812 10.9795C17.0988 10.8112 16.9932 10.6232 16.8643 10.4155C16.721 10.1864 16.5509 9.91781 16.354 9.60986C16.1571 9.29834 15.9619 9.00114 15.7686 8.71826C15.4535 9.13363 15.0954 9.63493 14.6943 10.2222C14.2933 10.8058 14.0928 11.1496 14.0928 11.2534C14.0928 11.3716 14.1465 11.4593 14.2539 11.5166C14.3649 11.5703 14.6066 11.6043 14.979 11.6187V12H12.1323V11.6187C12.2254 11.6115 12.3436 11.599 12.4868 11.5811C12.6336 11.5596 12.7536 11.5256 12.8467 11.479C13.0329 11.3787 13.1815 11.2713 13.2925 11.1567C13.4071 11.0386 13.5216 10.9007 13.6362 10.7432C13.8654 10.4281 14.159 10.036 14.5171 9.56689C14.8752 9.09424 15.1921 8.66455 15.4678 8.27783C15.2601 7.97347 14.9951 7.58854 14.6729 7.12305C14.3506 6.65397 14.0068 6.15267 13.6416 5.61914C13.4876 5.39355 13.3659 5.23421 13.2764 5.14111C13.1904 5.04801 13.0741 4.96745 12.9272 4.89941C12.8413 4.86003 12.7214 4.82959 12.5674 4.80811C12.417 4.78304 12.297 4.76693 12.2075 4.75977V4.37842H15.7363V4.75977C15.5286 4.76693 15.312 4.79378 15.0864 4.84033C14.8644 4.8833 14.7534 4.95133 14.7534 5.04443C14.7534 5.11247 14.7982 5.23242 14.8877 5.4043C14.9772 5.57259 15.0828 5.75342 15.2046 5.94678C15.3299 6.1473 15.4696 6.3693 15.6235 6.61279C15.7775 6.85628 15.9655 7.13737 16.1875 7.45605C16.5921 6.9082 16.9412 6.41406 17.2349 5.97363C17.5285 5.5332 17.6753 5.24674 17.6753 5.11426C17.6753 4.99967 17.6073 4.91553 17.4712 4.86182C17.3387 4.80811 17.1131 4.77409 16.7944 4.75977V4.37842H19.6357V4.75977C19.5462 4.76335 19.4281 4.77767 19.2812 4.80273C19.138 4.82422 19.0181 4.85645 18.9214 4.89941C18.7352 4.98893 18.5955 5.08561 18.5024 5.18945C18.4129 5.29329 18.2912 5.44368 18.1372 5.64062C17.8507 6.00944 17.5858 6.35677 17.3423 6.68262C17.1024 7.00488 16.8123 7.39876 16.4722 7.86426C16.7586 8.27246 17.0773 8.73617 17.4282 9.25537C17.7827 9.77458 18.1211 10.2705 18.4434 10.7432C18.5544 10.9043 18.6815 11.0583 18.8247 11.2051C18.9679 11.3483 19.0843 11.4468 19.1738 11.5005C19.2598 11.5506 19.3743 11.5828 19.5176 11.5972C19.6644 11.6079 19.7879 11.6151 19.8882 11.6187V12Z" fill="#252525"/>
</svg>
