<svg width="20" height="20" viewBox="0 0 20 20" fill="none" xmlns="http://www.w3.org/2000/svg">
<g clip-path="url(#clip0_10811_972)">
<path d="M15.2381 2H4.76187C3.23653 2 2 3.23653 2 4.76187V15.2381C2 16.7635 3.23653 18 4.76187 18H15.2381C16.7635 18 18 16.7635 18 15.2381V4.76187C18 3.23653 16.7635 2 15.2381 2Z" fill="#FF3670"/>
<path d="M15.3016 5.6292C14.155 5.58013 13.0226 5.89815 12.0692 6.537C11.1158 7.17585 10.3911 8.10222 10.0005 9.18135C9.60984 8.10222 8.88511 7.17585 7.93171 6.537C6.9783 5.89815 5.84594 5.58013 4.69934 5.6292C4.66084 6.5462 4.8566 7.45788 5.26815 8.27824C5.6797 9.0986 6.29347 9.80058 7.05155 10.318C7.44047 10.5851 7.75831 10.9431 7.97749 11.3609C8.19667 11.7787 8.31055 12.2437 8.30926 12.7155V14.3757H11.692V12.7155C11.6906 12.2437 11.8045 11.7788 12.0236 11.3609C12.2427 10.9431 12.5605 10.5851 12.9494 10.318C13.7077 9.80078 14.3216 9.09883 14.7332 8.27843C15.1447 7.45802 15.3404 6.54624 15.3016 5.6292Z" fill="white"/>
<path d="M7.24395 12.7156C7.24554 12.4173 7.17419 12.123 7.03612 11.8585C6.89804 11.5941 6.69743 11.3673 6.45172 11.1981C6.1178 10.9702 5.8059 10.7116 5.52011 10.4257C5.21107 10.1161 4.93446 9.77574 4.69458 9.40991V14.3758H7.24395V12.7156Z" fill="white"/>
<path d="M13.0769 12.6903C13.0753 12.392 13.1467 12.0978 13.2848 11.8333C13.4228 11.5688 13.6235 11.342 13.8692 11.1728C14.2031 10.9449 14.515 10.6864 14.8008 10.4005C15.1098 10.0908 15.3864 9.75047 15.6263 9.38464V14.3505H13.0769V12.6903Z" fill="white"/>
</g>
<defs>
<clipPath id="clip0_10811_972">
<rect width="16" height="16" fill="white" transform="translate(2 2)"/>
</clipPath>
</defs>
</svg>
