<svg width="40" height="40" viewBox="0 0 40 40" fill="none" xmlns="http://www.w3.org/2000/svg">
<rect width="40" height="40" rx="8" fill="white"/>
<g clip-path="url(#clip0_6275_19561)">
<path d="M28.512 7H11.488C9.00937 7 7 9.00937 7 11.488V28.512C7 30.9906 9.00937 33 11.488 33H28.512C30.9906 33 33 30.9906 33 28.512V11.488C33 9.00937 30.9906 7 28.512 7Z" fill="#FF3670"/>
<path d="M28.6153 12.8977C26.7521 12.8179 24.912 13.3347 23.3627 14.3728C21.8134 15.411 20.6357 16.9163 20.001 18.6699C19.3662 16.9163 18.1885 15.411 16.6392 14.3728C15.09 13.3347 13.2499 12.8179 11.3866 12.8977C11.3241 14.3878 11.6422 15.8693 12.311 17.2024C12.9797 18.5354 13.9771 19.6762 15.209 20.5169C15.841 20.951 16.3575 21.5327 16.7136 22.2117C17.0698 22.8906 17.2549 23.6463 17.2528 24.413V27.1108H22.7497V24.413C22.7475 23.6463 22.9325 22.8907 23.2885 22.2117C23.6446 21.5328 24.161 20.951 24.793 20.5169C26.0252 19.6765 27.0228 18.5358 27.6916 17.2027C28.3604 15.8695 28.6783 14.3879 28.6153 12.8977Z" fill="white"/>
<path d="M15.5216 24.4128C15.5242 23.9279 15.4083 23.4498 15.1839 23.02C14.9595 22.5902 14.6335 22.2218 14.2343 21.9468C13.6916 21.5765 13.1848 21.1563 12.7204 20.6917C12.2182 20.1886 11.7687 19.6355 11.3789 19.041V27.1106H15.5216V24.4128Z" fill="white"/>
<path d="M25 24.3718C24.9975 23.8869 25.1134 23.4088 25.3378 22.979C25.5621 22.5492 25.8881 22.1808 26.2874 21.9057C26.83 21.5355 27.3369 21.1153 27.8013 20.6507C28.3035 20.1476 28.753 19.5945 29.1428 19V27.0696H25V24.3718Z" fill="white"/>
</g>
<defs>
<clipPath id="clip0_6275_19561">
<rect width="26" height="26" fill="white" transform="translate(7 7)"/>
</clipPath>
</defs>
</svg>
