<svg width="40" height="40" viewBox="0 0 40 40" fill="none" xmlns="http://www.w3.org/2000/svg">
<rect width="40" height="40" rx="8" fill="white"/>
<path fill-rule="evenodd" clip-rule="evenodd" d="M19.6076 24.8411L17.9458 24.4447V17.7536L19.6076 17.4372V24.8411ZM31.232 23.2634C30.0267 23.2674 29.0497 22.2944 29.0416 21.0891V21.0771C29.0416 19.8918 30.0147 18.9188 31.228 18.9188C32.4413 18.9188 33.4143 19.8918 33.4143 21.0771C33.4183 22.2824 32.4413 23.2594 31.24 23.2634H31.232ZM35 21.0771C35 23.1593 33.3142 24.8451 31.232 24.8451C29.1498 24.8451 27.464 23.1593 27.464 21.0771C27.464 19.0229 29.1538 17.3371 31.236 17.3371C33.3182 17.3371 35 19.0229 35 21.0771ZM13.6212 24.4487L15.2549 24.7891V20.2843C15.2549 18.122 13.5691 17.3611 12.4079 17.3611C11.6431 17.3611 11.0104 17.5453 10.4578 18.0979C9.8772 17.5453 9.19247 17.3331 8.63988 17.3331C7.82301 17.3331 7.13828 17.6735 6.66177 18.2541V17.4893L5 17.8056V24.4447L6.66177 24.7851V20.2322C6.66177 19.4954 7.19034 18.9949 8.0032 18.9949C8.76802 18.9949 9.32061 19.4954 9.32061 20.2322V24.4487L10.9544 24.7891V20.2322C10.9544 19.4954 11.5069 18.9949 12.2998 18.9949C13.0646 18.9949 13.6172 19.4954 13.6172 20.2322L13.6212 24.4487ZM26.2226 17.3371L25.2456 17.4693C23.4277 17.8897 22.2424 18.4703 22.2424 20.4725V24.4487L23.9042 24.765V20.7087C23.9042 19.7877 24.4327 19.3633 25.2496 19.2071L26.2266 19.0509L26.2226 17.3371ZM18.0259 14.5942C17.6295 14.9986 17.6295 15.6393 18.0259 16.0437C18.4303 16.4602 19.099 16.4642 19.5115 16.0598L19.5275 16.0437C19.9239 15.6433 19.9239 14.9946 19.5275 14.5942C19.103 14.1978 18.4463 14.1978 18.0259 14.5942Z" fill="#050038"/>
</svg>
