<svg width="40" height="40" viewBox="0 0 40 40" fill="none" xmlns="http://www.w3.org/2000/svg">
<path fill-rule="evenodd" clip-rule="evenodd" d="M19.6076 24.841L17.9458 24.4446V17.7534L19.6076 17.4371V24.841ZM31.232 23.2633C30.0267 23.2673 29.0497 22.2943 29.0416 21.089V21.077C29.0416 19.8917 30.0147 18.9187 31.228 18.9187C32.4413 18.9187 33.4143 19.8917 33.4143 21.077C33.4183 22.2823 32.4413 23.2593 31.24 23.2633H31.232ZM35 21.077C35 23.1592 33.3142 24.845 31.232 24.845C29.1498 24.845 27.464 23.1592 27.464 21.077C27.464 19.0228 29.1538 17.337 31.236 17.337C33.3182 17.337 35 19.0228 35 21.077ZM13.6212 24.4486L15.2549 24.7889V20.2841C15.2549 18.1218 13.5691 17.361 12.4079 17.361C11.6431 17.361 11.0104 17.5452 10.4578 18.0978C9.8772 17.5452 9.19247 17.333 8.63988 17.333C7.82301 17.333 7.13828 17.6734 6.66177 18.254V17.4892L5 17.8055V24.4446L6.66177 24.7849V20.2321C6.66177 19.4953 7.19034 18.9948 8.0032 18.9948C8.76802 18.9948 9.32061 19.4953 9.32061 20.2321V24.4486L10.9544 24.7889V20.2321C10.9544 19.4953 11.5069 18.9948 12.2998 18.9948C13.0646 18.9948 13.6172 19.4953 13.6172 20.2321L13.6212 24.4486ZM26.2226 17.337L25.2456 17.4691C23.4277 17.8896 22.2424 18.4702 22.2424 20.4723V24.4486L23.9042 24.7649V20.7086C23.9042 19.7876 24.4327 19.3632 25.2496 19.207L26.2266 19.0508L26.2226 17.337ZM18.0259 14.5941C17.6295 14.9985 17.6295 15.6392 18.0259 16.0436C18.4303 16.4601 19.099 16.4641 19.5115 16.0596L19.5275 16.0436C19.9239 15.6432 19.9239 14.9945 19.5275 14.5941C19.103 14.1976 18.4463 14.1976 18.0259 14.5941Z" fill="#050038"/>
</svg>
