<svg width="20" height="20" viewBox="0 0 20 20" fill="none" xmlns="http://www.w3.org/2000/svg">
<path d="M2 6.00028C2 3.79295 3.79214 2.00012 6.00016 2.00012H13.9998C16.2078 2.00012 18 3.79226 18 6.00028V14C18 16.208 16.2078 18.0001 13.9998 18.0001H6.00016C3.79214 18.0001 2 16.208 2 14V6.00028Z" fill="#FFDD33"/>
<path fill-rule="evenodd" clip-rule="evenodd" d="M12.6359 5.05225H11.1844L12.3951 7.17887L9.73293 5.05225H8.28142L9.61254 7.64947L6.82992 5.05225H5.37842L6.82992 8.36088L5.37842 14.9774H6.82992L9.61254 7.88959L8.28142 14.9774H9.73293L12.3951 7.41554L11.1844 14.9774H12.6359L15.2981 6.70826L12.6359 5.05566V5.05225Z" fill="#1C1C1E"/>
</svg>
