<svg width="20" height="20" viewBox="0 0 20 20" fill="none" xmlns="http://www.w3.org/2000/svg">
<g clip-path="url(#clip0_10811_425)">
<path d="M17.9647 6.40982C17.7393 4.93315 16.9527 3.67848 15.7433 2.86648C13.542 1.38515 10.562 1.84448 8.89867 3.92048C8.176 4.82344 7.78302 5.94594 7.78468 7.10248C7.78468 7.49782 7.82934 7.88315 7.90801 8.21848C8.02868 8.75182 8.29601 9.39648 8.57934 9.83782L8.72468 10.0665L7.56067 11.2291L7.37601 11.1358C7.21467 11.0532 7.16334 11.0425 6.96201 11.0425C6.52867 11.0412 6.65268 10.9365 4.24934 13.3418C1.87067 15.7231 2.00134 15.5691 2.00134 15.9991C1.99867 16.3858 2.04601 16.4585 2.79067 17.2005C3.41601 17.8231 3.53734 17.9198 3.77267 17.9791L3.77334 17.9798C3.94334 18.0231 4.22334 17.9925 4.40401 17.9091C4.54534 17.8445 4.82934 17.5725 6.67201 15.7351C9.06267 13.3471 8.96067 13.4698 8.95867 13.0358C8.95867 12.8351 8.94868 12.7852 8.86534 12.6245L8.77201 12.4378L9.93601 11.2752L10.1647 11.4205C11.0567 11.9925 12.2227 12.2831 13.2727 12.1958C14.0107 12.1338 14.5553 11.9825 15.196 11.6605L15.2227 11.6491C15.6968 11.4184 16.1267 11.1061 16.4927 10.7265L16.4933 10.7258C17.2974 9.93939 17.8153 8.90659 17.9647 7.79182C18.012 7.46248 18.012 6.72048 17.9647 6.40982ZM16.7327 8.96048L16.7213 8.98582C16.4249 9.58218 15.9942 10.1016 15.463 10.5033C14.9317 10.9049 14.3146 11.1778 13.66 11.3005L13.6607 11.3018C13.3113 11.3651 12.622 11.3785 12.282 11.3265L12.2587 11.3238C11.2586 11.1702 10.3453 10.6674 9.68068 9.90448C9.00208 9.13048 8.62858 8.13584 8.63001 7.10648C8.63001 6.17782 8.92801 5.31848 9.42534 4.63115C9.63134 4.33982 10.116 3.85515 10.4133 3.64382C10.9057 3.29594 11.4644 3.05313 12.0547 2.93048C12.4587 2.84448 13.278 2.83582 13.666 2.91382C14.2253 3.02582 14.82 3.26848 15.246 3.55515C17.0367 4.75582 17.6613 7.02715 16.7327 8.96048Z" fill="#404A5D"/>
<path d="M3.80837 5.63938C3.81704 5.65204 4.47104 5.84938 5.26371 6.07538H5.26704L6.72371 6.49471C6.74637 6.49671 5.92371 3.61138 5.89171 3.57738C5.86437 3.54938 3.00504 2.73004 2.98771 2.74671C2.97704 2.75871 3.78171 5.59804 3.80837 5.63938ZM16.7204 11.7747C16.7117 11.75 16.6504 11.7807 16.5437 11.864C15.7884 12.4354 14.829 12.8547 13.935 13.006L13.831 13.0247L13.8604 13.1287L13.8617 13.1347C13.8724 13.178 13.8857 13.2194 13.8997 13.2534L13.899 13.2547C13.907 13.2687 16.875 12.4367 16.897 12.414C16.9017 12.408 16.7564 11.8847 16.7204 11.7747ZM13.485 13.642C13.3704 13.586 10.5544 12.8007 10.539 12.818C10.5057 12.8534 9.68304 15.7654 9.69971 15.784L9.31704 15.6787C9.80304 15.834 10.2917 15.982 11.165 16.218L11.1644 16.2174C11.959 16.4467 12.627 16.636 12.6457 16.638C12.6644 16.638 12.6937 16.592 12.7104 16.534L13.1737 14.658C13.3177 14.1594 13.4624 13.6614 13.1344 15.0434C13.483 13.834 13.5264 13.6587 13.485 13.642ZM16.8384 12.862C16.827 12.8494 13.9724 13.6467 13.941 13.6694C13.9284 13.6787 13.109 16.532 13.109 16.5674C13.109 16.58 13.1384 16.588 13.1744 16.5807C13.263 16.5627 16.0037 15.7814 16.017 15.7687C16.0384 15.7534 16.851 12.874 16.8384 12.862ZM2.98837 9.52604C3.04504 9.80871 3.79837 12.36 3.83171 12.386L3.83237 12.3867C3.85704 12.406 3.88371 12.4227 3.89437 12.4227L3.91104 12.4074C4.21771 12.1147 4.51971 11.8174 4.82237 11.5114C5.32571 11.008 5.78304 10.5647 5.83904 10.5254C5.92971 10.4627 5.94104 10.442 5.92237 10.3767C5.90237 10.3027 5.85504 10.286 4.43904 9.88338C3.08571 9.49738 2.97771 9.47071 2.98837 9.52604ZM8.60371 2.88138C8.57971 2.89071 8.05237 3.04404 7.42904 3.22071L6.29904 3.54271L6.35104 3.72938L6.69771 4.93338V4.93471C6.95837 5.84471 7.03504 6.05671 7.03504 5.86138L7.03771 5.84404C7.05971 5.71538 7.09037 5.58938 7.12304 5.48738L7.13237 5.44671C7.37648 4.5759 7.821 3.7743 8.43037 3.10604C8.54837 2.97538 8.62637 2.87138 8.60371 2.88138ZM8.89571 3.92604L8.89971 3.92138L8.90371 3.91538L8.89571 3.92604ZM6.93171 7.82004L6.65104 8.80404C6.55441 9.14558 6.45552 9.48648 6.35437 9.82671L6.35504 9.82604C6.34437 9.85271 6.35571 9.85938 6.39437 9.84871C6.42437 9.83938 6.65904 9.77204 6.91904 9.69938C7.17704 9.62538 7.39371 9.56204 7.39904 9.55804C7.36448 9.43513 7.32421 9.31388 7.27837 9.19471C7.14221 8.81717 7.03872 8.42863 6.96904 8.03338L6.93171 7.82004ZM4.37971 9.46804C5.17171 9.69471 5.84571 9.88271 5.87904 9.88471C5.93237 9.88738 5.97704 9.75138 6.36171 8.40471C6.59437 7.59004 6.78037 6.91804 6.77437 6.91204C6.74304 6.88471 3.80571 6.06204 3.79104 6.07738C3.77504 6.09538 2.92237 9.04271 2.93371 9.05071C2.93571 9.05271 3.58704 9.23938 4.37971 9.46804ZM8.29304 16.0527C8.81837 15.904 9.25704 15.7727 9.27037 15.762C9.29637 15.736 10.1177 12.872 10.1024 12.8554C10.0964 12.8487 10.0364 12.8594 9.96771 12.878L9.84637 12.912L9.83904 13.1167C9.83571 13.23 9.81771 13.386 9.80037 13.4647C9.75571 13.6534 9.59971 13.996 9.48504 14.1414C9.43504 14.2087 8.93237 14.7254 8.36771 15.2934L8.36837 15.2947L7.34237 16.3227L8.29304 16.0527Z" fill="#95CA6E"/>
</g>
<defs>
<clipPath id="clip0_10811_425">
<rect width="16" height="16" fill="white" transform="translate(2 2)"/>
</clipPath>
</defs>
</svg>
