<svg width="40" height="40" viewBox="0 0 40 40" fill="none" xmlns="http://www.w3.org/2000/svg">
<rect width="40" height="40" rx="8" fill="white"/>
<g clip-path="url(#clip0_6275_19631)">
<path d="M31.9469 14.615C31.6089 12.4 30.4289 10.518 28.6149 9.29997C25.3129 7.07797 20.8429 7.76697 18.3479 10.881C17.2639 12.2354 16.6744 13.9192 16.6769 15.654C16.6769 16.247 16.7439 16.825 16.8619 17.328C17.0429 18.128 17.4439 19.095 17.8689 19.757L18.0869 20.1L16.3409 21.844L16.0639 21.704C15.8219 21.58 15.7449 21.564 15.4429 21.564C14.7929 21.562 14.9789 21.405 11.3739 25.013C7.80592 28.585 8.00192 28.354 8.00192 28.999C7.99792 29.579 8.06892 29.688 9.18592 30.801C10.1239 31.735 10.3059 31.88 10.6589 31.969L10.6599 31.97C10.9149 32.035 11.3349 31.989 11.6059 31.864C11.8179 31.767 12.2439 31.359 15.0079 28.603C18.5939 25.021 18.4409 25.205 18.4379 24.554C18.4379 24.253 18.4229 24.178 18.2979 23.937L18.1579 23.657L19.9039 21.913L20.2469 22.131C21.5849 22.989 23.3339 23.425 24.9089 23.294C26.0159 23.201 26.8329 22.974 27.7939 22.491L27.8339 22.474C28.5452 22.1279 29.19 21.6594 29.7389 21.09L29.7399 21.089C30.946 19.9093 31.7229 18.3601 31.9469 16.688C32.0179 16.194 32.0179 15.081 31.9469 14.615ZM30.0989 18.441L30.0819 18.479C29.6373 19.3735 28.9912 20.1527 28.1943 20.7551C27.3975 21.3576 26.4718 21.767 25.4899 21.951L25.4909 21.953C24.9669 22.048 23.9329 22.068 23.4229 21.99L23.3879 21.986C21.8878 21.7555 20.5179 21.0013 19.5209 19.857C18.503 18.696 17.9428 17.204 17.9449 15.66C17.9449 14.267 18.3919 12.978 19.1379 11.947C19.4469 11.51 20.1739 10.783 20.6199 10.466C21.3585 9.94416 22.1965 9.57994 23.0819 9.39597C23.6879 9.26697 24.9169 9.25397 25.4989 9.37097C26.3379 9.53897 27.2299 9.90297 27.8689 10.333C30.5549 12.134 31.4919 15.541 30.0989 18.441Z" fill="#404A5D"/>
<path d="M10.7116 13.459C10.7246 13.478 11.7056 13.774 12.8946 14.113H12.8996L15.0846 14.742C15.1186 14.745 13.8846 10.417 13.8366 10.366C13.7956 10.324 9.50658 9.09501 9.48058 9.12001C9.46458 9.13801 10.6716 13.397 10.7116 13.459ZM30.0796 22.662C30.0666 22.625 29.9746 22.671 29.8146 22.796C28.6816 23.653 27.2426 24.282 25.9016 24.509L25.7456 24.537L25.7896 24.693L25.7916 24.702C25.8076 24.767 25.8276 24.829 25.8486 24.88L25.8476 24.882C25.8596 24.903 30.3116 23.655 30.3446 23.621C30.3516 23.612 30.1336 22.827 30.0796 22.662ZM25.2266 25.463C25.0546 25.379 20.8306 24.201 20.8076 24.227C20.7576 24.28 19.5236 28.648 19.5486 28.676L18.9746 28.518C19.7036 28.751 20.4366 28.973 21.7466 29.327L21.7456 29.326C22.9376 29.67 23.9396 29.954 23.9676 29.957C23.9956 29.957 24.0396 29.888 24.0646 29.801L24.7596 26.987C24.9756 26.239 25.1926 25.492 24.7006 27.565C25.2236 25.751 25.2886 25.488 25.2266 25.463ZM30.2566 24.293C30.2396 24.274 25.9576 25.47 25.9106 25.504C25.8916 25.518 24.6626 29.798 24.6626 29.851C24.6626 29.87 24.7066 29.882 24.7606 29.871C24.8936 29.844 29.0046 28.672 29.0246 28.653C29.0566 28.63 30.2756 24.311 30.2566 24.293ZM9.48158 19.289C9.56658 19.713 10.6966 23.54 10.7466 23.579L10.7476 23.58C10.7846 23.609 10.8246 23.634 10.8406 23.634L10.8656 23.611C11.3256 23.172 11.7786 22.726 12.2326 22.267C12.9876 21.512 13.6736 20.847 13.7576 20.788C13.8936 20.694 13.9106 20.663 13.8826 20.565C13.8526 20.454 13.7816 20.429 11.6576 19.825C9.62758 19.246 9.46558 19.206 9.48158 19.289ZM17.9046 9.32201C17.8686 9.33601 17.0776 9.56601 16.1426 9.83101L14.4476 10.314L14.5256 10.594L15.0456 12.4V12.402C15.4366 13.767 15.5516 14.085 15.5516 13.792L15.5556 13.766C15.5886 13.573 15.6346 13.384 15.6836 13.231L15.6976 13.17C16.0637 11.8638 16.7305 10.6614 17.6446 9.65901C17.8216 9.46301 17.9386 9.30701 17.9046 9.32201ZM18.3426 10.889L18.3486 10.882L18.3546 10.873L18.3426 10.889ZM15.3966 16.73L14.9756 18.206C14.8306 18.7183 14.6823 19.2297 14.5306 19.74L14.5316 19.739C14.5156 19.779 14.5326 19.789 14.5906 19.773C14.6356 19.759 14.9876 19.658 15.3776 19.549C15.7646 19.438 16.0896 19.343 16.0976 19.337C16.0457 19.1526 15.9853 18.9708 15.9166 18.792C15.7123 18.2257 15.5571 17.6429 15.4526 17.05L15.3966 16.73ZM11.5686 19.202C12.7566 19.542 13.7676 19.824 13.8176 19.827C13.8976 19.831 13.9646 19.627 14.5416 17.607C14.8906 16.385 15.1696 15.377 15.1606 15.368C15.1136 15.327 10.7076 14.093 10.6856 14.116C10.6616 14.143 9.38258 18.564 9.39958 18.576C9.40258 18.579 10.3796 18.859 11.5686 19.202ZM17.4386 29.079C18.2266 28.856 18.8846 28.659 18.9046 28.643C18.9436 28.604 20.1756 24.308 20.1526 24.283C20.1436 24.273 20.0536 24.289 19.9506 24.317L19.7686 24.368L19.7576 24.675C19.7526 24.845 19.7256 25.079 19.6996 25.197C19.6326 25.48 19.3986 25.994 19.2266 26.212C19.1516 26.313 18.3976 27.088 17.5506 27.94L17.5516 27.942L16.0126 29.484L17.4386 29.079Z" fill="#95CA6E"/>
</g>
<defs>
<clipPath id="clip0_6275_19631">
<rect width="24" height="24" fill="white" transform="translate(8 8)"/>
</clipPath>
</defs>
</svg>
