<svg width="40" height="40" viewBox="0 0 40 40" fill="none" xmlns="http://www.w3.org/2000/svg">
<rect width="40" height="40" rx="8" fill="white"/>
<g clip-path="url(#clip0_6275_19627)">
<path d="M20 8C13.3728 8 8 13.3728 8 20C8 23.3141 9.34344 26.3141 11.5147 28.4853L9.22906 30.7709C8.77531 31.2247 9.09688 32 9.73813 32H20C26.6272 32 32 26.6272 32 20C32 13.3728 26.6272 8 20 8Z" fill="#FF4500"/>
<path d="M22.4414 13.6587C22.6495 14.5409 23.4417 15.1981 24.3877 15.1981C25.492 15.1981 26.3873 14.3028 26.3873 13.1984C26.3873 12.094 25.492 11.1987 24.3877 11.1987C23.422 11.1987 22.6167 11.8831 22.4292 12.7934C20.812 12.9669 19.5492 14.3384 19.5492 16.0006C19.5492 16.0044 19.5492 16.0072 19.5492 16.0109C17.7905 16.085 16.1845 16.5856 14.9095 17.3759C14.4361 17.0094 13.8417 16.7909 13.1967 16.7909C11.6489 16.7909 10.3945 18.0453 10.3945 19.5931C10.3945 20.7162 11.0545 21.6837 12.008 22.1309C12.1008 25.384 15.6455 28.0006 20.0058 28.0006C24.3661 28.0006 27.9155 25.3812 28.0036 22.1253C28.9495 21.6753 29.6039 20.7106 29.6039 19.594C29.6039 18.0462 28.3495 16.7919 26.8017 16.7919C26.1595 16.7919 25.568 17.0084 25.0955 17.3722C23.8092 16.5762 22.1855 16.0756 20.4089 16.009C20.4089 16.0062 20.4089 16.0044 20.4089 16.0015C20.4089 14.8109 21.2939 13.8228 22.4414 13.6606V13.6587ZM14.797 21.3715C14.8439 20.3553 15.5189 19.5753 16.3036 19.5753C17.0883 19.5753 17.6883 20.3994 17.6414 21.4156C17.5945 22.4319 17.0086 22.8012 16.223 22.8012C15.4373 22.8012 14.7502 22.3878 14.797 21.3715ZM23.7089 19.5753C24.4945 19.5753 25.1695 20.3553 25.2155 21.3715C25.2623 22.3878 24.5742 22.8012 23.7895 22.8012C23.0048 22.8012 22.418 22.4328 22.3711 21.4156C22.3242 20.3994 22.9233 19.5753 23.7089 19.5753ZM22.7752 23.7228C22.9223 23.7378 23.0161 23.8906 22.9589 24.0275C22.4761 25.1815 21.3361 25.9925 20.0058 25.9925C18.6755 25.9925 17.5364 25.1815 17.0527 24.0275C16.9955 23.8906 17.0892 23.7378 17.2364 23.7228C18.0989 23.6356 19.0317 23.5878 20.0058 23.5878C20.9798 23.5878 21.9117 23.6356 22.7752 23.7228Z" fill="white"/>
</g>
<defs>
<clipPath id="clip0_6275_19627">
<rect width="24" height="24" fill="white" transform="translate(8 8)"/>
</clipPath>
</defs>
</svg>
