<svg width="20" height="20" viewBox="0 0 20 20" fill="none" xmlns="http://www.w3.org/2000/svg">
<g clip-path="url(#clip0_10696_21747)">
<path d="M10 0.668213C5.02961 0.668213 1 4.69782 1 9.66821C1 12.1538 2.00758 14.4038 3.63602 16.0322L1.9218 17.7464C1.58148 18.0867 1.82266 18.6682 2.30359 18.6682H10C14.9704 18.6682 19 14.6386 19 9.66821C19 4.69782 14.9704 0.668213 10 0.668213Z" fill="#FF4500"/>
<path d="M11.8309 4.91226C11.987 5.5739 12.5812 6.06679 13.2906 6.06679C14.1189 6.06679 14.7904 5.39531 14.7904 4.56703C14.7904 3.73875 14.1189 3.06726 13.2906 3.06726C12.5664 3.06726 11.9624 3.58054 11.8218 4.26328C10.6089 4.39335 9.66179 5.42203 9.66179 6.66867C9.66179 6.67148 9.66179 6.67359 9.66179 6.6764C8.34273 6.73195 7.13828 7.10742 6.18203 7.70015C5.82695 7.42523 5.38117 7.2614 4.89742 7.2614C3.73656 7.2614 2.79578 8.20218 2.79578 9.36304C2.79578 10.2054 3.29078 10.931 4.00585 11.2664C4.07546 13.7062 6.73398 15.6687 10.0042 15.6687C13.2744 15.6687 15.9365 13.7041 16.0026 11.2622C16.712 10.9247 17.2028 10.2012 17.2028 9.36375C17.2028 8.20289 16.262 7.2621 15.1012 7.2621C14.6195 7.2621 14.1759 7.42453 13.8215 7.69734C12.8568 7.10039 11.639 6.72492 10.3066 6.675C10.3066 6.67289 10.3066 6.67148 10.3066 6.66937C10.3066 5.7764 10.9703 5.03531 11.8309 4.91367V4.91226ZM6.09765 10.6969C6.13281 9.93468 6.63906 9.34968 7.22757 9.34968C7.81609 9.34968 8.26609 9.96773 8.23093 10.7299C8.19578 11.4921 7.75632 11.7691 7.1671 11.7691C6.57789 11.7691 6.06249 11.4591 6.09765 10.6969ZM12.7816 9.34968C13.3708 9.34968 13.877 9.93468 13.9115 10.6969C13.9466 11.4591 13.4305 11.7691 12.842 11.7691C12.2535 11.7691 11.8134 11.4928 11.7782 10.7299C11.743 9.96773 12.1923 9.34968 12.7816 9.34968ZM12.0812 12.4603C12.1916 12.4716 12.2619 12.5862 12.2191 12.6888C11.8569 13.5544 11.0019 14.1626 10.0042 14.1626C9.00648 14.1626 8.15218 13.5544 7.78937 12.6888C7.74648 12.5862 7.81679 12.4716 7.92718 12.4603C8.57406 12.3949 9.27367 12.3591 10.0042 12.3591C10.7348 12.3591 11.4337 12.3949 12.0812 12.4603Z" fill="white"/>
</g>
<defs>
<clipPath id="clip0_10696_21747">
<rect width="18" height="18" fill="white" transform="translate(1 0.668213)"/>
</clipPath>
</defs>
</svg>
