<svg width="20" height="20" viewBox="0 0 20 20" fill="none" xmlns="http://www.w3.org/2000/svg">
<path d="M10.0003 1.62061C5.36034 1.62061 1.60034 5.38191 1.60034 10.0202C1.60034 14.6584 5.36078 18.4197 10.0003 18.4197C14.6399 18.4197 18.4012 14.6589 18.4012 10.0202C18.4012 5.38148 14.6408 1.62061 10.0003 1.62061Z" fill="white"/>
<path d="M10 1C5.02957 1 1 5.02957 1 10C1 14.9704 5.02957 19 10 19C14.9704 19 19 14.9704 19 10C19 5.02957 14.9726 1 10 1ZM9.21739 15.3557L5.33826 13.1161V8.59739L9.21739 10.6957V15.3557ZM9.9087 9.63L5.31739 7.19522L9.9087 4.54304L14.5004 7.19522L9.9087 9.63ZM14.5043 13.1243L10.6387 15.3565V10.7113L14.5043 8.62435V13.1243Z" fill="#1CAAD9"/>
</svg>