<svg width="40" height="40" viewBox="0 0 40 40" fill="none" xmlns="http://www.w3.org/2000/svg">
<rect width="40" height="40" rx="8" fill="white"/>
<path d="M19.9995 7.89648C13.2973 7.89648 7.86621 13.3295 7.86621 20.0292C7.86621 26.7289 13.298 32.1619 19.9995 32.1619C26.7011 32.1619 32.1341 26.7295 32.1341 20.0292C32.1341 13.3289 26.7024 7.89648 19.9995 7.89648Z" fill="white"/>
<path d="M20 7C12.8205 7 7 12.8205 7 20C7 27.1795 12.8205 33 20 33C27.1795 33 33 27.1795 33 20C33 12.8205 27.1827 7 20 7ZM18.8696 27.7359L13.2664 24.501V17.974L18.8696 21.0048V27.7359ZM19.8681 19.4656L13.2362 15.9486L19.8681 12.1177L26.5006 15.9486L19.8681 19.4656ZM26.5063 24.5129L20.9226 27.7372V21.0274L26.5063 18.0129V24.5129Z" fill="#1CAAD9"/>
</svg>
