<svg width="40" height="40" viewBox="0 0 40 40" fill="none" xmlns="http://www.w3.org/2000/svg">
<path d="M34.9982 22.674C34.9361 24.8475 33.0514 26.5087 30.8904 26.5087H21.0072C20.554 26.5053 20.1889 26.136 20.1906 25.6828V15.0482C20.1717 14.6708 20.3897 14.3215 20.7371 14.1726C20.7371 14.1726 21.6437 13.5516 23.5564 13.5516C24.7312 13.5474 25.8851 13.863 26.8943 14.4645C28.4838 15.3947 29.6102 16.9492 29.9992 18.7494C30.3402 18.6505 30.6937 18.6014 31.0487 18.6034C32.1172 18.6038 33.1401 19.0368 33.8842 19.8036C34.6282 20.5705 35.0301 21.606 34.9982 22.674ZM18.9548 15.7251C19.2529 19.33 19.4703 22.6182 18.9548 26.2168C18.9548 26.3935 18.8116 26.5366 18.635 26.5366C18.4584 26.5366 18.3152 26.3935 18.3152 26.2168C17.837 22.6523 18.0482 19.2989 18.3152 15.7251C18.3152 15.5485 18.4584 15.4053 18.635 15.4053C18.8116 15.4053 18.9548 15.5485 18.9548 15.7251ZM16.9614 16.9671C17.3061 20.1839 17.4086 23.0001 16.9552 26.2293C16.9325 26.3953 16.7906 26.5191 16.623 26.5191C16.4554 26.5191 16.3135 26.3953 16.2908 26.2293C15.8902 23.0467 15.9803 20.1559 16.2908 16.9671C16.2908 16.7819 16.4409 16.6318 16.6261 16.6318C16.8113 16.6318 16.9614 16.7819 16.9614 16.9671ZM14.9525 16.6566C15.2785 19.9541 15.4245 22.9131 14.9525 26.2199C14.9525 26.3974 14.8086 26.5413 14.6312 26.5413C14.4537 26.5413 14.3098 26.3974 14.3098 26.2199C13.8502 22.9659 13.9993 19.9168 14.3098 16.6566C14.3098 16.4791 14.4537 16.3352 14.6312 16.3352C14.8086 16.3352 14.9525 16.4791 14.9525 16.6566ZM12.9622 17.5881C13.355 20.4574 13.3519 23.367 12.9529 26.2355C12.9365 26.4041 12.7947 26.5327 12.6253 26.5327C12.4559 26.5327 12.3142 26.4041 12.2978 26.2355C11.9283 23.3648 11.9283 20.4587 12.2978 17.5881C12.2978 17.4046 12.4465 17.2559 12.63 17.2559C12.8135 17.2559 12.9622 17.4046 12.9622 17.5881ZM10.944 19.7274C11.4532 21.9847 11.2203 23.9626 10.9098 26.2479C10.9098 26.4194 10.7708 26.5584 10.5993 26.5584C10.4279 26.5584 10.2888 26.4194 10.2888 26.2479C10.0342 23.9999 9.80758 21.9537 10.2888 19.7274C10.3053 19.5588 10.447 19.4302 10.6164 19.4302C10.7858 19.4302 10.9276 19.5588 10.944 19.7274ZM8.94439 19.3983C9.41324 21.6929 9.258 23.6428 8.93198 25.9467C8.90093 26.2851 8.31098 26.2882 8.27993 25.9467C7.98496 23.6739 7.86076 21.6618 8.26751 19.3983C8.2905 19.229 8.43507 19.1027 8.60595 19.1027C8.77682 19.1027 8.9214 19.229 8.94439 19.3983ZM6.92926 20.5006C7.41364 22.0344 7.23976 23.2733 6.89822 24.8227C6.89822 24.9942 6.7592 25.1332 6.58772 25.1332C6.41623 25.1332 6.27722 24.9942 6.27722 24.8227C5.98535 23.295 5.84873 22.0251 6.24927 20.5006C6.26604 20.3253 6.41324 20.1916 6.58927 20.1916C6.7653 20.1916 6.9125 20.3253 6.92926 20.5006Z" fill="#FF5500"/>
</svg>
