<svg width="40" height="40" viewBox="0 0 40 40" fill="none" xmlns="http://www.w3.org/2000/svg">
<rect width="40" height="40" rx="8" fill="white"/>
<path d="M34.9982 22.6738C34.9361 24.8473 33.0514 26.5085 30.8904 26.5085H21.0072C20.554 26.505 20.1889 26.1357 20.1906 25.6825V15.048C20.1717 14.6706 20.3897 14.3213 20.7371 14.1724C20.7371 14.1724 21.6437 13.5513 23.5564 13.5513C24.7312 13.5472 25.8851 13.8627 26.8943 14.4642C28.4838 15.3945 29.6102 16.9489 29.9992 18.7491C30.3402 18.6503 30.6937 18.6012 31.0487 18.6032C32.1172 18.6036 33.1401 19.0365 33.8842 19.8034C34.6282 20.5703 35.0301 21.6057 34.9982 22.6738ZM18.9548 15.7249C19.2529 19.3297 19.4703 22.6179 18.9548 26.2166C18.9548 26.3932 18.8116 26.5364 18.635 26.5364C18.4584 26.5364 18.3152 26.3932 18.3152 26.2166C17.837 22.6521 18.0482 19.2987 18.3152 15.7249C18.3152 15.5482 18.4584 15.4051 18.635 15.4051C18.8116 15.4051 18.9548 15.5482 18.9548 15.7249ZM16.9614 16.9669C17.3061 20.1836 17.4086 22.9998 16.9552 26.229C16.9325 26.3951 16.7906 26.5188 16.623 26.5188C16.4554 26.5188 16.3135 26.3951 16.2908 26.229C15.8902 23.0464 15.9803 20.1557 16.2908 16.9669C16.2908 16.7817 16.4409 16.6315 16.6261 16.6315C16.8113 16.6315 16.9614 16.7817 16.9614 16.9669ZM14.9525 16.6564C15.2785 19.9539 15.4245 22.9129 14.9525 26.2197C14.9525 26.3972 14.8086 26.541 14.6312 26.541C14.4537 26.541 14.3098 26.3972 14.3098 26.2197C13.8502 22.9657 13.9993 19.9166 14.3098 16.6564C14.3098 16.4789 14.4537 16.335 14.6312 16.335C14.8086 16.335 14.9525 16.4789 14.9525 16.6564ZM12.9622 17.5879C13.355 20.4571 13.3519 23.3668 12.9529 26.2352C12.9365 26.4038 12.7947 26.5324 12.6253 26.5324C12.4559 26.5324 12.3142 26.4038 12.2978 26.2352C11.9283 23.3646 11.9283 20.4585 12.2978 17.5879C12.2978 17.4044 12.4465 17.2556 12.63 17.2556C12.8135 17.2556 12.9622 17.4044 12.9622 17.5879ZM10.944 19.7272C11.4532 21.9845 11.2203 23.9624 10.9098 26.2476C10.9098 26.4191 10.7708 26.5581 10.5993 26.5581C10.4279 26.5581 10.2888 26.4191 10.2888 26.2476C10.0342 23.9996 9.80758 21.9535 10.2888 19.7272C10.3053 19.5586 10.447 19.43 10.6164 19.43C10.7858 19.43 10.9276 19.5586 10.944 19.7272ZM8.94439 19.3981C9.41324 21.6926 9.258 23.6426 8.93198 25.9465C8.90093 26.2849 8.31098 26.288 8.27993 25.9465C7.98496 23.6736 7.86076 21.6616 8.26751 19.3981C8.2905 19.2287 8.43507 19.1025 8.60595 19.1025C8.77682 19.1025 8.9214 19.2287 8.94439 19.3981ZM6.92926 20.5003C7.41364 22.0342 7.23976 23.2731 6.89822 24.8225C6.89822 24.9939 6.7592 25.133 6.58772 25.133C6.41623 25.133 6.27722 24.9939 6.27722 24.8225C5.98535 23.2948 5.84873 22.0249 6.24927 20.5003C6.26604 20.3251 6.41324 20.1913 6.58927 20.1913C6.7653 20.1913 6.9125 20.3251 6.92926 20.5003Z" fill="#FF5500"/>
</svg>
