<svg width="20" height="20" viewBox="0 0 20 20" fill="none" xmlns="http://www.w3.org/2000/svg">
<path d="M11.3786 6.38228C12.2234 6.34876 13.0003 6.5321 13.7161 6.9844C14.5687 7.52303 15.1709 8.37996 15.3887 9.3647C15.4493 9.35042 15.5103 9.33549 15.5713 9.32285C16.0612 9.22112 16.6444 9.31844 17.0797 9.55635C17.6111 9.84512 18.0053 10.3342 18.1745 10.9149C18.3525 11.5367 18.2684 12.1334 17.9493 12.6942C17.6685 13.1877 17.1486 13.5956 16.6037 13.7481C16.1262 13.881 15.568 13.8412 15.0704 13.8412H13.0293L11.0725 13.8406L10.5022 13.842C10.3849 13.8427 10.2612 13.8468 10.1453 13.8388C9.93046 13.8238 9.74997 13.6241 9.73762 13.4131C9.7297 13.2776 9.73199 13.1459 9.73231 13.011L9.73305 12.3638L9.73292 10.2612L9.73231 8.2197L9.7322 7.57794C9.73228 7.24419 9.68113 6.96145 10.0247 6.77118C10.4593 6.53046 10.883 6.42019 11.3786 6.38228Z" fill="black"/>
<path d="M8.7814 7.45184C8.80603 7.44953 8.8329 7.44848 8.85744 7.45191C8.90167 7.45809 8.94631 7.48144 8.97232 7.51834C9.0446 7.62089 9.06159 8.16818 9.07438 8.33148C9.19097 9.82185 9.26086 11.3089 9.12163 12.8007C9.10348 12.9854 9.0833 13.1699 9.06111 13.3543C9.04915 13.4574 9.03835 13.5749 9.01959 13.6759C9.00149 13.7733 8.97212 13.8111 8.89274 13.8623C8.61234 13.9009 8.63824 13.6828 8.61499 13.4781C8.60031 13.3488 8.59215 13.2166 8.58101 13.0868C8.43578 11.4077 8.44166 9.71904 8.59858 8.04105C8.61236 7.8951 8.6155 7.70612 8.65218 7.56777C8.66961 7.50202 8.72377 7.47762 8.7814 7.45184Z" fill="black"/>
<path d="M6.50882 7.98013C6.58137 7.97695 6.69797 8.02516 6.71086 8.10356C6.74636 8.31949 6.76756 8.54266 6.78935 8.7609C6.93691 10.2432 6.9328 11.7366 6.77707 13.2181C6.76496 13.3377 6.754 13.4584 6.73875 13.5776C6.71981 13.7258 6.7273 13.8202 6.56769 13.8697C6.49241 13.8773 6.46848 13.86 6.40292 13.8254C6.39374 13.8115 6.36336 13.765 6.36053 13.7519C6.31939 13.5623 6.30433 13.3109 6.28615 13.1197C6.13919 11.6105 6.14421 10.0901 6.30115 8.5819C6.3161 8.4357 6.32398 8.20967 6.37159 8.075C6.3893 8.02489 6.46176 7.99761 6.50882 7.98013Z" fill="black"/>
<path d="M7.66562 8.21435C7.91963 8.18545 7.90939 8.41965 7.92804 8.59956C7.93561 8.67261 7.94431 8.7463 7.95208 8.81933C8.10446 10.2451 8.1084 11.6828 7.96386 13.1094C7.94521 13.2952 7.92949 13.5493 7.88264 13.7301C7.86983 13.7795 7.80383 13.8178 7.75886 13.8387C7.47486 13.8467 7.51935 13.6402 7.48971 13.4257C7.47581 13.3251 7.47051 13.2176 7.46115 13.116C7.32565 11.6703 7.33069 10.2149 7.47619 8.77019C7.48901 8.63766 7.49381 8.44432 7.53282 8.32205C7.552 8.2619 7.61032 8.23561 7.66562 8.21435Z" fill="black"/>
<path d="M5.34333 8.56562C5.43294 8.56153 5.45486 8.57559 5.53112 8.61823C5.60942 8.75752 5.6224 9.06559 5.63995 9.23058C5.77434 10.4711 5.78158 11.722 5.66158 12.964C5.64677 13.1107 5.63088 13.2574 5.61391 13.4039C5.59564 13.5724 5.61445 13.7419 5.45666 13.8353C5.29328 13.8735 5.20802 13.7893 5.18863 13.6322C5.17141 13.4927 5.1592 13.353 5.14464 13.2133C5.01622 12.0027 5.00358 10.7828 5.10689 9.56987C5.12475 9.35537 5.16529 8.86193 5.20932 8.66632C5.25863 8.60828 5.27336 8.59635 5.34333 8.56562Z" fill="black"/>
<path d="M3.0312 9.60959C3.11478 9.60686 3.21686 9.62987 3.24782 9.71396C3.29085 9.83081 3.30722 10.0019 3.32491 10.1267C3.46501 11.0941 3.46897 12.0764 3.33668 13.0449C3.31614 13.1958 3.29746 13.383 3.25717 13.5295C3.23844 13.5977 3.20462 13.6285 3.14398 13.658C3.05091 13.6831 2.93857 13.6639 2.90375 13.562C2.85576 13.4212 2.84397 13.2536 2.82409 13.1044C2.6909 12.0944 2.69527 11.0708 2.83708 10.062C2.85234 9.95796 2.85743 9.82827 2.89037 9.73049C2.91483 9.65793 2.96699 9.63723 3.0312 9.60959Z" fill="black"/>
<path d="M4.18999 9.79569C4.40265 9.77792 4.41718 9.95175 4.44963 10.1108C4.67897 11.2357 4.57116 12.3816 4.43834 13.5105C4.41821 13.6817 4.44718 13.7972 4.27709 13.8831C4.19011 13.8942 4.08329 13.8685 4.05475 13.7743C4.0144 13.6326 4.01155 13.4802 3.99493 13.3327C3.8753 12.2698 3.79988 11.1893 3.99724 10.1303C4.02684 9.97137 4.02019 9.85204 4.18999 9.79569Z" fill="black"/>
<path d="M1.84626 10.2656C2.11995 10.2367 2.12966 10.4756 2.17676 10.6918C2.31242 11.3116 2.31316 11.9533 2.17893 12.5734C2.154 12.6892 2.11437 12.896 2.05774 13.0008C2.04881 13.0173 2.01035 13.0423 1.99322 13.0535C1.90223 13.0874 1.86313 13.0673 1.78083 13.0278C1.77252 13.0166 1.76472 13.0051 1.75744 12.9933C1.72072 12.9343 1.68734 12.7367 1.67194 12.6586C1.52968 11.9385 1.54074 11.1838 1.70144 10.4678C1.7259 10.3588 1.75641 10.3178 1.84626 10.2656Z" fill="black"/>
</svg>