<svg width="40" height="40" viewBox="0 0 40 40" fill="none" xmlns="http://www.w3.org/2000/svg">
<rect width="40" height="40" rx="8" fill="white"/>
<g clip-path="url(#clip0_7428_9254)">
<path d="M20 8C13.3758 8 8 13.3758 8 20C8 26.6242 13.3758 32 20 32C26.6242 32 32 26.6242 32 20C32 13.3758 26.6242 8 20 8Z" fill="#1ED760"/>
<path d="M27.6748 18.8326C27.4232 18.8326 27.2683 18.7717 27.0506 18.6498C23.6054 16.6576 17.4457 16.1795 13.4586 17.2576C13.2845 17.3045 13.0667 17.3795 12.8345 17.3795C12.1957 17.3795 11.707 16.8967 11.707 16.2732C11.707 15.6357 12.1135 15.2748 12.549 15.1529C14.2522 14.6701 16.1586 14.4404 18.2345 14.4404C21.7667 14.4404 25.4683 15.1529 28.1732 16.6811C28.5506 16.892 28.7974 17.1826 28.7974 17.7404C28.7974 18.3779 28.2651 18.8326 27.6748 18.8326ZM26.1748 22.4045C25.9232 22.4045 25.7538 22.2967 25.5796 22.2076C22.5554 20.4732 18.0457 19.7748 14.0345 20.8295C13.8022 20.8904 13.6764 20.9514 13.4586 20.9514C12.9409 20.9514 12.5199 20.5436 12.5199 20.042C12.5199 19.5404 12.7715 19.2076 13.2699 19.0717C14.6151 18.7061 15.9893 18.4342 18.0022 18.4342C21.1425 18.4342 24.1764 19.1889 26.5667 20.567C26.9586 20.792 27.1135 21.0826 27.1135 21.4904C27.1086 21.9967 26.7022 22.4045 26.1748 22.4045ZM24.8732 25.4795C24.6699 25.4795 24.5441 25.4186 24.3554 25.3107C21.3361 23.5482 17.8232 23.4732 14.3538 24.1623C14.1651 24.2092 13.9183 24.2842 13.778 24.2842C13.3086 24.2842 13.0135 23.9232 13.0135 23.5436C13.0135 23.0607 13.3086 22.8311 13.6715 22.7561C17.6345 21.9076 21.6845 21.9826 25.1393 23.9842C25.4345 24.167 25.6086 24.3311 25.6086 24.7576C25.6086 25.1842 25.2651 25.4795 24.8732 25.4795Z" fill="black"/>
</g>
<defs>
<clipPath id="clip0_7428_9254">
<rect width="24" height="24" fill="white" transform="translate(8 8)"/>
</clipPath>
</defs>
</svg>
