<svg width="40" height="40" viewBox="0 0 40 40" fill="none" xmlns="http://www.w3.org/2000/svg">
<rect width="40" height="40" rx="8" fill="white"/>
<path fill-rule="evenodd" clip-rule="evenodd" d="M8.72142 18.7529C15.1191 15.9655 19.3853 14.1279 21.5198 13.24C27.6145 10.705 28.8809 10.2647 29.7063 10.2502C29.8878 10.247 30.2938 10.2919 30.5567 10.5053C30.7787 10.6855 30.8398 10.9288 30.869 11.0996C30.8983 11.2704 30.9347 11.6595 30.9057 11.9636C30.5755 15.4338 29.1464 23.8551 28.4194 27.7417C28.1117 29.3863 27.506 29.9378 26.9196 29.9917C25.6451 30.109 24.6774 29.1495 23.443 28.3403C21.5115 27.0742 20.4203 26.286 18.5454 25.0505C16.3786 23.6226 17.7833 22.8378 19.0181 21.5553C19.3412 21.2196 24.9565 16.1121 25.0652 15.6488C25.0787 15.5908 25.0914 15.3748 24.963 15.2608C24.8347 15.1467 24.6453 15.1857 24.5087 15.2167C24.3149 15.2607 21.2293 17.3002 15.2517 21.3353C14.3759 21.9367 13.5826 22.2297 12.8718 22.2144C12.0882 22.1974 10.5809 21.7713 9.46035 21.4071C8.08599 20.9603 6.99367 20.7241 7.08878 19.9654C7.13832 19.5702 7.68254 19.166 8.72142 18.7529Z" fill="url(#paint0_linear_6275_19602)"/>
<defs>
<linearGradient id="paint0_linear_6275_19602" x1="1198.75" y1="10.25" x2="1198.75" y2="1970.75" gradientUnits="userSpaceOnUse">
<stop stop-color="#2AABEE"/>
<stop offset="1" stop-color="#229ED9"/>
</linearGradient>
</defs>
</svg>
