<svg width="20" height="20" viewBox="0 0 20 20" fill="none" xmlns="http://www.w3.org/2000/svg">
<path fill-rule="evenodd" clip-rule="evenodd" d="M2.88429 9.13663C7.31346 7.20689 10.2669 5.93469 11.7447 5.32003C15.9641 3.56503 16.8408 3.26017 17.4123 3.25011C17.538 3.24789 17.819 3.27904 18.001 3.42675C18.1547 3.55148 18.197 3.71996 18.2173 3.83821C18.2375 3.95646 18.2627 4.22584 18.2427 4.43633C18.014 6.83878 17.0247 12.6689 16.5213 15.3597C16.3083 16.4982 15.889 16.88 15.483 16.9174C14.6007 16.9985 13.9307 16.3343 13.0762 15.7741C11.7389 14.8975 10.9835 14.3519 9.6855 13.4965C8.18544 12.508 9.15787 11.9646 10.0127 11.0767C10.2365 10.8444 14.1239 7.30838 14.1992 6.98761C14.2086 6.94749 14.2173 6.79795 14.1285 6.71899C14.0396 6.64003 13.9085 6.66703 13.8139 6.6885C13.6798 6.71894 11.5436 8.13092 7.40526 10.9244C6.7989 11.3408 6.24968 11.5437 5.7576 11.533C5.21512 11.5213 4.1716 11.2263 3.39586 10.9741C2.44437 10.6648 1.68815 10.5013 1.754 9.97604C1.7883 9.70245 2.16506 9.42264 2.88429 9.13663Z" fill="url(#paint0_linear_10811_1094)"/>
<defs>
<linearGradient id="paint0_linear_10811_1094" x1="826.75" y1="3.25" x2="826.75" y2="1360.52" gradientUnits="userSpaceOnUse">
<stop stop-color="#2AABEE"/>
<stop offset="1" stop-color="#229ED9"/>
</linearGradient>
</defs>
</svg>