<svg width="40" height="40" viewBox="0 0 40 40" fill="none" xmlns="http://www.w3.org/2000/svg">
<path fill-rule="evenodd" clip-rule="evenodd" d="M8.39821 16.0205C8.39821 16.0205 10.8136 13.1391 11.9151 16.0205C11.9151 16.0205 14.5421 24.7065 15.6863 28.393C16.8301 32.0792 20.559 30.5963 20.559 30.5963C20.559 30.5963 25.008 29.2401 30.3468 20.3422C35.6856 11.4442 31.3165 9.03805 31.3165 9.03805C31.3165 9.03805 27.5077 6.35974 23.6521 10.9358C23.6521 10.9358 22.3951 12.3568 21.7551 14.5718C21.7551 14.5718 25.102 12.7015 25.5203 15.4331C25.9386 18.1647 22.2719 22.1758 22.2719 22.1758C22.2719 22.1758 20.7455 24.3413 20.0076 20.8223C20.0076 20.8223 18.4085 12.9229 18.2854 12.037C18.2854 12.037 17.4685 6.76133 12.6943 9.61602C12.6943 9.61602 9.83997 11.5529 7 14.4526L8.39821 16.0205Z" fill="#1AB7EA"/>
</svg>
