<svg width="40" height="40" viewBox="0 0 40 40" fill="none" xmlns="http://www.w3.org/2000/svg">
<rect width="40" height="40" rx="8" fill="white"/>
<path fill-rule="evenodd" clip-rule="evenodd" d="M8.39821 16.0207C8.39821 16.0207 10.8136 13.1393 11.9151 16.0207C11.9151 16.0207 14.5421 24.7067 15.6863 28.3932C16.8301 32.0793 20.559 30.5965 20.559 30.5965C20.559 30.5965 25.008 29.2403 30.3468 20.3423C35.6856 11.4444 31.3165 9.03824 31.3165 9.03824C31.3165 9.03824 27.5077 6.35992 23.6521 10.9359C23.6521 10.9359 22.3951 12.357 21.7551 14.572C21.7551 14.572 25.102 12.7017 25.5203 15.4333C25.9386 18.1648 22.2719 22.176 22.2719 22.176C22.2719 22.176 20.7455 24.3415 20.0076 20.8225C20.0076 20.8225 18.4085 12.923 18.2854 12.0372C18.2854 12.0372 17.4685 6.76152 12.6943 9.6162C12.6943 9.6162 9.83997 11.5531 7 14.4528L8.39821 16.0207Z" fill="#1AB7EA"/>
</svg>
