<svg width="20" height="20" viewBox="0 0 20 20" fill="none" xmlns="http://www.w3.org/2000/svg">
<path fill-rule="evenodd" clip-rule="evenodd" d="M1.96799 7.53905C1.96799 7.53905 3.64015 5.54423 4.40274 7.53905C4.40274 7.53905 6.22147 13.5524 7.01357 16.1046C7.80547 18.6566 10.387 17.63 10.387 17.63C10.387 17.63 13.4671 16.6911 17.1632 10.531C20.8592 4.37083 17.8345 2.70505 17.8345 2.70505C17.8345 2.70505 15.1976 0.850833 12.5284 4.01885C12.5284 4.01885 11.6581 5.00264 11.2151 6.53613C11.2151 6.53613 13.5321 5.24131 13.8217 7.13239C14.1114 9.02347 11.5729 11.8004 11.5729 11.8004C11.5729 11.8004 10.5161 13.2996 10.0053 10.8634C10.0053 10.8634 8.89821 5.39454 8.81297 4.78123C8.81297 4.78123 8.24743 1.12886 4.9422 3.10518C4.9422 3.10518 2.96613 4.44609 1 6.45359L1.96799 7.53905Z" fill="#1AB7EA"/>
</svg>