<svg width="20" height="20" viewBox="0 0 20 20" fill="none" xmlns="http://www.w3.org/2000/svg">
<path d="M9.99219 3.52734C10.0374 3.52735 13.7943 3.52851 16.2959 3.70508C16.6454 3.74846 17.4149 3.75196 18.0996 4.4707C18.6404 5.02637 18.8154 6.2666 18.8154 6.2666L18.8174 6.26465C18.9288 7.23702 18.9895 8.21463 19 9.19336V10.5693C18.9923 11.5481 18.9327 12.5257 18.8213 13.498C18.8213 13.498 18.6442 14.7455 18.1035 15.293C17.4188 16.0118 16.6514 16.0163 16.2998 16.0576C13.783 16.2456 10 16.2451 10 16.2451C9.99435 16.2451 5.31942 16.2037 3.88086 16.0654C3.47784 15.989 2.57729 16.0118 1.89258 15.293C1.35597 14.7373 1.17871 13.498 1.17871 13.498C1.06742 12.5263 1.00786 11.5494 1 10.5713V9.19922C1.00777 8.22114 1.06731 7.24415 1.17871 6.27246C1.17871 6.27246 1.3518 5.02495 1.89258 4.47754C2.57706 3.75892 3.34354 3.75428 3.69531 3.71094C6.21416 3.52709 9.99219 3.52734 9.99219 3.52734ZM8.13477 12.2256L12.9961 9.69531L8.13477 7.14453V12.2256Z" fill="#FF0000"/>
</svg>