<svg width="40" height="40" viewBox="0 0 40 40" fill="none" xmlns="http://www.w3.org/2000/svg">
<rect width="40" height="40" rx="8" fill="white"/>
<path fill-rule="evenodd" clip-rule="evenodd" d="M30.7992 12.5522C31.5202 13.293 31.7533 14.9456 31.7533 14.9456L31.756 14.9428C31.9046 16.2396 31.986 17.5432 32 18.8484V20.6827C31.9897 21.9879 31.9101 23.2916 31.7615 24.5883C31.7615 24.5883 31.5257 26.2518 30.8047 26.9817C29.9798 27.8477 29.0654 27.9358 28.5509 27.9853C28.4959 27.9906 28.4455 27.9955 28.4003 28.0008C25.0446 28.2514 20 28.2514 20 28.2514C20 28.2514 13.7601 28.1963 11.841 28.0118C11.7485 27.9943 11.6364 27.9806 11.5095 27.9652C10.8988 27.891 9.94569 27.7752 9.18986 26.9817C8.4743 26.2408 8.23852 24.5883 8.23852 24.5883C8.0901 23.2925 8.01048 21.9897 8 20.6855V18.8566C8.01035 17.5524 8.08997 16.2496 8.23852 14.9539C8.23852 14.9539 8.46881 13.2903 9.18986 12.5604C10.011 11.6984 10.9208 11.6072 11.4366 11.5555C11.4943 11.5497 11.5471 11.5444 11.5942 11.5386C14.9527 11.2935 19.989 11.2935 19.989 11.2935C19.989 11.2935 25.0391 11.2935 28.3948 11.5303C28.442 11.5362 28.4948 11.5415 28.5528 11.5473C29.0672 11.599 29.9786 11.6907 30.7992 12.5522ZM17.5135 16.1162V22.8917L23.9946 19.5177L17.5135 16.1162Z" fill="#FF0000"/>
</svg>
