<svg width="20" height="20" viewBox="0 0 20 20" fill="none" xmlns="http://www.w3.org/2000/svg">
<path d="M10.0048 1.00317C10.6551 1.00317 11.2644 1.12601 11.8328 1.37167C12.406 1.61252 12.9094 1.94971 13.3429 2.38324C13.7765 2.81195 14.1137 3.31292 14.3545 3.88614C14.6002 4.45455 14.723 5.0639 14.723 5.71419C14.723 6.69204 14.4316 7.57837 13.8487 8.37317C13.2707 9.16316 12.4398 9.78696 11.3559 10.2446L13.1479 12.0437C13.249 12.1497 13.2996 12.2677 13.2996 12.3978C13.3044 12.5278 13.2562 12.6434 13.1551 12.7446L11.3126 14.5799L12.6348 15.8877C12.7312 15.9888 12.7794 16.1044 12.7794 16.2345C12.7842 16.3694 12.736 16.4874 12.6348 16.5885L10.3516 18.8718C10.2552 18.9681 10.142 19.0115 10.012 19.0019C9.88193 18.9922 9.77837 18.9489 9.70129 18.8718L8.45129 17.6507C8.37421 17.5736 8.31641 17.4893 8.27787 17.3978C8.24415 17.3111 8.2273 17.2148 8.2273 17.1088V10.1001C7.62517 9.85439 7.10253 9.51239 6.65936 9.07404C6.22102 8.6357 5.88142 8.1275 5.64057 7.54946C5.39972 6.97143 5.2793 6.35967 5.2793 5.71419C5.2793 5.05908 5.39972 4.44732 5.64057 3.87892C5.88624 3.3057 6.22343 2.80473 6.65214 2.37602C7.08567 1.94249 7.58664 1.6053 8.15504 1.36445C8.72826 1.1236 9.34484 1.00317 10.0048 1.00317ZM10.0048 5.27344C10.3371 5.27344 10.6213 5.15542 10.8574 4.91939C11.0934 4.68335 11.2114 4.39915 11.2114 4.06678C11.2114 3.72959 11.0934 3.44539 10.8574 3.21417C10.6213 2.97814 10.3371 2.86012 10.0048 2.86012C9.66276 2.86012 9.37615 2.97814 9.14493 3.21417C8.91372 3.44539 8.79811 3.72959 8.79811 4.06678C8.79811 4.39915 8.91372 4.68335 9.14493 4.91939C9.38096 5.15542 9.66758 5.27344 10.0048 5.27344Z" fill="white" fill-opacity="0.4"/>
</svg>