<svg width="20" height="20" viewBox="0 0 20 20" fill="none" xmlns="http://www.w3.org/2000/svg">
<path fill-rule="evenodd" clip-rule="evenodd" d="M10.705 9.02168C10.9784 9.32611 11.4216 9.32611 11.695 9.02168L13.25 7.29001V15.75H14.75V7.29001L16.305 9.02168C16.5784 9.32611 17.0216 9.32611 17.295 9.02168C17.5683 8.71726 17.5683 8.2237 17.295 7.91928L14 4.25L10.705 7.91928C10.4317 8.2237 10.4317 8.71726 10.705 9.02168ZM9.29497 10.9803C9.02161 10.6758 8.57839 10.6758 8.30503 10.9803L6.75 12.7119L6.75 4.25195L5.25 4.25195L5.25 12.7119L3.69498 10.9803C3.42161 10.6758 2.97839 10.6758 2.70503 10.9803C2.43166 11.2847 2.43166 11.7783 2.70503 12.0827L6 15.752L9.29497 12.0827C9.56834 11.7783 9.56834 11.2847 9.29497 10.9803Z" fill="#B6B6B6"/>
</svg>