<svg width="20" height="20" viewBox="0 0 20 20" fill="none" xmlns="http://www.w3.org/2000/svg">
<path d="M3.40301 15.0001L4.15869 12.6783H7.8327L8.58838 15.0001H10.8952L7.38525 4.81824H4.61111L1.09619 15.0001H3.40301ZM4.70557 10.9979L5.95841 7.14494H6.03795L7.29079 10.9979H4.70557Z" fill="#252525"/>
<path d="M14.1385 15.1442C15.267 15.1442 15.9979 14.652 16.3707 13.9411H16.4304V15.0001H18.4389V9.84949C18.4389 8.02989 16.8977 7.26426 15.1974 7.26426C13.3679 7.26426 12.1648 8.13926 11.8714 9.53131L13.8302 9.6904C13.9744 9.18329 14.4268 8.81043 15.1875 8.81043C15.9084 8.81043 16.321 9.17335 16.321 9.79977V9.8296C16.321 10.3218 15.799 10.3864 14.4716 10.5157C12.9602 10.6549 11.603 11.162 11.603 12.8672C11.603 14.3786 12.6818 15.1442 14.1385 15.1442ZM14.745 13.6826C14.0937 13.6826 13.6264 13.3793 13.6264 12.7976C13.6264 12.2011 14.1186 11.9077 14.8643 11.8033C15.3267 11.7387 16.0824 11.6293 16.3359 11.4603V12.2707C16.3359 13.0711 15.6747 13.6826 14.745 13.6826Z" fill="#252525"/>
</svg>
