<svg width="40" height="40" viewBox="0 0 40 40" fill="none" xmlns="http://www.w3.org/2000/svg">
<path d="M12.0565 25.9375L12.9741 23.1182H17.4354L18.353 25.9375H21.1542L16.8921 13.5739H13.5235L9.25537 25.9375H12.0565ZM13.6382 21.0778L15.1595 16.3991H15.2561L16.7774 21.0778H13.6382Z" fill="#252525"/>
<path d="M24.9581 26.1126C26.3285 26.1126 27.216 25.5149 27.6687 24.6516H27.7412V25.9375H30.1801V19.6832C30.1801 17.4737 28.3086 16.544 26.244 16.544C24.0224 16.544 22.5615 17.6065 22.2053 19.2969L24.5839 19.49C24.7589 18.8743 25.3083 18.4215 26.2319 18.4215C27.1073 18.4215 27.6084 18.8622 27.6084 19.6229V19.6591C27.6084 20.2567 26.9745 20.3352 25.3626 20.4922C23.5274 20.6612 21.8793 21.277 21.8793 23.3476C21.8793 25.1829 23.1893 26.1126 24.9581 26.1126ZM25.6947 24.3377C24.9038 24.3377 24.3363 23.9694 24.3363 23.2631C24.3363 22.5387 24.934 22.1825 25.8395 22.0557C26.401 21.9773 27.3186 21.8444 27.6265 21.6392V22.6232C27.6265 23.5952 26.8236 24.3377 25.6947 24.3377Z" fill="#252525"/>
</svg>
