<svg width="20" height="20" viewBox="0 0 20 20" fill="none" xmlns="http://www.w3.org/2000/svg">
<path d="M5.57866 14.0007L6.4565 11.5291H9.98491L10.8627 14.0007H11.9707L8.76616 5.27344H7.67525L4.4707 14.0007H5.57866ZM6.78888 10.5916L8.18661 6.65412H8.25479L9.65252 10.5916H6.78888Z" fill="#252525"/>
<path d="M14.9999 14.1541C16.1419 14.1541 16.7385 13.5405 16.943 13.1143H16.9942V14.0007H17.9999V9.68821C17.9999 7.60866 16.4146 7.37003 15.5794 7.37003C14.5908 7.37003 13.4658 7.71094 12.9544 8.90412L13.9089 9.24503C14.1305 8.76776 14.6547 8.25639 15.6135 8.25639C16.5382 8.25639 16.9942 8.74645 16.9942 9.58594V9.62003C16.9942 10.1058 16.4999 10.0632 15.3067 10.2166C14.0922 10.3743 12.7669 10.6428 12.7669 12.1428C12.7669 13.4212 13.7555 14.1541 14.9999 14.1541ZM15.1533 13.2507C14.3521 13.2507 13.7726 12.8928 13.7726 12.1939C13.7726 11.4268 14.4714 11.1882 15.2555 11.0859C15.6817 11.0348 16.8237 10.9155 16.9942 10.7109V11.6314C16.9942 12.4496 16.3464 13.2507 15.1533 13.2507Z" fill="#252525"/>
<path d="M0 1H1V19H0V1Z" fill="#252525"/>
</svg>
