<svg width="20" height="20" viewBox="0 0 20 20" fill="none" xmlns="http://www.w3.org/2000/svg">
<path fill-rule="evenodd" clip-rule="evenodd" d="M16.5303 3.46967C16.8232 3.76256 16.8232 4.23744 16.5303 4.53033L4.53033 16.5303C4.23744 16.8232 3.76256 16.8232 3.46967 16.5303C3.17678 16.2374 3.17678 15.7626 3.46967 15.4697L15.4697 3.46967C15.7626 3.17678 16.2374 3.17678 16.5303 3.46967Z" fill="#929082"/>
<path fill-rule="evenodd" clip-rule="evenodd" d="M16.5303 3.46967C16.8232 3.76256 16.8232 4.23744 16.5303 4.53033L4.53033 16.5303C4.23744 16.8232 3.76256 16.8232 3.46967 16.5303C3.17678 16.2374 3.17678 15.7626 3.46967 15.4697L15.4697 3.46967C15.7626 3.17678 16.2374 3.17678 16.5303 3.46967Z" fill="black" fill-opacity="0.2"/>
<path fill-rule="evenodd" clip-rule="evenodd" d="M15.1066 4.89364C13.8243 3.95482 12.1448 3.25001 10 3.25C6.7142 3.25001 4.52021 4.90426 3.17388 6.51986C2.50302 7.32489 2.03559 8.12686 1.73547 8.72709C1.58499 9.02805 1.47541 9.28064 1.40249 9.46079C1.36336 9.55747 1.20947 10 1.20947 10C1.26995 10.1814 1.33069 10.3618 1.40249 10.5392C1.47541 10.7194 1.58499 10.972 1.73547 11.2729C2.03559 11.8731 2.50302 12.6751 3.17388 13.4801C3.64148 14.0413 4.21134 14.6071 4.89368 15.1066L5.96921 14.0311C5.31445 13.5833 4.77169 13.0544 4.32621 12.5199C3.74707 11.8249 3.3395 11.1269 3.07711 10.6021C2.95313 10.3541 2.86261 10.1469 2.8025 10C2.86261 9.85305 2.95313 9.64588 3.07711 9.39791C3.3395 8.87314 3.74707 8.17511 4.32621 7.48014C5.47986 6.09575 7.28585 4.75001 10 4.75C11.6662 4.75001 12.9902 5.2572 14.0311 5.96916L15.1066 4.89364ZM15.3562 7.11893L16.4173 6.05779C16.5615 6.21118 16.6977 6.3657 16.8261 6.51986C17.497 7.32489 17.9644 8.12686 18.2645 8.72709C18.415 9.02805 18.5246 9.28064 18.5975 9.46079C18.6366 9.55747 18.7905 10 18.7905 10C18.73 10.1814 18.6693 10.3618 18.5975 10.5392C18.5246 10.7194 18.415 10.972 18.2645 11.2729C17.9644 11.8731 17.497 12.6751 16.8261 13.4801C15.4798 15.0957 13.2858 16.75 10 16.75C8.63734 16.75 7.46245 16.4655 6.45793 16.0172L7.61336 14.8618C8.31722 15.1052 9.10976 15.25 10 15.25C12.7142 15.25 14.5201 13.9042 15.6738 12.5199C16.2529 11.8249 16.6605 11.1269 16.9229 10.6021C17.0469 10.3541 17.1374 10.1469 17.1975 10C17.1374 9.85305 17.0469 9.64588 16.9229 9.39791C16.6605 8.87314 16.2529 8.17511 15.6738 7.48014C15.573 7.35915 15.4672 7.23846 15.3562 7.11893ZM12.8286 7.1717C12.1047 6.44777 11.1046 6 10 6C7.79086 6 6 7.79086 6 10C6 11.1046 6.44777 12.1047 7.1717 12.8286L8.23236 11.7679C7.77988 11.3155 7.5 10.6904 7.5 10C7.5 8.61929 8.61929 7.5 10 7.5C10.6904 7.5 11.3155 7.77988 11.7679 8.23236L12.8286 7.1717ZM12.4999 9.97526L13.7817 8.6934C13.9232 9.10286 14 9.54246 14 10C14 12.2091 12.2091 14 10 14C9.54246 14 9.10286 13.9232 8.6934 13.7817L9.97526 12.4999C9.98349 12.5 9.99174 12.5 10 12.5C11.3807 12.5 12.5 11.3807 12.5 10C12.5 9.99174 12.5 9.9835 12.4999 9.97526Z" fill="#929082"/>
<path fill-rule="evenodd" clip-rule="evenodd" d="M15.1066 4.89364C13.8243 3.95482 12.1448 3.25001 10 3.25C6.7142 3.25001 4.52021 4.90426 3.17388 6.51986C2.50302 7.32489 2.03559 8.12686 1.73547 8.72709C1.58499 9.02805 1.47541 9.28064 1.40249 9.46079C1.36336 9.55747 1.20947 10 1.20947 10C1.26995 10.1814 1.33069 10.3618 1.40249 10.5392C1.47541 10.7194 1.58499 10.972 1.73547 11.2729C2.03559 11.8731 2.50302 12.6751 3.17388 13.4801C3.64148 14.0413 4.21134 14.6071 4.89368 15.1066L5.96921 14.0311C5.31445 13.5833 4.77169 13.0544 4.32621 12.5199C3.74707 11.8249 3.3395 11.1269 3.07711 10.6021C2.95313 10.3541 2.86261 10.1469 2.8025 10C2.86261 9.85305 2.95313 9.64588 3.07711 9.39791C3.3395 8.87314 3.74707 8.17511 4.32621 7.48014C5.47986 6.09575 7.28585 4.75001 10 4.75C11.6662 4.75001 12.9902 5.2572 14.0311 5.96916L15.1066 4.89364ZM15.3562 7.11893L16.4173 6.05779C16.5615 6.21118 16.6977 6.3657 16.8261 6.51986C17.497 7.32489 17.9644 8.12686 18.2645 8.72709C18.415 9.02805 18.5246 9.28064 18.5975 9.46079C18.6366 9.55747 18.7905 10 18.7905 10C18.73 10.1814 18.6693 10.3618 18.5975 10.5392C18.5246 10.7194 18.415 10.972 18.2645 11.2729C17.9644 11.8731 17.497 12.6751 16.8261 13.4801C15.4798 15.0957 13.2858 16.75 10 16.75C8.63734 16.75 7.46245 16.4655 6.45793 16.0172L7.61336 14.8618C8.31722 15.1052 9.10976 15.25 10 15.25C12.7142 15.25 14.5201 13.9042 15.6738 12.5199C16.2529 11.8249 16.6605 11.1269 16.9229 10.6021C17.0469 10.3541 17.1374 10.1469 17.1975 10C17.1374 9.85305 17.0469 9.64588 16.9229 9.39791C16.6605 8.87314 16.2529 8.17511 15.6738 7.48014C15.573 7.35915 15.4672 7.23846 15.3562 7.11893ZM12.8286 7.1717C12.1047 6.44777 11.1046 6 10 6C7.79086 6 6 7.79086 6 10C6 11.1046 6.44777 12.1047 7.1717 12.8286L8.23236 11.7679C7.77988 11.3155 7.5 10.6904 7.5 10C7.5 8.61929 8.61929 7.5 10 7.5C10.6904 7.5 11.3155 7.77988 11.7679 8.23236L12.8286 7.1717ZM12.4999 9.97526L13.7817 8.6934C13.9232 9.10286 14 9.54246 14 10C14 12.2091 12.2091 14 10 14C9.54246 14 9.10286 13.9232 8.6934 13.7817L9.97526 12.4999C9.98349 12.5 9.99174 12.5 10 12.5C11.3807 12.5 12.5 11.3807 12.5 10C12.5 9.99174 12.5 9.9835 12.4999 9.97526Z" fill="black" fill-opacity="0.2"/>
</svg>