<svg width="18" height="14" viewBox="0 0 18 14" fill="none" xmlns="http://www.w3.org/2000/svg">
<path fill-rule="evenodd" clip-rule="evenodd" d="M3.96642 10.2061C2.85086 9.147 2.13819 7.89176 1.79666 7C2.13819 6.10824 2.85086 4.853 3.96642 3.79392C5.17219 2.6492 6.82818 1.75 9.00004 1.75C11.1719 1.75 12.8279 2.6492 14.0337 3.79392C15.1492 4.853 15.8619 6.10824 16.2034 7C15.8619 7.89176 15.1492 9.147 14.0337 10.2061C12.8279 11.3508 11.1719 12.25 9.00004 12.25C6.82818 12.25 5.17219 11.3508 3.96642 10.2061ZM9.00004 0.25C6.3719 0.25 4.36122 1.3508 2.93366 2.70608C1.51884 4.04926 0.656674 5.6584 0.28853 6.76283L0.209473 7L0.28853 7.23717C0.656674 8.3416 1.51884 9.95074 2.93366 11.2939C4.36122 12.6492 6.3719 13.75 9.00004 13.75C11.6282 13.75 13.6389 12.6492 15.0664 11.2939C16.4812 9.95074 17.3434 8.3416 17.7116 7.23717L17.7906 7L17.7116 6.76283C17.3434 5.6584 16.4812 4.04926 15.0664 2.70608C13.6389 1.3508 11.6282 0.25 9.00004 0.25ZM6.25004 7C6.25004 5.48122 7.48126 4.25 9.00004 4.25C10.5188 4.25 11.75 5.48122 11.75 7C11.75 8.51878 10.5188 9.75 9.00004 9.75C7.48126 9.75 6.25004 8.51878 6.25004 7ZM9.00004 2.75C6.65283 2.75 4.75004 4.65279 4.75004 7C4.75004 9.34721 6.65283 11.25 9.00004 11.25C11.3473 11.25 13.25 9.34721 13.25 7C13.25 4.65279 11.3473 2.75 9.00004 2.75Z" fill="#ACA996"/>
</svg>
