<svg width="20" height="20" viewBox="0 0 20 20" fill="none" xmlns="http://www.w3.org/2000/svg">
<path fill-rule="evenodd" clip-rule="evenodd" d="M4.96642 13.2061C3.85086 12.147 3.13819 10.8918 2.79666 10C3.13819 9.10824 3.85086 7.853 4.96642 6.79392C6.17219 5.6492 7.82818 4.75 10 4.75C12.1719 4.75 13.8279 5.6492 15.0337 6.79392C16.1492 7.853 16.8619 9.10824 17.2034 10C16.8619 10.8918 16.1492 12.147 15.0337 13.2061C13.8279 14.3508 12.1719 15.25 10 15.25C7.82818 15.25 6.17219 14.3508 4.96642 13.2061ZM10 3.25C7.3719 3.25 5.36122 4.3508 3.93366 5.70608C2.51884 7.04926 1.65667 8.6584 1.28853 9.76283L1.20947 10L1.28853 10.2372C1.65667 11.3416 2.51884 12.9507 3.93366 14.2939C5.36122 15.6492 7.3719 16.75 10 16.75C12.6282 16.75 14.6389 15.6492 16.0664 14.2939C17.4812 12.9507 18.3434 11.3416 18.7116 10.2372L18.7906 10L18.7116 9.76283C18.3434 8.6584 17.4812 7.04926 16.0664 5.70608C14.6389 4.3508 12.6282 3.25 10 3.25ZM7.25004 10C7.25004 8.48122 8.48126 7.25 10 7.25C11.5188 7.25 12.75 8.48122 12.75 10C12.75 11.5188 11.5188 12.75 10 12.75C8.48126 12.75 7.25004 11.5188 7.25004 10ZM10 5.75C7.65283 5.75 5.75004 7.65279 5.75004 10C5.75004 12.3472 7.65283 14.25 10 14.25C12.3473 14.25 14.25 12.3472 14.25 10C14.25 7.65279 12.3473 5.75 10 5.75Z" fill="#B6B6B6"/>
</svg>