<svg width="20" height="20" viewBox="0 0 20 20" fill="none" xmlns="http://www.w3.org/2000/svg">
<path fill-rule="evenodd" clip-rule="evenodd" d="M2 10C2 14.4183 5.58172 18 10 18C14.4183 18 18 14.4183 18 10C18 5.58172 14.4183 2 10 2C5.58172 2 2 5.58172 2 10ZM15.5631 10.8884L15.5519 10.8707L16.8955 10.5607L17.0334 10.8184C16.8155 12.7078 15.8537 14.3708 14.4485 15.507L13.9047 15.3692L13.907 13.3739L15.5631 10.8884ZM13.2325 15.7206L13.2784 13.7021L11.3294 12.9716L8.9723 14.2406V15.6941L11.8918 16.7579L11.8831 16.68L13.2325 15.7206ZM10.9946 9.89827V12.444L8.64921 13.7079L6.19968 12.3468L6.18696 9.6309L8.19592 8.32809L10.9946 9.89827ZM13.2847 8.40938L11.3695 9.39127L8.58159 7.82543L8.42018 5.69087L11.2262 4.23066L13.288 5.52974L13.2847 8.40938ZM13.9111 5.77034L13.9079 8.26567L15.1933 10.3024L16.8237 9.8685L17.0022 8.94231C16.7857 7.49461 16.1309 6.19018 15.1772 5.16836L13.9111 5.77034ZM10.9775 3.64295V2.9849C10.658 2.94077 10.3317 2.91797 10 2.91797C8.49984 2.91797 7.10863 3.38453 5.96358 4.18047L6.22468 5.04102H8.29096L10.9775 3.64295ZM5.56312 9.58374L5.57555 12.4538L4.48706 13.5423L4.53745 13.5999L3.95848 13.6923C3.29954 12.6169 2.91968 11.352 2.91968 9.99831C2.91968 9.53806 2.96359 9.08806 3.04746 8.65228L4.45062 8.02634L5.56312 9.58374ZM4.35617 7.32479L3.26338 7.81292C3.67293 6.54954 4.428 5.44176 5.41713 4.60105L5.63891 5.27256L4.35617 7.32479ZM4.34153 14.2549L5.0158 14.1466L6.54827 15.898L6.54133 16.1778C5.68107 15.6953 4.93182 15.0384 4.34153 14.2549ZM7.15735 16.4849L7.16271 16.3026H8.723L10.6862 17.0458C10.4604 17.0675 10.2315 17.0787 10 17.0787C8.98897 17.0787 8.02741 16.8667 7.15735 16.4849Z" fill="#b6b6b6"/>
</svg>
