<svg width="20" height="20" viewBox="0 0 20 20" fill="none" xmlns="http://www.w3.org/2000/svg">
<path fill-rule="evenodd" clip-rule="evenodd" d="M17.4667 11.904C17.482 12.0819 16.9106 12.2868 16.9106 12.2868L18 12.9171C18 12.9171 17.846 13.1033 17.5358 13.2725C17.9269 13.5821 17.9863 13.9258 17.9863 14.2872C17.9863 14.732 17.815 15.1181 17.2386 15.4791C17.5251 15.7397 17.8073 16.7007 17.8073 16.9977C17.8073 17.5056 16.3599 17.9944 16.0266 17.9944C15.6923 17.9944 13.009 17.9981 11.1846 17.9981C10.3734 17.9981 9.60159 18.0024 8.88725 17.9981L3.2814 17.9831L2 5.64815H7.86967L8.68754 2.35904H8.68921C8.74164 2.15316 8.92665 2 9.14874 2C9.19182 2 9.2329 2.00801 9.2723 2.01835L9.2733 2.01668L9.33242 2.03704C9.33342 2.03737 9.33375 2.03737 9.33442 2.03804L12.5762 3.14486L12.2689 4.04414L9.48503 3.09314L8.84951 5.64815H10.3493L10.0531 8.68633C10.4418 8.66631 10.8406 8.6553 11.249 8.6553C14.8381 8.6553 17.7606 9.41309 17.7606 11.202C17.7606 11.5356 17.5809 11.5477 17.3932 11.8503C17.4179 11.8667 17.4643 11.873 17.4667 11.904ZM6.15641 16.7346C6.49471 17.069 7.27784 16.9972 7.27784 16.9972H11.0035H15.6793C15.6793 16.9972 16.074 16.9942 16.3779 16.6939C16.8137 16.2631 16.2784 15.6538 15.7364 15.6538C14.6694 15.6538 7.93174 15.6451 6.69575 15.6451C6.14238 15.6451 5.81811 16.3996 6.15641 16.7346ZM11.2787 14.954L17.2002 12.9939H5.59875L11.2787 14.954ZM3.04932 6.6494L4.07992 16.9979H4.68672C4.6787 16.7009 5.03237 15.7713 5.31824 15.5107C4.74182 15.15 4.47299 14.8263 4.47299 14.3812C4.47299 13.9994 4.57618 13.4822 5.00899 13.1595C4.47031 12.9743 4.38081 12.595 4.72646 12.4932C5.10951 12.3794 5.15259 12.6417 5.38002 12.3494C4.93686 11.9112 4.68672 11.7264 4.68672 11.2022C4.68672 9.78534 6.55489 9.01787 9.11302 8.75894L9.34713 6.6494H3.04932ZM11.2487 9.62517C9.31475 9.62517 5.59912 10.0519 5.66925 11.2195C5.69063 11.5725 6.99607 11.9923 6.99607 11.9923H11.2698H15.512C15.512 11.9923 16.8015 11.5342 16.8105 11.2195C16.8449 10.0509 13.1216 9.62517 11.2487 9.62517ZM2 5.64835C2.013 5.79668 2 5.67635 2 5.64835V5.64835Z" fill="#b6b6b6"/>
</svg>
