<svg width="20" height="20" viewBox="0 0 20 20" fill="none" xmlns="http://www.w3.org/2000/svg">
<path fill-rule="evenodd" clip-rule="evenodd" d="M12.0127 16.9893L11.9691 16.9882H12.0127V15.0359L12.1153 14.1666C12.2571 13.0235 12.8182 11.9738 13.69 11.2209C14.7877 10.233 15.3908 8.80915 15.3366 7.3333C15.3366 4.39265 12.7943 2 9.67 2C6.54568 2 4.00336 4.39265 4.00336 7.3333C3.94915 8.80915 4.55226 10.233 5.65002 11.2209C6.52176 11.9738 7.08291 13.0235 7.22468 14.1666L7.32735 15.0369V16.9893C7.33751 17.4313 7.66565 17.8013 8.10334 17.8642C8.6215 17.948 9.14515 17.9934 9.67 17.9999C10.1948 17.9934 10.7185 17.948 11.2367 17.8642C11.6744 17.8013 12.0025 17.4313 12.0127 16.9893ZM13.021 10.4776C11.988 11.3695 11.3095 12.6278 11.1285 13.9999H8.21143C8.0286 12.6243 7.35038 11.3681 6.30363 10.4641C5.44145 9.68794 4.95935 8.54974 5.00336 7.3333C5.00336 4.95899 7.08482 2.99999 9.67 2.99999C12.2552 2.99999 14.3366 4.95899 14.3373 7.37001C14.3807 8.54974 13.8986 9.68794 13.021 10.4776ZM8.32734 15.0369V14.9999H11.0127V16.8873C10.5544 16.9575 10.1064 16.9944 9.65753 17C9.22742 16.9943 8.77559 16.9566 8.32709 16.8872L8.32734 15.0369ZM10.3367 9.66662C10.3367 9.71934 10.3428 9.77062 10.3543 9.81981L9.67017 10.4509L8.98571 9.81956C8.99724 9.77045 9.00334 9.71925 9.00334 9.66662C9.00334 9.29844 8.70486 8.99996 8.33667 8.99996C7.96849 8.99996 7.67001 9.29844 7.67001 9.66662C7.67001 10.0348 7.96849 10.3333 8.33667 10.3333C8.39269 10.3333 8.4471 10.3264 8.49908 10.3134L9.33667 11.0859V13.3333H10.0033V11.0863L10.8412 10.3134C10.8931 10.3264 10.9474 10.3333 11.0033 10.3333C11.3715 10.3333 11.67 10.0348 11.67 9.66662C11.67 9.29844 11.3715 8.99996 11.0033 8.99996C10.6351 8.99996 10.3367 9.29844 10.3367 9.66662ZM8.33667 16.3333H9.67V15.6666H8.33667V16.3333Z" fill="#252525"/>
</svg>
