<svg width="20" height="20" viewBox="0 0 20 20" fill="none" xmlns="http://www.w3.org/2000/svg">
<path fill-rule="evenodd" clip-rule="evenodd" d="M18 10C18 5.58172 14.4183 2 10 2C5.58172 2 2 5.58172 2 10C2 14.4183 5.58172 18 10 18C14.4183 18 18 14.4183 18 10ZM17.0103 10C17.0103 6.13401 13.8763 3 10.0103 3C6.14434 3 3.01033 6.13401 3.01033 10C3.01033 13.866 6.14434 17 10.0103 17C13.8763 17 17.0103 13.866 17.0103 10ZM12.75 7C13.1643 7 13.5 7.44767 13.5 8C13.5 8.55233 13.1643 9 12.75 9C12.3357 9 12 8.55233 12 8C12 7.44767 12.3357 7 12.75 7ZM8.49667 8C8.49667 7.44733 8.16167 7 7.74833 7C7.335 7 7 7.44733 7 8C7 8.55267 7.33333 9 7.74833 9C8.16333 9 8.49667 8.55267 8.49667 8ZM10.006 11.6757C11.4029 11.6757 12.666 11.3736 13.5733 11.1567C14.4594 10.9447 15.006 10.814 15.006 11.1253C15.006 13.8868 12.7674 16.1253 10.006 16.1253C7.24458 16.1253 5.006 13.8868 5.006 11.1253C5.006 10.814 5.55259 10.9447 6.43873 11.1567C7.34596 11.3736 8.6091 11.6757 10.006 11.6757ZM13.0959 12.1325C12.3975 12.3152 11.327 12.5953 10 12.5953C8.67303 12.5953 7.60251 12.3152 6.90407 12.1325C6.32349 11.9806 6 11.8959 6 12.0953C6 14.0093 8.908 14.0953 10 14.0953C11.226 14.0953 14 14.009 14 12.0953C14 11.8959 13.6765 11.9806 13.0959 12.1325Z" fill="#b6b6b6"/>
</svg>
