<svg width="20" height="20" viewBox="0 0 20 20" fill="none" xmlns="http://www.w3.org/2000/svg">
<path fill-rule="evenodd" clip-rule="evenodd" d="M5.33333 2H12.3333V5.98967H18V16.9897H17V8V7H12.3333V8H11.3333V3H6.33333L6.32478 9H3V16.9897H2V7.98967H5.34022L5.33333 2ZM4 9.98967H5V10.9897H4V9.98967ZM10.3333 6H9.33333V7H10.3333V6ZM7.33333 6H8.33333V7H7.33333V6ZM16 7.98967H15V8.98967H16V7.98967ZM15 9.98967H16V10.9897H15V9.98967ZM8.33333 4L7.33333 3.98967V5H8.33333V4ZM9.33333 4H10.3333V5H9.33333V4ZM15 12.6667H14V11.6667C13.9409 9.98618 12.5565 8.65716 10.875 8.66667H9.125C7.4435 8.65716 6.0591 9.98618 6 11.6667V12.6667H5C4.63181 12.6667 4.33333 12.9651 4.33333 13.3333V16C4.33333 16.3682 4.63181 16.6667 5 16.6667L5 18H7V16.6667H13V18H15V16.6667C15.3682 16.6667 15.6667 16.3682 15.6667 16V13.3333C15.6667 12.9651 15.3682 12.6667 15 12.6667ZM13 12.6667C13 11.1417 13 9.66667 10 9.66667C7 9.66667 7 11.1433 7 12.6667H13ZM6.146 13.4063C6.56021 13.4063 6.896 13.7421 6.896 14.1563C6.896 14.5705 6.56021 14.9063 6.146 14.9063C5.73179 14.9063 5.396 14.5705 5.396 14.1563C5.396 13.7421 5.73179 13.4063 6.146 13.4063ZM14.5837 14.1563C14.5837 13.7421 14.2479 13.4063 13.8337 13.4063H13.8333C13.4193 13.4065 13.0837 13.7422 13.0837 14.1563C13.0837 14.5705 13.4195 14.9063 13.8337 14.9063C14.2479 14.9063 14.5837 14.5705 14.5837 14.1563ZM15 15.3333V15.9897H12.1675C12.1672 15.9897 12.1669 15.9897 12.1667 15.9897H7.83333C7.83306 15.9897 7.8328 15.9897 7.83253 15.9897H5V15.3333H7.5V15.323C7.5 15.1389 7.64924 14.9897 7.83333 14.9897H12.1667C12.3508 14.9897 12.5 15.1389 12.5 15.323V15.3333H15Z" fill="#b6b6b6"/>
</svg>
