<svg width="20" height="20" viewBox="0 0 20 20" fill="none" xmlns="http://www.w3.org/2000/svg">
<path d="M2 13.3959C2 13.0646 2.26458 12.8459 2.64056 12.8459H4.26284C4.97302 12.8459 5.45344 12.6008 6.05918 11.9315L7.81375 9.97681L6.05918 8.02871C5.4604 7.35947 4.97998 7.1143 4.26284 7.1143H2.64056C2.26458 7.1143 2 6.88901 2 6.56433C2 6.23302 2.25762 6.01436 2.64056 6.01436H4.22802C5.38381 6.01436 6.04526 6.32579 6.88773 7.24682L8.57963 9.12866L10.2715 7.24682C11.107 6.31916 11.7755 6.00773 12.9382 6.00773H14.3934V4.41082C14.3934 4.14578 14.5535 4 14.839 4C14.9713 4 15.0966 4.03976 15.201 4.11927L17.8329 6.19989C18.0557 6.38542 18.0557 6.6571 17.8329 6.82938L15.201 8.90337C15.0966 8.98288 14.9713 9.02927 14.839 9.02927C14.5535 9.02927 14.3934 8.87686 14.3934 8.61182V7.1143H12.973C12.2071 7.1143 11.7058 7.35947 11.107 8.02209L9.34552 9.97681L11.107 11.9315C11.7058 12.6008 12.2071 12.8459 12.973 12.8459H14.3934V11.3882C14.3934 11.1231 14.5535 10.9707 14.839 10.9707C14.9713 10.9707 15.0966 11.0171 15.201 11.0966L17.8329 13.1772C18.0557 13.3628 18.0557 13.6278 17.8329 13.8067L15.201 15.8807C15.0966 15.9602 14.9713 16 14.839 16C14.5535 16 14.3934 15.8542 14.3934 15.5892V13.9459H12.9382C11.7755 13.9459 11.107 13.6345 10.2715 12.7134L8.57963 10.8316L6.88773 12.7068C6.04526 13.6345 5.38381 13.9459 4.22802 13.9459H2.64056C2.25762 13.9459 2 13.7272 2 13.3959Z" fill="#B6B6B6"/>
</svg>
