<svg width="20" height="20" viewBox="0 0 20 20" fill="none" xmlns="http://www.w3.org/2000/svg">
<path fill-rule="evenodd" clip-rule="evenodd" d="M13.6607 7.036L13.685 2H13.6857C15.278 2 17 2.988 16.9517 5.39267C16.9293 6.46933 15.7087 7.59467 15.7087 7.59467C15.4954 7.38903 15.6444 7.12105 15.8387 6.77159C16.0353 6.41805 16.2782 5.98112 16.2393 5.441C16.1403 4.06267 14.6887 3.326 14.6887 3.326V7.63367C14.6887 9.787 11.6667 10.326 11.2647 9.20933C11.035 8.57167 11.0287 7.749 12.0683 7.16933C12.7207 6.80667 13.6607 7.036 13.6607 7.036ZM8.3 17.982H9.53333L8.21767 16.589C8.61627 15.8857 8.80516 15.0829 8.762 14.2757V13.9873H7.889V14.246C7.91485 14.8234 7.80132 15.3984 7.558 15.9227L6.13033 14.2717C6.88033 13.869 7.53267 13.3867 7.53267 12.541C7.53267 11.6013 6.74833 10.9677 5.79233 10.9677C4.77733 10.9677 4.052 11.6757 4.052 12.5343C4.052 13.151 4.43433 13.6183 4.87567 14.0907C4.78267 14.1353 4.69433 14.18 4.611 14.23C3.86667 14.6497 3.326 15.1927 3.326 16.077C3.326 17.2653 4.30167 18.033 5.586 18.033C6.34231 18.023 7.0695 17.7398 7.63333 17.2357L8.3 17.982ZM5.16467 14.784C5.23333 14.7443 5.302 14.7093 5.37533 14.6747L7.062 16.5673C6.67697 16.9299 6.16164 17.1211 5.63333 17.0977C4.90767 17.0977 4.27267 16.793 4.27267 16.0023C4.27233 15.426 4.635 15.0723 5.16467 14.784ZM5.63099 13.7343L5.63133 13.7347H5.63033L5.63099 13.7343ZM6.65 12.586C6.65 13.1328 6.22398 13.4311 5.63099 13.7343C5.11659 13.2225 4.95 12.9346 4.95 12.591C4.93389 12.2775 5.09163 11.9807 5.3604 11.8186C5.62917 11.6565 5.96534 11.6555 6.23506 11.816C6.50478 11.9765 6.66426 12.2725 6.65 12.586ZM12.1183 18.0223L14.5083 14.5107L17.2333 10.986H16.0533L13.5897 14.3927L10.9037 18.0537L12.1183 18.0223ZM10 4.66016H3V5.66216L6 5.6613V9.66016H7V5.66101L10 5.66016V4.66016ZM10 2.65933H3V3.65933H10V2.65933ZM15.4063 16.2127C15.4063 15.6703 15.6103 15.2703 16.0273 15.2703C16.4273 15.2703 16.6397 15.648 16.6397 16.2217V16.2617C16.6397 16.8397 16.4093 17.2173 16.023 17.2173C15.6277 17.2173 15.4063 16.8307 15.4063 16.2527V16.2127ZM16.0127 17.995C15.135 17.995 14.635 17.2473 14.635 16.304V16.1647C14.635 15.2457 15.1493 14.498 16.0223 14.498C16.8953 14.498 17.41 15.2353 17.41 16.1737V16.314C17.41 17.2223 16.905 17.995 16.0127 17.995ZM11.4093 12.704C11.4093 12.1643 11.6127 11.766 12.0277 11.766C12.4253 11.766 12.6373 12.142 12.6373 12.7127V12.7523C12.6373 13.3277 12.4083 13.7037 12.0233 13.7037C11.63 13.7037 11.4093 13.3187 11.4093 12.7437V12.7057V12.704ZM12.0127 14.4857C11.135 14.4857 10.635 13.738 10.635 12.7947V12.6567C10.635 11.7377 11.1493 10.99 12.0223 10.99C12.8953 10.99 13.41 11.7273 13.41 12.6657V12.8047C13.41 13.713 12.905 14.4857 12.0127 14.4857Z" fill="#b6b6b6"/>
</svg>
