<svg width="20" height="20" viewBox="0 0 20 20" fill="none" xmlns="http://www.w3.org/2000/svg">
<path fill-rule="evenodd" clip-rule="evenodd" d="M15.25 2.75C15.25 2.33579 15.5858 2 16 2C16.4142 2 16.75 2.33579 16.75 2.75V4.25H18.25C18.6642 4.25 19 4.58579 19 5C19 5.41421 18.6642 5.75 18.25 5.75H16.75V7.25C16.75 7.66421 16.4142 8 16 8C15.5858 8 15.25 7.66421 15.25 7.25V5.75H13.75C13.3358 5.75 13 5.41421 13 5C13 4.58579 13.3358 4.25 13.75 4.25H15.25V2.75ZM11.367 3.11633C10.9228 3.03985 10.466 3 10 3C5.58172 3 2 6.58172 2 11C2 15.4183 5.58172 19 10 19C14.4183 19 18 15.4183 18 11C18 10.534 17.9602 10.0772 17.8837 9.63303C17.426 9.81932 16.9344 9.93974 16.4208 9.98254C16.4729 10.314 16.5 10.6539 16.5 11C16.5 14.5899 13.5899 17.5 10 17.5C6.41015 17.5 3.5 14.5899 3.5 11C3.5 7.41015 6.41015 4.5 10 4.5C10.3461 4.5 10.686 4.52706 11.0175 4.57917C11.0603 4.06558 11.1807 3.57405 11.367 3.11633ZM10 15C7.90401 15 6.5 13.513 6.5 12.8069C6.5 12.5501 6.73066 12.4325 6.95129 12.5394C7.67335 12.9567 8.54585 13.4488 10 13.4488C11.4542 13.4488 12.3266 12.9674 13.0587 12.5394C13.2693 12.4325 13.5 12.5501 13.5 12.8069C13.5 13.513 12.096 15 10 15ZM8 8C7.44772 8 7 8.44772 7 9C7 9.55228 7.44772 10 8 10C8.55228 10 9 9.55228 9 9C9 8.44772 8.55228 8 8 8ZM11 9C11 8.44772 11.4477 8 12 8C12.5523 8 13 8.44772 13 9C13 9.55228 12.5523 10 12 10C11.4477 10 11 9.55228 11 9Z" fill="#171717"/>
</svg>
