<svg width="20" height="20" viewBox="0 0 20 20" fill="none" xmlns="http://www.w3.org/2000/svg">
<path fill-rule="evenodd" clip-rule="evenodd" d="M5.5 4.5H14.5C15.0523 4.5 15.5 4.94772 15.5 5.5V7.5C15.5 8.05228 15.0523 8.5 14.5 8.5H5.5C4.94772 8.5 4.5 8.05228 4.5 7.5V5.5C4.5 4.94772 4.94772 4.5 5.5 4.5ZM3.5 5.5C3.5 4.39543 4.39543 3.5 5.5 3.5H14.5C15.6046 3.5 16.5 4.39543 16.5 5.5V7.5C16.5 8.60457 15.6046 9.5 14.5 9.5H5.5C4.39543 9.5 3.5 8.60457 3.5 7.5V5.5ZM5.5 11.5H14.5C15.0523 11.5 15.5 11.9477 15.5 12.5V14.5C15.5 15.0523 15.0523 15.5 14.5 15.5H5.5C4.94772 15.5 4.5 15.0523 4.5 14.5V12.5C4.5 11.9477 4.94772 11.5 5.5 11.5ZM3.5 12.5C3.5 11.3954 4.39543 10.5 5.5 10.5H14.5C15.6046 10.5 16.5 11.3954 16.5 12.5V14.5C16.5 15.6046 15.6046 16.5 14.5 16.5H5.5C4.39543 16.5 3.5 15.6046 3.5 14.5V12.5ZM6.5 6.5C6.5 5.94772 6.94772 5.5 7.5 5.5C8.05228 5.5 8.5 5.94772 8.5 6.5C8.5 7.05228 8.05228 7.5 7.5 7.5C6.94772 7.5 6.5 7.05228 6.5 6.5ZM7.5 12.5C6.94772 12.5 6.5 12.9477 6.5 13.5C6.5 14.0523 6.94772 14.5 7.5 14.5C8.05228 14.5 8.5 14.0523 8.5 13.5C8.5 12.9477 8.05228 12.5 7.5 12.5Z" fill="#4DAE00"/>
</svg>
