<svg xmlns="http://www.w3.org/2000/svg" width="20" height="20" viewBox="0 0 20 20" fill="none">
    <path fill-rule="evenodd" clip-rule="evenodd" d="M10 17.5C14.1421 17.5 17.5 14.1421 17.5 10C17.5 5.85786 14.1421 2.5 10 2.5C5.85786 2.5 2.5 5.85786 2.5 10C2.5 14.1421 5.85786 17.5 10 17.5ZM10 19C14.9706 19 19 14.9706 19 10C19 5.02944 14.9706 1 10 1C5.02944 1 1 5.02944 1 10C1 14.9706 5.02944 19 10 19Z" fill="#F55522"/>
    <path d="M10 12.75C10.6904 12.75 11.25 13.3096 11.25 14C11.25 14.6904 10.6904 15.25 10 15.25C9.30964 15.25 8.75 14.6904 8.75 14C8.75 13.3096 9.30964 12.75 10 12.75ZM10.75 11.75H9.25L9 4.75H11L10.75 11.75Z" fill="#F55522"/>
</svg>
