<svg width="24" height="24" viewBox="0 0 24 24" fill="none" xmlns="http://www.w3.org/2000/svg">
<path fill-rule="evenodd" clip-rule="evenodd" d="M18.4002 7.19389C20.0504 6.3688 20.5 5.50647 20.5 5C20.5 4.49353 20.0504 3.6312 18.4002 2.80611C16.8398 2.02587 14.579 1.5 12 1.5C9.42095 1.5 7.16022 2.02587 5.59975 2.80611C3.94957 3.6312 3.5 4.49353 3.5 5C3.5 5.50647 3.94957 6.3688 5.59975 7.19389C7.16022 7.97413 9.42095 8.5 12 8.5C14.579 8.5 16.8398 7.97413 18.4002 7.19389ZM12 10C17.5228 10 22 7.76142 22 5C22 2.23858 17.5228 0 12 0C6.47715 0 2 2.23858 2 5C2 7.76142 6.47715 10 12 10Z" fill="#ACA996"/>
<path fill-rule="evenodd" clip-rule="evenodd" d="M2.0277 5.25H2L5 20.5469H19L22 5.25H21.9723C21.5888 7.83627 17.2706 9.875 12 9.875C6.72944 9.875 2.41123 7.83627 2.0277 5.25Z" fill="#ACA996"/>
<path d="M19.0312 20.5C19.0312 22.433 15.8972 24 12.0312 24C8.16526 24 5.03125 22.433 5.03125 20.5C5.03125 18.567 8.16526 17 12.0312 17C15.8972 17 19.0312 18.567 19.0312 20.5Z" fill="#ACA996"/>
</svg>