<svg width="40" height="30" viewBox="0 0 40 30" fill="none" xmlns="http://www.w3.org/2000/svg">
<path fill-rule="evenodd" clip-rule="evenodd" d="M3 4C1.34315 4 0 5.34315 0 7V27C0 28.6569 1.34315 30 3 30H37C38.6569 30 40 28.6569 40 27V7C40 5.34315 38.6569 4 37 4H3ZM27.5 17C27.5 21.1421 24.1421 24.5 20 24.5C15.8579 24.5 12.5 21.1421 12.5 17C12.5 12.8579 15.8579 9.5 20 9.5C24.1421 9.5 27.5 12.8579 27.5 17ZM29 17C29 21.9706 24.9706 26 20 26C15.0294 26 11 21.9706 11 17C11 12.0294 15.0294 8 20 8C24.9706 8 29 12.0294 29 17Z" fill="white"/>
<path d="M12.4472 1.10557C12.786 0.428004 13.4785 0 14.2361 0H25.7639C26.5215 0 27.214 0.428005 27.5528 1.10557L29.5528 5.10557C30.2177 6.43538 29.2507 8 27.7639 8H12.2361C10.7493 8 9.78231 6.43538 10.4472 5.10557L12.4472 1.10557Z" fill="white"/>
</svg>
