<svg width="20" height="20" viewBox="0 0 20 20" fill="none" xmlns="http://www.w3.org/2000/svg">
<g clip-path="url(#clip0)">
<path fill-rule="evenodd" clip-rule="evenodd" d="M10 18.9941C14.9706 18.9941 19 14.9647 19 9.99414C19 5.02358 14.9706 0.994141 10 0.994141C5.02944 0.994141 1 5.02358 1 9.99414C1 14.9647 5.02944 18.9941 10 18.9941ZM6.48659 6.44885C6.7802 6.15667 7.25507 6.15783 7.54725 6.45144L10.0078 8.92405L12.4684 6.45144C12.7606 6.15783 13.2354 6.15667 13.529 6.44885C13.8226 6.74102 13.8238 7.21589 13.5316 7.5095L11.0659 9.9873L13.5316 12.4651C13.8238 12.7587 13.8226 13.2336 13.529 13.5258C13.2354 13.8179 12.7606 13.8168 12.4684 13.5232L10.0078 11.0506L7.54725 13.5232C7.25507 13.8168 6.7802 13.8179 6.48659 13.5258C6.19298 13.2336 6.19182 12.7587 6.484 12.4651L8.94973 9.9873L6.484 7.5095C6.19182 7.21589 6.19298 6.74102 6.48659 6.44885Z" fill="#B6B6B6"/>
</g>
<defs>
<clipPath id="clip0">
<rect width="20" height="20" fill="white" transform="translate(0 0.00390625)"/>
</clipPath>
</defs>
</svg>