<svg width="20" height="20" viewBox="0 0 20 20" fill="none" xmlns="http://www.w3.org/2000/svg">
<path fill-rule="evenodd" clip-rule="evenodd" d="M8.1524 7.44141C8.10919 7.54528 8.01151 7.61625 7.89937 7.62524L3.8235 7.952C3.5575 7.97332 3.44964 8.30528 3.6523 8.47888L6.75769 11.139C6.84313 11.2122 6.88044 11.327 6.85434 11.4364L5.90559 15.4138C5.84367 15.6734 6.12605 15.8785 6.35378 15.7394L9.8433 13.608C9.9393 13.5494 10.06 13.5494 10.1561 13.608L13.6456 15.7394C13.8733 15.8785 14.1557 15.6734 14.0938 15.4138L13.145 11.4364C13.1189 11.327 13.1562 11.2122 13.2417 11.139L16.347 8.47888C16.5497 8.30528 16.4419 7.97332 16.1759 7.952L12.1 7.62524C11.9878 7.61625 11.8902 7.54528 11.847 7.44141L10.2767 3.66599C10.1742 3.4196 9.82516 3.4196 9.72268 3.66599L8.1524 7.44141ZM12.9505 6.18861L11.6617 3.08995C11.0468 1.61162 8.95257 1.61162 8.3377 3.08995L7.04889 6.18861L3.70363 6.4568C2.10765 6.58475 1.4605 8.57646 2.67647 9.61806L5.22521 11.8013L4.44653 15.0657C4.07503 16.6231 5.76928 17.8541 7.13566 17.0195L9.99968 15.2702L12.8637 17.0195C14.2301 17.8541 15.9243 16.6232 15.5528 15.0657L14.7741 11.8013L17.3229 9.61806C18.5388 8.57646 17.8917 6.58475 16.2957 6.4568L12.9505 6.18861Z" fill="#C4C2B1"/>
</svg>
