<svg width="20" height="20" viewBox="0 0 20 20" fill="none" xmlns="http://www.w3.org/2000/svg">
<path d="M9.39984 2.44295C9.62188 1.90911 10.3781 1.90911 10.6002 2.44295L12.2281 6.35691C12.3217 6.58196 12.5333 6.73573 12.7763 6.75521L17.0017 7.09396C17.578 7.14016 17.8117 7.85939 17.3726 8.23553L14.1533 10.9932C13.9682 11.1518 13.8873 11.4006 13.9439 11.6377L14.9275 15.761C15.0616 16.3234 14.4498 16.7679 13.9564 16.4665L10.3388 14.2569C10.1308 14.1299 9.86919 14.1299 9.66118 14.2569L6.04362 16.4665C5.5502 16.7679 4.93839 16.3234 5.07254 15.761L6.0561 11.6377C6.11266 11.4006 6.03182 11.1518 5.8467 10.9932L2.62736 8.23553C2.18826 7.85939 2.42196 7.14016 2.99828 7.09396L7.22372 6.75521C7.46669 6.73573 7.67833 6.58196 7.77194 6.35691L9.39984 2.44295Z" fill="#FFB522"/>
</svg>