<svg width="28" height="28" viewBox="0 0 28 28" fill="none" xmlns="http://www.w3.org/2000/svg">
<path opacity="0.3" d="M0 14C0 6.26801 6.26801 0 14 0C21.732 0 28 6.26801 28 14C28 21.732 21.732 28 14 28C6.26801 28 0 21.732 0 14Z" fill="black"/>
<path d="M12.6527 16.9091H14.3572V16.8239C14.3857 15.0625 14.8402 14.2954 16.0902 13.5142C17.3402 12.7543 18.0788 11.6605 18.0788 10.0909C18.0788 7.875 16.4595 6.25568 13.9595 6.25568C11.6584 6.25568 9.8331 7.67613 9.72656 10.0909H11.5163C11.6229 8.41477 12.7947 7.73295 13.9595 7.73295C15.2947 7.73295 16.3743 8.61363 16.3743 10.0057C16.3743 11.1349 15.728 11.9446 14.897 12.4489C13.505 13.294 12.674 14.1179 12.6527 16.8239V16.9091ZM13.5618 21.1136C14.2649 21.1136 14.8402 20.5383 14.8402 19.8352C14.8402 19.1321 14.2649 18.5568 13.5618 18.5568C12.8587 18.5568 12.2834 19.1321 12.2834 19.8352C12.2834 20.5383 12.8587 21.1136 13.5618 21.1136Z" fill="white"/>
</svg>