<svg width="24" height="24" viewBox="0 0 24 24" fill="none" xmlns="http://www.w3.org/2000/svg">
<path fill-rule="evenodd" clip-rule="evenodd" d="M10 5H5L5 10H10V5ZM5 4C4.44772 4 4 4.44772 4 5V10C4 10.5523 4.44772 11 5 11H10C10.5523 11 11 10.5523 11 10V5C11 4.44772 10.5523 4 10 4H5Z" fill="#ACA996"/>
<path fill-rule="evenodd" clip-rule="evenodd" d="M19 5H14L14 10H19V5ZM14 4C13.4477 4 13 4.44772 13 5V10C13 10.5523 13.4477 11 14 11H19C19.5523 11 20 10.5523 20 10V5C20 4.44772 19.5523 4 19 4H14Z" fill="#ACA996"/>
<path fill-rule="evenodd" clip-rule="evenodd" d="M10 14H5L5 19H10V14ZM5 13C4.44772 13 4 13.4477 4 14V19C4 19.5523 4.44772 20 5 20H10C10.5523 20 11 19.5523 11 19V14C11 13.4477 10.5523 13 10 13H5Z" fill="#ACA996"/>
<path fill-rule="evenodd" clip-rule="evenodd" d="M19 14H14L14 19H19V14ZM14 13C13.4477 13 13 13.4477 13 14V19C13 19.5523 13.4477 20 14 20H19C19.5523 20 20 19.5523 20 19V14C20 13.4477 19.5523 13 19 13H14Z" fill="#ACA996"/>
</svg>