<svg width="20" height="20" viewBox="0 0 20 20" fill="none" xmlns="http://www.w3.org/2000/svg">
<path fill-rule="evenodd" clip-rule="evenodd" d="M17.5 7.80275L10 2.80275L2.5 7.80275V16.5H17.5V7.80275ZM1.33397 6.77733C1.12533 6.91643 1 7.1506 1 7.40137V17.25C1 17.6642 1.33579 18 1.75 18H18.25C18.6642 18 19 17.6642 19 17.25V7.40137C19 7.1506 18.8747 6.91643 18.666 6.77733L10.416 1.27733C10.1641 1.10938 9.8359 1.10938 9.58397 1.27733L1.33397 6.77733Z" fill="#ACA996"/>
<path fill-rule="evenodd" clip-rule="evenodd" d="M11 16.5V11.5C11 10.9477 10.5523 10.5 10 10.5C9.44772 10.5 9 10.9477 9 11.5V16.5H11ZM10 9C8.61929 9 7.5 10.1193 7.5 11.5V18H12.5V11.5C12.5 10.1193 11.3807 9 10 9Z" fill="#ACA996"/>
</svg>