<svg width="20" height="20" viewBox="0 0 20 20" fill="none" xmlns="http://www.w3.org/2000/svg">
<path fill-rule="evenodd" clip-rule="evenodd" d="M8 3H3L3 8H8V3ZM3 2C2.44772 2 2 2.44772 2 3V8C2 8.55228 2.44772 9 3 9H8C8.55228 9 9 8.55228 9 8V3C9 2.44772 8.55228 2 8 2H3Z" fill="#DFDDD0"/>
<path fill-rule="evenodd" clip-rule="evenodd" d="M17 3H12L12 8H17V3ZM12 2C11.4477 2 11 2.44772 11 3V8C11 8.55228 11.4477 9 12 9H17C17.5523 9 18 8.55228 18 8V3C18 2.44772 17.5523 2 17 2H12Z" fill="#DFDDD0"/>
<path fill-rule="evenodd" clip-rule="evenodd" d="M8 12H3L3 17H8V12ZM3 11C2.44772 11 2 11.4477 2 12V17C2 17.5523 2.44772 18 3 18H8C8.55228 18 9 17.5523 9 17V12C9 11.4477 8.55228 11 8 11H3Z" fill="#DFDDD0"/>
<path fill-rule="evenodd" clip-rule="evenodd" d="M17 12H12L12 17H17V12ZM12 11C11.4477 11 11 11.4477 11 12V17C11 17.5523 11.4477 18 12 18H17C17.5523 18 18 17.5523 18 17V12C18 11.4477 17.5523 11 17 11H12Z" fill="#DFDDD0"/>
</svg>