<svg width="8" height="12" viewBox="0 0 8 12" fill="none" xmlns="http://www.w3.org/2000/svg">
<path d="M0 6.03125C0 5.47897 0.447715 5.03125 1 5.03125H7C7.55228 5.03125 8 5.47897 8 6.03125V11C8 11.5523 7.55228 12 7 12H1C0.447715 12 0 11.5523 0 11V6.03125Z" fill="#b6b6b6"/>
<path fill-rule="evenodd" clip-rule="evenodd" d="M6 8V3C6 1.89543 5.10457 1 4 1C2.89543 1 2 1.89543 2 3V8C2 9.10457 2.89543 10 4 10C5.10457 10 6 9.10457 6 8ZM4 0C2.34315 0 1 1.34315 1 3V8C1 9.65685 2.34315 11 4 11C5.65685 11 7 9.65685 7 8V3C7 1.34315 5.65685 0 4 0Z" fill="#b6b6b6"/>
</svg>