<svg width="20" height="20" viewBox="0 0 20 20" fill="none" xmlns="http://www.w3.org/2000/svg">
<path d="M10.3828 17.75C9.11699 17.75 7.99408 17.5778 7.01409 17.2335C6.03818 16.8933 5.21539 16.391 4.54573 15.7267C3.87607 15.0664 3.3677 14.2563 3.02062 13.2963C2.67354 12.3362 2.5 11.2405 2.5 10.0091C2.5 8.81011 2.67558 7.73262 3.02675 6.77666C3.37791 5.82069 3.88832 5.0065 4.55798 4.33408C5.23173 3.65762 6.05043 3.14115 7.01409 2.78469C7.97775 2.42823 9.07207 2.25 10.2971 2.25C11.469 2.25 12.502 2.43228 13.3963 2.79684C14.2905 3.16141 15.0419 3.66167 15.6503 4.29763C16.2628 4.93359 16.7242 5.66271 17.0345 6.48501C17.3448 7.3073 17.5 8.17617 17.5 9.09163C17.5 9.73164 17.4592 10.3575 17.3775 10.9691C17.2958 11.5767 17.1448 12.1276 16.9243 12.6218C16.7078 13.1119 16.3934 13.5049 15.981 13.8006C15.5727 14.0922 15.0419 14.2441 14.3885 14.2563C14.0414 14.2684 13.7046 14.2279 13.3779 14.1348C13.0512 14.0416 12.7736 13.8917 12.5449 13.6851C12.3163 13.4745 12.1774 13.2071 12.1284 12.8831H12.0549C11.9569 13.1221 11.7936 13.3449 11.5649 13.5515C11.3363 13.754 11.0443 13.916 10.6891 14.0375C10.3379 14.155 9.92956 14.2036 9.46407 14.1834C8.94957 14.1631 8.48612 14.0477 8.0737 13.837C7.66129 13.6264 7.30808 13.3347 7.01409 12.9621C6.72417 12.5894 6.50163 12.1479 6.34647 11.6375C6.1913 11.1271 6.11372 10.56 6.11372 9.9362C6.11372 9.3367 6.20151 8.79998 6.37709 8.32605C6.55267 7.84807 6.79155 7.43692 7.09371 7.09261C7.39996 6.74425 7.75112 6.4688 8.1472 6.26627C8.54328 6.06373 8.96182 5.93614 9.40282 5.88348C9.83156 5.83487 10.2256 5.84702 10.5849 5.91993C10.9443 5.99285 11.2423 6.10424 11.4792 6.25412C11.7201 6.40399 11.8712 6.56805 11.9324 6.74628H12.012V6.06576H13.5188V11.7043C13.5188 12.0243 13.6025 12.2957 13.7699 12.5185C13.9414 12.7413 14.1844 12.8527 14.4988 12.8527C14.8704 12.8527 15.1603 12.717 15.3685 12.4456C15.5808 12.1742 15.7299 11.757 15.8156 11.1939C15.9055 10.6309 15.9504 9.90987 15.9504 9.03087C15.9504 8.41516 15.8667 7.83591 15.6993 7.29312C15.5359 6.74628 15.293 6.25209 14.9704 5.81056C14.6519 5.36499 14.2599 4.9822 13.7944 4.66219C13.3289 4.34219 12.7981 4.09509 12.2019 3.92091C11.6098 3.74673 10.9545 3.65964 10.2358 3.65964C9.2599 3.65964 8.3922 3.80952 7.63271 4.10927C6.87321 4.40497 6.23214 4.83232 5.70947 5.39132C5.19089 5.95031 4.79686 6.6207 4.52736 7.40249C4.26194 8.18022 4.12924 9.05315 4.12924 10.0213C4.12924 11.0299 4.26603 11.9251 4.53961 12.7069C4.81319 13.4846 5.21744 14.1408 5.75235 14.6755C6.28726 15.2102 6.94876 15.6153 7.73683 15.8907C8.52491 16.1702 9.43344 16.31 10.4624 16.31C10.9198 16.31 11.3689 16.2695 11.8099 16.1885C12.2509 16.1115 12.6429 16.0224 12.9859 15.9211C13.333 15.8239 13.5923 15.7449 13.7638 15.6841L14.1925 17.0148C13.9394 17.1323 13.6025 17.2477 13.1819 17.3611C12.7654 17.4746 12.3122 17.5677 11.8222 17.6406C11.3363 17.7135 10.8565 17.75 10.3828 17.75ZM9.81931 12.6947C10.3501 12.6947 10.7768 12.5894 11.0994 12.3788C11.4261 12.1681 11.6609 11.8542 11.8038 11.437C11.9508 11.0157 12.0243 10.4891 12.0243 9.85721C12.0202 9.24151 11.9406 8.75137 11.7854 8.38681C11.6343 8.0182 11.3975 7.7549 11.0749 7.59692C10.7564 7.43489 10.3461 7.35388 9.84381 7.35388C9.3824 7.35388 8.98836 7.46527 8.6617 7.68806C8.33912 7.91085 8.09208 8.21263 7.92058 8.59339C7.75316 8.97416 7.66742 9.39746 7.66333 9.86329C7.66742 10.3534 7.73683 10.8152 7.87158 11.2486C8.01041 11.678 8.23499 12.0264 8.54533 12.2937C8.85974 12.5611 9.2844 12.6947 9.81931 12.6947Z" fill="#B6B6B6"/>
</svg>