<svg width="20" height="20" viewBox="0 0 20 20" fill="none" xmlns="http://www.w3.org/2000/svg">
<path d="M2 2.75C2 2.33579 2.33579 2 2.75 2C3.16421 2 3.5 2.33579 3.5 2.75V17.25C3.5 17.6642 3.16421 18 2.75 18C2.33579 18 2 17.6642 2 17.25V2.75Z" fill="#ACA996"/>
<path d="M9 2.75C9 2.33579 9.33579 2 9.75 2C10.1642 2 10.5 2.33579 10.5 2.75V17.25C10.5 17.6642 10.1642 18 9.75 18C9.33579 18 9 17.6642 9 17.25V2.75Z" fill="#ACA996"/>
<path d="M16 2.75C16 2.33579 16.3358 2 16.75 2C17.1642 2 17.5 2.33579 17.5 2.75V17.25C17.5 17.6642 17.1642 18 16.75 18C16.3358 18 16 17.6642 16 17.25V2.75Z" fill="#ACA996"/>
</svg>