<svg width="24" height="18" viewBox="0 0 24 18" fill="none" xmlns="http://www.w3.org/2000/svg">
<path fill-rule="evenodd" clip-rule="evenodd" d="M8.00366 4L2 4V16H22V4H16V2L8.00366 2V4ZM6.00366 2C6.00366 0.89543 6.89909 0 8.00366 0H16C17.1046 0 18 0.895431 18 2H22C23.1046 2 24 2.89543 24 4V16C24 17.1046 23.1046 18 22 18H2C0.89543 18 0 17.1046 0 16V4C0 2.89543 0.895431 2 2 2L6.00366 2Z" fill="#252525"/>
<path fill-rule="evenodd" clip-rule="evenodd" d="M12 13C13.6569 13 15 11.6569 15 10C15 8.34315 13.6569 7 12 7C10.3431 7 9 8.34315 9 10C9 11.6569 10.3431 13 12 13ZM17 10C17 12.7614 14.7614 15 12 15C9.23858 15 7 12.7614 7 10C7 7.23858 9.23858 5 12 5C14.7614 5 17 7.23858 17 10Z" fill="#252525"/>
</svg>