<svg width="20" height="20" viewBox="0 0 20 20" fill="none" xmlns="http://www.w3.org/2000/svg">
<path fill-rule="evenodd" clip-rule="evenodd" d="M10 17.5C14.1421 17.5 17.5 14.1421 17.5 10C17.5 5.85786 14.1421 2.5 10 2.5C5.85786 2.5 2.5 5.85786 2.5 10C2.5 14.1421 5.85786 17.5 10 17.5ZM10 19C14.9706 19 19 14.9706 19 10C19 5.02944 14.9706 1 10 1C5.02944 1 1 5.02944 1 10C1 14.9706 5.02944 19 10 19Z" fill="#B6B6B6"/>
<path d="M8.83736 12.0071H10.4929V11.8778C10.5028 10.8238 10.8459 10.3416 11.6562 9.84444C12.571 9.29756 13.1428 8.55182 13.1428 7.41333C13.1428 5.73293 11.8352 4.67896 9.93608 4.67896C8.19602 4.67896 6.78409 5.64344 6.73438 7.53265H8.50426C8.54901 6.59799 9.22514 6.15055 9.92614 6.15055C10.6868 6.15055 11.2983 6.65765 11.2983 7.43819C11.2983 8.13421 10.8359 8.61148 10.2344 8.98932C9.3544 9.5362 8.8473 10.088 8.83736 11.8778V12.0071ZM9.70739 15.1094C10.294 15.1094 10.7962 14.6221 10.8011 14.0156C10.7962 13.419 10.294 12.9318 9.70739 12.9318C9.10085 12.9318 8.60866 13.419 8.61364 14.0156C8.60866 14.6221 9.10085 15.1094 9.70739 15.1094Z" fill="#B6B6B6"/>
</svg>