<svg width="20" height="20" viewBox="0 0 20 20" fill="none" xmlns="http://www.w3.org/2000/svg">
<path d="M3.32031 8.71143C3.32031 7.95947 3.46159 7.25537 3.74414 6.59912C4.02669 5.93831 4.41862 5.35726 4.91992 4.85596C5.42122 4.35466 6 3.96273 6.65625 3.68018C7.31706 3.39762 8.02344 3.25635 8.77539 3.25635C9.52734 3.25635 10.2314 3.39762 10.8877 3.68018C11.5485 3.96273 12.1296 4.35466 12.6309 4.85596C13.1322 5.35726 13.5241 5.93831 13.8066 6.59912C14.0892 7.25537 14.2305 7.95947 14.2305 8.71143C14.2305 9.33577 14.1302 9.92822 13.9297 10.4888C13.7337 11.0493 13.4603 11.5575 13.1094 12.0132L16.4521 15.3765C16.5251 15.4494 16.5798 15.5337 16.6162 15.6294C16.6572 15.7251 16.6777 15.8276 16.6777 15.937C16.6777 16.0874 16.6436 16.2241 16.5752 16.3472C16.5114 16.4702 16.4202 16.5659 16.3018 16.6343C16.1833 16.7072 16.0465 16.7437 15.8916 16.7437C15.7822 16.7437 15.6774 16.7231 15.5771 16.6821C15.4814 16.6457 15.3926 16.5887 15.3105 16.5112L11.9473 13.1411C11.5007 13.4601 11.0085 13.7108 10.4707 13.8931C9.93294 14.0754 9.36784 14.1665 8.77539 14.1665C8.02344 14.1665 7.31706 14.0252 6.65625 13.7427C6 13.4601 5.42122 13.0682 4.91992 12.5669C4.41862 12.0656 4.02669 11.4868 3.74414 10.8306C3.46159 10.1698 3.32031 9.46338 3.32031 8.71143ZM4.48926 8.71143C4.48926 9.30387 4.59863 9.85986 4.81738 10.3794C5.04069 10.8944 5.34831 11.3478 5.74023 11.7397C6.13672 12.1317 6.59245 12.4393 7.10742 12.6626C7.62695 12.8859 8.18294 12.9976 8.77539 12.9976C9.36784 12.9976 9.92155 12.8859 10.4365 12.6626C10.9561 12.4393 11.4118 12.1317 11.8037 11.7397C12.1956 11.3478 12.5033 10.8944 12.7266 10.3794C12.9499 9.85986 13.0615 9.30387 13.0615 8.71143C13.0615 8.11898 12.9499 7.56527 12.7266 7.05029C12.5033 6.53076 12.1956 6.07503 11.8037 5.68311C11.4118 5.28662 10.9561 4.979 10.4365 4.76025C9.92155 4.53695 9.36784 4.42529 8.77539 4.42529C8.18294 4.42529 7.62695 4.53695 7.10742 4.76025C6.59245 4.979 6.13672 5.28662 5.74023 5.68311C5.34831 6.07503 5.04069 6.53076 4.81738 7.05029C4.59863 7.56527 4.48926 8.11898 4.48926 8.71143Z" fill="#9B9B9B"/>
</svg>