<svg width="18" height="19" viewBox="0 0 18 19" fill="none" xmlns="http://www.w3.org/2000/svg">
<path d="M14.1267 9.98438C14.1267 12.7458 11.8881 14.9844 9.12671 14.9844C6.36528 14.9844 4.12671 12.7458 4.12671 9.98438C4.12671 7.22295 6.36528 4.98438 9.12671 4.98438C11.8881 4.98438 14.1267 7.22295 14.1267 9.98438Z" stroke="white" stroke-width="4"/>
<path d="M10.9705 4.48438C10.9705 4.76052 10.7466 4.98438 10.4705 4.98438H7.47046C7.19432 4.98438 6.97046 4.76052 6.97046 4.48438V1.48437C6.97046 1.20823 7.19432 0.984375 7.47046 0.984375H10.4705C10.7466 0.984375 10.9705 1.20823 10.9705 1.48438V4.48438Z" fill="white"/>
<path d="M10.9705 18.4844C10.9705 18.7605 10.7466 18.9844 10.4705 18.9844H7.47046C7.19432 18.9844 6.97046 18.7605 6.97046 18.4844V15.4844C6.97046 15.2082 7.19432 14.9844 7.47046 14.9844H10.4705C10.7466 14.9844 10.9705 15.2082 10.9705 15.4844V18.4844Z" fill="white"/>
<path d="M14.7335 8.96643C14.4944 9.1045 14.1886 9.02256 14.0505 8.78342L12.5505 6.18534C12.4125 5.9462 12.4944 5.6404 12.7335 5.50233L15.3316 4.00233C15.5708 3.86426 15.8766 3.9462 16.0146 4.18534L17.5146 6.78342C17.6527 7.02256 17.5708 7.32836 17.3316 7.46643L14.7335 8.96643Z" fill="white"/>
<path d="M2.60928 15.9664C2.37014 16.1045 2.06434 16.0226 1.92627 15.7834L0.42627 13.1853C0.288198 12.9462 0.370136 12.6404 0.609282 12.5023L3.20736 11.0023C3.4465 10.8643 3.7523 10.9462 3.89037 11.1853L5.39037 13.7834C5.52844 14.0226 5.4465 14.3284 5.20736 14.4664L2.60928 15.9664Z" fill="white"/>
<path d="M12.7335 14.4664C12.4944 14.3284 12.4125 14.0226 12.5505 13.7834L14.0505 11.1853C14.1886 10.9462 14.4944 10.8643 14.7335 11.0023L17.3316 12.5023C17.5708 12.6404 17.6527 12.9462 17.5146 13.1853L16.0146 15.7834C15.8766 16.0226 15.5708 16.1045 15.3316 15.9664L12.7335 14.4664Z" fill="white"/>
<path d="M0.609282 7.46643C0.370136 7.32836 0.288198 7.02256 0.42627 6.78342L1.92627 4.18534C2.06434 3.9462 2.37014 3.86426 2.60928 4.00233L5.20736 5.50233C5.4465 5.6404 5.52844 5.9462 5.39037 6.18534L3.89037 8.78342C3.7523 9.02256 3.4465 9.1045 3.20736 8.96643L0.609282 7.46643Z" fill="white"/>
</svg>