<svg width="32" height="16" viewBox="0 0 32 16" fill="none" xmlns="http://www.w3.org/2000/svg">
<path d="M11.3233 0.0251465H0.321607L0 3.9584H0.342396C0.58872 1.0125 0.859298 0.496773 3.81392 0.496773C4.15632 0.496773 4.71259 0.496773 4.86568 0.496773C5.22949 0.549992 5.22949 0.766105 5.22949 1.1754V10.8567C5.22949 11.4994 5.17185 11.6955 3.56697 11.6955H3.02613V12.1251C3.94023 12.1087 4.89277 12.0913 5.82735 12.0913C6.7591 12.0913 7.71447 12.1087 8.62794 12.1251V11.6955H8.09624C6.51529 11.6955 6.45828 11.4994 6.45828 10.8567V1.17569C6.45828 0.782865 6.45828 0.569692 6.8013 0.497067H7.84676C10.762 0.497067 11.0474 1.00986 11.2934 3.9587H11.6364" fill="#cbc9bd"/>
<path d="M20.8837 11.5053H20.5413C20.1236 14.1425 19.8773 15.5759 16.5261 15.5759H13.8817C13.1207 15.5759 13.0848 15.4862 13.0848 14.8743V9.90314H14.8821C16.6795 9.90314 16.8508 10.518 16.8508 12.019H17.157V7.39241H16.8508C16.8508 8.86815 16.6791 9.4715 14.8821 9.4715H13.0845V5.06398C13.0845 4.46356 13.1207 4.37388 13.8814 4.37388H16.4864C19.4347 4.37388 19.7777 5.46768 20.0448 7.81905H20.3882L19.9311 3.8855H10.2842V4.37388C11.6336 4.37388 11.8497 4.37388 11.8497 5.17335V14.7711C11.8497 15.5706 11.6364 15.5706 10.2842 15.5706V16.0002H20.1989" fill="#cbc9bd"/>
<path d="M26.0195 5.39488L28.8383 1.59071C29.1206 1.21729 29.6948 0.448692 31.2581 0.429286V0C30.8218 0.0338136 30.098 0.0338136 29.6409 0.0338136C29.0131 0.0338136 28.2313 0.0338136 27.7566 0V0.42958C28.3668 0.482799 28.5167 0.838871 28.5167 1.12555C28.5167 1.33814 28.4235 1.48162 28.2884 1.65834L25.7731 5.06381L22.9543 1.21229C22.822 1.01852 22.8034 0.962364 22.8034 0.909145C22.8034 0.748898 23.011 0.446045 23.6419 0.429286V0C23.0318 0.0338136 22.1 0.0338136 21.4722 0.0338136C20.979 0.0338136 20.0267 0.0338136 19.5665 0V0.42958C20.6129 0.42958 20.9553 0.466333 21.3762 1.01852L25.0515 6.05734L21.7372 10.5769C20.9194 11.6822 19.6815 11.7016 19.3174 11.7016V12.1311C19.7527 12.0973 20.4775 12.0973 20.9346 12.0973C21.4486 12.0973 22.3441 12.0973 22.8188 12.1311V11.7016C22.2295 11.6483 22.0588 11.2923 22.0588 11.0056C22.0588 10.7757 22.152 10.6495 22.2481 10.5231L25.2956 6.37136L28.61 10.9188C28.7599 11.1156 28.7599 11.1688 28.7599 11.222C28.7599 11.362 28.5892 11.668 27.922 11.7045V12.1341C28.5322 12.1003 29.4639 12.1003 30.0917 12.1003C30.585 12.1003 31.5372 12.1003 31.9996 12.1341V11.7045C30.7793 11.7045 30.5872 11.6175 30.2085 11.1156" fill="#cbc9bd"/>
</svg>
