<svg width="32" height="32" viewBox="0 0 32 32" fill="none" xmlns="http://www.w3.org/2000/svg">
<path d="M0 6C0 2.68629 2.68629 0 6 0H26C29.3137 0 32 2.68629 32 6V26C32 29.3137 29.3137 32 26 32H6C2.68629 32 0 29.3137 0 26V6Z" fill="#57C600"/>
<path d="M15 7C15 6.44771 15.4477 6 16 6C16.5523 6 17 6.44772 17 7V24C17 24.5523 16.5523 25 16 25C15.4477 25 15 24.5523 15 24V7Z" fill="white"/>
<path fill-rule="evenodd" clip-rule="evenodd" d="M6.29289 15.2929C6.68342 14.9024 7.31658 14.9024 7.70711 15.2929L16 23.5858L24.2929 15.2929C24.6834 14.9024 25.3166 14.9024 25.7071 15.2929C26.0976 15.6834 26.0976 16.3166 25.7071 16.7071L16 26.4142L6.29289 16.7071C5.90237 16.3166 5.90237 15.6834 6.29289 15.2929Z" fill="white"/>
</svg>