<svg width="29" height="28" viewBox="0 0 29 28" fill="none" xmlns="http://www.w3.org/2000/svg">
<path d="M14.6724 13C16.0226 13 17.2684 13.4465 18.271 14.1992C16.1917 14.8052 14.6724 16.7251 14.6724 19C14.6724 19.7112 14.8217 20.3874 15.0894 21H10.272C9.38863 20.9998 8.67257 20.2837 8.67236 19.4004V19C8.67236 15.6863 11.3587 13 14.6724 13ZM14.6724 6C16.1911 6 17.4224 7.34315 17.4224 9C17.4224 10.6569 16.1911 12 14.6724 12C13.1536 12 11.9224 10.6569 11.9224 9C11.9224 7.34315 13.1536 6 14.6724 6Z" fill="#252525"/>
<path fill-rule="evenodd" clip-rule="evenodd" d="M19.6724 23C21.8815 23 23.6724 21.2091 23.6724 19C23.6724 16.7909 21.8815 15 19.6724 15C17.4632 15 15.6724 16.7909 15.6724 19C15.6724 21.2091 17.4632 23 19.6724 23ZM20.4224 17.25C20.4224 16.8358 20.0866 16.5 19.6724 16.5C19.2581 16.5 18.9224 16.8358 18.9224 17.25V18.25H17.9224C17.5081 18.25 17.1724 18.5858 17.1724 19C17.1724 19.4142 17.5081 19.75 17.9224 19.75H18.9224V20.75C18.9224 21.1642 19.2581 21.5 19.6724 21.5C20.0866 21.5 20.4224 21.1642 20.4224 20.75V19.75H21.4224C21.8366 19.75 22.1724 19.4142 22.1724 19C22.1724 18.5858 21.8366 18.25 21.4224 18.25H20.4224V17.25Z" fill="#252525"/>
</svg>
