<svg width="29" height="28" viewBox="0 0 29 28" fill="none" xmlns="http://www.w3.org/2000/svg">
<path d="M9.62744 21.1265C9.36312 21.1265 9.1945 21.0399 9.12158 20.8667C9.05322 20.6981 9.08512 20.5272 9.21729 20.354C9.30387 20.2401 9.42692 20.0874 9.58643 19.896C9.75049 19.7091 9.91911 19.5041 10.0923 19.2808C10.2655 19.0575 10.4159 18.841 10.5435 18.6313C10.5708 18.5812 10.5754 18.5334 10.5571 18.4878C10.5435 18.4377 10.5116 18.3989 10.4614 18.3716C9.73226 17.9797 9.10107 17.5125 8.56787 16.9702C8.03923 16.4233 7.63135 15.8218 7.34424 15.1655C7.06169 14.5093 6.92041 13.8166 6.92041 13.0874C6.92041 12.2261 7.11865 11.4194 7.51514 10.6675C7.91618 9.91553 8.46989 9.257 9.17627 8.69189C9.88721 8.12223 10.7121 7.6779 11.6509 7.35889C12.5897 7.03532 13.5968 6.87354 14.6724 6.87354C15.7479 6.87354 16.755 7.03532 17.6938 7.35889C18.6326 7.6779 19.4552 8.12223 20.1616 8.69189C20.8726 9.257 21.4263 9.91553 21.8228 10.6675C22.2238 11.4194 22.4243 12.2261 22.4243 13.0874C22.4243 13.7664 22.299 14.4159 22.0483 15.0356C21.7977 15.6554 21.4354 16.2251 20.9614 16.7446C20.4875 17.2596 19.9132 17.7085 19.2388 18.0913C18.5688 18.4741 17.8123 18.7703 16.9692 18.98C16.1261 19.1896 15.2124 19.2944 14.228 19.2944C14.187 19.2944 14.1437 19.2922 14.0981 19.2876C14.0526 19.2876 14.007 19.2853 13.9614 19.2808C13.9159 19.2808 13.868 19.2899 13.8179 19.3081C13.7677 19.3263 13.7131 19.356 13.6538 19.397C13.3621 19.6066 13.0272 19.8117 12.6489 20.0122C12.2752 20.2173 11.8947 20.4041 11.5073 20.5728C11.1245 20.7414 10.7668 20.8758 10.4341 20.9761C10.1014 21.0763 9.83252 21.1265 9.62744 21.1265Z" fill="#252525"/>
</svg>
