<svg width="28" height="28" viewBox="0 0 28 28" fill="none" xmlns="http://www.w3.org/2000/svg">
<path d="M20.2162 16.8742C20.1579 16.8039 20.1006 16.7336 20.0444 16.6657C19.2716 15.7302 18.8041 15.1656 18.8041 12.5173C18.8041 11.1462 18.4764 10.0212 17.8304 9.17742C17.3541 8.5541 16.7102 8.08125 15.8615 7.7318C15.8506 7.72572 15.8409 7.71774 15.8327 7.70824C15.5275 6.6852 14.6922 6 13.7501 6C12.808 6 11.973 6.6852 11.6678 7.70719C11.6596 7.71634 11.65 7.72406 11.6393 7.73004C9.65889 8.54602 8.69642 10.1115 8.69642 12.5162C8.69642 15.1656 8.22959 15.7302 7.4561 16.6646C7.3999 16.7325 7.34264 16.8014 7.28433 16.8731C7.13371 17.0549 7.03828 17.2761 7.00933 17.5105C6.98038 17.7449 7.01913 17.9827 7.12099 18.1957C7.33772 18.6527 7.79964 18.9364 8.32689 18.9364H19.1771C19.7019 18.9364 20.1607 18.6531 20.3781 18.1982C20.4804 17.9851 20.5195 17.7471 20.4908 17.5124C20.4621 17.2778 20.3668 17.0563 20.2162 16.8742ZM13.7501 21.75C14.2577 21.7496 14.7557 21.6117 15.1913 21.3509C15.6269 21.0902 15.9839 20.7163 16.2244 20.2689C16.2357 20.2474 16.2413 20.2234 16.2406 20.1992C16.24 20.1749 16.233 20.1513 16.2205 20.1305C16.208 20.1097 16.1903 20.0926 16.1692 20.0806C16.1481 20.0687 16.1243 20.0625 16.1001 20.0625H11.4008C11.3766 20.0624 11.3527 20.0686 11.3315 20.0805C11.3104 20.0924 11.2927 20.1096 11.2801 20.1304C11.2675 20.1511 11.2606 20.1748 11.2599 20.1991C11.2592 20.2234 11.2648 20.2474 11.2761 20.2689C11.5166 20.7162 11.8735 21.0901 12.3091 21.3508C12.7446 21.6116 13.2426 21.7495 13.7501 21.75Z" fill="#252525"/>
</svg>
