<svg width="28" height="28" viewBox="0 0 28 28" fill="none" xmlns="http://www.w3.org/2000/svg">
<path d="M13.3111 22C12.8593 22 12.528 21.7363 12.4301 21.2994L12.0536 19.6949C11.7901 19.6045 11.5416 19.5066 11.3158 19.4011L9.92282 20.2599C9.55388 20.4934 9.11718 20.4557 8.80847 20.1469L7.84471 19.1827C7.536 18.8738 7.49082 18.4218 7.73929 18.0527L8.59012 16.6667C8.48471 16.4331 8.38682 16.1921 8.31153 15.9586L6.70024 15.5744C6.26353 15.4765 6 15.145 6 14.7006V13.3446C6 12.9002 6.26353 12.5687 6.70024 12.4708L8.29647 12.0866C8.37929 11.8154 8.48471 11.5744 8.57506 11.371L7.72424 9.9548C7.48329 9.57815 7.51341 9.15631 7.82965 8.83992L8.80847 7.87571C9.12471 7.58192 9.51624 7.53672 9.89271 7.74765L11.3082 8.61394C11.5341 8.50094 11.7901 8.40301 12.0536 8.31262L12.4301 6.7081C12.528 6.26365 12.8593 6 13.3111 6H14.6889C15.1332 6 15.472 6.26365 15.5624 6.70056L15.9464 8.32768C16.2174 8.41808 16.4584 8.51601 16.6767 8.62147L18.0998 7.74765C18.4762 7.53672 18.8678 7.58945 19.184 7.87571L20.1628 8.83992C20.4791 9.15631 20.5092 9.57815 20.2682 9.9548L19.4174 11.371C19.5078 11.5744 19.6132 11.8154 19.7035 12.0866L21.2998 12.4708C21.7365 12.5687 22 12.9002 22 13.3446V14.7006C22 15.145 21.7365 15.4765 21.2998 15.5744L19.6885 15.9586C19.6132 16.1921 19.5078 16.4331 19.4024 16.6667L20.2532 18.0527C20.5016 18.4218 20.4565 18.8738 20.1478 19.1827L19.184 20.1469C18.8753 20.4557 18.4461 20.4934 18.0772 20.2599L16.6767 19.4011C16.4508 19.5066 16.2024 19.6045 15.9464 19.6949L15.5624 21.2994C15.472 21.7363 15.1332 22 14.6889 22H13.3111ZM14.0038 16.6365C15.4494 16.6365 16.6315 15.4463 16.6315 13.9925C16.6315 12.5537 15.4494 11.3635 14.0038 11.3635C12.5506 11.3635 11.3609 12.5537 11.3609 13.9925C11.3609 15.4463 12.5506 16.6365 14.0038 16.6365Z" fill="#252525"/>
</svg>
