<svg width="20" height="20" viewBox="0 0 20 20" fill="none" xmlns="http://www.w3.org/2000/svg">
<path d="M4.93359 17.1943C4.66927 17.1943 4.50065 17.1077 4.42773 16.9346C4.35938 16.766 4.39128 16.5951 4.52344 16.4219C4.61003 16.3079 4.73307 16.1553 4.89258 15.9639C5.05664 15.777 5.22526 15.5719 5.39844 15.3486C5.57161 15.1253 5.72201 14.9089 5.84961 14.6992C5.87695 14.6491 5.88151 14.6012 5.86328 14.5557C5.84961 14.5055 5.81771 14.4668 5.76758 14.4395C5.03841 14.0475 4.40723 13.5804 3.87402 13.0381C3.34538 12.4912 2.9375 11.8896 2.65039 11.2334C2.36784 10.5771 2.22656 9.88444 2.22656 9.15527C2.22656 8.29395 2.4248 7.4873 2.82129 6.73535C3.22233 5.9834 3.77604 5.32487 4.48242 4.75977C5.19336 4.1901 6.01823 3.74577 6.95703 3.42676C7.89583 3.10319 8.90299 2.94141 9.97852 2.94141C11.054 2.94141 12.0612 3.10319 13 3.42676C13.9388 3.74577 14.7614 4.1901 15.4678 4.75977C16.1787 5.32487 16.7324 5.9834 17.1289 6.73535C17.5299 7.4873 17.7305 8.29395 17.7305 9.15527C17.7305 9.83431 17.6051 10.4837 17.3545 11.1035C17.1038 11.7233 16.7415 12.293 16.2676 12.8125C15.7936 13.3275 15.2194 13.7764 14.5449 14.1592C13.875 14.542 13.1185 14.8382 12.2754 15.0479C11.4323 15.2575 10.5186 15.3623 9.53418 15.3623C9.49316 15.3623 9.44987 15.36 9.4043 15.3555C9.35872 15.3555 9.31315 15.3532 9.26758 15.3486C9.22201 15.3486 9.17415 15.3577 9.12402 15.376C9.07389 15.3942 9.01921 15.4238 8.95996 15.4648C8.66829 15.6745 8.33333 15.8796 7.95508 16.0801C7.58138 16.2852 7.20085 16.472 6.81348 16.6406C6.43066 16.8092 6.07292 16.9437 5.74023 17.0439C5.40755 17.1442 5.13867 17.1943 4.93359 17.1943Z" fill="#252525"/>
</svg>
