<svg width="48" height="48" viewBox="0 0 48 48" fill="none" xmlns="http://www.w3.org/2000/svg">
<circle cx="24.0002" cy="24" r="13.25" transform="rotate(-45 24.0002 24)" stroke="#252525" stroke-width="1.5"/>
<path d="M33.1042 14.3657C34.3939 15.6554 34.7455 17.8462 34.0115 20.5376C33.2839 23.2053 31.5201 26.2029 28.8616 28.8614C26.2031 31.5199 23.2055 33.2837 20.5377 34.0113C17.8464 34.7453 15.6555 34.3937 14.3659 33.1041C13.0762 31.8144 12.7246 29.6236 13.4586 26.9322C14.1862 24.2645 15.9501 21.2669 18.6085 18.6084C21.267 15.9499 24.2646 14.186 26.9324 13.4585C29.6238 12.7245 31.8146 13.0761 33.1042 14.3657Z" stroke="#252525" stroke-width="1.5"/>
<rect x="13.8354" y="32.5732" width="26" height="1.5" transform="rotate(-45 13.8354 32.5732)" fill="#252525"/>
<rect x="32.2202" y="33.6348" width="26" height="1.5" transform="rotate(-135 32.2202 33.6348)" fill="#252525"/>
</svg>
