<svg xmlns="http://www.w3.org/2000/svg" width="20" height="20" viewBox="0 0 20 20" fill="none">
    <circle cx="9.99999" cy="10" r="7.5" transform="rotate(-45 9.99999 10)" stroke="#828282"/>
    <path d="M4.69671 4.78517C4.92144 4.56045 5.26601 4.42132 5.75944 4.41298C6.25625 4.40458 6.8705 4.53159 7.56795 4.80451C8.9613 5.34979 10.5963 6.44212 12.1213 7.96715C13.6464 9.49219 14.7387 11.1272 15.284 12.5205C15.5569 13.218 15.6839 13.8322 15.6755 14.329C15.6672 14.8225 15.528 15.1671 15.3033 15.3918C15.0786 15.6165 14.734 15.7556 14.2406 15.764C13.7438 15.7724 13.1295 15.6454 12.4321 15.3724C11.0387 14.8272 9.40373 13.7348 7.87869 12.2098C6.35366 10.6848 5.26133 9.04976 4.71605 7.65641C4.44313 6.95896 4.31612 6.34471 4.32452 5.84791C4.33286 5.35447 4.47199 5.0099 4.69671 4.78517Z" stroke="#828282"/>
    <path d="M4.97168 15.0283C4.97168 15.0283 11.6891 8.31066 15.0283 4.97169" stroke="#828282"/>
</svg>
