<svg width="48" height="48" viewBox="0 0 48 48" fill="none" xmlns="http://www.w3.org/2000/svg">
<rect width="48" height="48" rx="2" fill="#2B2B2B"/>
<path opacity="0.9" fill-rule="evenodd" clip-rule="evenodd" d="M24.5704 24.0005L33.5979 14.973C34.6621 16.285 34.9255 18.3402 34.2575 20.8301C33.5683 23.3991 31.9161 26.2737 29.4227 28.8528L24.5704 24.0005ZM35.3723 17.3083C38.2873 22.2547 37.6994 28.6946 33.6085 33.0386L29.9939 29.424C33.8297 25.4606 35.7999 20.7607 35.3723 17.3083ZM33.7801 13.9831L33.6128 13.8159L33.6095 13.8192C28.2206 8.72703 19.7782 8.72717 14.3895 13.8196L14.3855 13.8156L14.1005 14.1006L13.8144 14.3867L13.8184 14.3908C8.72713 19.7795 8.72738 28.221 13.8192 33.6095L13.8144 33.6143L14.1003 33.9001L14.3856 34.1854L14.3903 34.1806C19.7788 39.2721 28.22 39.2722 33.6087 34.181L33.6128 34.1851L33.8989 33.8989L34.1839 33.614L34.1799 33.61C39.2722 28.2213 39.2724 19.7792 34.1806 14.3903L34.1839 14.387L34.0164 14.2194C33.9775 14.1796 33.9383 14.14 33.8989 14.1006C33.8595 14.0611 33.8199 14.022 33.7801 13.9831ZM33.0374 33.6097L29.4228 29.9951C25.4612 33.8293 20.7637 35.7995 17.3116 35.3743C22.2571 38.2868 28.6944 37.6986 33.0374 33.6097ZM12.6262 30.6895C12.2005 27.2374 14.1708 22.5394 18.0053 18.5776L14.3898 14.9621C10.3004 19.3056 9.71251 25.7438 12.6262 30.6895ZM14.9609 14.391L18.5764 18.0065C22.54 14.1704 27.2403 12.2001 30.6928 12.6282C25.7462 9.71202 19.3053 10.2996 14.9609 14.391ZM23.9993 24.5716L28.8516 29.4239C26.2725 31.9174 23.3978 33.5697 20.8287 34.2589C18.3388 34.927 16.2835 34.6635 14.9715 33.5994L23.9993 24.5716ZM23.4282 24.0005L14.4005 33.0282C13.3368 31.7162 13.0735 29.6612 13.7414 27.1716C14.4307 24.6026 16.083 21.7279 18.5765 19.1488L23.4282 24.0005ZM23.9993 23.4294L19.1476 18.5777C21.7266 16.0843 24.6012 14.4321 27.1702 13.7428C29.6598 13.0749 31.7148 13.3382 33.0268 14.4019L23.9993 23.4294Z" fill="white"/>
</svg>