<svg width="12" height="12" viewBox="0 0 12 12" fill="none" xmlns="http://www.w3.org/2000/svg">
<path d="M6.36719 11.8883C5.41094 11.8883 4.56562 11.757 3.83125 11.4945C3.09687 11.2352 2.47969 10.8523 1.97969 10.3461C1.47969 9.83984 1.10156 9.21953 0.845312 8.48516C0.589062 7.75078 0.460938 6.91016 0.460938 5.96328C0.460938 5.04766 0.590625 4.22891 0.85 3.50703C1.1125 2.78516 1.49219 2.17266 1.98906 1.66953C2.48906 1.16328 3.09531 0.777344 3.80781 0.511719C4.52344 0.246094 5.33281 0.113281 6.23594 0.113281C7.11406 0.113281 7.88281 0.257031 8.54219 0.544531C9.20469 0.828906 9.75781 1.21484 10.2016 1.70234C10.6484 2.18672 10.9828 2.73203 11.2047 3.33828C11.4297 3.94453 11.5422 4.56953 11.5422 5.21328C11.5422 5.66641 11.5203 6.12578 11.4766 6.59141C11.4328 7.05703 11.3406 7.48516 11.2 7.87578C11.0594 8.26328 10.8422 8.57578 10.5484 8.81328C10.2578 9.05078 9.86406 9.16953 9.36719 9.16953C9.14844 9.16953 8.90781 9.13516 8.64531 9.06641C8.38281 8.99766 8.15 8.88359 7.94687 8.72422C7.74375 8.56484 7.62344 8.35078 7.58594 8.08203H7.52969C7.45469 8.26328 7.33906 8.43516 7.18281 8.59766C7.02969 8.76016 6.82812 8.88984 6.57812 8.98672C6.33125 9.08359 6.02969 9.12578 5.67344 9.11328C5.26719 9.09766 4.90938 9.00703 4.6 8.84141C4.29063 8.67266 4.03125 8.44453 3.82187 8.15703C3.61562 7.86641 3.45937 7.53047 3.35312 7.14922C3.25 6.76484 3.19844 6.35078 3.19844 5.90703C3.19844 5.48516 3.26094 5.09922 3.38594 4.74922C3.51094 4.39922 3.68437 4.09297 3.90625 3.83047C4.13125 3.56797 4.39375 3.35859 4.69375 3.20234C4.99687 3.04297 5.32344 2.94453 5.67344 2.90703C5.98594 2.87578 6.27031 2.88984 6.52656 2.94922C6.78281 3.00547 6.99375 3.09141 7.15938 3.20703C7.325 3.31953 7.42969 3.44453 7.47344 3.58203H7.52969V3.05703H8.52344V7.29453C8.52344 7.55703 8.59688 7.78828 8.74375 7.98828C8.89062 8.18828 9.10469 8.28828 9.38594 8.28828C9.70469 8.28828 9.94844 8.17891 10.1172 7.96016C10.2891 7.74141 10.4062 7.40391 10.4687 6.94766C10.5344 6.49141 10.5672 5.90703 10.5672 5.19453C10.5672 4.77578 10.5094 4.36328 10.3937 3.95703C10.2812 3.54766 10.1094 3.16484 9.87812 2.80859C9.65 2.45234 9.36094 2.13828 9.01094 1.86641C8.66094 1.59453 8.25 1.38203 7.77813 1.22891C7.30937 1.07266 6.77656 0.994532 6.17969 0.994532C5.44531 0.994532 4.7875 1.10859 4.20625 1.33672C3.62812 1.56172 3.13594 1.89141 2.72969 2.32578C2.32656 2.75703 2.01875 3.28203 1.80625 3.90078C1.59687 4.51641 1.49219 5.21641 1.49219 6.00078C1.49219 6.79766 1.59687 7.50547 1.80625 8.12422C2.01875 8.74297 2.33125 9.26484 2.74375 9.68984C3.15937 10.1148 3.67344 10.4367 4.28594 10.6555C4.89844 10.8773 5.60469 10.9883 6.40469 10.9883C6.74844 10.9883 7.0875 10.9555 7.42188 10.8898C7.75625 10.8242 8.05156 10.7523 8.30781 10.6742C8.56406 10.5961 8.74844 10.5383 8.86094 10.5008L9.12344 11.3633C8.92969 11.4445 8.67656 11.5258 8.36406 11.607C8.05469 11.6883 7.72344 11.7555 7.37031 11.8086C7.02031 11.8617 6.68594 11.8883 6.36719 11.8883ZM5.82344 8.15703C6.24219 8.15703 6.58125 8.07266 6.84062 7.90391C7.1 7.73516 7.28906 7.48047 7.40781 7.13984C7.52656 6.79922 7.58594 6.36953 7.58594 5.85078C7.58594 5.32578 7.52031 4.91641 7.38906 4.62266C7.25781 4.32891 7.06406 4.12266 6.80781 4.00391C6.55156 3.88516 6.23594 3.82578 5.86094 3.82578C5.50469 3.82578 5.2 3.91953 4.94688 4.10703C4.69688 4.29141 4.50469 4.53828 4.37031 4.84766C4.23906 5.15391 4.17344 5.48828 4.17344 5.85078C4.17344 6.25078 4.22656 6.62734 4.33281 6.98047C4.43906 7.33047 4.6125 7.61484 4.85312 7.83359C5.09375 8.04922 5.41719 8.15703 5.82344 8.15703Z" fill="white"/>
</svg>