<svg width="18" height="18" viewBox="0 0 18 18" fill="none" xmlns="http://www.w3.org/2000/svg">
    <path d="M10.7402 13.5264C10.7137 13.7924 10.6222 14.0396 10.4668 14.2676C10.3152 14.4954 10.1122 14.6798 9.8584 14.8203C9.60451 14.9608 9.3162 15.0312 8.99414 15.0312C8.67591 15.0312 8.38959 14.9609 8.13574 14.8203C7.88187 14.6797 7.67685 14.4955 7.52148 14.2676C7.36612 14.0396 7.27764 13.7923 7.25488 13.5264H10.7402ZM13.3848 12.7451H4.49121C4.22234 12.7451 4.01192 12.6828 3.86035 12.5576C3.70877 12.4322 3.63286 12.2646 3.63281 12.0557C3.63281 11.8657 3.68802 11.6815 3.79785 11.5029C3.90772 11.3244 4.04415 11.1494 4.20703 10.9785C4.37382 10.8075 4.53915 10.6359 4.70215 10.4648C4.82707 10.3357 4.92401 10.1668 4.99219 9.95801C5.06418 9.74907 5.11725 9.52653 5.15137 9.29102C5.18548 9.05539 5.20945 8.82687 5.22461 8.60645C5.23598 7.87692 5.31402 7.2272 5.45801 6.65723C5.58311 6.16213 5.76954 5.73543 6.01758 5.37793L13.3848 12.7451ZM8.99414 3.03125C9.4148 3.03125 9.7675 3.16063 10.0518 3.41895C10.336 3.67737 10.5316 3.99279 10.6377 4.36523C11.1418 4.54766 11.5475 4.83305 11.8545 5.2207C12.1615 5.60832 12.3872 6.08725 12.5312 6.65723C12.679 7.22719 12.7582 7.87693 12.7695 8.60645C12.7847 8.82687 12.8096 9.05539 12.8438 9.29102C12.8779 9.52651 12.9289 9.74909 12.9971 9.95801C13.0691 10.1669 13.168 10.3357 13.293 10.4648C13.456 10.6359 13.6192 10.8075 13.7822 10.9785C13.9489 11.1494 14.0874 11.3244 14.1973 11.5029C14.307 11.6814 14.3623 11.8658 14.3623 12.0557C14.3623 12.1349 14.3509 12.2081 14.3291 12.2754L6.73145 4.67773C6.92032 4.55279 7.12878 4.44797 7.35742 4.36523C7.46354 3.99291 7.65822 3.67733 7.94238 3.41895C8.22658 3.1606 8.57737 3.03134 8.99414 3.03125Z" fill="#9B9B9B"/>
    <path d="M14.5 14.5L3.5 3.5" stroke="#9B9B9B" stroke-linecap="round"/>
</svg>
