<svg width="18" height="18" viewBox="0 0 18 18" fill="none" xmlns="http://www.w3.org/2000/svg">
    <path d="M3.95588 7.46818C4.22933 7.19473 4.56608 6.99471 4.96613 6.86811C5.36871 6.74404 5.80801 6.70227 6.28402 6.74278C6.76256 6.78076 7.24489 6.91115 7.73103 7.13396L9.61861 5.49705C9.53505 5.20081 9.46922 4.91724 9.42111 4.64632C9.37554 4.37793 9.34389 4.13359 9.32616 3.91331C9.3135 3.69303 9.3173 3.50693 9.33756 3.35502C9.36794 3.12208 9.4477 2.94104 9.57683 2.81191C9.70343 2.68531 9.85028 2.62455 10.0174 2.62961C10.1896 2.63468 10.3465 2.7081 10.4883 2.84989L14.5749 6.93647C14.7142 7.07573 14.7863 7.23144 14.7914 7.40362C14.799 7.57326 14.7395 7.72138 14.6129 7.84798C14.4838 7.97711 14.3015 8.0556 14.066 8.08345C13.9166 8.10624 13.7305 8.11003 13.5077 8.09484C13.2899 8.07965 13.0456 8.048 12.7747 7.99989C12.5063 7.94925 12.2227 7.88342 11.924 7.8024L10.287 9.68998C10.5124 10.1786 10.644 10.6622 10.682 11.1408C10.7225 11.6168 10.6795 12.0548 10.5529 12.4549C10.4288 12.8575 10.2301 13.1955 9.95662 13.4689C9.78445 13.6411 9.59075 13.7259 9.37554 13.7234C9.16538 13.7209 8.96916 13.6284 8.78686 13.4461L6.75876 11.418L4.96613 13.2107C4.83194 13.3449 4.68635 13.4601 4.52937 13.5563C4.37239 13.6576 4.22174 13.7373 4.07742 13.7955C3.93309 13.8588 3.80903 13.8994 3.70522 13.9171C3.60394 13.9373 3.54064 13.9348 3.51532 13.9095C3.48747 13.8816 3.48367 13.8171 3.50393 13.7158C3.52418 13.6145 3.56469 13.4904 3.62546 13.3436C3.6837 13.1993 3.76345 13.0486 3.86473 12.8916C3.96348 12.7372 4.07995 12.5929 4.21414 12.4587L6.00677 10.666L3.97487 8.63415C3.7951 8.45438 3.70269 8.25815 3.69762 8.04547C3.69762 7.83278 3.78371 7.64036 3.95588 7.46818Z" fill="#9B9B9B"/>
</svg>
