<svg width="49" height="48" viewBox="0 0 49 48" fill="none" xmlns="http://www.w3.org/2000/svg">
<path fill-rule="evenodd" clip-rule="evenodd" d="M24.5 16C24.0858 16 23.75 16.3358 23.75 16.75V23.25H17.25C16.8358 23.25 16.5 23.5858 16.5 24C16.5 24.4142 16.8358 24.75 17.25 24.75H23.75V31.25C23.75 31.6642 24.0858 32 24.5 32C24.9142 32 25.25 31.6642 25.25 31.25V24.75H31.75C32.1642 24.75 32.5 24.4142 32.5 24C32.5 23.5858 32.1642 23.25 31.75 23.25H25.25V16.75C25.25 16.3358 24.9142 16 24.5 16Z" fill="#252525"/>
</svg>