<svg width="20" height="20" viewBox="0 0 20 20" fill="none" xmlns="http://www.w3.org/2000/svg">
<path fill-rule="evenodd" clip-rule="evenodd" d="M10 15.5C13.0376 15.5 15.5 13.0376 15.5 10C15.5 6.96243 13.0376 4.5 10 4.5C6.96243 4.5 4.5 6.96243 4.5 10C4.5 13.0376 6.96243 15.5 10 15.5ZM10 17C13.866 17 17 13.866 17 10C17 6.13401 13.866 3 10 3C6.13401 3 3 6.13401 3 10C3 13.866 6.13401 17 10 17Z" fill="#252525"/>
<path d="M9.25 1.75C9.25 1.33579 9.58579 1 10 1C10.4142 1 10.75 1.33579 10.75 1.75V10.11C10.75 10.5242 10.4142 10.86 10 10.86C9.58579 10.86 9.25 10.5242 9.25 10.11V1.75Z" fill="#252525"/>
<path d="M9.25 16.75C9.25 16.3358 9.58579 16 10 16C10.4142 16 10.75 16.3358 10.75 16.75V18.25C10.75 18.6642 10.4142 19 10 19C9.58579 19 9.25 18.6642 9.25 18.25V16.75Z" fill="#252525"/>
<path d="M5.22559 3.2296C5.01848 2.87088 5.14139 2.41218 5.5001 2.20508C5.85882 1.99797 6.31752 2.12088 6.52462 2.4796L7.27462 3.77864C7.48173 4.13735 7.35882 4.59605 7.0001 4.80315C6.64139 5.01026 6.18269 4.88735 5.97559 4.52864L5.22559 3.2296Z" fill="#252525"/>
<path d="M12.7256 16.2198C12.5185 15.8611 12.6414 15.4024 13.0001 15.1953C13.3588 14.9882 13.8175 15.1111 14.0246 15.4698L14.7746 16.7689C14.9817 17.1276 14.8588 17.5863 14.5001 17.7934C14.1414 18.0005 13.6827 17.8776 13.4756 17.5189L12.7256 16.2198Z" fill="#252525"/>
<path d="M2.48057 6.52539C2.12185 6.31828 1.99895 5.85959 2.20605 5.50087C2.41316 5.14215 2.87185 5.01925 3.23057 5.22635L4.52961 5.97635C4.88833 6.18346 5.01124 6.64215 4.80413 7.00087C4.59702 7.35959 4.13833 7.4825 3.77961 7.27539L2.48057 6.52539Z" fill="#252525"/>
<path d="M9.53135 10.5957C9.17264 10.3886 9.04973 9.9299 9.25684 9.57118C9.46394 9.21246 9.92264 9.08956 10.2814 9.29667L17.5198 13.4758C17.8785 13.6829 18.0014 14.1416 17.7943 14.5003C17.5872 14.859 17.1285 14.9819 16.7698 14.7748L9.53135 10.5957Z" fill="#252525"/>
<path d="M1.75 10.75C1.33579 10.75 1 10.4142 1 10C1 9.58579 1.33579 9.25 1.75 9.25H3.25C3.66421 9.25 4 9.58579 4 10C4 10.4142 3.66421 10.75 3.25 10.75H1.75Z" fill="#252525"/>
<path d="M16.75 10.75C16.3358 10.75 16 10.4142 16 10C16 9.58579 16.3358 9.25 16.75 9.25H18.25C18.6642 9.25 19 9.58579 19 10C19 10.4142 18.6642 10.75 18.25 10.75H16.75Z" fill="#252525"/>
<path d="M3.23057 14.7754C2.87186 14.9825 2.41316 14.8596 2.20605 14.5009C1.99895 14.1422 2.12185 13.6835 2.48057 13.4764L9.72054 9.29635C10.0793 9.08925 10.538 9.21215 10.7451 9.57087C10.9522 9.92959 10.8293 10.3883 10.4705 10.5954L3.23057 14.7754Z" fill="#252525"/>
<path d="M16.2208 7.27539C15.8621 7.4825 15.4034 7.35959 15.1963 7.00087C14.9892 6.64215 15.1121 6.18346 15.4708 5.97635L16.7698 5.22635C17.1286 5.01925 17.5873 5.14215 17.7944 5.50087C18.0015 5.85959 17.8786 6.31828 17.5198 6.52539L16.2208 7.27539Z" fill="#252525"/>
<path d="M6.52441 17.5204C6.31731 17.8791 5.85861 18.002 5.4999 17.7949C5.14118 17.5878 5.01827 17.1291 5.22538 16.7704L5.97538 15.4714C6.18248 15.1126 6.64118 14.9897 6.9999 15.1968C7.35861 15.404 7.48152 15.8626 7.27441 16.2214L6.52441 17.5204Z" fill="#252525"/>
<path d="M14.0244 4.53017C13.8173 4.88889 13.3586 5.01179 12.9999 4.80469C12.6412 4.59758 12.5183 4.13889 12.7254 3.78017L13.4754 2.48113C13.6825 2.12241 14.1412 1.9995 14.4999 2.20661C14.8586 2.41372 14.9815 2.87241 14.7744 3.23113L14.0244 4.53017Z" fill="#252525"/>
</svg>