<svg width="48" height="48" viewBox="0 0 48 48" fill="none" xmlns="http://www.w3.org/2000/svg">
<path fill-rule="evenodd" clip-rule="evenodd" d="M24 29.5C27.0376 29.5 29.5 27.0376 29.5 24C29.5 20.9624 27.0376 18.5 24 18.5C20.9624 18.5 18.5 20.9624 18.5 24C18.5 27.0376 20.9624 29.5 24 29.5ZM24 31C27.866 31 31 27.866 31 24C31 20.134 27.866 17 24 17C20.134 17 17 20.134 17 24C17 27.866 20.134 31 24 31Z" fill="#252525"/>
<path d="M23.25 15.75C23.25 15.3358 23.5858 15 24 15C24.4142 15 24.75 15.3358 24.75 15.75V24.11C24.75 24.5242 24.4142 24.86 24 24.86C23.5858 24.86 23.25 24.5242 23.25 24.11V15.75Z" fill="#252525"/>
<path d="M23.25 30.75C23.25 30.3358 23.5858 30 24 30C24.4142 30 24.75 30.3358 24.75 30.75V32.25C24.75 32.6642 24.4142 33 24 33C23.5858 33 23.25 32.6642 23.25 32.25V30.75Z" fill="#252525"/>
<path d="M19.2256 17.2306C19.0185 16.8719 19.1414 16.4132 19.5001 16.2061C19.8588 15.9989 20.3175 16.1219 20.5246 16.4806L21.2746 17.7796C21.4817 18.1383 21.3588 18.597 21.0001 18.8041C20.6414 19.0112 20.1827 18.8883 19.9756 18.5296L19.2256 17.2306Z" fill="#252525"/>
<path d="M26.7256 30.2208C26.5185 29.8621 26.6414 29.4034 27.0001 29.1963C27.3588 28.9892 27.8175 29.1121 28.0246 29.4708L28.7746 30.7698C28.9817 31.1286 28.8588 31.5873 28.5001 31.7944C28.1414 32.0015 27.6827 31.8786 27.4756 31.5198L26.7256 30.2208Z" fill="#252525"/>
<path d="M16.4806 20.5244C16.1219 20.3173 15.9989 19.8586 16.2061 19.4999C16.4132 19.1412 16.8719 19.0183 17.2306 19.2254L18.5296 19.9754C18.8883 20.1825 19.0112 20.6412 18.8041 20.9999C18.597 21.3586 18.1383 21.4815 17.7796 21.2744L16.4806 20.5244Z" fill="#252525"/>
<path d="M23.5314 24.5947C23.1726 24.3876 23.0497 23.9289 23.2568 23.5702C23.4639 23.2115 23.9226 23.0886 24.2814 23.2957L31.5198 27.4748C31.8785 27.6819 32.0014 28.1406 31.7943 28.4993C31.5872 28.858 31.1285 28.9809 30.7698 28.7738L23.5314 24.5947Z" fill="#252525"/>
<path d="M15.75 24.75C15.3358 24.75 15 24.4142 15 24C15 23.5858 15.3358 23.25 15.75 23.25H17.25C17.6642 23.25 18 23.5858 18 24C18 24.4142 17.6642 24.75 17.25 24.75H15.75Z" fill="#252525"/>
<path d="M30.75 24.75C30.3358 24.75 30 24.4142 30 24C30 23.5858 30.3358 23.25 30.75 23.25H32.25C32.6642 23.25 33 23.5858 33 24C33 24.4142 32.6642 24.75 32.25 24.75H30.75Z" fill="#252525"/>
<path d="M17.2306 28.7744C16.8719 28.9815 16.4132 28.8586 16.2061 28.4999C15.9989 28.1412 16.1219 27.6825 16.4806 27.4754L23.7205 23.2954C24.0793 23.0883 24.538 23.2112 24.7451 23.5699C24.9522 23.9286 24.8293 24.3873 24.4705 24.5944L17.2306 28.7744Z" fill="#252525"/>
<path d="M30.2208 21.2744C29.8621 21.4815 29.4034 21.3586 29.1963 20.9999C28.9892 20.6412 29.1121 20.1825 29.4708 19.9754L30.7698 19.2254C31.1286 19.0183 31.5873 19.1412 31.7944 19.4999C32.0015 19.8586 31.8786 20.3173 31.5198 20.5244L30.2208 21.2744Z" fill="#252525"/>
<path d="M20.5244 31.5204C20.3173 31.8791 19.8586 32.002 19.4999 31.7949C19.1412 31.5878 19.0183 31.1291 19.2254 30.7704L19.9754 29.4714C20.1825 29.1126 20.6412 28.9897 20.9999 29.1968C21.3586 29.404 21.4815 29.8626 21.2744 30.2214L20.5244 31.5204Z" fill="#252525"/>
<path d="M28.0244 18.5302C27.8173 18.8889 27.3586 19.0118 26.9999 18.8047C26.6412 18.5976 26.5183 18.1389 26.7254 17.7802L27.4754 16.4811C27.6825 16.1224 28.1412 15.9995 28.4999 16.2066C28.8586 16.4137 28.9815 16.8724 28.7744 17.2311L28.0244 18.5302Z" fill="#252525"/>
</svg>