<svg width="14" height="15" viewBox="0 0 14 15" fill="none" xmlns="http://www.w3.org/2000/svg">
<path fill-rule="evenodd" clip-rule="evenodd" d="M12 0.983398H2C0.89543 0.983398 0 1.87883 0 2.9834V12.9834C0 14.088 0.89543 14.9834 2 14.9834H12C13.1046 14.9834 14 14.088 14 12.9834V2.9834C14 1.87883 13.1046 0.983398 12 0.983398ZM2 12.9834V2.9834H12V12.9834H2Z" fill="#ACA996"/>
<rect x="1" y="1.9834" width="12" height="3" fill="#ACA996"/>
<rect x="6" y="6.9834" width="2" height="2" fill="#ACA996"/>
<rect x="3" y="6.9834" width="2" height="2" fill="#ACA996"/>
<rect x="9" y="6.9834" width="2" height="2" fill="#ACA996"/>
<rect x="3" y="9.9834" width="2" height="2" fill="#ACA996"/>
<rect x="6" y="9.9834" width="2" height="2" fill="#ACA996"/>
</svg>