<svg width="20" height="20" viewBox="0 0 20 20" fill="none" xmlns="http://www.w3.org/2000/svg">
<path fill-rule="evenodd" clip-rule="evenodd" d="M12 9.25C12 9.11193 12.1119 9 12.25 9H13.75C13.8881 9 14 9.11193 14 9.25V9.75C14 9.88807 13.8881 10 13.75 10H12.25C12.1119 10 12 9.88807 12 9.75V9.25ZM9 11.25C9 11.1119 9.11193 11 9.25 11H10.75C10.8881 11 11 11.1119 11 11.25V11.75C11 11.8881 10.8881 12 10.75 12H9.25C9.11193 12 9 11.8881 9 11.75V11.25ZM12.25 11C12.1119 11 12 11.1119 12 11.25V11.75C12 11.8881 12.1119 12 12.25 12H13.75C13.8881 12 14 11.8881 14 11.75V11.25C14 11.1119 13.8881 11 13.75 11H12.25ZM9 9.25C9 9.11193 9.11193 9 9.25 9H10.75C10.8881 9 11 9.11193 11 9.25V9.75C11 9.88807 10.8881 10 10.75 10H9.25C9.11193 10 9 9.88807 9 9.75V9.25ZM6.25 11C6.11193 11 6 11.1119 6 11.25V11.75C6 11.8881 6.11193 12 6.25 12H7.75C7.88807 12 8 11.8881 8 11.75V11.25C8 11.1119 7.88807 11 7.75 11H6.25ZM9 13.25C9 13.1119 9.11193 13 9.25 13H10.75C10.8881 13 11 13.1119 11 13.25V13.75C11 13.8881 10.8881 14 10.75 14H9.25C9.11193 14 9 13.8881 9 13.75V13.25ZM6.25 13C6.11193 13 6 13.1119 6 13.25V13.75C6 13.8881 6.11193 14 6.25 14H7.75C7.88807 14 8 13.8881 8 13.75V13.25C8 13.1119 7.88807 13 7.75 13H6.25Z" fill="#9B9B9B"/>
<path d="M3 4.5C3 3.94772 3.44772 3.5 4 3.5H16C16.5523 3.5 17 3.94772 17 4.5V7H3V4.5Z" fill="#9B9B9B"/>
<rect x="3.25" y="3.25" width="13.5" height="13.5" rx="2.25" stroke="#9B9B9B" stroke-width="1.5"/>
</svg>