<svg width="20" height="20" viewBox="0 0 20 20" fill="none" xmlns="http://www.w3.org/2000/svg">
<path fill-rule="evenodd" clip-rule="evenodd" d="M13.8835 10.0056L15.3033 8.58581C16.3772 7.51187 16.3772 5.77067 15.3033 4.69672C14.2293 3.62278 12.4881 3.62278 11.4142 4.69672L9.29287 6.81804C8.21893 7.89199 8.21893 9.63319 9.29287 10.7071C9.64759 11.0618 10.0751 11.2994 10.5273 11.4198C10.4914 11.8129 10.323 12.1961 10.0221 12.497L9.76763 12.7514C9.20746 12.5454 8.68197 12.2176 8.23221 11.7678C6.57248 10.1081 6.57248 7.41711 8.23221 5.75738L10.3535 3.63606C12.0133 1.97633 14.7042 1.97633 16.3639 3.63606C18.0237 5.29579 18.0237 7.98674 16.3639 9.64647L14.2426 11.7678C14.1581 11.8523 14.0709 11.9326 13.9813 12.0085C14.0767 11.3424 14.0441 10.6615 13.8835 10.0056Z" fill="#9B9B9B"/>
<path fill-rule="evenodd" clip-rule="evenodd" d="M6.11646 9.99439L4.69666 11.4142C3.62272 12.4881 3.62272 14.2293 4.69666 15.3033C5.7706 16.3772 7.51181 16.3772 8.58575 15.3033L10.7071 13.182C11.781 12.108 11.781 10.3668 10.7071 9.29287C10.3524 8.93815 9.92484 8.70059 9.47262 8.5802C9.50854 8.18714 9.67696 7.80391 9.97786 7.50301L10.2323 7.24856C10.7925 7.45457 11.318 7.78245 11.7677 8.23221C13.4275 9.89194 13.4275 12.5829 11.7677 14.2426L9.64641 16.3639C7.98668 18.0237 5.29573 18.0237 3.636 16.3639C1.97627 14.7042 1.97627 12.0133 3.636 10.3535L5.75732 8.23221C5.84186 8.14767 5.92907 8.06744 6.01868 7.99152C5.92321 8.65758 5.95581 9.33846 6.11646 9.99439Z" fill="#9B9B9B"/>
</svg>