<svg width="32" height="33" viewBox="0 0 32 33" fill="none" xmlns="http://www.w3.org/2000/svg">
<g opacity="0.9">
<path d="M26.25 8.6748C26.25 9.50525 25.4892 10.5676 23.5321 11.4809C21.6561 12.3564 18.9942 12.9248 16 12.9248C13.0058 12.9248 10.3439 12.3564 8.46793 11.4809C6.51077 10.5676 5.75 9.50525 5.75 8.6748C5.75 7.84436 6.51077 6.78202 8.46793 5.86868C10.3439 4.99323 13.0058 4.4248 16 4.4248C18.9942 4.4248 21.6561 4.99323 23.5321 5.86868C25.4892 6.78202 26.25 7.84436 26.25 8.6748Z" stroke="#252525" stroke-width="2"/>
<path fill-rule="evenodd" clip-rule="evenodd" d="M4.82546 9.28418H4.8252L8.50098 26.8779H23.501L27.1753 9.28496C26.5275 11.897 21.7714 13.9248 16.0005 13.9248C10.229 13.9248 5.47253 11.8966 4.82546 9.28418Z" fill="#252525"/>
<ellipse cx="16" cy="26.5811" rx="7.5" ry="3.75" fill="#252525"/>
</g>
</svg>
