<svg width="56" height="57" viewBox="0 0 56 57" fill="none" xmlns="http://www.w3.org/2000/svg">
<rect x="2" y="2.25" width="52" height="52" rx="14" stroke="#414141" stroke-width="4"/>
<path d="M35.3742 41.7739C35.4893 42.0355 35.505 42.2918 35.4213 42.5429C35.348 42.7941 35.1858 42.9667 34.9347 43.0609L32.2194 44.1753C31.9787 44.2799 31.7381 44.2747 31.4974 44.1596C31.2568 44.0549 31.0841 43.8718 30.9795 43.6102L25.5175 30.1436L26.9771 30.5203L21.9389 36.1078C21.7087 36.3799 21.4419 36.5211 21.1385 36.5316C20.835 36.5316 20.5734 36.4322 20.3537 36.2334C20.1339 36.0346 20.0293 35.7521 20.0398 35.3858L20.2909 13.2867C20.3014 12.9624 20.4008 12.706 20.5891 12.5176C20.7879 12.3293 21.0234 12.2404 21.2954 12.2508C21.5779 12.2508 21.8343 12.3712 22.0645 12.6118L37.6029 28.4956C37.854 28.7571 37.9744 29.0344 37.9639 29.3274C37.9535 29.6204 37.8436 29.8663 37.6343 30.0651C37.425 30.2639 37.1478 30.3528 36.8025 30.3319L28.9862 29.8925L29.7238 28.6054L35.3742 41.7739Z" fill="#414141"/>
</svg>
