<svg xmlns="http://www.w3.org/2000/svg" width="56" height="56" viewBox="0 0 56 56" fill="none">
    <path d="M14.7549 16.7998C16.2832 16.7998 16.8662 17.2706 16.8662 18.7461V24.3809L21.8682 21.5576C22.3519 21.3117 22.7595 21.1514 23.1113 21.1514C23.7049 21.1515 24.1557 21.5477 24.6504 22.3281L24.7275 22.4668C25.0024 22.9479 25.167 23.365 25.167 23.7285C25.167 24.3272 24.7714 24.7656 24.002 25.1611L18.8447 27.9307L24.0127 30.8389C24.7712 31.2451 25.2002 31.6942 25.2002 32.293C25.2002 32.6565 25.0349 33.0951 24.7051 33.5762L24.6279 33.6934C24.1222 34.4311 23.7043 34.8379 23.0996 34.8379C22.748 34.8378 22.3633 34.6774 21.8799 34.4316L16.8662 31.6084V37.2539C16.8662 38.7294 16.2832 39.2002 14.7549 39.2002H14.6123C13.084 39.2002 12.501 38.7294 12.501 37.2539V31.6191L7.49805 34.4316C7.02545 34.6774 6.60758 34.8486 6.25586 34.8486C5.62924 34.8486 5.18928 34.4416 4.72754 33.6611L4.66211 33.5654C4.37625 33.0736 4.2002 32.635 4.2002 32.2715C4.2002 31.6835 4.6176 31.2451 5.37598 30.8389L10.5439 27.9307L5.3877 25.1719C4.61812 24.7549 4.25493 24.3166 4.25488 23.75C4.25488 23.3865 4.40854 22.9586 4.65039 22.4668L4.7168 22.3496C5.10161 21.5263 5.59646 21.1191 6.20117 21.1191C6.57497 21.1192 7.02605 21.2903 7.50977 21.5576L12.501 24.3701V18.7461C12.501 17.2706 13.084 16.7998 14.6123 16.7998H14.7549ZM41.3545 16.7998C42.8828 16.7998 43.4658 17.2706 43.4658 18.7461V24.3809L48.4688 21.5576C48.9524 21.3118 49.3592 21.1514 49.7109 21.1514C50.3047 21.1514 50.7552 21.5476 51.25 22.3281L51.3271 22.4668C51.602 22.9479 51.7666 23.365 51.7666 23.7285C51.7666 24.3273 51.3712 24.7655 50.6016 25.1611L45.4453 27.9307L50.6123 30.8389C51.3709 31.2452 51.7998 31.6942 51.7998 32.293C51.7998 32.6565 51.6355 33.0951 51.3057 33.5762L51.2285 33.6934C50.7228 34.431 50.3048 34.8378 49.7002 34.8379C49.3484 34.8379 48.9632 34.6775 48.4795 34.4316L43.4658 31.6084V37.2539C43.4658 38.7294 42.8828 39.2002 41.3545 39.2002H41.2119C39.6837 39.2002 39.1006 38.7294 39.1006 37.2539V31.6191L34.0986 34.4316C33.626 34.6775 33.2082 34.8485 32.8564 34.8486C32.2297 34.8486 31.7899 34.4417 31.3281 33.6611L31.2617 33.5654C30.9759 33.0736 30.7998 32.635 30.7998 32.2715C30.7998 31.6834 31.2179 31.2452 31.9766 30.8389L37.1436 27.9307L31.9873 25.1719C31.2178 24.7549 30.8545 24.3166 30.8545 23.75C30.8545 23.3865 31.0091 22.9586 31.251 22.4668L31.3164 22.3496C31.7012 21.5264 32.1962 21.1193 32.8008 21.1191C33.1746 21.1191 33.6257 21.2904 34.1094 21.5576L39.1006 24.3701V18.7461C39.1006 17.2706 39.6837 16.7998 41.2119 16.7998H41.3545Z" fill="#0FC8BA"/>
</svg>
