<svg width="40" height="40" viewBox="0 0 40 40" fill="none" xmlns="http://www.w3.org/2000/svg">
<path fill-rule="evenodd" clip-rule="evenodd" d="M9 11H17C17.5523 11 18 11.4477 18 12V28C18 28.5523 17.5523 29 17 29H9C8.44772 29 8 28.5523 8 28V12C8 11.4477 8.44772 11 9 11ZM7 12C7 10.8954 7.89543 10 9 10H17C18.1046 10 19 10.8954 19 12V28C19 29.1046 18.1046 30 17 30H9C7.89543 30 7 29.1046 7 28V12ZM23 11H31C31.5523 11 32 11.4477 32 12V22C32 22.5523 31.5523 23 31 23H23C22.4477 23 22 22.5523 22 22V12C22 11.4477 22.4477 11 23 11ZM21 12C21 10.8954 21.8954 10 23 10H31C32.1046 10 33 10.8954 33 12V22C33 23.1046 32.1046 24 31 24H23C21.8954 24 21 23.1046 21 22V12Z" fill="#ACA996"/>
</svg>
