<svg width="40" height="40" viewBox="0 0 40 40" fill="none" xmlns="http://www.w3.org/2000/svg">
<path fill-rule="evenodd" clip-rule="evenodd" d="M9 11H17C17.5523 11 18 11.4477 18 12V17C18 17.5523 17.5523 18 17 18H9C8.44772 18 8 17.5523 8 17V12C8 11.4477 8.44772 11 9 11ZM7 12C7 10.8954 7.89543 10 9 10H17C18.1046 10 19 10.8954 19 12V17C19 18.1046 18.1046 19 17 19H9C7.89543 19 7 18.1046 7 17V12ZM9 22H17C17.5523 22 18 22.4477 18 23V28C18 28.5523 17.5523 29 17 29H9C8.44772 29 8 28.5523 8 28V23C8 22.4477 8.44772 22 9 22ZM7 23C7 21.8954 7.89543 21 9 21H17C18.1046 21 19 21.8954 19 23V28C19 29.1046 18.1046 30 17 30H9C7.89543 30 7 29.1046 7 28V23ZM31 11H23C22.4477 11 22 11.4477 22 12V17C22 17.5523 22.4477 18 23 18H31C31.5523 18 32 17.5523 32 17V12C32 11.4477 31.5523 11 31 11ZM23 10C21.8954 10 21 10.8954 21 12V17C21 18.1046 21.8954 19 23 19H31C32.1046 19 33 18.1046 33 17V12C33 10.8954 32.1046 10 31 10H23ZM23 22H31C31.5523 22 32 22.4477 32 23V28C32 28.5523 31.5523 29 31 29H23C22.4477 29 22 28.5523 22 28V23C22 22.4477 22.4477 22 23 22ZM21 23C21 21.8954 21.8954 21 23 21H31C32.1046 21 33 21.8954 33 23V28C33 29.1046 32.1046 30 31 30H23C21.8954 30 21 29.1046 21 28V23Z" fill="#ACA996"/>
</svg>
