<svg width="40" height="40" viewBox="0 0 40 40" fill="none" xmlns="http://www.w3.org/2000/svg">
<path fill-rule="evenodd" clip-rule="evenodd" d="M8 12.5C8 11.9477 8.44772 11.5 9 11.5H13V16.5H8V12.5ZM14 22.5V17.5H32V22.5H14ZM14 23.5V28.5H31.075C31.562 28.5 32 28.0767 32 27.5V23.5H14ZM14 29.5H13.5H13H9C7.89542 29.5 7 28.6045 7 27.5V23.5V23V22.5V17.5V17V16.5V12.5C7 11.3955 7.89542 10.5 9 10.5H13H13.5H14H31.075C32.162 10.5 33 11.4199 33 12.5V16.5V17V17.5V22.5V23V23.5V27.5C33 28.5801 32.162 29.5 31.075 29.5H14ZM8 22.5V17.5H13V22.5H8ZM8 23.5V27.5C8 28.0523 8.44772 28.5 9 28.5H13V23.5H8ZM14 11.5V16.5H32V12.5C32 11.9233 31.562 11.5 31.075 11.5H14Z" fill="#ACA996"/>
</svg>
