<svg width="40" height="40" viewBox="0 0 40 40" fill="none" xmlns="http://www.w3.org/2000/svg">
<path fill-rule="evenodd" clip-rule="evenodd" d="M7 11.75C7 11.3358 7.33579 11 7.75 11H32.25C32.6642 11 33 11.3358 33 11.75C33 12.1642 32.6642 12.5 32.25 12.5H7.75C7.33579 12.5 7 12.1642 7 11.75ZM7 20.25C7 19.8358 7.33579 19.5 7.75 19.5H23.25C23.6642 19.5 24 19.8358 24 20.25C24 20.6642 23.6642 21 23.25 21H7.75C7.33579 21 7 20.6642 7 20.25ZM7.75 27.5C7.33579 27.5 7 27.8358 7 28.25C7 28.6642 7.33579 29 7.75 29H32.25C32.6642 29 33 28.6642 33 28.25C33 27.8358 32.6642 27.5 32.25 27.5H7.75Z" fill="#ACA996"/>
</svg>
