<svg width="20" height="20" viewBox="0 0 20 20" fill="none" xmlns="http://www.w3.org/2000/svg">
<path d="M5.44444 16C4.96914 16 4.83333 15.6374 5.07407 15.3496C5.30864 15.0619 5.92593 14.4288 6.27161 13.8993C6.32099 13.8129 6.29012 13.7266 6.19753 13.6806C4.21605 12.6906 3 11.0734 3 9.23165C3 6.33669 6.11111 4 10 4C13.8889 4 17 6.33669 17 9.23165C17 12.0978 14.0494 14.4576 9.59877 14.4576C9.51852 14.4576 9.43827 14.4518 9.35802 14.446C9.27161 14.446 9.18518 14.4748 9.08025 14.5439C8.03086 15.246 6.18519 16 5.44444 16Z" fill="#f8f8f8"/>
</svg>
