<svg width="20" height="20" viewBox="0 0 20 20" fill="none" xmlns="http://www.w3.org/2000/svg">
<path d="M12.3502 16.0625C12.3742 16.0626 12.3976 16.0692 12.4185 16.0811C12.4396 16.093 12.4578 16.1101 12.4703 16.1309C12.4827 16.1516 12.4901 16.1751 12.4908 16.1992C12.4914 16.2233 12.4854 16.2472 12.4742 16.2686C12.2337 16.7159 11.8765 17.0898 11.441 17.3506C11.0053 17.6114 10.5072 17.7496 9.99956 17.75C9.49217 17.7495 8.99459 17.6112 8.55913 17.3506C8.12358 17.0898 7.76638 16.7159 7.52593 16.2686C7.51467 16.2472 7.50866 16.2234 7.50933 16.1992C7.51003 16.1749 7.51728 16.1507 7.52984 16.1299C7.54238 16.1093 7.56057 16.0919 7.58159 16.0801C7.60263 16.0684 7.62686 16.0624 7.65093 16.0625H12.3502ZM9.99956 2C10.9416 2 11.7773 2.68505 12.0826 3.70801C12.0906 3.7174 12.1001 3.72539 12.1109 3.73145C12.9596 4.0809 13.6033 4.55441 14.0796 5.17773C14.3996 5.59561 14.6416 6.08222 14.8043 6.63379L6.50249 14.9365H4.57671C4.04946 14.9365 3.58739 14.6523 3.37066 14.1953C3.26894 13.9824 3.23044 13.745 3.25933 13.5107C3.28827 13.2764 3.38315 13.0548 3.53374 12.873C3.59197 12.8014 3.64949 12.7328 3.70562 12.665C4.47907 11.7306 4.94581 11.1656 4.94585 8.5166C4.94585 6.11191 5.90877 4.54645 7.88921 3.73047C7.8999 3.72449 7.90939 3.71618 7.91753 3.70703C8.22281 2.6852 9.05759 2.00008 9.99956 2ZM15.0533 8.51758C15.0533 11.1656 15.5217 11.7305 16.2945 12.666C16.3505 12.7336 16.4073 12.804 16.4654 12.874C16.616 13.0561 16.7121 13.278 16.7408 13.5127C16.7694 13.7473 16.7298 13.9852 16.6275 14.1982C16.41 14.6531 15.951 14.9365 15.4263 14.9365H8.62359L15.0523 8.50684C15.0523 8.51031 15.0533 8.5141 15.0533 8.51758Z" fill="#737373"/>
<path fill-rule="evenodd" clip-rule="evenodd" d="M16.2803 3.21967C16.5732 3.51256 16.5732 3.98744 16.2803 4.28033L3.28033 17.2803C2.98744 17.5732 2.51256 17.5732 2.21967 17.2803C1.92678 16.9874 1.92678 16.5126 2.21967 16.2197L15.2197 3.21967C15.5126 2.92678 15.9874 2.92678 16.2803 3.21967Z" fill="#737373"/>
</svg>