<svg width="20" height="20" viewBox="0 0 20 20" fill="none" xmlns="http://www.w3.org/2000/svg">
<path d="M9.37648 1.42153C9.60218 0.85949 10.3978 0.859491 10.6235 1.42153L12.5736 6.27753C12.6697 6.51686 12.8943 6.68007 13.1516 6.69752L18.3725 7.05152C18.9768 7.09249 19.2227 7.8492 18.7579 8.23753L14.7422 11.5927C14.5442 11.7581 14.4584 12.0221 14.5214 12.2723L15.798 17.347C15.9458 17.9344 15.3021 18.4021 14.7892 18.08L10.3573 15.2977C10.1388 15.1605 9.86117 15.1605 9.64274 15.2977L5.21084 18.08C4.69789 18.4021 4.0542 17.9344 4.20196 17.347L5.47864 12.2723C5.54156 12.0221 5.45576 11.7581 5.25784 11.5927L1.2421 8.23753C0.777317 7.8492 1.02319 7.09249 1.62746 7.05152L6.84838 6.69752C7.10571 6.68007 7.33033 6.51686 7.42645 6.27753L9.37648 1.42153Z" fill="#f8f8f8"/>
</svg>
