<svg xmlns="http://www.w3.org/2000/svg" width="72" height="72" viewBox="0 0 72 72" fill="none">
    <circle cx="36.0004" cy="36" r="26.4545" fill="black" fill-opacity="0.8" stroke="#8A8A8A" stroke-width="6"/>
    <path d="M36 44.1821C37.8074 44.1821 39.2733 45.6472 39.2734 47.4546C39.2734 49.2621 37.8075 50.7271 36 50.7271C34.1926 50.7269 32.7275 49.262 32.7275 47.4546C32.7276 45.6473 34.1927 44.1823 36 44.1821ZM36.0137 21.2729C37.9693 21.2731 39.2734 22.2146 39.2734 23.7446C39.2734 23.8427 39.2471 23.9804 39.2471 24.1177L38.9082 38.6138C38.856 40.0458 37.8388 40.9096 35.9873 40.9097C34.1358 40.9097 33.1449 40.0458 33.0928 38.6138L32.7539 24.1177C32.7539 23.9804 32.7275 23.8427 32.7275 23.7446C32.7276 22.2145 34.0579 21.2729 36.0137 21.2729Z" fill="#8A8A8A"/>
</svg>
