<svg width="56" height="56" viewBox="0 0 56 56" fill="none" xmlns="http://www.w3.org/2000/svg">
<path d="M28.0515 7.67852C27.3531 7.67852 26.7642 7.44333 26.2849 6.97292C25.8056 6.48908 25.566 5.91116 25.566 5.23916C25.566 4.56716 25.8056 3.99596 26.2849 3.52556C26.7779 3.04172 27.3667 2.7998 28.0515 2.7998C28.7362 2.7998 29.3181 3.04172 29.7974 3.52556C30.2767 3.99596 30.5164 4.56716 30.5164 5.23916C30.5164 5.9246 30.2767 6.50252 29.7974 6.97292C29.3318 7.44333 28.7498 7.67852 28.0515 7.67852ZM18.048 13.3233C17.3633 13.3233 16.7744 13.0881 16.2814 12.6177C15.8021 12.1339 15.5625 11.556 15.5625 10.884C15.5625 10.2254 15.809 9.65421 16.302 9.17037C16.795 8.68653 17.377 8.4446 18.048 8.4446C18.7464 8.4446 19.3352 8.68653 19.8145 9.17037C20.2938 9.64077 20.5334 10.212 20.5334 10.884C20.5334 11.5694 20.2938 12.1473 19.8145 12.6177C19.3489 13.0881 18.7601 13.3233 18.048 13.3233ZM38.0139 13.3233C37.3292 13.3233 36.7403 13.0881 36.2473 12.6177C35.768 12.1339 35.5284 11.556 35.5284 10.884C35.5284 10.2254 35.7749 9.65421 36.2679 9.17037C36.7609 8.68653 37.3428 8.4446 38.0139 8.4446C38.7122 8.4446 39.3011 8.68653 39.7804 9.17037C40.2734 9.64077 40.5199 10.212 40.5199 10.884C40.5199 11.5694 40.2802 12.1473 39.8009 12.6177C39.3216 13.0881 38.7259 13.3233 38.0139 13.3233ZM8.06502 19.0488C7.38032 19.0488 6.79832 18.8136 6.31903 18.3432C5.83974 17.8593 5.6001 17.2814 5.6001 16.6094C5.6001 15.9508 5.83974 15.3864 6.31903 14.916C6.81202 14.4321 7.39401 14.1902 8.06502 14.1902C8.76342 14.1902 9.35226 14.4254 9.83155 14.8958C10.3108 15.3662 10.5505 15.9374 10.5505 16.6094C10.5505 17.3083 10.3108 17.8929 9.83155 18.3633C9.36595 18.8203 8.77711 19.0488 8.06502 19.0488ZM28.0515 19.835C27.134 19.835 26.3534 19.5192 25.7098 18.8875C25.0662 18.2558 24.7443 17.4964 24.7443 16.6094C24.7443 15.7358 25.0662 14.9832 25.7098 14.3515C26.3671 13.7064 27.1476 13.3838 28.0515 13.3838C28.9553 13.3838 29.7221 13.7064 30.352 14.3515C30.9957 14.9832 31.3175 15.7358 31.3175 16.6094C31.3175 17.5099 30.9957 18.276 30.352 18.9076C29.7221 19.5259 28.9553 19.835 28.0515 19.835ZM47.9352 19.0488C47.2505 19.0488 46.6616 18.8136 46.1686 18.3432C45.6894 17.8728 45.4497 17.2948 45.4497 16.6094C45.4497 15.9508 45.6962 15.3864 46.1892 14.916C46.6822 14.4321 47.2642 14.1902 47.9352 14.1902C48.6199 14.1902 49.2019 14.4254 49.6812 14.8958C50.1605 15.3662 50.4001 15.9374 50.4001 16.6094C50.4001 17.2948 50.1605 17.8728 49.6812 18.3432C49.2156 18.8136 48.6336 19.0488 47.9352 19.0488ZM18.048 25.5201C17.1442 25.5201 16.3704 25.2043 15.7268 24.5726C15.0832 23.9409 14.7614 23.1816 14.7614 22.2945C14.7614 21.4209 15.0832 20.6683 15.7268 20.0366C16.3841 19.3915 17.1579 19.0689 18.048 19.0689C18.9518 19.0689 19.7255 19.3848 20.3691 20.0164C21.0264 20.6481 21.3551 21.4075 21.3551 22.2945C21.3551 23.2084 21.0333 23.9745 20.3896 24.5928C19.746 25.211 18.9655 25.5201 18.048 25.5201ZM38.0139 25.5201C37.11 25.5201 36.3363 25.211 35.6927 24.5928C35.0628 23.9611 34.7478 23.195 34.7478 22.2945C34.7478 21.4209 35.0696 20.6683 35.7133 20.0366C36.3569 19.3915 37.1237 19.0689 38.0139 19.0689C38.9314 19.0689 39.7119 19.3848 40.3555 20.0164C40.9991 20.6481 41.321 21.4075 41.321 22.2945C41.321 23.2084 40.9991 23.9745 40.3555 24.5928C39.7256 25.211 38.945 25.5201 38.0139 25.5201ZM8.06502 30.4392C7.38032 30.4392 6.79832 30.204 6.31903 29.7336C5.83974 29.2497 5.6001 28.6718 5.6001 27.9998C5.6001 27.3278 5.83974 26.7566 6.31903 26.2862C6.81202 25.8024 7.39401 25.5604 8.06502 25.5604C8.76342 25.5604 9.35226 25.8024 9.83155 26.2862C10.3108 26.7566 10.5505 27.3278 10.5505 27.9998C10.5505 28.6852 10.3108 29.2632 9.83155 29.7336C9.35226 30.204 8.76342 30.4392 8.06502 30.4392ZM28.0515 31.7697C27.3394 31.7697 26.6957 31.6017 26.1206 31.2657C25.5454 30.9163 25.0798 30.4593 24.7238 29.8948C24.3815 29.3169 24.2103 28.6852 24.2103 27.9998C24.2103 27.3144 24.3815 26.6894 24.7238 26.1249C25.0798 25.547 25.5454 25.09 26.1206 24.754C26.6957 24.4046 27.3394 24.2299 28.0515 24.2299C28.7498 24.2299 29.3866 24.4046 29.9618 24.754C30.5369 25.09 30.9957 25.547 31.338 26.1249C31.6941 26.6894 31.8721 27.3144 31.8721 27.9998C31.8721 29.0481 31.4955 29.9419 30.7423 30.6811C30.0028 31.4068 29.1059 31.7697 28.0515 31.7697ZM47.9352 30.4392C47.2505 30.4392 46.6616 30.204 46.1686 29.7336C45.6894 29.2497 45.4497 28.6718 45.4497 27.9998C45.4497 27.3412 45.6962 26.77 46.1892 26.2862C46.6822 25.8024 47.2642 25.5604 47.9352 25.5604C48.6199 25.5604 49.2019 25.8024 49.6812 26.2862C50.1605 26.7566 50.4001 27.3278 50.4001 27.9998C50.4001 28.6852 50.1605 29.2632 49.6812 29.7336C49.2156 30.204 48.6336 30.4392 47.9352 30.4392ZM18.048 36.9307C17.1442 36.9307 16.3704 36.6148 15.7268 35.9832C15.0832 35.3515 14.7614 34.5921 14.7614 33.7051C14.7614 32.8315 15.0832 32.0788 15.7268 31.4472C16.3841 30.802 17.1579 30.4795 18.048 30.4795C18.9518 30.4795 19.7255 30.7953 20.3691 31.427C21.0264 32.0452 21.3551 32.8046 21.3551 33.7051C21.3551 34.6056 21.0333 35.3716 20.3896 36.0033C19.746 36.6216 18.9655 36.9307 18.048 36.9307ZM38.0139 36.9307C37.11 36.9307 36.3363 36.6148 35.6927 35.9832C35.0628 35.3515 34.7478 34.5921 34.7478 33.7051C34.7478 32.818 35.0696 32.0587 35.7133 31.427C36.3569 30.7953 37.1237 30.4795 38.0139 30.4795C38.9314 30.4795 39.7119 30.7953 40.3555 31.427C40.9991 32.0452 41.321 32.8046 41.321 33.7051C41.321 34.6056 40.9991 35.3716 40.3555 36.0033C39.7256 36.6216 38.945 36.9307 38.0139 36.9307ZM8.06502 41.8094C7.38032 41.8094 6.79832 41.5742 6.31903 41.1038C5.83974 40.6334 5.6001 40.0555 5.6001 39.37C5.6001 38.7115 5.83974 38.147 6.31903 37.6766C6.81202 37.1928 7.39401 36.9508 8.06502 36.9508C8.76342 36.9508 9.35226 37.186 9.83155 37.6564C10.3108 38.1134 10.5505 38.6846 10.5505 39.37C10.5505 40.0555 10.3177 40.6334 9.85209 41.1038C9.3865 41.5742 8.79081 41.8094 8.06502 41.8094ZM28.0515 42.5956C27.134 42.5956 26.3534 42.2798 25.7098 41.6481C25.0662 41.0164 24.7443 40.2571 24.7443 39.37C24.7443 38.5099 25.0662 37.7572 25.7098 37.1121C26.3671 36.467 27.1476 36.1444 28.0515 36.1444C28.9553 36.1444 29.7221 36.4603 30.352 37.092C30.9957 37.7236 31.3175 38.483 31.3175 39.37C31.3175 40.2705 30.9957 41.0366 30.352 41.6683C29.7221 42.2865 28.9553 42.5956 28.0515 42.5956ZM47.9352 41.8094C47.2505 41.8094 46.6616 41.5742 46.1686 41.1038C45.6894 40.6334 45.4497 40.0555 45.4497 39.37C45.4497 38.698 45.6962 38.1268 46.1892 37.6564C46.6822 37.186 47.2642 36.9508 47.9352 36.9508C48.6199 36.9508 49.2019 37.186 49.6812 37.6564C50.1605 38.1268 50.4001 38.698 50.4001 39.37C50.4001 40.0689 50.1605 40.6536 49.6812 41.124C49.2156 41.5809 48.6336 41.8094 47.9352 41.8094ZM18.048 47.5348C17.3633 47.5348 16.7744 47.2996 16.2814 46.8292C15.8021 46.3588 15.5625 45.7876 15.5625 45.1156C15.5625 44.4436 15.809 43.8657 16.302 43.3819C16.795 42.9115 17.377 42.6763 18.048 42.6763C18.7464 42.6763 19.3352 42.9115 19.8145 43.3819C20.2938 43.8523 20.5334 44.4302 20.5334 45.1156C20.5334 45.8011 20.2938 46.3723 19.8145 46.8292C19.3489 47.2996 18.7601 47.5348 18.048 47.5348ZM38.0139 47.5348C37.3292 47.5348 36.7403 47.2996 36.2473 46.8292C35.768 46.3588 35.5284 45.7876 35.5284 45.1156C35.5284 44.4436 35.7749 43.8657 36.2679 43.3819C36.7609 42.9115 37.3428 42.6763 38.0139 42.6763C38.7122 42.6763 39.3011 42.9115 39.7804 43.3819C40.2734 43.8523 40.5199 44.4302 40.5199 45.1156C40.5199 45.8011 40.2802 46.3723 39.8009 46.8292C39.3216 47.2996 38.7259 47.5348 38.0139 47.5348ZM28.0515 53.1998C27.3531 53.1998 26.7642 52.9579 26.2849 52.474C25.8056 52.0036 25.566 51.4324 25.566 50.7604C25.566 50.1019 25.8056 49.5307 26.2849 49.0468C26.7779 48.563 27.3667 48.3211 28.0515 48.3211C28.7362 48.3211 29.3181 48.5563 29.7974 49.0267C30.2767 49.4971 30.5164 50.075 30.5164 50.7604C30.5164 51.4459 30.2767 52.0238 29.7974 52.4942C29.3318 52.9646 28.7498 53.1998 28.0515 53.1998Z" fill="#9B9B9B"/>
</svg>