<svg width="20" height="20" viewBox="0 0 20 20" fill="none" xmlns="http://www.w3.org/2000/svg">
<path d="M2 1.5C2 0.671573 2.67157 0 3.5 0H16.5C17.3284 0 18 0.671573 18 1.5V18.5C18 19.3284 17.3284 20 16.5 20H3.5C2.67157 20 2 19.3284 2 18.5V1.5Z" fill="#2B2B2B"/>
<path fill-rule="evenodd" clip-rule="evenodd" d="M18 18.5C18 18.7761 17.3284 19 16.5 19H3.5C2.67157 19 2 18.7761 2 18.5C2 19.3284 2.67157 20 3.5 20H16.5C17.3284 20 18 19.3284 18 18.5Z" fill="#3F3F3F"/>
<path fill-rule="evenodd" clip-rule="evenodd" d="M6.79266 11.3715C6.91491 11.5581 7.05804 11.7351 7.22206 11.8991C7.87544 12.519 9.42633 11.9952 10.7036 10.7179C11.9913 9.43021 12.5132 7.86438 11.8694 7.22053C11.8602 7.21134 11.8508 7.2024 11.8413 7.19368C11.6891 7.04691 11.5262 6.91764 11.3553 6.80588C12.4797 6.33869 13.4841 6.32863 14.0404 6.88499C15.0299 7.87449 14.2278 10.2809 12.2488 12.2599C10.2698 14.2389 7.86336 15.041 6.87386 14.0515C6.31834 13.496 6.32753 12.4939 6.79266 11.3715Z" fill="#3E58EB"/>
<path fill-rule="evenodd" clip-rule="evenodd" d="M7.22242 11.8993L7.22197 11.8997C7.20651 11.8842 7.19124 11.8687 7.17615 11.853C6.95065 11.6185 6.7666 11.3589 6.62401 11.0834C5.98146 9.84199 6.18078 8.27772 7.22197 7.23653C8.49526 5.96323 10.5508 5.94899 11.8416 7.19379C11.8512 7.2025 11.8606 7.21145 11.8697 7.22064C12.5136 7.86449 11.9916 9.43032 10.7039 10.718C9.4267 11.9953 7.87581 12.5191 7.22242 11.8993ZM7.88813 11.1506C7.03211 10.2506 7.04576 8.82695 7.92908 7.94363C8.81266 7.06005 10.2372 7.04667 11.1369 7.90345C11.1474 7.94205 11.1714 8.08483 11.0625 8.41165C10.9103 8.86836 10.5547 9.45303 9.99684 10.0109C9.44373 10.564 8.86388 10.9186 8.40833 11.073C8.07018 11.1875 7.92443 11.1604 7.88813 11.1506Z" fill="#3E58EB"/>
</svg>
