<svg width="20" height="20" viewBox="0 0 20 20" fill="none" xmlns="http://www.w3.org/2000/svg">
<path d="M2 1.5C2 0.671573 2.67157 0 3.5 0H16.5C17.3284 0 18 0.671573 18 1.5V18.5C18 19.3284 17.3284 20 16.5 20H3.5C2.67157 20 2 19.3284 2 18.5V1.5Z" fill="#2B2B2B"/>
<path fill-rule="evenodd" clip-rule="evenodd" d="M18 18.5C18 18.7761 17.3284 19 16.5 19H3.5C2.67157 19 2 18.7761 2 18.5C2 19.3284 2.67157 20 3.5 20H16.5C17.3284 20 18 19.3284 18 18.5Z" fill="#3F3F3F"/>
<path fill-rule="evenodd" clip-rule="evenodd" d="M9.47833 6.00183C9.74004 5.9795 9.97441 6.16348 10.0149 6.423C10.2408 7.87215 10.5926 8.86823 11.1476 9.61244C11.6975 10.3499 12.4848 10.8901 13.6809 11.3543C13.9232 11.4484 14.0531 11.7124 13.9796 11.9618C13.9061 12.2111 13.6538 12.3626 13.3992 12.3102C12.1267 12.0482 11.0969 12.0132 10.0898 12.2475C9.07867 12.4826 8.04873 12.9989 6.79262 13.9055C6.57835 14.0601 6.28073 14.0213 6.11326 13.8169C5.94578 13.6125 5.96626 13.3131 6.16001 13.1334C7.28923 12.0862 8.0047 11.1442 8.43912 10.1248C8.87342 9.1057 9.04367 7.96985 9.0209 6.50781C9.01681 6.24518 9.21662 6.02416 9.47833 6.00183ZM9.77179 9.24398C9.66986 9.6843 9.534 10.1063 9.35907 10.5168C9.19774 10.8954 9.00487 11.2601 8.77842 11.6172C9.14062 11.4721 9.50035 11.3579 9.8633 11.2735C10.3034 11.1711 10.7425 11.1139 11.1901 11.0966C10.873 10.8338 10.5926 10.541 10.3459 10.2103C10.1253 9.91438 9.93557 9.59332 9.77179 9.24398Z" fill="#F55522"/>
</svg>