<svg width="20" height="20" viewBox="0 0 20 20" fill="none" xmlns="http://www.w3.org/2000/svg">
<path d="M2 1.5C2 0.671573 2.67157 0 3.5 0H16.5C17.3284 0 18 0.671573 18 1.5V18.5C18 19.3284 17.3284 20 16.5 20H3.5C2.67157 20 2 19.3284 2 18.5V1.5Z" fill="#2B2B2B"/>
<path fill-rule="evenodd" clip-rule="evenodd" d="M18 18.5C18 18.7761 17.3284 19 16.5 19H3.5C2.67157 19 2 18.7761 2 18.5C2 19.3284 2.67157 20 3.5 20H16.5C17.3284 20 18 19.3284 18 18.5Z" fill="#3F3F3F"/>
<path opacity="0.35" d="M14 10C14 12.2091 12.2091 14 10 14C7.79086 14 6 12.2091 6 10C6 7.79086 7.79086 6 10 6C12.2091 6 14 7.79086 14 10Z" fill="#F55522"/>
<path d="M10.0005 9.9822C10.0005 9.9822 10.0005 7.36668 10.0005 5.96973C12.2094 5.96973 14 7.76617 14 9.9822C11.6003 9.9822 10.0005 9.9822 10.0005 9.9822Z" fill="#F55522"/>
</svg>
