<svg width="40" height="40" viewBox="0 0 40 40" fill="none" xmlns="http://www.w3.org/2000/svg">
<path d="M11.1088 26.9687L12.4256 23.2613H17.7182L19.035 26.9687H20.6969L15.8901 13.8778H14.2537L9.4469 26.9687H11.1088ZM12.9242 21.8551L15.0208 15.9488H15.123L17.2196 21.8551H12.9242Z" fill="#f8f8f8"/>
<path d="M25.1406 27.1988C26.8537 27.1988 27.7486 26.2784 28.0554 25.6392H28.1321V26.9687H29.6406V20.5C29.6406 17.3806 27.2628 17.0227 26.0099 17.0227C24.527 17.0227 22.8395 17.5341 22.0724 19.3238L23.5043 19.8352C23.8366 19.1193 24.6229 18.3522 26.0611 18.3522C27.4482 18.3522 28.1321 19.0873 28.1321 20.3466V20.3977C28.1321 21.1264 27.3906 21.0625 25.6008 21.2926C23.7791 21.5291 21.7912 21.9318 21.7912 24.1818C21.7912 26.0994 23.2741 27.1988 25.1406 27.1988ZM25.3707 25.8437C24.169 25.8437 23.2997 25.3068 23.2997 24.2585C23.2997 23.1079 24.348 22.75 25.5241 22.5966C26.1633 22.5199 27.8764 22.3409 28.1321 22.0341V23.4147C28.1321 24.642 27.1605 25.8437 25.3707 25.8437Z" fill="#f8f8f8"/>
<path d="M0 7H1V33H0V7Z" fill="#f8f8f8"/>
</svg>
