<svg width="20" height="20" viewBox="0 0 20 20" fill="none" xmlns="http://www.w3.org/2000/svg">
<path d="M16.544 14.1321C16.1292 14.1321 15.7556 14.0582 15.4232 13.9105C15.0937 13.7599 14.8323 13.5384 14.6391 13.2457C14.4488 12.9531 14.3536 12.5923 14.3536 12.1634C14.3536 11.794 14.4218 11.4886 14.5582 11.2472C14.6945 11.0057 14.8806 10.8125 15.1164 10.6676C15.3522 10.5227 15.6178 10.4134 15.9133 10.3395C16.2116 10.2628 16.5198 10.2074 16.838 10.1733C17.2215 10.1335 17.5326 10.098 17.7713 10.0668C18.0099 10.0327 18.1832 9.98154 18.2911 9.91336C18.4019 9.84233 18.4573 9.73296 18.4573 9.58523V9.55966C18.4573 9.23864 18.3622 8.99006 18.1718 8.81393C17.9815 8.63779 17.7073 8.54972 17.3494 8.54972C16.9715 8.54972 16.6718 8.63211 16.4502 8.79688C16.2315 8.96165 16.0838 9.15626 16.007 9.38069L14.5667 9.17614C14.6803 8.77841 14.8678 8.44603 15.1292 8.17898C15.3906 7.9091 15.7102 7.70739 16.088 7.57387C16.4659 7.43751 16.8835 7.36932 17.3409 7.36932C17.6562 7.36932 17.9701 7.40626 18.2826 7.48012C18.5951 7.55398 18.8806 7.67614 19.1391 7.8466C19.3977 8.01421 19.6051 8.2429 19.7613 8.53268C19.9204 8.82245 19.9999 9.18466 19.9999 9.61932V14H18.517V13.1009H18.4659C18.3721 13.2827 18.24 13.4531 18.0695 13.6122C17.9019 13.7685 17.6903 13.8949 17.4346 13.9915C17.1818 14.0852 16.8849 14.1321 16.544 14.1321ZM16.9445 12.9986C17.2542 12.9986 17.5227 12.9375 17.7499 12.8153C17.9772 12.6903 18.1519 12.5256 18.2741 12.321C18.3991 12.1165 18.4616 11.8935 18.4616 11.652V10.8807C18.4133 10.9205 18.3309 10.9574 18.2144 10.9915C18.1008 11.0256 17.973 11.0554 17.8309 11.081C17.6889 11.1065 17.5482 11.1293 17.409 11.1492C17.2698 11.169 17.1491 11.1861 17.0468 11.2003C16.8167 11.2315 16.6107 11.2827 16.4289 11.3537C16.2471 11.4247 16.1036 11.5242 15.9985 11.652C15.8934 11.777 15.8409 11.9389 15.8409 12.1378C15.8409 12.4219 15.9445 12.6364 16.1519 12.7813C16.3593 12.9261 16.6235 12.9986 16.9445 12.9986Z" fill="#a09f92"/>
<path d="M7.16577 14H5.47827L8.55071 5.27274H10.5024L13.5791 14H11.8916L9.56066 7.06251H9.49248L7.16577 14ZM7.22117 10.5781H11.8234V11.848H7.22117V10.5781Z" fill="#a09f92"/>
<path d="M0.158212 7.63575C0.359572 7.44681 0.675306 7.45686 0.864266 7.65821L3.09181 10.0313L0.864266 12.4043C0.675306 12.6057 0.359572 12.6157 0.158212 12.4268C-0.0431398 12.2378 -0.0531941 11.9221 0.135751 11.7207L1.72071 10.0313L0.135751 8.34181C-0.0531941 8.14044 -0.0431398 7.82471 0.158212 7.63575Z" fill="#a09f92"/>
</svg>