<svg width="29" height="28" viewBox="0 0 29 28" fill="none" xmlns="http://www.w3.org/2000/svg">
<path fill-rule="evenodd" clip-rule="evenodd" d="M18.4474 0.0638583L2.26011 1.20736C0.954903 1.31581 0.5 2.13267 0.5 3.11192V20.0962C0.5 20.8593 0.7835 21.5115 1.46542 22.3832L5.2706 27.1192C5.89564 27.8818 6.46361 28.045 7.65711 27.9904L26.4553 26.9015C28.0452 26.7931 28.5 26.0849 28.5 24.8873V5.77966C28.5 5.16059 28.2447 4.98176 27.492 4.45461C27.4506 4.42568 27.4076 4.39563 27.3632 4.36436L22.196 0.880488C20.9466 0.00985559 20.4352 -0.099699 18.4474 0.0638583ZM8.08333 5.46625C6.54858 5.56565 6.19985 5.58824 5.32825 4.90896L3.11187 3.22149C2.88583 3.00328 2.99919 2.73112 3.56678 2.67708L19.129 1.58825C20.4349 1.47915 21.1164 1.91539 21.6278 2.29619L24.297 4.14726C24.4106 4.20149 24.6941 4.52769 24.3532 4.52769L8.28147 5.45347L8.08333 5.46625ZM6.29318 24.7237V8.50201C6.29318 7.79445 6.52039 7.4676 7.20153 7.41263L25.6594 6.37868C26.2855 6.32427 26.569 6.70563 26.569 7.41263V23.5256C26.569 24.2338 26.455 24.8334 25.4323 24.8873L7.7696 25.8678C6.7474 25.9217 6.29318 25.5955 6.29318 24.7237ZM23.7299 9.37216C23.8432 9.86262 23.7299 10.3525 23.2177 10.4077L22.3666 10.5704V22.5463C21.6278 22.9272 20.9464 23.1451 20.3786 23.1451C19.4696 23.1451 19.2419 22.8726 18.5611 22.0565L12.9943 13.6733V21.7844L14.7558 22.1656C14.7558 22.1656 14.7558 23.1451 13.3347 23.1451L9.41683 23.3631C9.30299 23.1451 9.41683 22.6011 9.81418 22.4921L10.8366 22.2203V11.4961L9.41703 11.3869C9.30318 10.8966 9.58668 10.1895 10.3824 10.1346L14.5855 9.86281L20.3786 18.3551V10.8425L18.9016 10.6799C18.7882 10.0804 19.2419 9.64506 19.81 9.59102L23.7299 9.37216Z" fill="#B6B6B6"/>
</svg>
