<svg width="18" height="18" viewBox="0 0 18 18" fill="none" xmlns="http://www.w3.org/2000/svg">
<path d="M7.24089 11.3256C8.52612 11.0366 9.74045 10.9424 10.8405 11.354C11.9811 11.7809 13.0557 12.7749 13.9538 14.8139C13.6728 15.4418 13.5204 16.1198 13.4401 16.7163C13.3294 17.5374 12.5257 18.179 11.7272 17.9575C10.5894 17.644 9.27199 17.155 8.08659 17.0639C7.93148 17.052 6.29813 16.9284 6.27019 16.9262C6.2164 16.9224 6.16326 16.9127 6.11101 16.9018C7.23679 14.6038 7.48392 12.7759 7.24089 11.3256ZM4.06804 7.70748C4.86683 8.23778 5.83129 9.06295 6.35417 10.3383C6.93075 11.7452 6.99304 13.7618 5.58073 16.644C5.5513 16.6191 5.52287 16.5928 5.49577 16.5649L2.36491 13.3413C2.0228 12.989 1.93049 12.4632 2.13151 12.0151C2.14873 11.9773 3.71243 8.53553 4.06804 7.70748ZM13.5719 4.40963C13.7479 4.63331 13.8382 4.91117 13.8395 5.19576C13.8431 5.94456 13.9051 7.48195 14.319 8.47213C14.7217 9.43528 15.4611 10.4759 15.8473 10.9878C15.9953 11.1842 16.0174 11.4498 15.8923 11.6616C15.6196 12.1233 15.0812 13.0093 14.319 14.146C14.3144 14.1529 14.31 14.1605 14.3053 14.1674C13.3984 12.2939 12.2934 11.2676 11.0475 10.8012C10.7046 10.6729 10.3548 10.5884 10.0007 10.5395C9.36453 8.90423 9.17506 7.69126 9.21648 6.73678C9.25909 5.75758 9.54377 5.02697 9.86882 4.36471C10.1862 3.71826 10.5815 3.07361 10.7663 2.35885C10.8794 1.92106 10.9129 1.45555 10.8317 0.928185L13.5719 4.40963ZM8.71745 0.307091C9.07725 -0.0165574 9.57591 -0.0800485 9.98991 0.0961537C10.3404 0.984155 10.3435 1.63662 10.195 2.21139C10.0302 2.84843 9.69124 3.38843 9.33952 4.10494C8.99544 4.80599 8.67509 5.61963 8.62761 6.71139C8.58419 7.71209 8.77286 8.92715 9.35124 10.4887C8.61188 10.4705 7.8601 10.5822 7.11589 10.7495C7.05507 10.5283 6.98279 10.3166 6.90007 10.1147C6.27414 8.58795 5.09147 7.65783 4.22136 7.10592C4.33307 6.42451 4.51256 5.13428 4.63054 4.35201C4.67198 4.07729 4.8078 3.82494 5.01433 3.63912L8.71745 0.307091Z" fill="#D4D4D4"/>
</svg>