<svg width="29" height="28" viewBox="0 0 29 28" fill="none" xmlns="http://www.w3.org/2000/svg">
<path fill-rule="evenodd" clip-rule="evenodd" d="M28.1514 14C28.1514 21.732 21.8834 28 14.1514 28C6.41938 28 0.151367 21.732 0.151367 14C0.151367 6.26801 6.41938 0 14.1514 0C21.8834 0 28.1514 6.26801 28.1514 14ZM7.65399 23.9791C7.34609 23.2862 7.16317 22.5992 7.31478 22.0383C7.47834 21.4331 8.28161 21.1073 9.10568 21.7684C9.84984 22.3654 10.8679 22.2672 11.2686 21.7112C11.2235 21.6638 11.1741 21.6137 11.1224 21.5613C10.7058 21.1392 10.1422 20.568 10.4877 20.0552C10.7021 19.737 11.2876 19.856 11.8291 19.966C12.2687 20.0553 12.6793 20.1387 12.8387 19.9775C13.1945 19.6177 12.9314 19.0112 12.7897 18.7304L13.5133 18.1155V16.743L6.39075 20.3949L6.35804 19.7243L4.36894 20.7893C5.24728 22.0525 6.36402 23.1375 7.65399 23.9791ZM4.10121 20.3872L4.05196 20.264L10.3867 16.3445L9.2918 14.638H5.88387V15.079H4.50186L3.55326 16.4447L2.64107 17.0576C2.95735 18.2514 3.45443 19.3716 4.10121 20.3872ZM2.64109 10.9423L3.55326 11.5552L4.50185 12.9209H5.88386V13.3623H11.9943C12.2095 12.6332 12.7843 12.0584 13.5133 11.843V5.42957H13.1701C13.1701 4.90825 13.1639 4.0291 12.6631 3.53238C12.1561 3.02946 11.1639 3.17802 10.7005 3.33612L10.3484 2.71373C6.58671 3.98076 3.66557 7.07568 2.64109 10.9423ZM25.6731 17.014C24.9165 19.9144 23.0937 22.3841 20.6483 23.9794C20.9563 23.2863 21.1393 22.5993 20.9877 22.0383C20.8241 21.4331 20.0208 21.1073 19.1968 21.7684C18.4526 22.3654 17.4345 22.2672 17.0338 21.7112C17.079 21.6637 17.1285 21.6136 17.1802 21.5612C17.5967 21.1391 18.1603 20.568 17.8148 20.0552C17.6004 19.737 17.0149 19.856 16.4734 19.966C16.0338 20.0553 15.6231 20.1387 15.4637 19.9775C15.108 19.6177 15.371 19.0112 15.5128 18.7304L14.789 18.1153V16.1572C15.5182 15.942 16.0932 15.3672 16.3085 14.638H22.4853V15.0796H23.7435L24.6513 15.9383L24.733 16.5679L25.6731 17.014ZM26.0579 14.0002C26.0579 14.0002 26.0579 14.0001 26.0579 14.0002ZM25.6732 10.9862C25.3703 9.82495 24.8964 8.73274 24.2802 7.73805L18.6497 11.2219L19.3849 12.2172V13.3623H22.4853V12.9206H23.7435L24.6513 12.0619L24.733 11.4322L25.6732 10.9862ZM23.9427 7.22346L21.9774 8.27572L21.9447 7.60516L17.6171 9.82402L17.2465 9.32233L16.8989 9.48997L16.9153 10.181L16.9166 10.1832L14.789 11.2741V5.42957H15.1328C15.1328 4.90825 15.139 4.0291 15.6398 3.53238C16.1468 3.02946 17.139 3.17802 17.6024 3.33612L17.9545 2.71377C20.4043 3.53897 22.4976 5.13944 23.9427 7.22346ZM10.8712 16.0447L10.0331 14.638H11.9943C12.0529 14.8362 12.138 15.023 12.2456 15.1943L10.8712 16.0447ZM17.8562 11.7128L18.8694 13.3623H16.3085C16.2516 13.1696 16.1696 12.9877 16.0663 12.8203L17.8562 11.7128Z" fill="#B6B6B6"/>
</svg>
