<svg width="20" height="20" viewBox="0 0 20 20" fill="none" xmlns="http://www.w3.org/2000/svg">
<path d="M10.4619 17C9.25381 17 8.18584 16.8439 7.25804 16.5318C6.33023 16.2235 5.55048 15.7683 4.91878 15.1664C4.28708 14.5645 3.80936 13.827 3.48562 12.9538C3.16187 12.0807 3 11.0812 3 9.95541C3 8.86677 3.16385 7.89331 3.49154 7.03503C3.82318 6.17675 4.30288 5.44851 4.93063 4.85032C5.56232 4.24841 6.32826 3.78954 7.22843 3.47373C8.13254 3.15791 9.1551 3 10.2961 3C11.4055 3 12.3768 3.17091 13.2098 3.51274C14.0468 3.85085 14.7456 4.30971 15.3063 4.88933C15.8708 5.46523 16.2933 6.11359 16.5736 6.83439C16.8579 7.5552 17 8.2983 17 9.06369C17 9.60244 16.9724 10.1486 16.9171 10.7022C16.8618 11.2558 16.7453 11.7649 16.5677 12.2293C16.39 12.69 16.1156 13.0616 15.7445 13.344C15.3773 13.6263 14.8799 13.7675 14.2521 13.7675C13.9757 13.7675 13.6717 13.7266 13.3401 13.6449C13.0085 13.5632 12.7143 13.4275 12.4577 13.2381C12.2011 13.0486 12.0491 12.7941 12.0017 12.4745H11.9306C11.8359 12.69 11.6898 12.8944 11.4924 13.0876C11.2989 13.2808 11.0443 13.435 10.7284 13.5502C10.4165 13.6653 10.0355 13.7155 9.58545 13.7006C9.07219 13.6821 8.62014 13.5743 8.22927 13.3774C7.83841 13.1768 7.51072 12.9055 7.24619 12.5637C6.98562 12.2182 6.78821 11.8187 6.65398 11.3654C6.52369 10.9084 6.45854 10.4161 6.45854 9.88854C6.45854 9.38694 6.53751 8.92808 6.69543 8.51194C6.85336 8.09581 7.07248 7.73169 7.35279 7.41959C7.63706 7.10748 7.9687 6.85855 8.34772 6.67277C8.73068 6.48328 9.14326 6.36624 9.58545 6.32166C9.98026 6.2845 10.3395 6.30122 10.6633 6.37182C10.987 6.43869 11.2535 6.54087 11.4628 6.67834C11.672 6.8121 11.8043 6.96072 11.8596 7.1242H11.9306V6.5H13.1861V11.5382C13.1861 11.8503 13.2789 12.1253 13.4645 12.3631C13.65 12.6009 13.9205 12.7197 14.2758 12.7197C14.6785 12.7197 14.9865 12.5897 15.1997 12.3296C15.4168 12.0695 15.5649 11.6683 15.6438 11.1258C15.7267 10.5833 15.7682 9.88854 15.7682 9.0414C15.7682 8.54352 15.6951 8.05308 15.5491 7.57006C15.4069 7.08333 15.1898 6.62819 14.8976 6.20462C14.6094 5.78105 14.2442 5.40764 13.802 5.08439C13.3598 4.76115 12.8407 4.50849 12.2445 4.32643C11.6523 4.14066 10.9791 4.04777 10.225 4.04777C9.29724 4.04777 8.46616 4.18339 7.73181 4.45462C7.00141 4.72213 6.37958 5.11412 5.86633 5.63057C5.35702 6.14331 4.96813 6.76752 4.69966 7.50319C4.43514 8.23514 4.30288 9.06741 4.30288 10C4.30288 10.9475 4.43514 11.789 4.69966 12.5247C4.96813 13.2604 5.36294 13.8808 5.88409 14.3861C6.40919 14.8915 7.05866 15.2742 7.83249 15.5342C8.60632 15.798 9.49859 15.9299 10.5093 15.9299C10.9436 15.9299 11.372 15.8909 11.7944 15.8129C12.2169 15.7349 12.59 15.6494 12.9137 15.5565C13.2375 15.4636 13.4704 15.3949 13.6125 15.3503L13.9442 16.3758C13.6994 16.4724 13.3796 16.569 12.9848 16.6656C12.5939 16.7622 12.1754 16.8421 11.7293 16.9053C11.2871 16.9684 10.8646 17 10.4619 17ZM9.77496 12.5637C10.304 12.5637 10.7324 12.4634 11.0601 12.2627C11.3878 12.0621 11.6266 11.7593 11.7766 11.3543C11.9267 10.9493 12.0017 10.4384 12.0017 9.82166C12.0017 9.19745 11.9188 8.71072 11.753 8.36147C11.5871 8.01221 11.3424 7.76699 11.0186 7.6258C10.6949 7.48461 10.2961 7.41401 9.82233 7.41401C9.37225 7.41401 8.98731 7.52548 8.66751 7.74841C8.35166 7.96762 8.10886 8.26115 7.93909 8.62898C7.77327 8.9931 7.69036 9.39066 7.69036 9.82166C7.69036 10.2972 7.75747 10.745 7.89171 11.1648C8.02594 11.5809 8.24506 11.9191 8.54907 12.1791C8.85307 12.4355 9.2617 12.5637 9.77496 12.5637Z" fill="#f8f8f8"/>
</svg>
