<svg xmlns="http://www.w3.org/2000/svg" width="24" height="24" viewBox="0 0 24 24" fill="none">
    <path fill-rule="evenodd" clip-rule="evenodd" d="M5 9H19V16C19 17.1046 18.1046 18 17 18H11.584C11.428 18.357 11.2315 18.6923 11.0004 19H17C18.6569 19 20 17.6569 20 16V8C20 6.34315 18.6569 5 17 5H7C5.34315 5 4 6.34315 4 8V11.9996C4.30773 11.7685 4.643 11.572 5 11.416V9ZM4.75 14C4.75 14.2761 4.97386 14.5 5.25 14.5H7.79289L3.64645 18.6464C3.45118 18.8417 3.45118 19.1583 3.64645 19.3536C3.84171 19.5488 4.15829 19.5488 4.35355 19.3536L8.5 15.2071V17.75C8.5 18.0261 8.72386 18.25 9 18.25C9.27614 18.25 9.5 18.0261 9.5 17.75V14V13.5H9H5.25C4.97386 13.5 4.75 13.7239 4.75 14Z" fill="#252525"/>
</svg>
