<svg width="20" height="20" viewBox="0 0 20 20" fill="none" xmlns="http://www.w3.org/2000/svg">
<path fill-rule="evenodd" clip-rule="evenodd" d="M14.6104 6.43582L9.09576 14.1563L5.46973 10.5302L6.53039 9.46956L8.90435 11.8435L13.3898 5.56396L14.6104 6.43582Z" fill="#B6B6B6"/>
<path fill-rule="evenodd" clip-rule="evenodd" d="M14 3.5H6C4.61929 3.5 3.5 4.61929 3.5 6V14C3.5 15.3807 4.61929 16.5 6 16.5H14C15.3807 16.5 16.5 15.3807 16.5 14V6C16.5 4.61929 15.3807 3.5 14 3.5ZM6 2C3.79086 2 2 3.79086 2 6V14C2 16.2091 3.79086 18 6 18H14C16.2091 18 18 16.2091 18 14V6C18 3.79086 16.2091 2 14 2H6Z" fill="#B6B6B6"/>
</svg>
