<svg width="20" height="20" viewBox="0 0 20 20" fill="none" xmlns="http://www.w3.org/2000/svg">
<path fill-rule="evenodd" clip-rule="evenodd" d="M14.5768 9.0836L12.8917 10.7687L13.89 11.767L15.5751 10.0819C17.1825 8.47452 17.2191 5.90517 15.657 4.34308C14.0949 2.78098 11.5256 2.81766 9.91825 4.42501L8.23313 6.11013L9.2314 7.1084L10.9165 5.42328C11.9566 4.38323 13.6191 4.35949 14.6299 5.37026C15.6406 6.38103 15.6169 8.04355 14.5768 9.0836ZM5.51477 10.825L7.10937 9.23043L6.1111 8.23216L4.5165 9.82676C2.85877 11.4845 2.78124 14.0947 4.34333 15.6568C5.90543 17.2189 8.51562 17.1414 10.1734 15.4836L11.768 13.889L10.7697 12.8907L9.17509 14.4853C8.10243 15.558 6.41349 15.6082 5.40272 14.5974C4.39195 13.5866 4.44212 11.8977 5.51477 10.825Z" fill="#B6B6B6"/>
<rect x="6.10938" y="2" width="1.5" height="3" fill="#B6B6B6"/>
<rect x="2" y="7.76172" width="1.5" height="3" transform="rotate(-90 2 7.76172)" fill="#B6B6B6"/>
<rect x="12.2402" y="15" width="1.5" height="3" fill="#B6B6B6"/>
<rect x="15" y="13.8906" width="1.5" height="3" transform="rotate(-90 15 13.8906)" fill="#B6B6B6"/>
</svg>