<svg xmlns="http://www.w3.org/2000/svg" width="16" height="16" viewBox="0 0 16 16" fill="none">
    <path fill-rule="evenodd" clip-rule="evenodd" d="M8 15C11.866 15 15 11.866 15 8C15 4.13401 11.866 1 8 1C4.13401 1 1 4.13401 1 8C1 11.866 4.13401 15 8 15ZM8.43251 9.62059H7.14081V9.52145C7.14856 8.14871 7.54422 7.72545 8.2308 7.30601C8.70016 7.01621 9.0609 6.65014 9.0609 6.1163C9.0609 5.51764 8.58379 5.12869 7.9903 5.12869C7.44337 5.12869 6.91583 5.47188 6.88092 6.18875H5.5C5.53879 4.73975 6.64042 4 7.99806 4C9.47983 4 10.5 4.80839 10.5 6.09724C10.5 6.97045 10.0539 7.54242 9.34019 7.96187C8.70791 8.34318 8.44026 8.71306 8.43251 9.52145V9.62059ZM8.673 11.1611C8.66912 11.6263 8.27735 12 7.81963 12C7.34639 12 6.96237 11.6263 6.96625 11.1611C6.96237 10.7035 7.34639 10.3298 7.81963 10.3298C8.27735 10.3298 8.66912 10.7035 8.673 11.1611Z" fill="#868686" fill-opacity="0.7"/>
</svg>
