<svg width="20" height="20" viewBox="0 0 20 20" fill="none" xmlns="http://www.w3.org/2000/svg">
<path d="M15 11C17.2091 11 19 12.7909 19 15C19 17.2091 17.2091 19 15 19C12.7909 19 11 17.2091 11 15C11 12.7909 12.7909 11 15 11ZM15 12.5C14.5858 12.5 14.25 12.8358 14.25 13.25V14.25H13.25C12.8358 14.25 12.5 14.5858 12.5 15C12.5 15.4142 12.8358 15.75 13.25 15.75H14.25V16.75C14.25 17.1642 14.5858 17.5 15 17.5C15.4142 17.5 15.75 17.1642 15.75 16.75V15.75H16.75C17.1642 15.75 17.5 15.4142 17.5 15C17.5 14.5858 17.1642 14.25 16.75 14.25H15.75V13.25C15.75 12.8358 15.4142 12.5 15 12.5ZM10 9C11.1237 9 12.1751 9.30915 13.0742 9.84668C12.4974 10.0623 11.9663 10.3717 11.5 10.7568C11.0308 10.591 10.526 10.5 10 10.5C7.51472 10.5 5.5 12.5147 5.5 15V15.4004C5.50021 15.4553 5.54469 15.4998 5.59961 15.5H9.52344C9.57075 16.0249 9.69256 16.528 9.87695 17H5.59961C4.7713 16.9998 4.08966 16.3702 4.00781 15.5635L4 15.4004V15C4 11.6863 6.68629 9 10 9ZM10 2C11.5188 2 12.75 3.34315 12.75 5C12.75 6.65685 11.5188 8 10 8C8.48122 8 7.25 6.65685 7.25 5C7.25 3.34315 8.48122 2 10 2ZM10 3.5C9.42983 3.5 8.75 4.04604 8.75 5C8.75 5.95396 9.42983 6.5 10 6.5C10.5702 6.5 11.25 5.95396 11.25 5C11.25 4.04604 10.5702 3.5 10 3.5Z" fill="#9B9B9B"/>
</svg>
