<svg width="20" height="20" viewBox="0 0 20 20" fill="none" xmlns="http://www.w3.org/2000/svg">
<path fill-rule="evenodd" clip-rule="evenodd" d="M16.5 3.5H3.5C2.94772 3.5 2.5 3.94772 2.5 4.5V15.5C2.5 16.0523 2.94772 16.5 3.5 16.5H16.5C17.0523 16.5 17.5 16.0523 17.5 15.5V4.5C17.5 3.94772 17.0523 3.5 16.5 3.5ZM3.5 2C2.11929 2 1 3.11929 1 4.5V15.5C1 16.8807 2.11929 18 3.5 18H16.5C17.8807 18 19 16.8807 19 15.5V4.5C19 3.11929 17.8807 2 16.5 2H3.5Z" fill="#ACA996"/>
<path d="M6.5 2H8V18H6.5V2Z" fill="#ACA996"/>
<path d="M12 2H13.5V18H12V2Z" fill="#ACA996"/>
</svg>
