<svg xmlns="http://www.w3.org/2000/svg" width="20" height="20" viewBox="0 0 20 20" fill="none">
    <path d="M5.5 18.957C4.65625 18.957 4.01823 18.7435 3.58594 18.3164C3.15365 17.8893 2.9375 17.2565 2.9375 16.418V8.76953C2.9375 7.93099 3.15365 7.29818 3.58594 6.87109C4.01823 6.44401 4.65625 6.23047 5.5 6.23047H7.79688V7.76172H5.59375C5.22917 7.76172 4.95052 7.85547 4.75781 8.04297C4.57031 8.23047 4.47656 8.51432 4.47656 8.89453V16.2852C4.47656 16.6654 4.57031 16.9492 4.75781 17.1367C4.95052 17.3294 5.22917 17.4258 5.59375 17.4258H14.3984C14.7578 17.4258 15.0339 17.3294 15.2266 17.1367C15.4245 16.9492 15.5234 16.6654 15.5234 16.2852V8.89453C15.5234 8.51432 15.4245 8.23047 15.2266 8.04297C15.0339 7.85547 14.7578 7.76172 14.3984 7.76172H12.1953V6.23047H14.5C15.3438 6.23047 15.9818 6.44401 16.4141 6.87109C16.8464 7.29818 17.0625 7.93099 17.0625 8.76953V16.418C17.0625 17.2565 16.8464 17.8893 16.4141 18.3164C15.9818 18.7435 15.3438 18.957 14.5 18.957H5.5ZM10 12.6523C9.80208 12.6523 9.63021 12.582 9.48438 12.4414C9.34375 12.3008 9.27344 12.1367 9.27344 11.9492V4.10547L9.33594 2.94922L8.92188 3.44141L7.80469 4.62891C7.67969 4.77474 7.51562 4.84766 7.3125 4.84766C7.13542 4.84766 6.98438 4.79036 6.85938 4.67578C6.73438 4.55599 6.67188 4.40495 6.67188 4.22266C6.67188 4.05078 6.74219 3.89714 6.88281 3.76172L9.44531 1.28516C9.54427 1.19141 9.63802 1.12891 9.72656 1.09766C9.8151 1.0612 9.90625 1.04297 10 1.04297C10.0938 1.04297 10.1849 1.0612 10.2734 1.09766C10.362 1.12891 10.4531 1.19141 10.5469 1.28516L13.1172 3.76172C13.2526 3.89714 13.3203 4.05078 13.3203 4.22266C13.3203 4.40495 13.2552 4.55599 13.125 4.67578C13 4.79036 12.849 4.84766 12.6719 4.84766C12.4792 4.84766 12.3177 4.77474 12.1875 4.62891L11.0781 3.44141L10.6641 2.94922L10.7266 4.10547V11.9492C10.7266 12.1367 10.6536 12.3008 10.5078 12.4414C10.3672 12.582 10.1979 12.6523 10 12.6523Z" fill="#9B9B9B"/>
</svg>
