<svg width="21" height="20" viewBox="0 0 21 20" fill="none" xmlns="http://www.w3.org/2000/svg">
<path d="M5.82959 15C5.82959 16.1046 4.93416 17 3.82959 17C2.72502 17 1.82959 16.1046 1.82959 15C1.82959 13.8954 2.72502 13 3.82959 13C4.93416 13 5.82959 13.8954 5.82959 15Z" fill="#B6B6B6"/>
<path d="M18.3296 15C18.3296 16.1046 17.4342 17 16.3296 17C15.225 17 14.3296 16.1046 14.3296 15C14.3296 13.8954 15.225 13 16.3296 13C17.4342 13 18.3296 13.8954 18.3296 15Z" fill="#B6B6B6"/>
<path d="M12.0796 4C12.0796 5.10457 11.1842 6 10.0796 6C8.97502 6 8.07959 5.10457 8.07959 4C8.07959 2.89543 8.97502 2 10.0796 2C11.1842 2 12.0796 2.89543 12.0796 4Z" fill="#B6B6B6"/>
<path d="M7.07959 15C7.07959 14.5858 7.41538 14.25 7.82959 14.25H12.3296C12.7438 14.25 13.0796 14.5858 13.0796 15C13.0796 15.4142 12.7438 15.75 12.3296 15.75H7.82959C7.41538 15.75 7.07959 15.4142 7.07959 15Z" fill="#B6B6B6"/>
<path fill-rule="evenodd" clip-rule="evenodd" d="M8.18041 6.58731C8.54649 6.78111 8.68614 7.23499 8.49234 7.60107L6.24234 11.8511C6.04853 12.2171 5.59466 12.3568 5.22858 12.163C4.8625 11.9692 4.72285 11.5153 4.91665 11.1492L7.16665 6.89923C7.36046 6.53316 7.81433 6.3935 8.18041 6.58731Z" fill="#B6B6B6"/>
<path fill-rule="evenodd" clip-rule="evenodd" d="M11.9788 6.58731C11.6127 6.78111 11.473 7.23499 11.6668 7.60107L13.9168 11.8511C14.1106 12.2171 14.5645 12.3568 14.9306 12.163C15.2967 11.9692 15.4363 11.5153 15.2425 11.1492L12.9925 6.89923C12.7987 6.53316 12.3448 6.3935 11.9788 6.58731Z" fill="#B6B6B6"/>
</svg>
