<svg width="20" height="20" viewBox="0 0 20 20" fill="none" xmlns="http://www.w3.org/2000/svg">
<g clip-path="url(#clip0_10252_18589)">
<path d="M9.96875 18.4297C8.85417 18.4297 7.8099 18.2188 6.83594 17.7969C5.86198 17.3802 5.00521 16.8021 4.26562 16.0625C3.52604 15.3281 2.94531 14.474 2.52344 13.5C2.10677 12.5208 1.89844 11.474 1.89844 10.3594C1.89844 9.24479 2.10677 8.20052 2.52344 7.22656C2.94531 6.2474 3.52604 5.38802 4.26562 4.64844C5.00521 3.90885 5.86198 3.33073 6.83594 2.91406C7.8099 2.4974 8.85417 2.28906 9.96875 2.28906C11.0833 2.28906 12.1276 2.4974 13.1016 2.91406C14.0807 3.33073 14.9401 3.90885 15.6797 4.64844C16.4193 5.38802 16.9974 6.2474 17.4141 7.22656C17.8359 8.20052 18.0469 9.24479 18.0469 10.3594C18.0469 11.474 17.8359 12.5208 17.4141 13.5C16.9974 14.474 16.4193 15.3281 15.6797 16.0625C14.9401 16.8021 14.0807 17.3802 13.1016 17.7969C12.1276 18.2188 11.0833 18.4297 9.96875 18.4297ZM9.96875 16.8359C10.8646 16.8359 11.7031 16.6667 12.4844 16.3281C13.2656 15.9948 13.9531 15.5312 14.5469 14.9375C15.1458 14.3438 15.612 13.6562 15.9453 12.875C16.2786 12.0938 16.4453 11.2552 16.4453 10.3594C16.4453 9.46354 16.2786 8.625 15.9453 7.84375C15.612 7.05729 15.1458 6.36979 14.5469 5.78125C13.9531 5.1875 13.2656 4.72396 12.4844 4.39062C11.7031 4.05208 10.8646 3.88281 9.96875 3.88281C9.07812 3.88281 8.23958 4.05208 7.45312 4.39062C6.67188 4.72396 5.98438 5.1875 5.39062 5.78125C4.79688 6.36979 4.33073 7.05729 3.99219 7.84375C3.65885 8.625 3.49219 9.46354 3.49219 10.3594C3.49219 11.2552 3.65885 12.0938 3.99219 12.875C4.33073 13.6562 4.79688 14.3438 5.39062 14.9375C5.98438 15.5312 6.67188 15.9948 7.45312 16.3281C8.23958 16.6667 9.07812 16.8359 9.96875 16.8359ZM8.60156 14.6484C8.42448 14.6484 8.27604 14.5938 8.15625 14.4844C8.04167 14.3698 7.98438 14.2266 7.98438 14.0547C7.98438 13.8828 8.04167 13.7422 8.15625 13.6328C8.27604 13.5182 8.42448 13.4609 8.60156 13.4609H9.53125V10.1953H8.74219C8.5651 10.1953 8.41667 10.1406 8.29688 10.0312C8.17708 9.91667 8.11719 9.77344 8.11719 9.60156C8.11719 9.4349 8.17708 9.29427 8.29688 9.17969C8.41667 9.0651 8.5651 9.00781 8.74219 9.00781H10.2109C10.4297 9.00781 10.5938 9.07812 10.7031 9.21875C10.8177 9.35417 10.875 9.53906 10.875 9.77344V13.4609H11.7422C11.9193 13.4609 12.0651 13.5182 12.1797 13.6328C12.2995 13.7422 12.3594 13.8828 12.3594 14.0547C12.3594 14.2266 12.2995 14.3698 12.1797 14.4844C12.0651 14.5938 11.9193 14.6484 11.7422 14.6484H8.60156ZM9.92188 7.79688C9.63021 7.79688 9.38021 7.69531 9.17188 7.49219C8.96875 7.28385 8.86719 7.03385 8.86719 6.74219C8.86719 6.44531 8.96875 6.19531 9.17188 5.99219C9.38021 5.78385 9.63021 5.67969 9.92188 5.67969C10.2135 5.67969 10.4609 5.78385 10.6641 5.99219C10.8724 6.19531 10.9766 6.44531 10.9766 6.74219C10.9766 7.03385 10.8724 7.28385 10.6641 7.49219C10.4609 7.69531 10.2135 7.79688 9.92188 7.79688Z" fill="#9B9B9B"/>
</g>
<defs>
<clipPath id="clip0_10252_18589">
<rect width="20" height="20" fill="white"/>
</clipPath>
</defs>
</svg>