<svg width="20" height="20" viewBox="0 0 20 20" fill="none" xmlns="http://www.w3.org/2000/svg">
<path fill-rule="evenodd" clip-rule="evenodd" d="M13.5 8.5C13.5 11.2614 11.2614 13.5 8.5 13.5C5.73858 13.5 3.5 11.2614 3.5 8.5C3.5 5.73858 5.73858 3.5 8.5 3.5C11.2614 3.5 13.5 5.73858 13.5 8.5ZM12.5353 13.596C11.4268 14.475 10.0247 15 8.5 15C4.91015 15 2 12.0899 2 8.5C2 4.91015 4.91015 2 8.5 2C12.0899 2 15 4.91015 15 8.5C15 10.0247 14.475 11.4268 13.596 12.5353L17.7804 16.7197C18.0733 17.0126 18.0733 17.4875 17.7804 17.7804C17.4875 18.0733 17.0126 18.0733 16.7197 17.7804L12.5353 13.596Z" fill="#b6b6b6"/>
</svg>
