<svg width="21" height="20" viewBox="0 0 21 20" fill="none" xmlns="http://www.w3.org/2000/svg">
<path fill-rule="evenodd" clip-rule="evenodd" d="M1.92969 10C1.92969 9.58579 2.26547 9.25 2.67969 9.25H3.96939C3.94315 9.49641 3.92969 9.74663 3.92969 10C3.92969 10.2534 3.94315 10.5036 3.96939 10.75H2.67969C2.26547 10.75 1.92969 10.4142 1.92969 10ZM4.52612 12.8318C4.73033 13.2929 4.98288 13.7278 5.27734 14.1301L4.16124 14.7745C3.80252 14.9816 3.34383 14.8587 3.13672 14.5C2.92961 14.1412 3.05252 13.6825 3.41124 13.4754L4.52612 12.8318ZM6.79919 15.652C7.20148 15.9465 7.63638 16.1991 8.09746 16.4034L7.45295 17.5197C7.24584 17.8784 6.78715 18.0013 6.42843 17.7942C6.06971 17.5871 5.9468 17.1284 6.15391 16.7697L6.79919 15.652ZM10.1797 16.9603C10.4261 16.9865 10.6763 17 10.9297 17C11.1831 17 11.4333 16.9865 11.6797 16.9603V18.25C11.6797 18.6642 11.3439 19 10.9297 19C10.5155 19 10.1797 18.6642 10.1797 18.25V16.9603ZM13.7619 16.4034C14.223 16.1991 14.6579 15.9465 15.0602 15.652L15.7055 16.7697C15.9126 17.1284 15.7897 17.5871 15.4309 17.7942C15.0722 18.0013 14.6135 17.8784 14.4064 17.5197L13.7619 16.4034ZM16.582 14.1301C16.8765 13.7278 17.129 13.2929 17.3332 12.8318L18.4481 13.4755C18.8069 13.6826 18.9298 14.1413 18.7227 14.5C18.5155 14.8587 18.0569 14.9816 17.6981 14.7745L16.582 14.1301ZM17.89 10.75H19.1797C19.5939 10.75 19.9297 10.4142 19.9297 10C19.9297 9.58579 19.5939 9.25 19.1797 9.25H17.89C17.9162 9.49641 17.9297 9.74663 17.9297 10C17.9297 10.2534 17.9162 10.5036 17.89 10.75ZM17.3337 7.16933C17.1296 6.70819 16.8771 6.27323 16.5827 5.87087L17.7007 5.22544C18.0594 5.01834 18.5181 5.14124 18.7252 5.49996C18.9323 5.85868 18.8094 6.31737 18.4507 6.52448L17.3337 7.16933ZM15.0584 4.34665C14.656 4.05229 14.2211 3.79984 13.7599 3.59575L14.4039 2.48028C14.611 2.12156 15.0697 1.99866 15.4284 2.20576C15.7871 2.41287 15.9101 2.87156 15.7029 3.23028L15.0584 4.34665ZM11.6797 3.03971C11.4333 3.01346 11.1831 3 10.9297 3C10.6763 3 10.4261 3.01346 10.1797 3.03971V1.75C10.1797 1.33579 10.5155 1 10.9297 1C11.3439 1 11.6797 1.33579 11.6797 1.75V3.03971ZM8.09949 3.59574C7.63834 3.79983 7.20336 4.05228 6.80098 4.34664L6.15643 3.23025C5.94932 2.87153 6.07223 2.41284 6.43095 2.20573C6.78967 1.99862 7.24836 2.12153 7.45547 2.48025L8.09949 3.59574ZM5.27662 5.87089C4.98223 6.27325 4.72975 6.70822 4.52563 7.16936L3.40872 6.52451C3.05 6.3174 2.92709 5.85871 3.1342 5.49999C3.34131 5.14127 3.8 5.01837 4.15872 5.22547L5.27662 5.87089Z" fill="white"/>
<circle r="6.25" transform="matrix(0 -1 -1 0 10.9297 10)" stroke="white" stroke-width="1.5"/>
<rect x="10.1797" y="9.25" width="9.24902" height="1.5" rx="0.75" fill="white"/>
<rect x="6.03125" y="16.9868" width="9.25017" height="1.5" rx="0.75" transform="rotate(-60 6.03125 16.9868)" fill="white"/>
<rect x="7.32812" y="2.26392" width="9.25125" height="1.5" rx="0.75" transform="rotate(60 7.32812 2.26392)" fill="white"/>
</svg>
