<svg width="21" height="20" viewBox="0 0 21 20" fill="none" xmlns="http://www.w3.org/2000/svg">
<path fill-rule="evenodd" clip-rule="evenodd" d="M19.5 10C19.5 9.58579 19.1642 9.25 18.75 9.25H17.4603C17.3821 8.51638 17.1907 7.81662 16.9037 7.16858L18.0197 6.52424C18.3785 6.31713 18.5014 5.85844 18.2943 5.49972C18.0872 5.141 17.6285 5.01809 17.2697 5.2252L16.1526 5.8702C15.7264 5.28792 15.2125 4.77394 14.6302 4.34775L15.0256 3.66295C15.0312 3.65331 15.0365 3.6436 15.0416 3.63383L15.2747 3.23001C15.4818 2.87129 15.3589 2.4126 15.0002 2.20549C14.6415 1.99838 14.1828 2.12129 13.9757 2.48001L13.3312 3.59621C12.6832 3.30929 11.9836 3.11784 11.25 3.03971V1.75C11.25 1.33579 10.9142 1 10.5 1C10.0858 1 9.75 1.33579 9.75 1.75V3.03971C9.01652 3.11784 8.31689 3.30925 7.66895 3.59612L7.02456 2.48001C6.81745 2.12129 6.35876 1.99838 6.00004 2.20549C5.64132 2.4126 5.51841 2.87129 5.72552 3.23001L6.37053 4.3472C5.788 4.77347 5.27382 5.28761 4.84751 5.8701L3.7305 5.2252C3.37178 5.01809 2.91308 5.141 2.70598 5.49972C2.49887 5.85844 2.62178 6.31713 2.9805 6.52424L4.09633 7.16846C3.80941 7.8164 3.61794 8.51603 3.53976 9.24951H2.75098C2.74183 9.24951 2.73272 9.24968 2.72366 9.25H2.25C1.83579 9.25 1.5 9.58579 1.5 10C1.5 10.4142 1.83579 10.75 2.25 10.75H3.53971C3.61783 11.4835 3.80924 12.1831 4.0961 12.831L2.98033 13.4752C2.62161 13.6823 2.4987 14.141 2.70581 14.4997C2.91292 14.8584 3.37161 14.9813 3.73033 14.7742L4.84717 14.1294C5.27352 14.7121 5.78778 15.2264 6.37042 15.6527L5.72569 16.7694C5.51858 17.1281 5.64149 17.5868 6.00021 17.7939C6.35892 18.0011 6.81762 17.8781 7.02472 17.5194L7.66882 16.4038C8.3168 16.6907 9.01647 16.8822 9.75 16.9603V18.25C9.75 18.6642 10.0858 19 10.5 19C10.9142 19 11.25 18.6642 11.25 18.25V16.9603C11.9835 16.8822 12.6831 16.6907 13.3311 16.4039L13.7254 17.0868C13.7291 17.0932 13.7329 17.0996 13.7368 17.1059L13.9755 17.5194C14.1826 17.8781 14.6413 18.0011 15 17.7939C15.3588 17.5868 15.4817 17.1281 15.2746 16.7694L14.6298 15.6526C15.2124 15.2262 15.7266 14.712 16.1529 14.1293L17.2699 14.7742C17.6286 14.9813 18.0873 14.8584 18.2944 14.4997C18.5015 14.141 18.3786 13.6823 18.0199 13.4752L16.904 12.8309C17.1908 12.183 17.3822 11.4834 17.4603 10.75H18.75C19.1642 10.75 19.5 10.4142 19.5 10ZM12.5762 4.90537C11.9356 4.64402 11.2346 4.5 10.5 4.5C7.71701 4.5 5.41678 6.56699 5.05078 9.24951H10.0681L12.5762 4.90537ZM13.8746 5.6566C15.168 6.66294 16 8.2343 16 10C16 11.766 15.1676 13.3376 13.8738 14.344L11.3664 10.0009L13.8746 5.6566ZM12.5754 15.095L10.0665 10.7495H5.05064C5.41623 13.4325 7.71667 15.5 10.5 15.5C11.2343 15.5 11.935 15.3561 12.5754 15.095Z" fill="white"/>
</svg>
