<svg width="20" height="20" viewBox="0 0 20 20" fill="none" xmlns="http://www.w3.org/2000/svg">
<path d="M5.5 18.5068C4.65625 18.5068 4.01823 18.2933 3.58594 17.8662C3.15365 17.4391 2.9375 16.8063 2.9375 15.9678V8.31934C2.9375 7.48079 3.15365 6.84798 3.58594 6.4209C4.01823 5.99381 4.65625 5.78027 5.5 5.78027H7.79688V7.31152H5.59375C5.22917 7.31152 4.95052 7.40527 4.75781 7.59277C4.57031 7.78027 4.47656 8.06413 4.47656 8.44434V15.835C4.47656 16.2152 4.57031 16.499 4.75781 16.6865C4.95052 16.8792 5.22917 16.9756 5.59375 16.9756H14.3984C14.7578 16.9756 15.0339 16.8792 15.2266 16.6865C15.4245 16.499 15.5234 16.2152 15.5234 15.835V8.44434C15.5234 8.06413 15.4245 7.78027 15.2266 7.59277C15.0339 7.40527 14.7578 7.31152 14.3984 7.31152H12.1953V5.78027H14.5C15.3438 5.78027 15.9818 5.99381 16.4141 6.4209C16.8464 6.84798 17.0625 7.48079 17.0625 8.31934V15.9678C17.0625 16.8063 16.8464 17.4391 16.4141 17.8662C15.9818 18.2933 15.3438 18.5068 14.5 18.5068H5.5ZM10 12.2021C9.80208 12.2021 9.63021 12.1318 9.48438 11.9912C9.34375 11.8506 9.27344 11.6865 9.27344 11.499V3.65527L9.33594 2.49902L8.92188 2.99121L7.80469 4.17871C7.67969 4.32454 7.51562 4.39746 7.3125 4.39746C7.13542 4.39746 6.98438 4.34017 6.85938 4.22559C6.73438 4.10579 6.67188 3.95475 6.67188 3.77246C6.67188 3.60059 6.74219 3.44694 6.88281 3.31152L9.44531 0.834961C9.54427 0.741211 9.63802 0.678711 9.72656 0.647461C9.8151 0.611003 9.90625 0.592773 10 0.592773C10.0938 0.592773 10.1849 0.611003 10.2734 0.647461C10.362 0.678711 10.4531 0.741211 10.5469 0.834961L13.1172 3.31152C13.2526 3.44694 13.3203 3.60059 13.3203 3.77246C13.3203 3.95475 13.2552 4.10579 13.125 4.22559C13 4.34017 12.849 4.39746 12.6719 4.39746C12.4792 4.39746 12.3177 4.32454 12.1875 4.17871L11.0781 2.99121L10.6641 2.49902L10.7266 3.65527V11.499C10.7266 11.6865 10.6536 11.8506 10.5078 11.9912C10.3672 12.1318 10.1979 12.2021 10 12.2021Z" fill="#9B9B9B"/>
</svg>
