<svg width="20" height="20" viewBox="0 0 20 20" fill="none" xmlns="http://www.w3.org/2000/svg">
<path d="M10.0034 2C14.4217 2 18.0034 5.58172 18.0034 10C18.0034 14.4183 14.4217 18 10.0034 18C5.58514 18 2.00342 14.4183 2.00342 10C2.00342 5.58172 5.58514 2 10.0034 2ZM8.02002 10.75C8.09697 12.4862 8.43634 13.9894 8.90283 15.0557C9.17003 15.6664 9.44987 16.0665 9.68408 16.293C9.79661 16.4017 9.88186 16.4545 9.93311 16.4785L10.0034 16.5C10.0067 16.5 10.0271 16.5003 10.0737 16.4785C10.125 16.4545 10.2102 16.4017 10.3228 16.293C10.557 16.0665 10.8368 15.6664 11.104 15.0557C11.5705 13.9894 11.9099 12.4862 11.9868 10.75H8.02002ZM3.54736 10.75C3.83035 13.2127 5.48881 15.2561 7.73584 16.0928C7.06019 14.7775 6.6069 12.8856 6.52002 10.75H3.54736ZM13.4868 10.75C13.3999 12.8859 12.9458 14.7775 12.27 16.0928C14.5175 15.2563 16.1764 13.213 16.4595 10.75H13.4868ZM7.73584 3.90625C5.48865 4.74281 3.83036 6.7872 3.54736 9.25H6.52002C6.60692 7.11393 7.05997 5.22158 7.73584 3.90625ZM9.93311 3.52148C9.88186 3.54553 9.79661 3.59829 9.68408 3.70703C9.44987 3.93346 9.17003 4.33361 8.90283 4.94434C8.43634 6.01061 8.09697 7.51381 8.02002 9.25H11.9868C11.9099 7.51381 11.5705 6.01061 11.104 4.94434C10.8368 4.33361 10.557 3.93346 10.3228 3.70703C10.2102 3.59829 10.125 3.54553 10.0737 3.52148C10.0271 3.49969 10.0067 3.5 10.0034 3.5C10.0002 3.5 9.9797 3.49969 9.93311 3.52148ZM12.27 3.90625C12.946 5.2216 13.3999 7.11372 13.4868 9.25H16.4595C16.1764 6.78689 14.5176 4.74261 12.27 3.90625Z" fill="#9B9B9B"/>
</svg>