<svg xmlns="http://www.w3.org/2000/svg" width="20" height="20" viewBox="2 2 20 20">
	<path fill="#B6B6B6" d="M12 10h4.616V9H12zm0 5h4.616v-1H12zm-3-4.27q.517 0 .874-.356t.357-.874t-.357-.874T9 8.269t-.874.357t-.357.874t.357.874t.874.357m0 5q.517 0 .874-.357t.357-.874t-.357-.874T9 13.269t-.874.357t-.357.874t.357.874t.874.357M5.616 20q-.691 0-1.153-.462T4 18.384V5.616q0-.691.463-1.153T5.616 4h12.769q.69 0 1.153.463T20 5.616v12.769q0 .69-.462 1.153T18.384 20zm0-1h12.769q.23 0 .423-.192t.192-.424V5.616q0-.231-.192-.424T18.384 5H5.616q-.231 0-.424.192T5 5.616v12.769q0 .23.192.423t.423.192M5 5v14z" />
</svg>