<svg width="20" height="20" viewBox="0 0 20 20" fill="none" xmlns="http://www.w3.org/2000/svg">
<path d="M4.66048 8.45252C4.97452 8.13849 5.36124 7.90878 5.82067 7.76339C6.283 7.62091 6.78749 7.57293 7.33414 7.61946C7.68649 7.64742 8.04064 7.71901 8.39657 7.83423C8.76965 7.955 9.18612 7.90375 9.48238 7.64684L10.684 6.60478C10.9767 6.35092 11.0918 5.95175 11.0087 5.57327C10.9818 5.4507 10.9578 5.33022 10.9368 5.21185C10.8845 4.90363 10.8481 4.62304 10.8278 4.37006C10.8132 4.11709 10.8176 3.90337 10.8409 3.72891C10.8758 3.4614 10.9674 3.25349 11.1157 3.1052C11.261 2.95981 11.4297 2.89003 11.6216 2.89584C11.8193 2.90166 11.9996 2.98598 12.1624 3.14882L16.8555 7.8419C17.0154 8.00182 17.0983 8.18065 17.1041 8.37838C17.1129 8.57319 17.0445 8.7433 16.8991 8.88868C16.7508 9.03698 16.5415 9.12712 16.2711 9.1591C16.0995 9.18527 15.8858 9.18963 15.6299 9.17219C15.3798 9.15474 15.0992 9.11839 14.7881 9.06315C14.6682 9.04052 14.5456 9.01526 14.4204 8.98735C14.0458 8.90384 13.6513 9.02065 13.3998 9.31064L12.3542 10.5164C12.0967 10.8132 12.0459 11.2308 12.1678 11.6044C12.2845 11.962 12.3569 12.3173 12.3849 12.6702C12.4314 13.2168 12.382 13.7199 12.2366 14.1793C12.0941 14.6416 11.8658 15.0298 11.5518 15.3439C11.3541 15.5416 11.1316 15.639 10.8845 15.6361C10.6431 15.6332 10.4178 15.527 10.2084 15.3177L7.87934 12.9886L7.01575 12.125L4.68229 9.79154C4.47584 9.58509 4.36971 9.35974 4.36389 9.11549C4.36389 8.87124 4.46275 8.65025 4.66048 8.45252Z" fill="#9B9B9B"/>
<path d="M8.04987 13.0386L4.79939 16.1748C4.27235 16.7019 3.56834 17.0191 3.17153 17.0868C3.04077 17.113 2.95906 17.1097 2.92637 17.077C2.89041 17.0411 2.88551 16.9577 2.91166 16.827C3.03266 16.2219 3.39487 15.6377 3.82855 15.204L7.07904 12.0678C7.42141 11.6927 8.42141 12.6924 8.04987 13.0386Z" fill="#9B9B9B"/>
</svg>
