<svg width="20" height="20" viewBox="0 0 20 20" fill="none" xmlns="http://www.w3.org/2000/svg">
<path d="M16.25 14.25C16.6642 14.25 17 14.5858 17 15C17 15.4142 16.6642 15.75 16.25 15.75H3.75C3.33579 15.75 3 15.4142 3 15C3 14.5858 3.33579 14.25 3.75 14.25H16.25ZM16.25 9.25C16.6642 9.25 17 9.58579 17 10C17 10.4142 16.6642 10.75 16.25 10.75H3.75C3.33579 10.75 3 10.4142 3 10C3 9.58579 3.33579 9.25 3.75 9.25H16.25ZM16.25 4.25C16.6642 4.25 17 4.58579 17 5C17 5.41421 16.6642 5.75 16.25 5.75H3.75C3.33579 5.75 3 5.41421 3 5C3 4.58579 3.33579 4.25 3.75 4.25H16.25Z" fill="#9B9B9B"/>
</svg>