<svg xmlns="http://www.w3.org/2000/svg" width="20" height="20" viewBox="0 0 20 20" fill="none">
    <path d="M17.25 14.25C17.6642 14.25 18 14.5858 18 15C18 15.4142 17.6642 15.75 17.25 15.75H2.75C2.33579 15.75 2 15.4142 2 15C2 14.5858 2.33579 14.25 2.75 14.25H17.25ZM17.25 9.25C17.6642 9.25 18 9.58579 18 10C18 10.4142 17.6642 10.75 17.25 10.75H2.75C2.33579 10.75 2 10.4142 2 10C2 9.58579 2.33579 9.25 2.75 9.25H17.25ZM17.25 4.25C17.6642 4.25 18 4.58579 18 5C18 5.41421 17.6642 5.75 17.25 5.75H2.75C2.33579 5.75 2 5.41421 2 5C2 4.58579 2.33579 4.25 2.75 4.25H17.25Z" fill="#9B9B9B"/>
</svg>
