<svg width="20" height="20" viewBox="0 0 20 20" fill="none" xmlns="http://www.w3.org/2000/svg">
<path fill-rule="evenodd" clip-rule="evenodd" d="M11 2.5H9C8.72386 2.5 8.5 2.72386 8.5 3V3.5H11.5V3C11.5 2.72386 11.2761 2.5 11 2.5ZM9 1C7.89543 1 7 1.89543 7 3V5H13V3C13 1.89543 12.1046 1 11 1H9Z" fill="white"/>
<path d="M2.5 4.25C2.5 3.83579 2.83579 3.5 3.25 3.5H16.75C17.1642 3.5 17.5 3.83579 17.5 4.25C17.5 4.66421 17.1642 5 16.75 5H3.25C2.83579 5 2.5 4.66421 2.5 4.25Z" fill="white"/>
<path d="M7.5 6.5H9V15H7.5V6.5Z" fill="white"/>
<path d="M11 6.5H12.5V15H11V6.5Z" fill="white"/>
<path d="M5.16632 15.5603L4.77631 4.25H15.2237L14.8337 15.5603C14.8012 16.5028 14.0277 17.25 13.0847 17.25H6.91528C5.97225 17.25 5.19882 16.5028 5.16632 15.5603Z" stroke="white" stroke-width="1.5"/>
</svg>
