<svg width="20" height="21" viewBox="0 0 20 21" fill="none" xmlns="http://www.w3.org/2000/svg">
<path fill-rule="evenodd" clip-rule="evenodd" d="M17.0303 3.46967C17.3232 3.76256 17.3232 4.23744 17.0303 4.53033L4.03033 17.5303C3.73744 17.8232 3.26256 17.8232 2.96967 17.5303C2.67678 17.2374 2.67678 16.7626 2.96967 16.4697L15.9697 3.46967C16.2626 3.17678 16.7374 3.17678 17.0303 3.46967Z" fill="#B6B6B6"/>
<path fill-rule="evenodd" clip-rule="evenodd" d="M10 4.5C5.2 4.5 2.66667 8.5 2 10.5C2.45485 11.8645 3.77861 14.1601 6.09832 15.481L7.58304 13.9963C6.47545 13.2292 5.75 11.9493 5.75 10.5C5.75 8.15279 7.65279 6.25 10 6.25C11.4493 6.25 12.7292 6.97545 13.4963 8.08304L15.1702 6.40916C13.8883 5.32307 12.1774 4.5 10 4.5ZM16.2317 7.46897L14.1448 9.5559C14.2136 9.85954 14.25 10.1755 14.25 10.5C14.25 12.8472 12.3472 14.75 10 14.75C9.67552 14.75 9.35954 14.7136 9.0559 14.6448L7.57163 16.129C8.30557 16.3638 9.11419 16.5 10 16.5C14.8 16.5 17.3333 12.5 18 10.5C17.7287 9.68609 17.1482 8.54095 16.2317 7.46897ZM12.7055 10.9951C12.5016 12.117 11.617 13.0016 10.4951 13.2055L12.7055 10.9951ZM12.4082 9.17114C11.9396 8.32379 11.0368 7.75 10 7.75C8.48122 7.75 7.25 8.98122 7.25 10.5C7.25 11.5368 7.82379 12.4396 8.67114 12.9082L12.4082 9.17114Z" fill="#B6B6B6"/>
</svg>