<svg width="20" height="21" viewBox="0 0 20 21" fill="none" xmlns="http://www.w3.org/2000/svg">
<path fill-rule="evenodd" clip-rule="evenodd" d="M2 10.9849C2.66667 8.98486 5.2 4.98486 10 4.98486C14.8 4.98486 17.3333 8.98486 18 10.9849C17.3333 12.9849 14.8 16.9849 10 16.9849C5.2 16.9849 2.66667 12.9849 2 10.9849ZM7.25 10.9849C7.25 9.46608 8.48122 8.23486 10 8.23486C11.5188 8.23486 12.75 9.46608 12.75 10.9849C12.75 12.5036 11.5188 13.7349 10 13.7349C8.48122 13.7349 7.25 12.5036 7.25 10.9849ZM10 6.73486C7.65279 6.73486 5.75 8.63765 5.75 10.9849C5.75 13.3321 7.65279 15.2349 10 15.2349C12.3472 15.2349 14.25 13.3321 14.25 10.9849C14.25 8.63765 12.3472 6.73486 10 6.73486Z" fill="#B6B6B6"/>
</svg>