<svg width="20" height="20" viewBox="0 0 20 20" fill="none" xmlns="http://www.w3.org/2000/svg">
<circle cx="10" cy="10" r="9" fill="#EBEBEB"/>
<path d="M8.83736 12.0078H10.4929V11.8786C10.5028 10.8246 10.8459 10.3423 11.6562 9.84517C12.571 9.2983 13.1428 8.55256 13.1428 7.41406C13.1428 5.73367 11.8352 4.67969 9.93608 4.67969C8.19602 4.67969 6.78409 5.64418 6.73438 7.53338H8.50426C8.54901 6.59872 9.22514 6.15128 9.92614 6.15128C10.6868 6.15128 11.2983 6.65838 11.2983 7.43892C11.2983 8.13494 10.8359 8.61222 10.2344 8.99006C9.3544 9.53693 8.8473 10.0888 8.83736 11.8786V12.0078ZM9.70739 15.1101C10.294 15.1101 10.7962 14.6229 10.8011 14.0163C10.7962 13.4197 10.294 12.9325 9.70739 12.9325C9.10085 12.9325 8.60866 13.4197 8.61364 14.0163C8.60866 14.6229 9.10085 15.1101 9.70739 15.1101Z" fill="#949494"/>
</svg>