<svg width="20" height="20" viewBox="0 0 20 20" fill="none" xmlns="http://www.w3.org/2000/svg">
<g clip-path="url(#clip0_10256_19193)">
<path d="M1.79688 8.9375C1.79688 8.0625 1.96094 7.24219 2.28906 6.47656C2.6224 5.70573 3.08073 5.02865 3.66406 4.44531C4.2474 3.85677 4.92188 3.39844 5.6875 3.07031C6.45833 2.74219 7.28125 2.57812 8.15625 2.57812C9.03646 2.57812 9.85938 2.74219 10.625 3.07031C11.3958 3.39844 12.0729 3.85677 12.6562 4.44531C13.2396 5.02865 13.6953 5.70573 14.0234 6.47656C14.3568 7.24219 14.5234 8.0625 14.5234 8.9375C14.5234 9.625 14.4167 10.2786 14.2031 10.8984C13.9948 11.5182 13.7057 12.0833 13.3359 12.5938L16.8984 16.1719C17.0078 16.276 17.0885 16.3984 17.1406 16.5391C17.1979 16.6797 17.2266 16.8281 17.2266 16.9844C17.2266 17.2031 17.1771 17.401 17.0781 17.5781C16.9792 17.7552 16.8438 17.8932 16.6719 17.9922C16.5 18.0964 16.3021 18.1484 16.0781 18.1484C15.9219 18.1484 15.7708 18.1198 15.625 18.0625C15.4844 18.0104 15.3568 17.9271 15.2422 17.8125L11.6562 14.2266C11.1562 14.5599 10.6094 14.8229 10.0156 15.0156C9.42708 15.2031 8.80729 15.2969 8.15625 15.2969C7.28125 15.2969 6.45833 15.1328 5.6875 14.8047C4.92188 14.4766 4.2474 14.0208 3.66406 13.4375C3.08073 12.8542 2.6224 12.1797 2.28906 11.4141C1.96094 10.6432 1.79688 9.81771 1.79688 8.9375ZM3.42969 8.9375C3.42969 9.59375 3.54948 10.2083 3.78906 10.7812C4.03385 11.349 4.3724 11.849 4.80469 12.2812C5.24219 12.7135 5.7474 13.0547 6.32031 13.3047C6.89323 13.5495 7.50521 13.6719 8.15625 13.6719C8.8125 13.6719 9.42448 13.5495 9.99219 13.3047C10.5651 13.0547 11.0677 12.7135 11.5 12.2812C11.9323 11.849 12.2708 11.349 12.5156 10.7812C12.7656 10.2083 12.8906 9.59375 12.8906 8.9375C12.8906 8.28646 12.7656 7.67448 12.5156 7.10156C12.2708 6.52865 11.9323 6.02604 11.5 5.59375C11.0677 5.15625 10.5651 4.81771 9.99219 4.57812C9.42448 4.33333 8.8125 4.21094 8.15625 4.21094C7.50521 4.21094 6.89323 4.33333 6.32031 4.57812C5.7474 4.81771 5.24219 5.15625 4.80469 5.59375C4.3724 6.02604 4.03385 6.52865 3.78906 7.10156C3.54948 7.67448 3.42969 8.28646 3.42969 8.9375Z" fill="#828282"/>
</g>
<defs>
<clipPath id="clip0_10256_19193">
<rect width="20" height="20" fill="white"/>
</clipPath>
</defs>
</svg>
