<svg width="20" height="20" viewBox="0 0 20 20" fill="none" xmlns="http://www.w3.org/2000/svg">
<path d="M8.5 2.5C11.8137 2.5 14.5 5.18629 14.5 8.5C14.5 9.79977 14.0852 11.0019 13.3828 11.9844L17.2227 15.8242C17.6132 16.2147 17.6132 16.8478 17.2227 17.2383C16.8321 17.6288 16.1991 17.6288 15.8086 17.2383L11.9658 13.3955C10.9867 14.0899 9.79171 14.5 8.5 14.5C5.18629 14.5 2.5 11.8137 2.5 8.5C2.5 5.18629 5.18629 2.5 8.5 2.5ZM8.5 4C6.01472 4 4 6.01472 4 8.5C4 10.9853 6.01472 13 8.5 13C10.9853 13 13 10.9853 13 8.5C13 6.01472 10.9853 4 8.5 4Z" fill="#9B9B9B"/>
</svg>