<svg width="20" height="20" viewBox="0 0 20 20" fill="none" xmlns="http://www.w3.org/2000/svg">
    <path d="M14.5645 15.895L5.44238 15.8882L3.1875 5.83057H3.19141C3.58962 7.5346 6.48502 8.85693 10 8.85693C13.515 8.85693 16.4104 7.5346 16.8086 5.83057H16.8174L14.5645 15.895Z" fill="#9B9B9B"/>
    <ellipse cx="9.9999" cy="15.7144" rx="4.57143" ry="2.28571" fill="#9B9B9B"/>
    <path d="M10.0002 2.57129C11.8242 2.57133 13.4471 2.94267 14.593 3.51562C15.7732 4.1057 16.2854 4.81499 16.2854 5.42871C16.2853 6.04241 15.7731 6.75176 14.593 7.3418C13.4471 7.91473 11.8242 8.2861 10.0002 8.28613C8.17617 8.28613 6.55247 7.91478 5.40649 7.3418C4.22661 6.75179 3.71419 6.04237 3.71411 5.42871C3.71411 4.81504 4.2266 4.10567 5.40649 3.51562C6.55247 2.94264 8.17617 2.57129 10.0002 2.57129Z" stroke="#9B9B9B" stroke-width="1.14286"/>
</svg>
