<svg width="20" height="20" viewBox="0 0 20 20" fill="none" xmlns="http://www.w3.org/2000/svg">
<path fill-rule="evenodd" clip-rule="evenodd" d="M4 4.75C4 4.33579 4.33579 4 4.75 4H8.5V2.5H4.75C3.50736 2.5 2.5 3.50736 2.5 4.75V15.25C2.5 16.4926 3.50736 17.5 4.75 17.5H15.25C16.4926 17.5 17.5 16.4926 17.5 15.25V11.5H16V15.25C16 15.6642 15.6642 16 15.25 16H4.75C4.33579 16 4 15.6642 4 15.25V4.75ZM11.75 2.5C11.3358 2.5 11 2.83579 11 3.25C11 3.66421 11.3358 4 11.75 4H14.9393L9.21967 9.71967C8.92678 10.0126 8.92678 10.4874 9.21967 10.7803C9.51256 11.0732 9.98744 11.0732 10.2803 10.7803L16 5.06066V8.25C16 8.66421 16.3358 9 16.75 9C17.1642 9 17.5 8.66421 17.5 8.25V3.25V2.5H16.75H11.75Z" fill="#b6b6b6"/>
</svg>
