<svg width="20" height="20" viewBox="0 0 20 20" fill="none" xmlns="http://www.w3.org/2000/svg">
<path fill-rule="evenodd" clip-rule="evenodd" d="M8.06301 2.5C8.28503 1.63739 9.06808 1 10 1C10.9319 1 11.715 1.63739 11.937 2.5H13C13.5523 2.5 14 2.94772 14 3.5V4C14 4.55228 13.5523 5 13 5H10H7C6.44772 5 6 4.55228 6 4V3.5C6 2.94772 6.44772 2.5 7 2.5H8.06301ZM11 3C11 3.55228 10.5523 4 10 4C9.44772 4 9 3.55228 9 3C9 2.44772 9.44772 2 10 2C10.5523 2 11 2.44772 11 3ZM3 6.00002C3 4.51353 4.08114 3.27954 5.5 3.0415V4.50002C5.5 4.52836 5.50118 4.55641 5.50349 4.58415C4.91907 4.78908 4.5 5.34561 4.5 6.00002V15C4.5 15.8285 5.17157 16.5 6 16.5H14C14.8284 16.5 15.5 15.8285 15.5 15V6.00002C15.5 5.34561 15.0809 4.78908 14.4965 4.58415C14.4988 4.55642 14.5 4.52836 14.5 4.50002V3.0415C15.9189 3.27954 17 4.51353 17 6.00002V15C17 16.6569 15.6569 18 14 18H6C4.34315 18 3 16.6569 3 15V6.00002ZM6.5 8.00002C6.22386 8.00002 6 8.22388 6 8.50002V9.00002C6 9.27617 6.22386 9.50002 6.5 9.50002H13.5C13.7761 9.50002 14 9.27617 14 9.00002V8.50002C14 8.22388 13.7761 8.00002 13.5 8.00002H6.5ZM6 11.5C6 11.2239 6.22386 11 6.5 11H11.5C11.7761 11 12 11.2239 12 11.5V12C12 12.2762 11.7761 12.5 11.5 12.5H6.5C6.22386 12.5 6 12.2762 6 12V11.5Z" fill="#B6B6B6"/>
</svg>