<svg width="20" height="20" viewBox="0 0 20 20" fill="none" xmlns="http://www.w3.org/2000/svg">
<path fill-rule="evenodd" clip-rule="evenodd" d="M7.5 6C7.5 6.82843 6.82843 7.5 6 7.5C5.17157 7.5 4.5 6.82843 4.5 6C4.5 5.17157 5.17157 4.5 6 4.5C6.82843 4.5 7.5 5.17157 7.5 6ZM9 6C9 7.65685 7.65685 9 6 9C4.34315 9 3 7.65685 3 6C3 4.34315 4.34315 3 6 3C7.65685 3 9 4.34315 9 6ZM7.5 14C7.5 14.8284 6.82843 15.5 6 15.5C5.17157 15.5 4.5 14.8284 4.5 14C4.5 13.1716 5.17157 12.5 6 12.5C6.82843 12.5 7.5 13.1716 7.5 14ZM9 14C9 15.6569 7.65685 17 6 17C4.34315 17 3 15.6569 3 14C3 12.3431 4.34315 11 6 11C7.65685 11 9 12.3431 9 14ZM14 7.5C14.8284 7.5 15.5 6.82843 15.5 6C15.5 5.17157 14.8284 4.5 14 4.5C13.1716 4.5 12.5 5.17157 12.5 6C12.5 6.82843 13.1716 7.5 14 7.5ZM14 9C15.6569 9 17 7.65685 17 6C17 4.34315 15.6569 3 14 3C12.3431 3 11 4.34315 11 6C11 7.65685 12.3431 9 14 9ZM15.5 14C15.5 14.8284 14.8284 15.5 14 15.5C13.1716 15.5 12.5 14.8284 12.5 14C12.5 13.1716 13.1716 12.5 14 12.5C14.8284 12.5 15.5 13.1716 15.5 14ZM17 14C17 15.6569 15.6569 17 14 17C12.3431 17 11 15.6569 11 14C11 12.3431 12.3431 11 14 11C15.6569 11 17 12.3431 17 14Z" fill="#B6B6B6"/>
</svg>