<svg width="20" height="20" viewBox="0 0 20 20" fill="none" xmlns="http://www.w3.org/2000/svg">
<path d="M2.5 13C2.77614 13 3 13.2239 3 13.5V15C3 16.1046 3.89543 17 5 17H6.5C6.77614 17 7 17.2239 7 17.5C7 17.7761 6.77614 18 6.5 18H5L4.8457 17.9961C3.26055 17.9158 2 16.6051 2 15V13.5C2 13.2239 2.22386 13 2.5 13ZM18 15C18 16.6569 16.6569 18 15 18H13.5C13.2239 18 13 17.7761 13 17.5C13 17.2239 13.2239 17 13.5 17H15C16.1046 17 17 16.1046 17 15V13.5C17 13.2239 17.2239 13 17.5 13C17.7761 13 18 13.2239 18 13.5V15ZM15 2C16.6569 2 18 3.34315 18 5V6.5C18 6.77614 17.7761 7 17.5 7C17.2239 7 17 6.77614 17 6.5V5C17 3.89543 16.1046 3 15 3H13.5C13.2239 3 13 2.77614 13 2.5C13 2.22386 13.2239 2 13.5 2H15ZM7 2.5C7 2.77614 6.77614 3 6.5 3H5C3.89543 3 3 3.89543 3 5V6.5C3 6.77614 2.77614 7 2.5 7C2.22386 7 2 6.77614 2 6.5V5C2 3.34315 3.34315 2 5 2H6.5C6.77614 2 7 2.22386 7 2.5Z" fill="#b6b6b6"/>
<rect width="12" height="12" transform="translate(4 4)" fill="white"/>
<path d="M10 10C9.6762 10 9.3524 9.94255 9.1 9.82764L5.54231 8.20529C5.37957 8.13125 5 7.91466 5 7.50577C5 7.09688 5.37957 6.88077 5.54279 6.80577L9.13125 5.16947C9.62572 4.94351 10.3719 4.94351 10.8666 5.16947L14.4572 6.80577C14.6204 6.88005 15 7.09663 15 7.50577C15 7.9149 14.6204 8.13077 14.4572 8.20553L10.8995 9.82764C10.6476 9.94255 10.3238 10 10 10Z" fill="#b6b6b6"/>
<path d="M14.457 9.30566C14.6203 9.37994 15 9.59672 15 10.0059C14.9999 10.4149 14.6203 10.6303 14.457 10.7051L10.8994 12.3281C10.6475 12.4429 10.3237 12.5 10 12.5C9.6762 12.5 9.35201 12.443 9.09961 12.3281L5.54199 10.7051C5.37908 10.6309 5.00006 10.4144 5 10.0059C5 9.59697 5.37975 9.38066 5.54297 9.30566V9.30469L8.68555 10.7373L8.84375 10.8037C9.21815 10.9443 9.62718 11 10 11C10.4259 11 10.8994 10.9266 11.3145 10.7373L14.4551 9.30469L14.457 9.30566Z" fill="#b6b6b6"/>
<path d="M14.457 11.8057C14.6203 11.8799 15 12.0967 15 12.5059C14.9999 12.9149 14.6203 13.1303 14.457 13.2051L10.8994 14.8281C10.6475 14.9429 10.3237 15 10 15C9.6762 15 9.35201 14.943 9.09961 14.8281L5.54199 13.2051C5.37908 13.1309 5.00006 12.9144 5 12.5059C5 12.097 5.37975 11.8807 5.54297 11.8057V11.8047L8.68555 13.2373L8.84375 13.3037C9.21815 13.4443 9.62718 13.5 10 13.5C10.4259 13.5 10.8994 13.4266 11.3145 13.2373L14.4551 11.8047L14.457 11.8057Z" fill="#b6b6b6"/>
</svg>