<svg width="24" height="24" viewBox="0 0 24 24" fill="none" xmlns="http://www.w3.org/2000/svg">
<path fill-rule="evenodd" clip-rule="evenodd" d="M12.8281 16.9913L16 20.1614V16.9913H18C19.1046 16.9913 20 16.0958 20 14.9913V7C20 5.89543 19.1046 5 18 5H6C4.89543 5 4 5.89543 4 7V14.9913C4 16.0958 4.89543 16.9913 6 16.9913H12.8281ZM18 23.2987C18 23.9223 17.2462 24.2346 16.8052 23.7938L12 18.9913H6C3.79086 18.9913 2 17.2004 2 14.9913V7C2 4.79086 3.79086 3 6 3H18C20.2091 3 22 4.79086 22 7V14.9913C22 17.2004 20.2091 18.9913 18 18.9913V23.2987Z" fill="#ACA996"/>
</svg>
