<svg width="20" height="20" viewBox="0 0 20 20" fill="none" xmlns="http://www.w3.org/2000/svg">
<path d="M2 4C2 2.89543 2.89543 2 4 2H16C17.1046 2 18 2.89543 18 4V13C18 14.1046 17.1046 15 16 15H4C2.89543 15 2 14.1046 2 13V4Z" fill="white"/>
<path fill-rule="evenodd" clip-rule="evenodd" d="M16 3.5H4C3.72386 3.5 3.5 3.72386 3.5 4V13C3.5 13.2761 3.72386 13.5 4 13.5H16C16.2761 13.5 16.5 13.2761 16.5 13V4C16.5 3.72386 16.2761 3.5 16 3.5ZM4 2C2.89543 2 2 2.89543 2 4V13C2 14.1046 2.89543 15 4 15H16C17.1046 15 18 14.1046 18 13V4C18 2.89543 17.1046 2 16 2H4Z" fill="#b6b6b6"/>
<path d="M3 17.25C3 16.8358 3.33579 16.5 3.75 16.5H5.25C5.66421 16.5 6 16.8358 6 17.25C6 17.6642 5.66421 18 5.25 18H3.75C3.33579 18 3 17.6642 3 17.25Z" fill="#b6b6b6"/>
<path d="M7 17.25C7 16.8358 7.33579 16.5 7.75 16.5H12.25C12.6642 16.5 13 16.8358 13 17.25C13 17.6642 12.6642 18 12.25 18H7.75C7.33579 18 7 17.6642 7 17.25Z" fill="#b6b6b6"/>
<path d="M14 17.25C14 16.8358 14.3358 16.5 14.75 16.5H16.25C16.6642 16.5 17 16.8358 17 17.25C17 17.6642 16.6642 18 16.25 18H14.75C14.3358 18 14 17.6642 14 17.25Z" fill="#b6b6b6"/>
</svg>