<svg xmlns="http://www.w3.org/2000/svg" width="20" height="20" viewBox="0 0 20 20" fill="none">
    <path d="M12 6.5L12.0078 6.65332C12.0846 7.40972 12.7233 8 13.5 8H18V14C18 15.1046 17.1046 16 16 16H13V10.8643C13 10.0778 12.6908 9.3227 12.1396 8.76172L8.34375 4.89746C8.23699 4.78879 8.12042 4.69177 8 4.60156V4C8 2.89543 8.89543 2 10 2H12V6.5ZM13 2.06055C13.371 2.15294 13.7117 2.34967 13.9775 2.63379L17.46 6.35547C17.6363 6.54393 17.7726 6.76355 17.8643 7H13.5C13.2583 7 13.0563 6.82855 13.0098 6.60059L13 6.5V2.06055Z" fill="#9B9B9B"/>
    <path d="M6 5V9.5L6.00781 9.65332C6.08461 10.4097 6.72334 11 7.5 11H12V17C12 18.1046 11.1046 19 10 19H4C2.89543 19 2 18.1046 2 17V7C2 5.89543 2.89543 5 4 5H6ZM7 5.06055C7.37096 5.15294 7.71169 5.34967 7.97754 5.63379L11.46 9.35547C11.6363 9.54393 11.7726 9.76355 11.8643 10H7.5C7.25829 10 7.05629 9.82855 7.00977 9.60059L7 9.5V5.06055Z" fill="#9B9B9B"/>
</svg>
