<svg width="21" height="20" viewBox="0 0 21 20" fill="none" xmlns="http://www.w3.org/2000/svg">
<path d="M11.1465 4.49988H5.125C4.84888 4.49988 4.62504 4.72377 4.625 4.99988V14.9999C4.625 15.276 4.84886 15.4999 5.125 15.4999H15.125C15.4011 15.4999 15.625 15.276 15.625 14.9999V8.98425L17.125 7.48425V14.9999C17.125 16.0355 16.3378 16.8869 15.3291 16.9891L15.125 16.9999H5.125L4.9209 16.9891C3.97935 16.8937 3.2312 16.1455 3.13574 15.204L3.125 14.9999V4.99988C3.12504 3.89534 4.02046 2.99988 5.125 2.99988H12.6465L11.1465 4.49988ZM17.0557 4.44812L11.1943 10.3104L9.125 10.9999L9.81445 8.93152L15.6768 3.06921L17.0557 4.44812ZM17.0557 1.68933C17.4365 1.30846 18.0547 1.30849 18.4355 1.68933C18.8164 2.07022 18.8164 2.68833 18.4355 3.06921L17.7461 3.75867L16.3662 2.37976L17.0557 1.68933Z" fill="#9B9B9B"/>
</svg>