<svg width="20" height="20" viewBox="0 0 20 20" fill="none" xmlns="http://www.w3.org/2000/svg">
<path fill-rule="evenodd" clip-rule="evenodd" d="M16 4.5H4C3.72386 4.5 3.5 4.72386 3.5 5V7C3.5 7.27614 3.72386 7.5 4 7.5H16C16.2761 7.5 16.5 7.27614 16.5 7V5C16.5 4.72386 16.2761 4.5 16 4.5ZM4 3C2.89543 3 2 3.89543 2 5V7C2 8.10457 2.89543 9 4 9H16C17.1046 9 18 8.10457 18 7V5C18 3.89543 17.1046 3 16 3H4Z" fill="#B6B6B6"/>
<path fill-rule="evenodd" clip-rule="evenodd" d="M16 12.5H4C3.72386 12.5 3.5 12.7239 3.5 13V15C3.5 15.2761 3.72386 15.5 4 15.5H16C16.2761 15.5 16.5 15.2761 16.5 15V13C16.5 12.7239 16.2761 12.5 16 12.5ZM4 11C2.89543 11 2 11.8954 2 13V15C2 16.1046 2.89543 17 4 17H16C17.1046 17 18 16.1046 18 15V13C18 11.8954 17.1046 11 16 11H4Z" fill="#B6B6B6"/>
</svg>
