<svg width="20" height="20" viewBox="0 0 20 20" fill="none" xmlns="http://www.w3.org/2000/svg">
<path fill-rule="evenodd" clip-rule="evenodd" d="M4.16197 18.4875C2.91022 18.619 1.9369 17.696 2.0032 16.4579C2.05059 15.5721 2.59052 14.5325 3.57561 13.2969C5.33161 11.0946 8.39489 8.46203 10.6473 6.72424C10.4832 5.55153 10.9313 4.3402 11.7182 3.51054C12.3959 2.79586 13.4393 2.30304 14.5724 2.10189C15.7079 1.9003 16.9588 1.9869 18.0639 2.46001C18.5239 2.65697 18.6465 3.25267 18.3025 3.61543C17.7285 4.22061 17.6906 4.85114 17.6445 5.6197L17.6443 5.62228C17.5981 6.39148 17.541 7.26967 16.8055 8.18899C16.039 9.14711 14.7689 9.68961 13.533 9.55447C11.8948 11.8374 9.39646 14.9593 7.26138 16.7893C6.06498 17.8147 5.0467 18.3944 4.16197 18.4875ZM4.1097 17.9902C4.83603 17.9138 5.75609 17.421 6.93599 16.4097C9.06165 14.5877 11.583 11.4269 13.2135 9.14178L13.3031 9.01619L13.4555 9.03996C14.5568 9.21172 15.7253 8.73885 16.4151 7.87665C17.0455 7.08864 17.0996 6.35134 17.1452 5.59228C17.1461 5.57754 17.147 5.56279 17.1479 5.54801C17.1924 4.8023 17.2398 4.00935 17.9397 3.27136C18.0443 3.16105 18.0069 2.9795 17.8671 2.91965C16.8644 2.49039 15.7143 2.407 14.6598 2.59419C13.6028 2.78183 12.6671 3.23658 12.081 3.85461C11.3572 4.61774 10.9689 5.74112 11.1637 6.78555L11.1918 6.93635L11.0702 7.02973C8.8149 8.7602 5.71412 11.4168 3.96656 13.6086C2.99441 14.8279 2.54109 15.763 2.50248 16.4846C2.45283 17.4118 3.16009 18.09 4.1097 17.9902ZM3.57618 16.9425C3.66356 17.024 3.80632 17.0794 4.01152 17.0578C4.43504 17.0133 4.98579 16.7334 5.61542 16.2704C6.2365 15.8138 6.90198 15.2037 7.55022 14.5456C8.75507 13.3224 9.88247 11.9518 10.5291 11.1396L9.16886 9.77925C8.38342 10.4496 7.03863 11.6335 5.84451 12.8901C5.19994 13.5683 4.60457 14.2622 4.16544 14.9038C3.71974 15.555 3.46101 16.1156 3.43861 16.5347C3.42829 16.7276 3.48917 16.8613 3.57618 16.9425ZM3.23516 17.3081C3.02265 17.1099 2.92245 16.8233 2.93932 16.508C2.96954 15.9426 3.29901 15.2844 3.75283 14.6214C4.21322 13.9488 4.8287 13.2331 5.48207 12.5456C6.78949 11.1699 8.26984 9.88467 9.02108 9.24864L9.1967 9.09996L11.1974 11.1008L11.0596 11.2753C10.4414 12.0581 9.22172 13.5612 7.90643 14.8965C7.24911 15.5638 6.56273 16.1945 5.91161 16.6733C5.26907 17.1457 4.62726 17.4958 4.0639 17.5551M3.23516 17.3081C3.44729 17.506 3.74253 17.5889 4.0639 17.5551L3.23516 17.3081ZM11.4684 10.7531L9.53376 8.81831L9.74657 8.6433C10.315 8.1758 10.7899 7.80081 11.098 7.56112L11.3281 7.38213L11.4699 7.63682C11.7249 8.09461 12.1188 8.50293 12.6008 8.75809L12.8549 8.89261L12.6864 9.12556C12.4555 9.44479 12.0937 9.93724 11.6419 10.5267L11.4684 10.7531ZM11.4181 9.99571C11.697 9.62862 11.9348 9.30757 12.12 9.05418C11.7444 8.8082 11.4272 8.48554 11.1853 8.12759C10.9405 8.32006 10.631 8.56649 10.2774 8.85486L11.4181 9.99571ZM12.6267 7.62399C13.4559 8.45324 14.9334 8.22805 15.6831 7.29093C16.1283 6.73436 16.176 6.1604 16.2164 5.47825C16.2175 5.46045 16.2185 5.44258 16.2196 5.42464C16.2536 4.84629 16.2916 4.19928 16.6288 3.51954C15.9262 3.38633 15.1977 3.41983 14.5421 3.57568C13.7839 3.7559 13.146 4.09403 12.7611 4.4998C12.4309 4.848 12.1439 5.38806 12.0697 5.9641C11.9966 6.53171 12.1296 7.12687 12.6267 7.62399ZM16.0735 7.60328C15.1828 8.71665 13.361 9.06553 12.2731 7.97753C11.6502 7.35456 11.484 6.59713 11.5738 5.90022C11.6625 5.21174 12.0004 4.57534 12.3983 4.15573C12.8686 3.65994 13.604 3.28473 14.4264 3.08923C15.2521 2.89296 16.1882 2.87213 17.0744 3.10849L17.4017 3.1958L17.2218 3.48284C16.7951 4.16347 16.7571 4.80574 16.7172 5.48L16.7155 5.50783C16.6753 6.18651 16.6278 6.91042 16.0735 7.60328Z" fill="#b6b6b6"/>
<path d="M4.13584 18.2388C4.94137 18.1541 5.91004 17.6179 7.09819 16.5995C9.24776 14.757 11.7834 11.5759 13.4165 9.28698C14.6089 9.47295 15.8657 8.96298 16.6098 8.03283C17.9757 6.32549 16.8323 4.80186 18.1206 3.4434C18.3449 3.20687 18.2649 2.81824 17.965 2.68984C15.8573 1.78746 13.1635 2.34986 11.8996 3.68258C11.1271 4.49705 10.7064 5.69946 10.9175 6.83139C8.6587 8.56458 5.53837 11.2363 3.77109 13.4528C2.79246 14.6802 2.29535 15.6675 2.25235 16.4712C2.19438 17.5539 3.03515 18.3545 4.13584 18.2388ZM12.5793 4.32777C13.4343 3.42621 15.3261 2.90108 17.0095 3.35005C16.0682 4.8514 16.8773 6.19768 15.8778 7.44711C15.0576 8.47236 13.408 8.75939 12.4494 7.80077C11.3294 6.68067 11.8511 5.09558 12.5793 4.32777ZM12.4833 8.97905C12.2535 9.29677 11.8931 9.78733 11.443 10.3746L9.90488 8.83639C10.4713 8.37058 10.9444 7.99702 11.251 7.75845C11.5274 8.25467 11.955 8.69933 12.4833 8.97905ZM3.18848 16.5214C3.29373 14.5525 7.68354 10.7082 9.18213 9.43945L10.8629 11.1204C9.62985 12.6816 6.01101 17.0989 4.03723 17.3064C3.51063 17.3619 3.16129 17.0296 3.18848 16.5214Z" fill="#b6b6b6"/>
</svg>
