<svg width="40" height="40" viewBox="0 0 40 40" fill="none" xmlns="http://www.w3.org/2000/svg">
<rect x="9.75" y="10.75" width="20.5" height="18.5" rx="4.25" stroke="#B6B6B6" stroke-width="1.5"/>
<path d="M23 18.9C23 18.6791 23.1791 18.5 23.4 18.5H25.6C25.8209 18.5 26 18.6791 26 18.9V19.6C26 19.8209 25.8209 20 25.6 20H23.4C23.1791 20 23 19.8209 23 19.6V18.9Z" fill="#B6B6B6"/>
<path d="M18.5 21.9547C18.5 21.7338 18.6791 21.5547 18.9 21.5547H21.1C21.3209 21.5547 21.5 21.7338 21.5 21.9547V22.6547C21.5 22.8756 21.3209 23.0547 21.1 23.0547H18.9C18.6791 23.0547 18.5 22.8756 18.5 22.6547V21.9547Z" fill="#B6B6B6"/>
<path d="M23 21.9547C23 21.7338 23.1791 21.5547 23.4 21.5547H25.6C25.8209 21.5547 26 21.7338 26 21.9547V22.6547C26 22.8756 25.8209 23.0547 25.6 23.0547H23.4C23.1791 23.0547 23 22.8756 23 22.6547V21.9547Z" fill="#B6B6B6"/>
<path d="M18.5 18.9C18.5 18.6791 18.6791 18.5 18.9 18.5H21.1C21.3209 18.5 21.5 18.6791 21.5 18.9V19.6C21.5 19.8209 21.3209 20 21.1 20H18.9C18.6791 20 18.5 19.8209 18.5 19.6V18.9Z" fill="#B6B6B6"/>
<path d="M14 21.9C14 21.6791 14.1791 21.5 14.4 21.5H16.6C16.8209 21.5 17 21.6791 17 21.9V22.6C17 22.8209 16.8209 23 16.6 23H14.4C14.1791 23 14 22.8209 14 22.6V21.9Z" fill="#B6B6B6"/>
<path d="M18.5 24.9C18.5 24.6791 18.6791 24.5 18.9 24.5H21.1C21.3209 24.5 21.5 24.6791 21.5 24.9V25.6C21.5 25.8209 21.3209 26 21.1 26H18.9C18.6791 26 18.5 25.8209 18.5 25.6V24.9Z" fill="#B6B6B6"/>
<path d="M14 24.9C14 24.6791 14.1791 24.5 14.4 24.5H16.6C16.8209 24.5 17 24.6791 17 24.9V25.6C17 25.8209 16.8209 26 16.6 26H14.4C14.1791 26 14 25.8209 14 25.6V24.9Z" fill="#B6B6B6"/>
<path d="M9.5 15.5C9.5 13.0147 11.5147 11 14 11H26C28.4853 11 30.5 13.0147 30.5 15.5V16H9.5V15.5Z" fill="#B6B6B6"/>
</svg>