<svg width="20" height="20" viewBox="0 0 20 20" fill="none" xmlns="http://www.w3.org/2000/svg">
<path d="M6.94446 13.3335C7.09776 13.3335 7.22163 13.4576 7.2218 13.6108V14.7222C7.2218 14.8756 7.09787 15.0005 6.94446 15.0005H4.7218C4.56859 15.0003 4.44446 14.8754 4.44446 14.7222V13.6108C4.44463 13.4577 4.5687 13.3337 4.7218 13.3335H6.94446ZM11.1115 13.3335C11.2646 13.3337 11.3886 13.4577 11.3888 13.6108V14.7222C11.3888 14.8755 11.2647 15.0003 11.1115 15.0005H8.88879C8.73543 15.0004 8.61145 14.8755 8.61145 14.7222V13.6108C8.61163 13.4576 8.73554 13.3336 8.88879 13.3335H11.1115ZM6.94446 10.5552C7.09787 10.5552 7.2218 10.6801 7.2218 10.8335V11.9448C7.22163 12.0981 7.09776 12.2222 6.94446 12.2222H4.7218C4.5687 12.2219 4.44463 12.0979 4.44446 11.9448V10.8335C4.44446 10.6802 4.56859 10.5554 4.7218 10.5552H6.94446ZM11.1115 10.5552C11.2647 10.5554 11.3888 10.6802 11.3888 10.8335V11.9448C11.3886 12.098 11.2646 12.222 11.1115 12.2222H8.88879C8.73554 12.2221 8.61163 12.0981 8.61145 11.9448V10.8335C8.61145 10.6801 8.73543 10.5552 8.88879 10.5552H11.1115ZM15.2775 10.5552C15.4309 10.5552 15.5558 10.6801 15.5558 10.8335V11.9448C15.5556 12.0981 15.4308 12.2222 15.2775 12.2222H13.0558C12.9025 12.2222 12.7776 12.0981 12.7775 11.9448V10.8335C12.7775 10.6801 12.9024 10.5552 13.0558 10.5552H15.2775ZM11.1115 7.77783C11.2646 7.77801 11.3886 7.90207 11.3888 8.05518V9.1665C11.3888 9.31981 11.2647 9.44465 11.1115 9.44482H8.88879C8.73543 9.44477 8.61145 9.31988 8.61145 9.1665V8.05518C8.61168 7.902 8.73558 7.77789 8.88879 7.77783H11.1115ZM15.2775 7.77783C15.4307 7.77783 15.5556 7.90196 15.5558 8.05518V9.1665C15.5558 9.31992 15.4309 9.44482 15.2775 9.44482H13.0558C12.9024 9.44482 12.7775 9.31992 12.7775 9.1665V8.05518C12.7777 7.90196 12.9025 7.77783 13.0558 7.77783H15.2775Z" fill="#9B9B9B"/>
<path fill-rule="evenodd" clip-rule="evenodd" d="M1.66669 5.5555C1.66669 3.71455 3.15907 2.22217 5.00002 2.22217H15C16.841 2.22217 18.3334 3.71455 18.3334 5.5555V14.4444C18.3334 16.2853 16.841 17.7777 15 17.7777H5.00002C3.15907 17.7777 1.66669 16.2853 1.66669 14.4444V5.5555ZM2.7778 14.4444V5.5555L17.2222 5.5555V14.4444C17.2222 15.6717 16.2273 16.6666 15 16.6666H5.00002C3.77272 16.6666 2.7778 15.6717 2.7778 14.4444Z" fill="#9B9B9B"/>
</svg>