<svg width="20" height="20" viewBox="0 0 20 20" fill="none" xmlns="http://www.w3.org/2000/svg">
<path fill-rule="evenodd" clip-rule="evenodd" d="M16.5 16V4C16.5 3.72386 16.2761 3.5 16 3.5L4 3.5C3.72386 3.5 3.5 3.72386 3.5 4V16C3.5 16.2761 3.72386 16.5 4 16.5H16C16.2761 16.5 16.5 16.2761 16.5 16ZM18 4C18 2.89543 17.1046 2 16 2L4 2C2.89543 2 2 2.89543 2 4V16C2 17.1046 2.89543 18 4 18H16C17.1046 18 18 17.1046 18 16V4Z" fill="#b6b6b6"/>
<path fill-rule="evenodd" clip-rule="evenodd" d="M14.0303 9.46967C13.7374 9.17678 13.2626 9.17678 12.9697 9.46967L10 12.4393L7.03033 9.46967C6.73744 9.17678 6.26256 9.17678 5.96967 9.46967C5.67678 9.76256 5.67678 10.2374 5.96967 10.5303L10 14.5607L14.0303 10.5303C14.3232 10.2374 14.3232 9.76256 14.0303 9.46967Z" fill="#b6b6b6"/>
<path d="M10.75 12.5V5.5H9.25V12.5H10.75Z" fill="#b6b6b6"/>
</svg>