<svg width="20" height="20" viewBox="0 0 20 20" fill="none" xmlns="http://www.w3.org/2000/svg">
<mask id="path-1-inside-1_958_3709" fill="white">
<path fill-rule="evenodd" clip-rule="evenodd" d="M15.5 18.2949C15.5 18.7091 15.8358 19.0449 16.25 19.0449C16.6642 19.0449 17 18.7091 17 18.2949V1.79492C17 1.38071 16.6642 1.04492 16.25 1.04492C15.8358 1.04492 15.5 1.38071 15.5 1.79492V18.2949ZM3.4043 16.0449L7.40859 4.04492H8.01172H9H9.60313L13.6074 16.0449H12.0117L11.0117 13.0449H6L5 16.0449H3.4043ZM6.41667 11.7949H10.5951L8.50586 5.52734L6.41667 11.7949Z"/>
</mask>
<path fill-rule="evenodd" clip-rule="evenodd" d="M15.5 18.2949C15.5 18.7091 15.8358 19.0449 16.25 19.0449C16.6642 19.0449 17 18.7091 17 18.2949V1.79492C17 1.38071 16.6642 1.04492 16.25 1.04492C15.8358 1.04492 15.5 1.38071 15.5 1.79492V18.2949ZM3.4043 16.0449L7.40859 4.04492H8.01172H9H9.60313L13.6074 16.0449H12.0117L11.0117 13.0449H6L5 16.0449H3.4043ZM6.41667 11.7949H10.5951L8.50586 5.52734L6.41667 11.7949Z" fill="#b6b6b6"/>
<path d="M7.40859 4.04492V3.04492H6.68808L6.46001 3.72839L7.40859 4.04492ZM3.4043 16.0449L2.45572 15.7284L2.0164 17.0449H3.4043V16.0449ZM9.60313 4.04492L10.5517 3.72839L10.3236 3.04492H9.60313V4.04492ZM13.6074 16.0449V17.0449H14.9953L14.556 15.7284L13.6074 16.0449ZM12.0117 16.0449L11.063 16.3611L11.291 17.0449H12.0117V16.0449ZM11.0117 13.0449L11.9604 12.7287L11.7325 12.0449H11.0117V13.0449ZM6 13.0449V12.0449H5.27924L5.05132 12.7287L6 13.0449ZM5 16.0449V17.0449H5.72076L5.94868 16.3611L5 16.0449ZM6.41667 11.7949L5.46798 11.4787L5.02924 12.7949H6.41667V11.7949ZM10.5951 11.7949V12.7949H11.9825L11.5437 11.4787L10.5951 11.7949ZM8.50586 5.52734L9.45454 5.21112L8.50586 2.36507L7.55718 5.21112L8.50586 5.52734ZM16.25 18.0449C16.3881 18.0449 16.5 18.1569 16.5 18.2949H14.5C14.5 19.2614 15.2835 20.0449 16.25 20.0449V18.0449ZM16 18.2949C16 18.1569 16.1119 18.0449 16.25 18.0449V20.0449C17.2165 20.0449 18 19.2614 18 18.2949H16ZM16 1.79492V18.2949H18V1.79492H16ZM16.25 2.04492C16.1119 2.04492 16 1.93299 16 1.79492H18C18 0.828423 17.2165 0.0449219 16.25 0.0449219V2.04492ZM16.5 1.79492C16.5 1.93299 16.3881 2.04492 16.25 2.04492V0.0449219C15.2835 0.0449219 14.5 0.828424 14.5 1.79492H16.5ZM16.5 18.2949V1.79492H14.5V18.2949H16.5ZM6.46001 3.72839L2.45572 15.7284L4.35288 16.3615L8.35717 4.36146L6.46001 3.72839ZM8.01172 3.04492H7.40859V5.04492H8.01172V3.04492ZM9 3.04492H8.01172V5.04492H9V3.04492ZM9.60313 3.04492H9V5.04492H9.60313V3.04492ZM14.556 15.7284L10.5517 3.72839L8.65454 4.36146L12.6588 16.3615L14.556 15.7284ZM12.0117 17.0449H13.6074V15.0449H12.0117V17.0449ZM10.063 13.3611L11.063 16.3611L12.9604 15.7287L11.9604 12.7287L10.063 13.3611ZM11.0117 12.0449H6V14.0449H11.0117V12.0449ZM5.94868 16.3611L6.94868 13.3611L5.05132 12.7287L4.05132 15.7287L5.94868 16.3611ZM3.4043 17.0449H5V15.0449H3.4043V17.0449ZM6.41667 12.7949H10.5951V10.7949H6.41667V12.7949ZM7.55718 5.84357L9.64637 12.1111L11.5437 11.4787L9.45454 5.21112L7.55718 5.84357ZM7.36535 12.1111L9.45454 5.84357L7.55718 5.21112L5.46798 11.4787L7.36535 12.1111Z" fill="#b6b6b6" mask="url(#path-1-inside-1_958_3709)"/>
</svg>
