<svg xmlns="http://www.w3.org/2000/svg" width="20" height="20" viewBox="0 0 20 20" fill="none">
    <path fill-rule="evenodd" clip-rule="evenodd" d="M2.59375 6.56989L3.40748 5.43066L10.0006 10.14L16.5938 5.43066L17.4075 6.56989L10.0006 11.8605L2.59375 6.56989Z" fill="#9B9B9B"/>
    <path fill-rule="evenodd" clip-rule="evenodd" d="M15 5H5C4.17157 5 3.5 5.67157 3.5 6.5V13.5C3.5 14.3284 4.17157 15 5 15H15C15.8284 15 16.5 14.3284 16.5 13.5V6.5C16.5 5.67157 15.8284 5 15 5ZM5 3.5C3.34315 3.5 2 4.84315 2 6.5V13.5C2 15.1569 3.34315 16.5 5 16.5H15C16.6569 16.5 18 15.1569 18 13.5V6.5C18 4.84315 16.6569 3.5 15 3.5H5Z" fill="#9B9B9B"/>
</svg>
