<svg width="21" height="21" viewBox="0 0 21 21" fill="none" xmlns="http://www.w3.org/2000/svg">
<path d="M11.1211 4.66797C11.1211 4.25376 11.4569 3.91797 11.8711 3.91797H17.1211V5.41797H11.8711C11.4569 5.41797 11.1211 5.08218 11.1211 4.66797Z" fill="#b6b6b6"/>
<path d="M16.3711 9.91797C15.9569 9.91797 15.6211 9.58218 15.6211 9.16797V3.91797H17.1211V9.16797C17.1211 9.58218 16.7853 9.91797 16.3711 9.91797Z" fill="#b6b6b6"/>
<path fill-rule="evenodd" clip-rule="evenodd" d="M16.6515 5.44836L11.6515 10.4484L10.5908 9.3877L15.5908 4.3877L16.6515 5.44836Z" fill="#b6b6b6"/>
<path fill-rule="evenodd" clip-rule="evenodd" d="M3.59071 16.3876L8.59071 11.3876L9.65137 12.4482L4.65137 17.4482L3.59071 16.3876Z" fill="#b6b6b6"/>
<path d="M9.12109 17.168C9.12109 17.5822 8.78531 17.918 8.37109 17.918H3.12109V16.418H8.37109C8.78531 16.418 9.12109 16.7538 9.12109 17.168Z" fill="#b6b6b6"/>
<path d="M3.87109 11.918C4.28531 11.918 4.62109 12.2538 4.62109 12.668L4.62109 17.918H3.12109L3.12109 12.668C3.12109 12.2538 3.45688 11.918 3.87109 11.918Z" fill="#b6b6b6"/>
</svg>
