<svg width="20" height="20" viewBox="0 0 20 20" fill="none" xmlns="http://www.w3.org/2000/svg">
<rect x="2.75" y="2.76562" width="14.5" height="14.5" rx="3.25" stroke="#b6b6b6" stroke-width="1.5"/>
<path d="M10.75 6C10.75 5.58579 10.4142 5.25 10 5.25C9.58579 5.25 9.25 5.58579 9.25 6H10.75ZM10 14L9.46967 14.5303L10 15.0607L10.5303 14.5303L10 14ZM6.53033 9.46967C6.23744 9.17678 5.76256 9.17678 5.46967 9.46967C5.17678 9.76256 5.17678 10.2374 5.46967 10.5303L6.53033 9.46967ZM14.5303 10.5303C14.8232 10.2374 14.8232 9.76256 14.5303 9.46967C14.2374 9.17678 13.7626 9.17678 13.4697 9.46967L14.5303 10.5303ZM9.25 6V14H10.75V6H9.25ZM10.5303 13.4697L6.53033 9.46967L5.46967 10.5303L9.46967 14.5303L10.5303 13.4697ZM10.5303 14.5303L14.5303 10.5303L13.4697 9.46967L9.46967 13.4697L10.5303 14.5303Z" fill="#b6b6b6"/>
</svg>
