<svg width="20" height="20" viewBox="0 0 20 20" fill="none" xmlns="http://www.w3.org/2000/svg">
<path d="M16.2314 6.96875C17.1481 8.0408 17.7287 9.18602 18 10C17.3333 12 14.8 16 10 16C9.11429 16 8.30613 15.8626 7.57227 15.6279L9.05664 14.1436C9.36014 14.2124 9.67568 14.25 10 14.25C12.3472 14.25 14.25 12.3472 14.25 10C14.25 9.67568 14.2124 9.36014 14.1436 9.05664L16.2314 6.96875ZM10 4C12.1772 4 13.8871 4.82415 15.1689 5.91016L13.4951 7.58398C12.728 6.47635 11.4493 5.75 10 5.75C7.65279 5.75 5.75 7.65279 5.75 10C5.75 11.4493 6.47635 12.728 7.58398 13.4951L6.09863 14.9805C3.77892 13.6595 2.45485 11.3645 2 10C2.66667 8 5.2 4 10 4ZM10 7.25C11.0369 7.25 11.9387 7.82444 12.4072 8.67188L8.67188 12.4072C7.82444 11.9387 7.25 11.0369 7.25 10C7.25 8.48122 8.48122 7.25 10 7.25Z" fill="#9B9B9B"/>
<path fill-rule="evenodd" clip-rule="evenodd" d="M17.0303 2.96967C17.3232 3.26256 17.3232 3.73744 17.0303 4.03033L4.03033 17.0303C3.73744 17.3232 3.26256 17.3232 2.96967 17.0303C2.67678 16.7374 2.67678 16.2626 2.96967 15.9697L15.9697 2.96967C16.2626 2.67678 16.7374 2.67678 17.0303 2.96967Z" fill="#9B9B9B"/>
</svg>