<svg width="20" height="20" viewBox="0 0 20 20" fill="none" xmlns="http://www.w3.org/2000/svg">
<path fill-rule="evenodd" clip-rule="evenodd" d="M9.27548 4.74261L9.18788 4.95323L8.15288 7.44165C8.10968 7.54552 8.012 7.61649 7.89986 7.62548L5.2134 7.84086L4.98602 7.85908L4.12477 7.92813L3.82398 7.95224C3.55799 7.97357 3.45013 8.30552 3.65279 8.47912L3.88196 8.67543L4.53814 9.23752L4.71138 9.38591L6.75818 11.1392C6.84362 11.2124 6.88093 11.3272 6.85483 11.4367L6.22949 14.0582L6.17657 14.2801L5.97609 15.1205L5.90608 15.414C5.84416 15.6736 6.12654 15.8788 6.35427 15.7397L6.61179 15.5824L7.34913 15.132L7.5438 15.0131L9.84379 13.6083C9.93979 13.5496 10.0605 13.5496 10.1565 13.6083L12.4565 15.0131L12.6512 15.132L13.3885 15.5824L13.6461 15.7397C13.8738 15.8788 14.1562 15.6736 14.0942 15.414L14.0242 15.1205L13.8238 14.2801L13.7708 14.0582L13.1455 11.4367C13.1194 11.3272 13.1567 11.2124 13.2421 11.1392L15.2889 9.38591L15.4622 9.23752L16.1184 8.67543L16.3475 8.47912C16.5502 8.30552 16.4423 7.97357 16.1763 7.95224L15.8756 7.92813L15.0143 7.85908L14.7869 7.84086L12.1005 7.62548C11.9883 7.61649 11.8906 7.54552 11.8474 7.44165L10.8124 4.95323L10.7248 4.74261L10.393 3.94485L10.2772 3.66624C10.1747 3.41985 9.82565 3.41985 9.72317 3.66624L9.60728 3.94485L9.27548 4.74261ZM12.9509 6.18885L11.6621 3.09019C11.0473 1.61187 8.95306 1.61186 8.33819 3.09019L7.04938 6.18885L3.70411 6.45704C2.10814 6.58499 1.46099 8.5767 2.67696 9.61831L5.2257 11.8016L4.44701 15.066C4.07552 16.6234 5.76977 17.8543 7.13615 17.0198L10.0002 15.2704L12.8642 17.0198C14.2306 17.8543 15.9248 16.6234 15.5533 15.066L14.7746 11.8016L17.3234 9.61831C18.5393 8.57671 17.8922 6.58499 16.2962 6.45704L12.9509 6.18885Z" fill="#b6b6b6"/>
</svg>
