<svg width="20" height="20" viewBox="0 0 20 20" fill="none" xmlns="http://www.w3.org/2000/svg">
<path d="M16.6663 14.6667C16.6663 15.0203 16.5259 15.3594 16.2758 15.6095C16.0258 15.8595 15.6866 16 15.333 16H4.66634C4.31272 16 3.97358 15.8595 3.72353 15.6095C3.47348 15.3594 3.33301 15.0203 3.33301 14.6667V5.33333C3.33301 4.97971 3.47348 4.64057 3.72353 4.39052C3.97358 4.14048 4.31272 4 4.66634 4H7.46449C7.79884 4 8.11108 4.1671 8.29654 4.4453L9.03614 5.5547C9.22161 5.8329 9.53384 6 9.86819 6H15.333C15.6866 6 16.0258 6.14048 16.2758 6.39052C16.5259 6.64057 16.6663 6.97971 16.6663 7.33333V14.6667Z" stroke="#b6b6b6" stroke-width="1.5" stroke-linecap="round" stroke-linejoin="round"/>
</svg>
