<svg width="20" height="20" viewBox="0 0 20 20" fill="none" xmlns="http://www.w3.org/2000/svg">
<path d="M16.6666 14.6667C16.6666 15.0203 16.5261 15.3594 16.2761 15.6095C16.026 15.8595 15.6869 16 15.3333 16H4.66659C4.31296 16 3.97382 15.8595 3.72378 15.6095C3.47373 15.3594 3.33325 15.0203 3.33325 14.6667V5.33333C3.33325 4.97971 3.47373 4.64057 3.72378 4.39052C3.97382 4.14048 4.31296 4 4.66659 4H7.46474C7.79909 4 8.11132 4.1671 8.29679 4.4453L9.03639 5.5547C9.22185 5.8329 9.53408 6 9.86844 6H15.3333C15.6869 6 16.026 6.14048 16.2761 6.39052C16.5261 6.64057 16.6666 6.97971 16.6666 7.33333V14.6667Z" stroke="#b6b6b6" stroke-width="1.5" stroke-linecap="round" stroke-linejoin="round"/>
<path d="M8.14052 13.0289L8.54615 11.7805C8.5997 11.6157 8.54104 11.4351 8.40085 11.3333L7.33891 10.5617C7.02544 10.3339 7.18655 9.83808 7.57404 9.83808H8.88668C9.05998 9.83808 9.21356 9.72649 9.26711 9.56168L9.67269 8.31338C9.79243 7.94485 10.3138 7.94484 10.4335 8.31336L10.8392 9.56169C10.8927 9.7265 11.0463 9.83808 11.2196 9.83808H12.5322C12.9197 9.83808 13.0808 10.3339 12.7673 10.5617L11.7054 11.3333C11.5652 11.4351 11.5065 11.6157 11.56 11.7805L11.9657 13.0289C12.0854 13.3974 11.6636 13.7039 11.3501 13.4761L10.2882 12.7045C10.148 12.6026 9.95817 12.6026 9.81797 12.7045L8.75606 13.4761C8.44258 13.7039 8.02077 13.3974 8.14052 13.0289Z" fill="#b6b6b6"/>
</svg>
