<svg width="24" height="24" viewBox="0 0 24 24" fill="none" xmlns="http://www.w3.org/2000/svg">
<path fill-rule="evenodd" clip-rule="evenodd" d="M12.0002 7.5C13.1048 7.5 14.0002 6.60457 14.0002 5.5C14.0002 4.39543 13.1048 3.5 12.0002 3.5C10.8956 3.5 10.0002 4.39543 10.0002 5.5C10.0002 6.60457 10.8956 7.5 12.0002 7.5ZM14.5 12C14.5 13.3807 13.3807 14.5 12 14.5C10.6193 14.5 9.5 13.3807 9.5 12C9.5 10.6193 10.6193 9.5 12 9.5C13.3807 9.5 14.5 10.6193 14.5 12ZM14.0002 18.5C14.0002 19.6046 13.1048 20.5 12.0002 20.5C10.8956 20.5 10.0002 19.6046 10.0002 18.5C10.0002 17.3954 10.8956 16.5 12.0002 16.5C13.1048 16.5 14.0002 17.3954 14.0002 18.5ZM20 15.5C20 16.6046 19.1046 17.5 18 17.5C16.8954 17.5 16 16.6046 16 15.5C16 14.3954 16.8954 13.5 18 13.5C19.1046 13.5 20 14.3954 20 15.5ZM6 10.5C7.10457 10.5 8 9.60457 8 8.5C8 7.39543 7.10457 6.5 6 6.5C4.89543 6.5 4 7.39543 4 8.5C4 9.60457 4.89543 10.5 6 10.5ZM20 8.5C20 9.60457 19.1046 10.5 18 10.5C16.8954 10.5 16 9.60457 16 8.5C16 7.39543 16.8954 6.5 18 6.5C19.1046 6.5 20 7.39543 20 8.5ZM6 17.5C7.10457 17.5 8 16.6046 8 15.5C8 14.3954 7.10457 13.5 6 13.5C4.89543 13.5 4 14.3954 4 15.5C4 16.6046 4.89543 17.5 6 17.5Z" fill="#B6B6B6"/>
</svg>