<svg width="20" height="20" viewBox="0 0 20 20" fill="none" xmlns="http://www.w3.org/2000/svg">
<path fill-rule="evenodd" clip-rule="evenodd" d="M11.5 3.5C11.5 4.32843 10.8284 5 10 5C9.17157 5 8.5 4.32843 8.5 3.5C8.5 2.67157 9.17157 2 10 2C10.8284 2 11.5 2.67157 11.5 3.5ZM12 10C12 11.1046 11.1046 12 10 12C8.89543 12 8 11.1046 8 10C8 8.89543 8.89543 8 10 8C11.1046 8 12 8.89543 12 10ZM10 18C10.8284 18 11.5 17.3284 11.5 16.5C11.5 15.6716 10.8284 15 10 15C9.17157 15 8.5 15.6716 8.5 16.5C8.5 17.3284 9.17157 18 10 18Z" fill="#B6B6B6"/>
<circle cx="4.36935" cy="6.74979" r="1.5" transform="rotate(-60 4.36935 6.74979)" fill="#B6B6B6"/>
<circle cx="15.6272" cy="13.2498" r="1.5" transform="rotate(-60 15.6272 13.2498)" fill="#B6B6B6"/>
<circle cx="4.36935" cy="13.2498" r="1.5" transform="rotate(-120 4.36935 13.2498)" fill="#B6B6B6"/>
<circle cx="15.6272" cy="6.74979" r="1.5" transform="rotate(-120 15.6272 6.74979)" fill="#B6B6B6"/>
</svg>
