<svg width="20" height="20" viewBox="0 0 20 20" fill="none" xmlns="http://www.w3.org/2000/svg">
<path d="M15.8327 13.0833C15.8327 13.3928 15.7098 13.6895 15.491 13.9083C15.2722 14.1271 14.9754 14.25 14.666 14.25H5.33268C5.02326 14.25 4.72652 14.1271 4.50772 13.9083C4.28893 13.6895 4.16602 13.3928 4.16602 13.0833V4.91667C4.16602 4.60725 4.28893 4.3105 4.50772 4.09171C4.72652 3.87292 5.02326 3.75 5.33268 3.75H7.71416C8.04852 3.75 8.36075 3.9171 8.54622 4.1953L9.11915 5.0547C9.30461 5.3329 9.61685 5.5 9.9512 5.5H14.666C14.9754 5.5 15.2722 5.62292 15.491 5.84171C15.7098 6.0605 15.8327 6.35725 15.8327 6.66667V13.0833Z" stroke="#b6b6b6" stroke-width="1.5" stroke-linecap="round" stroke-linejoin="round"/>
<path d="M3 17.75C3 17.3358 3.33579 17 3.75 17H5.25C5.66421 17 6 17.3358 6 17.75C6 18.1642 5.66421 18.5 5.25 18.5H3.75C3.33579 18.5 3 18.1642 3 17.75Z" fill="#b6b6b6"/>
<path d="M7 18C7 17.4477 7.33579 17 7.75 17H12.25C12.6642 17 13 17.4477 13 18C13 18.5523 12.6642 19 12.25 19H7.75C7.33579 19 7 18.5523 7 18Z" fill="#b6b6b6"/>
<path d="M14 17.75C14 17.3358 14.3358 17 14.75 17H16.25C16.6642 17 17 17.3358 17 17.75C17 18.1642 16.6642 18.5 16.25 18.5H14.75C14.3358 18.5 14 18.1642 14 17.75Z" fill="#b6b6b6"/>
</svg>
