<svg width="20" height="20" viewBox="0 0 20 20" fill="none" xmlns="http://www.w3.org/2000/svg">
<g clip-path="url(#clip0)">
<path fill-rule="evenodd" clip-rule="evenodd" d="M16.75 10C16.75 13.4518 13.9518 16.25 10.5 16.25C8.77411 16.25 7.21161 15.5504 6.08058 14.4194L5.01992 15.4801C6.4224 16.8826 8.3599 17.75 10.5 17.75C14.7802 17.75 18.25 14.2802 18.25 10C18.25 5.71979 14.7802 2.25 10.5 2.25C6.21979 2.25 2.75 5.71979 2.75 10H2.7207V10.16L1.03039 8.46973L-0.0302734 9.53039L3.50006 13.0607L7.03039 9.53039L5.96973 8.46973L4.2207 10.2187V10H4.25C4.25 6.54822 7.04822 3.75 10.5 3.75C13.9518 3.75 16.75 6.54822 16.75 10ZM9.75 10.386V5H11.25V9.61404L14.4359 11.8897L13.5641 13.1103L9.75 10.386Z" fill="#b6b6b6"/>
</g>
<defs>
<clipPath id="clip0">
<rect width="20" height="20" fill="white"/>
</clipPath>
</defs>
</svg>