<svg width="20" height="20" viewBox="0 0 20 20" fill="none" xmlns="http://www.w3.org/2000/svg">
<path fill-rule="evenodd" clip-rule="evenodd" d="M5.5 3.5C4.39543 3.5 3.5 4.39543 3.5 5.5V13.4393L7.46967 9.46967L8 8.93934L8.53033 9.46967L11 11.9393L12.4697 10.4697L13 9.93934L13.5303 10.4697L16.5 13.4393V5.5C16.5 4.39543 15.6046 3.5 14.5 3.5H5.5ZM16.304 15.3646L13 12.0607L11.5303 13.5303L11 14.0607L10.4697 13.5303L8 11.0607L3.69604 15.3646C4.01855 16.0363 4.70512 16.5 5.5 16.5H14.5C15.2949 16.5 15.9815 16.0363 16.304 15.3646ZM2 5.5C2 3.567 3.567 2 5.5 2H14.5C16.433 2 18 3.567 18 5.5V14.5C18 16.433 16.433 18 14.5 18H5.5C3.567 18 2 16.433 2 14.5V5.5ZM13 8.5C13.8284 8.5 14.5 7.82843 14.5 7C14.5 6.17157 13.8284 5.5 13 5.5C12.1716 5.5 11.5 6.17157 11.5 7C11.5 7.82843 12.1716 8.5 13 8.5Z" fill="#B6B6B6"/>
</svg>
