<svg width="20" height="20" viewBox="0 0 20 20" fill="none" xmlns="http://www.w3.org/2000/svg">
<path d="M4 17.25C4 16.8358 4.33579 16.5 4.75 16.5H15.25C15.6642 16.5 16 16.8358 16 17.25C16 17.6642 15.6642 18 15.25 18H4.75C4.33579 18 4 17.6642 4 17.25Z" fill="#b6b6b6"/>
<path d="M10 1.93945C9.58579 1.93945 9.25 2.27524 9.25 2.68945V12.1895C9.25 12.6037 9.58579 12.9395 10 12.9395C10.4142 12.9395 10.75 12.6037 10.75 12.1895V2.68945C10.75 2.27524 10.4142 1.93945 10 1.93945Z" fill="#b6b6b6"/>
<path fill-rule="evenodd" clip-rule="evenodd" d="M10 14L15.5303 8.46967C15.8232 8.17678 15.8232 7.7019 15.5303 7.40901C15.2374 7.11612 14.7626 7.11612 14.4697 7.40901L10 11.8787L5.53033 7.40901C5.23744 7.11612 4.76256 7.11612 4.46967 7.40901C4.17678 7.7019 4.17678 8.17678 4.46967 8.46967L10 14Z" fill="#b6b6b6"/>
</svg>
