<svg width="20" height="20" viewBox="0 0 20 20" fill="none" xmlns="http://www.w3.org/2000/svg">
<path d="M7.5 11.5C8.61933 11.5 9.56613 12.2358 9.88477 13.25H16.417C16.739 13.2502 17 13.5859 17 14C17 14.4141 16.739 14.7498 16.417 14.75H9.88477C9.56613 15.7642 8.61933 16.5 7.5 16.5C6.38067 16.5 5.43387 15.7642 5.11523 14.75H3.58301C3.26099 14.7498 3 14.4141 3 14C3 13.5859 3.26099 13.2502 3.58301 13.25H5.11523C5.43387 12.2358 6.38067 11.5 7.5 11.5ZM7.5 12.75C6.80964 12.75 6.25 13.3097 6.25 14C6.25 14.6903 6.80964 15.25 7.5 15.25C8.19036 15.25 8.75 14.6903 8.75 14C8.75 13.3097 8.19036 12.75 7.5 12.75ZM12.5 3.5C13.6194 3.5 14.5661 4.23584 14.8848 5.25H16.417C16.739 5.25023 17 5.58593 17 6C17 6.41407 16.739 6.74977 16.417 6.75H14.8848C14.5661 7.76416 13.6194 8.5 12.5 8.5C11.3806 8.5 10.4339 7.76416 10.1152 6.75H3.58301C3.26099 6.74977 3 6.41407 3 6C3 5.58593 3.26099 5.25023 3.58301 5.25H10.1152C10.4339 4.23584 11.3806 3.5 12.5 3.5ZM12.5 4.75C11.8097 4.75 11.25 5.30964 11.25 6C11.25 6.69036 11.8097 7.25 12.5 7.25C13.1903 7.25 13.75 6.69036 13.75 6C13.75 5.30964 13.1903 4.75 12.5 4.75Z" fill="#9B9B9B"/>
</svg>