<svg xmlns="http://www.w3.org/2000/svg" width="20" height="20" viewBox="0 0 20 20" fill="none">
    <path d="M6.5 11C8.98528 11 11 13.0147 11 15.5V16.2188C11 16.633 10.6642 16.9688 10.25 16.9688H2.75C2.33579 16.9688 2 16.633 2 16.2188V15.5C2 13.0147 4.01472 11 6.5 11ZM13.5 9C15.9853 9 18 11.0147 18 13.5V14.25C18 14.6642 17.6642 15 17.25 15H11.9775C11.8311 13.3749 10.9779 11.9535 9.72754 11.0459C10.5304 9.81422 11.9201 9 13.5 9ZM6.5 5C7.74264 5 8.75 6.11929 8.75 7.5C8.75 8.88071 7.74264 10 6.5 10C5.25736 10 4.25 8.88071 4.25 7.5C4.25 6.11929 5.25736 5 6.5 5ZM13.5 3C14.7426 3 15.75 4.11929 15.75 5.5C15.75 6.88071 14.7426 8 13.5 8C12.2574 8 11.25 6.88071 11.25 5.5C11.25 4.11929 12.2574 3 13.5 3Z" fill="#9B9B9B"/>
</svg>
