<svg width="20" height="20" viewBox="0 0 20 20" fill="none" xmlns="http://www.w3.org/2000/svg">
<path fill-rule="evenodd" clip-rule="evenodd" d="M14.4995 3.5H5.5C4.39543 3.5 3.5 4.39543 3.5 5.5V14.5C3.5 15.6046 4.39543 16.5 5.5 16.5H14.4995C15.6041 16.5 16.4995 15.6046 16.4995 14.5V5.5C16.4995 4.39543 15.6041 3.5 14.4995 3.5ZM5.5 2C3.567 2 2 3.567 2 5.5V14.5C2 16.433 3.567 18 5.5 18H14.4995C16.4325 18 17.9995 16.433 17.9995 14.5V5.5C17.9995 3.567 16.4325 2 14.4995 2H5.5Z" fill="#b6b6b6"/>
<path fill-rule="evenodd" clip-rule="evenodd" d="M9.46967 6.01459C9.17678 6.30748 9.17678 6.78236 9.46967 7.07525L12.4393 10.0449L9.46967 13.0146C9.17678 13.3075 9.17678 13.7824 9.46967 14.0753C9.76256 14.3681 10.2374 14.3681 10.5303 14.0753L14.5607 10.0449L10.5303 6.01459C10.2374 5.7217 9.76256 5.7217 9.46967 6.01459Z" fill="#b6b6b6"/>
<path d="M12.5 9.29492H5.5V10.7949H12.5V9.29492Z" fill="#b6b6b6"/>
</svg>
