<svg width="20" height="20" viewBox="0 0 20 20" fill="none" xmlns="http://www.w3.org/2000/svg">
<path fill-rule="evenodd" clip-rule="evenodd" d="M16 3.54492H4C3.72386 3.54492 3.5 3.76878 3.5 4.04492V16.0449C3.5 16.3211 3.72386 16.5449 4 16.5449H16C16.2761 16.5449 16.5 16.3211 16.5 16.0449V4.04492C16.5 3.76878 16.2761 3.54492 16 3.54492ZM4 2.04492C2.89543 2.04492 2 2.94035 2 4.04492V16.0449C2 17.1495 2.89543 18.0449 4 18.0449H16C17.1046 18.0449 18 17.1495 18 16.0449V4.04492C18 2.94035 17.1046 2.04492 16 2.04492H4Z" fill="#ACA996"/>
<path fill-rule="evenodd" clip-rule="evenodd" d="M9.46967 6.01459C9.17678 6.30748 9.17678 6.78236 9.46967 7.07525L12.4393 10.0449L9.46967 13.0146C9.17678 13.3075 9.17678 13.7824 9.46967 14.0753C9.76256 14.3681 10.2374 14.3681 10.5303 14.0753L14.5607 10.0449L10.5303 6.01459C10.2374 5.7217 9.76256 5.7217 9.46967 6.01459Z" fill="#ACA996"/>
<path d="M12.5 9.29492H5.5V10.7949H12.5V9.29492Z" fill="#ACA996"/>
</svg>