<svg width="24" height="24" viewBox="0 0 24 24" fill="none" xmlns="http://www.w3.org/2000/svg">
<path fill-rule="evenodd" clip-rule="evenodd" d="M9 4C7.61929 4 6.5 5.11929 6.5 6.5V17.5C6.5 18.8807 7.61929 20 9 20H10.5C9.11929 20 8 18.8807 8 17.5V6.5C8 5.11929 9.11929 4 10.5 4H9Z" fill="#B6B6B6"/>
<path fill-rule="evenodd" clip-rule="evenodd" d="M5.5 4C4.11929 4 3 5.11929 3 6.5V17.5C3 18.8807 4.11929 20 5.5 20H7C5.61929 20 4.5 18.8807 4.5 17.5V6.5C4.5 5.11929 5.61929 4 7 4H5.5Z" fill="#B6B6B6"/>
<path fill-rule="evenodd" clip-rule="evenodd" d="M18.5 5.5H12.5C11.9477 5.5 11.5 5.94772 11.5 6.5V17.5C11.5 18.0523 11.9477 18.5 12.5 18.5H18.5C19.0523 18.5 19.5 18.0523 19.5 17.5V6.5C19.5 5.94772 19.0523 5.5 18.5 5.5ZM12.5 4C11.1193 4 10 5.11929 10 6.5V17.5C10 18.8807 11.1193 20 12.5 20H18.5C19.8807 20 21 18.8807 21 17.5V6.5C21 5.11929 19.8807 4 18.5 4H12.5Z" fill="#B6B6B6"/>
</svg>
