<svg width="20" height="20" viewBox="0 0 20 20" fill="none" xmlns="http://www.w3.org/2000/svg">
    <path d="M14.4941 5.00586C16.9212 5.12873 18.8673 7.07368 18.9932 9.5H17.4893C17.3616 7.82193 15.9608 6.5 14.25 6.5H5.75C3.95507 6.5 2.5 7.95507 2.5 9.75C2.5 11.5449 3.95507 13 5.75 13H9.5V14.5H5.75C3.12665 14.5 1 12.3734 1 9.75C1 7.12665 3.12665 5 5.75 5H14.25L14.4941 5.00586Z" fill="#9B9B9B"/>
    <circle cx="14.5" cy="13.5312" r="3.5" fill="#9B9B9B"/>
    <rect x="12.25" y="14" width="1" height="4.5" rx="0.5" transform="rotate(-90 12.25 14)" fill="white"/>
    <rect x="14" y="11.25" width="1" height="4.5" rx="0.5" fill="white"/>
</svg>
