<svg width="20" height="20" viewBox="0 0 20 20" fill="none" xmlns="http://www.w3.org/2000/svg">
    <rect x="1.75" y="3.75" width="16.5" height="12.5" rx="2.25" stroke="#9B9B9B" stroke-width="1.5"/>
    <path d="M16 3C17.6569 3 19 4.34315 19 6V7.5H1V6C1 4.34315 2.34315 3 4 3H16ZM3.75 4.5C3.33579 4.5 3 4.83579 3 5.25C3 5.66421 3.33579 6 3.75 6C4.16421 6 4.5 5.66421 4.5 5.25C4.5 4.83579 4.16421 4.5 3.75 4.5ZM6.25 4.5C5.83579 4.5 5.5 4.83579 5.5 5.25C5.5 5.66421 5.83579 6 6.25 6C6.66421 6 7 5.66421 7 5.25C7 4.83579 6.66421 4.5 6.25 4.5ZM8.75 4.5C8.33579 4.5 8 4.83579 8 5.25C8 5.66421 8.33579 6 8.75 6C9.16421 6 9.5 5.66421 9.5 5.25C9.5 4.83579 9.16421 4.5 8.75 4.5Z" fill="#9B9B9B"/>
</svg>
