<svg width="20" height="20" viewBox="0 0 20 20" fill="none" xmlns="http://www.w3.org/2000/svg">
<path d="M10.8545 16.8125C10.5869 16.9349 10.2959 16.9987 10 16.999C9.70446 16.9986 9.41377 16.9347 9.14648 16.8125H10.8545ZM10 2.75C10.5543 2.75 11.1367 3.16024 11.3643 3.92285L11.4092 4.0752L11.5127 4.19629C11.5786 4.2733 11.6584 4.33736 11.7471 4.38672L11.7852 4.4082L11.8262 4.42578C12.5729 4.73333 13.1014 5.13169 13.4844 5.63281L13.4854 5.63379C14.005 6.31283 14.3037 7.26326 14.3037 8.51758C14.3037 9.87405 14.4224 10.7791 14.6797 11.4893C14.9427 12.215 15.3335 12.6808 15.7158 13.1436L15.7168 13.1445L15.8887 13.3525C15.9477 13.4241 15.9848 13.5112 15.9961 13.6035C16.0074 13.696 15.9924 13.7901 15.9521 13.874L15.9512 13.875C15.8637 14.0578 15.6753 14.1865 15.4268 14.1865H4.57715C4.32388 14.1865 4.13482 14.0554 4.04883 13.874L4.04785 13.8721L4.02246 13.8076C4.00179 13.7416 3.99537 13.6718 4.00391 13.6025C4.01531 13.5102 4.05309 13.423 4.1123 13.3516L4.11621 13.3467C4.17167 13.2785 4.22608 13.2125 4.2832 13.1436L4.28418 13.1426C4.66697 12.6801 5.05834 12.215 5.32129 11.4893C5.57852 10.7791 5.69627 9.8734 5.69629 8.5166C5.69629 7.41223 5.91765 6.56528 6.31445 5.91992C6.707 5.28165 7.30758 4.7812 8.1748 4.42383L8.2168 4.40625L8.25586 4.38477C8.33928 4.33807 8.41398 4.27738 8.47754 4.20605L8.58887 4.08105L8.63672 3.92188C8.86422 3.16024 9.44574 2.75004 10 2.75Z" stroke="#9B9B9B" stroke-width="1.5"/>
</svg>