<svg width="20" height="20" viewBox="0 0 20 20" fill="none" xmlns="http://www.w3.org/2000/svg">
<path fill-rule="evenodd" clip-rule="evenodd" d="M14.4995 3.5H5.5C4.39543 3.5 3.5 4.39543 3.5 5.5V14.5C3.5 15.6046 4.39543 16.5 5.5 16.5H14.4995C15.6041 16.5 16.4995 15.6046 16.4995 14.5V5.5C16.4995 4.39543 15.6041 3.5 14.4995 3.5ZM5.5 2C3.567 2 2 3.567 2 5.5V14.5C2 16.433 3.567 18 5.5 18H14.4995C16.4325 18 17.9995 16.433 17.9995 14.5V5.5C17.9995 3.567 16.4325 2 14.4995 2H5.5Z" fill="#ACA996"/>
<rect x="9.24951" y="6" width="1.5" height="8" rx="0.75" fill="#ACA996"/>
<rect x="5.99951" y="10.75" width="1.5" height="8" rx="0.75" transform="rotate(-90 5.99951 10.75)" fill="#ACA996"/>
</svg>
