<svg width="20" height="20" viewBox="0 0 20 20" fill="none" xmlns="http://www.w3.org/2000/svg">
<path d="M12.5 9V6C12.5 4.61929 11.3807 3.5 10 3.5C8.61929 3.5 7.5 4.61929 7.5 6V9H6V6C6 3.79086 7.79086 2 10 2C12.2091 2 14 3.79086 14 6V9H12.5Z" fill="#b6b6b6"/>
<path fill-rule="evenodd" clip-rule="evenodd" d="M14.5 10.5H5.5V16.5H14.5V10.5ZM5.5 9C4.67157 9 4 9.67157 4 10.5V16.5C4 17.3284 4.67157 18 5.5 18H14.5C15.3284 18 16 17.3284 16 16.5V10.5C16 9.67157 15.3284 9 14.5 9H5.5Z" fill="#b6b6b6"/>
</svg>
