<svg width="20" height="20" viewBox="0 0 20 20" fill="none" xmlns="http://www.w3.org/2000/svg">
<g clip-path="url(#clip0_10560_4086)">
<path d="M3.98632 8.25745C4.33994 7.90383 4.77542 7.64516 5.29276 7.48145C5.81337 7.32101 6.38146 7.26698 6.99703 7.31937C7.3938 7.35086 7.79259 7.43148 8.19339 7.56122C8.6135 7.69721 9.08247 7.6395 9.41607 7.3502L10.7692 6.17678C11.0988 5.89091 11.2284 5.44143 11.1348 5.01524C11.1045 4.87721 11.0775 4.74155 11.0539 4.60826C10.9949 4.26118 10.954 3.94521 10.9311 3.66035C10.9147 3.37549 10.9196 3.13483 10.9458 2.93837C10.9851 2.63714 11.0883 2.40302 11.2552 2.23604C11.419 2.07232 11.6089 1.99374 11.825 2.00029C12.0476 2.00683 12.2506 2.10179 12.434 2.28515L17.7187 7.56985C17.8988 7.74994 17.9921 7.95131 17.9986 8.17396C18.0085 8.39334 17.9315 8.58488 17.7678 8.7486C17.6008 8.91559 17.3651 9.01709 17.0606 9.0531C16.8674 9.08257 16.6267 9.08749 16.3386 9.06784C16.057 9.04819 15.741 9.00727 15.3907 8.94505C15.2556 8.91958 15.1176 8.89112 14.9766 8.8597C14.5548 8.76566 14.1105 8.8972 13.8273 9.22374L12.6499 10.5815C12.36 10.9158 12.3027 11.3859 12.44 11.8066C12.5714 12.2094 12.6529 12.6094 12.6845 13.0068C12.7369 13.6224 12.6812 14.1888 12.5175 14.7062C12.357 15.2268 12.1 15.6639 11.7464 16.0175C11.5237 16.2402 11.2733 16.3499 10.9949 16.3466C10.7232 16.3433 10.4694 16.2238 10.2337 15.9881L7.61096 13.3653L6.6385 12.3929L4.01088 9.76526C3.7784 9.53279 3.65889 9.27903 3.65234 9.00399C3.65234 8.72895 3.76367 8.4801 3.98632 8.25745Z" fill="#9B9B9B"/>
<path d="M7.80259 13.4217L4.14234 16.9533C3.54887 17.5468 2.75611 17.904 2.30927 17.9803C2.16204 18.0097 2.07002 18.006 2.03321 17.9692C1.99272 17.9287 1.9872 17.8349 2.01664 17.6876C2.15291 17.0063 2.56077 16.3484 3.04913 15.8601L6.70937 12.3285C7.09491 11.9062 8.22097 13.0319 7.80259 13.4217Z" fill="#9B9B9B"/>
</g>
<defs>
<clipPath id="clip0_10560_4086">
<rect width="20" height="20" fill="white"/>
</clipPath>
</defs>
</svg>