<svg width="20" height="20" viewBox="0 0 20 20" fill="none" xmlns="http://www.w3.org/2000/svg">
<g clip-path="url(#clip0_3797_14535)">
<path d="M4.65987 8.45252C4.97391 8.13849 5.36063 7.90878 5.82006 7.76339C6.28239 7.62091 6.78688 7.57293 7.33353 7.61946C7.68588 7.64742 8.04003 7.71901 8.39596 7.83423C8.76904 7.955 9.18551 7.90375 9.48177 7.64684L10.6834 6.60478C10.9761 6.35092 11.0912 5.95175 11.0081 5.57327C10.9812 5.4507 10.9572 5.33022 10.9362 5.21185C10.8839 4.90363 10.8475 4.62304 10.8272 4.37006C10.8126 4.11709 10.817 3.90337 10.8403 3.72891C10.8752 3.4614 10.9667 3.25349 11.115 3.1052C11.2604 2.95981 11.4291 2.89003 11.621 2.89584C11.8187 2.90166 11.999 2.98598 12.1618 3.14882L16.8549 7.8419C17.0148 8.00182 17.0977 8.18065 17.1035 8.37838C17.1122 8.57319 17.0439 8.7433 16.8985 8.88868C16.7502 9.03698 16.5409 9.12712 16.2705 9.1591C16.0989 9.18527 15.8852 9.18963 15.6293 9.17219C15.3792 9.15474 15.0986 9.11839 14.7875 9.06315C14.6676 9.04052 14.545 9.01526 14.4198 8.98735C14.0452 8.90384 13.6507 9.02065 13.3992 9.31064L12.3536 10.5164C12.0961 10.8132 12.0453 11.2308 12.1672 11.6044C12.2839 11.962 12.3563 12.3173 12.3843 12.6702C12.4308 13.2168 12.3814 13.7199 12.236 14.1793C12.0935 14.6416 11.8652 15.0298 11.5512 15.3439C11.3535 15.5416 11.131 15.639 10.8839 15.6361C10.6425 15.6332 10.4172 15.527 10.2078 15.3177L7.87873 12.9886L7.01514 12.125L4.68168 9.79154C4.47523 9.58509 4.3691 9.35974 4.36328 9.11549C4.36328 8.87124 4.46214 8.65025 4.65987 8.45252Z" stroke="#9B9B9B" stroke-width="1.5" stroke-linecap="round" stroke-linejoin="round"/>
<path d="M7.82428 13.2178L4.79878 16.1749C4.27174 16.7019 3.56773 17.0191 3.17092 17.0869C3.04016 17.113 2.95844 17.1098 2.92576 17.0771C2.8898 17.0411 2.8849 16.9578 2.91105 16.827C3.03205 16.222 3.39426 15.6378 3.82794 15.2041L6.85344 12.2469C7.19582 11.8719 8.19582 12.8716 7.82428 13.2178Z" fill="#9B9B9B"/>
</g>
<defs>
<clipPath id="clip0_3797_14535">
<rect width="20" height="20" fill="white"/>
</clipPath>
</defs>
</svg>
