<svg width="20" height="20" viewBox="0 0 20 20" fill="none" xmlns="http://www.w3.org/2000/svg">
<path d="M4.70711 7.82685C4.31658 8.21737 4.31658 8.85054 4.70711 9.24106L10.7589 15.2929C11.1495 15.6834 11.7826 15.6834 12.1732 15.2929L12.5076 14.9585C12.7206 14.7455 12.8262 14.4478 12.7951 14.1482L12.5795 12.0709C12.5455 11.7425 12.6756 11.4185 12.9274 11.205L16.1721 8.4532C16.6179 8.07508 16.6458 7.3968 16.2324 6.98343L13.0165 3.76753C12.6031 3.35419 11.9249 3.38198 11.5468 3.82775L8.79419 7.07269C8.58066 7.32441 8.25668 7.45454 7.92835 7.42046L5.85185 7.20491C5.55221 7.17381 5.25451 7.27944 5.0415 7.49246L4.70711 7.82685Z" stroke="#B6B6B6" stroke-width="1.5" stroke-linecap="round" stroke-linejoin="round"/>
<path d="M2.46967 16.4697C2.17678 16.7626 2.17678 17.2374 2.46967 17.5303C2.76256 17.8232 3.23744 17.8232 3.53033 17.5303L2.46967 16.4697ZM3.53033 17.5303L7.77297 13.2877L6.71231 12.227L2.46967 16.4697L3.53033 17.5303Z" fill="#B6B6B6"/>
</svg>
