<svg width="24" height="24" viewBox="0 0 24 24" fill="none" xmlns="http://www.w3.org/2000/svg">
<path fill-rule="evenodd" clip-rule="evenodd" d="M16 14V16H22V9C22 7.34315 20.6569 6 19 6H5C3.34315 6 2 7.34315 2 9V16H8V14H16ZM6 14V12H18V14H20V9C20 8.44771 19.5523 8 19 8H5C4.44772 8 4 8.44772 4 9V14H6Z" fill="#ACA996"/>
<path fill-rule="evenodd" clip-rule="evenodd" d="M16 4H8V6H16V4ZM6 2V8H18V2H6Z" fill="#ACA996"/>
<path fill-rule="evenodd" clip-rule="evenodd" d="M16 14H8V20H16V14ZM6 12V22H18V12H6Z" fill="#ACA996"/>
</svg>