<svg width="20" height="20" viewBox="0 0 20 20" fill="none" xmlns="http://www.w3.org/2000/svg">
<path fill-rule="evenodd" clip-rule="evenodd" d="M13.5 3.5H6.5V5H13.5V3.5ZM5 2V6.5H15V2H5Z" fill="#b6b6b6"/>
<path fill-rule="evenodd" clip-rule="evenodd" d="M13.5 11H6.5V16.5H13.5V11ZM5 9.5V18H15V9.5H5Z" fill="#b6b6b6"/>
<path fill-rule="evenodd" clip-rule="evenodd" d="M3.5 6.99999C3.5 6.72385 3.72386 6.49999 4 6.49999H16C16.2761 6.49999 16.5 6.72385 16.5 6.99999V12.5H15V14H18V6.50002C18 5.67157 17.3284 4.99999 16.4999 5.00001C12.1666 5.00012 7.83332 5.00002 3.5 5C2.67157 4.99999 2 5.67157 2 6.49999V14H5V12.5H3.5V6.99999Z" fill="#b6b6b6"/>
</svg>