<svg width="24" height="24" viewBox="0 0 24 24" fill="none" xmlns="http://www.w3.org/2000/svg">
<path fill-rule="evenodd" clip-rule="evenodd" d="M16.2787 4.29289C16.6692 3.90237 17.3024 3.90237 17.6929 4.2929L22.4 9.00006L17.6929 13.7071C17.3024 14.0976 16.6692 14.0976 16.2787 13.7071C15.8882 13.3166 15.8882 12.6834 16.2787 12.2929L19.5716 9.00004L16.2787 5.7071C15.8882 5.31658 15.8882 4.68341 16.2787 4.29289Z" fill="#ACA996"/>
<path fill-rule="evenodd" clip-rule="evenodd" d="M9 10V8H20.5V10H9Z" fill="#ACA996"/>
<path fill-rule="evenodd" clip-rule="evenodd" d="M9 10C6.79086 10 5 11.7909 5 14C5 16.2091 6.79086 18 9 18V20C5.68629 20 3 17.3137 3 14C3 10.6863 5.68629 8 9 8V10Z" fill="#ACA996"/>
<path d="M12 18H9V20H12V18Z" fill="#ACA996"/>
</svg>