<svg width="20" height="20" viewBox="0 0 20 20" fill="none" xmlns="http://www.w3.org/2000/svg">
<path fill-rule="evenodd" clip-rule="evenodd" d="M12.2196 2.46967C11.9267 2.76256 11.9267 3.23744 12.2196 3.53033L15.6892 7L12.2196 10.4697C11.9267 10.7626 11.9267 11.2374 12.2196 11.5303C12.5125 11.8232 12.9873 11.8232 13.2802 11.5303L17.8105 7L13.2802 2.46967C12.9873 2.17678 12.5125 2.17678 12.2196 2.46967Z" fill="#b6b6b6"/>
<path fill-rule="evenodd" clip-rule="evenodd" d="M17 6.25H8C4.82436 6.25 2.25 8.82436 2.25 12C2.25 15.1756 4.82436 17.75 8 17.75H10V16.25H8C5.65279 16.25 3.75 14.3472 3.75 12C3.75 9.65279 5.65279 7.75 8 7.75H17V6.25Z" fill="#b6b6b6"/>
</svg>