<svg width="20" height="20" viewBox="0 0 20 20" fill="none" xmlns="http://www.w3.org/2000/svg">
<path d="M5.75 15C5.75 16.1046 4.85457 17 3.75 17C2.64543 17 1.75 16.1046 1.75 15C1.75 13.8954 2.64543 13 3.75 13C4.85457 13 5.75 13.8954 5.75 15Z" fill="#B6B6B6"/>
<path d="M18.25 15C18.25 16.1046 17.3546 17 16.25 17C15.1454 17 14.25 16.1046 14.25 15C14.25 13.8954 15.1454 13 16.25 13C17.3546 13 18.25 13.8954 18.25 15Z" fill="#B6B6B6"/>
<path d="M12 4C12 5.10457 11.1046 6 10 6C8.89543 6 8 5.10457 8 4C8 2.89543 8.89543 2 10 2C11.1046 2 12 2.89543 12 4Z" fill="#B6B6B6"/>
<path d="M7 15C7 14.5858 7.33579 14.25 7.75 14.25H12.25C12.6642 14.25 13 14.5858 13 15C13 15.4142 12.6642 15.75 12.25 15.75H7.75C7.33579 15.75 7 15.4142 7 15Z" fill="#B6B6B6"/>
<path fill-rule="evenodd" clip-rule="evenodd" d="M8.10107 6.58731C8.46714 6.78111 8.6068 7.23499 8.41299 7.60107L6.16299 11.8511C5.96919 12.2171 5.51531 12.3568 5.14923 12.163C4.78316 11.9692 4.6435 11.5153 4.83731 11.1492L7.08731 6.89923C7.28111 6.53316 7.73499 6.3935 8.10107 6.58731Z" fill="#B6B6B6"/>
<path fill-rule="evenodd" clip-rule="evenodd" d="M11.8989 6.58731C11.5329 6.78111 11.3932 7.23499 11.587 7.60107L13.837 11.8511C14.0308 12.2171 14.4847 12.3568 14.8508 12.163C15.2168 11.9692 15.3565 11.5153 15.1627 11.1492L12.9127 6.89923C12.7189 6.53316 12.265 6.3935 11.8989 6.58731Z" fill="#B6B6B6"/>
</svg>
