<svg width="20" height="20" viewBox="0 0 20 20" fill="none" xmlns="http://www.w3.org/2000/svg">
<mask id="path-1-inside-1_939_245" fill="white">
<path fill-rule="evenodd" clip-rule="evenodd" d="M17.2303 12C16.3551 15.1712 13.4494 17.5 9.99992 17.5C7.54657 17.5 5.36835 16.322 4 14.5008V16.75C4 17.1642 3.66421 17.5 3.25 17.5C2.83579 17.5 2.5 17.1642 2.5 16.75V13.5V12H2.76953H4H4.34133H7.25C7.66421 12 8 12.3358 8 12.75C8 13.1642 7.66421 13.5 7.25 13.5H5.12596C6.21514 15.0141 7.99239 16 9.99992 16C12.6124 16 14.8348 14.3304 15.6585 12H17.2303ZM16 5.49938C14.6317 3.67806 12.4534 2.5 9.99992 2.5C6.55038 2.5 3.64478 4.82881 2.76953 8H4.34133C5.165 5.66962 7.38748 4 9.99992 4C12.0074 4 13.7847 4.98593 14.8739 6.5H12.75C12.3358 6.5 12 6.83579 12 7.25C12 7.66421 12.3358 8 12.75 8H15.6585H16H17.2303H17.5V6.5V3.25C17.5 2.83579 17.1642 2.5 16.75 2.5C16.3358 2.5 16 2.83579 16 3.25V5.49938Z"/>
</mask>
<path fill-rule="evenodd" clip-rule="evenodd" d="M17.2303 12C16.3551 15.1712 13.4494 17.5 9.99992 17.5C7.54657 17.5 5.36835 16.322 4 14.5008V16.75C4 17.1642 3.66421 17.5 3.25 17.5C2.83579 17.5 2.5 17.1642 2.5 16.75V13.5V12H2.76953H4H4.34133H7.25C7.66421 12 8 12.3358 8 12.75C8 13.1642 7.66421 13.5 7.25 13.5H5.12596C6.21514 15.0141 7.99239 16 9.99992 16C12.6124 16 14.8348 14.3304 15.6585 12H17.2303ZM16 5.49938C14.6317 3.67806 12.4534 2.5 9.99992 2.5C6.55038 2.5 3.64478 4.82881 2.76953 8H4.34133C5.165 5.66962 7.38748 4 9.99992 4C12.0074 4 13.7847 4.98593 14.8739 6.5H12.75C12.3358 6.5 12 6.83579 12 7.25C12 7.66421 12.3358 8 12.75 8H15.6585H16H17.2303H17.5V6.5V3.25C17.5 2.83579 17.1642 2.5 16.75 2.5C16.3358 2.5 16 2.83579 16 3.25V5.49938Z" fill="#b6b6b6"/>
<path d="M17.2303 12L18.1943 12.2661L18.5437 11H17.2303V12ZM4 14.5008L4.79948 13.9002L3 11.5052V14.5008H4ZM2.5 12V11H1.5V12H2.5ZM5.12596 13.5V12.5H3.17472L4.31419 14.084L5.12596 13.5ZM15.6585 12V11H14.9513L14.7157 11.6668L15.6585 12ZM16 5.49938L15.2005 6.10004L17 8.49526V5.49938H16ZM2.76953 8L1.80557 7.73395L1.45614 9H2.76953V8ZM4.34133 8V9H5.0485L5.28417 8.33325L4.34133 8ZM14.8739 6.5V7.5H16.8251L15.6856 5.91603L14.8739 6.5ZM17.5 8V9H18.5V8H17.5ZM9.99992 18.5C13.9108 18.5 17.2024 15.8596 18.1943 12.2661L16.2663 11.7339C15.5077 14.4828 12.9881 16.5 9.99992 16.5V18.5ZM3.20052 15.1015C4.74962 17.1633 7.21881 18.5 9.99992 18.5V16.5C7.87432 16.5 5.98708 15.4808 4.79948 13.9002L3.20052 15.1015ZM5 16.75V14.5008H3V16.75H5ZM3.25 18.5C4.2165 18.5 5 17.7165 5 16.75H3C3 16.6119 3.11193 16.5 3.25 16.5V18.5ZM1.5 16.75C1.5 17.7165 2.2835 18.5 3.25 18.5V16.5C3.38807 16.5 3.5 16.6119 3.5 16.75H1.5ZM1.5 13.5V16.75H3.5V13.5H1.5ZM3.5 13.5V12H1.5V13.5H3.5ZM2.5 13H2.76953V11H2.5V13ZM2.76953 13H4V11H2.76953V13ZM4 13H4.34133V11H4V13ZM4.34133 13H7.25V11H4.34133V13ZM7.25 13C7.11193 13 7 12.8881 7 12.75H9C9 11.7835 8.2165 11 7.25 11V13ZM7 12.75C7 12.6119 7.11193 12.5 7.25 12.5V14.5C8.2165 14.5 9 13.7165 9 12.75H7ZM7.25 12.5H5.12596V14.5H7.25V12.5ZM9.99992 15C8.32774 15 6.84709 14.1801 5.93774 12.916L4.31419 14.084C5.58319 15.848 7.65703 17 9.99992 17V15ZM14.7157 11.6668C14.0288 13.6101 12.1754 15 9.99992 15V17C13.0493 17 15.6409 15.0507 16.6013 12.3332L14.7157 11.6668ZM17.2303 11H15.6585V13H17.2303V11ZM9.99992 3.5C12.1256 3.5 14.0129 4.51931 15.2005 6.10004L16.7995 4.89872C15.2504 2.83682 12.7811 1.5 9.99992 1.5V3.5ZM3.73349 8.26605C4.49216 5.51725 7.01175 3.5 9.99992 3.5V1.5C6.08902 1.5 2.79739 4.14038 1.80557 7.73395L3.73349 8.26605ZM4.34133 7H2.76953V9H4.34133V7ZM9.99992 3C6.95051 3 4.35896 4.94932 3.39849 7.66675L5.28417 8.33325C5.97104 6.38991 7.82445 5 9.99992 5V3ZM15.6856 5.91603C14.4166 4.15199 12.3428 3 9.99992 3V5C11.6721 5 13.1527 5.81987 14.0621 7.08397L15.6856 5.91603ZM12.75 7.5H14.8739V5.5H12.75V7.5ZM13 7.25C13 7.38807 12.8881 7.5 12.75 7.5V5.5C11.7835 5.5 11 6.2835 11 7.25H13ZM12.75 7C12.8881 7 13 7.11193 13 7.25H11C11 8.2165 11.7835 9 12.75 9V7ZM15.6585 7H12.75V9H15.6585V7ZM16 7H15.6585V9H16V7ZM17.2303 7H16V9H17.2303V7ZM17.5 7H17.2303V9H17.5V7ZM16.5 6.5V8H18.5V6.5H16.5ZM16.5 3.25V6.5H18.5V3.25H16.5ZM16.75 3.5C16.6119 3.5 16.5 3.38807 16.5 3.25H18.5C18.5 2.2835 17.7165 1.5 16.75 1.5V3.5ZM17 3.25C17 3.38807 16.8881 3.5 16.75 3.5V1.5C15.7835 1.5 15 2.2835 15 3.25H17ZM17 5.49938V3.25H15V5.49938H17Z" fill="#b6b6b6" mask="url(#path-1-inside-1_939_245)"/>
</svg>
