<svg width="20" height="20" viewBox="0 0 20 20" fill="none" xmlns="http://www.w3.org/2000/svg">
<path fill-rule="evenodd" clip-rule="evenodd" d="M4 3.5L4.43341 16.0689C4.47055 17.146 5.35448 18 6.43222 18H13.5678C14.6455 18 15.5294 17.146 15.5666 16.0689L16 3.5H4ZM5.55262 5L5.93252 16.0172C5.94181 16.2865 6.16279 16.5 6.43222 16.5H13.5678C13.8372 16.5 14.0582 16.2865 14.0675 16.0172L14.4474 5H5.55262Z" fill="#b6b6b6"/>
<path fill-rule="evenodd" clip-rule="evenodd" d="M11 2.5H9C8.72386 2.5 8.5 2.72386 8.5 3V3.5H11.5V3C11.5 2.72386 11.2761 2.5 11 2.5ZM9 1C7.89543 1 7 1.89543 7 3V5H13V3C13 1.89543 12.1046 1 11 1H9Z" fill="#b6b6b6"/>
<path d="M2.5 4.25C2.5 3.83579 2.83579 3.5 3.25 3.5H16.75C17.1642 3.5 17.5 3.83579 17.5 4.25C17.5 4.66421 17.1642 5 16.75 5H3.25C2.83579 5 2.5 4.66421 2.5 4.25Z" fill="#b6b6b6"/>
<path d="M7.5 6.5H9V15H7.5V6.5Z" fill="#b6b6b6"/>
<path d="M11 6.5H12.5V15H11V6.5Z" fill="#b6b6b6"/>
</svg>