<svg width="24" height="24" viewBox="0 0 24 24" fill="none" xmlns="http://www.w3.org/2000/svg">
<path d="M4 6H20V5C20 5 20 4 18.9961 4C11.6167 4 5.6193 4 4.98828 4C4 4 4 5 4 5V6Z" fill="#fff"/>
<path d="M9 3.49976C9 2.67146 9.67146 2 10.4998 2H13.5002C14.3285 2 15 2.67146 15 3.49976V4.50024C15 5.32854 14.3285 6 13.5002 6H10.4998C9.67146 6 9 5.32854 9 4.50024V3.49976Z" fill="#fff"/>
<path d="M9 8H11V18H9V8Z" fill="#fff"/>
<path d="M13 8H15V18H13V8Z" fill="#fff"/>
<path d="M5 6H7V19C7 19.5523 7.44772 20 8 20H16C16.5523 20 17 19.5523 17 19V6H19C19 8.4687 19 15.0927 19 19.0004C19 20.6572 17.6569 22 16 22H8C6.34315 22 5 20.6569 5 19V6Z" fill="#fff"/>
</svg>
