<svg width="20" height="20" viewBox="0 0 20 20" fill="none" xmlns="http://www.w3.org/2000/svg">
<path fill-rule="evenodd" clip-rule="evenodd" d="M15.6585 12C14.8348 14.3304 12.6124 16 9.99992 16C7.38748 16 5.165 14.3304 4.34133 12H2.76953C3.64478 15.1712 6.55038 17.5 9.99992 17.5C13.4494 17.5 16.3551 15.1712 17.2303 12H15.6585ZM4.34133 8C5.165 5.66962 7.38748 4 9.99992 4C12.6124 4 14.8348 5.66962 15.6585 8H17.2303C16.3551 4.82881 13.4494 2.5 9.99992 2.5C6.55038 2.5 3.64478 4.82881 2.76953 8H4.34133Z" fill="#b6b6b6"/>
<path d="M16 3.25C16 2.83579 16.3358 2.5 16.75 2.5C17.1642 2.5 17.5 2.83579 17.5 3.25V8H16V3.25Z" fill="#b6b6b6"/>
<path d="M12.75 8C12.3358 8 12 7.66421 12 7.25C12 6.83579 12.3358 6.5 12.75 6.5H17.5V8H12.75Z" fill="#b6b6b6"/>
<path d="M4 16.75C4 17.1642 3.66421 17.5 3.25 17.5C2.83579 17.5 2.5 17.1642 2.5 16.75L2.5 12H4L4 16.75Z" fill="#b6b6b6"/>
<path d="M7.25 12C7.66421 12 8 12.3358 8 12.75C8 13.1642 7.66421 13.5 7.25 13.5L2.5 13.5V12L7.25 12Z" fill="#b6b6b6"/>
</svg>