<svg width="24" height="24" viewBox="0 0 24 24" fill="none" xmlns="http://www.w3.org/2000/svg">
<path d="M19 4C19 3.44772 19.4477 3 20 3C20.5523 3 21 3.44772 21 4V10H19V4Z" fill="#ACA996"/>
<path d="M15 10C14.4477 10 14 9.55228 14 9C14 8.44772 14.4477 8 15 8H21V10H15Z" fill="#ACA996"/>
<path d="M5 20C5 20.5523 4.55228 21 4 21C3.44772 21 3 20.5523 3 20V14H5V20Z" fill="#ACA996"/>
<path d="M9 14C9.55228 14 10 14.4477 10 15C10 15.5523 9.55228 16 9 16H3V14H9Z" fill="#ACA996"/>
<path d="M18.7102 14C17.8497 16.8915 15.1711 19 12.0001 19C8.8291 19 6.15054 16.8915 5.28999 14H3.22313C4.13259 18.008 7.71694 21 12.0001 21C16.2833 21 19.8676 18.008 20.7771 14H18.7102Z" fill="#ACA996"/>
<path d="M5.28999 10C6.15054 7.10851 8.8291 5 12.0001 5C15.1711 5 17.8497 7.10851 18.7102 10H20.7771C19.8676 5.99202 16.2833 3 12.0001 3C7.71694 3 4.13259 5.99202 3.22313 10H5.28999Z" fill="#ACA996"/>
</svg>