<svg xmlns="http://www.w3.org/2000/svg" width="20" height="20" viewBox="0 0 20 20" fill="none">
    <path fill-rule="evenodd" clip-rule="evenodd" d="M4.74932 10C4.74932 6.54822 7.54754 3.75 10.9993 3.75C14.4511 3.75 17.2493 6.54822 17.2493 10C17.2493 13.4518 14.4511 16.25 10.9993 16.25C9.42305 16.25 7.98307 15.6665 6.88361 14.7037L5.89584 15.8325C7.25917 17.0264 9.04475 17.75 10.9993 17.75C15.2795 17.75 18.7493 14.2802 18.7493 10C18.7493 5.71979 15.2795 2.25 10.9993 2.25C6.71911 2.25 3.24932 5.71979 3.24932 10V10.6913L1.07677 8.51679L0.015625 9.57696L3.46563 13.0301L3.9962 13.5611L4.52677 13.0301L7.97677 9.57696L6.91563 8.51679L4.74932 10.6851V10Z" fill="#B6B6B6"/>
</svg>
