<svg width="20" height="20" viewBox="0 0 20 20" fill="none" xmlns="http://www.w3.org/2000/svg">
<path fill-rule="evenodd" clip-rule="evenodd" d="M4.75 10C4.75 6.54822 7.54822 3.75 11 3.75C14.4518 3.75 17.25 6.54822 17.25 10C17.25 13.4518 14.4518 16.25 11 16.25C9.42373 16.25 7.98375 15.6665 6.88429 14.7037L5.89652 15.8325C7.25985 17.0264 9.04543 17.75 11 17.75C15.2802 17.75 18.75 14.2802 18.75 10C18.75 5.71979 15.2802 2.25 11 2.25C6.71979 2.25 3.25 5.71979 3.25 10H4.75Z" fill="#b6b6b6"/>
<path d="M3.25 10H4.75V12.5H3.25V10Z" fill="#b6b6b6"/>
<path fill-rule="evenodd" clip-rule="evenodd" d="M0.015625 9.57703L1.07677 8.51685L3.9962 11.4389L6.91563 8.51685L7.97677 9.57703L3.9962 13.5612L0.015625 9.57703Z" fill="#b6b6b6"/>
</svg>
