<svg width="20" height="20" viewBox="0 0 20 20" fill="none" xmlns="http://www.w3.org/2000/svg">
<path d="M2.5 13C2.77614 13 3 13.2239 3 13.5V15C3 16.1046 3.89543 17 5 17H6.5C6.77614 17 7 17.2239 7 17.5C7 17.7761 6.77614 18 6.5 18H5L4.8457 17.9961C3.26055 17.9158 2 16.6051 2 15V13.5C2 13.2239 2.22386 13 2.5 13ZM18 15C18 16.6569 16.6569 18 15 18H13.5C13.2239 18 13 17.7761 13 17.5C13 17.2239 13.2239 17 13.5 17H15C16.1046 17 17 16.1046 17 15V13.5C17 13.2239 17.2239 13 17.5 13C17.7761 13 18 13.2239 18 13.5V15ZM15 2C16.6569 2 18 3.34315 18 5V6.5C18 6.77614 17.7761 7 17.5 7C17.2239 7 17 6.77614 17 6.5V5C17 3.89543 16.1046 3 15 3H13.5C13.2239 3 13 2.77614 13 2.5C13 2.22386 13.2239 2 13.5 2H15ZM7 2.5C7 2.77614 6.77614 3 6.5 3H5C3.89543 3 3 3.89543 3 5V6.5C3 6.77614 2.77614 7 2.5 7C2.22386 7 2 6.77614 2 6.5V5C2 3.34315 3.34315 2 5 2H6.5C6.77614 2 7 2.22386 7 2.5Z" fill="#b6b6b6"/>
<path d="M11.5 9C11.5 7.61929 10.3807 6.5 9 6.5C7.61929 6.5 6.5 7.61929 6.5 9C6.5 10.3807 7.61929 11.5 9 11.5V12.5C7.067 12.5 5.5 10.933 5.5 9C5.5 7.067 7.067 5.5 9 5.5C10.933 5.5 12.5 7.067 12.5 9C12.5 10.933 10.933 12.5 9 12.5V11.5C10.3807 11.5 11.5 10.3807 11.5 9Z" fill="#b6b6b6"/>
<path d="M10.9278 10.9277C11.123 10.7324 11.4395 10.7324 11.6348 10.9277L14.3535 13.6464C14.5488 13.8417 14.5488 14.1582 14.3535 14.3535C14.1583 14.5487 13.8418 14.5487 13.6465 14.3535L10.9278 11.6347C10.7325 11.4395 10.7325 11.123 10.9278 10.9277Z" fill="#b6b6b6"/>
</svg>