<svg width="20" height="20" viewBox="0 0 20 20" fill="none" xmlns="http://www.w3.org/2000/svg">
<path fill-rule="evenodd" clip-rule="evenodd" d="M6.5 5.5H13.5V14.5H12V16H13.5C14.3284 16 15 15.3284 15 14.5V5.5C15 4.67157 14.3284 4 13.5 4H6.5C5.67157 4 5 4.67157 5 5.5V7H6.5L6.5 5.5Z" fill="#b6b6b6"/>
<path fill-rule="evenodd" clip-rule="evenodd" d="M9.5 2.5H16.5V11.5H15V13H16.5C17.3284 13 18 12.3284 18 11.5V2.5C18 1.67157 17.3284 1 16.5 1H9.5C8.67157 1 8 1.67157 8 2.5V4H9.5L9.5 2.5Z" fill="#b6b6b6"/>
<path fill-rule="evenodd" clip-rule="evenodd" d="M10.5 8.5H3.5L3.5 17.5H10.5V8.5ZM3.5 7C2.67157 7 2 7.67157 2 8.5V17.5C2 18.3284 2.67157 19 3.5 19H10.5C11.3284 19 12 18.3284 12 17.5V8.5C12 7.67157 11.3284 7 10.5 7H3.5Z" fill="#b6b6b6"/>
</svg>
