<svg width="20" height="20" viewBox="0 0 20 20" fill="none" xmlns="http://www.w3.org/2000/svg">
<path fill-rule="evenodd" clip-rule="evenodd" d="M10 15.4995C13.0376 15.4995 15.5 13.0371 15.5 9.99951C15.5 6.96195 13.0376 4.49951 10 4.49951C6.96243 4.49951 4.5 6.96195 4.5 9.99951C4.5 13.0371 6.96243 15.4995 10 15.4995ZM10 16.9995C13.866 16.9995 17 13.8655 17 9.99951C17 6.13352 13.866 2.99951 10 2.99951C6.13401 2.99951 3 6.13352 3 9.99951C3 13.8655 6.13401 16.9995 10 16.9995Z" fill="#b6b6b6"/>
<path d="M9.25 1.74951C9.25 1.3353 9.58579 0.999512 10 0.999512C10.4142 0.999512 10.75 1.3353 10.75 1.74951V10.1095C10.75 10.5237 10.4142 10.8595 10 10.8595C9.58579 10.8595 9.25 10.5237 9.25 10.1095V1.74951Z" fill="#b6b6b6"/>
<path d="M9.25 16.7495C9.25 16.3353 9.58579 15.9995 10 15.9995C10.4142 15.9995 10.75 16.3353 10.75 16.7495V18.2495C10.75 18.6637 10.4142 18.9995 10 18.9995C9.58579 18.9995 9.25 18.6637 9.25 18.2495V16.7495Z" fill="#b6b6b6"/>
<path d="M5.22559 3.22996C5.01848 2.87124 5.14139 2.41255 5.5001 2.20544C5.85882 1.99834 6.31752 2.12124 6.52462 2.47996L7.27462 3.779C7.48173 4.13772 7.35882 4.59641 7.0001 4.80352C6.64139 5.01063 6.18269 4.88772 5.97559 4.529L5.22559 3.22996Z" fill="#b6b6b6"/>
<path d="M12.7256 16.2203C12.5185 15.8616 12.6414 15.4029 13.0001 15.1958C13.3588 14.9887 13.8175 15.1116 14.0246 15.4703L14.7746 16.7694C14.9817 17.1281 14.8588 17.5868 14.5001 17.7939C14.1414 18.001 13.6827 17.8781 13.4756 17.5194L12.7256 16.2203Z" fill="#b6b6b6"/>
<path d="M2.48057 6.52429C2.12185 6.31719 1.99895 5.85849 2.20605 5.49977C2.41316 5.14105 2.87185 5.01815 3.23057 5.22525L4.52961 5.97525C4.88833 6.18236 5.01124 6.64105 4.80413 6.99977C4.59702 7.35849 4.13833 7.4814 3.77961 7.27429L2.48057 6.52429Z" fill="#b6b6b6"/>
<path d="M9.53135 10.595C9.17264 10.3879 9.04973 9.92917 9.25684 9.57045C9.46394 9.21173 9.92264 9.08883 10.2814 9.29593L17.5198 13.475C17.8785 13.6821 18.0014 14.1408 17.7943 14.4995C17.5872 14.8583 17.1285 14.9812 16.7698 14.7741L9.53135 10.595Z" fill="#b6b6b6"/>
<path d="M1.75 10.7495C1.33579 10.7495 1 10.4137 1 9.99951C1 9.5853 1.33579 9.24951 1.75 9.24951H3.25C3.66421 9.24951 4 9.5853 4 9.99951C4 10.4137 3.66421 10.7495 3.25 10.7495H1.75Z" fill="#b6b6b6"/>
<path d="M16.75 10.7495C16.3358 10.7495 16 10.4137 16 9.99951C16 9.5853 16.3358 9.24951 16.75 9.24951H18.25C18.6642 9.24951 19 9.5853 19 9.99951C19 10.4137 18.6642 10.7495 18.25 10.7495H16.75Z" fill="#b6b6b6"/>
<path d="M3.23057 14.7743C2.87186 14.9814 2.41316 14.8585 2.20605 14.4998C1.99895 14.1411 2.12185 13.6824 2.48057 13.4753L9.72054 9.29525C10.0793 9.08815 10.538 9.21105 10.7451 9.56977C10.9522 9.92849 10.8293 10.3872 10.4705 10.5943L3.23057 14.7743Z" fill="#b6b6b6"/>
<path d="M16.2208 7.27429C15.8621 7.4814 15.4034 7.35849 15.1963 6.99977C14.9892 6.64105 15.1121 6.18236 15.4708 5.97525L16.7698 5.22525C17.1286 5.01815 17.5873 5.14105 17.7944 5.49977C18.0015 5.85849 17.8786 6.31719 17.5198 6.52429L16.2208 7.27429Z" fill="#b6b6b6"/>
<path d="M6.52441 17.5195C6.31731 17.8783 5.85861 18.0012 5.4999 17.7941C5.14118 17.587 5.01827 17.1283 5.22538 16.7695L5.97538 15.4705C6.18248 15.1118 6.64118 14.9889 6.9999 15.196C7.35861 15.4031 7.48152 15.8618 7.27441 16.2205L6.52441 17.5195Z" fill="#b6b6b6"/>
<path d="M14.0244 4.52919C13.8173 4.88791 13.3586 5.01082 12.9999 4.80371C12.6412 4.5966 12.5183 4.13791 12.7254 3.77919L13.4754 2.48015C13.6825 2.12143 14.1412 1.99853 14.4999 2.20563C14.8586 2.41274 14.9815 2.87143 14.7744 3.23015L14.0244 4.52919Z" fill="#b6b6b6"/>
</svg>
