<svg width="20" height="20" viewBox="0 0 20 20" fill="none" xmlns="http://www.w3.org/2000/svg">
<path d="M15.8327 13.0833C15.8327 13.3928 15.7098 13.6895 15.491 13.9083C15.2722 14.1271 14.9754 14.25 14.666 14.25H5.33268C5.02326 14.25 4.72652 14.1271 4.50772 13.9083C4.28893 13.6895 4.16602 13.3928 4.16602 13.0833V4.91667C4.16602 4.60725 4.28893 4.3105 4.50772 4.09171C4.72652 3.87292 5.02326 3.75 5.33268 3.75H7.71416C8.04852 3.75 8.36075 3.9171 8.54622 4.1953L9.11915 5.0547C9.30461 5.3329 9.61685 5.5 9.9512 5.5H14.666C14.9754 5.5 15.2722 5.62292 15.491 5.84171C15.7098 6.0605 15.8327 6.35725 15.8327 6.66667V13.0833Z" stroke="#b6b6b6" stroke-width="1.5" stroke-linecap="round" stroke-linejoin="round"/>
<path d="M12.3329 9.25854C12.2019 9.34607 12.0479 9.39274 11.8905 9.39274C11.6793 9.39274 11.4767 9.30881 11.3273 9.15951C11.178 9.01015 11.0941 8.8076 11.0941 8.59639C11.0941 8.43893 11.1408 8.28492 11.2283 8.15397C11.3158 8.02303 11.4402 7.92094 11.5857 7.86067C11.7312 7.8004 11.8914 7.78462 12.0458 7.81535C12.2003 7.84608 12.3422 7.92192 12.4536 8.03327C12.5649 8.14469 12.6408 8.28658 12.6715 8.441C12.7022 8.59549 12.6865 8.75566 12.6262 8.90115C12.5659 9.04664 12.4638 9.17101 12.3329 9.25854Z" fill="#b6b6b6"/>
<path d="M7.70868 7.93426C7.83964 7.84676 7.9936 7.80005 8.1511 7.80005C8.36231 7.80005 8.56486 7.88395 8.71422 8.03327C8.86352 8.18264 8.94745 8.38519 8.94745 8.59639C8.94745 8.75386 8.90077 8.90787 8.81325 9.03881C8.72572 9.16976 8.60136 9.27183 8.45585 9.33215C8.31034 9.39239 8.15022 9.40818 7.99575 9.37743C7.84127 9.34669 7.69938 9.27086 7.58801 9.15951C7.47663 9.04809 7.40079 8.90621 7.37006 8.75178C7.33933 8.59729 7.35511 8.43712 7.41538 8.29164C7.47565 8.14615 7.57772 8.02178 7.70868 7.93426Z" fill="#b6b6b6"/>
<path d="M6.80078 12.0934V10.6717C7.15891 10.3136 7.64464 10.1124 8.1511 10.1124C8.65758 10.1124 9.14328 10.3136 9.50143 10.6717V12.0934H6.80078Z" fill="#b6b6b6"/>
<path d="M11.8905 10.1124C12.3969 10.1124 12.8826 10.3136 13.2408 10.6717V12.0934H10.5401V10.6717C10.8983 10.3136 11.384 10.1124 11.8905 10.1124Z" fill="#b6b6b6"/>
<path d="M3 17.75C3 17.3358 3.33579 17 3.75 17H5.25C5.66421 17 6 17.3358 6 17.75C6 18.1642 5.66421 18.5 5.25 18.5H3.75C3.33579 18.5 3 18.1642 3 17.75Z" fill="#b6b6b6"/>
<path d="M7 18C7 17.4477 7.33579 17 7.75 17H12.25C12.6642 17 13 17.4477 13 18C13 18.5523 12.6642 19 12.25 19H7.75C7.33579 19 7 18.5523 7 18Z" fill="#b6b6b6"/>
<path d="M14 17.75C14 17.3358 14.3358 17 14.75 17H16.25C16.6642 17 17 17.3358 17 17.75C17 18.1642 16.6642 18.5 16.25 18.5H14.75C14.3358 18.5 14 18.1642 14 17.75Z" fill="#b6b6b6"/>
</svg>
