<svg width="20" height="20" viewBox="0 0 20 20" fill="none" xmlns="http://www.w3.org/2000/svg">
<path fill-rule="evenodd" clip-rule="evenodd" d="M3 10C3 9.58579 3.33579 9.25 3.75 9.25L14.25 9.25C14.6642 9.25 15 9.58579 15 10C15 10.4142 14.6642 10.75 14.25 10.75L3.75 10.75C3.33579 10.75 3 10.4142 3 10Z" fill="#9B9B9B"/>
<path fill-rule="evenodd" clip-rule="evenodd" d="M16.75 17C16.3358 17 16 16.6642 16 16.25L16 3.75C16 3.33579 16.3358 3 16.75 3C17.1642 3 17.5 3.33579 17.5 3.75L17.5 16.25C17.5 16.6642 17.1642 17 16.75 17Z" fill="#9B9B9B"/>
<path fill-rule="evenodd" clip-rule="evenodd" d="M7.77317 5.23123C7.47074 4.92292 6.98039 4.92292 6.67795 5.23123L2 10L6.67795 14.7688C6.98039 15.0771 7.47074 15.0771 7.77317 14.7688C8.07561 14.4605 8.07561 13.9606 7.77317 13.6523L4.19044 10L7.77317 6.34772C8.07561 6.03941 8.07561 5.53954 7.77317 5.23123Z" fill="#9B9B9B"/>
</svg>
