<svg width="20" height="20" viewBox="0 0 20 20" fill="none" xmlns="http://www.w3.org/2000/svg">
<path fill-rule="evenodd" clip-rule="evenodd" d="M10.497 7.53033C10.7899 7.82322 11.2648 7.82322 11.5577 7.53033L14.0273 5.06066L16.497 7.53033C16.7899 7.82322 17.2648 7.82322 17.5577 7.53033C17.8506 7.23744 17.8506 6.76256 17.5577 6.46967L14.0273 2.93934L10.497 6.46967C10.2041 6.76256 10.2041 7.23744 10.497 7.53033Z" fill="#b6b6b6"/>
<path d="M13.2773 15.1367C13.2773 15.5509 13.6131 15.8867 14.0273 15.8867C14.4416 15.8867 14.7773 15.5509 14.7773 15.1367V5.63672C14.7773 5.22251 14.4416 4.88672 14.0273 4.88672C13.6131 4.88672 13.2773 5.22251 13.2773 5.63672V15.1367Z" fill="#b6b6b6"/>
<path fill-rule="evenodd" clip-rule="evenodd" d="M2.49701 12.3564C2.78991 12.0635 3.26478 12.0635 3.55767 12.3564L6.02734 14.8261L8.49701 12.3564C8.78991 12.0635 9.26478 12.0635 9.55767 12.3564C9.85057 12.6493 9.85057 13.1242 9.55767 13.417L6.02734 16.9474L2.49701 13.417C2.20412 13.1242 2.20412 12.6493 2.49701 12.3564Z" fill="#b6b6b6"/>
<path d="M5.27734 4.75C5.27734 4.33579 5.61313 4 6.02734 4C6.44156 4 6.77734 4.33579 6.77734 4.75V14.25C6.77734 14.6642 6.44156 15 6.02734 15C5.61313 15 5.27734 14.6642 5.27734 14.25V4.75Z" fill="#b6b6b6"/>
</svg>
