<svg width="20" height="20" viewBox="0 0 20 20" fill="none" xmlns="http://www.w3.org/2000/svg">
<path fill-rule="evenodd" clip-rule="evenodd" d="M3 6C3 4.34315 4.34315 3 6 3C7.65685 3 9 4.34315 9 6C9 7.65685 7.65685 9 6 9C4.34315 9 3 7.65685 3 6ZM3 13C3 11.8954 3.89543 11 5 11H7C8.10457 11 9 11.8954 9 13V15C9 16.1046 8.10457 17 7 17H5C3.89543 17 3 16.1046 3 15V13ZM16.5 3.5H11.5V8.5H16.5V3.5ZM13.5 11.5C13.5 11.2239 13.7239 11 14 11C14.2761 11 14.5 11.2239 14.5 11.5V13.5H16.5C16.7761 13.5 17 13.7239 17 14C17 14.2761 16.7761 14.5 16.5 14.5H14.5V16.5C14.5 16.7761 14.2761 17 14 17C13.7239 17 13.5 16.7761 13.5 16.5V14.5H11.5C11.2239 14.5 11 14.2761 11 14C11 13.7239 11.2239 13.5 11.5 13.5H13.5V11.5Z" fill="#b6b6b6"/>
</svg>
