<svg width="20" height="21" viewBox="0 0 20 21" fill="none" xmlns="http://www.w3.org/2000/svg">
<path fill-rule="evenodd" clip-rule="evenodd" d="M15 4.25H5C4.17157 4.25 3.5 4.92157 3.5 5.75V15.75C3.5 16.5784 4.17157 17.25 5 17.25H15C15.8284 17.25 16.5 16.5784 16.5 15.75V5.75C16.5 4.92157 15.8284 4.25 15 4.25ZM5 2.75C3.34315 2.75 2 4.09315 2 5.75V15.75C2 17.4069 3.34315 18.75 5 18.75H15C16.6569 18.75 18 17.4069 18 15.75V5.75C18 4.09315 16.6569 2.75 15 2.75H5Z" fill="#b6b6b6"/>
<path d="M9.25 7.5C9.25 7.08579 9.58579 6.75 10 6.75C10.4142 6.75 10.75 7.08579 10.75 7.5V14C10.75 14.4142 10.4142 14.75 10 14.75C9.58579 14.75 9.25 14.4142 9.25 14V7.5Z" fill="#b6b6b6"/>
<path d="M6.75 11.5C6.33579 11.5 6 11.1642 6 10.75C6 10.3358 6.33579 10 6.75 10H13.25C13.6642 10 14 10.3358 14 10.75C14 11.1642 13.6642 11.5 13.25 11.5H6.75Z" fill="#b6b6b6"/>
</svg>

