<svg width="20" height="20" viewBox="0 0 20 20" fill="none" xmlns="http://www.w3.org/2000/svg">
<path fill-rule="evenodd" clip-rule="evenodd" d="M10 16.5C13.5899 16.5 16.5 13.5899 16.5 10C16.5 6.41015 13.5899 3.5 10 3.5C6.41015 3.5 3.5 6.41015 3.5 10C3.5 13.5899 6.41015 16.5 10 16.5ZM10 18C14.4183 18 18 14.4183 18 10C18 5.58172 14.4183 2 10 2C5.58172 2 2 5.58172 2 10C2 14.4183 5.58172 18 10 18Z" fill="#B6B6B6"/>
<path d="M9.75 11C9.33579 11 9 10.6642 9 10.25C9 9.83579 9.33579 9.5 9.75 9.5H12.75C13.1642 9.5 13.5 9.83579 13.5 10.25C13.5 10.6642 13.1642 11 12.75 11H9.75Z" fill="#B6B6B6"/>
<path d="M9 5.75C9 5.33579 9.33579 5 9.75 5C10.1642 5 10.5 5.33579 10.5 5.75V10.25C10.5 10.6642 10.1642 11 9.75 11C9.33579 11 9 10.6642 9 10.25V5.75Z" fill="#B6B6B6"/>
</svg>
