<svg width="20" height="20" viewBox="0 0 20 20" fill="none" xmlns="http://www.w3.org/2000/svg">
<path fill-rule="evenodd" clip-rule="evenodd" d="M12.9697 10.4697C12.6768 10.7626 12.6768 11.2374 12.9697 11.5303L15.4393 14L12.9697 16.4697C12.6768 16.7626 12.6768 17.2374 12.9697 17.5303C13.2626 17.8232 13.7374 17.8232 14.0303 17.5303L17.5607 14L14.0303 10.4697C13.7374 10.1768 13.2626 10.1768 12.9697 10.4697Z" fill="#b6b6b6"/>
<path d="M15.5 13.25H3.53125V14.75H15.5V13.25Z" fill="#b6b6b6"/>
<path fill-rule="evenodd" clip-rule="evenodd" d="M7.03033 2.46967C7.32322 2.76256 7.32322 3.23744 7.03033 3.53033L4.56066 6L7.03033 8.46967C7.32322 8.76256 7.32322 9.23744 7.03033 9.53033C6.73744 9.82322 6.26256 9.82322 5.96967 9.53033L2.43934 6L5.96967 2.46967C6.26256 2.17678 6.73744 2.17678 7.03033 2.46967Z" fill="#b6b6b6"/>
<path d="M4.53125 5.25H16.5V6.75H4.53125V5.25Z" fill="#b6b6b6"/>
</svg>
