<svg width="24" height="25" viewBox="0 0 24 25" fill="none" xmlns="http://www.w3.org/2000/svg">
<path fill-rule="evenodd" clip-rule="evenodd" d="M7.7213 5.23039C7.33077 4.83987 6.69761 4.83987 6.30709 5.2304L1.59998 9.93756L6.30709 14.6446C6.69762 15.0351 7.33079 15.0351 7.72131 14.6446C8.11183 14.2541 8.11182 13.6209 7.7213 13.2304L4.4284 9.93754L7.72131 6.6446C8.11183 6.25408 8.11183 5.62091 7.7213 5.23039Z" fill="#ACA996"/>
<path fill-rule="evenodd" clip-rule="evenodd" d="M15 10.9375V8.9375H3.5V10.9375H15Z" fill="#ACA996"/>
<path fill-rule="evenodd" clip-rule="evenodd" d="M15 10.9375C17.2091 10.9375 19 12.7284 19 14.9375C19 17.1466 17.2091 18.9375 15 18.9375V20.9375C18.3137 20.9375 21 18.2512 21 14.9375C21 11.6238 18.3137 8.9375 15 8.9375V10.9375Z" fill="#ACA996"/>
<path d="M12 18.9375H15V20.9375H12V18.9375Z" fill="#ACA996"/>
</svg>