<svg width="20" height="20" viewBox="0 0 20 20" fill="none" xmlns="http://www.w3.org/2000/svg">
<path fill-rule="evenodd" clip-rule="evenodd" d="M7.78044 2.46967C8.07334 2.76256 8.07334 3.23744 7.78044 3.53033L4.31077 7L7.78044 10.4697C8.07334 10.7626 8.07334 11.2374 7.78044 11.5303C7.48755 11.8232 7.01268 11.8232 6.71978 11.5303L2.18945 7L6.71978 2.46967C7.01268 2.17678 7.48755 2.17678 7.78044 2.46967Z" fill="#b6b6b6"/>
<path fill-rule="evenodd" clip-rule="evenodd" d="M3 6.25H12C15.1756 6.25 17.75 8.82436 17.75 12C17.75 15.1756 15.1756 17.75 12 17.75H10V16.25H12C14.3472 16.25 16.25 14.3472 16.25 12C16.25 9.65279 14.3472 7.75 12 7.75H3V6.25Z" fill="#b6b6b6"/>
</svg>