<svg width="20" height="20" viewBox="0 0 20 20" fill="none" xmlns="http://www.w3.org/2000/svg">
<path d="M17.0303 4.03033C17.3232 3.73743 17.3232 3.26256 17.0303 2.96966C16.7374 2.67677 16.2626 2.67678 15.9697 2.96967L17.0303 4.03033ZM2.96991 15.9697C2.67702 16.2626 2.67702 16.7374 2.96992 17.0303C3.26281 17.3232 3.73769 17.3232 4.03058 17.0303L2.96991 15.9697ZM15.9697 2.96967L2.96991 15.9697L4.03058 17.0303L17.0303 4.03033L15.9697 2.96967Z" fill="#b6b6b6"/>
<path fill-rule="evenodd" clip-rule="evenodd" d="M9.18763 4.95323L9.27524 4.74261L9.60704 3.94485L9.72292 3.66624C9.8254 3.41985 10.1744 3.41985 10.2769 3.66624L10.3928 3.94485L10.7246 4.74261L10.8122 4.95323L11.8472 7.44165C11.8904 7.54552 11.9881 7.61649 12.1002 7.62548L13.2808 7.72013L14.6739 6.327L12.9507 6.18885L11.6619 3.09019C11.047 1.61187 8.95282 1.61186 8.33794 3.09019L7.04914 6.18885L3.70387 6.45704C2.1079 6.58499 1.46074 8.5767 2.67671 9.61831L5.22545 11.8016L4.44677 15.066C4.33115 15.5507 4.41563 16.0038 4.62806 16.3729L6.00575 14.9952L6.17632 14.2801L6.22925 14.0582L6.85458 11.4367C6.88068 11.3272 6.84337 11.2124 6.75794 11.1392L4.71113 9.38591L4.53789 9.23752L3.88172 8.67543L3.65255 8.47912C3.44989 8.30552 3.55774 7.97357 3.82374 7.95224L4.12453 7.92813L4.98577 7.85909L5.21315 7.84086L7.89962 7.62548C8.01175 7.61649 8.10944 7.54552 8.15264 7.44165L9.18763 4.95323ZM8.68503 14.3159L5.76619 17.2347C6.20143 17.3453 6.68641 17.2943 7.13591 17.0198L9.99992 15.2704L12.8639 17.0198C14.2303 17.8543 15.9246 16.6234 15.5531 15.066L14.7744 11.8016L17.3231 9.61831C18.4821 8.6255 17.9485 6.7695 16.5139 6.487L15.1323 7.86857L15.8753 7.92813L16.1761 7.95224C16.4421 7.97357 16.55 8.30552 16.3473 8.47912L16.1181 8.67543L15.4619 9.23752L15.2887 9.38591L13.2419 11.1392C13.1565 11.2124 13.1192 11.3272 13.1453 11.4367L13.7706 14.0582L13.8235 14.2801L14.024 15.1205L14.094 15.414C14.1559 15.6736 13.8735 15.8788 13.6458 15.7397L13.3883 15.5824L12.651 15.132L12.4563 15.0131L10.1563 13.6083C10.0603 13.5496 9.93955 13.5496 9.84354 13.6083L8.68503 14.3159Z" fill="#b6b6b6"/>
</svg>