<svg width="20" height="20" viewBox="0 0 20 20" fill="none" xmlns="http://www.w3.org/2000/svg">
<path fill-rule="evenodd" clip-rule="evenodd" d="M14.5766 9.08457L12.8915 10.7697L13.8897 11.768L15.5749 10.0828C17.1822 8.47549 17.2189 5.90615 15.6568 4.34405C14.0947 2.78195 11.5254 2.81864 9.91801 4.42599L8.23289 6.11111L9.23115 7.10938L10.9163 5.42426C11.9563 4.38421 13.6188 4.36047 14.6296 5.37124C15.6404 6.38201 15.6166 8.04452 14.5766 9.08457ZM5.51453 10.826L7.10912 9.23141L6.11085 8.23314L4.51626 9.82774C2.85852 11.4855 2.78099 14.0957 4.34309 15.6578C5.90518 17.2199 8.51537 17.1423 10.1731 15.4846L11.7677 13.89L10.7694 12.8917L9.17484 14.4863C8.10219 15.559 6.41324 15.6091 5.40247 14.5984C4.39171 13.5876 4.44187 11.8987 5.51453 10.826Z" fill="#b6b6b6"/>
<rect x="6.10938" y="2" width="1.5" height="3" fill="#b6b6b6"/>
<rect x="2" y="7.76172" width="1.5" height="3" transform="rotate(-90 2 7.76172)" fill="#b6b6b6"/>
<rect x="12.2402" y="15" width="1.5" height="3" fill="#b6b6b6"/>
<rect x="15" y="13.8906" width="1.5" height="3" transform="rotate(-90 15 13.8906)" fill="#b6b6b6"/>
</svg>
