<svg width="20" height="20" viewBox="0 0 20 20" fill="none" xmlns="http://www.w3.org/2000/svg">
<path d="M6.39941 16.0625C6.37542 16.0626 6.35197 16.0693 6.33105 16.0811C6.30999 16.093 6.29179 16.1101 6.2793 16.1309C6.26692 16.1515 6.26044 16.1751 6.25977 16.1992C6.2591 16.2233 6.26419 16.2472 6.27539 16.2686C6.51582 16.7159 6.87309 17.0898 7.30859 17.3506C7.74418 17.6113 8.24246 17.7496 8.75 17.75C9.25735 17.7495 9.755 17.6112 10.1904 17.3506C10.626 17.0898 10.9832 16.7159 11.2236 16.2686C11.2349 16.2472 11.2409 16.2234 11.2402 16.1992C11.2395 16.1749 11.2323 16.1507 11.2197 16.1299C11.2072 16.1093 11.189 16.0919 11.168 16.0801C11.147 16.0684 11.1227 16.0624 11.0986 16.0625H6.39941ZM8.75 2C7.80801 2.00007 6.97227 2.6851 6.66699 3.70801C6.65897 3.71737 6.64942 3.72541 6.63867 3.73145C5.99973 3.99456 5.47732 4.32842 5.05469 4.74316L3.53027 3.21973C3.23738 2.92686 2.76261 2.92684 2.46973 3.21973C2.17687 3.51261 2.17687 3.98739 2.46973 4.28027L15.4697 17.2803C15.7626 17.5732 16.2374 17.5731 16.5303 17.2803C16.8232 16.9874 16.8232 16.5126 16.5303 16.2197L14.9834 14.6719C15.1495 14.5488 15.2871 14.3888 15.3789 14.1953C15.4806 13.9824 15.5191 13.745 15.4902 13.5107C15.4613 13.2764 15.3664 13.0548 15.2158 12.873C15.1576 12.8015 15.1001 12.7328 15.0439 12.665C14.2705 11.7307 13.8038 11.1656 13.8037 8.5166C13.8037 6.11191 12.8408 4.54645 10.8604 3.73047C10.8497 3.7245 10.8401 3.71615 10.832 3.70703C10.5267 2.68521 9.69197 2.00008 8.75 2ZM3.75391 7.56348C3.71547 7.8666 3.69629 8.18499 3.69629 8.51758C3.69625 11.1656 3.22783 11.7305 2.45508 12.666C2.39908 12.7336 2.34227 12.804 2.28418 12.874C2.13358 13.0561 2.03749 13.2781 2.00879 13.5127C1.98016 13.7472 2.01983 13.9853 2.12207 14.1982C2.33952 14.653 2.79857 14.9365 3.32324 14.9365H11.126L3.75391 7.56348Z" fill="#9B9B9B"/>
</svg>