<svg width="20" height="20" viewBox="0 0 20 20" fill="none" xmlns="http://www.w3.org/2000/svg">
<g clip-path="url(#clip0_10562_4322)">
<path d="M12.2188 15.3965C12.0869 15.6257 11.9302 15.8334 11.7461 16.0175C11.5236 16.24 11.2733 16.3498 10.9951 16.3466C10.7235 16.3434 10.4691 16.2238 10.2334 15.9883L7.7334 13.4883L4.14258 16.9541C3.54931 17.5472 2.75643 17.904 2.30957 17.9804C2.16274 18.0098 2.07022 18.0062 2.0332 17.9697C1.99278 17.9293 1.98732 17.8352 2.0166 17.6884C2.15285 17.0072 2.56055 16.3487 3.04883 15.8603L6.63965 12.3945L4.01074 9.76559C3.77843 9.53325 3.65899 9.27874 3.65234 9.00388C3.65248 8.72907 3.76388 8.48028 3.98633 8.25778C4.17029 8.07382 4.37617 7.91486 4.60449 7.7822L12.2188 15.3965ZM11.8252 2.00095C12.0475 2.00759 12.2504 2.10214 12.4336 2.28513L17.7188 7.57028C17.8986 7.75029 17.9925 7.95225 17.999 8.17477C18.0086 8.39381 17.9311 8.58548 17.7676 8.74899C17.6006 8.91582 17.3649 9.01767 17.0605 9.05368C16.8675 9.08313 16.6268 9.08794 16.3389 9.06833C16.0573 9.04869 15.7409 9.00747 15.3906 8.94528C15.2557 8.91982 15.1174 8.89172 14.9766 8.86032C14.5547 8.7663 14.1103 8.89804 13.8271 9.22458L12.6504 10.582C12.3606 10.9163 12.3033 11.386 12.4404 11.8066C12.5718 12.2091 12.653 12.6097 12.6846 13.0068C12.7063 13.2626 12.708 13.51 12.6924 13.749L6.25293 7.30954C6.49272 7.29445 6.74085 7.2975 6.99707 7.31931C7.39376 7.3508 7.79264 7.43178 8.19336 7.56149C8.61336 7.69737 9.08249 7.63971 9.41602 7.35056L10.7695 6.17673C11.0988 5.89092 11.2281 5.44149 11.1348 5.01559C11.1045 4.87771 11.0774 4.74153 11.0537 4.60837C10.9948 4.2617 10.9536 3.9457 10.9307 3.6611C10.9143 3.3764 10.9201 3.13484 10.9463 2.93845C10.9856 2.63752 11.0881 2.40321 11.2549 2.2363C11.4186 2.07258 11.6091 1.9944 11.8252 2.00095Z" fill="#9B9B9B"/>
<path fill-rule="evenodd" clip-rule="evenodd" d="M3.21967 3.21967C2.92678 3.51256 2.92678 3.98744 3.21967 4.28033L16.2197 17.2803C16.5126 17.5732 16.9874 17.5732 17.2803 17.2803C17.5732 16.9874 17.5732 16.5126 17.2803 16.2197L4.28033 3.21967C3.98744 2.92678 3.51256 2.92678 3.21967 3.21967Z" fill="#9B9B9B"/>
</g>
<defs>
<clipPath id="clip0_10562_4322">
<rect width="20" height="20" fill="white"/>
</clipPath>
</defs>
</svg>