<svg width="20" height="20" viewBox="0 0 20 20" fill="none" xmlns="http://www.w3.org/2000/svg">
<path d="M3.22168 2.09863C3.51458 1.80584 3.98937 1.80577 4.28223 2.09863L4.35059 2.16504C4.37767 2.20569 4.40945 2.24441 4.44531 2.28027L15.2002 12.7217L17.9316 15.3789C18.2241 15.6718 18.2244 16.1467 17.9316 16.4395C17.6389 16.7322 17.164 16.7319 16.8711 16.4395L13.4434 13.1045L13.5439 14.0703L13.5537 14.2666C13.5496 14.7225 13.367 15.1632 13.041 15.4893L12.7061 15.8232C12.0656 16.4635 11.0515 16.5032 10.3643 15.9434L10.2314 15.8232L7.73438 13.3262L3.53027 17.5303C3.23746 17.823 2.76262 17.8229 2.46973 17.5303C2.17686 17.2374 2.17691 16.7626 2.46973 16.4697L6.67285 12.2646L4.17969 9.77148C3.49635 9.08814 3.4965 7.98031 4.17969 7.29688L4.51367 6.96191L4.66016 6.83105C5.01678 6.54665 5.47377 6.41135 5.93262 6.45898L6.69434 6.53809L3.22168 3.15918C2.9288 2.8663 2.92883 2.39153 3.22168 2.09863ZM5.77734 7.95117C5.72115 7.94534 5.66508 7.95873 5.61816 7.98828L5.5752 8.02246L5.24023 8.35742C5.14284 8.45507 5.14268 8.61338 5.24023 8.71094L11.292 14.7627L11.3311 14.7949C11.4279 14.8583 11.5603 14.8477 11.6455 14.7627L11.9805 14.4277C12.02 14.388 12.045 14.3359 12.0518 14.2812V14.2256L11.8369 12.1484C11.8168 11.9549 11.8308 11.7619 11.873 11.5771L8.3457 8.14453C8.25455 8.16109 8.16199 8.17393 8.06836 8.17578L7.85352 8.16602L5.77734 7.95117ZM10.9775 3.34277C11.6393 2.5627 12.8265 2.51397 13.5498 3.2373L16.7656 6.45312C17.4881 7.17658 17.44 8.36394 16.6602 9.02539L14.9971 10.4336L13.915 9.38379L15.6895 7.88086C15.8005 7.78658 15.8075 7.61707 15.7051 7.51367L12.4893 4.29785C12.3861 4.19466 12.2167 4.2015 12.1221 4.3125L10.5723 6.1377L9.49316 5.09082L10.9775 3.34277Z" fill="#9B9B9B"/>
</svg>