<svg width="21" height="20" viewBox="0 0 21 20" fill="none" xmlns="http://www.w3.org/2000/svg">
<path d="M1.125 16.75C1.125 16.3358 1.44311 16 1.83553 16H18.4145C18.8069 16 19.125 16.3358 19.125 16.75C19.125 17.1642 18.8069 17.5 18.4145 17.5H1.83553C1.44311 17.5 1.125 17.1642 1.125 16.75Z" fill="#9B9B9B"/>
<path d="M4.625 4.75H15.625C16.3154 4.75 16.875 5.30964 16.875 6V13C16.875 13.6904 16.3154 14.25 15.625 14.25H4.625C3.93464 14.25 3.375 13.6904 3.375 13V6C3.375 5.30964 3.93464 4.75 4.625 4.75Z" stroke="#9B9B9B" stroke-width="1.5"/>
</svg>
