<svg width="21" height="21" viewBox="0 0 21 21" fill="none" xmlns="http://www.w3.org/2000/svg">
<path d="M4.96875 18.2207C4.96875 17.8065 5.30454 17.4707 5.71875 17.4707H16.2188C16.633 17.4707 16.9688 17.8065 16.9688 18.2207C16.9688 18.6349 16.633 18.9707 16.2188 18.9707H5.71875C5.30454 18.9707 4.96875 18.6349 4.96875 18.2207Z" fill="#b6b6b6"/>
<path d="M10.9688 14.9707C10.5545 14.9707 10.2188 14.6349 10.2188 14.2207V4.7207C10.2188 4.30649 10.5545 3.9707 10.9688 3.9707C11.383 3.9707 11.7188 4.30649 11.7188 4.7207V14.2207C11.7188 14.6349 11.383 14.9707 10.9688 14.9707Z" fill="#b6b6b6"/>
<path fill-rule="evenodd" clip-rule="evenodd" d="M10.9688 2.91016L16.4991 8.44049C16.792 8.73338 16.792 9.20825 16.4991 9.50115C16.2062 9.79404 15.7313 9.79404 15.4384 9.50115L10.9688 5.03148L6.49908 9.50115C6.20619 9.79404 5.73131 9.79404 5.43842 9.50115C5.14553 9.20825 5.14553 8.73338 5.43842 8.44049L10.9688 2.91016Z" fill="#b6b6b6"/>
</svg>
