<svg width="20" height="20" viewBox="0 0 20 20" fill="none" xmlns="http://www.w3.org/2000/svg">
<g clip-path="url(#clip0_1397:105)">
<path d="M2.75018 10.0283H13.8619C14.7205 10.031 15.415 11.0004 15.4178 11.859C15.415 12.7176 14.7205 13.4121 13.8619 13.4148H12.6287L12.8556 13.1879C13.1592 12.8844 13.1592 12.3922 12.8556 12.0887C12.5521 11.7852 12.0599 11.7852 11.7564 12.0887L10.2006 13.6445C9.97909 13.866 9.91073 14.2023 10.031 14.4922C10.1514 14.782 10.4357 14.9734 10.7502 14.9734H13.8619C15.5791 14.9734 16.9736 13.5816 16.9736 11.8617C16.9736 10.1445 15.5818 8.53994 13.8619 8.53994H2.75018C2.75019 8.89323 2.75 8.81788 2.75 9.24991C2.75 9.6792 2.75 9.87164 2.75018 10.0283ZM12.8556 15.1977L11.2998 13.6418C10.9963 13.3383 10.5041 13.3383 10.2006 13.6418C9.89706 13.9453 9.89706 14.4375 10.2006 14.741L11.7564 16.2969C12.0599 16.6004 12.5521 16.6004 12.8556 16.2969C13.1619 15.9934 13.1619 15.5012 12.8556 15.1977Z" fill="#b6b6b6"/>
<rect x="3" y="3.5" width="14" height="1.49828" fill="#b6b6b6"/>
<rect x="3" y="13.5" width="6" height="1.49828" fill="#b6b6b6"/>
</g>
<defs>
<clipPath id="clip0_1397:105">
<rect width="14" height="14" fill="white" transform="translate(3 3)"/>
</clipPath>
</defs>
</svg>
