<svg width="48" height="48" viewBox="0 0 48 48" fill="none" xmlns="http://www.w3.org/2000/svg">
<rect x="13.375" y="13.625" width="23.25" height="0.75" rx="0.375" stroke="#737373" stroke-width="0.75"/>
<path d="M9.5 14C9.5 13.7239 9.72386 13.5 10 13.5C10.2761 13.5 10.5 13.7239 10.5 14C10.5 14.2761 10.2761 14.5 10 14.5C9.72386 14.5 9.5 14.2761 9.5 14Z" stroke="#737373"/>
<path d="M9.5 19C9.5 18.7239 9.72386 18.5 10 18.5C10.2761 18.5 10.5 18.7239 10.5 19C10.5 19.2761 10.2761 19.5 10 19.5C9.72386 19.5 9.5 19.2761 9.5 19Z" stroke="#737373"/>
<path d="M13.5 19C13.5 18.8619 13.6119 18.75 13.75 18.75H30.25C30.3881 18.75 30.5 18.8619 30.5 19C30.5 19.1381 30.3881 19.25 30.25 19.25H13.75C13.6119 19.25 13.5 19.1381 13.5 19Z" stroke="#737373"/>
<rect x="13.375" y="23.625" width="23.25" height="0.75" rx="0.375" stroke="#737373" stroke-width="0.75"/>
<path d="M9.5 24C9.5 23.7239 9.72386 23.5 10 23.5C10.2761 23.5 10.5 23.7239 10.5 24C10.5 24.2761 10.2761 24.5 10 24.5C9.72386 24.5 9.5 24.2761 9.5 24Z" stroke="#737373"/>
<path d="M9.5 29C9.5 28.7239 9.72386 28.5 10 28.5C10.2761 28.5 10.5 28.7239 10.5 29C10.5 29.2761 10.2761 29.5 10 29.5C9.72386 29.5 9.5 29.2761 9.5 29Z" stroke="#737373"/>
<path d="M13.5 29C13.5 28.8619 13.6119 28.75 13.75 28.75H30.25C30.3881 28.75 30.5 28.8619 30.5 29C30.5 29.1381 30.3881 29.25 30.25 29.25H13.75C13.6119 29.25 13.5 29.1381 13.5 29Z" stroke="#737373"/>
<path d="M9.5 34C9.5 33.7239 9.72386 33.5 10 33.5C10.2761 33.5 10.5 33.7239 10.5 34C10.5 34.2761 10.2761 34.5 10 34.5C9.72386 34.5 9.5 34.2761 9.5 34Z" stroke="#737373"/>
<path d="M13.5 34C13.5 33.8619 13.6119 33.75 13.75 33.75H36.25C36.3881 33.75 36.5 33.8619 36.5 34C36.5 34.1381 36.3881 34.25 36.25 34.25H13.75C13.6119 34.25 13.5 34.1381 13.5 34Z" stroke="#737373"/>
</svg>
