<svg width="40" height="41" viewBox="0 0 40 41" fill="none" xmlns="http://www.w3.org/2000/svg">
<rect x="0.5" y="1.4375" width="39" height="39" rx="5.5" stroke="#525148"/>
<rect x="10" y="7.25" width="24" height="1.5" rx="0.75" fill="#B6B6B6"/>
<path d="M6 8C6 7.44772 6.44772 7 7 7V7C7.55228 7 8 7.44772 8 8V8C8 8.55228 7.55228 9 7 9V9C6.44772 9 6 8.55228 6 8V8Z" fill="#B6B6B6"/>
<path d="M6 13C6 12.4477 6.44772 12 7 12V12C7.55228 12 8 12.4477 8 13V13C8 13.5523 7.55228 14 7 14V14C6.44772 14 6 13.5523 6 13V13Z" fill="#B6B6B6"/>
<path d="M10 13C10 12.5858 10.3358 12.25 10.75 12.25H27.25C27.6642 12.25 28 12.5858 28 13V13C28 13.4142 27.6642 13.75 27.25 13.75H10.75C10.3358 13.75 10 13.4142 10 13V13Z" fill="#B6B6B6"/>
<rect x="10" y="17.25" width="24" height="1.5" rx="0.75" fill="#B6B6B6"/>
<path d="M6 18C6 17.4477 6.44772 17 7 17V17C7.55228 17 8 17.4477 8 18V18C8 18.5523 7.55228 19 7 19V19C6.44772 19 6 18.5523 6 18V18Z" fill="#B6B6B6"/>
<path d="M6 23C6 22.4477 6.44772 22 7 22V22C7.55228 22 8 22.4477 8 23V23C8 23.5523 7.55228 24 7 24V24C6.44772 24 6 23.5523 6 23V23Z" fill="#B6B6B6"/>
<path d="M10 23C10 22.5858 10.3358 22.25 10.75 22.25H27.25C27.6642 22.25 28 22.5858 28 23V23C28 23.4142 27.6642 23.75 27.25 23.75H10.75C10.3358 23.75 10 23.4142 10 23V23Z" fill="#B6B6B6"/>
<path d="M6 28C6 27.4477 6.44772 27 7 27V27C7.55228 27 8 27.4477 8 28V28C8 28.5523 7.55228 29 7 29V29C6.44772 29 6 28.5523 6 28V28Z" fill="#B6B6B6"/>
<path d="M10 28C10 27.5858 10.3358 27.25 10.75 27.25H33.25C33.6642 27.25 34 27.5858 34 28V28C34 28.4142 33.6642 28.75 33.25 28.75H10.75C10.3358 28.75 10 28.4142 10 28V28Z" fill="#B6B6B6"/>
<path d="M6 33C6 32.4477 6.44772 32 7 32V32C7.55228 32 8 32.4477 8 33V33C8 33.5523 7.55228 34 7 34V34C6.44772 34 6 33.5523 6 33V33Z" fill="#B6B6B6"/>
<rect x="10" y="32.25" width="18" height="1.5" rx="0.75" fill="#B6B6B6"/>
</svg>
