<svg width="48" height="48" viewBox="0 0 48 48" fill="none" xmlns="http://www.w3.org/2000/svg">
<path d="M10 14C10 13.4477 10.4477 13 11 13C11.5523 13 12 13.4477 12 14C12 14.5523 11.5523 15 11 15C10.4477 15 10 14.5523 10 14Z" fill="#737373"/>
<path d="M14 19C14 18.4477 14.4477 18 15 18C15.5523 18 16 18.4477 16 19C16 19.5523 15.5523 20 15 20C14.4477 20 14 19.5523 14 19Z" fill="#737373"/>
<path d="M18 24C18 23.4477 18.4477 23 19 23C19.5523 23 20 23.4477 20 24C20 24.5523 19.5523 25 19 25C18.4477 25 18 24.5523 18 24Z" fill="#737373"/>
<path d="M14 14C14 13.5858 14.3358 13.25 14.75 13.25H37.25C37.6642 13.25 38 13.5858 38 14C38 14.4142 37.6642 14.75 37.25 14.75H14.75C14.3358 14.75 14 14.4142 14 14Z" fill="#737373"/>
<path d="M37.25 18.25H18.75C18.3358 18.25 18 18.5858 18 19C18 19.4142 18.3358 19.75 18.75 19.75H37.25C37.6642 19.75 38 19.4142 38 19C38 18.5858 37.6642 18.25 37.25 18.25Z" fill="#737373"/>
<path d="M37.25 23.25H22.75C22.3358 23.25 22 23.5858 22 24C22 24.4142 22.3358 24.75 22.75 24.75H37.25C37.6642 24.75 38 24.4142 38 24C38 23.5858 37.6642 23.25 37.25 23.25Z" fill="#737373"/>
<path d="M18 29C18 28.4477 18.4477 28 19 28C19.5523 28 20 28.4477 20 29C20 29.5523 19.5523 30 19 30C18.4477 30 18 29.5523 18 29Z" fill="#737373"/>
<path d="M37.25 28.25H22.75C22.3358 28.25 22 28.5858 22 29C22 29.4142 22.3358 29.75 22.75 29.75H37.25C37.6642 29.75 38 29.4142 38 29C38 28.5858 37.6642 28.25 37.25 28.25Z" fill="#737373"/>
<path d="M10 34C10 33.4477 10.4477 33 11 33C11.5523 33 12 33.4477 12 34C12 34.5523 11.5523 35 11 35C10.4477 35 10 34.5523 10 34Z" fill="#737373"/>
<path d="M37.25 33.25H14.75C14.3358 33.25 14 33.5858 14 34C14 34.4142 14.3358 34.75 14.75 34.75H37.25C37.6642 34.75 38 34.4142 38 34C38 33.5858 37.6642 33.25 37.25 33.25Z" fill="#737373"/>
</svg>
