<svg width="40" height="40" viewBox="0 0 40 40" fill="none" xmlns="http://www.w3.org/2000/svg">
<g clip-path="url(#clip0_3043_3806)">
<rect x="0.5" y="0.4375" width="39" height="39" rx="5.5" stroke="#525148"/>
<rect x="10" y="6.25" width="24" height="1.5" rx="0.75" fill="#B6B6B6"/>
<path d="M6 7C6 6.44772 6.44772 6 7 6C7.55228 6 8 6.44772 8 7C8 7.55228 7.55228 8 7 8C6.44772 8 6 7.55228 6 7Z" fill="#B6B6B6"/>
<path d="M6 12C6 11.4477 6.44772 11 7 11C7.55228 11 8 11.4477 8 12C8 12.5523 7.55228 13 7 13C6.44772 13 6 12.5523 6 12Z" fill="#B6B6B6"/>
<path d="M10 17C10 16.4477 10.4477 16 11 16C11.5523 16 12 16.4477 12 17C12 17.5523 11.5523 18 11 18C10.4477 18 10 17.5523 10 17Z" fill="#B6B6B6"/>
<path d="M14 22C14 21.4477 14.4477 21 15 21C15.5523 21 16 21.4477 16 22C16 22.5523 15.5523 23 15 23C14.4477 23 14 22.5523 14 22Z" fill="#B6B6B6"/>
<path d="M10 12C10 11.5858 10.3358 11.25 10.75 11.25H33.25C33.6642 11.25 34 11.5858 34 12C34 12.4142 33.6642 12.75 33.25 12.75H10.75C10.3358 12.75 10 12.4142 10 12Z" fill="#B6B6B6"/>
<rect x="14" y="16.25" width="20" height="1.5" rx="0.75" fill="#B6B6B6"/>
<rect x="18" y="21.25" width="16" height="1.5" rx="0.75" fill="#B6B6B6"/>
<path d="M14 27C14 26.4477 14.4477 26 15 26C15.5523 26 16 26.4477 16 27C16 27.5523 15.5523 28 15 28C14.4477 28 14 27.5523 14 27Z" fill="#B6B6B6"/>
<rect x="18" y="26.25" width="16" height="1.5" rx="0.75" fill="#B6B6B6"/>
<path d="M6 32C6 31.4477 6.44772 31 7 31C7.55228 31 8 31.4477 8 32C8 32.5523 7.55228 33 7 33C6.44772 33 6 32.5523 6 32Z" fill="#B6B6B6"/>
<rect x="10" y="31.25" width="24" height="1.5" rx="0.75" fill="#B6B6B6"/>
</g>
<defs>
<clipPath id="clip0_3043_3806">
<rect width="40" height="40" fill="white"/>
</clipPath>
</defs>
</svg>
