<svg width="40" height="41" viewBox="0 0 40 41" fill="none" xmlns="http://www.w3.org/2000/svg">
<rect x="0.5" y="1.4375" width="39" height="39" rx="5.5" stroke="#525148"/>
<rect x="6" y="31.25" width="4" height="1.5" rx="0.75" fill="#B6B6B6"/>
<rect x="12" y="31.25" width="4" height="1.5" rx="0.75" fill="#B6B6B6"/>
<rect x="18" y="31.25" width="4" height="1.5" rx="0.75" fill="#B6B6B6"/>
<rect x="24" y="31.25" width="4" height="1.5" rx="0.75" fill="#B6B6B6"/>
<rect x="6" y="23.25" width="4" height="1.5" rx="0.75" fill="#B6B6B6"/>
<rect x="12" y="23.25" width="4" height="1.5" rx="0.75" fill="#B6B6B6"/>
<rect x="18" y="23.25" width="4" height="1.5" rx="0.75" fill="#B6B6B6"/>
<rect x="24" y="23.25" width="4" height="1.5" rx="0.75" fill="#B6B6B6"/>
<rect x="30" y="23.25" width="4" height="1.5" rx="0.75" fill="#B6B6B6"/>
<rect x="6" y="27.25" width="4" height="1.5" rx="0.75" fill="#B6B6B6"/>
<rect x="12" y="27.25" width="4" height="1.5" rx="0.75" fill="#B6B6B6"/>
<rect x="18" y="27.25" width="4" height="1.5" rx="0.75" fill="#B6B6B6"/>
<rect x="24" y="27.25" width="4" height="1.5" rx="0.75" fill="#B6B6B6"/>
<rect x="30" y="27.25" width="4" height="1.5" rx="0.75" fill="#B6B6B6"/>
<rect x="6" y="19.25" width="4" height="1.5" rx="0.75" fill="#B6B6B6"/>
<rect x="12" y="19.25" width="4" height="1.5" rx="0.75" fill="#B6B6B6"/>
<rect x="18" y="19.25" width="4" height="1.5" rx="0.75" fill="#B6B6B6"/>
<rect x="24" y="19.25" width="4" height="1.5" rx="0.75" fill="#B6B6B6"/>
<rect x="30" y="19.25" width="4" height="1.5" rx="0.75" fill="#B6B6B6"/>
<rect x="12" y="15.25" width="4" height="1.5" rx="0.75" fill="#B6B6B6"/>
<rect x="18" y="15.25" width="4" height="1.5" rx="0.75" fill="#B6B6B6"/>
<rect x="24" y="15.25" width="4" height="1.5" rx="0.75" fill="#B6B6B6"/>
<rect x="30" y="15.25" width="4" height="1.5" rx="0.75" fill="#B6B6B6"/>
<rect x="6" y="9.25" width="10" height="1.5" rx="0.75" fill="#B6B6B6"/>
<rect x="30" y="9.25" width="4" height="1.5" rx="0.75" fill="#B6B6B6"/>
</svg>
