<svg width="48" height="48" viewBox="0 0 48 48" fill="none" xmlns="http://www.w3.org/2000/svg">
<rect x="9.5" y="14.5" width="13" height="19" rx="1.5" fill="#191919" stroke="#313131"/>
<rect x="25.5" y="14.5" width="13" height="19" rx="1.5" fill="#191919" stroke="#313131"/>
<path d="M9 16C9 14.8954 9.89543 14 11 14H21C22.1046 14 23 14.8954 23 16V24H9V16Z" fill="#313131"/>
<path d="M25 16C25 14.8954 25.8954 14 27 14H37C38.1046 14 39 14.8954 39 16V24H25V16Z" fill="#313131"/>
<rect x="12" y="26.25" width="8" height="1.5" rx="0.75" fill="#737373"/>
<rect x="12" y="29.25" width="8" height="1.5" rx="0.75" fill="#737373"/>
<rect x="28" y="26.25" width="8" height="1.5" rx="0.75" fill="#737373"/>
<rect x="28" y="29.25" width="8" height="1.5" rx="0.75" fill="#737373"/>
</svg>
