<svg width="48" height="48" viewBox="0 0 48 48" fill="none" xmlns="http://www.w3.org/2000/svg">
<path d="M29.7647 24.6284L32.169 22.2241C33.9345 20.4587 33.9345 17.5964 32.169 15.831C30.4036 14.0655 27.5413 14.0655 25.7759 15.831L22.9345 18.6724C21.169 20.4378 21.169 23.3001 22.9345 25.0655C23.3619 25.493 23.8537 25.817 24.3787 26.0374C24.3975 26.5452 24.2631 27.0577 23.9755 27.4995C23.2077 27.206 22.4878 26.7499 21.8689 26.1311C19.515 23.7772 19.515 19.9607 21.8689 17.6068L24.7104 14.7654C27.0643 12.4115 30.8807 12.4115 33.2346 14.7654C35.5885 17.1193 35.5885 20.9357 33.2346 23.2896L30.3932 26.1311C30.233 26.2912 30.066 26.4405 29.8932 26.5789C29.9294 25.9271 29.8866 25.2718 29.7647 24.6284Z" fill="#737373"/>
<path d="M18.2353 23.3716L15.831 25.7759C14.0655 27.5413 14.0655 30.4036 15.831 32.169C17.5964 33.9345 20.4587 33.9345 22.2241 32.169L25.0655 29.3276C26.831 27.5622 26.831 24.6999 25.0655 22.9345C24.6381 22.507 24.1463 22.183 23.6213 21.9626C23.6025 21.4548 23.7369 20.9423 24.0245 20.5005C24.7923 20.794 25.5122 21.2501 26.1311 21.8689C28.485 24.2228 28.485 28.0393 26.1311 30.3932L23.2896 33.2346C20.9357 35.5885 17.1193 35.5885 14.7654 33.2346C12.4115 30.8807 12.4115 27.0643 14.7654 24.7104L17.6068 21.8689C17.767 21.7088 17.934 21.5595 18.1068 21.4211C18.0706 22.0729 18.1134 22.7282 18.2353 23.3716Z" fill="#737373"/>
</svg>