<svg width="365" height="136" viewBox="0 0 365 136" fill="none" xmlns="http://www.w3.org/2000/svg">
	<path d="M282.25 71.5L154.25 80L230.25 116" stroke="black"/>
	<path d="M74.25 8C74.25 12.4183 70.6683 16 66.25 16C61.8317 16 58.25 12.4183 58.25 8C58.25 3.58172 61.8317 0 66.25 0C70.6683 0 74.25 3.58172 74.25 8Z" fill="#252525"/>
	<path d="M10.25 48L154.25 80" stroke="black"/>
	<path d="M146.25 20C146.25 26.6274 140.877 32 134.25 32C127.623 32 122.25 26.6274 122.25 20C122.25 13.3726 127.623 8 134.25 8C140.877 8 146.25 13.3726 146.25 20Z" fill="#252525"/>
	<path d="M162.25 80C162.25 84.4183 158.668 88 154.25 88C149.832 88 146.25 84.4183 146.25 80C146.25 75.5817 149.832 72 154.25 72C158.668 72 162.25 75.5817 162.25 80Z" fill="#252525"/>
	<path d="M34.5 112.25C34.5 116.668 30.9183 120.25 26.5 120.25C22.0817 120.25 18.5 116.668 18.5 112.25C18.5 107.832 22.0817 104.25 26.5 104.25C30.9183 104.25 34.5 107.832 34.5 112.25Z" fill="#252525"/>
	<path d="M112.25 124C112.25 129.523 107.773 134 102.25 134C96.7272 134 92.25 129.523 92.25 124C92.25 118.477 96.7272 114 102.25 114C107.773 114 112.25 118.477 112.25 124Z" fill="#252525"/>
	<path d="M20.25 48C20.25 53.5228 15.7728 58 10.25 58C4.72715 58 0.25 53.5228 0.25 48C0.25 42.4772 4.72715 38 10.25 38C15.7728 38 20.25 42.4772 20.25 48Z" fill="#252525"/>
	<path d="M354.25 88L210.25 56" stroke="black"/>
	<path d="M230.25 116L338.25 24L262.25 12L298.25 128" stroke="black"/>
	<path d="M290.75 128C290.75 123.858 294.108 120.5 298.25 120.5C302.392 120.5 305.75 123.858 305.75 128C305.75 132.142 302.392 135.5 298.25 135.5C294.108 135.5 290.75 132.142 290.75 128Z" fill="#FFFEFB" stroke="black"/>
	<path d="M218.75 116C218.75 109.649 223.899 104.5 230.25 104.5C236.601 104.5 241.75 109.649 241.75 116C241.75 122.351 236.601 127.5 230.25 127.5C223.899 127.5 218.75 122.351 218.75 116Z" fill="#FFFEFB" stroke="black"/>
	<path d="M344.75 88C344.75 82.7533 349.003 78.5 354.25 78.5C359.497 78.5 363.75 82.7533 363.75 88C363.75 93.2467 359.497 97.5 354.25 97.5C349.003 97.5 344.75 93.2467 344.75 88Z" fill="#FFFCF1" stroke="black"/>
	<path d="M134.25 20L26.25 112L102.25 124L66.25 8" stroke="black"/>
	<path d="M330.5 23.75C330.5 19.6079 333.858 16.25 338 16.25C342.142 16.25 345.5 19.6079 345.5 23.75C345.5 27.8921 342.142 31.25 338 31.25C333.858 31.25 330.5 27.8921 330.5 23.75Z" fill="#FFF0CE" stroke="black"/>
	<path d="M83.25 64L210.25 56M210.25 56L262 12M210.25 56L134.75 20.5" stroke="black"/>
	<path d="M202.75 54C202.75 49.8579 206.108 46.5 210.25 46.5C214.392 46.5 217.75 49.8579 217.75 54C217.75 58.1421 214.392 61.5 210.25 61.5C206.108 61.5 202.75 58.1421 202.75 54Z" fill="#FFF7DC" stroke="black"/>
	<path d="M252.75 12C252.75 6.75329 257.003 2.5 262.25 2.5C267.497 2.5 271.75 6.75329 271.75 12C271.75 17.2467 267.497 21.5 262.25 21.5C257.003 21.5 252.75 17.2467 252.75 12Z" fill="#FFE9CF" stroke="black"/>
	<circle cx="82.25" cy="64" r="24" fill="black"/>
	<path d="M76.75 55V58" stroke="white"/>
	<path d="M87.75 55V58" stroke="white"/>
	<path d="M84 58.5L90.25 69.5H82.25" stroke="white"/>
	<path d="M82.25 78.5C77.5371 78.5 72.75 73.75 72.75 69" stroke="white"/>
	<circle cx="6" cy="6" r="5.5" transform="matrix(-1 0 0 1 94.25 49)" stroke="white"/>
	<circle cx="6" cy="6" r="5.5" transform="matrix(-1 0 0 1 82.25 49)" stroke="white"/>
	<circle cx="24" cy="24" r="24" transform="matrix(-1 0 0 1 306.25 48)" fill="black"/>
	<path d="M287.75 60V63" stroke="white"/>
	<path d="M276.75 60V63" stroke="white"/>
	<path d="M282.25 76C278.936 76 276.25 74.2091 276.25 72C276.25 69.7909 278.936 68 282.25 68" stroke="white"/>
	<path d="M282.75 86C287.721 86 291.75 81.9706 291.75 77" stroke="white"/>
</svg>
