<svg width="96" height="72" viewBox="0 0 96 72" fill="none" xmlns="http://www.w3.org/2000/svg">
<path d="M59.5 -0.00927734L23.5 35.9907L59.5 71.9907L95.5 35.9907L59.5 -0.00927734Z" fill="#252525"/>
<rect x="63.5" y="3.99072" width="2" height="2" fill="#DCDCDC"/>
<rect x="61.5" y="1.99072" width="2" height="2" fill="#DCDCDC"/>
<rect x="59.5" y="-0.00927734" width="2" height="2" fill="#DCDCDC"/>
<rect x="69.5" y="9.99072" width="2" height="2" fill="#DCDCDC"/>
<rect x="67.5" y="7.99072" width="2" height="2" fill="#DCDCDC"/>
<rect x="65.5" y="5.99072" width="2" height="2" fill="#DCDCDC"/>
<rect x="75.5" y="15.9907" width="2" height="2" fill="#DCDCDC"/>
<rect x="73.5" y="13.9907" width="2" height="2" fill="#DCDCDC"/>
<rect x="71.5" y="11.9907" width="2" height="2" fill="#DCDCDC"/>
<rect x="81.5" y="21.9907" width="2" height="2" fill="#DCDCDC"/>
<rect x="79.5" y="19.9907" width="2" height="2" fill="#DCDCDC"/>
<rect x="77.5" y="17.9907" width="2" height="2" fill="#DCDCDC"/>
<rect x="87.5" y="27.9907" width="2" height="2" fill="#DCDCDC"/>
<rect x="85.5" y="25.9907" width="2" height="2" fill="#DCDCDC"/>
<rect x="83.5" y="23.9907" width="2" height="2" fill="#DCDCDC"/>
<rect x="93.5" y="33.9907" width="2" height="2" fill="#DCDCDC"/>
<rect x="91.5" y="31.9907" width="2" height="2" fill="#DCDCDC"/>
<rect x="89.5" y="29.9907" width="2" height="2" fill="#DCDCDC"/>
<rect width="2" height="2" transform="matrix(1 0 0 -1 63.5 68.0093)" fill="#DCDCDC"/>
<rect width="2" height="2" transform="matrix(1 0 0 -1 61.5 70.0093)" fill="#DCDCDC"/>
<rect width="2" height="2" transform="matrix(1 0 0 -1 59.5 72.0093)" fill="#DCDCDC"/>
<rect width="2" height="2" transform="matrix(1 0 0 -1 69.5 62.0093)" fill="#DCDCDC"/>
<rect width="2" height="2" transform="matrix(1 0 0 -1 67.5 64.0093)" fill="#DCDCDC"/>
<rect width="2" height="2" transform="matrix(1 0 0 -1 65.5 66.0093)" fill="#DCDCDC"/>
<rect width="2" height="2" transform="matrix(1 0 0 -1 75.5 56.0093)" fill="#DCDCDC"/>
<rect width="2" height="2" transform="matrix(1 0 0 -1 73.5 58.0093)" fill="#DCDCDC"/>
<rect width="2" height="2" transform="matrix(1 0 0 -1 71.5 60.0093)" fill="#DCDCDC"/>
<rect width="2" height="2" transform="matrix(1 0 0 -1 81.5 50.0093)" fill="#DCDCDC"/>
<rect width="2" height="2" transform="matrix(1 0 0 -1 79.5 52.0093)" fill="#DCDCDC"/>
<rect width="2" height="2" transform="matrix(1 0 0 -1 77.5 54.0093)" fill="#DCDCDC"/>
<rect width="2" height="2" transform="matrix(1 0 0 -1 87.5 44.0093)" fill="#DCDCDC"/>
<rect width="2" height="2" transform="matrix(1 0 0 -1 85.5 46.0093)" fill="#DCDCDC"/>
<rect width="2" height="2" transform="matrix(1 0 0 -1 83.5 48.0093)" fill="#DCDCDC"/>
<rect width="2" height="2" transform="matrix(1 0 0 -1 93.5 38.0093)" fill="#DCDCDC"/>
<rect width="2" height="2" transform="matrix(1 0 0 -1 91.5 40.0093)" fill="#DCDCDC"/>
<rect width="2" height="2" transform="matrix(1 0 0 -1 89.5 42.0093)" fill="#DCDCDC"/>
<rect width="2" height="2" transform="matrix(-1 0 0 1 55.5 3.99072)" fill="#DCDCDC"/>
<rect width="2" height="2" transform="matrix(-1 0 0 1 57.5 1.99072)" fill="#DCDCDC"/>
<rect width="2" height="2" transform="matrix(-1 0 0 1 59.5 -0.00927734)" fill="#DCDCDC"/>
<rect width="2" height="2" transform="matrix(-1 0 0 1 49.5 9.99072)" fill="#DCDCDC"/>
<rect width="2" height="2" transform="matrix(-1 0 0 1 51.5 7.99072)" fill="#DCDCDC"/>
<rect width="2" height="2" transform="matrix(-1 0 0 1 53.5 5.99072)" fill="#DCDCDC"/>
<rect width="2" height="2" transform="matrix(-1 0 0 1 43.5 15.9907)" fill="#DCDCDC"/>
<rect width="2" height="2" transform="matrix(-1 0 0 1 45.5 13.9907)" fill="#DCDCDC"/>
<rect width="2" height="2" transform="matrix(-1 0 0 1 47.5 11.9907)" fill="#DCDCDC"/>
<rect width="2" height="2" transform="matrix(-1 0 0 1 37.5 21.9907)" fill="#DCDCDC"/>
<rect width="2" height="2" transform="matrix(-1 0 0 1 39.5 19.9907)" fill="#DCDCDC"/>
<rect width="2" height="2" transform="matrix(-1 0 0 1 41.5 17.9907)" fill="#DCDCDC"/>
<rect width="2" height="2" transform="matrix(-1 0 0 1 31.5 27.9907)" fill="#DCDCDC"/>
<rect width="2" height="2" transform="matrix(-1 0 0 1 33.5 25.9907)" fill="#DCDCDC"/>
<rect width="2" height="2" transform="matrix(-1 0 0 1 35.5 23.9907)" fill="#DCDCDC"/>
<rect width="2" height="2" transform="matrix(-1 0 0 1 25.5 33.9907)" fill="#DCDCDC"/>
<rect width="2" height="2" transform="matrix(-1 0 0 1 27.5 31.9907)" fill="#DCDCDC"/>
<rect width="2" height="2" transform="matrix(-1 0 0 1 29.5 29.9907)" fill="#DCDCDC"/>
<rect x="55.5" y="68.0093" width="2" height="2" transform="rotate(180 55.5 68.0093)" fill="#DCDCDC"/>
<rect x="57.5" y="70.0093" width="2" height="2" transform="rotate(180 57.5 70.0093)" fill="#DCDCDC"/>
<rect x="59.5" y="72.0093" width="2" height="2" transform="rotate(180 59.5 72.0093)" fill="#DCDCDC"/>
<rect x="49.5" y="62.0093" width="2" height="2" transform="rotate(180 49.5 62.0093)" fill="#DCDCDC"/>
<rect x="51.5" y="64.0093" width="2" height="2" transform="rotate(180 51.5 64.0093)" fill="#DCDCDC"/>
<rect x="53.5" y="66.0093" width="2" height="2" transform="rotate(180 53.5 66.0093)" fill="#DCDCDC"/>
<rect x="43.5" y="56.0093" width="2" height="2" transform="rotate(180 43.5 56.0093)" fill="#DCDCDC"/>
<rect x="45.5" y="58.0093" width="2" height="2" transform="rotate(180 45.5 58.0093)" fill="#DCDCDC"/>
<rect x="47.5" y="60.0093" width="2" height="2" transform="rotate(180 47.5 60.0093)" fill="#DCDCDC"/>
<rect x="37.5" y="50.0093" width="2" height="2" transform="rotate(180 37.5 50.0093)" fill="#DCDCDC"/>
<rect x="39.5" y="52.0093" width="2" height="2" transform="rotate(180 39.5 52.0093)" fill="#DCDCDC"/>
<rect x="41.5" y="54.0093" width="2" height="2" transform="rotate(180 41.5 54.0093)" fill="#DCDCDC"/>
<rect x="31.5" y="44.0093" width="2" height="2" transform="rotate(180 31.5 44.0093)" fill="#DCDCDC"/>
<rect x="33.5" y="46.0093" width="2" height="2" transform="rotate(180 33.5 46.0093)" fill="#DCDCDC"/>
<rect x="35.5" y="48.0093" width="2" height="2" transform="rotate(180 35.5 48.0093)" fill="#DCDCDC"/>
<rect x="25.5" y="38.0093" width="2" height="2" transform="rotate(180 25.5 38.0093)" fill="#DCDCDC"/>
<rect x="27.5" y="40.0093" width="2" height="2" transform="rotate(180 27.5 40.0093)" fill="#DCDCDC"/>
<rect x="29.5" y="42.0093" width="2" height="2" transform="rotate(180 29.5 42.0093)" fill="#DCDCDC"/>
<path d="M48.5 -0.00927734L12.5 35.9907L48.5 71.9907L84.5 35.9907L48.5 -0.00927734Z" fill="#252525"/>
<rect x="52.5" y="3.99072" width="2" height="2" fill="#DCDCDC"/>
<rect x="50.5" y="1.99072" width="2" height="2" fill="#DCDCDC"/>
<rect x="48.5" y="-0.00927734" width="2" height="2" fill="#DCDCDC"/>
<rect x="58.5" y="9.99072" width="2" height="2" fill="#DCDCDC"/>
<rect x="56.5" y="7.99072" width="2" height="2" fill="#DCDCDC"/>
<rect x="54.5" y="5.99072" width="2" height="2" fill="#DCDCDC"/>
<rect x="64.5" y="15.9907" width="2" height="2" fill="#DCDCDC"/>
<rect x="62.5" y="13.9907" width="2" height="2" fill="#DCDCDC"/>
<rect x="60.5" y="11.9907" width="2" height="2" fill="#DCDCDC"/>
<rect x="70.5" y="21.9907" width="2" height="2" fill="#DCDCDC"/>
<rect x="68.5" y="19.9907" width="2" height="2" fill="#DCDCDC"/>
<rect x="66.5" y="17.9907" width="2" height="2" fill="#DCDCDC"/>
<rect x="76.5" y="27.9907" width="2" height="2" fill="#DCDCDC"/>
<rect x="74.5" y="25.9907" width="2" height="2" fill="#DCDCDC"/>
<rect x="72.5" y="23.9907" width="2" height="2" fill="#DCDCDC"/>
<rect x="82.5" y="33.9907" width="2" height="2" fill="#DCDCDC"/>
<rect x="80.5" y="31.9907" width="2" height="2" fill="#DCDCDC"/>
<rect x="78.5" y="29.9907" width="2" height="2" fill="#DCDCDC"/>
<rect width="2" height="2" transform="matrix(1 0 0 -1 52.5 68.0093)" fill="#DCDCDC"/>
<rect width="2" height="2" transform="matrix(1 0 0 -1 50.5 70.0093)" fill="#DCDCDC"/>
<rect width="2" height="2" transform="matrix(1 0 0 -1 48.5 72.0093)" fill="#DCDCDC"/>
<rect width="2" height="2" transform="matrix(1 0 0 -1 58.5 62.0093)" fill="#DCDCDC"/>
<rect width="2" height="2" transform="matrix(1 0 0 -1 56.5 64.0093)" fill="#DCDCDC"/>
<rect width="2" height="2" transform="matrix(1 0 0 -1 54.5 66.0093)" fill="#DCDCDC"/>
<rect width="2" height="2" transform="matrix(1 0 0 -1 64.5 56.0093)" fill="#DCDCDC"/>
<rect width="2" height="2" transform="matrix(1 0 0 -1 62.5 58.0093)" fill="#DCDCDC"/>
<rect width="2" height="2" transform="matrix(1 0 0 -1 60.5 60.0093)" fill="#DCDCDC"/>
<rect width="2" height="2" transform="matrix(1 0 0 -1 70.5 50.0093)" fill="#DCDCDC"/>
<rect width="2" height="2" transform="matrix(1 0 0 -1 68.5 52.0093)" fill="#DCDCDC"/>
<rect width="2" height="2" transform="matrix(1 0 0 -1 66.5 54.0093)" fill="#DCDCDC"/>
<rect width="2" height="2" transform="matrix(1 0 0 -1 76.5 44.0093)" fill="#DCDCDC"/>
<rect width="2" height="2" transform="matrix(1 0 0 -1 74.5 46.0093)" fill="#DCDCDC"/>
<rect width="2" height="2" transform="matrix(1 0 0 -1 72.5 48.0093)" fill="#DCDCDC"/>
<rect width="2" height="2" transform="matrix(1 0 0 -1 82.5 38.0093)" fill="#DCDCDC"/>
<rect width="2" height="2" transform="matrix(1 0 0 -1 80.5 40.0093)" fill="#DCDCDC"/>
<rect width="2" height="2" transform="matrix(1 0 0 -1 78.5 42.0093)" fill="#DCDCDC"/>
<rect width="2" height="2" transform="matrix(-1 0 0 1 44.5 3.99072)" fill="#DCDCDC"/>
<rect width="2" height="2" transform="matrix(-1 0 0 1 46.5 1.99072)" fill="#DCDCDC"/>
<rect width="2" height="2" transform="matrix(-1 0 0 1 48.5 -0.00927734)" fill="#DCDCDC"/>
<rect width="2" height="2" transform="matrix(-1 0 0 1 38.5 9.99072)" fill="#DCDCDC"/>
<rect width="2" height="2" transform="matrix(-1 0 0 1 40.5 7.99072)" fill="#DCDCDC"/>
<rect width="2" height="2" transform="matrix(-1 0 0 1 42.5 5.99072)" fill="#DCDCDC"/>
<rect width="2" height="2" transform="matrix(-1 0 0 1 32.5 15.9907)" fill="#DCDCDC"/>
<rect width="2" height="2" transform="matrix(-1 0 0 1 34.5 13.9907)" fill="#DCDCDC"/>
<rect width="2" height="2" transform="matrix(-1 0 0 1 36.5 11.9907)" fill="#DCDCDC"/>
<rect width="2" height="2" transform="matrix(-1 0 0 1 26.5 21.9907)" fill="#DCDCDC"/>
<rect width="2" height="2" transform="matrix(-1 0 0 1 28.5 19.9907)" fill="#DCDCDC"/>
<rect width="2" height="2" transform="matrix(-1 0 0 1 30.5 17.9907)" fill="#DCDCDC"/>
<rect width="2" height="2" transform="matrix(-1 0 0 1 20.5 27.9907)" fill="#DCDCDC"/>
<rect width="2" height="2" transform="matrix(-1 0 0 1 22.5 25.9907)" fill="#DCDCDC"/>
<rect width="2" height="2" transform="matrix(-1 0 0 1 24.5 23.9907)" fill="#DCDCDC"/>
<rect width="2" height="2" transform="matrix(-1 0 0 1 14.5 33.9907)" fill="#DCDCDC"/>
<rect width="2" height="2" transform="matrix(-1 0 0 1 16.5 31.9907)" fill="#DCDCDC"/>
<rect width="2" height="2" transform="matrix(-1 0 0 1 18.5 29.9907)" fill="#DCDCDC"/>
<rect x="44.5" y="68.0093" width="2" height="2" transform="rotate(180 44.5 68.0093)" fill="#DCDCDC"/>
<rect x="46.5" y="70.0093" width="2" height="2" transform="rotate(180 46.5 70.0093)" fill="#DCDCDC"/>
<rect x="48.5" y="72.0093" width="2" height="2" transform="rotate(180 48.5 72.0093)" fill="#DCDCDC"/>
<rect x="38.5" y="62.0093" width="2" height="2" transform="rotate(180 38.5 62.0093)" fill="#DCDCDC"/>
<rect x="40.5" y="64.0093" width="2" height="2" transform="rotate(180 40.5 64.0093)" fill="#DCDCDC"/>
<rect x="42.5" y="66.0093" width="2" height="2" transform="rotate(180 42.5 66.0093)" fill="#DCDCDC"/>
<rect x="32.5" y="56.0093" width="2" height="2" transform="rotate(180 32.5 56.0093)" fill="#DCDCDC"/>
<rect x="34.5" y="58.0093" width="2" height="2" transform="rotate(180 34.5 58.0093)" fill="#DCDCDC"/>
<rect x="36.5" y="60.0093" width="2" height="2" transform="rotate(180 36.5 60.0093)" fill="#DCDCDC"/>
<rect x="26.5" y="50.0093" width="2" height="2" transform="rotate(180 26.5 50.0093)" fill="#DCDCDC"/>
<rect x="28.5" y="52.0093" width="2" height="2" transform="rotate(180 28.5 52.0093)" fill="#DCDCDC"/>
<rect x="30.5" y="54.0093" width="2" height="2" transform="rotate(180 30.5 54.0093)" fill="#DCDCDC"/>
<rect x="20.5" y="44.0093" width="2" height="2" transform="rotate(180 20.5 44.0093)" fill="#DCDCDC"/>
<rect x="22.5" y="46.0093" width="2" height="2" transform="rotate(180 22.5 46.0093)" fill="#DCDCDC"/>
<rect x="24.5" y="48.0093" width="2" height="2" transform="rotate(180 24.5 48.0093)" fill="#DCDCDC"/>
<rect x="14.5" y="38.0093" width="2" height="2" transform="rotate(180 14.5 38.0093)" fill="#DCDCDC"/>
<rect x="16.5" y="40.0093" width="2" height="2" transform="rotate(180 16.5 40.0093)" fill="#DCDCDC"/>
<rect x="18.5" y="42.0093" width="2" height="2" transform="rotate(180 18.5 42.0093)" fill="#DCDCDC"/>
<path d="M36.5 -0.00927734L0.5 35.9907L36.5 71.9907L72.5 35.9907L36.5 -0.00927734Z" fill="#252525"/>
<rect x="40.5" y="3.99072" width="2" height="2" fill="#DCDCDC"/>
<rect x="38.5" y="1.99072" width="2" height="2" fill="#DCDCDC"/>
<rect x="36.5" y="-0.00927734" width="2" height="2" fill="#DCDCDC"/>
<rect x="46.5" y="9.99072" width="2" height="2" fill="#DCDCDC"/>
<rect x="44.5" y="7.99072" width="2" height="2" fill="#DCDCDC"/>
<rect x="42.5" y="5.99072" width="2" height="2" fill="#DCDCDC"/>
<rect x="52.5" y="15.9907" width="2" height="2" fill="#DCDCDC"/>
<rect x="50.5" y="13.9907" width="2" height="2" fill="#DCDCDC"/>
<rect x="48.5" y="11.9907" width="2" height="2" fill="#DCDCDC"/>
<rect x="58.5" y="21.9907" width="2" height="2" fill="#DCDCDC"/>
<rect x="56.5" y="19.9907" width="2" height="2" fill="#DCDCDC"/>
<rect x="54.5" y="17.9907" width="2" height="2" fill="#DCDCDC"/>
<rect x="64.5" y="27.9907" width="2" height="2" fill="#DCDCDC"/>
<rect x="62.5" y="25.9907" width="2" height="2" fill="#DCDCDC"/>
<rect x="60.5" y="23.9907" width="2" height="2" fill="#DCDCDC"/>
<rect x="70.5" y="33.9907" width="2" height="2" fill="#DCDCDC"/>
<rect x="68.5" y="31.9907" width="2" height="2" fill="#DCDCDC"/>
<rect x="66.5" y="29.9907" width="2" height="2" fill="#DCDCDC"/>
<rect width="2" height="2" transform="matrix(1 0 0 -1 40.5 68.0093)" fill="#DCDCDC"/>
<rect width="2" height="2" transform="matrix(1 0 0 -1 38.5 70.0093)" fill="#DCDCDC"/>
<rect width="2" height="2" transform="matrix(1 0 0 -1 36.5 72.0093)" fill="#DCDCDC"/>
<rect width="2" height="2" transform="matrix(1 0 0 -1 46.5 62.0093)" fill="#DCDCDC"/>
<rect width="2" height="2" transform="matrix(1 0 0 -1 44.5 64.0093)" fill="#DCDCDC"/>
<rect width="2" height="2" transform="matrix(1 0 0 -1 42.5 66.0093)" fill="#DCDCDC"/>
<rect width="2" height="2" transform="matrix(1 0 0 -1 52.5 56.0093)" fill="#DCDCDC"/>
<rect width="2" height="2" transform="matrix(1 0 0 -1 50.5 58.0093)" fill="#DCDCDC"/>
<rect width="2" height="2" transform="matrix(1 0 0 -1 48.5 60.0093)" fill="#DCDCDC"/>
<rect width="2" height="2" transform="matrix(1 0 0 -1 58.5 50.0093)" fill="#DCDCDC"/>
<rect width="2" height="2" transform="matrix(1 0 0 -1 56.5 52.0093)" fill="#DCDCDC"/>
<rect width="2" height="2" transform="matrix(1 0 0 -1 54.5 54.0093)" fill="#DCDCDC"/>
<rect width="2" height="2" transform="matrix(1 0 0 -1 64.5 44.0093)" fill="#DCDCDC"/>
<rect width="2" height="2" transform="matrix(1 0 0 -1 62.5 46.0093)" fill="#DCDCDC"/>
<rect width="2" height="2" transform="matrix(1 0 0 -1 60.5 48.0093)" fill="#DCDCDC"/>
<rect width="2" height="2" transform="matrix(1 0 0 -1 70.5 38.0093)" fill="#DCDCDC"/>
<rect width="2" height="2" transform="matrix(1 0 0 -1 68.5 40.0093)" fill="#DCDCDC"/>
<rect width="2" height="2" transform="matrix(1 0 0 -1 66.5 42.0093)" fill="#DCDCDC"/>
<rect width="2" height="2" transform="matrix(-1 0 0 1 32.5 3.99072)" fill="#DCDCDC"/>
<rect width="2" height="2" transform="matrix(-1 0 0 1 34.5 1.99072)" fill="#DCDCDC"/>
<rect width="2" height="2" transform="matrix(-1 0 0 1 36.5 -0.00927734)" fill="#DCDCDC"/>
<rect width="2" height="2" transform="matrix(-1 0 0 1 26.5 9.99072)" fill="#DCDCDC"/>
<rect width="2" height="2" transform="matrix(-1 0 0 1 28.5 7.99072)" fill="#DCDCDC"/>
<rect width="2" height="2" transform="matrix(-1 0 0 1 30.5 5.99072)" fill="#DCDCDC"/>
<rect width="2" height="2" transform="matrix(-1 0 0 1 20.5 15.9907)" fill="#DCDCDC"/>
<rect width="2" height="2" transform="matrix(-1 0 0 1 22.5 13.9907)" fill="#DCDCDC"/>
<rect width="2" height="2" transform="matrix(-1 0 0 1 24.5 11.9907)" fill="#DCDCDC"/>
<rect width="2" height="2" transform="matrix(-1 0 0 1 14.5 21.9907)" fill="#DCDCDC"/>
<rect width="2" height="2" transform="matrix(-1 0 0 1 16.5 19.9907)" fill="#DCDCDC"/>
<rect width="2" height="2" transform="matrix(-1 0 0 1 18.5 17.9907)" fill="#DCDCDC"/>
<rect width="2" height="2" transform="matrix(-1 0 0 1 8.5 27.9907)" fill="#DCDCDC"/>
<rect width="2" height="2" transform="matrix(-1 0 0 1 10.5 25.9907)" fill="#DCDCDC"/>
<rect width="2" height="2" transform="matrix(-1 0 0 1 12.5 23.9907)" fill="#DCDCDC"/>
<rect width="2" height="2" transform="matrix(-1 0 0 1 2.5 33.9907)" fill="#DCDCDC"/>
<rect width="2" height="2" transform="matrix(-1 0 0 1 4.5 31.9907)" fill="#DCDCDC"/>
<rect width="2" height="2" transform="matrix(-1 0 0 1 6.5 29.9907)" fill="#DCDCDC"/>
<rect x="32.5" y="68.0093" width="2" height="2" transform="rotate(180 32.5 68.0093)" fill="#DCDCDC"/>
<rect x="34.5" y="70.0093" width="2" height="2" transform="rotate(180 34.5 70.0093)" fill="#DCDCDC"/>
<rect x="36.5" y="72.0093" width="2" height="2" transform="rotate(180 36.5 72.0093)" fill="#DCDCDC"/>
<rect x="26.5" y="62.0093" width="2" height="2" transform="rotate(180 26.5 62.0093)" fill="#DCDCDC"/>
<rect x="28.5" y="64.0093" width="2" height="2" transform="rotate(180 28.5 64.0093)" fill="#DCDCDC"/>
<rect x="30.5" y="66.0093" width="2" height="2" transform="rotate(180 30.5 66.0093)" fill="#DCDCDC"/>
<rect x="20.5" y="56.0093" width="2" height="2" transform="rotate(180 20.5 56.0093)" fill="#DCDCDC"/>
<rect x="22.5" y="58.0093" width="2" height="2" transform="rotate(180 22.5 58.0093)" fill="#DCDCDC"/>
<rect x="24.5" y="60.0093" width="2" height="2" transform="rotate(180 24.5 60.0093)" fill="#DCDCDC"/>
<rect x="14.5" y="50.0093" width="2" height="2" transform="rotate(180 14.5 50.0093)" fill="#DCDCDC"/>
<rect x="16.5" y="52.0093" width="2" height="2" transform="rotate(180 16.5 52.0093)" fill="#DCDCDC"/>
<rect x="18.5" y="54.0093" width="2" height="2" transform="rotate(180 18.5 54.0093)" fill="#DCDCDC"/>
<rect x="8.5" y="44.0093" width="2" height="2" transform="rotate(180 8.5 44.0093)" fill="#DCDCDC"/>
<rect x="10.5" y="46.0093" width="2" height="2" transform="rotate(180 10.5 46.0093)" fill="#DCDCDC"/>
<rect x="12.5" y="48.0093" width="2" height="2" transform="rotate(180 12.5 48.0093)" fill="#DCDCDC"/>
<rect x="2.5" y="38.0093" width="2" height="2" transform="rotate(180 2.5 38.0093)" fill="#DCDCDC"/>
<rect x="4.5" y="40.0093" width="2" height="2" transform="rotate(180 4.5 40.0093)" fill="#DCDCDC"/>
<rect x="6.5" y="42.0093" width="2" height="2" transform="rotate(180 6.5 42.0093)" fill="#DCDCDC"/>
<rect x="30.25" y="20.0532" width="12" height="2" fill="#DCDCDC"/>
<rect x="28.5" y="21.9907" width="16" height="2" fill="#DCDCDC"/>
<rect x="26.5" y="23.9907" width="8" height="2" fill="#DCDCDC"/>
<rect x="38.5" y="23.9907" width="8" height="2" fill="#DCDCDC"/>
<rect x="26.5" y="25.9907" width="6" height="2" fill="#DCDCDC"/>
<rect x="26.5" y="27.9907" width="6" height="2" fill="#DCDCDC"/>
<rect x="40.5" y="25.9907" width="6" height="2" fill="#DCDCDC"/>
<rect x="40.5" y="27.9907" width="6" height="2" fill="#DCDCDC"/>
<rect x="40.5" y="29.9907" width="6" height="2" fill="#DCDCDC"/>
<rect x="38.5" y="31.9907" width="6" height="2" fill="#DCDCDC"/>
<rect x="36.5" y="33.9907" width="8" height="2" fill="#DCDCDC"/>
<rect x="33.5" y="35.9907" width="8" height="2" fill="#DCDCDC"/>
<rect x="33.5" y="37.9907" width="6" height="2" fill="#DCDCDC"/>
<rect x="33.5" y="39.9907" width="6" height="2" fill="#DCDCDC"/>
<rect x="33.5" y="45.6782" width="6" height="2" fill="#DCDCDC"/>
<rect x="33.5" y="47.6782" width="6" height="2" fill="#DCDCDC"/>
<rect x="33.5" y="49.6167" width="6" height="2" fill="#DCDCDC"/>
</svg>
