<svg width="72" height="72" viewBox="0 0 72 72" fill="none" xmlns="http://www.w3.org/2000/svg">
<rect x="18" y="4" width="10" height="64" fill="#252525"/>
<rect width="8" height="68" transform="matrix(-1 0 0 1 36 2)" fill="#252525"/>
<rect x="14" y="8" width="4" height="54" fill="#252525"/>
<rect x="10" y="10" width="4" height="44" fill="#252525"/>
<rect x="6" y="14" width="4" height="38" fill="#252525"/>
<rect x="2" y="22" width="4" height="26" fill="#252525"/>
<rect width="10" height="64" transform="matrix(-1 0 0 1 54 4)" fill="#252525"/>
<rect x="36" y="2" width="8" height="68" fill="#252525"/>
<rect width="4" height="54" transform="matrix(-1 0 0 1 58 8)" fill="#252525"/>
<rect width="4" height="44" transform="matrix(-1 0 0 1 62 10)" fill="#252525"/>
<rect width="4" height="38" transform="matrix(-1 0 0 1 66 14)" fill="#252525"/>
<rect width="4" height="26" transform="matrix(-1 0 0 1 70 22)" fill="#252525"/>
<rect x="14" y="52" width="2" height="10" fill="#DCDCDC"/>
<rect x="16" y="50" width="2" height="2" fill="#DCDCDC"/>
<rect x="18" y="48" width="4" height="2" fill="#DCDCDC"/>
<rect x="22" y="46" width="6" height="2" fill="#DCDCDC"/>
<rect x="28" y="44" width="8" height="2" fill="#DCDCDC"/>
<rect x="28" y="52" width="2" height="10" fill="#DCDCDC"/>
<rect x="20" y="66" width="2" height="2" fill="#DCDCDC"/>
<rect x="18" y="66" width="2" height="2" fill="#DCDCDC"/>
<rect x="22" y="68" width="6" height="2" fill="#DCDCDC"/>
<rect x="28" y="70" width="8" height="2" fill="#DCDCDC"/>
<rect x="16" y="62" width="2" height="4" fill="#DCDCDC"/>
<rect y="28" width="2" height="16" fill="#DCDCDC"/>
<rect x="2" y="22" width="2" height="6.0625" fill="#DCDCDC"/>
<rect x="4" y="18" width="2" height="4" fill="#DCDCDC"/>
<rect x="6" y="14" width="2" height="4" fill="#DCDCDC"/>
<rect x="8" y="12" width="2" height="2" fill="#DCDCDC"/>
<rect x="10" y="10" width="2" height="2" fill="#DCDCDC"/>
<rect x="12" y="8" width="2" height="2" fill="#DCDCDC"/>
<rect x="14" y="6" width="4" height="2" fill="#DCDCDC"/>
<rect x="18" y="4" width="4" height="2" fill="#DCDCDC"/>
<rect x="22" y="2" width="6" height="2" fill="#DCDCDC"/>
<rect x="28" width="8" height="2" fill="#DCDCDC"/>
<rect x="4" y="48" width="2" height="4" fill="#DCDCDC"/>
<rect x="6" y="52" width="4" height="2" fill="#DCDCDC"/>
<rect x="10" y="54" width="4" height="2" fill="#DCDCDC"/>
<rect x="2" y="44" width="2" height="4" fill="#DCDCDC"/>
<rect x="2" y="40" width="2" height="2" fill="#DCDCDC"/>
<rect x="4" y="36" width="2" height="4" fill="#DCDCDC"/>
<rect x="6" y="22" width="2" height="14" fill="#DCDCDC"/>
<rect x="18" y="16" width="2" height="12" fill="#DCDCDC"/>
<rect x="20" y="28" width="2" height="4" fill="#DCDCDC"/>
<rect x="20" y="12" width="2" height="4" fill="#DCDCDC"/>
<rect x="24" y="34" width="4" height="2" fill="#DCDCDC"/>
<rect x="24" y="8" width="4" height="2" fill="#DCDCDC"/>
<rect x="28" y="36" width="8" height="2" fill="#DCDCDC"/>
<rect x="28" y="6" width="8" height="2" fill="#DCDCDC"/>
<rect x="22" y="32" width="2" height="2" fill="#DCDCDC"/>
<rect x="22" y="10" width="2" height="2" fill="#DCDCDC"/>
<rect width="2" height="10" transform="matrix(-1 0 0 1 58 52)" fill="#DCDCDC"/>
<rect width="2" height="2" transform="matrix(-1 0 0 1 56 50)" fill="#DCDCDC"/>
<rect width="4" height="2" transform="matrix(-1 0 0 1 54 48)" fill="#DCDCDC"/>
<rect width="6" height="2" transform="matrix(-1 0 0 1 50 46)" fill="#DCDCDC"/>
<rect width="8" height="2" transform="matrix(-1 0 0 1 44 44)" fill="#DCDCDC"/>
<rect width="2" height="10" transform="matrix(-1 0 0 1 44 52)" fill="#DCDCDC"/>
<rect width="2" height="2" transform="matrix(-1 0 0 1 52 66)" fill="#DCDCDC"/>
<rect width="2" height="2" transform="matrix(-1 0 0 1 54 66)" fill="#DCDCDC"/>
<rect width="6" height="2" transform="matrix(-1 0 0 1 50 68)" fill="#DCDCDC"/>
<rect width="8" height="2" transform="matrix(-1 0 0 1 44 70)" fill="#DCDCDC"/>
<rect width="2" height="4" transform="matrix(-1 0 0 1 56 62)" fill="#DCDCDC"/>
<rect width="2" height="16" transform="matrix(-1 0 0 1 72 28)" fill="#DCDCDC"/>
<rect width="2" height="6.0625" transform="matrix(-1 0 0 1 70 22)" fill="#DCDCDC"/>
<rect width="2" height="4" transform="matrix(-1 0 0 1 68 18)" fill="#DCDCDC"/>
<rect width="2" height="4" transform="matrix(-1 0 0 1 66 14)" fill="#DCDCDC"/>
<rect width="2" height="2" transform="matrix(-1 0 0 1 64 12)" fill="#DCDCDC"/>
<rect width="2" height="2" transform="matrix(-1 0 0 1 62 10)" fill="#DCDCDC"/>
<rect width="2" height="2" transform="matrix(-1 0 0 1 60 8)" fill="#DCDCDC"/>
<rect width="4" height="2" transform="matrix(-1 0 0 1 58 6)" fill="#DCDCDC"/>
<rect width="4" height="2" transform="matrix(-1 0 0 1 54 4)" fill="#DCDCDC"/>
<rect width="6" height="2" transform="matrix(-1 0 0 1 50 2)" fill="#DCDCDC"/>
<rect width="8" height="2" transform="matrix(-1 0 0 1 44 0)" fill="#DCDCDC"/>
<rect width="2" height="4" transform="matrix(-1 0 0 1 68 48)" fill="#DCDCDC"/>
<rect width="4" height="2" transform="matrix(-1 0 0 1 66 52)" fill="#DCDCDC"/>
<rect width="4" height="2" transform="matrix(-1 0 0 1 62 54)" fill="#DCDCDC"/>
<rect width="2" height="4" transform="matrix(-1 0 0 1 70 44)" fill="#DCDCDC"/>
<rect width="2" height="2" transform="matrix(-1 0 0 1 70 40)" fill="#DCDCDC"/>
<rect width="2" height="4" transform="matrix(-1 0 0 1 68 36)" fill="#DCDCDC"/>
<rect width="2" height="14" transform="matrix(-1 0 0 1 66 22)" fill="#DCDCDC"/>
<rect width="2" height="12" transform="matrix(-1 0 0 1 54 16)" fill="#DCDCDC"/>
<rect width="2" height="4" transform="matrix(-1 0 0 1 52 28)" fill="#DCDCDC"/>
<rect width="2" height="4" transform="matrix(-1 0 0 1 52 12)" fill="#DCDCDC"/>
<rect width="4" height="2" transform="matrix(-1 0 0 1 48 34)" fill="#DCDCDC"/>
<rect width="4" height="2" transform="matrix(-1 0 0 1 48 8)" fill="#DCDCDC"/>
<rect width="8" height="2" transform="matrix(-1 0 0 1 44 36)" fill="#DCDCDC"/>
<rect width="8" height="2" transform="matrix(-1 0 0 1 44 6)" fill="#DCDCDC"/>
<rect width="2" height="2" transform="matrix(-1 0 0 1 50 32)" fill="#DCDCDC"/>
<rect width="2" height="2" transform="matrix(-1 0 0 1 50 10)" fill="#DCDCDC"/>
</svg>
