<svg width="68" height="72" viewBox="0 0 68 72" fill="none" xmlns="http://www.w3.org/2000/svg">
<rect x="6" width="54.7915" height="69.3257" fill="#252525"/>
<rect x="2" y="21.9995" width="64" height="48.0005" fill="#252525"/>
<rect x="6" y="2.00568" width="2" height="26" fill="#DCDCDC"/>
<rect x="6" width="56" height="2" fill="#DCDCDC"/>
<rect x="60" y="2" width="2" height="26" fill="#DCDCDC"/>
<rect x="27.9961" y="32" width="12" height="2" transform="rotate(-0.0773959 27.9961 32)" fill="#DCDCDC"/>
<rect x="18" y="20" width="2" height="4" fill="#DCDCDC"/>
<rect x="22" y="28.0304" width="2" height="2" fill="#DCDCDC"/>
<rect x="20" y="24" width="2" height="4" fill="#DCDCDC"/>
<rect x="24" y="29.9893" width="4" height="2" fill="#DCDCDC"/>
<rect width="2" height="4" transform="matrix(-1 0 0 1 50 19.9995)" fill="#DCDCDC"/>
<rect width="2" height="2" transform="matrix(-1 0 0 1 46 28.0299)" fill="#DCDCDC"/>
<rect width="2" height="4" transform="matrix(-1 0 0 1 48 23.9995)" fill="#DCDCDC"/>
<rect width="4" height="2" transform="matrix(-1 0 0 1 44 29.9888)" fill="#DCDCDC"/>
<rect x="25.9961" y="10" width="2" height="4" fill="#DCDCDC"/>
<rect x="40" y="10" width="2" height="4" fill="#DCDCDC"/>
<rect width="2" height="46" transform="matrix(1 0 0 -1 0 70)" fill="#DCDCDC"/>
<rect width="64" height="2" transform="matrix(1 0 0 -1 2 72)" fill="#DCDCDC"/>
<rect width="2" height="46" transform="matrix(1 0 0 -1 66 70)" fill="#DCDCDC"/>
<rect x="6" y="27.9998" width="2" height="2" fill="#DCDCDC"/>
<rect x="4" y="26.0057" width="2" height="2" fill="#DCDCDC"/>
<rect x="2" y="24.0057" width="2" height="2" fill="#DCDCDC"/>
<rect x="2" y="22.0057" width="2" height="2" fill="#DCDCDC"/>
<rect x="4" y="20.0057" width="2" height="2" fill="#DCDCDC"/>
<rect x="12" y="34.0242" width="2" height="2" fill="#DCDCDC"/>
<rect x="10" y="32.0301" width="2" height="2" fill="#DCDCDC"/>
<rect x="8" y="30.0301" width="2" height="2" fill="#DCDCDC"/>
<rect x="18" y="40.0184" width="2" height="2" fill="#DCDCDC"/>
<rect x="16" y="38.0242" width="2" height="2" fill="#DCDCDC"/>
<rect x="14" y="36.0242" width="2" height="2" fill="#DCDCDC"/>
<rect x="24" y="46.0125" width="2" height="2" fill="#DCDCDC"/>
<rect x="22" y="44.0184" width="2" height="2" fill="#DCDCDC"/>
<rect x="20" y="42.0184" width="2" height="2" fill="#DCDCDC"/>
<rect width="2" height="2" transform="matrix(-1 0 0 1 62 27.9941)" fill="#DCDCDC"/>
<rect width="2" height="2" transform="matrix(-1 0 0 1 64 26)" fill="#DCDCDC"/>
<rect width="2" height="2" transform="matrix(-1 0 0 1 66 24)" fill="#DCDCDC"/>
<rect width="2" height="2" transform="matrix(-1 0 0 1 66 21.9995)" fill="#DCDCDC"/>
<rect width="2" height="2" transform="matrix(-1 0 0 1 64 20.0059)" fill="#DCDCDC"/>
<rect width="2" height="2" transform="matrix(-1 0 0 1 56 34.0186)" fill="#DCDCDC"/>
<rect width="2" height="2" transform="matrix(-1 0 0 1 58 32.0244)" fill="#DCDCDC"/>
<rect width="2" height="2" transform="matrix(-1 0 0 1 60 30.0244)" fill="#DCDCDC"/>
<rect width="2" height="2" transform="matrix(-1 0 0 1 50 40.0127)" fill="#DCDCDC"/>
<rect width="2" height="2" transform="matrix(-1 0 0 1 52 38.0186)" fill="#DCDCDC"/>
<rect width="2" height="2" transform="matrix(-1 0 0 1 54 36.0186)" fill="#DCDCDC"/>
<rect width="2" height="2" transform="matrix(-1 0 0 1 44 46.0068)" fill="#DCDCDC"/>
<rect width="2" height="2" transform="matrix(-1 0 0 1 46 44.0127)" fill="#DCDCDC"/>
<rect width="2" height="2" transform="matrix(-1 0 0 1 48 42.0127)" fill="#DCDCDC"/>
<rect width="2" height="2" transform="matrix(-1 0 0 1 4 68)" fill="#DCDCDC"/>
<rect width="2" height="2" transform="matrix(-1 0 0 1 6 66)" fill="#DCDCDC"/>
<rect width="2" height="2" transform="matrix(-1 0 0 1 8 64)" fill="#DCDCDC"/>
<rect width="2" height="2" transform="matrix(-1 0 0 1 10 62)" fill="#DCDCDC"/>
<rect width="2" height="2" transform="matrix(-1 0 0 1 12 60)" fill="#DCDCDC"/>
<rect width="2" height="2" transform="matrix(-1 0 0 1 14 58)" fill="#DCDCDC"/>
<rect width="2" height="2" transform="matrix(-1 0 0 1 16 56)" fill="#DCDCDC"/>
<rect width="2" height="2" transform="matrix(-1 0 0 1 18 54)" fill="#DCDCDC"/>
<rect width="2" height="2" transform="matrix(-1 0 0 1 20 52)" fill="#DCDCDC"/>
<rect width="2" height="2" transform="matrix(-1 0 0 1 22 50)" fill="#DCDCDC"/>
<rect width="2" height="2" transform="matrix(-1 0 0 1 24 48)" fill="#DCDCDC"/>
<rect width="2" height="2" transform="matrix(-1 0 0 1 26 46)" fill="#DCDCDC"/>
<rect width="2" height="2" transform="matrix(-1 0 0 1 28 44)" fill="#DCDCDC"/>
<rect width="2" height="2" transform="matrix(-1 0 0 1 30 42)" fill="#DCDCDC"/>
<rect width="4" height="2" transform="matrix(-1 0 0 1 34 40)" fill="#DCDCDC"/>
<rect x="46" y="49.9998" width="2" height="2" fill="#DCDCDC"/>
<rect x="44" y="47.9998" width="2" height="2" fill="#DCDCDC"/>
<rect x="42" y="45.9998" width="2" height="2" fill="#DCDCDC"/>
<rect x="40" y="43.9998" width="2" height="2" fill="#DCDCDC"/>
<rect x="38" y="41.9998" width="2" height="2" fill="#DCDCDC"/>
<rect x="34" y="39.9998" width="4" height="2" fill="#DCDCDC"/>
<rect x="52" y="55.9998" width="2" height="2" fill="#DCDCDC"/>
<rect x="50" y="53.9998" width="2" height="2" fill="#DCDCDC"/>
<rect x="48" y="51.9998" width="2" height="2" fill="#DCDCDC"/>
<rect x="58" y="61.9998" width="2" height="2" fill="#DCDCDC"/>
<rect x="56" y="59.9998" width="2" height="2" fill="#DCDCDC"/>
<rect x="54" y="57.9998" width="2" height="2" fill="#DCDCDC"/>
<rect x="64" y="67.9998" width="2" height="2" fill="#DCDCDC"/>
<rect x="62" y="65.9998" width="2" height="2" fill="#DCDCDC"/>
<rect x="60" y="63.9998" width="2" height="2" fill="#DCDCDC"/>
</svg>
