<svg width="72" height="72" viewBox="0 0 72 72" fill="none" xmlns="http://www.w3.org/2000/svg">
<path fill-rule="evenodd" clip-rule="evenodd" d="M10 0H36V70H10V68H4V62H2V10H4V4H10V0Z" fill="#252525"/>
<path fill-rule="evenodd" clip-rule="evenodd" d="M62 0H36V70H62V68H68V62H70V10H68V4H62V0Z" fill="#252525"/>
<rect x="10" width="26" height="2" fill="#DCDCDC"/>
<rect x="6" y="2" width="4" height="2" fill="#DCDCDC"/>
<rect x="4" y="4" width="2" height="2" fill="#DCDCDC"/>
<rect x="2" y="6" width="2" height="4" fill="#DCDCDC"/>
<rect y="10" width="2" height="26" fill="#DCDCDC"/>
<rect width="26" height="2" transform="matrix(1 0 0 -1 10 72)" fill="#DCDCDC"/>
<rect width="4" height="2" transform="matrix(1 0 0 -1 6 70)" fill="#DCDCDC"/>
<rect width="2" height="2" transform="matrix(1 0 0 -1 4 68)" fill="#DCDCDC"/>
<rect width="2" height="4" transform="matrix(1 0 0 -1 2 66)" fill="#DCDCDC"/>
<rect width="2" height="26" transform="matrix(1 0 0 -1 0 62)" fill="#DCDCDC"/>
<rect width="26" height="2" transform="matrix(-1 0 0 1 62 0)" fill="#DCDCDC"/>
<rect width="4" height="2" transform="matrix(-1 0 0 1 66 2)" fill="#DCDCDC"/>
<rect width="2" height="2" transform="matrix(-1 0 0 1 68 4)" fill="#DCDCDC"/>
<rect width="2" height="4" transform="matrix(-1 0 0 1 70 6)" fill="#DCDCDC"/>
<rect width="2" height="26" transform="matrix(-1 0 0 1 72 10)" fill="#DCDCDC"/>
<rect x="62" y="72" width="26" height="2" transform="rotate(180 62 72)" fill="#DCDCDC"/>
<rect x="66" y="70" width="4" height="2" transform="rotate(180 66 70)" fill="#DCDCDC"/>
<rect x="68" y="68" width="2" height="2" transform="rotate(180 68 68)" fill="#DCDCDC"/>
<rect x="70" y="66" width="2" height="4" transform="rotate(180 70 66)" fill="#DCDCDC"/>
<rect x="72" y="62" width="2" height="26" transform="rotate(180 72 62)" fill="#DCDCDC"/>
<rect width="2" height="2" transform="matrix(-1 0 0 1 64 34)" fill="#DCDCDC"/>
<rect width="2" height="2" transform="matrix(-1 0 0 1 62 36)" fill="#DCDCDC"/>
<rect width="2" height="2" transform="matrix(-1 0 0 1 60 38)" fill="#DCDCDC"/>
<rect width="2" height="2" transform="matrix(-1 0 0 1 58 40)" fill="#DCDCDC"/>
<rect width="2" height="14" transform="matrix(-1 0 0 1 56 30)" fill="#DCDCDC"/>
<rect width="2" height="2" transform="matrix(-1 0 0 1 54 40)" fill="#DCDCDC"/>
<rect width="2" height="2" transform="matrix(-1 0 0 1 52 38)" fill="#DCDCDC"/>
<rect width="2" height="2" transform="matrix(-1 0 0 1 50 36)" fill="#DCDCDC"/>
<rect width="2" height="2" transform="matrix(-1 0 0 1 48 34)" fill="#DCDCDC"/>
<rect width="2" height="4" transform="matrix(-1 0 0 1 54 26)" fill="#DCDCDC"/>
<rect width="2" height="2" transform="matrix(-1 0 0 1 52 24)" fill="#DCDCDC"/>
<rect width="2" height="2" transform="matrix(-1 0 0 1 50 22)" fill="#DCDCDC"/>
<rect width="2" height="2" transform="matrix(-1 0 0 1 48 20)" fill="#DCDCDC"/>
<rect width="4" height="2" transform="matrix(-1 0 0 1 46 18)" fill="#DCDCDC"/>
<rect width="6" height="2" transform="matrix(-1 0 0 1 42 16)" fill="#DCDCDC"/>
<rect x="24" y="20" width="2" height="2" fill="#DCDCDC"/>
<rect x="26" y="18" width="4" height="2" fill="#DCDCDC"/>
<rect x="30" y="16" width="6" height="2" fill="#DCDCDC"/>
<rect width="2" height="2" transform="matrix(1 0 0 -1 8 38)" fill="#DCDCDC"/>
<rect width="2" height="2" transform="matrix(1 0 0 -1 10 36)" fill="#DCDCDC"/>
<rect width="2" height="2" transform="matrix(1 0 0 -1 12 34)" fill="#DCDCDC"/>
<rect width="2" height="2" transform="matrix(1 0 0 -1 14 32)" fill="#DCDCDC"/>
<rect width="2" height="14" transform="matrix(1 0 0 -1 16 42)" fill="#DCDCDC"/>
<rect width="2" height="2" transform="matrix(1 0 0 -1 18 32)" fill="#DCDCDC"/>
<rect width="2" height="2" transform="matrix(1 0 0 -1 20 34)" fill="#DCDCDC"/>
<rect width="2" height="2" transform="matrix(1 0 0 -1 22 36)" fill="#DCDCDC"/>
<rect width="2" height="2" transform="matrix(1 0 0 -1 24 38)" fill="#DCDCDC"/>
<rect width="2" height="4" transform="matrix(1 0 0 -1 18 46)" fill="#DCDCDC"/>
<rect width="2" height="2" transform="matrix(1 0 0 -1 20 48)" fill="#DCDCDC"/>
<rect width="2" height="2" transform="matrix(1 0 0 -1 22 50)" fill="#DCDCDC"/>
<rect width="2" height="2" transform="matrix(1 0 0 -1 24 52)" fill="#DCDCDC"/>
<rect width="4" height="2" transform="matrix(1 0 0 -1 26 54)" fill="#DCDCDC"/>
<rect width="6" height="2" transform="matrix(1 0 0 -1 30 56)" fill="#DCDCDC"/>
<rect x="48" y="52" width="2" height="2" transform="rotate(-180 48 52)" fill="#DCDCDC"/>
<rect x="46" y="54" width="4" height="2" transform="rotate(-180 46 54)" fill="#DCDCDC"/>
<rect x="42" y="56" width="6" height="2" transform="rotate(-180 42 56)" fill="#DCDCDC"/>
</svg>
