<svg width="72" height="72" viewBox="0 0 72 72" fill="none" xmlns="http://www.w3.org/2000/svg">
<rect x="54" y="68" width="52" height="48" transform="rotate(180 54 68)" fill="#252525"/>
<rect x="52" y="70" width="44" height="52" transform="rotate(180 52 70)" fill="#252525"/>
<rect x="62" y="60" width="52" height="48" transform="rotate(180 62 60)" fill="#252525"/>
<rect x="60" y="62" width="44" height="52" transform="rotate(180 60 62)" fill="#252525"/>
<rect x="70" y="52" width="52" height="48" transform="rotate(180 70 52)" fill="#252525"/>
<rect x="68" y="54" width="44" height="52" transform="rotate(180 68 54)" fill="#252525"/>
<rect x="12" y="44" width="2" height="2" fill="#DCDCDC"/>
<rect x="14" y="46" width="2" height="2" fill="#DCDCDC"/>
<rect x="16" y="48" width="2" height="2" fill="#DCDCDC"/>
<rect x="18" y="50" width="2" height="2" fill="#DCDCDC"/>
<rect x="20" y="52" width="2" height="2" fill="#DCDCDC"/>
<rect x="22" y="54" width="2" height="2" fill="#DCDCDC"/>
<rect width="2" height="2" transform="matrix(-1 0 0 1 38 40)" fill="#DCDCDC"/>
<rect width="2" height="2" transform="matrix(-1 0 0 1 36 42)" fill="#DCDCDC"/>
<rect width="2" height="2" transform="matrix(-1 0 0 1 34 44)" fill="#DCDCDC"/>
<rect width="2" height="2" transform="matrix(-1 0 0 1 32 46)" fill="#DCDCDC"/>
<rect width="2" height="2" transform="matrix(-1 0 0 1 30 48)" fill="#DCDCDC"/>
<rect width="2" height="2" transform="matrix(-1 0 0 1 28 50)" fill="#DCDCDC"/>
<rect width="2" height="2" transform="matrix(-1 0 0 1 26 52)" fill="#DCDCDC"/>
<rect width="2" height="2" transform="matrix(-1 0 0 1 24 54)" fill="#DCDCDC"/>
<rect width="2" height="2" transform="matrix(-1 0 0 1 46 32)" fill="#DCDCDC"/>
<rect width="2" height="2" transform="matrix(-1 0 0 1 44 34)" fill="#DCDCDC"/>
<rect width="2" height="2" transform="matrix(-1 0 0 1 42 36)" fill="#DCDCDC"/>
<rect width="2" height="2" transform="matrix(-1 0 0 1 40 38)" fill="#DCDCDC"/>
<rect width="2" height="2" transform="matrix(-1 0 0 1 38 40)" fill="#DCDCDC"/>
<rect y="24" width="2" height="20" fill="#DCDCDC"/>
<rect x="2" y="20" width="2" height="4" fill="#DCDCDC"/>
<rect x="4" y="20" width="2" height="4" transform="rotate(-90 4 20)" fill="#DCDCDC"/>
<rect x="8" y="18" width="2" height="20" transform="rotate(-90 8 18)" fill="#DCDCDC"/>
<rect width="2" height="20" transform="matrix(1 0 0 -1 0 64)" fill="#DCDCDC"/>
<rect width="2" height="4" transform="matrix(1 0 0 -1 2 68)" fill="#DCDCDC"/>
<rect width="2" height="4" transform="matrix(0 1 1 0 4 68)" fill="#DCDCDC"/>
<rect width="2" height="20" transform="matrix(0 1 1 0 8 70)" fill="#DCDCDC"/>
<rect width="2" height="20" transform="matrix(-1 0 0 1 56 24)" fill="#DCDCDC"/>
<rect width="2" height="4" transform="matrix(-1 0 0 1 54 20)" fill="#DCDCDC"/>
<rect width="2" height="4" transform="matrix(0 -1 -1 0 52 20)" fill="#DCDCDC"/>
<rect width="2" height="20" transform="matrix(0 -1 -1 0 48 18)" fill="#DCDCDC"/>
<rect x="56" y="64" width="2" height="20" transform="rotate(180 56 64)" fill="#DCDCDC"/>
<rect x="54" y="68" width="2" height="4" transform="rotate(180 54 68)" fill="#DCDCDC"/>
<rect x="52" y="68" width="2" height="4" transform="rotate(90 52 68)" fill="#DCDCDC"/>
<rect x="48" y="70" width="2" height="20" transform="rotate(90 48 70)" fill="#DCDCDC"/>
<rect x="10" y="12" width="2" height="4" fill="#DCDCDC"/>
<rect x="12" y="12" width="2" height="4" transform="rotate(-90 12 12)" fill="#DCDCDC"/>
<rect x="16" y="10" width="2" height="20" transform="rotate(-90 16 10)" fill="#DCDCDC"/>
<rect width="2" height="20" transform="matrix(-1 0 0 1 64 16)" fill="#DCDCDC"/>
<rect width="2" height="4" transform="matrix(-1 0 0 1 62 12)" fill="#DCDCDC"/>
<rect width="2" height="4" transform="matrix(0 -1 -1 0 60 12)" fill="#DCDCDC"/>
<rect width="2" height="20" transform="matrix(0 -1 -1 0 56 10)" fill="#DCDCDC"/>
<rect x="64" y="56" width="2" height="20" transform="rotate(180 64 56)" fill="#DCDCDC"/>
<rect x="62" y="60" width="2" height="4" transform="rotate(180 62 60)" fill="#DCDCDC"/>
<rect x="60" y="60" width="2" height="4" transform="rotate(90 60 60)" fill="#DCDCDC"/>
<rect x="18" y="4" width="2" height="4" fill="#DCDCDC"/>
<rect x="20" y="4" width="2" height="4" transform="rotate(-90 20 4)" fill="#DCDCDC"/>
<rect x="24" y="2" width="2" height="20" transform="rotate(-90 24 2)" fill="#DCDCDC"/>
<rect width="2" height="20" transform="matrix(-1 0 0 1 72 8)" fill="#DCDCDC"/>
<rect width="2" height="4" transform="matrix(-1 0 0 1 70 4)" fill="#DCDCDC"/>
<rect width="2" height="4" transform="matrix(0 -1 -1 0 68 4)" fill="#DCDCDC"/>
<rect width="2" height="20" transform="matrix(0 -1 -1 0 64 2)" fill="#DCDCDC"/>
<rect x="72" y="48" width="2" height="20" transform="rotate(180 72 48)" fill="#DCDCDC"/>
<rect x="70" y="52" width="2" height="4" transform="rotate(180 70 52)" fill="#DCDCDC"/>
<rect x="68" y="52" width="2" height="4" transform="rotate(90 68 52)" fill="#DCDCDC"/>
</svg>
