<svg width="120" height="24" viewBox="0 0 120 24" fill="none" xmlns="http://www.w3.org/2000/svg">
<path d="M6.5 22C10.0899 22 13 19.0899 13 15.5C13 11.9101 10.0899 9 6.5 9C2.91015 9 0 11.9101 0 15.5C0 19.0899 2.91015 22 6.5 22Z" fill="#3E58EB"/>
<rect x="15" y="5.5" width="5" height="16.5" fill="#FFB522"/>
<path d="M15 1V5.5H2.5V1L15 1Z" fill="#F55522"/>
<path fill-rule="evenodd" clip-rule="evenodd" d="M42.3445 6.01255H39.0381V7.88269C38.3769 6.71955 36.9859 5.73887 35.2302 5.73887C33.7708 5.73887 32.4711 6.28623 31.5362 7.31252C30.6013 8.33882 30.0312 9.86687 30.0312 11.851V12.0335C30.0312 14.0177 30.6013 15.5457 31.5134 16.572C32.4483 17.6439 33.748 18.1913 35.2302 18.1913C37.0772 18.1913 38.4225 17.279 39.0381 16.1159V17.9388H42.3445V6.01255ZM36.0511 15.6142C34.2269 15.6142 33.2236 14.4054 33.2236 12.0563V11.8739C33.2236 9.43357 34.4093 8.27043 36.0739 8.27043C37.8069 8.27043 38.9926 9.47918 38.9926 11.8739V12.0563C38.9926 14.451 37.8753 15.6142 36.0511 15.6142ZM45.5498 6.01255H48.8561V7.9055C49.4718 6.71955 50.7259 5.73887 52.7325 5.73887C53.9182 5.73887 54.8987 6.10377 55.6284 6.83358C56.3352 7.5862 56.7457 8.77215 56.7457 10.3458V17.9404H53.4394V10.8247C53.4394 9.18267 52.8009 8.43005 51.3415 8.43005C49.905 8.43005 48.8561 9.2967 48.8561 11.0528V17.9404H45.5498V6.01255ZM62.61 16.7317L57.8672 6.01259H61.4243L64.3202 13.1739L66.9881 6.01259H70.1576L63.7045 22H60.5122L62.61 16.7317ZM75.7214 18.1685C73.1903 18.1685 71.8678 16.8913 71.8678 14.4054V3H75.1513V6.01254H78.1011V8.36163H75.1513V14.1089C75.1513 15.044 75.5846 15.5229 76.4738 15.5229C77.337 15.5229 77.745 15.3151 78.1011 15.1199V17.6481C77.4768 17.9466 76.8314 18.1685 75.7214 18.1685ZM84.3081 16.7317L79.5653 6.01259H83.1224L86.0183 13.1739L88.6862 6.01259H91.8557L85.4027 22H82.2103L84.3081 16.7317ZM93.3419 6.01255H96.6483V7.88269C97.3095 6.71955 98.7005 5.73887 100.456 5.73887C101.916 5.73887 103.215 6.28623 104.15 7.31252C105.085 8.33882 105.655 9.86687 105.655 11.851V12.0335C105.655 14.0177 105.085 15.5457 104.173 16.572C103.238 17.6439 101.938 18.1913 100.456 18.1913C98.6093 18.1913 97.2639 17.279 96.6483 16.1159V22H93.3419V6.01255ZM99.4329 15.6142C101.257 15.6142 102.26 14.4054 102.26 12.0563V11.8739C102.26 9.43357 101.075 8.27043 99.4101 8.27043C97.6771 8.27043 96.4914 9.47918 96.4914 11.8739V12.0563C96.4914 14.451 97.6087 15.6142 99.4329 15.6142ZM113.308 18.1885C111.507 18.1885 109.956 17.6412 108.862 16.5693C107.745 15.5431 107.084 14.0379 107.084 12.1223V11.9398C107.084 10.047 107.745 8.51902 108.862 7.42436C109.956 6.35251 111.484 5.73677 113.217 5.73677C114.767 5.73677 116.204 6.19287 117.276 7.1735C118.347 8.15414 119.031 9.68209 119.031 11.803V12.7152H110.435C110.526 14.7221 111.575 15.8395 113.399 15.8395C114.95 15.8395 115.679 15.1782 115.885 14.1747H119.008C118.621 16.7518 116.592 18.1885 113.308 18.1885ZM115.816 10.6855C115.702 8.86106 114.79 8.01727 113.217 8.01727C111.735 8.01727 110.732 8.97509 110.481 10.6855H115.816Z" fill="#dfddd3"/>
</svg>