<svg width="28" height="28" viewBox="0 0 28 28" fill="none" xmlns="http://www.w3.org/2000/svg">
<path fill-rule="evenodd" clip-rule="evenodd" d="M20.6241 8.91603L13.1166 20.1772L7.46973 14.5303L8.53039 13.4697L12.8835 17.8228L19.376 8.08398L20.6241 8.91603Z" fill="#ACA996"/>
<path fill-rule="evenodd" clip-rule="evenodd" d="M14 25.5C20.3513 25.5 25.5 20.3513 25.5 14C25.5 7.64873 20.3513 2.5 14 2.5C7.64873 2.5 2.5 7.64873 2.5 14C2.5 20.3513 7.64873 25.5 14 25.5ZM14 27C21.1797 27 27 21.1797 27 14C27 6.8203 21.1797 1 14 1C6.8203 1 1 6.8203 1 14C1 21.1797 6.8203 27 14 27Z" fill="#ACA996"/>
</svg>
