<svg width="28" height="28" viewBox="0 0 28 28" fill="none" xmlns="http://www.w3.org/2000/svg">
<path fill-rule="evenodd" clip-rule="evenodd" d="M3.02832 8.08292L3.97212 6.91705L14.0002 15.035L24.0283 6.91705L24.9721 8.08292L14.0002 16.9649L3.02832 8.08292Z" fill="#ACA996"/>
<path fill-rule="evenodd" clip-rule="evenodd" d="M22 6H6C4.61929 6 3.5 7.11929 3.5 8.5V19.5C3.5 20.8807 4.61929 22 6 22H22C23.3807 22 24.5 20.8807 24.5 19.5V8.5C24.5 7.11929 23.3807 6 22 6ZM6 4.5C3.79086 4.5 2 6.29086 2 8.5V19.5C2 21.7091 3.79086 23.5 6 23.5H22C24.2091 23.5 26 21.7091 26 19.5V8.5C26 6.29086 24.2091 4.5 22 4.5H6Z" fill="#ACA996"/>
</svg>
